<?xml version="1.0" encoding="utf-8"?>
<!-- Generator: Adobe Illustrator 24.3.0, SVG Export Plug-In . SVG Version: 6.00 Build 0)  -->
<svg version="1.1" id="hortas" xmlns="http://www.w3.org/2000/svg" xmlns:xlink="http://www.w3.org/1999/xlink" x="0px" y="0px"
	 viewBox="0 0 600 600" style="enable-background:new 0 0 600 600;" xml:space="preserve">
<style type="text/css">
	.st0{enable-background:new    ;}
	.st1{fill:#FFFFFF;}
	.st2{fill:none;stroke:#FFFFFF;stroke-width:4;}
	.st3{fill:#939598;}
</style>
<g class="st0">
	<path class="st1" d="M250.5,27.7h-3.4v3.6h-1.5v-8.5h5.4V24h-3.9v2.5h3.4V27.7z"/>
	<path class="st1" d="M258.4,22.8v5.7c0,0.9-0.3,1.6-0.9,2.2s-1.4,0.8-2.3,0.8c-1,0-1.8-0.3-2.3-0.8s-0.9-1.2-0.9-2.2v-5.7h1.5v5.7
		c0,0.6,0.1,1,0.4,1.3s0.7,0.5,1.3,0.5c1.1,0,1.7-0.6,1.7-1.8v-5.7H258.4z"/>
	<path class="st1" d="M266.8,31.4h-1.5l-3.8-6.1v6.1H260v-8.5h1.5l3.8,6.1v-6.1h1.5V31.4z"/>
	<path class="st1" d="M275,28.6c-0.1,0.9-0.4,1.6-1,2.1s-1.4,0.8-2.3,0.8c-0.7,0-1.3-0.2-1.8-0.5s-0.9-0.8-1.2-1.4s-0.4-1.3-0.4-2.1
		v-0.8c0-0.8,0.1-1.5,0.4-2.1s0.7-1.1,1.2-1.4s1.1-0.5,1.8-0.5c0.9,0,1.7,0.3,2.3,0.8s0.9,1.2,1,2.2h-1.5c-0.1-0.6-0.2-1.1-0.5-1.3
		s-0.7-0.4-1.3-0.4c-0.6,0-1.1,0.2-1.5,0.7c-0.3,0.5-0.5,1.2-0.5,2.1v0.8c0,0.9,0.2,1.6,0.5,2.1c0.3,0.5,0.8,0.7,1.5,0.7
		c0.6,0,1-0.1,1.3-0.4s0.5-0.7,0.6-1.3H275z M272.2,31.4l-0.1,0.3c0.6,0.1,0.9,0.4,0.9,1c0,0.4-0.2,0.7-0.5,1s-0.8,0.3-1.4,0.3
		l0-0.8c0.3,0,0.5,0,0.6-0.1s0.2-0.2,0.2-0.4c0-0.2-0.1-0.3-0.2-0.4s-0.4-0.1-0.7-0.1l0.2-0.8H272.2z"/>
	<path class="st1" d="M281.1,29.4h-3.3l-0.7,2h-1.5l3.2-8.5h1.3l3.2,8.5h-1.5L281.1,29.4z M281.7,20.7c0,0.4-0.1,0.8-0.4,1.1
		s-0.6,0.4-0.9,0.4c-0.2,0-0.3,0-0.4,0s-0.3-0.1-0.5-0.2s-0.3-0.2-0.4-0.2s-0.2,0-0.3,0c-0.1,0-0.3,0.1-0.4,0.2s-0.2,0.3-0.2,0.4
		l-0.9,0c0-0.4,0.1-0.8,0.4-1.1s0.6-0.4,0.9-0.4c0.2,0,0.5,0.1,0.8,0.3s0.6,0.3,0.8,0.3c0.1,0,0.3-0.1,0.4-0.2s0.2-0.3,0.2-0.4
		L281.7,20.7z M278.2,28.2h2.5l-1.2-3.5L278.2,28.2z"/>
	<path class="st1" d="M291,27.3c0,0.8-0.1,1.6-0.4,2.2s-0.7,1.1-1.2,1.5s-1.2,0.5-1.9,0.5c-0.7,0-1.3-0.2-1.8-0.5s-1-0.8-1.3-1.4
		s-0.4-1.3-0.4-2.2v-0.5c0-0.8,0.1-1.6,0.4-2.2s0.7-1.1,1.2-1.5s1.2-0.5,1.8-0.5s1.3,0.2,1.8,0.5s1,0.8,1.2,1.4s0.4,1.4,0.4,2.2
		V27.3z M289.6,26.9c0-0.9-0.2-1.7-0.5-2.2s-0.9-0.8-1.5-0.8c-0.6,0-1.1,0.3-1.5,0.8s-0.5,1.2-0.6,2.1v0.5c0,0.9,0.2,1.7,0.5,2.2
		s0.9,0.8,1.5,0.8c0.7,0,1.2-0.2,1.5-0.8s0.5-1.2,0.5-2.2V26.9z"/>
	<path class="st1" d="M297,28.2v3.2h-1.5v-8.5h3.3c1,0,1.7,0.2,2.3,0.7c0.6,0.5,0.8,1.2,0.8,2c0,0.8-0.3,1.5-0.8,2
		c-0.5,0.5-1.3,0.7-2.3,0.7H297z M297,27h1.8c0.5,0,0.9-0.1,1.2-0.4s0.4-0.6,0.4-1.1c0-0.5-0.1-0.8-0.4-1.1s-0.7-0.4-1.2-0.4H297V27
		z"/>
	<path class="st1" d="M306.3,28.1h-1.7v3.3h-1.5v-8.5h3c1,0,1.7,0.2,2.3,0.7c0.5,0.4,0.8,1.1,0.8,1.9c0,0.6-0.1,1-0.4,1.4
		c-0.3,0.4-0.7,0.7-1.2,0.9l1.9,3.6v0.1H308L306.3,28.1z M304.7,26.9h1.5c0.5,0,0.9-0.1,1.2-0.4s0.4-0.6,0.4-1
		c0-0.5-0.1-0.8-0.4-1.1s-0.6-0.4-1.2-0.4h-1.6V26.9z"/>
	<path class="st1" d="M312.2,31.4h-1.5v-8.5h1.5V31.4z"/>
	<path class="st1" d="M320.8,31.4h-1.5l-3.8-6.1v6.1H314v-8.5h1.5l3.8,6.1v-6.1h1.5V31.4z"/>
	<path class="st1" d="M329.1,28.6c-0.1,0.9-0.4,1.6-1,2.1s-1.4,0.8-2.3,0.8c-0.7,0-1.3-0.2-1.8-0.5s-0.9-0.8-1.2-1.4
		s-0.4-1.3-0.4-2.1v-0.8c0-0.8,0.1-1.5,0.4-2.1s0.7-1.1,1.2-1.4s1.1-0.5,1.8-0.5c0.9,0,1.7,0.3,2.3,0.8s0.9,1.2,1,2.2h-1.5
		c-0.1-0.6-0.2-1.1-0.5-1.3s-0.7-0.4-1.3-0.4c-0.6,0-1.1,0.2-1.5,0.7c-0.3,0.5-0.5,1.2-0.5,2.1v0.8c0,0.9,0.2,1.6,0.5,2.1
		c0.3,0.5,0.8,0.7,1.5,0.7c0.6,0,1-0.1,1.3-0.4s0.5-0.7,0.6-1.3H329.1z"/>
	<path class="st1" d="M332,31.4h-1.5v-8.5h1.5V31.4z"/>
	<path class="st1" d="M335.3,28.2v3.2h-1.5v-8.5h3.3c1,0,1.7,0.2,2.3,0.7c0.6,0.5,0.8,1.2,0.8,2c0,0.8-0.3,1.5-0.8,2
		c-0.5,0.5-1.3,0.7-2.3,0.7H335.3z M335.3,27h1.8c0.5,0,0.9-0.1,1.2-0.4s0.4-0.6,0.4-1.1c0-0.5-0.1-0.8-0.4-1.1s-0.7-0.4-1.2-0.4
		h-1.8V27z"/>
	<path class="st1" d="M345.2,29.4h-3.3l-0.7,2h-1.5l3.2-8.5h1.3l3.2,8.5h-1.5L345.2,29.4z M342.3,28.2h2.5l-1.2-3.5L342.3,28.2z"/>
	<path class="st1" d="M349.9,30.2h3.9v1.2h-5.4v-8.5h1.5V30.2z"/>
</g>
<line class="st2" x1="265.9" y1="6" x2="334.1" y2="6"/>
<g class="st0">
	<path class="st3" d="M207.5,50.2h-3.3l-0.7,2H202l3.2-8.5h1.3l3.2,8.5h-1.5L207.5,50.2z M204.6,49h2.5l-1.2-3.5L204.6,49z"/>
	<path class="st3" d="M214.4,51.5c-0.4,0.5-1,0.7-1.8,0.7c-0.7,0-1.2-0.2-1.6-0.6s-0.5-1-0.5-1.7v-4.1h1.4v4.1c0,0.8,0.3,1.2,1,1.2
		c0.7,0,1.2-0.2,1.4-0.7v-4.6h1.4v6.3h-1.3L214.4,51.5z"/>
	<path class="st3" d="M219,44.3v1.5h1.1v1.1H219v3.5c0,0.2,0,0.4,0.1,0.5s0.3,0.2,0.5,0.2c0.2,0,0.3,0,0.5-0.1v1.1
		c-0.3,0.1-0.6,0.1-0.9,0.1c-1.1,0-1.6-0.6-1.6-1.8v-3.6h-1v-1.1h1v-1.5H219z"/>
	<path class="st3" d="M220.7,48.9c0-0.6,0.1-1.2,0.4-1.7s0.6-0.9,1-1.1s1-0.4,1.5-0.4c0.9,0,1.5,0.3,2.1,0.8s0.8,1.3,0.9,2.2l0,0.3
		c0,0.6-0.1,1.2-0.4,1.7s-0.6,0.9-1,1.1s-1,0.4-1.5,0.4c-0.9,0-1.6-0.3-2.1-0.9S220.7,50,220.7,48.9L220.7,48.9z M222.2,49.1
		c0,0.7,0.1,1.2,0.4,1.5s0.6,0.6,1.1,0.6s0.9-0.2,1.1-0.6s0.4-0.9,0.4-1.6c0-0.6-0.1-1.1-0.4-1.5s-0.6-0.6-1.1-0.6
		c-0.5,0-0.8,0.2-1.1,0.6S222.2,48.3,222.2,49.1z"/>
	<path class="st3" d="M230.4,51.1c0.4,0,0.7-0.1,0.9-0.3s0.4-0.5,0.4-0.8h1.3c0,0.4-0.1,0.8-0.4,1.1s-0.5,0.6-0.9,0.8
		s-0.8,0.3-1.3,0.3c-0.9,0-1.6-0.3-2.1-0.9s-0.8-1.4-0.8-2.4v-0.1c0-1,0.3-1.7,0.8-2.3s1.2-0.9,2.1-0.9c0.8,0,1.4,0.2,1.8,0.7
		s0.7,1,0.7,1.7h-1.3c0-0.4-0.1-0.7-0.4-0.9s-0.5-0.4-0.9-0.4c-0.5,0-0.8,0.2-1.1,0.5s-0.4,0.8-0.4,1.5v0.2c0,0.7,0.1,1.2,0.4,1.5
		S230,51.1,230.4,51.1z"/>
	<path class="st3" d="M233.9,48.9c0-0.6,0.1-1.2,0.4-1.7s0.6-0.9,1-1.1s1-0.4,1.5-0.4c0.9,0,1.5,0.3,2.1,0.8s0.8,1.3,0.9,2.2l0,0.3
		c0,0.6-0.1,1.2-0.4,1.7s-0.6,0.9-1,1.1s-1,0.4-1.5,0.4c-0.9,0-1.6-0.3-2.1-0.9S233.9,50,233.9,48.9L233.9,48.9z M235.3,49.1
		c0,0.7,0.1,1.2,0.4,1.5s0.6,0.6,1.1,0.6s0.9-0.2,1.1-0.6s0.4-0.9,0.4-1.6c0-0.6-0.1-1.1-0.4-1.5s-0.6-0.6-1.1-0.6
		c-0.5,0-0.8,0.2-1.1,0.6S235.3,48.3,235.3,49.1z"/>
	<path class="st3" d="M242.3,45.8l0,0.7c0.5-0.6,1.1-0.8,1.8-0.8c1.3,0,2,0.8,2,2.3v4.2h-1.4v-4.1c0-0.4-0.1-0.7-0.3-0.9
		s-0.5-0.3-0.9-0.3c-0.6,0-1,0.3-1.3,0.8v4.5h-1.4v-6.3H242.3z"/>
	<path class="st3" d="M251.2,50.4c0-0.3-0.1-0.4-0.3-0.6s-0.6-0.2-1-0.4s-0.9-0.2-1.2-0.4c-0.7-0.3-1.1-0.8-1.1-1.5
		c0-0.5,0.2-1,0.7-1.4s1-0.6,1.8-0.6c0.8,0,1.4,0.2,1.8,0.6s0.7,0.9,0.7,1.5h-1.4c0-0.3-0.1-0.5-0.3-0.7s-0.5-0.3-0.8-0.3
		c-0.3,0-0.6,0.1-0.8,0.2s-0.3,0.3-0.3,0.6c0,0.2,0.1,0.4,0.3,0.5s0.6,0.2,1.1,0.4s1,0.3,1.3,0.4s0.6,0.4,0.7,0.6s0.2,0.5,0.2,0.9
		c0,0.6-0.2,1-0.7,1.4s-1.1,0.5-1.9,0.5c-0.5,0-1-0.1-1.4-0.3s-0.7-0.4-0.9-0.8s-0.3-0.7-0.3-1.1h1.4c0,0.3,0.1,0.6,0.4,0.8
		s0.5,0.3,0.9,0.3c0.4,0,0.7-0.1,0.9-0.2S251.2,50.7,251.2,50.4z"/>
	<path class="st3" d="M257.7,51.5c-0.4,0.5-1,0.7-1.8,0.7c-0.7,0-1.2-0.2-1.6-0.6s-0.5-1-0.5-1.7v-4.1h1.4v4.1c0,0.8,0.3,1.2,1,1.2
		c0.7,0,1.2-0.2,1.4-0.7v-4.6h1.4v6.3h-1.3L257.7,51.5z"/>
	<path class="st3" d="M261.8,45.8l0,0.7c0.4-0.5,1.1-0.8,1.8-0.8c0.8,0,1.4,0.3,1.7,1c0.5-0.6,1.1-1,1.9-1c0.7,0,1.2,0.2,1.6,0.6
		s0.5,1,0.5,1.7v4.2H268V48c0-0.4-0.1-0.7-0.3-0.9s-0.5-0.3-0.9-0.3c-0.3,0-0.6,0.1-0.8,0.3s-0.3,0.4-0.4,0.7l0,4.3h-1.4V48
		c0-0.7-0.4-1.1-1.1-1.1c-0.6,0-1,0.2-1.2,0.7v4.6h-1.4v-6.3H261.8z"/>
	<path class="st3" d="M270.7,48.9c0-0.6,0.1-1.2,0.4-1.7s0.6-0.9,1-1.1s1-0.4,1.5-0.4c0.9,0,1.5,0.3,2.1,0.8s0.8,1.3,0.9,2.2l0,0.3
		c0,0.6-0.1,1.2-0.4,1.7s-0.6,0.9-1,1.1s-1,0.4-1.5,0.4c-0.9,0-1.6-0.3-2.1-0.9S270.7,50,270.7,48.9L270.7,48.9z M272.1,49.1
		c0,0.7,0.1,1.2,0.4,1.5s0.6,0.6,1.1,0.6s0.9-0.2,1.1-0.6s0.4-0.9,0.4-1.6c0-0.6-0.1-1.1-0.4-1.5s-0.6-0.6-1.1-0.6
		c-0.5,0-0.8,0.2-1.1,0.6S272.1,48.3,272.1,49.1z"/>
	<path class="st3" d="M278,54.1l-0.8-0.5c0.2-0.4,0.4-0.7,0.5-0.9s0.1-0.5,0.1-0.8v-1.1h1.3l0,1c0,0.4-0.1,0.8-0.3,1.2
		S278.3,53.8,278,54.1z"/>
	<path class="st3" d="M286.2,52.3c-0.9,0-1.6-0.3-2.2-0.9s-0.8-1.3-0.8-2.3V49c0-0.6,0.1-1.2,0.4-1.7s0.6-0.9,1-1.2s0.9-0.4,1.5-0.4
		c0.9,0,1.5,0.3,2,0.8s0.7,1.3,0.7,2.3v0.6h-4.1c0,0.5,0.2,0.9,0.5,1.2s0.7,0.5,1.2,0.5c0.7,0,1.2-0.3,1.6-0.8l0.8,0.7
		c-0.3,0.4-0.6,0.7-1,0.9S286.7,52.3,286.2,52.3z M286,46.8c-0.4,0-0.7,0.1-0.9,0.4s-0.4,0.7-0.5,1.1h2.7v-0.1
		c0-0.5-0.2-0.8-0.4-1.1S286.4,46.8,286,46.8z"/>
	<path class="st3" d="M289.6,48.9c0-1,0.2-1.8,0.7-2.4s1.1-0.9,1.8-0.9c0.7,0,1.2,0.2,1.6,0.7v-3.2h1.4v9h-1.3l-0.1-0.7
		c-0.4,0.5-1,0.8-1.7,0.8c-0.7,0-1.3-0.3-1.8-0.9S289.6,50,289.6,48.9z M291,49.1c0,0.6,0.1,1.1,0.4,1.5s0.6,0.5,1.1,0.5
		c0.6,0,1-0.3,1.3-0.8v-2.7c-0.3-0.5-0.7-0.8-1.3-0.8c-0.5,0-0.8,0.2-1.1,0.5S291,48.3,291,49.1z"/>
	<path class="st3" d="M300.4,51.5c-0.4,0.5-1,0.7-1.8,0.7c-0.7,0-1.2-0.2-1.6-0.6s-0.5-1-0.5-1.7v-4.1h1.4v4.1c0,0.8,0.3,1.2,1,1.2
		c0.7,0,1.2-0.2,1.4-0.7v-4.6h1.4v6.3h-1.3L300.4,51.5z"/>
	<path class="st3" d="M305.9,51.1c0.4,0,0.7-0.1,0.9-0.3s0.4-0.5,0.4-0.8h1.3c0,0.4-0.1,0.8-0.4,1.1s-0.5,0.6-0.9,0.8
		s-0.8,0.3-1.3,0.3c-0.9,0-1.6-0.3-2.1-0.9S303,50.1,303,49v-0.1c0-1,0.3-1.7,0.8-2.3s1.2-0.9,2.1-0.9c0.8,0,1.4,0.2,1.8,0.7
		s0.7,1,0.7,1.7h-1.3c0-0.4-0.1-0.7-0.4-0.9s-0.5-0.4-0.9-0.4c-0.5,0-0.8,0.2-1.1,0.5s-0.4,0.8-0.4,1.5v0.2c0,0.7,0.1,1.2,0.4,1.5
		S305.4,51.1,305.9,51.1z"/>
	<path class="st3" d="M313.3,52.2c-0.1-0.1-0.1-0.3-0.2-0.6c-0.5,0.5-1,0.7-1.7,0.7c-0.6,0-1.2-0.2-1.6-0.5s-0.6-0.8-0.6-1.3
		c0-0.7,0.3-1.2,0.8-1.6s1.2-0.5,2.2-0.5h0.9v-0.4c0-0.3-0.1-0.6-0.3-0.8s-0.5-0.3-0.8-0.3c-0.3,0-0.6,0.1-0.8,0.2s-0.3,0.4-0.3,0.6
		h-1.4c0-0.3,0.1-0.7,0.3-1s0.5-0.5,0.9-0.7s0.8-0.3,1.3-0.3c0.7,0,1.3,0.2,1.8,0.6s0.7,0.9,0.7,1.6v2.9c0,0.6,0.1,1,0.2,1.4v0.1
		H313.3z M311.8,51.1c0.3,0,0.5-0.1,0.8-0.2s0.4-0.3,0.6-0.6v-1.2h-0.8c-0.5,0-0.9,0.1-1.2,0.3s-0.4,0.4-0.4,0.8
		c0,0.3,0.1,0.5,0.3,0.7S311.5,51.1,311.8,51.1z"/>
	<path class="st3" d="M317.8,44.3v1.5h1.1v1.1h-1.1v3.5c0,0.2,0,0.4,0.1,0.5s0.3,0.2,0.5,0.2c0.2,0,0.3,0,0.5-0.1v1.1
		c-0.3,0.1-0.6,0.1-0.9,0.1c-1.1,0-1.6-0.6-1.6-1.8v-3.6h-1v-1.1h1v-1.5H317.8z"/>
	<path class="st3" d="M320,44.2c0-0.2,0.1-0.4,0.2-0.5s0.3-0.2,0.6-0.2s0.5,0.1,0.6,0.2s0.2,0.3,0.2,0.5c0,0.2-0.1,0.4-0.2,0.5
		s-0.3,0.2-0.6,0.2s-0.5-0.1-0.6-0.2S320,44.4,320,44.2z M321.5,52.2h-1.4v-6.3h1.4V52.2z"/>
	<path class="st3" d="M325.3,50.4l1.3-4.5h1.5l-2.2,6.3h-1.2l-2.2-6.3h1.5L325.3,50.4z"/>
	<path class="st3" d="M328.7,48.9c0-0.6,0.1-1.2,0.4-1.7s0.6-0.9,1-1.1s1-0.4,1.5-0.4c0.9,0,1.5,0.3,2.1,0.8s0.8,1.3,0.9,2.2l0,0.3
		c0,0.6-0.1,1.2-0.4,1.7s-0.6,0.9-1,1.1s-1,0.4-1.5,0.4c-0.9,0-1.6-0.3-2.1-0.9S328.7,50,328.7,48.9L328.7,48.9z M330.1,49.1
		c0,0.7,0.1,1.2,0.4,1.5s0.6,0.6,1.1,0.6s0.9-0.2,1.1-0.6s0.4-0.9,0.4-1.6c0-0.6-0.1-1.1-0.4-1.5s-0.6-0.6-1.1-0.6
		c-0.5,0-0.8,0.2-1.1,0.6S330.1,48.3,330.1,49.1z"/>
	<path class="st3" d="M336,54.1l-0.8-0.5c0.2-0.4,0.4-0.7,0.5-0.9s0.1-0.5,0.1-0.8v-1.1h1.3l0,1c0,0.4-0.1,0.8-0.3,1.2
		S336.3,53.8,336,54.1z"/>
	<path class="st3" d="M345.2,52.2c-0.1-0.1-0.1-0.3-0.2-0.6c-0.5,0.5-1,0.7-1.7,0.7c-0.6,0-1.2-0.2-1.6-0.5s-0.6-0.8-0.6-1.3
		c0-0.7,0.3-1.2,0.8-1.6s1.2-0.5,2.2-0.5h0.9v-0.4c0-0.3-0.1-0.6-0.3-0.8s-0.5-0.3-0.8-0.3c-0.3,0-0.6,0.1-0.8,0.2s-0.3,0.4-0.3,0.6
		h-1.4c0-0.3,0.1-0.7,0.3-1s0.5-0.5,0.9-0.7s0.8-0.3,1.3-0.3c0.7,0,1.3,0.2,1.8,0.6s0.7,0.9,0.7,1.6v2.9c0,0.6,0.1,1,0.2,1.4v0.1
		H345.2z M343.6,51.1c0.3,0,0.5-0.1,0.8-0.2s0.4-0.3,0.6-0.6v-1.2h-0.8c-0.5,0-0.9,0.1-1.2,0.3s-0.4,0.4-0.4,0.8
		c0,0.3,0.1,0.5,0.3,0.7S343.3,51.1,343.6,51.1z"/>
	<path class="st3" d="M349.7,44.3v1.5h1.1v1.1h-1.1v3.5c0,0.2,0,0.4,0.1,0.5s0.3,0.2,0.5,0.2c0.2,0,0.3,0,0.5-0.1v1.1
		c-0.3,0.1-0.6,0.1-0.9,0.1c-1.1,0-1.6-0.6-1.6-1.8v-3.6h-1v-1.1h1v-1.5H349.7z"/>
	<path class="st3" d="M351.9,44.2c0-0.2,0.1-0.4,0.2-0.5s0.3-0.2,0.6-0.2s0.5,0.1,0.6,0.2s0.2,0.3,0.2,0.5c0,0.2-0.1,0.4-0.2,0.5
		s-0.3,0.2-0.6,0.2s-0.5-0.1-0.6-0.2S351.9,44.4,351.9,44.2z M353.4,52.2H352v-6.3h1.4V52.2z"/>
	<path class="st3" d="M357.2,50.4l1.3-4.5h1.5l-2.2,6.3h-1.2l-2.2-6.3h1.5L357.2,50.4z"/>
	<path class="st3" d="M360.9,44.2c0-0.2,0.1-0.4,0.2-0.5s0.3-0.2,0.6-0.2s0.5,0.1,0.6,0.2s0.2,0.3,0.2,0.5c0,0.2-0.1,0.4-0.2,0.5
		s-0.3,0.2-0.6,0.2s-0.5-0.1-0.6-0.2S360.9,44.4,360.9,44.2z M362.4,52.2H361v-6.3h1.4V52.2z"/>
	<path class="st3" d="M363.7,48.9c0-1,0.2-1.8,0.7-2.4s1.1-0.9,1.8-0.9c0.7,0,1.2,0.2,1.6,0.7v-3.2h1.4v9h-1.3l-0.1-0.7
		c-0.4,0.5-1,0.8-1.7,0.8c-0.7,0-1.3-0.3-1.8-0.9S363.7,50,363.7,48.9z M365.1,49.1c0,0.6,0.1,1.1,0.4,1.5s0.6,0.5,1.1,0.5
		c0.6,0,1-0.3,1.3-0.8v-2.7c-0.3-0.5-0.7-0.8-1.3-0.8c-0.5,0-0.8,0.2-1.1,0.5S365.1,48.3,365.1,49.1z"/>
	<path class="st3" d="M374.5,52.2c-0.1-0.1-0.1-0.3-0.2-0.6c-0.5,0.5-1,0.7-1.7,0.7c-0.6,0-1.2-0.2-1.6-0.5s-0.6-0.8-0.6-1.3
		c0-0.7,0.3-1.2,0.8-1.6s1.2-0.5,2.2-0.5h0.9v-0.4c0-0.3-0.1-0.6-0.3-0.8s-0.5-0.3-0.8-0.3c-0.3,0-0.6,0.1-0.8,0.2s-0.3,0.4-0.3,0.6
		h-1.4c0-0.3,0.1-0.7,0.3-1s0.5-0.5,0.9-0.7s0.8-0.3,1.3-0.3c0.7,0,1.3,0.2,1.8,0.6s0.7,0.9,0.7,1.6v2.9c0,0.6,0.1,1,0.2,1.4v0.1
		H374.5z M372.9,51.1c0.3,0,0.5-0.1,0.8-0.2s0.4-0.3,0.6-0.6v-1.2h-0.8c-0.5,0-0.9,0.1-1.2,0.3s-0.4,0.4-0.4,0.8
		c0,0.3,0.1,0.5,0.3,0.7S372.6,51.1,372.9,51.1z"/>
	<path class="st3" d="M376.9,48.9c0-1,0.2-1.8,0.7-2.4s1.1-0.9,1.8-0.9c0.7,0,1.2,0.2,1.6,0.7v-3.2h1.4v9h-1.3l-0.1-0.7
		c-0.4,0.5-1,0.8-1.7,0.8c-0.7,0-1.3-0.3-1.8-0.9S376.9,50,376.9,48.9z M378.4,49.1c0,0.6,0.1,1.1,0.4,1.5s0.6,0.5,1.1,0.5
		c0.6,0,1-0.3,1.3-0.8v-2.7c-0.3-0.5-0.7-0.8-1.3-0.8c-0.5,0-0.8,0.2-1.1,0.5S378.4,48.3,378.4,49.1z"/>
	<path class="st3" d="M386.8,52.3c-0.9,0-1.6-0.3-2.2-0.9s-0.8-1.3-0.8-2.3V49c0-0.6,0.1-1.2,0.4-1.7s0.6-0.9,1-1.2s0.9-0.4,1.5-0.4
		c0.9,0,1.5,0.3,2,0.8s0.7,1.3,0.7,2.3v0.6h-4.1c0,0.5,0.2,0.9,0.5,1.2s0.7,0.5,1.2,0.5c0.7,0,1.2-0.3,1.6-0.8l0.8,0.7
		c-0.3,0.4-0.6,0.7-1,0.9S387.3,52.3,386.8,52.3z M386.6,46.8c-0.4,0-0.7,0.1-0.9,0.4s-0.4,0.7-0.5,1.1h2.7v-0.1
		c0-0.5-0.2-0.8-0.4-1.1S387,46.8,386.6,46.8z"/>
	<path class="st3" d="M394,50.4c0-0.3-0.1-0.4-0.3-0.6s-0.6-0.2-1-0.4s-0.9-0.2-1.2-0.4c-0.7-0.3-1.1-0.8-1.1-1.5
		c0-0.5,0.2-1,0.7-1.4s1-0.6,1.8-0.6c0.8,0,1.4,0.2,1.8,0.6s0.7,0.9,0.7,1.5h-1.4c0-0.3-0.1-0.5-0.3-0.7s-0.5-0.3-0.8-0.3
		c-0.3,0-0.6,0.1-0.8,0.2s-0.3,0.3-0.3,0.6c0,0.2,0.1,0.4,0.3,0.5s0.6,0.2,1.1,0.4s1,0.3,1.3,0.4s0.6,0.4,0.7,0.6s0.2,0.5,0.2,0.9
		c0,0.6-0.2,1-0.7,1.4s-1.1,0.5-1.9,0.5c-0.5,0-1-0.1-1.4-0.3s-0.7-0.4-0.9-0.8s-0.3-0.7-0.3-1.1h1.4c0,0.3,0.1,0.6,0.4,0.8
		s0.5,0.3,0.9,0.3c0.4,0,0.7-0.1,0.9-0.2S394,50.7,394,50.4z"/>
</g>
<g class="st0">
	<path class="st3" d="M238,67.8c0.4,0,0.7-0.1,0.9-0.3s0.4-0.5,0.4-0.8h1.3c0,0.4-0.1,0.8-0.4,1.1s-0.5,0.6-0.9,0.8S238.4,69,238,69
		c-0.9,0-1.6-0.3-2.1-0.9s-0.8-1.4-0.8-2.4v-0.1c0-1,0.3-1.7,0.8-2.3s1.2-0.9,2.1-0.9c0.8,0,1.4,0.2,1.8,0.7s0.7,1,0.7,1.7h-1.3
		c0-0.4-0.1-0.7-0.4-0.9s-0.5-0.4-0.9-0.4c-0.5,0-0.8,0.2-1.1,0.5s-0.4,0.8-0.4,1.5v0.2c0,0.7,0.1,1.2,0.4,1.5S237.5,67.8,238,67.8z
		"/>
	<path class="st3" d="M241.4,65.6c0-0.6,0.1-1.2,0.4-1.7s0.6-0.9,1-1.1s1-0.4,1.5-0.4c0.9,0,1.5,0.3,2.1,0.8s0.8,1.3,0.9,2.2l0,0.3
		c0,0.6-0.1,1.2-0.4,1.7s-0.6,0.9-1,1.1s-1,0.4-1.5,0.4c-0.9,0-1.6-0.3-2.1-0.9S241.4,66.7,241.4,65.6L241.4,65.6z M242.8,65.8
		c0,0.7,0.1,1.2,0.4,1.5s0.6,0.6,1.1,0.6s0.9-0.2,1.1-0.6s0.4-0.9,0.4-1.6c0-0.6-0.1-1.1-0.4-1.5s-0.6-0.6-1.1-0.6
		c-0.5,0-0.8,0.2-1.1,0.6S242.8,65,242.8,65.8z"/>
	<path class="st3" d="M249.8,62.5l0,0.7c0.4-0.5,1.1-0.8,1.8-0.8c0.8,0,1.4,0.3,1.7,1c0.5-0.6,1.1-1,1.9-1c0.7,0,1.2,0.2,1.6,0.6
		s0.5,1,0.5,1.7v4.2H256v-4.1c0-0.4-0.1-0.7-0.3-0.9s-0.5-0.3-0.9-0.3c-0.3,0-0.6,0.1-0.8,0.3s-0.3,0.4-0.4,0.7l0,4.3h-1.4v-4.2
		c0-0.7-0.4-1.1-1.1-1.1c-0.6,0-1,0.2-1.2,0.7v4.6h-1.4v-6.3H249.8z"/>
	<path class="st3" d="M262.7,68.2c-0.4,0.5-1,0.7-1.8,0.7c-0.7,0-1.2-0.2-1.6-0.6s-0.5-1-0.5-1.7v-4.1h1.4v4.1c0,0.8,0.3,1.2,1,1.2
		c0.7,0,1.2-0.2,1.4-0.7v-4.6h1.4v6.3h-1.3L262.7,68.2z"/>
	<path class="st3" d="M266.9,62.5l0,0.7c0.5-0.6,1.1-0.8,1.8-0.8c1.3,0,2,0.8,2,2.3v4.2h-1.4v-4.1c0-0.4-0.1-0.7-0.3-0.9
		s-0.5-0.3-0.9-0.3c-0.6,0-1,0.3-1.3,0.8v4.5h-1.4v-6.3H266.9z"/>
	<path class="st3" d="M272.3,60.9c0-0.2,0.1-0.4,0.2-0.5s0.3-0.2,0.6-0.2s0.5,0.1,0.6,0.2s0.2,0.3,0.2,0.5c0,0.2-0.1,0.4-0.2,0.5
		s-0.3,0.2-0.6,0.2s-0.5-0.1-0.6-0.2S272.3,61.1,272.3,60.9z M273.8,68.9h-1.4v-6.3h1.4V68.9z"/>
	<path class="st3" d="M277.1,61v1.5h1.1v1.1h-1.1v3.5c0,0.2,0,0.4,0.1,0.5s0.3,0.2,0.5,0.2c0.2,0,0.3,0,0.5-0.1v1.1
		c-0.3,0.1-0.6,0.1-0.9,0.1c-1.1,0-1.6-0.6-1.6-1.8v-3.6h-1v-1.1h1V61H277.1z"/>
	<path class="st3" d="M283.1,68.9c-0.1-0.1-0.1-0.3-0.2-0.6c-0.5,0.5-1,0.7-1.7,0.7c-0.6,0-1.2-0.2-1.6-0.5s-0.6-0.8-0.6-1.3
		c0-0.7,0.3-1.2,0.8-1.6s1.2-0.5,2.2-0.5h0.9v-0.4c0-0.3-0.1-0.6-0.3-0.8s-0.5-0.3-0.8-0.3c-0.3,0-0.6,0.1-0.8,0.2s-0.3,0.4-0.3,0.6
		h-1.4c0-0.3,0.1-0.7,0.3-1s0.5-0.5,0.9-0.7s0.8-0.3,1.3-0.3c0.7,0,1.3,0.2,1.8,0.6s0.7,0.9,0.7,1.6v2.9c0,0.6,0.1,1,0.2,1.4v0.1
		H283.1z M281.5,67.8c0.3,0,0.5-0.1,0.8-0.2s0.4-0.3,0.6-0.6v-1.2h-0.8c-0.5,0-0.9,0.1-1.2,0.3s-0.4,0.4-0.4,0.8
		c0,0.3,0.1,0.5,0.3,0.7S281.2,67.8,281.5,67.8z M282.3,59.9h1.6l-1.6,1.8l-1.1,0L282.3,59.9z"/>
	<path class="st3" d="M289.1,63.8c-0.2,0-0.4,0-0.6,0c-0.7,0-1.1,0.2-1.3,0.8v4.3h-1.4v-6.3h1.4l0,0.7c0.3-0.6,0.8-0.8,1.4-0.8
		c0.2,0,0.4,0,0.5,0.1L289.1,63.8z"/>
	<path class="st3" d="M290,60.9c0-0.2,0.1-0.4,0.2-0.5s0.3-0.2,0.6-0.2s0.5,0.1,0.6,0.2s0.2,0.3,0.2,0.5c0,0.2-0.1,0.4-0.2,0.5
		s-0.3,0.2-0.6,0.2s-0.5-0.1-0.6-0.2S290,61.1,290,60.9z M291.5,68.9h-1.4v-6.3h1.4V68.9z"/>
	<path class="st3" d="M296.9,68.9c-0.1-0.1-0.1-0.3-0.2-0.6c-0.5,0.5-1,0.7-1.7,0.7c-0.6,0-1.2-0.2-1.6-0.5s-0.6-0.8-0.6-1.3
		c0-0.7,0.3-1.2,0.8-1.6s1.2-0.5,2.2-0.5h0.9v-0.4c0-0.3-0.1-0.6-0.3-0.8s-0.5-0.3-0.8-0.3c-0.3,0-0.6,0.1-0.8,0.2s-0.3,0.4-0.3,0.6
		H293c0-0.3,0.1-0.7,0.3-1s0.5-0.5,0.9-0.7s0.8-0.3,1.3-0.3c0.7,0,1.3,0.2,1.8,0.6s0.7,0.9,0.7,1.6v2.9c0,0.6,0.1,1,0.2,1.4v0.1
		H296.9z M295.3,67.8c0.3,0,0.5-0.1,0.8-0.2s0.4-0.3,0.6-0.6v-1.2h-0.8c-0.5,0-0.9,0.1-1.2,0.3s-0.4,0.4-0.4,0.8
		c0,0.3,0.1,0.5,0.3,0.7S295,67.8,295.3,67.8z"/>
	<path class="st3" d="M303.1,67.1c0-0.3-0.1-0.4-0.3-0.6s-0.6-0.2-1-0.4s-0.9-0.2-1.2-0.4c-0.7-0.3-1.1-0.8-1.1-1.5
		c0-0.5,0.2-1,0.7-1.4c0.5-0.4,1-0.6,1.8-0.6c0.8,0,1.4,0.2,1.8,0.6s0.7,0.9,0.7,1.5h-1.4c0-0.3-0.1-0.5-0.3-0.7s-0.5-0.3-0.8-0.3
		c-0.3,0-0.6,0.1-0.8,0.2s-0.3,0.3-0.3,0.6c0,0.2,0.1,0.4,0.3,0.5s0.6,0.2,1.1,0.4s1,0.3,1.3,0.4s0.6,0.4,0.7,0.6s0.2,0.5,0.2,0.9
		c0,0.6-0.2,1-0.7,1.4S302.7,69,302,69c-0.5,0-1-0.1-1.4-0.3s-0.7-0.4-0.9-0.8s-0.3-0.7-0.3-1.1h1.4c0,0.3,0.1,0.6,0.4,0.8
		s0.5,0.3,0.9,0.3c0.4,0,0.7-0.1,0.9-0.2S303.1,67.4,303.1,67.1z"/>
	<path class="st3" d="M311.5,69c-0.9,0-1.6-0.3-2.2-0.9s-0.8-1.3-0.8-2.3v-0.2c0-0.6,0.1-1.2,0.4-1.7s0.6-0.9,1-1.2s0.9-0.4,1.5-0.4
		c0.9,0,1.5,0.3,2,0.8s0.7,1.3,0.7,2.3v0.6h-4.1c0,0.5,0.2,0.9,0.5,1.2s0.7,0.5,1.2,0.5c0.7,0,1.2-0.3,1.6-0.8l0.8,0.7
		c-0.3,0.4-0.6,0.7-1,0.9S312.1,69,311.5,69z M311.4,63.5c-0.4,0-0.7,0.1-0.9,0.4s-0.4,0.7-0.5,1.1h2.7V65c0-0.5-0.2-0.8-0.4-1.1
		S311.8,63.5,311.4,63.5z"/>
	<path class="st3" d="M322,68.9c-0.1-0.1-0.1-0.3-0.2-0.6c-0.5,0.5-1,0.7-1.7,0.7c-0.6,0-1.2-0.2-1.6-0.5s-0.6-0.8-0.6-1.3
		c0-0.7,0.3-1.2,0.8-1.6s1.2-0.5,2.2-0.5h0.9v-0.4c0-0.3-0.1-0.6-0.3-0.8s-0.5-0.3-0.8-0.3c-0.3,0-0.6,0.1-0.8,0.2s-0.3,0.4-0.3,0.6
		h-1.4c0-0.3,0.1-0.7,0.3-1s0.5-0.5,0.9-0.7s0.8-0.3,1.3-0.3c0.7,0,1.3,0.2,1.8,0.6s0.7,0.9,0.7,1.6v2.9c0,0.6,0.1,1,0.2,1.4v0.1
		H322z M320.4,67.8c0.3,0,0.5-0.1,0.8-0.2s0.4-0.3,0.6-0.6v-1.2H321c-0.5,0-0.9,0.1-1.2,0.3s-0.4,0.4-0.4,0.8c0,0.3,0.1,0.5,0.3,0.7
		S320.1,67.8,320.4,67.8z"/>
	<path class="st3" d="M326.5,61v1.5h1.1v1.1h-1.1v3.5c0,0.2,0,0.4,0.1,0.5s0.3,0.2,0.5,0.2c0.2,0,0.3,0,0.5-0.1v1.1
		c-0.3,0.1-0.6,0.1-0.9,0.1c-1.1,0-1.6-0.6-1.6-1.8v-3.6h-1v-1.1h1V61H326.5z"/>
	<path class="st3" d="M328.7,60.9c0-0.2,0.1-0.4,0.2-0.5s0.3-0.2,0.6-0.2s0.5,0.1,0.6,0.2s0.2,0.3,0.2,0.5c0,0.2-0.1,0.4-0.2,0.5
		s-0.3,0.2-0.6,0.2s-0.5-0.1-0.6-0.2S328.7,61.1,328.7,60.9z M330.2,68.9h-1.4v-6.3h1.4V68.9z"/>
	<path class="st3" d="M334,67.1l1.3-4.5h1.5l-2.2,6.3h-1.2l-2.2-6.3h1.5L334,67.1z"/>
	<path class="st3" d="M337.7,60.9c0-0.2,0.1-0.4,0.2-0.5s0.3-0.2,0.6-0.2s0.5,0.1,0.6,0.2s0.2,0.3,0.2,0.5c0,0.2-0.1,0.4-0.2,0.5
		s-0.3,0.2-0.6,0.2s-0.5-0.1-0.6-0.2S337.7,61.1,337.7,60.9z M339.2,68.9h-1.4v-6.3h1.4V68.9z"/>
	<path class="st3" d="M344.3,67.1c0-0.3-0.1-0.4-0.3-0.6s-0.6-0.2-1-0.4s-0.9-0.2-1.2-0.4c-0.7-0.3-1.1-0.8-1.1-1.5
		c0-0.5,0.2-1,0.7-1.4s1-0.6,1.8-0.6c0.8,0,1.4,0.2,1.8,0.6s0.7,0.9,0.7,1.5h-1.4c0-0.3-0.1-0.5-0.3-0.7s-0.5-0.3-0.8-0.3
		c-0.3,0-0.6,0.1-0.8,0.2S342,64,342,64.3c0,0.2,0.1,0.4,0.3,0.5s0.6,0.2,1.1,0.4s1,0.3,1.3,0.4s0.6,0.4,0.7,0.6s0.2,0.5,0.2,0.9
		c0,0.6-0.2,1-0.7,1.4s-1.1,0.5-1.9,0.5c-0.5,0-1-0.1-1.4-0.3s-0.7-0.4-0.9-0.8s-0.3-0.7-0.3-1.1h1.4c0,0.3,0.1,0.6,0.4,0.8
		s0.5,0.3,0.9,0.3c0.4,0,0.7-0.1,0.9-0.2S344.3,67.4,344.3,67.1z"/>
	<path class="st3" d="M348.3,62.5l0,0.7c0.4-0.5,1.1-0.8,1.8-0.8c0.8,0,1.4,0.3,1.7,1c0.5-0.6,1.1-1,1.9-1c0.7,0,1.2,0.2,1.6,0.6
		s0.5,1,0.5,1.7v4.2h-1.4v-4.1c0-0.4-0.1-0.7-0.3-0.9s-0.5-0.3-0.9-0.3c-0.3,0-0.6,0.1-0.8,0.3s-0.3,0.4-0.4,0.7l0,4.3h-1.4v-4.2
		c0-0.7-0.4-1.1-1.1-1.1c-0.6,0-1,0.2-1.2,0.7v4.6h-1.4v-6.3H348.3z"/>
	<path class="st3" d="M357.1,65.6c0-0.6,0.1-1.2,0.4-1.7s0.6-0.9,1-1.1s1-0.4,1.5-0.4c0.9,0,1.5,0.3,2.1,0.8s0.8,1.3,0.9,2.2l0,0.3
		c0,0.6-0.1,1.2-0.4,1.7s-0.6,0.9-1,1.1s-1,0.4-1.5,0.4c-0.9,0-1.6-0.3-2.1-0.9S357.1,66.7,357.1,65.6L357.1,65.6z M358.5,65.8
		c0,0.7,0.1,1.2,0.4,1.5s0.6,0.6,1.1,0.6s0.9-0.2,1.1-0.6s0.4-0.9,0.4-1.6c0-0.6-0.1-1.1-0.4-1.5s-0.6-0.6-1.1-0.6
		c-0.5,0-0.8,0.2-1.1,0.6S358.5,65,358.5,65.8z"/>
</g>
<g class="st0">
	<path class="st1" d="M104.4,148.3h3.9v1.2h-5.4V141h1.5V148.3z"/>
	<path class="st1" d="M115.8,145.5c0,0.8-0.1,1.6-0.4,2.2s-0.7,1.1-1.2,1.5s-1.2,0.5-1.9,0.5c-0.7,0-1.3-0.2-1.8-0.5s-1-0.8-1.3-1.4
		s-0.4-1.3-0.4-2.2v-0.5c0-0.8,0.1-1.6,0.4-2.2s0.7-1.1,1.2-1.5s1.2-0.5,1.8-0.5s1.3,0.2,1.8,0.5s1,0.8,1.2,1.4s0.4,1.4,0.4,2.2
		V145.5z M114.3,145c0-0.9-0.2-1.7-0.5-2.2s-0.9-0.8-1.5-0.8c-0.6,0-1.1,0.3-1.5,0.8s-0.5,1.2-0.6,2.1v0.5c0,0.9,0.2,1.7,0.5,2.2
		s0.9,0.8,1.5,0.8c0.7,0,1.2-0.2,1.5-0.8s0.5-1.2,0.5-2.2V145z"/>
	<path class="st1" d="M123.8,146.8c-0.1,0.9-0.4,1.6-1,2.1s-1.4,0.8-2.3,0.8c-0.7,0-1.3-0.2-1.8-0.5s-0.9-0.8-1.2-1.4
		s-0.4-1.3-0.4-2.1v-0.8c0-0.8,0.1-1.5,0.4-2.1s0.7-1.1,1.2-1.4s1.1-0.5,1.8-0.5c0.9,0,1.7,0.3,2.3,0.8s0.9,1.2,1,2.2h-1.5
		c-0.1-0.6-0.2-1.1-0.5-1.3s-0.7-0.4-1.3-0.4c-0.6,0-1.1,0.2-1.5,0.7c-0.3,0.5-0.5,1.2-0.5,2.1v0.8c0,0.9,0.2,1.6,0.5,2.1
		c0.3,0.5,0.8,0.7,1.5,0.7c0.6,0,1-0.1,1.3-0.4s0.5-0.7,0.6-1.3H123.8z"/>
	<path class="st1" d="M129.9,147.5h-3.3l-0.7,2h-1.5l3.2-8.5h1.3l3.2,8.5h-1.5L129.9,147.5z M127,146.3h2.5l-1.2-3.5L127,146.3z"/>
	<path class="st1" d="M134.6,148.3h3.9v1.2h-5.4V141h1.5V148.3z"/>
	<path class="st1" d="M141.2,149.5h-1.5V141h1.5V149.5z"/>
	<path class="st1" d="M144.4,148.3h4.6v1.2h-6.4v-1l4.4-6.4h-4.4V141h6.2v0.9L144.4,148.3z"/>
	<path class="st1" d="M155.1,147.5h-3.3l-0.7,2h-1.5l3.2-8.5h1.3l3.2,8.5h-1.5L155.1,147.5z M152.2,146.3h2.5l-1.2-3.5L152.2,146.3z
		"/>
	<path class="st1" d="M164.7,146.8c-0.1,0.9-0.4,1.6-1,2.1s-1.4,0.8-2.3,0.8c-0.7,0-1.3-0.2-1.8-0.5s-0.9-0.8-1.2-1.4
		s-0.4-1.3-0.4-2.1v-0.8c0-0.8,0.1-1.5,0.4-2.1s0.7-1.1,1.2-1.4s1.1-0.5,1.8-0.5c0.9,0,1.7,0.3,2.3,0.8s0.9,1.2,1,2.2h-1.5
		c-0.1-0.6-0.2-1.1-0.5-1.3s-0.7-0.4-1.3-0.4c-0.6,0-1.1,0.2-1.5,0.7c-0.3,0.5-0.5,1.2-0.5,2.1v0.8c0,0.9,0.2,1.6,0.5,2.1
		c0.3,0.5,0.8,0.7,1.5,0.7c0.6,0,1-0.1,1.3-0.4s0.5-0.7,0.6-1.3H164.7z M161.8,149.5l-0.1,0.3c0.6,0.1,0.9,0.4,0.9,1
		c0,0.4-0.2,0.7-0.5,1s-0.8,0.3-1.4,0.3l0-0.8c0.3,0,0.5,0,0.6-0.1s0.2-0.2,0.2-0.4c0-0.2-0.1-0.3-0.2-0.4s-0.4-0.1-0.7-0.1l0.2-0.8
		H161.8z"/>
	<path class="st1" d="M170.8,147.5h-3.3l-0.7,2h-1.5l3.2-8.5h1.3l3.2,8.5h-1.5L170.8,147.5z M171.3,138.8c0,0.4-0.1,0.8-0.4,1.1
		s-0.6,0.4-0.9,0.4c-0.2,0-0.3,0-0.4,0s-0.3-0.1-0.5-0.2s-0.3-0.2-0.4-0.2s-0.2,0-0.3,0c-0.1,0-0.3,0.1-0.4,0.2s-0.2,0.3-0.2,0.4
		l-0.9,0c0-0.4,0.1-0.8,0.4-1.1s0.6-0.4,0.9-0.4c0.2,0,0.5,0.1,0.8,0.3s0.6,0.3,0.8,0.3c0.1,0,0.3-0.1,0.4-0.2s0.2-0.3,0.2-0.4
		L171.3,138.8z M167.9,146.3h2.5l-1.2-3.5L167.9,146.3z"/>
	<path class="st1" d="M180.7,145.5c0,0.8-0.1,1.6-0.4,2.2s-0.7,1.1-1.2,1.5s-1.2,0.5-1.9,0.5c-0.7,0-1.3-0.2-1.8-0.5s-1-0.8-1.3-1.4
		s-0.4-1.3-0.4-2.2v-0.5c0-0.8,0.1-1.6,0.4-2.2s0.7-1.1,1.2-1.5s1.2-0.5,1.8-0.5s1.3,0.2,1.8,0.5s1,0.8,1.2,1.4s0.4,1.4,0.4,2.2
		V145.5z M179.2,145c0-0.9-0.2-1.7-0.5-2.2s-0.9-0.8-1.5-0.8c-0.6,0-1.1,0.3-1.5,0.8s-0.5,1.2-0.6,2.1v0.5c0,0.9,0.2,1.7,0.5,2.2
		s0.9,0.8,1.5,0.8c0.7,0,1.2-0.2,1.5-0.8s0.5-1.2,0.5-2.2V145z"/>
</g>
<line class="st2" x1="108.5" y1="124.2" x2="176.8" y2="124.2"/>
<g class="st0">
	<path class="st3" d="M78.7,170.3v-8.5h2.5c0.8,0,1.4,0.2,2,0.5s1,0.8,1.4,1.4s0.5,1.3,0.5,2.1v0.4c0,0.8-0.2,1.5-0.5,2.1
		s-0.8,1.1-1.4,1.4s-1.3,0.5-2,0.5H78.7z M80.2,163v6.2h1c0.8,0,1.4-0.2,1.8-0.7s0.6-1.2,0.6-2.1v-0.5c0-0.9-0.2-1.6-0.6-2.1
		s-1-0.7-1.8-0.7H80.2z"/>
	<path class="st3" d="M89.2,170.5c-0.9,0-1.6-0.3-2.2-0.9s-0.8-1.3-0.8-2.3v-0.2c0-0.6,0.1-1.2,0.4-1.7s0.6-0.9,1-1.2
		s0.9-0.4,1.5-0.4c0.9,0,1.5,0.3,2,0.8s0.7,1.3,0.7,2.3v0.6h-4.1c0,0.5,0.2,0.9,0.5,1.2s0.7,0.5,1.2,0.5c0.7,0,1.2-0.3,1.6-0.8
		l0.8,0.7c-0.3,0.4-0.6,0.7-1,0.9S89.8,170.5,89.2,170.5z M89.1,165c-0.4,0-0.7,0.1-0.9,0.4s-0.4,0.7-0.5,1.1h2.7v-0.1
		c0-0.5-0.2-0.8-0.4-1.1S89.4,165,89.1,165z"/>
	<path class="st3" d="M94.2,164l0,0.7c0.5-0.6,1.1-0.8,1.8-0.8c1.3,0,2,0.8,2,2.3v4.2h-1.4v-4.1c0-0.4-0.1-0.7-0.3-0.9
		S96,165,95.6,165c-0.6,0-1,0.3-1.3,0.8v4.5h-1.4V164H94.2z"/>
	<path class="st3" d="M101.3,162.5v1.5h1.1v1.1h-1.1v3.5c0,0.2,0,0.4,0.1,0.5s0.3,0.2,0.5,0.2c0.2,0,0.3,0,0.5-0.1v1.1
		c-0.3,0.1-0.6,0.1-0.9,0.1c-1.1,0-1.6-0.6-1.6-1.8v-3.6h-1V164h1v-1.5H101.3z"/>
	<path class="st3" d="M106.9,165.3c-0.2,0-0.4,0-0.6,0c-0.7,0-1.1,0.2-1.3,0.8v4.3h-1.4V164h1.4l0,0.7c0.3-0.6,0.8-0.8,1.4-0.8
		c0.2,0,0.4,0,0.5,0.1L106.9,165.3z"/>
	<path class="st3" d="M107.3,167.1c0-0.6,0.1-1.2,0.4-1.7s0.6-0.9,1-1.1s1-0.4,1.5-0.4c0.9,0,1.5,0.3,2.1,0.8s0.8,1.3,0.9,2.2l0,0.3
		c0,0.6-0.1,1.2-0.4,1.7s-0.6,0.9-1,1.1s-1,0.4-1.5,0.4c-0.9,0-1.6-0.3-2.1-0.9S107.3,168.2,107.3,167.1L107.3,167.1z M108.7,167.2
		c0,0.7,0.1,1.2,0.4,1.5s0.6,0.6,1.1,0.6s0.9-0.2,1.1-0.6s0.4-0.9,0.4-1.6c0-0.6-0.1-1.1-0.4-1.5s-0.6-0.6-1.1-0.6
		c-0.5,0-0.8,0.2-1.1,0.6S108.7,166.5,108.7,167.2z"/>
	<path class="st3" d="M117.1,167.1c0-1,0.2-1.8,0.7-2.4s1.1-0.9,1.8-0.9c0.7,0,1.2,0.2,1.6,0.7v-3.2h1.4v9h-1.3l-0.1-0.7
		c-0.4,0.5-1,0.8-1.7,0.8c-0.7,0-1.3-0.3-1.8-0.9S117.1,168.1,117.1,167.1z M118.5,167.2c0,0.6,0.1,1.1,0.4,1.5s0.6,0.5,1.1,0.5
		c0.6,0,1-0.3,1.3-0.8v-2.7c-0.3-0.5-0.7-0.8-1.3-0.8c-0.5,0-0.8,0.2-1.1,0.5S118.5,166.5,118.5,167.2z"/>
	<path class="st3" d="M123.9,167.1c0-0.6,0.1-1.2,0.4-1.7s0.6-0.9,1-1.1s1-0.4,1.5-0.4c0.9,0,1.5,0.3,2.1,0.8s0.8,1.3,0.9,2.2l0,0.3
		c0,0.6-0.1,1.2-0.4,1.7s-0.6,0.9-1,1.1s-1,0.4-1.5,0.4c-0.9,0-1.6-0.3-2.1-0.9S123.9,168.2,123.9,167.1L123.9,167.1z M125.3,167.2
		c0,0.7,0.1,1.2,0.4,1.5s0.6,0.6,1.1,0.6s0.9-0.2,1.1-0.6s0.4-0.9,0.4-1.6c0-0.6-0.1-1.1-0.4-1.5s-0.6-0.6-1.1-0.6
		c-0.5,0-0.8,0.2-1.1,0.6S125.3,166.5,125.3,167.2z"/>
	<path class="st3" d="M135.7,162.5v1.5h1.1v1.1h-1.1v3.5c0,0.2,0,0.4,0.1,0.5s0.3,0.2,0.5,0.2c0.2,0,0.3,0,0.5-0.1v1.1
		c-0.3,0.1-0.6,0.1-0.9,0.1c-1.1,0-1.6-0.6-1.6-1.8v-3.6h-1V164h1v-1.5H135.7z"/>
	<path class="st3" d="M140.7,170.5c-0.9,0-1.6-0.3-2.2-0.9s-0.8-1.3-0.8-2.3v-0.2c0-0.6,0.1-1.2,0.4-1.7s0.6-0.9,1-1.2
		s0.9-0.4,1.5-0.4c0.9,0,1.5,0.3,2,0.8s0.7,1.3,0.7,2.3v0.6h-4.1c0,0.5,0.2,0.9,0.5,1.2s0.7,0.5,1.2,0.5c0.7,0,1.2-0.3,1.6-0.8
		l0.8,0.7c-0.3,0.4-0.6,0.7-1,0.9S141.3,170.5,140.7,170.5z M140.6,165c-0.4,0-0.7,0.1-0.9,0.4s-0.4,0.7-0.5,1.1h2.7v-0.1
		c0-0.5-0.2-0.8-0.4-1.1S141,165,140.6,165z"/>
	<path class="st3" d="M147,169.3c0.4,0,0.7-0.1,0.9-0.3s0.4-0.5,0.4-0.8h1.3c0,0.4-0.1,0.8-0.4,1.1s-0.5,0.6-0.9,0.8
		s-0.8,0.3-1.3,0.3c-0.9,0-1.6-0.3-2.1-0.9s-0.8-1.4-0.8-2.4v-0.1c0-1,0.3-1.7,0.8-2.3s1.2-0.9,2.1-0.9c0.8,0,1.4,0.2,1.8,0.7
		s0.7,1,0.7,1.7h-1.3c0-0.4-0.1-0.7-0.4-0.9s-0.5-0.4-0.9-0.4c-0.5,0-0.8,0.2-1.1,0.5s-0.4,0.8-0.4,1.5v0.2c0,0.7,0.1,1.2,0.4,1.5
		S146.5,169.3,147,169.3z"/>
	<path class="st3" d="M150.7,162.4c0-0.2,0.1-0.4,0.2-0.5s0.3-0.2,0.6-0.2s0.5,0.1,0.6,0.2s0.2,0.3,0.2,0.5c0,0.2-0.1,0.4-0.2,0.5
		s-0.3,0.2-0.6,0.2s-0.5-0.1-0.6-0.2S150.7,162.6,150.7,162.4z M152.2,170.3h-1.4V164h1.4V170.3z"/>
	<path class="st3" d="M153.5,167.1c0-1,0.2-1.8,0.7-2.4s1.1-0.9,1.8-0.9c0.7,0,1.2,0.2,1.6,0.7v-3.2h1.4v9h-1.3l-0.1-0.7
		c-0.4,0.5-1,0.8-1.7,0.8c-0.7,0-1.3-0.3-1.8-0.9S153.5,168.1,153.5,167.1z M154.9,167.2c0,0.6,0.1,1.1,0.4,1.5s0.6,0.5,1.1,0.5
		c0.6,0,1-0.3,1.3-0.8v-2.7c-0.3-0.5-0.7-0.8-1.3-0.8c-0.5,0-0.8,0.2-1.1,0.5S154.9,166.5,154.9,167.2z"/>
	<path class="st3" d="M160.2,167.1c0-0.6,0.1-1.2,0.4-1.7s0.6-0.9,1-1.1s1-0.4,1.5-0.4c0.9,0,1.5,0.3,2.1,0.8s0.8,1.3,0.9,2.2l0,0.3
		c0,0.6-0.1,1.2-0.4,1.7s-0.6,0.9-1,1.1s-1,0.4-1.5,0.4c-0.9,0-1.6-0.3-2.1-0.9S160.2,168.2,160.2,167.1L160.2,167.1z M161.7,167.2
		c0,0.7,0.1,1.2,0.4,1.5s0.6,0.6,1.1,0.6s0.9-0.2,1.1-0.6s0.4-0.9,0.4-1.6c0-0.6-0.1-1.1-0.4-1.5s-0.6-0.6-1.1-0.6
		c-0.5,0-0.8,0.2-1.1,0.6S161.7,166.5,161.7,167.2z"/>
	<path class="st3" d="M174.2,169.7c-0.4,0.5-1,0.7-1.8,0.7c-0.7,0-1.2-0.2-1.6-0.6s-0.5-1-0.5-1.7V164h1.4v4.1c0,0.8,0.3,1.2,1,1.2
		c0.7,0,1.2-0.2,1.4-0.7V164h1.4v6.3h-1.3L174.2,169.7z"/>
	<path class="st3" d="M180.3,165.3c-0.2,0-0.4,0-0.6,0c-0.7,0-1.1,0.2-1.3,0.8v4.3H177V164h1.4l0,0.7c0.3-0.6,0.8-0.8,1.4-0.8
		c0.2,0,0.4,0,0.5,0.1L180.3,165.3z"/>
	<path class="st3" d="M186.8,167.2c0,1-0.2,1.8-0.7,2.3s-1,0.9-1.8,0.9c-0.7,0-1.3-0.3-1.7-0.8l-0.1,0.7h-1.3v-9h1.4v3.3
		c0.4-0.5,1-0.7,1.7-0.7c0.8,0,1.4,0.3,1.8,0.9S186.8,166.1,186.8,167.2L186.8,167.2z M185.4,167.1c0-0.7-0.1-1.2-0.4-1.5
		s-0.6-0.5-1.1-0.5c-0.6,0-1.1,0.3-1.3,0.8v2.6c0.3,0.6,0.7,0.8,1.3,0.8c0.4,0,0.8-0.2,1-0.5s0.4-0.8,0.4-1.5V167.1z"/>
	<path class="st3" d="M191.8,170.3c-0.1-0.1-0.1-0.3-0.2-0.6c-0.5,0.5-1,0.7-1.7,0.7c-0.6,0-1.2-0.2-1.6-0.5s-0.6-0.8-0.6-1.3
		c0-0.7,0.3-1.2,0.8-1.6s1.2-0.5,2.2-0.5h0.9V166c0-0.3-0.1-0.6-0.3-0.8s-0.5-0.3-0.8-0.3c-0.3,0-0.6,0.1-0.8,0.2s-0.3,0.4-0.3,0.6
		h-1.4c0-0.3,0.1-0.7,0.3-1s0.5-0.5,0.9-0.7s0.8-0.3,1.3-0.3c0.7,0,1.3,0.2,1.8,0.6s0.7,0.9,0.7,1.6v2.9c0,0.6,0.1,1,0.2,1.4v0.1
		H191.8z M190.2,169.3c0.3,0,0.5-0.1,0.8-0.2s0.4-0.3,0.6-0.6v-1.2h-0.8c-0.5,0-0.9,0.1-1.2,0.3s-0.4,0.4-0.4,0.8
		c0,0.3,0.1,0.5,0.3,0.7S189.9,169.3,190.2,169.3z"/>
	<path class="st3" d="M195.8,164l0,0.7c0.5-0.6,1.1-0.8,1.8-0.8c1.3,0,2,0.8,2,2.3v4.2h-1.4v-4.1c0-0.4-0.1-0.7-0.3-0.9
		s-0.5-0.3-0.9-0.3c-0.6,0-1,0.3-1.3,0.8v4.5h-1.4V164H195.8z"/>
	<path class="st3" d="M200.9,167.1c0-0.6,0.1-1.2,0.4-1.7s0.6-0.9,1-1.1s1-0.4,1.5-0.4c0.9,0,1.5,0.3,2.1,0.8s0.8,1.3,0.9,2.2l0,0.3
		c0,0.6-0.1,1.2-0.4,1.7s-0.6,0.9-1,1.1s-1,0.4-1.5,0.4c-0.9,0-1.6-0.3-2.1-0.9S200.9,168.2,200.9,167.1L200.9,167.1z M202.3,167.2
		c0,0.7,0.1,1.2,0.4,1.5s0.6,0.6,1.1,0.6s0.9-0.2,1.1-0.6s0.4-0.9,0.4-1.6c0-0.6-0.1-1.1-0.4-1.5s-0.6-0.6-1.1-0.6
		c-0.5,0-0.8,0.2-1.1,0.6S202.3,166.5,202.3,167.2z"/>
</g>
<g class="st0">
	<path class="st1" d="M86.9,274.5v5.7c0,0.9-0.3,1.6-0.9,2.2s-1.4,0.8-2.3,0.8c-1,0-1.8-0.3-2.3-0.8s-0.9-1.2-0.9-2.2v-5.7H82v5.7
		c0,0.6,0.1,1,0.4,1.3s0.7,0.5,1.3,0.5c1.1,0,1.7-0.6,1.7-1.8v-5.7H86.9z"/>
	<path class="st1" d="M93,280.8c0-0.4-0.1-0.7-0.4-0.9s-0.7-0.4-1.4-0.6s-1.2-0.4-1.6-0.7c-0.8-0.5-1.2-1.1-1.2-1.9
		c0-0.7,0.3-1.3,0.8-1.7s1.3-0.7,2.2-0.7c0.6,0,1.1,0.1,1.6,0.3s0.8,0.5,1.1,0.9s0.4,0.9,0.4,1.3H93c0-0.4-0.1-0.8-0.4-1
		s-0.7-0.4-1.2-0.4c-0.5,0-0.9,0.1-1.1,0.3s-0.4,0.5-0.4,0.9c0,0.3,0.1,0.6,0.4,0.8s0.8,0.4,1.4,0.6s1.2,0.4,1.6,0.7
		s0.7,0.5,0.9,0.9s0.3,0.7,0.3,1.1c0,0.7-0.3,1.3-0.8,1.7s-1.3,0.6-2.2,0.6c-0.6,0-1.2-0.1-1.7-0.3s-0.9-0.5-1.2-0.9
		s-0.4-0.9-0.4-1.4h1.5c0,0.5,0.2,0.9,0.5,1.1s0.8,0.4,1.4,0.4c0.5,0,0.9-0.1,1.2-0.3S93,281.2,93,280.8z"/>
	<path class="st1" d="M102.6,279c0,0.8-0.1,1.6-0.4,2.2s-0.7,1.1-1.2,1.5s-1.2,0.5-1.9,0.5c-0.7,0-1.3-0.2-1.8-0.5s-1-0.8-1.3-1.4
		s-0.4-1.3-0.4-2.2v-0.5c0-0.8,0.1-1.6,0.4-2.2s0.7-1.1,1.2-1.5s1.2-0.5,1.8-0.5s1.3,0.2,1.8,0.5s1,0.8,1.2,1.4s0.4,1.4,0.4,2.2V279
		z M101.1,278.5c0-0.9-0.2-1.7-0.5-2.2s-0.9-0.8-1.5-0.8c-0.6,0-1.1,0.3-1.5,0.8s-0.5,1.2-0.6,2.1v0.5c0,0.9,0.2,1.7,0.5,2.2
		s0.9,0.8,1.5,0.8c0.7,0,1.2-0.2,1.5-0.8s0.5-1.2,0.5-2.2V278.5z"/>
	<path class="st1" d="M107,283v-8.5h2.5c0.8,0,1.4,0.2,2,0.5s1,0.8,1.4,1.4s0.5,1.3,0.5,2.1v0.4c0,0.8-0.2,1.5-0.5,2.1
		s-0.8,1.1-1.4,1.4s-1.3,0.5-2,0.5H107z M108.5,275.7v6.2h1c0.8,0,1.4-0.2,1.8-0.7s0.6-1.2,0.6-2.1v-0.5c0-0.9-0.2-1.6-0.6-2.1
		s-1-0.7-1.8-0.7H108.5z"/>
	<path class="st1" d="M119.8,279.2h-3.5v2.6h4.1v1.2h-5.6v-8.5h5.5v1.2h-4.1v2.4h3.5V279.2z"/>
	<path class="st1" d="M130.4,275.7h-2.7v7.3h-1.5v-7.3h-2.6v-1.2h6.8V275.7z"/>
	<path class="st1" d="M136.6,279.2H133v2.6h4.1v1.2h-5.6v-8.5h5.5v1.2H133v2.4h3.5V279.2z"/>
	<path class="st1" d="M144.9,280.2c-0.1,0.9-0.4,1.6-1,2.1s-1.4,0.8-2.3,0.8c-0.7,0-1.3-0.2-1.8-0.5s-0.9-0.8-1.2-1.4
		s-0.4-1.3-0.4-2.1v-0.8c0-0.8,0.1-1.5,0.4-2.1s0.7-1.1,1.2-1.4s1.1-0.5,1.8-0.5c0.9,0,1.7,0.3,2.3,0.8s0.9,1.2,1,2.2h-1.5
		c-0.1-0.6-0.2-1.1-0.5-1.3s-0.7-0.4-1.3-0.4c-0.6,0-1.1,0.2-1.5,0.7c-0.3,0.5-0.5,1.2-0.5,2.1v0.8c0,0.9,0.2,1.6,0.5,2.1
		c0.3,0.5,0.8,0.7,1.5,0.7c0.6,0,1-0.1,1.3-0.4s0.5-0.7,0.6-1.3H144.9z"/>
	<path class="st1" d="M153,283h-1.5l-3.8-6.1v6.1h-1.5v-8.5h1.5l3.8,6.1v-6.1h1.5V283z"/>
	<path class="st1" d="M161.5,279c0,0.8-0.1,1.6-0.4,2.2s-0.7,1.1-1.2,1.5s-1.2,0.5-1.9,0.5c-0.7,0-1.3-0.2-1.8-0.5s-1-0.8-1.3-1.4
		s-0.4-1.3-0.4-2.2v-0.5c0-0.8,0.1-1.6,0.4-2.2s0.7-1.1,1.2-1.5s1.2-0.5,1.8-0.5s1.3,0.2,1.8,0.5s1,0.8,1.2,1.4s0.4,1.4,0.4,2.2V279
		z M160,278.5c0-0.9-0.2-1.7-0.5-2.2s-0.9-0.8-1.5-0.8c-0.6,0-1.1,0.3-1.5,0.8s-0.5,1.2-0.6,2.1v0.5c0,0.9,0.2,1.7,0.5,2.2
		s0.9,0.8,1.5,0.8c0.7,0,1.2-0.2,1.5-0.8s0.5-1.2,0.5-2.2V278.5z"/>
	<path class="st1" d="M164.5,281.8h3.9v1.2H163v-8.5h1.5V281.8z"/>
	<path class="st1" d="M175.9,279c0,0.8-0.1,1.6-0.4,2.2s-0.7,1.1-1.2,1.5s-1.2,0.5-1.9,0.5c-0.7,0-1.3-0.2-1.8-0.5s-1-0.8-1.3-1.4
		s-0.4-1.3-0.4-2.2v-0.5c0-0.8,0.1-1.6,0.4-2.2s0.7-1.1,1.2-1.5s1.2-0.5,1.8-0.5s1.3,0.2,1.8,0.5s1,0.8,1.2,1.4s0.4,1.4,0.4,2.2V279
		z M174.4,278.5c0-0.9-0.2-1.7-0.5-2.2s-0.9-0.8-1.5-0.8c-0.6,0-1.1,0.3-1.5,0.8s-0.5,1.2-0.6,2.1v0.5c0,0.9,0.2,1.7,0.5,2.2
		s0.9,0.8,1.5,0.8c0.7,0,1.2-0.2,1.5-0.8s0.5-1.2,0.5-2.2V278.5z"/>
	<path class="st1" d="M183.9,281.9c-0.3,0.4-0.7,0.7-1.3,0.9s-1.2,0.3-1.9,0.3c-0.7,0-1.3-0.2-1.9-0.5s-1-0.8-1.3-1.4
		s-0.5-1.3-0.5-2.1v-0.7c0-1.3,0.3-2.3,0.9-3s1.5-1.1,2.6-1.1c0.9,0,1.7,0.2,2.3,0.7s0.9,1.1,1,2h-1.5c-0.2-1-0.8-1.5-1.8-1.5
		c-0.7,0-1.2,0.2-1.5,0.7c-0.3,0.5-0.5,1.2-0.5,2.1v0.7c0,0.9,0.2,1.6,0.6,2.1c0.4,0.5,0.9,0.8,1.6,0.8c0.8,0,1.3-0.2,1.6-0.5v-1.7
		h-1.8v-1.1h3.2V281.9z"/>
	<path class="st1" d="M187.1,283h-1.5v-8.5h1.5V283z"/>
	<path class="st1" d="M193.8,281h-3.3l-0.7,2h-1.5l3.2-8.5h1.3l3.2,8.5h-1.5L193.8,281z M190.9,279.8h2.5l-1.2-3.5L190.9,279.8z"/>
	<path class="st1" d="M201.5,280.8c0-0.4-0.1-0.7-0.4-0.9s-0.7-0.4-1.4-0.6s-1.2-0.4-1.6-0.7c-0.8-0.5-1.2-1.1-1.2-1.9
		c0-0.7,0.3-1.3,0.8-1.7s1.3-0.7,2.2-0.7c0.6,0,1.1,0.1,1.6,0.3s0.8,0.5,1.1,0.9s0.4,0.9,0.4,1.3h-1.5c0-0.4-0.1-0.8-0.4-1
		s-0.7-0.4-1.2-0.4c-0.5,0-0.9,0.1-1.1,0.3s-0.4,0.5-0.4,0.9c0,0.3,0.1,0.6,0.4,0.8s0.8,0.4,1.4,0.6s1.2,0.4,1.6,0.7
		s0.7,0.5,0.9,0.9s0.3,0.7,0.3,1.1c0,0.7-0.3,1.3-0.8,1.7s-1.3,0.6-2.2,0.6c-0.6,0-1.2-0.1-1.7-0.3s-0.9-0.5-1.2-0.9
		s-0.4-0.9-0.4-1.4h1.5c0,0.5,0.2,0.9,0.5,1.1s0.8,0.4,1.4,0.4c0.5,0,0.9-0.1,1.2-0.3S201.5,281.2,201.5,280.8z"/>
</g>
<line class="st2" x1="108.5" y1="257.7" x2="176.8" y2="257.7"/>
<g class="st0">
	<path class="st3" d="M128.5,303.8v-8.5h2.9c1,0,1.7,0.2,2.2,0.6s0.8,1,0.8,1.7c0,0.4-0.1,0.7-0.3,1.1s-0.5,0.6-0.9,0.7
		c0.5,0.1,0.8,0.4,1.1,0.7s0.4,0.8,0.4,1.2c0,0.8-0.3,1.4-0.8,1.8s-1.2,0.6-2.2,0.6H128.5z M130,298.9h1.5c0.5,0,0.8-0.1,1.1-0.3
		s0.4-0.5,0.4-0.9c0-0.4-0.1-0.7-0.4-0.9s-0.6-0.3-1.1-0.3H130V298.9z M130,300v2.7h1.6c0.5,0,0.8-0.1,1.1-0.3s0.4-0.6,0.4-1
		c0-0.9-0.5-1.3-1.4-1.4H130z"/>
	<path class="st3" d="M139.7,303.8c-0.1-0.1-0.1-0.3-0.2-0.6c-0.5,0.5-1,0.7-1.7,0.7c-0.6,0-1.2-0.2-1.6-0.5s-0.6-0.8-0.6-1.3
		c0-0.7,0.3-1.2,0.8-1.6s1.2-0.5,2.2-0.5h0.9v-0.4c0-0.3-0.1-0.6-0.3-0.8s-0.5-0.3-0.8-0.3c-0.3,0-0.6,0.1-0.8,0.2s-0.3,0.4-0.3,0.6
		h-1.4c0-0.3,0.1-0.7,0.3-1s0.5-0.5,0.9-0.7s0.8-0.3,1.3-0.3c0.7,0,1.3,0.2,1.8,0.6s0.7,0.9,0.7,1.6v2.9c0,0.6,0.1,1,0.2,1.4v0.1
		H139.7z M138.2,302.8c0.3,0,0.5-0.1,0.8-0.2s0.4-0.3,0.6-0.6v-1.2h-0.8c-0.5,0-0.9,0.1-1.2,0.3s-0.4,0.4-0.4,0.8
		c0,0.3,0.1,0.5,0.3,0.7S137.9,302.8,138.2,302.8z"/>
	<path class="st3" d="M142.5,295.8c0-0.2,0.1-0.4,0.2-0.5s0.3-0.2,0.6-0.2s0.5,0.1,0.6,0.2s0.2,0.3,0.2,0.5c0,0.2-0.1,0.4-0.2,0.5
		s-0.3,0.2-0.6,0.2s-0.5-0.1-0.6-0.2S142.5,296,142.5,295.8z M144,303.8h-1.4v-6.3h1.4V303.8z"/>
	<path class="st3" d="M147.8,299.6l1.2-2.1h1.6l-1.9,3.1l2,3.2h-1.6l-1.3-2.2l-1.3,2.2H145l2-3.2l-1.9-3.1h1.6L147.8,299.6z"/>
	<path class="st3" d="M151,300.6c0-0.6,0.1-1.2,0.4-1.7s0.6-0.9,1-1.1s1-0.4,1.5-0.4c0.9,0,1.5,0.3,2.1,0.8s0.8,1.3,0.9,2.2l0,0.3
		c0,0.6-0.1,1.2-0.4,1.7s-0.6,0.9-1,1.1s-1,0.4-1.5,0.4c-0.9,0-1.6-0.3-2.1-0.9S151,301.6,151,300.6L151,300.6z M152.5,300.7
		c0,0.7,0.1,1.2,0.4,1.5s0.6,0.6,1.1,0.6s0.9-0.2,1.1-0.6s0.4-0.9,0.4-1.6c0-0.6-0.1-1.1-0.4-1.5s-0.6-0.6-1.1-0.6
		c-0.5,0-0.8,0.2-1.1,0.6S152.5,300,152.5,300.7z"/>
</g>
<g class="st0">
	<path class="st1" d="M98.7,414.5h-3.3l-0.7,2h-1.5l3.2-8.5h1.3l3.2,8.5h-1.5L98.7,414.5z M95.8,413.3h2.5l-1.2-3.5L95.8,413.3z"/>
	<path class="st1" d="M106.3,414.3c0-0.4-0.1-0.7-0.4-0.9s-0.7-0.4-1.4-0.6s-1.2-0.4-1.6-0.7c-0.8-0.5-1.2-1.1-1.2-1.9
		c0-0.7,0.3-1.3,0.8-1.7s1.3-0.7,2.2-0.7c0.6,0,1.1,0.1,1.6,0.3s0.8,0.5,1.1,0.9s0.4,0.9,0.4,1.3h-1.5c0-0.4-0.1-0.8-0.4-1
		s-0.7-0.4-1.2-0.4c-0.5,0-0.9,0.1-1.1,0.3s-0.4,0.5-0.4,0.9c0,0.3,0.1,0.6,0.4,0.8s0.8,0.4,1.4,0.6s1.2,0.4,1.6,0.7
		s0.7,0.5,0.9,0.9s0.3,0.7,0.3,1.1c0,0.7-0.3,1.3-0.8,1.7s-1.3,0.6-2.2,0.6c-0.6,0-1.2-0.1-1.7-0.3s-0.9-0.5-1.2-0.9
		s-0.4-0.9-0.4-1.4h1.5c0,0.5,0.2,0.9,0.5,1.1s0.8,0.4,1.4,0.4c0.5,0,0.9-0.1,1.2-0.3S106.3,414.6,106.3,414.3z"/>
	<path class="st1" d="M113.6,414.3c0-0.4-0.1-0.7-0.4-0.9s-0.7-0.4-1.4-0.6s-1.2-0.4-1.6-0.7c-0.8-0.5-1.2-1.1-1.2-1.9
		c0-0.7,0.3-1.3,0.8-1.7s1.3-0.7,2.2-0.7c0.6,0,1.1,0.1,1.6,0.3s0.8,0.5,1.1,0.9s0.4,0.9,0.4,1.3h-1.5c0-0.4-0.1-0.8-0.4-1
		s-0.7-0.4-1.2-0.4c-0.5,0-0.9,0.1-1.1,0.3s-0.4,0.5-0.4,0.9c0,0.3,0.1,0.6,0.4,0.8s0.8,0.4,1.4,0.6s1.2,0.4,1.6,0.7
		s0.7,0.5,0.9,0.9s0.3,0.7,0.3,1.1c0,0.7-0.3,1.3-0.8,1.7s-1.3,0.6-2.2,0.6c-0.6,0-1.2-0.1-1.7-0.3s-0.9-0.5-1.2-0.9
		s-0.4-0.9-0.4-1.4h1.5c0,0.5,0.2,0.9,0.5,1.1s0.8,0.4,1.4,0.4c0.5,0,0.9-0.1,1.2-0.3S113.6,414.6,113.6,414.3z"/>
	<path class="st1" d="M123.2,412.4c0,0.8-0.1,1.6-0.4,2.2s-0.7,1.1-1.2,1.5s-1.2,0.5-1.9,0.5c-0.7,0-1.3-0.2-1.8-0.5s-1-0.8-1.3-1.4
		s-0.4-1.3-0.4-2.2V412c0-0.8,0.1-1.6,0.4-2.2s0.7-1.1,1.2-1.5s1.2-0.5,1.8-0.5s1.3,0.2,1.8,0.5s1,0.8,1.2,1.4s0.4,1.4,0.4,2.2
		V412.4z M121.7,412c0-0.9-0.2-1.7-0.5-2.2s-0.9-0.8-1.5-0.8c-0.6,0-1.1,0.3-1.5,0.8s-0.5,1.2-0.6,2.1v0.5c0,0.9,0.2,1.7,0.5,2.2
		s0.9,0.8,1.5,0.8c0.7,0,1.2-0.2,1.5-0.8s0.5-1.2,0.5-2.2V412z"/>
	<path class="st1" d="M131.1,413.7c-0.1,0.9-0.4,1.6-1,2.1s-1.4,0.8-2.3,0.8c-0.7,0-1.3-0.2-1.8-0.5s-0.9-0.8-1.2-1.4
		s-0.4-1.3-0.4-2.1v-0.8c0-0.8,0.1-1.5,0.4-2.1s0.7-1.1,1.2-1.4s1.1-0.5,1.8-0.5c0.9,0,1.7,0.3,2.3,0.8s0.9,1.2,1,2.2h-1.5
		c-0.1-0.6-0.2-1.1-0.5-1.3s-0.7-0.4-1.3-0.4c-0.6,0-1.1,0.2-1.5,0.7c-0.3,0.5-0.5,1.2-0.5,2.1v0.8c0,0.9,0.2,1.6,0.5,2.1
		c0.3,0.5,0.8,0.7,1.5,0.7c0.6,0,1-0.1,1.3-0.4s0.5-0.7,0.6-1.3H131.1z"/>
	<path class="st1" d="M134,416.5h-1.5v-8.5h1.5V416.5z"/>
	<path class="st1" d="M140.7,414.5h-3.3l-0.7,2h-1.5l3.2-8.5h1.3l3.2,8.5h-1.5L140.7,414.5z M137.9,413.3h2.5l-1.2-3.5L137.9,413.3z
		"/>
	<path class="st1" d="M149.4,409.1h-2.7v7.3h-1.5v-7.3h-2.6v-1.2h6.8V409.1z"/>
	<path class="st1" d="M152.1,416.5h-1.5v-8.5h1.5V416.5z"/>
	<path class="st1" d="M156.9,414.6l2.2-6.7h1.6l-3.1,8.5h-1.4l-3.1-8.5h1.6L156.9,414.6z"/>
	<path class="st1" d="M163.2,416.5h-1.5v-8.5h1.5V416.5z"/>
	<path class="st1" d="M169.5,414.3c0-0.4-0.1-0.7-0.4-0.9s-0.7-0.4-1.4-0.6s-1.2-0.4-1.6-0.7c-0.8-0.5-1.2-1.1-1.2-1.9
		c0-0.7,0.3-1.3,0.8-1.7s1.3-0.7,2.2-0.7c0.6,0,1.1,0.1,1.6,0.3s0.8,0.5,1.1,0.9s0.4,0.9,0.4,1.3h-1.5c0-0.4-0.1-0.8-0.4-1
		s-0.7-0.4-1.2-0.4c-0.5,0-0.9,0.1-1.1,0.3s-0.4,0.5-0.4,0.9c0,0.3,0.1,0.6,0.4,0.8s0.8,0.4,1.4,0.6s1.2,0.4,1.6,0.7
		s0.7,0.5,0.9,0.9s0.3,0.7,0.3,1.1c0,0.7-0.3,1.3-0.8,1.7s-1.3,0.6-2.2,0.6c-0.6,0-1.2-0.1-1.7-0.3s-0.9-0.5-1.2-0.9
		s-0.4-0.9-0.4-1.4h1.5c0,0.5,0.2,0.9,0.5,1.1s0.8,0.4,1.4,0.4c0.5,0,0.9-0.1,1.2-0.3S169.5,414.6,169.5,414.3z"/>
	<path class="st1" d="M174.2,407.9l2.5,6.5l2.5-6.5h1.9v8.5h-1.5v-2.8l0.1-3.8l-2.5,6.6h-1.1l-2.5-6.6l0.1,3.8v2.8h-1.5v-8.5H174.2z
		"/>
	<path class="st1" d="M189.6,412.4c0,0.8-0.1,1.6-0.4,2.2s-0.7,1.1-1.2,1.5s-1.2,0.5-1.9,0.5c-0.7,0-1.3-0.2-1.8-0.5s-1-0.8-1.3-1.4
		s-0.4-1.3-0.4-2.2V412c0-0.8,0.1-1.6,0.4-2.2s0.7-1.1,1.2-1.5s1.2-0.5,1.8-0.5s1.3,0.2,1.8,0.5s1,0.8,1.2,1.4s0.4,1.4,0.4,2.2
		V412.4z M188.1,412c0-0.9-0.2-1.7-0.5-2.2s-0.9-0.8-1.5-0.8c-0.6,0-1.1,0.3-1.5,0.8s-0.5,1.2-0.6,2.1v0.5c0,0.9,0.2,1.7,0.5,2.2
		s0.9,0.8,1.5,0.8c0.7,0,1.2-0.2,1.5-0.8s0.5-1.2,0.5-2.2V412z"/>
</g>
<line class="st2" x1="108.5" y1="391.2" x2="176.8" y2="391.2"/>
<g class="st0">
	<path class="st3" d="M86.3,428.8l2.5,6.5l2.5-6.5h1.9v8.5h-1.5v-2.8l0.1-3.8l-2.5,6.6h-1.1l-2.5-6.6l0.1,3.8v2.8h-1.5v-8.5H86.3z"
		/>
	<path class="st3" d="M98.5,437.3c-0.1-0.1-0.1-0.3-0.2-0.6c-0.5,0.5-1,0.7-1.7,0.7c-0.6,0-1.2-0.2-1.6-0.5s-0.6-0.8-0.6-1.3
		c0-0.7,0.3-1.2,0.8-1.6s1.2-0.5,2.2-0.5h0.9V433c0-0.3-0.1-0.6-0.3-0.8s-0.5-0.3-0.8-0.3c-0.3,0-0.6,0.1-0.8,0.2s-0.3,0.4-0.3,0.6
		h-1.4c0-0.3,0.1-0.7,0.3-1s0.5-0.5,0.9-0.7s0.8-0.3,1.3-0.3c0.7,0,1.3,0.2,1.8,0.6s0.7,0.9,0.7,1.6v2.9c0,0.6,0.1,1,0.2,1.4v0.1
		H98.5z M96.9,436.3c0.3,0,0.5-0.1,0.8-0.2s0.4-0.3,0.6-0.6v-1.2h-0.8c-0.5,0-0.9,0.1-1.2,0.3s-0.4,0.4-0.4,0.8
		c0,0.3,0.1,0.5,0.3,0.7S96.6,436.3,96.9,436.3z"/>
	<path class="st3" d="M101.2,429.3c0-0.2,0.1-0.4,0.2-0.5s0.3-0.2,0.6-0.2s0.5,0.1,0.6,0.2s0.2,0.3,0.2,0.5c0,0.2-0.1,0.4-0.2,0.5
		s-0.3,0.2-0.6,0.2s-0.5-0.1-0.6-0.2S101.2,429.5,101.2,429.3z M102.7,437.3h-1.4V431h1.4V437.3z"/>
	<path class="st3" d="M104,434.1c0-0.6,0.1-1.2,0.4-1.7s0.6-0.9,1-1.1s1-0.4,1.5-0.4c0.9,0,1.5,0.3,2.1,0.8s0.8,1.3,0.9,2.2l0,0.3
		c0,0.6-0.1,1.2-0.4,1.7s-0.6,0.9-1,1.1s-1,0.4-1.5,0.4c-0.9,0-1.6-0.3-2.1-0.9S104,435.1,104,434.1L104,434.1z M105.4,434.2
		c0,0.7,0.1,1.2,0.4,1.5s0.6,0.6,1.1,0.6s0.9-0.2,1.1-0.6s0.4-0.9,0.4-1.6c0-0.6-0.1-1.1-0.4-1.5s-0.6-0.6-1.1-0.6
		c-0.5,0-0.8,0.2-1.1,0.6S105.4,433.5,105.4,434.2z"/>
	<path class="st3" d="M114.4,432.3c-0.2,0-0.4,0-0.6,0c-0.7,0-1.1,0.2-1.3,0.8v4.3h-1.4V431h1.4l0,0.7c0.3-0.6,0.8-0.8,1.4-0.8
		c0.2,0,0.4,0,0.5,0.1L114.4,432.3z"/>
	<path class="st3" d="M118,434.1c0-1,0.2-1.8,0.7-2.4s1.1-0.9,1.8-0.9c0.7,0,1.3,0.3,1.7,0.8l0.1-0.6h1.3v6.1c0,0.8-0.3,1.5-0.8,2
		s-1.2,0.7-2.1,0.7c-0.5,0-0.9-0.1-1.4-0.3s-0.8-0.4-1-0.8l0.7-0.9c0.4,0.5,1,0.8,1.6,0.8c0.5,0,0.8-0.1,1.1-0.4s0.4-0.6,0.4-1.1
		v-0.4c-0.4,0.5-1,0.7-1.6,0.7c-0.7,0-1.3-0.3-1.8-0.9S118,435.1,118,434.1z M119.5,434.2c0,0.6,0.1,1.1,0.4,1.5s0.6,0.5,1.1,0.5
		c0.6,0,1-0.2,1.3-0.7v-2.8c-0.3-0.5-0.7-0.7-1.3-0.7c-0.5,0-0.8,0.2-1.1,0.6S119.5,433.5,119.5,434.2z"/>
	<path class="st3" d="M128.4,432.3c-0.2,0-0.4,0-0.6,0c-0.7,0-1.1,0.2-1.3,0.8v4.3h-1.4V431h1.4l0,0.7c0.3-0.6,0.8-0.8,1.4-0.8
		c0.2,0,0.4,0,0.5,0.1L128.4,432.3z"/>
	<path class="st3" d="M132.9,437.3c-0.1-0.1-0.1-0.3-0.2-0.6c-0.5,0.5-1,0.7-1.7,0.7c-0.6,0-1.2-0.2-1.6-0.5s-0.6-0.8-0.6-1.3
		c0-0.7,0.3-1.2,0.8-1.6s1.2-0.5,2.2-0.5h0.9V433c0-0.3-0.1-0.6-0.3-0.8s-0.5-0.3-0.8-0.3c-0.3,0-0.6,0.1-0.8,0.2s-0.3,0.4-0.3,0.6
		h-1.4c0-0.3,0.1-0.7,0.3-1s0.5-0.5,0.9-0.7s0.8-0.3,1.3-0.3c0.7,0,1.3,0.2,1.8,0.6s0.7,0.9,0.7,1.6v2.9c0,0.6,0.1,1,0.2,1.4v0.1
		H132.9z M131.4,436.3c0.3,0,0.5-0.1,0.8-0.2s0.4-0.3,0.6-0.6v-1.2H132c-0.5,0-0.9,0.1-1.2,0.3s-0.4,0.4-0.4,0.8
		c0,0.3,0.1,0.5,0.3,0.7S131.1,436.3,131.4,436.3z"/>
	<path class="st3" d="M139.5,436.7c-0.4,0.5-1,0.7-1.8,0.7c-0.7,0-1.2-0.2-1.6-0.6s-0.5-1-0.5-1.7V431h1.4v4.1c0,0.8,0.3,1.2,1,1.2
		c0.7,0,1.2-0.2,1.4-0.7V431h1.4v6.3h-1.3L139.5,436.7z"/>
	<path class="st3" d="M148.1,434.2H145v-1.1h3.1V434.2z"/>
	<path class="st3" d="M158.9,434.5c-0.1,0.9-0.4,1.6-1,2.1s-1.4,0.8-2.3,0.8c-0.7,0-1.3-0.2-1.8-0.5s-0.9-0.8-1.2-1.4
		s-0.4-1.3-0.4-2.1v-0.8c0-0.8,0.1-1.5,0.4-2.1s0.7-1.1,1.2-1.4s1.1-0.5,1.8-0.5c0.9,0,1.7,0.3,2.3,0.8s0.9,1.2,1,2.2h-1.5
		c-0.1-0.6-0.2-1.1-0.5-1.3s-0.7-0.4-1.3-0.4c-0.6,0-1.1,0.2-1.5,0.7c-0.3,0.5-0.5,1.2-0.5,2.1v0.8c0,0.9,0.2,1.6,0.5,2.1
		c0.3,0.5,0.8,0.7,1.5,0.7c0.6,0,1-0.1,1.3-0.4s0.5-0.7,0.6-1.3H158.9z"/>
	<path class="st3" d="M159.8,434.1c0-0.6,0.1-1.2,0.4-1.7s0.6-0.9,1-1.1s1-0.4,1.5-0.4c0.9,0,1.5,0.3,2.1,0.8s0.8,1.3,0.9,2.2l0,0.3
		c0,0.6-0.1,1.2-0.4,1.7s-0.6,0.9-1,1.1s-1,0.4-1.5,0.4c-0.9,0-1.6-0.3-2.1-0.9S159.8,435.1,159.8,434.1L159.8,434.1z M161.2,434.2
		c0,0.7,0.1,1.2,0.4,1.5s0.6,0.6,1.1,0.6s0.9-0.2,1.1-0.6s0.4-0.9,0.4-1.6c0-0.6-0.1-1.1-0.4-1.5s-0.6-0.6-1.1-0.6
		c-0.5,0-0.8,0.2-1.1,0.6S161.2,433.5,161.2,434.2z"/>
	<path class="st3" d="M168.4,437.3H167v-9h1.4V437.3z"/>
	<path class="st3" d="M172.7,437.4c-0.9,0-1.6-0.3-2.2-0.9s-0.8-1.3-0.8-2.3v-0.2c0-0.6,0.1-1.2,0.4-1.7s0.6-0.9,1-1.2
		s0.9-0.4,1.5-0.4c0.9,0,1.5,0.3,2,0.8s0.7,1.3,0.7,2.3v0.6h-4.1c0,0.5,0.2,0.9,0.5,1.2s0.7,0.5,1.2,0.5c0.7,0,1.2-0.3,1.6-0.8
		l0.8,0.7c-0.3,0.4-0.6,0.7-1,0.9S173.3,437.4,172.7,437.4z M172.6,432c-0.4,0-0.7,0.1-0.9,0.4s-0.4,0.7-0.5,1.1h2.7v-0.1
		c0-0.5-0.2-0.8-0.4-1.1S173,432,172.6,432z"/>
	<path class="st3" d="M178.2,429.4v1.5h1.1v1.1h-1.1v3.5c0,0.2,0,0.4,0.1,0.5s0.3,0.2,0.5,0.2c0.2,0,0.3,0,0.5-0.1v1.1
		c-0.3,0.1-0.6,0.1-0.9,0.1c-1.1,0-1.6-0.6-1.6-1.8V432h-1V431h1v-1.5H178.2z"/>
	<path class="st3" d="M180.4,429.3c0-0.2,0.1-0.4,0.2-0.5s0.3-0.2,0.6-0.2s0.5,0.1,0.6,0.2s0.2,0.3,0.2,0.5c0,0.2-0.1,0.4-0.2,0.5
		s-0.3,0.2-0.6,0.2s-0.5-0.1-0.6-0.2S180.4,429.5,180.4,429.3z M181.9,437.3h-1.4V431h1.4V437.3z"/>
	<path class="st3" d="M185.7,435.5l1.3-4.5h1.5l-2.2,6.3h-1.2l-2.2-6.3h1.5L185.7,435.5z"/>
	<path class="st3" d="M189,434.1c0-0.6,0.1-1.2,0.4-1.7s0.6-0.9,1-1.1s1-0.4,1.5-0.4c0.9,0,1.5,0.3,2.1,0.8s0.8,1.3,0.9,2.2l0,0.3
		c0,0.6-0.1,1.2-0.4,1.7s-0.6,0.9-1,1.1s-1,0.4-1.5,0.4c-0.9,0-1.6-0.3-2.1-0.9S189,435.1,189,434.1L189,434.1z M190.4,434.2
		c0,0.7,0.1,1.2,0.4,1.5s0.6,0.6,1.1,0.6s0.9-0.2,1.1-0.6s0.4-0.9,0.4-1.6c0-0.6-0.1-1.1-0.4-1.5s-0.6-0.6-1.1-0.6
		c-0.5,0-0.8,0.2-1.1,0.6S190.4,433.5,190.4,434.2z"/>
	<path class="st3" d="M199.7,435.6c0-0.3-0.1-0.4-0.3-0.6s-0.6-0.2-1-0.4s-0.9-0.2-1.2-0.4c-0.7-0.3-1.1-0.8-1.1-1.5
		c0-0.5,0.2-1,0.7-1.4s1-0.6,1.8-0.6c0.8,0,1.4,0.2,1.8,0.6s0.7,0.9,0.7,1.5h-1.4c0-0.3-0.1-0.5-0.3-0.7s-0.5-0.3-0.8-0.3
		c-0.3,0-0.6,0.1-0.8,0.2s-0.3,0.3-0.3,0.6c0,0.2,0.1,0.4,0.3,0.5s0.6,0.2,1.1,0.4s1,0.3,1.3,0.4s0.6,0.4,0.7,0.6s0.2,0.5,0.2,0.9
		c0,0.6-0.2,1-0.7,1.4s-1.1,0.5-1.9,0.5c-0.5,0-1-0.1-1.4-0.3s-0.7-0.4-0.9-0.8s-0.3-0.7-0.3-1.1h1.4c0,0.3,0.1,0.6,0.4,0.8
		s0.5,0.3,0.9,0.3c0.4,0,0.7-0.1,0.9-0.2S199.7,435.8,199.7,435.6z"/>
</g>
<g class="st0">
	<path class="st1" d="M81,546.8v3.2h-1.5v-8.5h3.3c1,0,1.7,0.2,2.3,0.7c0.6,0.5,0.8,1.2,0.8,2c0,0.8-0.3,1.5-0.8,2
		c-0.5,0.5-1.3,0.7-2.3,0.7H81z M81,545.6h1.8c0.5,0,0.9-0.1,1.2-0.4s0.4-0.6,0.4-1.1c0-0.5-0.1-0.8-0.4-1.1s-0.7-0.4-1.2-0.4H81
		V545.6z"/>
	<path class="st1" d="M90.3,546.7h-1.7v3.3h-1.5v-8.5h3c1,0,1.7,0.2,2.3,0.7c0.5,0.4,0.8,1.1,0.8,1.9c0,0.6-0.1,1-0.4,1.4
		c-0.3,0.4-0.7,0.7-1.2,0.9l1.9,3.6v0.1H92L90.3,546.7z M88.6,545.5h1.5c0.5,0,0.9-0.1,1.2-0.4s0.4-0.6,0.4-1c0-0.5-0.1-0.8-0.4-1.1
		s-0.6-0.4-1.2-0.4h-1.6V545.5z"/>
	<path class="st1" d="M101.4,545.9c0,0.8-0.1,1.6-0.4,2.2s-0.7,1.1-1.2,1.5s-1.2,0.5-1.9,0.5c-0.7,0-1.3-0.2-1.8-0.5s-1-0.8-1.3-1.4
		s-0.4-1.3-0.4-2.2v-0.5c0-0.8,0.1-1.6,0.4-2.2s0.7-1.1,1.2-1.5s1.2-0.5,1.8-0.5s1.3,0.2,1.8,0.5s1,0.8,1.2,1.4s0.4,1.4,0.4,2.2
		V545.9z M100,545.5c0-0.9-0.2-1.7-0.5-2.2s-0.9-0.8-1.5-0.8c-0.6,0-1.1,0.3-1.5,0.8s-0.5,1.2-0.6,2.1v0.5c0,0.9,0.2,1.7,0.5,2.2
		s0.9,0.8,1.5,0.8c0.7,0,1.2-0.2,1.5-0.8s0.5-1.2,0.5-2.2V545.5z"/>
	<path class="st1" d="M102.9,550v-8.5h2.5c0.8,0,1.4,0.2,2,0.5s1,0.8,1.4,1.4s0.5,1.3,0.5,2.1v0.4c0,0.8-0.2,1.5-0.5,2.1
		s-0.8,1.1-1.4,1.4s-1.3,0.5-2,0.5H102.9z M104.4,542.6v6.2h1c0.8,0,1.4-0.2,1.8-0.7s0.6-1.2,0.6-2.1v-0.5c0-0.9-0.2-1.6-0.6-2.1
		s-1-0.7-1.8-0.7H104.4z"/>
	<path class="st1" d="M117,541.4v5.7c0,0.9-0.3,1.6-0.9,2.2s-1.4,0.8-2.3,0.8c-1,0-1.8-0.3-2.3-0.8s-0.9-1.2-0.9-2.2v-5.7h1.5v5.7
		c0,0.6,0.1,1,0.4,1.3s0.7,0.5,1.3,0.5c1.1,0,1.7-0.6,1.7-1.8v-5.7H117z"/>
	<path class="st1" d="M125.1,547.2c-0.1,0.9-0.4,1.6-1,2.1s-1.4,0.8-2.3,0.8c-0.7,0-1.3-0.2-1.8-0.5s-0.9-0.8-1.2-1.4
		s-0.4-1.3-0.4-2.1v-0.8c0-0.8,0.1-1.5,0.4-2.1s0.7-1.1,1.2-1.4s1.1-0.5,1.8-0.5c0.9,0,1.7,0.3,2.3,0.8s0.9,1.2,1,2.2h-1.5
		c-0.1-0.6-0.2-1.1-0.5-1.3s-0.7-0.4-1.3-0.4c-0.6,0-1.1,0.2-1.5,0.7c-0.3,0.5-0.5,1.2-0.5,2.1v0.8c0,0.9,0.2,1.6,0.5,2.1
		c0.3,0.5,0.8,0.7,1.5,0.7c0.6,0,1-0.1,1.3-0.4s0.5-0.7,0.6-1.3H125.1z M122.3,550l-0.1,0.3c0.6,0.1,0.9,0.4,0.9,1
		c0,0.4-0.2,0.7-0.5,1s-0.8,0.3-1.4,0.3l0-0.8c0.3,0,0.5,0,0.6-0.1s0.2-0.2,0.2-0.4c0-0.2-0.1-0.3-0.2-0.4s-0.4-0.1-0.7-0.1l0.2-0.8
		H122.3z"/>
	<path class="st1" d="M131.2,548h-3.3l-0.7,2h-1.5l3.2-8.5h1.3l3.2,8.5h-1.5L131.2,548z M131.7,539.3c0,0.4-0.1,0.8-0.4,1.1
		s-0.6,0.4-0.9,0.4c-0.2,0-0.3,0-0.4,0s-0.3-0.1-0.5-0.2s-0.3-0.2-0.4-0.2s-0.2,0-0.3,0c-0.1,0-0.3,0.1-0.4,0.2s-0.2,0.3-0.2,0.4
		l-0.9,0c0-0.4,0.1-0.8,0.4-1.1s0.6-0.4,0.9-0.4c0.2,0,0.5,0.1,0.8,0.3s0.6,0.3,0.8,0.3c0.1,0,0.3-0.1,0.4-0.2s0.2-0.3,0.2-0.4
		L131.7,539.3z M128.3,546.8h2.5l-1.2-3.5L128.3,546.8z"/>
	<path class="st1" d="M141.1,545.9c0,0.8-0.1,1.6-0.4,2.2s-0.7,1.1-1.2,1.5s-1.2,0.5-1.9,0.5c-0.7,0-1.3-0.2-1.8-0.5s-1-0.8-1.3-1.4
		s-0.4-1.3-0.4-2.2v-0.5c0-0.8,0.1-1.6,0.4-2.2s0.7-1.1,1.2-1.5s1.2-0.5,1.8-0.5s1.3,0.2,1.8,0.5s1,0.8,1.2,1.4s0.4,1.4,0.4,2.2
		V545.9z M139.6,545.5c0-0.9-0.2-1.7-0.5-2.2s-0.9-0.8-1.5-0.8c-0.6,0-1.1,0.3-1.5,0.8s-0.5,1.2-0.6,2.1v0.5c0,0.9,0.2,1.7,0.5,2.2
		s0.9,0.8,1.5,0.8c0.7,0,1.2-0.2,1.5-0.8s0.5-1.2,0.5-2.2V545.5z"/>
	<path class="st1" d="M147,546.8v3.2h-1.5v-8.5h3.3c1,0,1.7,0.2,2.3,0.7c0.6,0.5,0.8,1.2,0.8,2c0,0.8-0.3,1.5-0.8,2
		c-0.5,0.5-1.3,0.7-2.3,0.7H147z M147,545.6h1.8c0.5,0,0.9-0.1,1.2-0.4s0.4-0.6,0.4-1.1c0-0.5-0.1-0.8-0.4-1.1s-0.7-0.4-1.2-0.4H147
		V545.6z"/>
	<path class="st1" d="M156.4,546.7h-1.7v3.3h-1.5v-8.5h3c1,0,1.7,0.2,2.3,0.7c0.5,0.4,0.8,1.1,0.8,1.9c0,0.6-0.1,1-0.4,1.4
		c-0.3,0.4-0.7,0.7-1.2,0.9l1.9,3.6v0.1h-1.6L156.4,546.7z M154.7,545.5h1.5c0.5,0,0.9-0.1,1.2-0.4s0.4-0.6,0.4-1
		c0-0.5-0.1-0.8-0.4-1.1s-0.6-0.4-1.2-0.4h-1.6V545.5z"/>
	<path class="st1" d="M162.3,550h-1.5v-8.5h1.5V550z"/>
	<path class="st1" d="M170.9,550h-1.5l-3.8-6.1v6.1h-1.5v-8.5h1.5l3.8,6.1v-6.1h1.5V550z"/>
	<path class="st1" d="M179.1,547.2c-0.1,0.9-0.4,1.6-1,2.1s-1.4,0.8-2.3,0.8c-0.7,0-1.3-0.2-1.8-0.5s-0.9-0.8-1.2-1.4
		s-0.4-1.3-0.4-2.1v-0.8c0-0.8,0.1-1.5,0.4-2.1s0.7-1.1,1.2-1.4s1.1-0.5,1.8-0.5c0.9,0,1.7,0.3,2.3,0.8s0.9,1.2,1,2.2h-1.5
		c-0.1-0.6-0.2-1.1-0.5-1.3s-0.7-0.4-1.3-0.4c-0.6,0-1.1,0.2-1.5,0.7c-0.3,0.5-0.5,1.2-0.5,2.1v0.8c0,0.9,0.2,1.6,0.5,2.1
		c0.3,0.5,0.8,0.7,1.5,0.7c0.6,0,1-0.1,1.3-0.4s0.5-0.7,0.6-1.3H179.1z"/>
	<path class="st1" d="M182,550h-1.5v-8.5h1.5V550z"/>
	<path class="st1" d="M185.3,546.8v3.2h-1.5v-8.5h3.3c1,0,1.7,0.2,2.3,0.7c0.6,0.5,0.8,1.2,0.8,2c0,0.8-0.3,1.5-0.8,2
		c-0.5,0.5-1.3,0.7-2.3,0.7H185.3z M185.3,545.6h1.8c0.5,0,0.9-0.1,1.2-0.4s0.4-0.6,0.4-1.1c0-0.5-0.1-0.8-0.4-1.1s-0.7-0.4-1.2-0.4
		h-1.8V545.6z"/>
	<path class="st1" d="M195.2,548h-3.3l-0.7,2h-1.5l3.2-8.5h1.3l3.2,8.5h-1.5L195.2,548z M192.3,546.8h2.5l-1.2-3.5L192.3,546.8z"/>
	<path class="st1" d="M199.9,548.8h3.9v1.2h-5.4v-8.5h1.5V548.8z"/>
</g>
<line class="st2" x1="108.5" y1="524.6" x2="176.8" y2="524.6"/>
<g class="st0">
	<path class="st3" d="M118.3,570.8h-1.5V567H113v3.8h-1.5v-8.5h1.5v3.6h3.8v-3.6h1.5V570.8z"/>
	<path class="st3" d="M119.6,567.5c0-0.6,0.1-1.2,0.4-1.7s0.6-0.9,1-1.1s1-0.4,1.5-0.4c0.9,0,1.5,0.3,2.1,0.8s0.8,1.3,0.9,2.2l0,0.3
		c0,0.6-0.1,1.2-0.4,1.7s-0.6,0.9-1,1.1s-1,0.4-1.5,0.4c-0.9,0-1.6-0.3-2.1-0.9S119.6,568.6,119.6,567.5L119.6,567.5z M121.1,567.7
		c0,0.7,0.1,1.2,0.4,1.5s0.6,0.6,1.1,0.6s0.9-0.2,1.1-0.6s0.4-0.9,0.4-1.6c0-0.6-0.1-1.1-0.4-1.5s-0.6-0.6-1.1-0.6
		c-0.5,0-0.8,0.2-1.1,0.6S121.1,566.9,121.1,567.7z"/>
	<path class="st3" d="M130.1,565.7c-0.2,0-0.4,0-0.6,0c-0.7,0-1.1,0.2-1.3,0.8v4.3h-1.4v-6.3h1.4l0,0.7c0.3-0.6,0.8-0.8,1.4-0.8
		c0.2,0,0.4,0,0.5,0.1L130.1,565.7z"/>
	<path class="st3" d="M133,562.9v1.5h1.1v1.1H133v3.5c0,0.2,0,0.4,0.1,0.5s0.3,0.2,0.5,0.2c0.2,0,0.3,0,0.5-0.1v1.1
		c-0.3,0.1-0.6,0.1-0.9,0.1c-1.1,0-1.6-0.6-1.6-1.8v-3.6h-1v-1.1h1v-1.5H133z"/>
	<path class="st3" d="M135.2,562.8c0-0.2,0.1-0.4,0.2-0.5s0.3-0.2,0.6-0.2s0.5,0.1,0.6,0.2s0.2,0.3,0.2,0.5c0,0.2-0.1,0.4-0.2,0.5
		s-0.3,0.2-0.6,0.2s-0.5-0.1-0.6-0.2S135.2,563,135.2,562.8z M136.8,570.8h-1.4v-6.3h1.4V570.8z"/>
	<path class="st3" d="M140.9,569.7c0.4,0,0.7-0.1,0.9-0.3s0.4-0.5,0.4-0.8h1.3c0,0.4-0.1,0.8-0.4,1.1s-0.5,0.6-0.9,0.8
		s-0.8,0.3-1.3,0.3c-0.9,0-1.6-0.3-2.1-0.9s-0.8-1.4-0.8-2.4v-0.1c0-1,0.3-1.7,0.8-2.3s1.2-0.9,2.1-0.9c0.8,0,1.4,0.2,1.8,0.7
		s0.7,1,0.7,1.7h-1.3c0-0.4-0.1-0.7-0.4-0.9s-0.5-0.4-0.9-0.4c-0.5,0-0.8,0.2-1.1,0.5s-0.4,0.8-0.4,1.5v0.2c0,0.7,0.1,1.2,0.4,1.5
		S140.4,569.7,140.9,569.7z"/>
	<path class="st3" d="M148.4,570.1c-0.4,0.5-1,0.7-1.8,0.7c-0.7,0-1.2-0.2-1.6-0.6s-0.5-1-0.5-1.7v-4.1h1.4v4.1c0,0.8,0.3,1.2,1,1.2
		c0.7,0,1.2-0.2,1.4-0.7v-4.6h1.4v6.3h-1.3L148.4,570.1z"/>
	<path class="st3" d="M152.8,570.8h-1.4v-9h1.4V570.8z"/>
	<path class="st3" d="M156.1,562.9v1.5h1.1v1.1h-1.1v3.5c0,0.2,0,0.4,0.1,0.5s0.3,0.2,0.5,0.2c0.2,0,0.3,0,0.5-0.1v1.1
		c-0.3,0.1-0.6,0.1-0.9,0.1c-1.1,0-1.6-0.6-1.6-1.8v-3.6h-1v-1.1h1v-1.5H156.1z"/>
	<path class="st3" d="M162.1,570.1c-0.4,0.5-1,0.7-1.8,0.7c-0.7,0-1.2-0.2-1.6-0.6s-0.5-1-0.5-1.7v-4.1h1.4v4.1c0,0.8,0.3,1.2,1,1.2
		c0.7,0,1.2-0.2,1.4-0.7v-4.6h1.4v6.3h-1.3L162.1,570.1z"/>
	<path class="st3" d="M168.3,565.7c-0.2,0-0.4,0-0.6,0c-0.7,0-1.1,0.2-1.3,0.8v4.3H165v-6.3h1.4l0,0.7c0.3-0.6,0.8-0.8,1.4-0.8
		c0.2,0,0.4,0,0.5,0.1L168.3,565.7z"/>
	<path class="st3" d="M172.8,570.8c-0.1-0.1-0.1-0.3-0.2-0.6c-0.5,0.5-1,0.7-1.7,0.7c-0.6,0-1.2-0.2-1.6-0.5s-0.6-0.8-0.6-1.3
		c0-0.7,0.3-1.2,0.8-1.6s1.2-0.5,2.2-0.5h0.9v-0.4c0-0.3-0.1-0.6-0.3-0.8s-0.5-0.3-0.8-0.3c-0.3,0-0.6,0.1-0.8,0.2s-0.3,0.4-0.3,0.6
		H169c0-0.3,0.1-0.7,0.3-1s0.5-0.5,0.9-0.7s0.8-0.3,1.3-0.3c0.7,0,1.3,0.2,1.8,0.6s0.7,0.9,0.7,1.6v2.9c0,0.6,0.1,1,0.2,1.4v0.1
		H172.8z M171.2,569.7c0.3,0,0.5-0.1,0.8-0.2s0.4-0.3,0.6-0.6v-1.2h-0.8c-0.5,0-0.9,0.1-1.2,0.3s-0.4,0.4-0.4,0.8
		c0,0.3,0.1,0.5,0.3,0.7S170.9,569.7,171.2,569.7z"/>
</g>
<g class="st0">
	<path class="st1" d="M391.8,149.5h-1.5V141h1.5V149.5z"/>
	<path class="st1" d="M400.4,149.5h-1.5l-3.8-6.1v6.1h-1.5V141h1.5l3.8,6.1V141h1.5V149.5z"/>
	<path class="st1" d="M406.6,147.3c0-0.4-0.1-0.7-0.4-0.9s-0.7-0.4-1.4-0.6s-1.2-0.4-1.6-0.7c-0.8-0.5-1.2-1.1-1.2-1.9
		c0-0.7,0.3-1.3,0.8-1.7s1.3-0.7,2.2-0.7c0.6,0,1.1,0.1,1.6,0.3s0.8,0.5,1.1,0.9s0.4,0.9,0.4,1.3h-1.5c0-0.4-0.1-0.8-0.4-1
		s-0.7-0.4-1.2-0.4c-0.5,0-0.9,0.1-1.1,0.3s-0.4,0.5-0.4,0.9c0,0.3,0.1,0.6,0.4,0.8s0.8,0.4,1.4,0.6s1.2,0.4,1.6,0.7
		s0.7,0.5,0.9,0.9s0.3,0.7,0.3,1.1c0,0.7-0.3,1.3-0.8,1.7s-1.3,0.6-2.2,0.6c-0.6,0-1.2-0.1-1.7-0.3s-0.9-0.5-1.2-0.9
		s-0.4-0.9-0.4-1.4h1.5c0,0.5,0.2,0.9,0.5,1.1s0.8,0.4,1.4,0.4c0.5,0,0.9-0.1,1.2-0.3S406.6,147.7,406.6,147.3z"/>
	<path class="st1" d="M414.4,145.7h-3.5v2.6h4.1v1.2h-5.6V141h5.5v1.2h-4.1v2.4h3.5V145.7z"/>
	<path class="st1" d="M419.3,146.2h-1.7v3.3h-1.5V141h3c1,0,1.7,0.2,2.3,0.7c0.5,0.4,0.8,1.1,0.8,1.9c0,0.6-0.1,1-0.4,1.4
		c-0.3,0.4-0.7,0.7-1.2,0.9l1.9,3.6v0.1H421L419.3,146.2z M417.6,145.1h1.5c0.5,0,0.9-0.1,1.2-0.4s0.4-0.6,0.4-1
		c0-0.5-0.1-0.8-0.4-1.1s-0.6-0.4-1.2-0.4h-1.6V145.1z"/>
	<path class="st1" d="M430.2,146.8c-0.1,0.9-0.4,1.6-1,2.1s-1.4,0.8-2.3,0.8c-0.7,0-1.3-0.2-1.8-0.5s-0.9-0.8-1.2-1.4
		s-0.4-1.3-0.4-2.1v-0.8c0-0.8,0.1-1.5,0.4-2.1s0.7-1.1,1.2-1.4s1.1-0.5,1.8-0.5c0.9,0,1.7,0.3,2.3,0.8s0.9,1.2,1,2.2h-1.5
		c-0.1-0.6-0.2-1.1-0.5-1.3s-0.7-0.4-1.3-0.4c-0.6,0-1.1,0.2-1.5,0.7c-0.3,0.5-0.5,1.2-0.5,2.1v0.8c0,0.9,0.2,1.6,0.5,2.1
		c0.3,0.5,0.8,0.7,1.5,0.7c0.6,0,1-0.1,1.3-0.4s0.5-0.7,0.6-1.3H430.2z M427.3,149.5l-0.1,0.3c0.6,0.1,0.9,0.4,0.9,1
		c0,0.4-0.2,0.7-0.5,1s-0.8,0.3-1.4,0.3l0-0.8c0.3,0,0.5,0,0.6-0.1s0.2-0.2,0.2-0.4c0-0.2-0.1-0.3-0.2-0.4s-0.4-0.1-0.7-0.1l0.2-0.8
		H427.3z"/>
	<path class="st1" d="M436.3,147.5h-3.3l-0.7,2h-1.5l3.2-8.5h1.3l3.2,8.5H437L436.3,147.5z M436.8,138.8c0,0.4-0.1,0.8-0.4,1.1
		s-0.6,0.4-0.9,0.4c-0.2,0-0.3,0-0.4,0s-0.3-0.1-0.5-0.2s-0.3-0.2-0.4-0.2s-0.2,0-0.3,0c-0.1,0-0.3,0.1-0.4,0.2s-0.2,0.3-0.2,0.4
		l-0.9,0c0-0.4,0.1-0.8,0.4-1.1s0.6-0.4,0.9-0.4c0.2,0,0.5,0.1,0.8,0.3s0.6,0.3,0.8,0.3c0.1,0,0.3-0.1,0.4-0.2s0.2-0.3,0.2-0.4
		L436.8,138.8z M433.4,146.3h2.5l-1.2-3.5L433.4,146.3z"/>
	<path class="st1" d="M446.1,145.5c0,0.8-0.1,1.6-0.4,2.2s-0.7,1.1-1.2,1.5s-1.2,0.5-1.9,0.5c-0.7,0-1.3-0.2-1.8-0.5s-1-0.8-1.3-1.4
		s-0.4-1.3-0.4-2.2v-0.5c0-0.8,0.1-1.6,0.4-2.2s0.7-1.1,1.2-1.5s1.2-0.5,1.8-0.5s1.3,0.2,1.8,0.5s1,0.8,1.2,1.4s0.4,1.4,0.4,2.2
		V145.5z M444.7,145c0-0.9-0.2-1.7-0.5-2.2s-0.9-0.8-1.5-0.8c-0.6,0-1.1,0.3-1.5,0.8s-0.5,1.2-0.6,2.1v0.5c0,0.9,0.2,1.7,0.5,2.2
		s0.9,0.8,1.5,0.8c0.7,0,1.2-0.2,1.5-0.8s0.5-1.2,0.5-2.2V145z"/>
	<path class="st1" d="M457.4,149.5h-1.5l-3.8-6.1v6.1h-1.5V141h1.5l3.8,6.1V141h1.5V149.5z"/>
	<path class="st1" d="M465.9,145.5c0,0.8-0.1,1.6-0.4,2.2s-0.7,1.1-1.2,1.5s-1.2,0.5-1.9,0.5c-0.7,0-1.3-0.2-1.8-0.5s-1-0.8-1.3-1.4
		s-0.4-1.3-0.4-2.2v-0.5c0-0.8,0.1-1.6,0.4-2.2s0.7-1.1,1.2-1.5s1.2-0.5,1.8-0.5s1.3,0.2,1.8,0.5s1,0.8,1.2,1.4s0.4,1.4,0.4,2.2
		V145.5z M464.5,145c0-0.9-0.2-1.7-0.5-2.2s-0.9-0.8-1.5-0.8c-0.6,0-1.1,0.3-1.5,0.8s-0.5,1.2-0.6,2.1v0.5c0,0.9,0.2,1.7,0.5,2.2
		s0.9,0.8,1.5,0.8c0.7,0,1.2-0.2,1.5-0.8s0.5-1.2,0.5-2.2V145z"/>
	<path class="st1" d="M472.3,141l2.5,6.5l2.5-6.5h1.9v8.5h-1.5v-2.8l0.1-3.8l-2.5,6.6h-1.1l-2.5-6.6l0.1,3.8v2.8h-1.5V141H472.3z"/>
	<path class="st1" d="M485.9,145.7h-3.5v2.6h4.1v1.2h-5.6V141h5.5v1.2h-4.1v2.4h3.5V145.7z"/>
	<path class="st1" d="M490.8,146.2h-1.7v3.3h-1.5V141h3c1,0,1.7,0.2,2.3,0.7c0.5,0.4,0.8,1.1,0.8,1.9c0,0.6-0.1,1-0.4,1.4
		c-0.3,0.4-0.7,0.7-1.2,0.9l1.9,3.6v0.1h-1.6L490.8,146.2z M489.2,145.1h1.5c0.5,0,0.9-0.1,1.2-0.4s0.4-0.6,0.4-1
		c0-0.5-0.1-0.8-0.4-1.1s-0.6-0.4-1.2-0.4h-1.6V145.1z"/>
	<path class="st1" d="M501.7,146.8c-0.1,0.9-0.4,1.6-1,2.1s-1.4,0.8-2.3,0.8c-0.7,0-1.3-0.2-1.8-0.5s-0.9-0.8-1.2-1.4
		s-0.4-1.3-0.4-2.1v-0.8c0-0.8,0.1-1.5,0.4-2.1s0.7-1.1,1.2-1.4s1.1-0.5,1.8-0.5c0.9,0,1.7,0.3,2.3,0.8s0.9,1.2,1,2.2h-1.5
		c-0.1-0.6-0.2-1.1-0.5-1.3s-0.7-0.4-1.3-0.4c-0.6,0-1.1,0.2-1.5,0.7c-0.3,0.5-0.5,1.2-0.5,2.1v0.8c0,0.9,0.2,1.6,0.5,2.1
		c0.3,0.5,0.8,0.7,1.5,0.7c0.6,0,1-0.1,1.3-0.4s0.5-0.7,0.6-1.3H501.7z"/>
	<path class="st1" d="M507.8,147.5h-3.3l-0.7,2h-1.5l3.2-8.5h1.3l3.2,8.5h-1.5L507.8,147.5z M504.9,146.3h2.5l-1.2-3.5L504.9,146.3z
		"/>
	<path class="st1" d="M511,149.5V141h2.5c0.8,0,1.4,0.2,2,0.5s1,0.8,1.4,1.4s0.5,1.3,0.5,2.1v0.4c0,0.8-0.2,1.5-0.5,2.1
		s-0.8,1.1-1.4,1.4s-1.3,0.5-2,0.5H511z M512.5,142.2v6.2h1c0.8,0,1.4-0.2,1.8-0.7s0.6-1.2,0.6-2.1V145c0-0.9-0.2-1.6-0.6-2.1
		s-1-0.7-1.8-0.7H512.5z"/>
	<path class="st1" d="M525.7,145.5c0,0.8-0.1,1.6-0.4,2.2s-0.7,1.1-1.2,1.5s-1.2,0.5-1.9,0.5c-0.7,0-1.3-0.2-1.8-0.5s-1-0.8-1.3-1.4
		s-0.4-1.3-0.4-2.2v-0.5c0-0.8,0.1-1.6,0.4-2.2s0.7-1.1,1.2-1.5s1.2-0.5,1.8-0.5s1.3,0.2,1.8,0.5s1,0.8,1.2,1.4s0.4,1.4,0.4,2.2
		V145.5z M524.2,145c0-0.9-0.2-1.7-0.5-2.2s-0.9-0.8-1.5-0.8c-0.6,0-1.1,0.3-1.5,0.8s-0.5,1.2-0.6,2.1v0.5c0,0.9,0.2,1.7,0.5,2.2
		s0.9,0.8,1.5,0.8c0.7,0,1.2-0.2,1.5-0.8s0.5-1.2,0.5-2.2V145z"/>
</g>
<line class="st2" x1="424.5" y1="124.2" x2="492.7" y2="124.2"/>
<g class="st0">
	<path class="st3" d="M432.4,170.3h-1.5l-3.8-6.1v6.1h-1.5v-8.5h1.5l3.8,6.1v-6.1h1.5V170.3z"/>
	<path class="st3" d="M437.8,170.3c-0.1-0.1-0.1-0.3-0.2-0.6c-0.5,0.5-1,0.7-1.7,0.7c-0.6,0-1.2-0.2-1.6-0.5s-0.6-0.8-0.6-1.3
		c0-0.7,0.3-1.2,0.8-1.6s1.2-0.5,2.2-0.5h0.9V166c0-0.3-0.1-0.6-0.3-0.8s-0.5-0.3-0.8-0.3c-0.3,0-0.6,0.1-0.8,0.2s-0.3,0.4-0.3,0.6
		h-1.4c0-0.3,0.1-0.7,0.3-1s0.5-0.5,0.9-0.7s0.8-0.3,1.3-0.3c0.7,0,1.3,0.2,1.8,0.6s0.7,0.9,0.7,1.6v2.9c0,0.6,0.1,1,0.2,1.4v0.1
		H437.8z M438.7,161.5c0,0.4-0.1,0.8-0.4,1.1s-0.6,0.4-0.9,0.4c-0.2,0-0.3,0-0.4,0s-0.3-0.1-0.5-0.2s-0.3-0.2-0.4-0.2s-0.2,0-0.3,0
		c-0.1,0-0.3,0.1-0.4,0.2s-0.2,0.3-0.2,0.4l-0.9,0c0-0.4,0.1-0.8,0.4-1.1s0.6-0.4,0.9-0.4c0.2,0,0.5,0.1,0.8,0.3s0.6,0.3,0.8,0.3
		c0.1,0,0.3-0.1,0.4-0.2s0.2-0.3,0.2-0.4L438.7,161.5z M436.2,169.3c0.3,0,0.5-0.1,0.8-0.2s0.4-0.3,0.6-0.6v-1.2h-0.8
		c-0.5,0-0.9,0.1-1.2,0.3s-0.4,0.4-0.4,0.8c0,0.3,0.1,0.5,0.3,0.7S435.9,169.3,436.2,169.3z"/>
	<path class="st3" d="M440.2,167.1c0-0.6,0.1-1.2,0.4-1.7s0.6-0.9,1-1.1s1-0.4,1.5-0.4c0.9,0,1.5,0.3,2.1,0.8s0.8,1.3,0.9,2.2l0,0.3
		c0,0.6-0.1,1.2-0.4,1.7s-0.6,0.9-1,1.1s-1,0.4-1.5,0.4c-0.9,0-1.6-0.3-2.1-0.9S440.2,168.2,440.2,167.1L440.2,167.1z M441.6,167.2
		c0,0.7,0.1,1.2,0.4,1.5s0.6,0.6,1.1,0.6s0.9-0.2,1.1-0.6s0.4-0.9,0.4-1.6c0-0.6-0.1-1.1-0.4-1.5s-0.6-0.6-1.1-0.6
		c-0.5,0-0.8,0.2-1.1,0.6S441.6,166.5,441.6,167.2z"/>
	<path class="st3" d="M450.3,162.4c0-0.2,0.1-0.4,0.2-0.5s0.3-0.2,0.6-0.2s0.5,0.1,0.6,0.2s0.2,0.3,0.2,0.5c0,0.2-0.1,0.4-0.2,0.5
		s-0.3,0.2-0.6,0.2s-0.5-0.1-0.6-0.2S450.3,162.6,450.3,162.4z M451.8,170.3h-1.4V164h1.4V170.3z"/>
	<path class="st3" d="M454.7,164l0,0.7c0.5-0.6,1.1-0.8,1.8-0.8c1.3,0,2,0.8,2,2.3v4.2h-1.4v-4.1c0-0.4-0.1-0.7-0.3-0.9
		s-0.5-0.3-0.9-0.3c-0.6,0-1,0.3-1.3,0.8v4.5h-1.4V164H454.7z"/>
	<path class="st3" d="M463.6,168.6c0-0.3-0.1-0.4-0.3-0.6s-0.6-0.2-1-0.4s-0.9-0.2-1.2-0.4c-0.7-0.3-1.1-0.8-1.1-1.5
		c0-0.5,0.2-1,0.7-1.4s1-0.6,1.8-0.6c0.8,0,1.4,0.2,1.8,0.6s0.7,0.9,0.7,1.5h-1.4c0-0.3-0.1-0.5-0.3-0.7s-0.5-0.3-0.8-0.3
		c-0.3,0-0.6,0.1-0.8,0.2s-0.3,0.3-0.3,0.6c0,0.2,0.1,0.4,0.3,0.5s0.6,0.2,1.1,0.4s1,0.3,1.3,0.4s0.6,0.4,0.7,0.6s0.2,0.5,0.2,0.9
		c0,0.6-0.2,1-0.7,1.4s-1.1,0.5-1.9,0.5c-0.5,0-1-0.1-1.4-0.3s-0.7-0.4-0.9-0.8s-0.3-0.7-0.3-1.1h1.4c0,0.3,0.1,0.6,0.4,0.8
		s0.5,0.3,0.9,0.3c0.4,0,0.7-0.1,0.9-0.2S463.6,168.8,463.6,168.6z"/>
	<path class="st3" d="M469,170.5c-0.9,0-1.6-0.3-2.2-0.9s-0.8-1.3-0.8-2.3v-0.2c0-0.6,0.1-1.2,0.4-1.7s0.6-0.9,1-1.2
		s0.9-0.4,1.5-0.4c0.9,0,1.5,0.3,2,0.8s0.7,1.3,0.7,2.3v0.6h-4.1c0,0.5,0.2,0.9,0.5,1.2s0.7,0.5,1.2,0.5c0.7,0,1.2-0.3,1.6-0.8
		l0.8,0.7c-0.3,0.4-0.6,0.7-1,0.9S469.5,170.5,469,170.5z M468.8,165c-0.4,0-0.7,0.1-0.9,0.4s-0.4,0.7-0.5,1.1h2.7v-0.1
		c0-0.5-0.2-0.8-0.4-1.1S469.2,165,468.8,165z"/>
	<path class="st3" d="M476,165.3c-0.2,0-0.4,0-0.6,0c-0.7,0-1.1,0.2-1.3,0.8v4.3h-1.4V164h1.4l0,0.7c0.3-0.6,0.8-0.8,1.4-0.8
		c0.2,0,0.4,0,0.5,0.1L476,165.3z"/>
	<path class="st3" d="M476.9,162.4c0-0.2,0.1-0.4,0.2-0.5s0.3-0.2,0.6-0.2s0.5,0.1,0.6,0.2s0.2,0.3,0.2,0.5c0,0.2-0.1,0.4-0.2,0.5
		s-0.3,0.2-0.6,0.2s-0.5-0.1-0.6-0.2S476.9,162.6,476.9,162.4z M478.4,170.3H477V164h1.4V170.3z"/>
	<path class="st3" d="M479.7,167.1c0-1,0.2-1.8,0.7-2.4s1.1-0.9,1.8-0.9c0.7,0,1.2,0.2,1.6,0.7v-3.2h1.4v9h-1.3l-0.1-0.7
		c-0.4,0.5-1,0.8-1.7,0.8c-0.7,0-1.3-0.3-1.8-0.9S479.7,168.1,479.7,167.1z M481.1,167.2c0,0.6,0.1,1.1,0.4,1.5s0.6,0.5,1.1,0.5
		c0.6,0,1-0.3,1.3-0.8v-2.7c-0.3-0.5-0.7-0.8-1.3-0.8c-0.5,0-0.8,0.2-1.1,0.5S481.1,166.5,481.1,167.2z"/>
	<path class="st3" d="M490.5,170.3c-0.1-0.1-0.1-0.3-0.2-0.6c-0.5,0.5-1,0.7-1.7,0.7c-0.6,0-1.2-0.2-1.6-0.5s-0.6-0.8-0.6-1.3
		c0-0.7,0.3-1.2,0.8-1.6s1.2-0.5,2.2-0.5h0.9V166c0-0.3-0.1-0.6-0.3-0.8s-0.5-0.3-0.8-0.3c-0.3,0-0.6,0.1-0.8,0.2s-0.3,0.4-0.3,0.6
		h-1.4c0-0.3,0.1-0.7,0.3-1s0.5-0.5,0.9-0.7s0.8-0.3,1.3-0.3c0.7,0,1.3,0.2,1.8,0.6s0.7,0.9,0.7,1.6v2.9c0,0.6,0.1,1,0.2,1.4v0.1
		H490.5z M488.9,169.3c0.3,0,0.5-0.1,0.8-0.2s0.4-0.3,0.6-0.6v-1.2h-0.8c-0.5,0-0.9,0.1-1.2,0.3s-0.4,0.4-0.4,0.8
		c0,0.3,0.1,0.5,0.3,0.7S488.6,169.3,488.9,169.3z"/>
</g>
<g class="st0">
	<path class="st1" d="M410.6,280.2c-0.1,0.9-0.4,1.6-1,2.1s-1.4,0.8-2.3,0.8c-0.7,0-1.3-0.2-1.8-0.5s-0.9-0.8-1.2-1.4
		s-0.4-1.3-0.4-2.1v-0.8c0-0.8,0.1-1.5,0.4-2.1s0.7-1.1,1.2-1.4s1.1-0.5,1.8-0.5c0.9,0,1.7,0.3,2.3,0.8s0.9,1.2,1,2.2h-1.5
		c-0.1-0.6-0.2-1.1-0.5-1.3s-0.7-0.4-1.3-0.4c-0.6,0-1.1,0.2-1.5,0.7c-0.3,0.5-0.5,1.2-0.5,2.1v0.8c0,0.9,0.2,1.6,0.5,2.1
		c0.3,0.5,0.8,0.7,1.5,0.7c0.6,0,1-0.1,1.3-0.4s0.5-0.7,0.6-1.3H410.6z"/>
	<path class="st1" d="M418.7,279c0,0.8-0.1,1.6-0.4,2.2s-0.7,1.1-1.2,1.5s-1.2,0.5-1.9,0.5c-0.7,0-1.3-0.2-1.8-0.5s-1-0.8-1.3-1.4
		s-0.4-1.3-0.4-2.2v-0.5c0-0.8,0.1-1.6,0.4-2.2s0.7-1.1,1.2-1.5s1.2-0.5,1.8-0.5s1.3,0.2,1.8,0.5s1,0.8,1.2,1.4s0.4,1.4,0.4,2.2V279
		z M417.2,278.5c0-0.9-0.2-1.7-0.5-2.2s-0.9-0.8-1.5-0.8c-0.6,0-1.1,0.3-1.5,0.8s-0.5,1.2-0.6,2.1v0.5c0,0.9,0.2,1.7,0.5,2.2
		s0.9,0.8,1.5,0.8c0.7,0,1.2-0.2,1.5-0.8s0.5-1.2,0.5-2.2V278.5z"/>
	<path class="st1" d="M422.1,274.5l2.5,6.5l2.5-6.5h1.9v8.5h-1.5v-2.8l0.1-3.8l-2.5,6.6h-1.1l-2.5-6.6l0.1,3.8v2.8h-1.5v-8.5H422.1z
		"/>
	<path class="st1" d="M435.7,279.2h-3.5v2.6h4.1v1.2h-5.6v-8.5h5.5v1.2h-4.1v2.4h3.5V279.2z"/>
	<path class="st1" d="M440.6,279.7H439v3.3h-1.5v-8.5h3c1,0,1.7,0.2,2.3,0.7c0.5,0.4,0.8,1.1,0.8,1.9c0,0.6-0.1,1-0.4,1.4
		c-0.3,0.4-0.7,0.7-1.2,0.9l1.9,3.6v0.1h-1.6L440.6,279.7z M439,278.5h1.5c0.5,0,0.9-0.1,1.2-0.4s0.4-0.6,0.4-1
		c0-0.5-0.1-0.8-0.4-1.1s-0.6-0.4-1.2-0.4H439V278.5z"/>
	<path class="st1" d="M451.5,280.2c-0.1,0.9-0.4,1.6-1,2.1s-1.4,0.8-2.3,0.8c-0.7,0-1.3-0.2-1.8-0.5s-0.9-0.8-1.2-1.4
		s-0.4-1.3-0.4-2.1v-0.8c0-0.8,0.1-1.5,0.4-2.1s0.7-1.1,1.2-1.4s1.1-0.5,1.8-0.5c0.9,0,1.7,0.3,2.3,0.8s0.9,1.2,1,2.2H450
		c-0.1-0.6-0.2-1.1-0.5-1.3s-0.7-0.4-1.3-0.4c-0.6,0-1.1,0.2-1.5,0.7c-0.3,0.5-0.5,1.2-0.5,2.1v0.8c0,0.9,0.2,1.6,0.5,2.1
		c0.3,0.5,0.8,0.7,1.5,0.7c0.6,0,1-0.1,1.3-0.4s0.5-0.7,0.6-1.3H451.5z"/>
	<path class="st1" d="M454.4,283h-1.5v-8.5h1.5V283z"/>
	<path class="st1" d="M461.1,281h-3.3l-0.7,2h-1.5l3.2-8.5h1.3l3.2,8.5h-1.5L461.1,281z M458.2,279.8h2.5l-1.2-3.5L458.2,279.8z"/>
	<path class="st1" d="M465.8,281.8h3.9v1.2h-5.4v-8.5h1.5V281.8z"/>
	<path class="st1" d="M472.4,283h-1.5v-8.5h1.5V283z"/>
	<path class="st1" d="M475.6,281.8h4.6v1.2h-6.4v-1l4.4-6.4h-4.4v-1.2h6.2v0.9L475.6,281.8z"/>
	<path class="st1" d="M486.3,281h-3.3l-0.7,2h-1.5l3.2-8.5h1.3l3.2,8.5H487L486.3,281z M483.4,279.8h2.5l-1.2-3.5L483.4,279.8z"/>
	<path class="st1" d="M495.9,280.2c-0.1,0.9-0.4,1.6-1,2.1s-1.4,0.8-2.3,0.8c-0.7,0-1.3-0.2-1.8-0.5s-0.9-0.8-1.2-1.4
		s-0.4-1.3-0.4-2.1v-0.8c0-0.8,0.1-1.5,0.4-2.1s0.7-1.1,1.2-1.4s1.1-0.5,1.8-0.5c0.9,0,1.7,0.3,2.3,0.8s0.9,1.2,1,2.2h-1.5
		c-0.1-0.6-0.2-1.1-0.5-1.3s-0.7-0.4-1.3-0.4c-0.6,0-1.1,0.2-1.5,0.7c-0.3,0.5-0.5,1.2-0.5,2.1v0.8c0,0.9,0.2,1.6,0.5,2.1
		c0.3,0.5,0.8,0.7,1.5,0.7c0.6,0,1-0.1,1.3-0.4s0.5-0.7,0.6-1.3H495.9z M493,283l-0.1,0.3c0.6,0.1,0.9,0.4,0.9,1
		c0,0.4-0.2,0.7-0.5,1s-0.8,0.3-1.4,0.3l0-0.8c0.3,0,0.5,0,0.6-0.1s0.2-0.2,0.2-0.4c0-0.2-0.1-0.3-0.2-0.4s-0.4-0.1-0.7-0.1l0.2-0.8
		H493z"/>
	<path class="st1" d="M502,281h-3.3l-0.7,2h-1.5l3.2-8.5h1.3l3.2,8.5h-1.5L502,281z M502.5,272.3c0,0.4-0.1,0.8-0.4,1.1
		s-0.6,0.4-0.9,0.4c-0.2,0-0.3,0-0.4,0s-0.3-0.1-0.5-0.2s-0.3-0.2-0.4-0.2s-0.2,0-0.3,0c-0.1,0-0.3,0.1-0.4,0.2s-0.2,0.3-0.2,0.4
		l-0.9,0c0-0.4,0.1-0.8,0.4-1.1s0.6-0.4,0.9-0.4c0.2,0,0.5,0.1,0.8,0.3s0.6,0.3,0.8,0.3c0.1,0,0.3-0.1,0.4-0.2s0.2-0.3,0.2-0.4
		L502.5,272.3z M499.1,279.8h2.5l-1.2-3.5L499.1,279.8z"/>
	<path class="st1" d="M511.8,279c0,0.8-0.1,1.6-0.4,2.2s-0.7,1.1-1.2,1.5s-1.2,0.5-1.9,0.5c-0.7,0-1.3-0.2-1.8-0.5s-1-0.8-1.3-1.4
		s-0.4-1.3-0.4-2.2v-0.5c0-0.8,0.1-1.6,0.4-2.2s0.7-1.1,1.2-1.5s1.2-0.5,1.8-0.5s1.3,0.2,1.8,0.5s1,0.8,1.2,1.4s0.4,1.4,0.4,2.2V279
		z M510.4,278.5c0-0.9-0.2-1.7-0.5-2.2s-0.9-0.8-1.5-0.8c-0.6,0-1.1,0.3-1.5,0.8s-0.5,1.2-0.6,2.1v0.5c0,0.9,0.2,1.7,0.5,2.2
		s0.9,0.8,1.5,0.8c0.7,0,1.2-0.2,1.5-0.8s0.5-1.2,0.5-2.2V278.5z"/>
</g>
<line class="st2" x1="424.5" y1="257.7" x2="492.7" y2="257.7"/>
<g class="st0">
	<path class="st3" d="M430,303.8h-1.5l-3.8-6.1v6.1h-1.5v-8.5h1.5l3.8,6.1v-6.1h1.5V303.8z"/>
	<path class="st3" d="M435.4,303.8c-0.1-0.1-0.1-0.3-0.2-0.6c-0.5,0.5-1,0.7-1.7,0.7c-0.6,0-1.2-0.2-1.6-0.5s-0.6-0.8-0.6-1.3
		c0-0.7,0.3-1.2,0.8-1.6s1.2-0.5,2.2-0.5h0.9v-0.4c0-0.3-0.1-0.6-0.3-0.8s-0.5-0.3-0.8-0.3c-0.3,0-0.6,0.1-0.8,0.2s-0.3,0.4-0.3,0.6
		h-1.4c0-0.3,0.1-0.7,0.3-1s0.5-0.5,0.9-0.7s0.8-0.3,1.3-0.3c0.7,0,1.3,0.2,1.8,0.6s0.7,0.9,0.7,1.6v2.9c0,0.6,0.1,1,0.2,1.4v0.1
		H435.4z M436.4,294.9c0,0.4-0.1,0.8-0.4,1.1s-0.6,0.4-0.9,0.4c-0.2,0-0.3,0-0.4,0s-0.3-0.1-0.5-0.2s-0.3-0.2-0.4-0.2s-0.2,0-0.3,0
		c-0.1,0-0.3,0.1-0.4,0.2s-0.2,0.3-0.2,0.4l-0.9,0c0-0.4,0.1-0.8,0.4-1.1s0.6-0.4,0.9-0.4c0.2,0,0.5,0.1,0.8,0.3s0.6,0.3,0.8,0.3
		c0.1,0,0.3-0.1,0.4-0.2s0.2-0.3,0.2-0.4L436.4,294.9z M433.9,302.8c0.3,0,0.5-0.1,0.8-0.2s0.4-0.3,0.6-0.6v-1.2h-0.8
		c-0.5,0-0.9,0.1-1.2,0.3s-0.4,0.4-0.4,0.8c0,0.3,0.1,0.5,0.3,0.7S433.6,302.8,433.9,302.8z"/>
	<path class="st3" d="M437.9,300.6c0-0.6,0.1-1.2,0.4-1.7s0.6-0.9,1-1.1s1-0.4,1.5-0.4c0.9,0,1.5,0.3,2.1,0.8s0.8,1.3,0.9,2.2l0,0.3
		c0,0.6-0.1,1.2-0.4,1.7s-0.6,0.9-1,1.1s-1,0.4-1.5,0.4c-0.9,0-1.6-0.3-2.1-0.9S437.9,301.6,437.9,300.6L437.9,300.6z M439.3,300.7
		c0,0.7,0.1,1.2,0.4,1.5s0.6,0.6,1.1,0.6s0.9-0.2,1.1-0.6s0.4-0.9,0.4-1.6c0-0.6-0.1-1.1-0.4-1.5s-0.6-0.6-1.1-0.6
		c-0.5,0-0.8,0.2-1.1,0.6S439.3,300,439.3,300.7z"/>
	<path class="st3" d="M451.7,303.8c-0.1-0.1-0.1-0.3-0.2-0.6c-0.5,0.5-1,0.7-1.7,0.7c-0.6,0-1.2-0.2-1.6-0.5s-0.6-0.8-0.6-1.3
		c0-0.7,0.3-1.2,0.8-1.6s1.2-0.5,2.2-0.5h0.9v-0.4c0-0.3-0.1-0.6-0.3-0.8s-0.5-0.3-0.8-0.3c-0.3,0-0.6,0.1-0.8,0.2s-0.3,0.4-0.3,0.6
		h-1.4c0-0.3,0.1-0.7,0.3-1s0.5-0.5,0.9-0.7s0.8-0.3,1.3-0.3c0.7,0,1.3,0.2,1.8,0.6s0.7,0.9,0.7,1.6v2.9c0,0.6,0.1,1,0.2,1.4v0.1
		H451.7z M450.2,302.8c0.3,0,0.5-0.1,0.8-0.2s0.4-0.3,0.6-0.6v-1.2h-0.8c-0.5,0-0.9,0.1-1.2,0.3s-0.4,0.4-0.4,0.8
		c0,0.3,0.1,0.5,0.3,0.7S449.9,302.8,450.2,302.8z"/>
	<path class="st3" d="M460,300.7c0,1-0.2,1.8-0.7,2.3s-1,0.9-1.8,0.9c-0.7,0-1.3-0.2-1.7-0.7v3h-1.4v-8.8h1.3l0.1,0.6
		c0.4-0.5,1-0.8,1.7-0.8c0.8,0,1.4,0.3,1.8,0.9S460,299.6,460,300.7L460,300.7z M458.6,300.6c0-0.6-0.1-1.1-0.4-1.5
		s-0.6-0.6-1.1-0.6c-0.6,0-1,0.2-1.3,0.7v2.8c0.3,0.5,0.7,0.7,1.3,0.7c0.5,0,0.8-0.2,1.1-0.5S458.6,301.3,458.6,300.6z"/>
	<path class="st3" d="M462.7,303.8h-1.4v-9h1.4V303.8z"/>
	<path class="st3" d="M464.3,295.8c0-0.2,0.1-0.4,0.2-0.5s0.3-0.2,0.6-0.2s0.5,0.1,0.6,0.2s0.2,0.3,0.2,0.5c0,0.2-0.1,0.4-0.2,0.5
		s-0.3,0.2-0.6,0.2s-0.5-0.1-0.6-0.2S464.3,296,464.3,295.8z M465.8,303.8h-1.4v-6.3h1.4V303.8z"/>
	<path class="st3" d="M469.9,302.8c0.4,0,0.7-0.1,0.9-0.3s0.4-0.5,0.4-0.8h1.3c0,0.4-0.1,0.8-0.4,1.1s-0.5,0.6-0.9,0.8
		s-0.8,0.3-1.3,0.3c-0.9,0-1.6-0.3-2.1-0.9s-0.8-1.4-0.8-2.4v-0.1c0-1,0.3-1.7,0.8-2.3s1.2-0.9,2.1-0.9c0.8,0,1.4,0.2,1.8,0.7
		s0.7,1,0.7,1.7h-1.3c0-0.4-0.1-0.7-0.4-0.9s-0.5-0.4-0.9-0.4c-0.5,0-0.8,0.2-1.1,0.5s-0.4,0.8-0.4,1.5v0.2c0,0.7,0.1,1.2,0.4,1.5
		S469.5,302.8,469.9,302.8z"/>
	<path class="st3" d="M477.4,303.8c-0.1-0.1-0.1-0.3-0.2-0.6c-0.5,0.5-1,0.7-1.7,0.7c-0.6,0-1.2-0.2-1.6-0.5s-0.6-0.8-0.6-1.3
		c0-0.7,0.3-1.2,0.8-1.6s1.2-0.5,2.2-0.5h0.9v-0.4c0-0.3-0.1-0.6-0.3-0.8s-0.5-0.3-0.8-0.3c-0.3,0-0.6,0.1-0.8,0.2s-0.3,0.4-0.3,0.6
		h-1.4c0-0.3,0.1-0.7,0.3-1s0.5-0.5,0.9-0.7s0.8-0.3,1.3-0.3c0.7,0,1.3,0.2,1.8,0.6s0.7,0.9,0.7,1.6v2.9c0,0.6,0.1,1,0.2,1.4v0.1
		H477.4z M475.8,302.8c0.3,0,0.5-0.1,0.8-0.2s0.4-0.3,0.6-0.6v-1.2h-0.8c-0.5,0-0.9,0.1-1.2,0.3s-0.4,0.4-0.4,0.8
		c0,0.3,0.1,0.5,0.3,0.7S475.5,302.8,475.8,302.8z M476.6,294.8h1.6l-1.6,1.8l-1.1,0L476.6,294.8z"/>
	<path class="st3" d="M482.3,302l1.3-4.5h1.5l-2.2,6.3h-1.2l-2.2-6.3h1.5L482.3,302z"/>
	<path class="st3" d="M488.7,303.9c-0.9,0-1.6-0.3-2.2-0.9s-0.8-1.3-0.8-2.3v-0.2c0-0.6,0.1-1.2,0.4-1.7s0.6-0.9,1-1.2
		s0.9-0.4,1.5-0.4c0.9,0,1.5,0.3,2,0.8s0.7,1.3,0.7,2.3v0.6h-4.1c0,0.5,0.2,0.9,0.5,1.2s0.7,0.5,1.2,0.5c0.7,0,1.2-0.3,1.6-0.8
		l0.8,0.7c-0.3,0.4-0.6,0.7-1,0.9S489.2,303.9,488.7,303.9z M488.5,298.5c-0.4,0-0.7,0.1-0.9,0.4s-0.4,0.7-0.5,1.1h2.7v-0.1
		c0-0.5-0.2-0.8-0.4-1.1S488.9,298.5,488.5,298.5z"/>
	<path class="st3" d="M493.8,303.8h-1.4v-9h1.4V303.8z"/>
</g>
<g class="st0">
	<path class="st1" d="M441.6,412.7h-3.5v2.6h4.1v1.2h-5.6v-8.5h5.5v1.2h-4.1v2.4h3.5V412.7z"/>
	<path class="st1" d="M447.8,414.3c0-0.4-0.1-0.7-0.4-0.9s-0.7-0.4-1.4-0.6s-1.2-0.4-1.6-0.7c-0.8-0.5-1.2-1.1-1.2-1.9
		c0-0.7,0.3-1.3,0.8-1.7s1.3-0.7,2.2-0.7c0.6,0,1.1,0.1,1.6,0.3s0.8,0.5,1.1,0.9s0.4,0.9,0.4,1.3h-1.5c0-0.4-0.1-0.8-0.4-1
		s-0.7-0.4-1.2-0.4c-0.5,0-0.9,0.1-1.1,0.3s-0.4,0.5-0.4,0.9c0,0.3,0.1,0.6,0.4,0.8s0.8,0.4,1.4,0.6s1.2,0.4,1.6,0.7
		s0.7,0.5,0.9,0.9s0.3,0.7,0.3,1.1c0,0.7-0.3,1.3-0.8,1.7s-1.3,0.6-2.2,0.6c-0.6,0-1.2-0.1-1.7-0.3s-0.9-0.5-1.2-0.9
		s-0.4-0.9-0.4-1.4h1.5c0,0.5,0.2,0.9,0.5,1.1s0.8,0.4,1.4,0.4c0.5,0,0.9-0.1,1.2-0.3S447.8,414.6,447.8,414.3z"/>
	<path class="st1" d="M457.1,413.7c-0.1,0.9-0.4,1.6-1,2.1s-1.4,0.8-2.3,0.8c-0.7,0-1.3-0.2-1.8-0.5s-0.9-0.8-1.2-1.4
		s-0.4-1.3-0.4-2.1v-0.8c0-0.8,0.1-1.5,0.4-2.1s0.7-1.1,1.2-1.4s1.1-0.5,1.8-0.5c0.9,0,1.7,0.3,2.3,0.8s0.9,1.2,1,2.2h-1.5
		c-0.1-0.6-0.2-1.1-0.5-1.3s-0.7-0.4-1.3-0.4c-0.6,0-1.1,0.2-1.5,0.7c-0.3,0.5-0.5,1.2-0.5,2.1v0.8c0,0.9,0.2,1.6,0.5,2.1
		c0.3,0.5,0.8,0.7,1.5,0.7c0.6,0,1-0.1,1.3-0.4s0.5-0.7,0.6-1.3H457.1z"/>
	<path class="st1" d="M463.2,414.5h-3.3l-0.7,2h-1.5l3.2-8.5h1.3l3.2,8.5h-1.5L463.2,414.5z M460.3,413.3h2.5l-1.2-3.5L460.3,413.3z
		"/>
	<path class="st1" d="M467.9,415.3h3.9v1.2h-5.4v-8.5h1.5V415.3z"/>
	<path class="st1" d="M477.8,414.5h-3.3l-0.7,2h-1.5l3.2-8.5h1.3l3.2,8.5h-1.5L477.8,414.5z M474.9,413.3h2.5l-1.2-3.5L474.9,413.3z
		"/>
</g>
<line class="st2" x1="424.5" y1="391.2" x2="492.7" y2="391.2"/>
<g class="st0">
	<path class="st3" d="M395.3,435.3H392l-0.7,2h-1.5l3.2-8.5h1.3l3.2,8.5H396L395.3,435.3z M392.4,434.1h2.5l-1.2-3.5L392.4,434.1z
		 M394.1,426.5h1.6l-1.6,1.8l-1.1,0L394.1,426.5z"/>
	<path class="st3" d="M401.7,432.3c-0.2,0-0.4,0-0.6,0c-0.7,0-1.1,0.2-1.3,0.8v4.3h-1.4V431h1.4l0,0.7c0.3-0.6,0.8-0.8,1.4-0.8
		c0.2,0,0.4,0,0.5,0.1L401.7,432.3z"/>
	<path class="st3" d="M405.3,437.4c-0.9,0-1.6-0.3-2.2-0.9s-0.8-1.3-0.8-2.3v-0.2c0-0.6,0.1-1.2,0.4-1.7s0.6-0.9,1-1.2
		s0.9-0.4,1.5-0.4c0.9,0,1.5,0.3,2,0.8s0.7,1.3,0.7,2.3v0.6h-4.1c0,0.5,0.2,0.9,0.5,1.2s0.7,0.5,1.2,0.5c0.7,0,1.2-0.3,1.6-0.8
		l0.8,0.7c-0.3,0.4-0.6,0.7-1,0.9S405.8,437.4,405.3,437.4z M405.1,432c-0.4,0-0.7,0.1-0.9,0.4s-0.4,0.7-0.5,1.1h2.7v-0.1
		c0-0.5-0.2-0.8-0.4-1.1S405.5,432,405.1,432z"/>
	<path class="st3" d="M412.7,437.3c-0.1-0.1-0.1-0.3-0.2-0.6c-0.5,0.5-1,0.7-1.7,0.7c-0.6,0-1.2-0.2-1.6-0.5s-0.6-0.8-0.6-1.3
		c0-0.7,0.3-1.2,0.8-1.6s1.2-0.5,2.2-0.5h0.9V433c0-0.3-0.1-0.6-0.3-0.8s-0.5-0.3-0.8-0.3c-0.3,0-0.6,0.1-0.8,0.2s-0.3,0.4-0.3,0.6
		h-1.4c0-0.3,0.1-0.7,0.3-1s0.5-0.5,0.9-0.7s0.8-0.3,1.3-0.3c0.7,0,1.3,0.2,1.8,0.6s0.7,0.9,0.7,1.6v2.9c0,0.6,0.1,1,0.2,1.4v0.1
		H412.7z M411.1,436.3c0.3,0,0.5-0.1,0.8-0.2s0.4-0.3,0.6-0.6v-1.2h-0.8c-0.5,0-0.9,0.1-1.2,0.3s-0.4,0.4-0.4,0.8
		c0,0.3,0.1,0.5,0.3,0.7S410.8,436.3,411.1,436.3z"/>
	<path class="st3" d="M418.9,435.6c0-0.3-0.1-0.4-0.3-0.6s-0.6-0.2-1-0.4s-0.9-0.2-1.2-0.4c-0.7-0.3-1.1-0.8-1.1-1.5
		c0-0.5,0.2-1,0.7-1.4s1-0.6,1.8-0.6c0.8,0,1.4,0.2,1.8,0.6s0.7,0.9,0.7,1.5h-1.4c0-0.3-0.1-0.5-0.3-0.7s-0.5-0.3-0.8-0.3
		c-0.3,0-0.6,0.1-0.8,0.2s-0.3,0.3-0.3,0.6c0,0.2,0.1,0.4,0.3,0.5s0.6,0.2,1.1,0.4s1,0.3,1.3,0.4s0.6,0.4,0.7,0.6s0.2,0.5,0.2,0.9
		c0,0.6-0.2,1-0.7,1.4s-1.1,0.5-1.9,0.5c-0.5,0-1-0.1-1.4-0.3s-0.7-0.4-0.9-0.8s-0.3-0.7-0.3-1.1h1.4c0,0.3,0.1,0.6,0.4,0.8
		s0.5,0.3,0.9,0.3c0.4,0,0.7-0.1,0.9-0.2S418.9,435.8,418.9,435.6z"/>
	<path class="st3" d="M430.1,434.2c0,1-0.2,1.8-0.7,2.3s-1,0.9-1.8,0.9c-0.7,0-1.3-0.2-1.7-0.7v3h-1.4V431h1.3l0.1,0.6
		c0.4-0.5,1-0.8,1.7-0.8c0.8,0,1.4,0.3,1.8,0.9S430.1,433.1,430.1,434.2L430.1,434.2z M428.7,434.1c0-0.6-0.1-1.1-0.4-1.5
		s-0.6-0.6-1.1-0.6c-0.6,0-1,0.2-1.3,0.7v2.8c0.3,0.5,0.7,0.7,1.3,0.7c0.5,0,0.8-0.2,1.1-0.5S428.7,434.8,428.7,434.1z"/>
	<path class="st3" d="M435.2,436.7c-0.4,0.5-1,0.7-1.8,0.7c-0.7,0-1.2-0.2-1.6-0.6s-0.5-1-0.5-1.7V431h1.4v4.1c0,0.8,0.3,1.2,1,1.2
		c0.7,0,1.2-0.2,1.4-0.7V431h1.4v6.3h-1.3L435.2,436.7z M434.4,428.3h1.6l-1.6,1.8l-1.1,0L434.4,428.3z"/>
	<path class="st3" d="M443.6,434.2c0,1-0.2,1.8-0.7,2.3s-1,0.9-1.8,0.9c-0.7,0-1.3-0.3-1.7-0.8l-0.1,0.7H438v-9h1.4v3.3
		c0.4-0.5,1-0.7,1.7-0.7c0.8,0,1.4,0.3,1.8,0.9S443.6,433.1,443.6,434.2L443.6,434.2z M442.1,434.1c0-0.7-0.1-1.2-0.4-1.5
		s-0.6-0.5-1.1-0.5c-0.6,0-1.1,0.3-1.3,0.8v2.6c0.3,0.6,0.7,0.8,1.3,0.8c0.4,0,0.8-0.2,1-0.5s0.4-0.8,0.4-1.5V434.1z"/>
	<path class="st3" d="M446.3,437.3h-1.4v-9h1.4V437.3z"/>
	<path class="st3" d="M447.8,429.3c0-0.2,0.1-0.4,0.2-0.5s0.3-0.2,0.6-0.2s0.5,0.1,0.6,0.2s0.2,0.3,0.2,0.5c0,0.2-0.1,0.4-0.2,0.5
		s-0.3,0.2-0.6,0.2s-0.5-0.1-0.6-0.2S447.8,429.5,447.8,429.3z M449.3,437.3h-1.4V431h1.4V437.3z"/>
	<path class="st3" d="M453.5,436.3c0.4,0,0.7-0.1,0.9-0.3s0.4-0.5,0.4-0.8h1.3c0,0.4-0.1,0.8-0.4,1.1s-0.5,0.6-0.9,0.8
		s-0.8,0.3-1.3,0.3c-0.9,0-1.6-0.3-2.1-0.9s-0.8-1.4-0.8-2.4V434c0-1,0.3-1.7,0.8-2.3s1.2-0.9,2.1-0.9c0.8,0,1.4,0.2,1.8,0.7
		s0.7,1,0.7,1.7h-1.3c0-0.4-0.1-0.7-0.4-0.9s-0.5-0.4-0.9-0.4c-0.5,0-0.8,0.2-1.1,0.5s-0.4,0.8-0.4,1.5v0.2c0,0.7,0.1,1.2,0.4,1.5
		S453,436.3,453.5,436.3z"/>
	<path class="st3" d="M461,437.3c-0.1-0.1-0.1-0.3-0.2-0.6c-0.5,0.5-1,0.7-1.7,0.7c-0.6,0-1.2-0.2-1.6-0.5s-0.6-0.8-0.6-1.3
		c0-0.7,0.3-1.2,0.8-1.6s1.2-0.5,2.2-0.5h0.9V433c0-0.3-0.1-0.6-0.3-0.8s-0.5-0.3-0.8-0.3c-0.3,0-0.6,0.1-0.8,0.2s-0.3,0.4-0.3,0.6
		h-1.4c0-0.3,0.1-0.7,0.3-1s0.5-0.5,0.9-0.7s0.8-0.3,1.3-0.3c0.7,0,1.3,0.2,1.8,0.6s0.7,0.9,0.7,1.6v2.9c0,0.6,0.1,1,0.2,1.4v0.1
		H461z M459.4,436.3c0.3,0,0.5-0.1,0.8-0.2s0.4-0.3,0.6-0.6v-1.2H460c-0.5,0-0.9,0.1-1.2,0.3s-0.4,0.4-0.4,0.8
		c0,0.3,0.1,0.5,0.3,0.7S459.1,436.3,459.4,436.3z"/>
	<path class="st3" d="M467.2,435.6c0-0.3-0.1-0.4-0.3-0.6s-0.6-0.2-1-0.4s-0.9-0.2-1.2-0.4c-0.7-0.3-1.1-0.8-1.1-1.5
		c0-0.5,0.2-1,0.7-1.4s1-0.6,1.8-0.6c0.8,0,1.4,0.2,1.8,0.6s0.7,0.9,0.7,1.5h-1.4c0-0.3-0.1-0.5-0.3-0.7s-0.5-0.3-0.8-0.3
		c-0.3,0-0.6,0.1-0.8,0.2s-0.3,0.3-0.3,0.6c0,0.2,0.1,0.4,0.3,0.5s0.6,0.2,1.1,0.4s1,0.3,1.3,0.4s0.6,0.4,0.7,0.6s0.2,0.5,0.2,0.9
		c0,0.6-0.2,1-0.7,1.4s-1.1,0.5-1.9,0.5c-0.5,0-1-0.1-1.4-0.3s-0.7-0.4-0.9-0.8s-0.3-0.7-0.3-1.1h1.4c0,0.3,0.1,0.6,0.4,0.8
		s0.5,0.3,0.9,0.3c0.4,0,0.7-0.1,0.9-0.2S467.2,435.8,467.2,435.6z"/>
	<path class="st3" d="M475.6,437.4c-0.9,0-1.6-0.3-2.2-0.9s-0.8-1.3-0.8-2.3v-0.2c0-0.6,0.1-1.2,0.4-1.7s0.6-0.9,1-1.2
		s0.9-0.4,1.5-0.4c0.9,0,1.5,0.3,2,0.8s0.7,1.3,0.7,2.3v0.6H474c0,0.5,0.2,0.9,0.5,1.2s0.7,0.5,1.2,0.5c0.7,0,1.2-0.3,1.6-0.8
		l0.8,0.7c-0.3,0.4-0.6,0.7-1,0.9S476.2,437.4,475.6,437.4z M475.5,432c-0.4,0-0.7,0.1-0.9,0.4s-0.4,0.7-0.5,1.1h2.7v-0.1
		c0-0.5-0.2-0.8-0.4-1.1S475.9,432,475.5,432z"/>
	<path class="st3" d="M487.8,434.2c0,1-0.2,1.8-0.7,2.3s-1,0.9-1.8,0.9c-0.7,0-1.3-0.2-1.7-0.7v3h-1.4V431h1.3l0.1,0.6
		c0.4-0.5,1-0.8,1.7-0.8c0.8,0,1.4,0.3,1.8,0.9S487.8,433.1,487.8,434.2L487.8,434.2z M486.4,434.1c0-0.6-0.1-1.1-0.4-1.5
		s-0.6-0.6-1.1-0.6c-0.6,0-1,0.2-1.3,0.7v2.8c0.3,0.5,0.7,0.7,1.3,0.7c0.5,0,0.8-0.2,1.1-0.5S486.4,434.8,486.4,434.1z"/>
	<path class="st3" d="M492.3,432.3c-0.2,0-0.4,0-0.6,0c-0.7,0-1.1,0.2-1.3,0.8v4.3H489V431h1.4l0,0.7c0.3-0.6,0.8-0.8,1.4-0.8
		c0.2,0,0.4,0,0.5,0.1L492.3,432.3z"/>
	<path class="st3" d="M493.2,429.3c0-0.2,0.1-0.4,0.2-0.5s0.3-0.2,0.6-0.2s0.5,0.1,0.6,0.2s0.2,0.3,0.2,0.5c0,0.2-0.1,0.4-0.2,0.5
		s-0.3,0.2-0.6,0.2s-0.5-0.1-0.6-0.2S493.2,429.5,493.2,429.3z M494.8,437.3h-1.4V431h1.4V437.3z"/>
	<path class="st3" d="M498.5,435.5l1.3-4.5h1.5l-2.2,6.3h-1.2l-2.2-6.3h1.5L498.5,435.5z"/>
	<path class="st3" d="M505.9,437.3c-0.1-0.1-0.1-0.3-0.2-0.6c-0.5,0.5-1,0.7-1.7,0.7c-0.6,0-1.2-0.2-1.6-0.5s-0.6-0.8-0.6-1.3
		c0-0.7,0.3-1.2,0.8-1.6s1.2-0.5,2.2-0.5h0.9V433c0-0.3-0.1-0.6-0.3-0.8s-0.5-0.3-0.8-0.3c-0.3,0-0.6,0.1-0.8,0.2s-0.3,0.4-0.3,0.6
		h-1.4c0-0.3,0.1-0.7,0.3-1s0.5-0.5,0.9-0.7s0.8-0.3,1.3-0.3c0.7,0,1.3,0.2,1.8,0.6s0.7,0.9,0.7,1.6v2.9c0,0.6,0.1,1,0.2,1.4v0.1
		H505.9z M504.4,436.3c0.3,0,0.5-0.1,0.8-0.2s0.4-0.3,0.6-0.6v-1.2H505c-0.5,0-0.9,0.1-1.2,0.3s-0.4,0.4-0.4,0.8
		c0,0.3,0.1,0.5,0.3,0.7S504.1,436.3,504.4,436.3z"/>
	<path class="st3" d="M508.4,434.1c0-1,0.2-1.8,0.7-2.4s1.1-0.9,1.8-0.9c0.7,0,1.2,0.2,1.6,0.7v-3.2h1.4v9h-1.3l-0.1-0.7
		c-0.4,0.5-1,0.8-1.7,0.8c-0.7,0-1.3-0.3-1.8-0.9S508.4,435.1,508.4,434.1z M509.8,434.2c0,0.6,0.1,1.1,0.4,1.5s0.6,0.5,1.1,0.5
		c0.6,0,1-0.3,1.3-0.8v-2.7c-0.3-0.5-0.7-0.8-1.3-0.8c-0.5,0-0.8,0.2-1.1,0.5S509.8,433.5,509.8,434.2z"/>
	<path class="st3" d="M519.2,437.3c-0.1-0.1-0.1-0.3-0.2-0.6c-0.5,0.5-1,0.7-1.7,0.7c-0.6,0-1.2-0.2-1.6-0.5s-0.6-0.8-0.6-1.3
		c0-0.7,0.3-1.2,0.8-1.6s1.2-0.5,2.2-0.5h0.9V433c0-0.3-0.1-0.6-0.3-0.8s-0.5-0.3-0.8-0.3c-0.3,0-0.6,0.1-0.8,0.2s-0.3,0.4-0.3,0.6
		h-1.4c0-0.3,0.1-0.7,0.3-1s0.5-0.5,0.9-0.7s0.8-0.3,1.3-0.3c0.7,0,1.3,0.2,1.8,0.6s0.7,0.9,0.7,1.6v2.9c0,0.6,0.1,1,0.2,1.4v0.1
		H519.2z M517.6,436.3c0.3,0,0.5-0.1,0.8-0.2s0.4-0.3,0.6-0.6v-1.2h-0.8c-0.5,0-0.9,0.1-1.2,0.3s-0.4,0.4-0.4,0.8
		c0,0.3,0.1,0.5,0.3,0.7S517.3,436.3,517.6,436.3z"/>
	<path class="st3" d="M525.5,435.6c0-0.3-0.1-0.4-0.3-0.6s-0.6-0.2-1-0.4s-0.9-0.2-1.2-0.4c-0.7-0.3-1.1-0.8-1.1-1.5
		c0-0.5,0.2-1,0.7-1.4s1-0.6,1.8-0.6c0.8,0,1.4,0.2,1.8,0.6s0.7,0.9,0.7,1.5h-1.4c0-0.3-0.1-0.5-0.3-0.7s-0.5-0.3-0.8-0.3
		c-0.3,0-0.6,0.1-0.8,0.2s-0.3,0.3-0.3,0.6c0,0.2,0.1,0.4,0.3,0.5s0.6,0.2,1.1,0.4s1,0.3,1.3,0.4s0.6,0.4,0.7,0.6s0.2,0.5,0.2,0.9
		c0,0.6-0.2,1-0.7,1.4s-1.1,0.5-1.9,0.5c-0.5,0-1-0.1-1.4-0.3s-0.7-0.4-0.9-0.8s-0.3-0.7-0.3-1.1h1.4c0,0.3,0.1,0.6,0.4,0.8
		s0.5,0.3,0.9,0.3c0.4,0,0.7-0.1,0.9-0.2S525.5,435.8,525.5,435.6z"/>
</g>
<g class="st0">
	<path class="st1" d="M389.6,541.4l2.5,6.5l2.5-6.5h1.9v8.5H395v-2.8l0.1-3.8l-2.5,6.6h-1.1l-2.5-6.6l0.1,3.8v2.8h-1.5v-8.5H389.6z"
		/>
	<path class="st1" d="M403.1,548h-3.3l-0.7,2h-1.5l3.2-8.5h1.3l3.2,8.5h-1.5L403.1,548z M403.6,539.3c0,0.4-0.1,0.8-0.4,1.1
		s-0.6,0.4-0.9,0.4c-0.2,0-0.3,0-0.4,0s-0.3-0.1-0.5-0.2s-0.3-0.2-0.4-0.2s-0.2,0-0.3,0c-0.1,0-0.3,0.1-0.4,0.2s-0.2,0.3-0.2,0.4
		l-0.9,0c0-0.4,0.1-0.8,0.4-1.1s0.6-0.4,0.9-0.4c0.2,0,0.5,0.1,0.8,0.3s0.6,0.3,0.8,0.3c0.1,0,0.3-0.1,0.4-0.2s0.2-0.3,0.2-0.4
		L403.6,539.3z M400.2,546.8h2.5l-1.2-3.5L400.2,546.8z"/>
	<path class="st1" d="M413,545.9c0,0.8-0.1,1.6-0.4,2.2s-0.7,1.1-1.2,1.5s-1.2,0.5-1.9,0.5c-0.7,0-1.3-0.2-1.8-0.5s-1-0.8-1.3-1.4
		s-0.4-1.3-0.4-2.2v-0.5c0-0.8,0.1-1.6,0.4-2.2s0.7-1.1,1.2-1.5s1.2-0.5,1.8-0.5s1.3,0.2,1.8,0.5s1,0.8,1.2,1.4s0.4,1.4,0.4,2.2
		V545.9z M411.5,545.5c0-0.9-0.2-1.7-0.5-2.2s-0.9-0.8-1.5-0.8c-0.6,0-1.1,0.3-1.5,0.8s-0.5,1.2-0.6,2.1v0.5c0,0.9,0.2,1.7,0.5,2.2
		s0.9,0.8,1.5,0.8c0.7,0,1.2-0.2,1.5-0.8s0.5-1.2,0.5-2.2V545.5z"/>
	<path class="st1" d="M417.4,550v-8.5h2.5c0.8,0,1.4,0.2,2,0.5s1,0.8,1.4,1.4s0.5,1.3,0.5,2.1v0.4c0,0.8-0.2,1.5-0.5,2.1
		s-0.8,1.1-1.4,1.4s-1.3,0.5-2,0.5H417.4z M418.9,542.6v6.2h1c0.8,0,1.4-0.2,1.8-0.7s0.6-1.2,0.6-2.1v-0.5c0-0.9-0.2-1.6-0.6-2.1
		s-1-0.7-1.8-0.7H418.9z"/>
	<path class="st1" d="M430.2,546.1h-3.5v2.6h4.1v1.2h-5.6v-8.5h5.5v1.2h-4.1v2.4h3.5V546.1z"/>
	<path class="st1" d="M441.8,545.9c0,0.8-0.1,1.6-0.4,2.2s-0.7,1.1-1.2,1.5s-1.2,0.5-1.9,0.5c-0.7,0-1.3-0.2-1.8-0.5s-1-0.8-1.3-1.4
		s-0.4-1.3-0.4-2.2v-0.5c0-0.8,0.1-1.6,0.4-2.2s0.7-1.1,1.2-1.5s1.2-0.5,1.8-0.5s1.3,0.2,1.8,0.5s1,0.8,1.2,1.4s0.4,1.4,0.4,2.2
		V545.9z M440.4,545.5c0-0.9-0.2-1.7-0.5-2.2s-0.9-0.8-1.5-0.8c-0.6,0-1.1,0.3-1.5,0.8s-0.5,1.2-0.6,2.1v0.5c0,0.9,0.2,1.7,0.5,2.2
		s0.9,0.8,1.5,0.8c0.7,0,1.2-0.2,1.5-0.8s0.5-1.2,0.5-2.2V545.5z"/>
	<path class="st1" d="M443.3,550v-8.5h2.9c1,0,1.7,0.2,2.2,0.6s0.8,1,0.8,1.7c0,0.4-0.1,0.7-0.3,1.1s-0.5,0.6-0.9,0.7
		c0.5,0.1,0.8,0.4,1.1,0.7s0.4,0.8,0.4,1.2c0,0.8-0.3,1.4-0.8,1.8s-1.2,0.6-2.2,0.6H443.3z M444.8,545h1.5c0.5,0,0.8-0.1,1.1-0.3
		s0.4-0.5,0.4-0.9c0-0.4-0.1-0.7-0.4-0.9s-0.6-0.3-1.1-0.3h-1.4V545z M444.8,546.1v2.7h1.6c0.5,0,0.8-0.1,1.1-0.3s0.4-0.6,0.4-1
		c0-0.9-0.5-1.3-1.4-1.4H444.8z"/>
	<path class="st1" d="M454,546.7h-1.7v3.3h-1.5v-8.5h3c1,0,1.7,0.2,2.3,0.7c0.5,0.4,0.8,1.1,0.8,1.9c0,0.6-0.1,1-0.4,1.4
		c-0.3,0.4-0.7,0.7-1.2,0.9l1.9,3.6v0.1h-1.6L454,546.7z M452.4,545.5h1.5c0.5,0,0.9-0.1,1.2-0.4s0.4-0.6,0.4-1
		c0-0.5-0.1-0.8-0.4-1.1s-0.6-0.4-1.2-0.4h-1.6V545.5z"/>
	<path class="st1" d="M463.2,548h-3.3l-0.7,2h-1.5l3.2-8.5h1.3l3.2,8.5h-1.5L463.2,548z M460.3,546.8h2.5l-1.2-3.5L460.3,546.8z"/>
	<path class="st1" d="M470.8,546.8v3.2h-1.5v-8.5h3.3c1,0,1.7,0.2,2.3,0.7c0.6,0.5,0.8,1.2,0.8,2c0,0.8-0.3,1.5-0.8,2
		c-0.5,0.5-1.3,0.7-2.3,0.7H470.8z M470.8,545.6h1.8c0.5,0,0.9-0.1,1.2-0.4s0.4-0.6,0.4-1.1c0-0.5-0.1-0.8-0.4-1.1s-0.7-0.4-1.2-0.4
		h-1.8V545.6z"/>
	<path class="st1" d="M480.2,546.7h-1.7v3.3H477v-8.5h3c1,0,1.7,0.2,2.3,0.7c0.5,0.4,0.8,1.1,0.8,1.9c0,0.6-0.1,1-0.4,1.4
		c-0.3,0.4-0.7,0.7-1.2,0.9l1.9,3.6v0.1h-1.6L480.2,546.7z M478.5,545.5h1.5c0.5,0,0.9-0.1,1.2-0.4s0.4-0.6,0.4-1
		c0-0.5-0.1-0.8-0.4-1.1s-0.6-0.4-1.2-0.4h-1.6V545.5z"/>
	<path class="st1" d="M486.1,550h-1.5v-8.5h1.5V550z"/>
	<path class="st1" d="M494.7,550h-1.5l-3.8-6.1v6.1h-1.5v-8.5h1.5l3.8,6.1v-6.1h1.5V550z"/>
	<path class="st1" d="M502.9,547.2c-0.1,0.9-0.4,1.6-1,2.1s-1.4,0.8-2.3,0.8c-0.7,0-1.3-0.2-1.8-0.5s-0.9-0.8-1.2-1.4
		s-0.4-1.3-0.4-2.1v-0.8c0-0.8,0.1-1.5,0.4-2.1s0.7-1.1,1.2-1.4s1.1-0.5,1.8-0.5c0.9,0,1.7,0.3,2.3,0.8s0.9,1.2,1,2.2h-1.5
		c-0.1-0.6-0.2-1.1-0.5-1.3s-0.7-0.4-1.3-0.4c-0.6,0-1.1,0.2-1.5,0.7c-0.3,0.5-0.5,1.2-0.5,2.1v0.8c0,0.9,0.2,1.6,0.5,2.1
		c0.3,0.5,0.8,0.7,1.5,0.7c0.6,0,1-0.1,1.3-0.4s0.5-0.7,0.6-1.3H502.9z"/>
	<path class="st1" d="M505.8,550h-1.5v-8.5h1.5V550z"/>
	<path class="st1" d="M509.1,546.8v3.2h-1.5v-8.5h3.3c1,0,1.7,0.2,2.3,0.7c0.6,0.5,0.8,1.2,0.8,2c0,0.8-0.3,1.5-0.8,2
		c-0.5,0.5-1.3,0.7-2.3,0.7H509.1z M509.1,545.6h1.8c0.5,0,0.9-0.1,1.2-0.4s0.4-0.6,0.4-1.1c0-0.5-0.1-0.8-0.4-1.1s-0.7-0.4-1.2-0.4
		h-1.8V545.6z"/>
	<path class="st1" d="M519,548h-3.3l-0.7,2h-1.5l3.2-8.5h1.3l3.2,8.5h-1.5L519,548z M516.2,546.8h2.5l-1.2-3.5L516.2,546.8z"/>
	<path class="st1" d="M523.7,548.8h3.9v1.2h-5.4v-8.5h1.5V548.8z"/>
</g>
<line class="st2" x1="424.5" y1="524.6" x2="492.7" y2="524.6"/>
<g class="st0">
	<path class="st3" d="M395.9,568c-0.1,0.9-0.4,1.6-1,2.1s-1.4,0.8-2.3,0.8c-0.7,0-1.3-0.2-1.8-0.5s-0.9-0.8-1.2-1.4
		s-0.4-1.3-0.4-2.1v-0.8c0-0.8,0.1-1.5,0.4-2.1s0.7-1.1,1.2-1.4s1.1-0.5,1.8-0.5c0.9,0,1.7,0.3,2.3,0.8s0.9,1.2,1,2.2h-1.5
		c-0.1-0.6-0.2-1.1-0.5-1.3s-0.7-0.4-1.3-0.4c-0.6,0-1.1,0.2-1.5,0.7c-0.3,0.5-0.5,1.2-0.5,2.1v0.8c0,0.9,0.2,1.6,0.5,2.1
		c0.3,0.5,0.8,0.7,1.5,0.7c0.6,0,1-0.1,1.3-0.4s0.5-0.7,0.6-1.3H395.9z"/>
	<path class="st3" d="M396.9,567.5c0-0.6,0.1-1.2,0.4-1.7s0.6-0.9,1-1.1s1-0.4,1.5-0.4c0.9,0,1.5,0.3,2.1,0.8s0.8,1.3,0.9,2.2l0,0.3
		c0,0.6-0.1,1.2-0.4,1.7s-0.6,0.9-1,1.1s-1,0.4-1.5,0.4c-0.9,0-1.6-0.3-2.1-0.9S396.9,568.6,396.9,567.5L396.9,567.5z M398.3,567.7
		c0,0.7,0.1,1.2,0.4,1.5s0.6,0.6,1.1,0.6s0.9-0.2,1.1-0.6s0.4-0.9,0.4-1.6c0-0.6-0.1-1.1-0.4-1.5s-0.6-0.6-1.1-0.6
		c-0.5,0-0.8,0.2-1.1,0.6S398.3,566.9,398.3,567.7z"/>
	<path class="st3" d="M405.3,564.4l0,0.7c0.4-0.5,1.1-0.8,1.8-0.8c0.8,0,1.4,0.3,1.7,1c0.5-0.6,1.1-1,1.9-1c0.7,0,1.2,0.2,1.6,0.6
		s0.5,1,0.5,1.7v4.2h-1.4v-4.1c0-0.4-0.1-0.7-0.3-0.9s-0.5-0.3-0.9-0.3c-0.3,0-0.6,0.1-0.8,0.3s-0.3,0.4-0.4,0.7l0,4.3h-1.4v-4.2
		c0-0.7-0.4-1.1-1.1-1.1c-0.6,0-1,0.2-1.2,0.7v4.6H404v-6.3H405.3z"/>
	<path class="st3" d="M418.2,570.1c-0.4,0.5-1,0.7-1.8,0.7c-0.7,0-1.2-0.2-1.6-0.6s-0.5-1-0.5-1.7v-4.1h1.4v4.1c0,0.8,0.3,1.2,1,1.2
		c0.7,0,1.2-0.2,1.4-0.7v-4.6h1.4v6.3h-1.3L418.2,570.1z"/>
	<path class="st3" d="M422.4,564.4l0,0.7c0.5-0.6,1.1-0.8,1.8-0.8c1.3,0,2,0.8,2,2.3v4.2h-1.4v-4.1c0-0.4-0.1-0.7-0.3-0.9
		s-0.5-0.3-0.9-0.3c-0.6,0-1,0.3-1.3,0.8v4.5H421v-6.3H422.4z"/>
	<path class="st3" d="M427.7,562.8c0-0.2,0.1-0.4,0.2-0.5s0.3-0.2,0.6-0.2s0.5,0.1,0.6,0.2s0.2,0.3,0.2,0.5c0,0.2-0.1,0.4-0.2,0.5
		s-0.3,0.2-0.6,0.2s-0.5-0.1-0.6-0.2S427.7,563,427.7,562.8z M429.3,570.8h-1.4v-6.3h1.4V570.8z"/>
	<path class="st3" d="M432.6,562.9v1.5h1.1v1.1h-1.1v3.5c0,0.2,0,0.4,0.1,0.5s0.3,0.2,0.5,0.2c0.2,0,0.3,0,0.5-0.1v1.1
		c-0.3,0.1-0.6,0.1-0.9,0.1c-1.1,0-1.6-0.6-1.6-1.8v-3.6h-1v-1.1h1v-1.5H432.6z"/>
	<path class="st3" d="M438.6,570.8c-0.1-0.1-0.1-0.3-0.2-0.6c-0.5,0.5-1,0.7-1.7,0.7c-0.6,0-1.2-0.2-1.6-0.5s-0.6-0.8-0.6-1.3
		c0-0.7,0.3-1.2,0.8-1.6s1.2-0.5,2.2-0.5h0.9v-0.4c0-0.3-0.1-0.6-0.3-0.8s-0.5-0.3-0.8-0.3c-0.3,0-0.6,0.1-0.8,0.2s-0.3,0.4-0.3,0.6
		h-1.4c0-0.3,0.1-0.7,0.3-1s0.5-0.5,0.9-0.7s0.8-0.3,1.3-0.3c0.7,0,1.3,0.2,1.8,0.6s0.7,0.9,0.7,1.6v2.9c0,0.6,0.1,1,0.2,1.4v0.1
		H438.6z M437,569.7c0.3,0,0.5-0.1,0.8-0.2s0.4-0.3,0.6-0.6v-1.2h-0.8c-0.5,0-0.9,0.1-1.2,0.3s-0.4,0.4-0.4,0.8
		c0,0.3,0.1,0.5,0.3,0.7S436.7,569.7,437,569.7z M437.8,561.8h1.6l-1.6,1.8l-1.1,0L437.8,561.8z"/>
	<path class="st3" d="M444.6,565.7c-0.2,0-0.4,0-0.6,0c-0.7,0-1.1,0.2-1.3,0.8v4.3h-1.4v-6.3h1.4l0,0.7c0.3-0.6,0.8-0.8,1.4-0.8
		c0.2,0,0.4,0,0.5,0.1L444.6,565.7z"/>
	<path class="st3" d="M445.5,562.8c0-0.2,0.1-0.4,0.2-0.5s0.3-0.2,0.6-0.2s0.5,0.1,0.6,0.2s0.2,0.3,0.2,0.5c0,0.2-0.1,0.4-0.2,0.5
		s-0.3,0.2-0.6,0.2s-0.5-0.1-0.6-0.2S445.5,563,445.5,562.8z M447,570.8h-1.4v-6.3h1.4V570.8z"/>
	<path class="st3" d="M452.4,570.8c-0.1-0.1-0.1-0.3-0.2-0.6c-0.5,0.5-1,0.7-1.7,0.7c-0.6,0-1.2-0.2-1.6-0.5s-0.6-0.8-0.6-1.3
		c0-0.7,0.3-1.2,0.8-1.6s1.2-0.5,2.2-0.5h0.9v-0.4c0-0.3-0.1-0.6-0.3-0.8s-0.5-0.3-0.8-0.3c-0.3,0-0.6,0.1-0.8,0.2s-0.3,0.4-0.3,0.6
		h-1.4c0-0.3,0.1-0.7,0.3-1s0.5-0.5,0.9-0.7s0.8-0.3,1.3-0.3c0.7,0,1.3,0.2,1.8,0.6s0.7,0.9,0.7,1.6v2.9c0,0.6,0.1,1,0.2,1.4v0.1
		H452.4z M450.8,569.7c0.3,0,0.5-0.1,0.8-0.2s0.4-0.3,0.6-0.6v-1.2h-0.8c-0.5,0-0.9,0.1-1.2,0.3s-0.4,0.4-0.4,0.8
		c0,0.3,0.1,0.5,0.3,0.7S450.5,569.7,450.8,569.7z"/>
	<path class="st3" d="M455.3,572.7l-0.8-0.5c0.2-0.4,0.4-0.7,0.5-0.9s0.1-0.5,0.1-0.8v-1.1h1.3l0,1c0,0.4-0.1,0.8-0.3,1.2
		S455.6,572.4,455.3,572.7z"/>
	<path class="st3" d="M460.7,562.8c0-0.2,0.1-0.4,0.2-0.5s0.3-0.2,0.6-0.2s0.5,0.1,0.6,0.2s0.2,0.3,0.2,0.5c0,0.2-0.1,0.4-0.2,0.5
		s-0.3,0.2-0.6,0.2s-0.5-0.1-0.6-0.2S460.7,563,460.7,562.8z M462.2,570.8h-1.4v-6.3h1.4V570.8z"/>
	<path class="st3" d="M465.1,564.4l0,0.7c0.5-0.6,1.1-0.8,1.8-0.8c1.3,0,2,0.8,2,2.3v4.2h-1.4v-4.1c0-0.4-0.1-0.7-0.3-0.9
		s-0.5-0.3-0.9-0.3c-0.6,0-1,0.3-1.3,0.8v4.5h-1.4v-6.3H465.1z"/>
	<path class="st3" d="M474,569c0-0.3-0.1-0.4-0.3-0.6s-0.6-0.2-1-0.4s-0.9-0.2-1.2-0.4c-0.7-0.3-1.1-0.8-1.1-1.5
		c0-0.5,0.2-1,0.7-1.4s1-0.6,1.8-0.6c0.8,0,1.4,0.2,1.8,0.6s0.7,0.9,0.7,1.5h-1.4c0-0.3-0.1-0.5-0.3-0.7s-0.5-0.3-0.8-0.3
		c-0.3,0-0.6,0.1-0.8,0.2s-0.3,0.3-0.3,0.6c0,0.2,0.1,0.4,0.3,0.5s0.6,0.2,1.1,0.4s1,0.3,1.3,0.4s0.6,0.4,0.7,0.6s0.2,0.5,0.2,0.9
		c0,0.6-0.2,1-0.7,1.4s-1.1,0.5-1.9,0.5c-0.5,0-1-0.1-1.4-0.3s-0.7-0.4-0.9-0.8s-0.3-0.7-0.3-1.1h1.4c0,0.3,0.1,0.6,0.4,0.8
		s0.5,0.3,0.9,0.3c0.4,0,0.7-0.1,0.9-0.2S474,569.3,474,569z"/>
	<path class="st3" d="M478.4,562.9v1.5h1.1v1.1h-1.1v3.5c0,0.2,0,0.4,0.1,0.5s0.3,0.2,0.5,0.2c0.2,0,0.3,0,0.5-0.1v1.1
		c-0.3,0.1-0.6,0.1-0.9,0.1c-1.1,0-1.6-0.6-1.6-1.8v-3.6h-1v-1.1h1v-1.5H478.4z"/>
	<path class="st3" d="M480.6,562.8c0-0.2,0.1-0.4,0.2-0.5s0.3-0.2,0.6-0.2s0.5,0.1,0.6,0.2s0.2,0.3,0.2,0.5c0,0.2-0.1,0.4-0.2,0.5
		s-0.3,0.2-0.6,0.2s-0.5-0.1-0.6-0.2S480.6,563,480.6,562.8z M482.1,570.8h-1.4v-6.3h1.4V570.8z"/>
	<path class="st3" d="M485.5,562.9v1.5h1.1v1.1h-1.1v3.5c0,0.2,0,0.4,0.1,0.5s0.3,0.2,0.5,0.2c0.2,0,0.3,0,0.5-0.1v1.1
		c-0.3,0.1-0.6,0.1-0.9,0.1c-1.1,0-1.6-0.6-1.6-1.8v-3.6h-1v-1.1h1v-1.5H485.5z"/>
	<path class="st3" d="M491.5,570.1c-0.4,0.5-1,0.7-1.8,0.7c-0.7,0-1.2-0.2-1.6-0.6s-0.5-1-0.5-1.7v-4.1h1.4v4.1c0,0.8,0.3,1.2,1,1.2
		c0.7,0,1.2-0.2,1.4-0.7v-4.6h1.4v6.3h-1.3L491.5,570.1z"/>
	<path class="st3" d="M496.9,569.7c0.4,0,0.7-0.1,0.9-0.3s0.4-0.5,0.4-0.8h1.3c0,0.4-0.1,0.8-0.4,1.1s-0.5,0.6-0.9,0.8
		s-0.8,0.3-1.3,0.3c-0.9,0-1.6-0.3-2.1-0.9s-0.8-1.4-0.8-2.4v-0.1c0-1,0.3-1.7,0.8-2.3s1.2-0.9,2.1-0.9c0.8,0,1.4,0.2,1.8,0.7
		s0.7,1,0.7,1.7h-1.3c0-0.4-0.1-0.7-0.4-0.9s-0.5-0.4-0.9-0.4c-0.5,0-0.8,0.2-1.1,0.5s-0.4,0.8-0.4,1.5v0.2c0,0.7,0.1,1.2,0.4,1.5
		S496.5,569.7,496.9,569.7z"/>
	<path class="st3" d="M500.6,562.8c0-0.2,0.1-0.4,0.2-0.5s0.3-0.2,0.6-0.2s0.5,0.1,0.6,0.2s0.2,0.3,0.2,0.5c0,0.2-0.1,0.4-0.2,0.5
		s-0.3,0.2-0.6,0.2s-0.5-0.1-0.6-0.2S500.6,563,500.6,562.8z M502.1,570.8h-1.4v-6.3h1.4V570.8z"/>
	<path class="st3" d="M503.4,567.5c0-0.6,0.1-1.2,0.4-1.7s0.6-0.9,1-1.1s1-0.4,1.5-0.4c0.9,0,1.5,0.3,2.1,0.8s0.8,1.3,0.9,2.2l0,0.3
		c0,0.6-0.1,1.2-0.4,1.7s-0.6,0.9-1,1.1s-1,0.4-1.5,0.4c-0.9,0-1.6-0.3-2.1-0.9S503.4,568.6,503.4,567.5L503.4,567.5z M504.8,567.7
		c0,0.7,0.1,1.2,0.4,1.5s0.6,0.6,1.1,0.6s0.9-0.2,1.1-0.6s0.4-0.9,0.4-1.6c0-0.6-0.1-1.1-0.4-1.5s-0.6-0.6-1.1-0.6
		c-0.5,0-0.8,0.2-1.1,0.6S504.8,566.9,504.8,567.7z"/>
	<path class="st3" d="M511.8,564.4l0,0.7c0.5-0.6,1.1-0.8,1.8-0.8c1.3,0,2,0.8,2,2.3v4.2h-1.4v-4.1c0-0.4-0.1-0.7-0.3-0.9
		s-0.5-0.3-0.9-0.3c-0.6,0-1,0.3-1.3,0.8v4.5h-1.4v-6.3H511.8z"/>
	<path class="st3" d="M521,570.8c-0.1-0.1-0.1-0.3-0.2-0.6c-0.5,0.5-1,0.7-1.7,0.7c-0.6,0-1.2-0.2-1.6-0.5s-0.6-0.8-0.6-1.3
		c0-0.7,0.3-1.2,0.8-1.6s1.2-0.5,2.2-0.5h0.9v-0.4c0-0.3-0.1-0.6-0.3-0.8s-0.5-0.3-0.8-0.3c-0.3,0-0.6,0.1-0.8,0.2s-0.3,0.4-0.3,0.6
		h-1.4c0-0.3,0.1-0.7,0.3-1s0.5-0.5,0.9-0.7s0.8-0.3,1.3-0.3c0.7,0,1.3,0.2,1.8,0.6s0.7,0.9,0.7,1.6v2.9c0,0.6,0.1,1,0.2,1.4v0.1
		H521z M519.4,569.7c0.3,0,0.5-0.1,0.8-0.2s0.4-0.3,0.6-0.6v-1.2H520c-0.5,0-0.9,0.1-1.2,0.3s-0.4,0.4-0.4,0.8
		c0,0.3,0.1,0.5,0.3,0.7S519.1,569.7,519.4,569.7z"/>
	<path class="st3" d="M525.2,570.8h-1.4v-9h1.4V570.8z"/>
	<path class="st3" d="M526.9,572.7l-0.8-0.5c0.2-0.4,0.4-0.7,0.5-0.9s0.1-0.5,0.1-0.8v-1.1h1.3l0,1c0,0.4-0.1,0.8-0.3,1.2
		S527.3,572.4,526.9,572.7z"/>
</g>
<g class="st0">
	<path class="st3" d="M399.9,589c0.4,0,0.7-0.1,0.9-0.3s0.4-0.5,0.4-0.8h1.3c0,0.4-0.1,0.8-0.4,1.1s-0.5,0.6-0.9,0.8
		s-0.8,0.3-1.3,0.3c-0.9,0-1.6-0.3-2.1-0.9s-0.8-1.4-0.8-2.4v-0.1c0-1,0.3-1.7,0.8-2.3s1.2-0.9,2.1-0.9c0.8,0,1.4,0.2,1.8,0.7
		s0.7,1,0.7,1.7h-1.3c0-0.4-0.1-0.7-0.4-0.9s-0.5-0.4-0.9-0.4c-0.5,0-0.8,0.2-1.1,0.5s-0.4,0.8-0.4,1.5v0.2c0,0.7,0.1,1.2,0.4,1.5
		S399.4,589,399.9,589z"/>
	<path class="st3" d="M403.3,586.8c0-0.6,0.1-1.2,0.4-1.7s0.6-0.9,1-1.1s1-0.4,1.5-0.4c0.9,0,1.5,0.3,2.1,0.8s0.8,1.3,0.9,2.2l0,0.3
		c0,0.6-0.1,1.2-0.4,1.7s-0.6,0.9-1,1.1s-1,0.4-1.5,0.4c-0.9,0-1.6-0.3-2.1-0.9S403.3,587.8,403.3,586.8L403.3,586.8z M404.7,586.9
		c0,0.7,0.1,1.2,0.4,1.5s0.6,0.6,1.1,0.6s0.9-0.2,1.1-0.6s0.4-0.9,0.4-1.6c0-0.6-0.1-1.1-0.4-1.5s-0.6-0.6-1.1-0.6
		c-0.5,0-0.8,0.2-1.1,0.6S404.7,586.2,404.7,586.9z"/>
	<path class="st3" d="M411.7,583.7l0,0.7c0.5-0.6,1.1-0.8,1.8-0.8c1.3,0,2,0.8,2,2.3v4.2h-1.4v-4.1c0-0.4-0.1-0.7-0.3-0.9
		s-0.5-0.3-0.9-0.3c-0.6,0-1,0.3-1.3,0.8v4.5h-1.4v-6.3H411.7z"/>
	<path class="st3" d="M418.9,582.1v1.5h1.1v1.1h-1.1v3.5c0,0.2,0,0.4,0.1,0.5s0.3,0.2,0.5,0.2c0.2,0,0.3,0,0.5-0.1v1.1
		c-0.3,0.1-0.6,0.1-0.9,0.1c-1.1,0-1.6-0.6-1.6-1.8v-3.6h-1v-1.1h1v-1.5H418.9z"/>
	<path class="st3" d="M424.4,585c-0.2,0-0.4,0-0.6,0c-0.7,0-1.1,0.2-1.3,0.8v4.3h-1.4v-6.3h1.4l0,0.7c0.3-0.6,0.8-0.8,1.4-0.8
		c0.2,0,0.4,0,0.5,0.1L424.4,585z"/>
	<path class="st3" d="M428.9,590c-0.1-0.1-0.1-0.3-0.2-0.6c-0.5,0.5-1,0.7-1.7,0.7c-0.6,0-1.2-0.2-1.6-0.5s-0.6-0.8-0.6-1.3
		c0-0.7,0.2-1.2,0.8-1.6s1.2-0.5,2.2-0.5h0.9v-0.4c0-0.3-0.1-0.6-0.3-0.8s-0.5-0.3-0.8-0.3c-0.3,0-0.6,0.1-0.8,0.2s-0.3,0.4-0.3,0.6
		H425c0-0.3,0.1-0.7,0.3-1s0.5-0.5,0.9-0.7s0.8-0.3,1.3-0.3c0.7,0,1.3,0.2,1.8,0.6s0.7,0.9,0.7,1.6v2.9c0,0.6,0.1,1,0.2,1.4v0.1
		H428.9z M427.3,589c0.3,0,0.5-0.1,0.8-0.2s0.4-0.3,0.6-0.6V587h-0.8c-0.5,0-0.9,0.1-1.2,0.3s-0.4,0.4-0.4,0.8
		c0,0.3,0.1,0.5,0.3,0.7S427,589,427.3,589z"/>
	<path class="st3" d="M433.4,582.1v1.5h1.1v1.1h-1.1v3.5c0,0.2,0,0.4,0.1,0.5s0.3,0.2,0.5,0.2c0.2,0,0.3,0,0.5-0.1v1.1
		c-0.3,0.1-0.6,0.1-0.9,0.1c-1.1,0-1.6-0.6-1.6-1.8v-3.6h-1v-1.1h1v-1.5H433.4z"/>
	<path class="st3" d="M439.4,590c-0.1-0.1-0.1-0.3-0.2-0.6c-0.5,0.5-1,0.7-1.7,0.7c-0.6,0-1.2-0.2-1.6-0.5s-0.6-0.8-0.6-1.3
		c0-0.7,0.2-1.2,0.8-1.6s1.2-0.5,2.2-0.5h0.9v-0.4c0-0.3-0.1-0.6-0.3-0.8s-0.5-0.3-0.8-0.3c-0.3,0-0.6,0.1-0.8,0.2s-0.3,0.4-0.3,0.6
		h-1.4c0-0.3,0.1-0.7,0.3-1s0.5-0.5,0.9-0.7s0.8-0.3,1.3-0.3c0.7,0,1.3,0.2,1.8,0.6s0.7,0.9,0.7,1.6v2.9c0,0.6,0.1,1,0.2,1.4v0.1
		H439.4z M437.8,589c0.3,0,0.5-0.1,0.8-0.2s0.4-0.3,0.6-0.6V587h-0.8c-0.5,0-0.9,0.1-1.2,0.3s-0.4,0.4-0.4,0.8
		c0,0.3,0.1,0.5,0.3,0.7S437.5,589,437.8,589z"/>
	<path class="st3" d="M441.8,586.8c0-1,0.2-1.8,0.7-2.4s1.1-0.9,1.8-0.9c0.7,0,1.2,0.2,1.6,0.7V581h1.4v9h-1.3l-0.1-0.7
		c-0.4,0.5-1,0.8-1.7,0.8c-0.7,0-1.3-0.3-1.8-0.9S441.8,587.8,441.8,586.8z M443.2,586.9c0,0.6,0.1,1.1,0.4,1.5s0.6,0.5,1.1,0.5
		c0.6,0,1-0.3,1.3-0.8v-2.7c-0.3-0.5-0.7-0.8-1.3-0.8c-0.5,0-0.8,0.2-1.1,0.5S443.2,586.2,443.2,586.9z"/>
	<path class="st3" d="M452.6,590c-0.1-0.1-0.1-0.3-0.2-0.6c-0.5,0.5-1,0.7-1.7,0.7c-0.6,0-1.2-0.2-1.6-0.5s-0.6-0.8-0.6-1.3
		c0-0.7,0.2-1.2,0.8-1.6s1.2-0.5,2.2-0.5h0.9v-0.4c0-0.3-0.1-0.6-0.3-0.8s-0.5-0.3-0.8-0.3c-0.3,0-0.6,0.1-0.8,0.2s-0.3,0.4-0.3,0.6
		h-1.4c0-0.3,0.1-0.7,0.3-1s0.5-0.5,0.9-0.7s0.8-0.3,1.3-0.3c0.7,0,1.3,0.2,1.8,0.6s0.7,0.9,0.7,1.6v2.9c0,0.6,0.1,1,0.2,1.4v0.1
		H452.6z M451.1,589c0.3,0,0.5-0.1,0.8-0.2s0.4-0.3,0.6-0.6V587h-0.8c-0.5,0-0.9,0.1-1.2,0.3s-0.4,0.4-0.4,0.8
		c0,0.3,0.1,0.5,0.3,0.7S450.8,589,451.1,589z"/>
	<path class="st3" d="M461.1,590.1c-0.9,0-1.6-0.3-2.2-0.9s-0.8-1.3-0.8-2.3v-0.2c0-0.6,0.1-1.2,0.4-1.7s0.6-0.9,1-1.2
		s0.9-0.4,1.5-0.4c0.9,0,1.5,0.3,2,0.8s0.7,1.3,0.7,2.3v0.6h-4.1c0,0.5,0.2,0.9,0.5,1.2s0.7,0.5,1.2,0.5c0.7,0,1.2-0.3,1.6-0.8
		l0.8,0.7c-0.3,0.4-0.6,0.7-1,0.9S461.7,590.1,461.1,590.1z M461,584.7c-0.4,0-0.7,0.1-0.9,0.4s-0.4,0.7-0.5,1.1h2.7v-0.1
		c0-0.5-0.2-0.8-0.4-1.1S461.4,584.7,461,584.7z"/>
	<path class="st3" d="M470,588.2l1.3-4.5h1.5l-2.2,6.3h-1.2l-2.2-6.3h1.5L470,588.2z"/>
	<path class="st3" d="M473.3,586.8c0-0.6,0.1-1.2,0.4-1.7s0.6-0.9,1-1.1s1-0.4,1.5-0.4c0.9,0,1.5,0.3,2.1,0.8s0.8,1.3,0.9,2.2l0,0.3
		c0,0.6-0.1,1.2-0.4,1.7s-0.6,0.9-1,1.1s-1,0.4-1.5,0.4c-0.9,0-1.6-0.3-2.1-0.9S473.3,587.8,473.3,586.8L473.3,586.8z M474.8,586.9
		c0,0.7,0.1,1.2,0.4,1.5s0.6,0.6,1.1,0.6s0.9-0.2,1.1-0.6s0.4-0.9,0.4-1.6c0-0.6-0.1-1.1-0.4-1.5s-0.6-0.6-1.1-0.6
		c-0.5,0-0.8,0.2-1.1,0.6S474.8,586.2,474.8,586.9z"/>
	<path class="st3" d="M482,590h-1.4v-9h1.4V590z"/>
	<path class="st3" d="M487.4,589.4c-0.4,0.5-1,0.7-1.8,0.7c-0.7,0-1.2-0.2-1.6-0.6s-0.5-1-0.5-1.7v-4.1h1.4v4.1c0,0.8,0.3,1.2,1,1.2
		c0.7,0,1.2-0.2,1.4-0.7v-4.6h1.4v6.3h-1.3L487.4,589.4z"/>
	<path class="st3" d="M491.5,583.7l0,0.7c0.5-0.6,1.1-0.8,1.8-0.8c1.3,0,2,0.8,2,2.3v4.2H494v-4.1c0-0.4-0.1-0.7-0.3-0.9
		s-0.5-0.3-0.9-0.3c-0.6,0-1,0.3-1.3,0.8v4.5h-1.4v-6.3H491.5z"/>
	<path class="st3" d="M498.6,582.1v1.5h1.1v1.1h-1.1v3.5c0,0.2,0,0.4,0.1,0.5s0.3,0.2,0.5,0.2c0.2,0,0.3,0,0.5-0.1v1.1
		c-0.3,0.1-0.6,0.1-0.9,0.1c-1.1,0-1.6-0.6-1.6-1.8v-3.6h-1v-1.1h1v-1.5H498.6z"/>
	<path class="st3" d="M504.6,590c-0.1-0.1-0.1-0.3-0.2-0.6c-0.5,0.5-1,0.7-1.7,0.7c-0.6,0-1.2-0.2-1.6-0.5s-0.6-0.8-0.6-1.3
		c0-0.7,0.2-1.2,0.8-1.6s1.2-0.5,2.2-0.5h0.9v-0.4c0-0.3-0.1-0.6-0.3-0.8s-0.5-0.3-0.8-0.3c-0.3,0-0.6,0.1-0.8,0.2s-0.3,0.4-0.3,0.6
		h-1.4c0-0.3,0.1-0.7,0.3-1s0.5-0.5,0.9-0.7s0.8-0.3,1.3-0.3c0.7,0,1.3,0.2,1.8,0.6s0.7,0.9,0.7,1.6v2.9c0,0.6,0.1,1,0.2,1.4v0.1
		H504.6z M503.1,589c0.3,0,0.5-0.1,0.8-0.2s0.4-0.3,0.6-0.6V587h-0.8c-0.5,0-0.9,0.1-1.2,0.3s-0.4,0.4-0.4,0.8
		c0,0.3,0.1,0.5,0.3,0.7S502.8,589,503.1,589z M503.9,581h1.6l-1.6,1.8l-1.1,0L503.9,581z"/>
	<path class="st3" d="M510.7,585c-0.2,0-0.4,0-0.6,0c-0.7,0-1.1,0.2-1.3,0.8v4.3h-1.4v-6.3h1.4l0,0.7c0.3-0.6,0.8-0.8,1.4-0.8
		c0.2,0,0.4,0,0.5,0.1L510.7,585z"/>
	<path class="st3" d="M511.6,582c0-0.2,0.1-0.4,0.2-0.5s0.3-0.2,0.6-0.2s0.5,0.1,0.6,0.2s0.2,0.3,0.2,0.5c0,0.2-0.1,0.4-0.2,0.5
		s-0.3,0.2-0.6,0.2s-0.5-0.1-0.6-0.2S511.6,582.2,511.6,582z M513.1,590h-1.4v-6.3h1.4V590z"/>
	<path class="st3" d="M518.4,590c-0.1-0.1-0.1-0.3-0.2-0.6c-0.5,0.5-1,0.7-1.7,0.7c-0.6,0-1.2-0.2-1.6-0.5s-0.6-0.8-0.6-1.3
		c0-0.7,0.2-1.2,0.8-1.6s1.2-0.5,2.2-0.5h0.9v-0.4c0-0.3-0.1-0.6-0.3-0.8s-0.5-0.3-0.8-0.3c-0.3,0-0.6,0.1-0.8,0.2s-0.3,0.4-0.3,0.6
		h-1.4c0-0.3,0.1-0.7,0.3-1s0.5-0.5,0.9-0.7s0.8-0.3,1.3-0.3c0.7,0,1.3,0.2,1.8,0.6s0.7,0.9,0.7,1.6v2.9c0,0.6,0.1,1,0.2,1.4v0.1
		H518.4z M516.8,589c0.3,0,0.5-0.1,0.8-0.2s0.4-0.3,0.6-0.6V587h-0.8c-0.5,0-0.9,0.1-1.2,0.3s-0.4,0.4-0.4,0.8
		c0,0.3,0.1,0.5,0.3,0.7S516.5,589,516.8,589z"/>
</g>
</svg>
