<?xml version="1.0" encoding="utf-8"?>
<!-- Generator: Adobe Illustrator 24.3.0, SVG Export Plug-In . SVG Version: 6.00 Build 0)  -->
<svg version="1.1" id="Layer_1" xmlns="http://www.w3.org/2000/svg" xmlns:xlink="http://www.w3.org/1999/xlink" x="0px" y="0px"
	 viewBox="0 0 195.9 183.8" style="enable-background:new 0 0 195.9 183.8;" xml:space="preserve">
<style type="text/css">
	.st0{fill:#231F20;}
	.st1{fill:none;stroke:#231F20;}
	.st2{fill:none;stroke:#231F20;stroke-width:0.3;}
</style>
<g>
	<path class="st0" d="M3.3,5.5H2v2.7H0.7V1.1h2.5c0.8,0,1.5,0.2,1.9,0.6c0.4,0.4,0.7,0.9,0.7,1.6c0,0.5-0.1,0.9-0.3,1.2
		c-0.2,0.3-0.5,0.6-1,0.7l1.6,3v0.1H4.8L3.3,5.5z M2,4.5h1.3c0.4,0,0.7-0.1,1-0.3C4.4,4,4.6,3.7,4.6,3.3c0-0.4-0.1-0.7-0.3-0.9
		C4,2.3,3.7,2.2,3.3,2.1H2V4.5z"/>
	<path class="st0" d="M9.2,8.4c-0.8,0-1.4-0.2-1.8-0.7C6.9,7.2,6.6,6.5,6.6,5.8V5.6c0-0.5,0.1-1,0.3-1.4c0.2-0.4,0.5-0.7,0.9-1
		C8.2,3,8.6,2.9,9,2.9c0.7,0,1.3,0.2,1.7,0.7c0.4,0.5,0.6,1.1,0.6,1.9V6H7.8c0,0.4,0.2,0.8,0.4,1c0.3,0.3,0.6,0.4,1,0.4
		c0.5,0,1-0.2,1.3-0.7l0.6,0.6c-0.2,0.3-0.5,0.6-0.8,0.7C10,8.3,9.6,8.4,9.2,8.4z M9,3.8c-0.3,0-0.6,0.1-0.8,0.3s-0.3,0.5-0.4,1h2.3
		V5c0-0.4-0.1-0.7-0.3-0.9C9.6,3.9,9.4,3.8,9,3.8z"/>
	<path class="st0" d="M15.2,6.8c0-0.2-0.1-0.4-0.3-0.5C14.7,6.2,14.5,6.1,14,6c-0.4-0.1-0.7-0.2-1-0.3c-0.6-0.3-0.9-0.7-0.9-1.2
		c0-0.5,0.2-0.8,0.6-1.1c0.4-0.3,0.9-0.5,1.5-0.5c0.6,0,1.1,0.2,1.5,0.5c0.4,0.3,0.6,0.7,0.6,1.2h-1.2c0-0.2-0.1-0.4-0.3-0.6
		c-0.2-0.2-0.4-0.2-0.7-0.2c-0.3,0-0.5,0.1-0.6,0.2c-0.2,0.1-0.2,0.3-0.2,0.5c0,0.2,0.1,0.3,0.2,0.4C13.7,5,14,5.1,14.5,5.2
		c0.5,0.1,0.8,0.2,1.1,0.4C15.8,5.7,16,5.8,16.2,6c0.1,0.2,0.2,0.4,0.2,0.7c0,0.5-0.2,0.9-0.6,1.2c-0.4,0.3-0.9,0.4-1.5,0.4
		c-0.4,0-0.8-0.1-1.2-0.2c-0.3-0.2-0.6-0.4-0.8-0.6C12.1,7.2,12,6.9,12,6.6h1.2c0,0.3,0.1,0.5,0.3,0.6c0.2,0.2,0.5,0.2,0.8,0.2
		c0.3,0,0.6-0.1,0.7-0.2C15.1,7.2,15.2,7,15.2,6.8z"/>
	<path class="st0" d="M20.6,7.7c-0.3,0.4-0.8,0.6-1.5,0.6c-0.6,0-1-0.2-1.3-0.5c-0.3-0.3-0.4-0.8-0.4-1.5V3h1.2v3.4
		c0,0.7,0.3,1,0.8,1c0.6,0,1-0.2,1.2-0.6V3h1.2v5.3h-1.1L20.6,7.7z"/>
	<path class="st0" d="M24.2,8.3H23V0.8h1.2V8.3z"/>
	<path class="st0" d="M27,1.7V3h0.9v0.9H27v2.9c0,0.2,0,0.3,0.1,0.4c0.1,0.1,0.2,0.1,0.4,0.1c0.1,0,0.3,0,0.4,0v0.9
		c-0.3,0.1-0.5,0.1-0.8,0.1c-0.9,0-1.4-0.5-1.4-1.5v-3h-0.9V3h0.9V1.7H27z"/>
	<path class="st0" d="M32,8.3c-0.1-0.1-0.1-0.3-0.1-0.5c-0.4,0.4-0.8,0.6-1.4,0.6c-0.5,0-1-0.2-1.3-0.5c-0.3-0.3-0.5-0.7-0.5-1.1
		c0-0.6,0.2-1,0.6-1.3c0.4-0.3,1-0.5,1.8-0.5h0.7V4.7c0-0.3-0.1-0.5-0.2-0.7c-0.2-0.2-0.4-0.2-0.7-0.2c-0.3,0-0.5,0.1-0.7,0.2
		c-0.2,0.1-0.3,0.3-0.3,0.5h-1.2c0-0.3,0.1-0.6,0.3-0.8c0.2-0.3,0.5-0.5,0.8-0.6c0.3-0.1,0.7-0.2,1.1-0.2c0.6,0,1.1,0.2,1.5,0.5
		C32.8,3.7,33,4.1,33,4.7V7c0,0.5,0.1,0.9,0.2,1.1v0.1H32z M30.7,7.4c0.2,0,0.5-0.1,0.7-0.2c0.2-0.1,0.4-0.3,0.5-0.5v-1h-0.6
		c-0.4,0-0.8,0.1-1,0.2c-0.2,0.2-0.3,0.4-0.3,0.6c0,0.2,0.1,0.4,0.2,0.5C30.2,7.3,30.4,7.4,30.7,7.4z"/>
	<path class="st0" d="M34,5.6c0-0.8,0.2-1.5,0.6-2c0.4-0.5,0.9-0.7,1.5-0.7c0.6,0,1,0.2,1.4,0.6V0.8h1.2v7.5h-1.1l-0.1-0.5
		c-0.4,0.4-0.8,0.6-1.4,0.6c-0.6,0-1.1-0.2-1.5-0.7C34.2,7.1,34,6.4,34,5.6z M35.2,5.7c0,0.5,0.1,1,0.3,1.3c0.2,0.3,0.5,0.5,0.9,0.5
		c0.5,0,0.8-0.2,1.1-0.6V4.5c-0.2-0.4-0.6-0.6-1.1-0.6c-0.4,0-0.7,0.2-0.9,0.5C35.3,4.6,35.2,5.1,35.2,5.7z"/>
	<path class="st0" d="M39.6,5.6c0-0.5,0.1-1,0.3-1.4c0.2-0.4,0.5-0.7,0.9-1c0.4-0.2,0.8-0.3,1.3-0.3c0.7,0,1.3,0.2,1.7,0.7
		s0.7,1.1,0.7,1.8l0,0.3c0,0.5-0.1,1-0.3,1.4s-0.5,0.7-0.9,1c-0.4,0.2-0.8,0.3-1.3,0.3c-0.7,0-1.3-0.2-1.8-0.7
		C39.9,7.1,39.6,6.5,39.6,5.6L39.6,5.6z M40.8,5.7c0,0.5,0.1,1,0.3,1.3c0.2,0.3,0.5,0.5,0.9,0.5s0.7-0.2,0.9-0.5
		c0.2-0.3,0.3-0.8,0.3-1.4c0-0.5-0.1-1-0.3-1.3s-0.5-0.5-0.9-0.5c-0.4,0-0.7,0.2-0.9,0.5C40.9,4.6,40.8,5.1,40.8,5.7z"/>
	<path class="st0" d="M47.8,5.6c0-0.5,0.1-1,0.3-1.4c0.2-0.4,0.5-0.7,0.9-1c0.4-0.2,0.8-0.3,1.3-0.3c0.7,0,1.3,0.2,1.7,0.7
		s0.7,1.1,0.7,1.8l0,0.3c0,0.5-0.1,1-0.3,1.4S52,7.8,51.6,8c-0.4,0.2-0.8,0.3-1.3,0.3c-0.7,0-1.3-0.2-1.8-0.7
		C48.1,7.1,47.8,6.5,47.8,5.6L47.8,5.6z M49,5.7c0,0.5,0.1,1,0.3,1.3c0.2,0.3,0.5,0.5,0.9,0.5s0.7-0.2,0.9-0.5
		c0.2-0.3,0.3-0.8,0.3-1.4c0-0.5-0.1-1-0.3-1.3s-0.5-0.5-0.9-0.5c-0.4,0-0.7,0.2-0.9,0.5C49.1,4.6,49,5.1,49,5.7z"/>
	<path class="st0" d="M58.4,5.7c0,0.8-0.2,1.5-0.6,2c-0.4,0.5-0.9,0.7-1.5,0.7c-0.6,0-1-0.2-1.4-0.6v2.5h-1.2V3h1.1l0,0.5
		c0.3-0.4,0.8-0.6,1.4-0.6c0.6,0,1.2,0.2,1.5,0.7C58.2,4.1,58.4,4.7,58.4,5.7L58.4,5.7z M57.2,5.6c0-0.5-0.1-0.9-0.3-1.3
		S56.4,3.8,56,3.8c-0.5,0-0.8,0.2-1,0.6v2.3c0.2,0.4,0.6,0.6,1.1,0.6c0.4,0,0.7-0.2,0.9-0.5C57.1,6.6,57.2,6.2,57.2,5.6z"/>
	<path class="st0" d="M61.7,8.4c-0.8,0-1.4-0.2-1.8-0.7c-0.5-0.5-0.7-1.1-0.7-1.9V5.6c0-0.5,0.1-1,0.3-1.4c0.2-0.4,0.5-0.7,0.9-1
		c0.4-0.2,0.8-0.3,1.2-0.3c0.7,0,1.3,0.2,1.7,0.7c0.4,0.5,0.6,1.1,0.6,1.9V6h-3.5c0,0.4,0.2,0.8,0.4,1c0.3,0.3,0.6,0.4,1,0.4
		c0.5,0,1-0.2,1.3-0.7l0.6,0.6c-0.2,0.3-0.5,0.6-0.8,0.7C62.5,8.3,62.1,8.4,61.7,8.4z M61.6,3.8c-0.3,0-0.6,0.1-0.8,0.3
		s-0.3,0.5-0.4,1h2.3V5c0-0.4-0.1-0.7-0.3-0.9C62.1,3.9,61.9,3.8,61.6,3.8z"/>
	<path class="st0" d="M67.5,4.1c-0.2,0-0.3,0-0.5,0c-0.5,0-0.9,0.2-1.1,0.6v3.6h-1.2V3h1.1l0,0.6c0.3-0.5,0.7-0.7,1.2-0.7
		c0.2,0,0.3,0,0.4,0.1L67.5,4.1z"/>
	<path class="st0" d="M71.3,8.3c-0.1-0.1-0.1-0.3-0.1-0.5c-0.4,0.4-0.8,0.6-1.4,0.6c-0.5,0-1-0.2-1.3-0.5c-0.3-0.3-0.5-0.7-0.5-1.1
		c0-0.6,0.2-1,0.6-1.3C69,5.2,69.6,5,70.4,5h0.7V4.7c0-0.3-0.1-0.5-0.2-0.7c-0.2-0.2-0.4-0.2-0.7-0.2c-0.3,0-0.5,0.1-0.7,0.2
		c-0.2,0.1-0.3,0.3-0.3,0.5h-1.2c0-0.3,0.1-0.6,0.3-0.8c0.2-0.3,0.5-0.5,0.8-0.6c0.3-0.1,0.7-0.2,1.1-0.2c0.6,0,1.1,0.2,1.5,0.5
		c0.4,0.3,0.6,0.7,0.6,1.3V7c0,0.5,0.1,0.9,0.2,1.1v0.1H71.3z M70,7.4c0.2,0,0.5-0.1,0.7-0.2C70.8,7.1,71,7,71.1,6.8v-1h-0.6
		c-0.4,0-0.8,0.1-1,0.2c-0.2,0.2-0.3,0.4-0.3,0.6c0,0.2,0.1,0.4,0.2,0.5C69.5,7.3,69.7,7.4,70,7.4z"/>
	<path class="st0" d="M75.7,7.4c0.3,0,0.5-0.1,0.7-0.3s0.3-0.4,0.3-0.6h1.1c0,0.3-0.1,0.6-0.3,0.9c-0.2,0.3-0.5,0.5-0.8,0.7
		c-0.3,0.2-0.7,0.2-1.1,0.2c-0.7,0-1.3-0.2-1.8-0.7c-0.4-0.5-0.6-1.1-0.6-2V5.5c0-0.8,0.2-1.4,0.6-1.9c0.4-0.5,1-0.7,1.8-0.7
		c0.6,0,1.1,0.2,1.5,0.5c0.4,0.4,0.6,0.8,0.6,1.4h-1.1c0-0.3-0.1-0.6-0.3-0.7c-0.2-0.2-0.4-0.3-0.7-0.3c-0.4,0-0.7,0.1-0.9,0.4
		c-0.2,0.3-0.3,0.7-0.3,1.3v0.2c0,0.6,0.1,1,0.3,1.3C75,7.3,75.3,7.4,75.7,7.4z"/>
	<path class="st0" d="M78.8,1.6c0-0.2,0.1-0.3,0.2-0.5C79.1,1,79.2,1,79.4,1s0.4,0.1,0.5,0.2s0.2,0.3,0.2,0.5c0,0.2-0.1,0.3-0.2,0.4
		c-0.1,0.1-0.3,0.2-0.5,0.2S79.1,2.2,78.9,2C78.8,1.9,78.8,1.8,78.8,1.6z M80,8.3h-1.2V3H80V8.3z"/>
	<path class="st0" d="M81.1,5.6c0-0.5,0.1-1,0.3-1.4c0.2-0.4,0.5-0.7,0.9-1c0.4-0.2,0.8-0.3,1.3-0.3c0.7,0,1.3,0.2,1.7,0.7
		S86,4.6,86,5.4l0,0.3c0,0.5-0.1,1-0.3,1.4s-0.5,0.7-0.9,1c-0.4,0.2-0.8,0.3-1.3,0.3c-0.7,0-1.3-0.2-1.8-0.7
		C81.3,7.1,81.1,6.5,81.1,5.6L81.1,5.6z M82.3,5.7c0,0.5,0.1,1,0.3,1.3c0.2,0.3,0.5,0.5,0.9,0.5s0.7-0.2,0.9-0.5
		c0.2-0.3,0.3-0.8,0.3-1.4c0-0.5-0.1-1-0.3-1.3s-0.5-0.5-0.9-0.5c-0.4,0-0.7,0.2-0.9,0.5C82.4,4.6,82.3,5.1,82.3,5.7z"/>
	<path class="st0" d="M88.1,3l0,0.6c0.4-0.5,0.9-0.7,1.5-0.7c1.1,0,1.7,0.6,1.7,1.9v3.5h-1.2V4.8c0-0.3-0.1-0.6-0.2-0.7
		c-0.1-0.2-0.4-0.2-0.7-0.2c-0.5,0-0.8,0.2-1.1,0.6v3.8H87V3H88.1z"/>
	<path class="st0" d="M95.7,8.3c-0.1-0.1-0.1-0.3-0.1-0.5c-0.4,0.4-0.8,0.6-1.4,0.6c-0.5,0-1-0.2-1.3-0.5c-0.3-0.3-0.5-0.7-0.5-1.1
		c0-0.6,0.2-1,0.6-1.3C93.4,5.2,94,5,94.8,5h0.7V4.7c0-0.3-0.1-0.5-0.2-0.7c-0.2-0.2-0.4-0.2-0.7-0.2c-0.3,0-0.5,0.1-0.7,0.2
		c-0.2,0.1-0.3,0.3-0.3,0.5h-1.2c0-0.3,0.1-0.6,0.3-0.8c0.2-0.3,0.5-0.5,0.8-0.6c0.3-0.1,0.7-0.2,1.1-0.2c0.6,0,1.1,0.2,1.5,0.5
		c0.4,0.3,0.6,0.7,0.6,1.3V7c0,0.5,0.1,0.9,0.2,1.1v0.1H95.7z M94.4,7.4c0.2,0,0.5-0.1,0.7-0.2c0.2-0.1,0.4-0.3,0.5-0.5v-1h-0.6
		c-0.4,0-0.8,0.1-1,0.2c-0.2,0.2-0.3,0.4-0.3,0.6c0,0.2,0.1,0.4,0.2,0.5C94,7.3,94.2,7.4,94.4,7.4z"/>
	<path class="st0" d="M99.2,8.3h-1.2V0.8h1.2V8.3z"/>
</g>
<g>
	<path class="st0" d="M170.3,5.5h-1.4v2.7h-1.2V1.1h2.5c0.8,0,1.5,0.2,1.9,0.6c0.4,0.4,0.7,0.9,0.7,1.6c0,0.5-0.1,0.9-0.3,1.2
		c-0.2,0.3-0.5,0.6-1,0.7l1.6,3v0.1h-1.3L170.3,5.5z M168.9,4.5h1.3c0.4,0,0.7-0.1,1-0.3c0.2-0.2,0.4-0.5,0.4-0.9
		c0-0.4-0.1-0.7-0.3-0.9c-0.2-0.2-0.5-0.3-1-0.3h-1.3V4.5z"/>
	<path class="st0" d="M177.2,6.4c0-0.3-0.1-0.5-0.3-0.7c-0.2-0.2-0.5-0.3-0.9-0.5c-0.4-0.1-0.7-0.3-1-0.4c-0.8-0.4-1.1-1-1.1-1.8
		c0-0.5,0.2-1,0.5-1.3c0.3-0.3,0.8-0.6,1.3-0.6V0h0.8v1.1c0.6,0.1,1,0.3,1.3,0.7c0.3,0.4,0.5,0.9,0.5,1.6h-1.2c0-0.4-0.1-0.7-0.3-1
		c-0.2-0.2-0.4-0.4-0.8-0.4c-0.3,0-0.6,0.1-0.7,0.3s-0.3,0.4-0.3,0.7c0,0.3,0.1,0.5,0.3,0.7c0.2,0.2,0.5,0.3,0.9,0.5
		c0.4,0.2,0.7,0.3,1,0.4c0.2,0.1,0.4,0.3,0.6,0.4c0.2,0.2,0.3,0.4,0.4,0.6s0.1,0.5,0.1,0.8c0,0.5-0.2,1-0.5,1.3s-0.8,0.5-1.4,0.6v1
		h-0.8V8.3c-0.6-0.1-1.1-0.3-1.5-0.7s-0.5-0.9-0.5-1.6h1.2c0,0.4,0.1,0.7,0.3,1c0.2,0.2,0.5,0.3,0.9,0.3c0.4,0,0.7-0.1,0.8-0.3
		C177.1,6.9,177.2,6.7,177.2,6.4z"/>
	<path class="st0" d="M179.8,8.9h-0.9l2.8-7.7h0.9L179.8,8.9z"/>
	<path class="st0" d="M186.6,7.7c-0.3,0.4-0.8,0.6-1.5,0.6c-0.6,0-1-0.2-1.3-0.5c-0.3-0.3-0.4-0.8-0.4-1.5V3h1.2v3.4
		c0,0.7,0.3,1,0.8,1c0.6,0,1-0.2,1.2-0.6V3h1.2v5.3h-1.1L186.6,7.7z"/>
	<path class="st0" d="M190.1,3l0,0.6c0.4-0.5,0.9-0.7,1.5-0.7c1.1,0,1.7,0.6,1.7,1.9v3.5h-1.2V4.8c0-0.3-0.1-0.6-0.2-0.7
		c-0.1-0.2-0.4-0.2-0.7-0.2c-0.5,0-0.8,0.2-1.1,0.6v3.8h-1.2V3H190.1z"/>
</g>
<line class="st1" x1="0" y1="13.8" x2="195.9" y2="13.8"/>
<g>
	<path class="st0" d="M3.4,27.3H1.8v2.9H0.8v-7.1h2.4c0.8,0,1.4,0.2,1.8,0.5c0.4,0.4,0.6,0.9,0.6,1.6c0,0.4-0.1,0.8-0.4,1.2
		s-0.6,0.6-1,0.7l1.7,3v0.1H5L3.4,27.3z M1.8,26.6h1.4c0.5,0,0.8-0.1,1.1-0.4c0.3-0.2,0.4-0.6,0.4-1c0-0.4-0.1-0.8-0.4-1
		c-0.3-0.2-0.6-0.4-1.1-0.4H1.8V26.6z"/>
	<path class="st0" d="M9,30.3c-0.7,0-1.3-0.2-1.7-0.7c-0.4-0.5-0.7-1.1-0.7-1.9v-0.2c0-0.5,0.1-1,0.3-1.4c0.2-0.4,0.5-0.7,0.8-1
		c0.4-0.2,0.7-0.3,1.2-0.3c0.7,0,1.2,0.2,1.6,0.7s0.6,1.1,0.6,1.9v0.4H7.5c0,0.5,0.2,0.9,0.5,1.3c0.3,0.3,0.7,0.5,1.1,0.5
		c0.3,0,0.6-0.1,0.8-0.2c0.2-0.1,0.4-0.3,0.6-0.5l0.6,0.4C10.6,30,9.9,30.3,9,30.3z M8.9,25.6c-0.4,0-0.7,0.1-0.9,0.4
		c-0.2,0.3-0.4,0.6-0.5,1.1h2.6V27c0-0.5-0.1-0.8-0.4-1.1C9.6,25.7,9.3,25.6,8.9,25.6z"/>
	<path class="st0" d="M14.3,29.6c0.3,0,0.6-0.1,0.8-0.3c0.2-0.2,0.4-0.4,0.4-0.7h0.9c0,0.3-0.1,0.6-0.3,0.9
		c-0.2,0.3-0.4,0.5-0.8,0.7c-0.3,0.2-0.7,0.2-1,0.2c-0.7,0-1.3-0.2-1.7-0.7c-0.4-0.5-0.6-1.1-0.6-2v-0.2c0-0.5,0.1-1,0.3-1.4
		c0.2-0.4,0.5-0.7,0.8-0.9c0.4-0.2,0.8-0.3,1.3-0.3c0.6,0,1.1,0.2,1.5,0.5c0.4,0.4,0.6,0.8,0.6,1.4h-0.9c0-0.3-0.2-0.6-0.4-0.8
		c-0.2-0.2-0.5-0.3-0.9-0.3c-0.5,0-0.8,0.2-1.1,0.5c-0.3,0.3-0.4,0.8-0.4,1.4v0.2c0,0.6,0.1,1.1,0.4,1.4
		C13.4,29.4,13.8,29.6,14.3,29.6z"/>
	<path class="st0" d="M19.6,30.3c-0.7,0-1.3-0.2-1.7-0.7c-0.4-0.5-0.7-1.1-0.7-1.9v-0.2c0-0.5,0.1-1,0.3-1.4c0.2-0.4,0.5-0.7,0.8-1
		c0.4-0.2,0.7-0.3,1.2-0.3c0.7,0,1.2,0.2,1.6,0.7s0.6,1.1,0.6,1.9v0.4H18c0,0.5,0.2,0.9,0.5,1.3c0.3,0.3,0.7,0.5,1.1,0.5
		c0.3,0,0.6-0.1,0.8-0.2c0.2-0.1,0.4-0.3,0.6-0.5l0.6,0.4C21.1,30,20.5,30.3,19.6,30.3z M19.5,25.6c-0.4,0-0.7,0.1-0.9,0.4
		c-0.2,0.3-0.4,0.6-0.5,1.1h2.6V27c0-0.5-0.1-0.8-0.4-1.1C20.1,25.7,19.8,25.6,19.5,25.6z"/>
	<path class="st0" d="M22.7,23.5c0-0.1,0-0.3,0.1-0.4c0.1-0.1,0.2-0.2,0.4-0.2s0.3,0.1,0.4,0.2c0.1,0.1,0.1,0.2,0.1,0.4
		s0,0.3-0.1,0.4C23.5,24,23.4,24,23.2,24s-0.3,0-0.4-0.1C22.7,23.8,22.7,23.7,22.7,23.5z M23.7,30.2h-0.9v-5.3h0.9V30.2z"/>
	<path class="st0" d="M26.3,23.6v1.3h1v0.7h-1v3.3c0,0.2,0,0.4,0.1,0.5c0.1,0.1,0.2,0.2,0.4,0.2c0.1,0,0.2,0,0.4-0.1v0.7
		c-0.2,0.1-0.5,0.1-0.7,0.1c-0.4,0-0.7-0.1-0.9-0.4s-0.3-0.6-0.3-1v-3.3h-1v-0.7h1v-1.3H26.3z"/>
	<path class="st0" d="M31.6,30.2c-0.1-0.1-0.1-0.3-0.1-0.6c-0.4,0.4-0.9,0.7-1.5,0.7c-0.5,0-0.9-0.1-1.3-0.4
		c-0.3-0.3-0.5-0.7-0.5-1.1c0-0.5,0.2-1,0.6-1.3c0.4-0.3,1-0.5,1.8-0.5h0.9v-0.4c0-0.3-0.1-0.6-0.3-0.8c-0.2-0.2-0.5-0.3-0.8-0.3
		c-0.3,0-0.6,0.1-0.8,0.2c-0.2,0.2-0.3,0.4-0.3,0.6h-0.9c0-0.3,0.1-0.5,0.3-0.8c0.2-0.2,0.4-0.4,0.8-0.6c0.3-0.1,0.7-0.2,1.1-0.2
		c0.6,0,1.1,0.2,1.4,0.5c0.3,0.3,0.5,0.7,0.5,1.3V29c0,0.5,0.1,0.9,0.2,1.2v0.1H31.6z M30.1,29.5c0.3,0,0.6-0.1,0.8-0.2
		s0.4-0.3,0.6-0.6v-1.1h-0.7c-1.1,0-1.7,0.3-1.7,1c0,0.3,0.1,0.5,0.3,0.7C29.6,29.4,29.8,29.5,30.1,29.5z"/>
	<path class="st0" d="M37.3,30.2h-0.9v-7.5h0.9V30.2z"/>
	<path class="st0" d="M39.7,22.7h1.1l-1.3,1.4l-0.7,0L39.7,22.7z M39.7,30.2h-0.9v-5.3h0.9V30.2z"/>
	<path class="st0" d="M41,27.5c0-0.8,0.2-1.5,0.6-2c0.4-0.5,0.9-0.7,1.5-0.7c0.6,0,1.1,0.2,1.5,0.6l0-0.5h0.8v7.3h-0.9v-2.5
		c-0.4,0.4-0.8,0.6-1.5,0.6c-0.6,0-1.1-0.2-1.5-0.7C41.1,29.1,41,28.4,41,27.5L41,27.5z M41.9,27.6c0,0.6,0.1,1.1,0.4,1.4
		c0.3,0.3,0.6,0.5,1,0.5c0.5,0,0.9-0.2,1.2-0.7v-2.6c-0.3-0.5-0.7-0.7-1.2-0.7c-0.4,0-0.8,0.2-1,0.5C42,26.4,41.9,26.9,41.9,27.6z"
		/>
	<path class="st0" d="M50.1,29.7c-0.4,0.4-0.9,0.6-1.5,0.6c-0.6,0-1-0.2-1.3-0.5c-0.3-0.3-0.4-0.8-0.4-1.5v-3.4h0.9v3.4
		c0,0.8,0.3,1.2,1,1.2c0.7,0,1.1-0.3,1.4-0.8v-3.8H51v5.3h-0.9L50.1,29.7z"/>
	<path class="st0" d="M52.4,23.5c0-0.1,0-0.3,0.1-0.4c0.1-0.1,0.2-0.2,0.4-0.2s0.3,0.1,0.4,0.2c0.1,0.1,0.1,0.2,0.1,0.4
		s0,0.3-0.1,0.4C53.2,24,53.1,24,52.9,24s-0.3,0-0.4-0.1C52.4,23.8,52.4,23.7,52.4,23.5z M53.4,30.2h-0.9v-5.3h0.9V30.2z"/>
	<path class="st0" d="M54.6,27.5c0-0.8,0.2-1.5,0.6-2c0.4-0.5,0.9-0.7,1.5-0.7c0.6,0,1.1,0.2,1.5,0.6v-2.8H59v7.5h-0.8l0-0.6
		c-0.4,0.4-0.9,0.7-1.5,0.7c-0.6,0-1.1-0.3-1.5-0.8S54.6,28.4,54.6,27.5L54.6,27.5z M55.5,27.6c0,0.6,0.1,1.1,0.4,1.4
		c0.2,0.3,0.6,0.5,1,0.5c0.6,0,1-0.3,1.3-0.8v-2.4c-0.3-0.5-0.7-0.7-1.2-0.7c-0.4,0-0.8,0.2-1,0.5C55.6,26.4,55.5,27,55.5,27.6z"/>
	<path class="st0" d="M63.7,30.2c-0.1-0.1-0.1-0.3-0.1-0.6c-0.4,0.4-0.9,0.7-1.5,0.7c-0.5,0-0.9-0.1-1.3-0.4
		c-0.3-0.3-0.5-0.7-0.5-1.1c0-0.5,0.2-1,0.6-1.3c0.4-0.3,1-0.5,1.8-0.5h0.9v-0.4c0-0.3-0.1-0.6-0.3-0.8c-0.2-0.2-0.5-0.3-0.8-0.3
		c-0.3,0-0.6,0.1-0.8,0.2c-0.2,0.2-0.3,0.4-0.3,0.6h-0.9c0-0.3,0.1-0.5,0.3-0.8c0.2-0.2,0.4-0.4,0.8-0.6c0.3-0.1,0.7-0.2,1.1-0.2
		c0.6,0,1.1,0.2,1.4,0.5c0.3,0.3,0.5,0.7,0.5,1.3V29c0,0.5,0.1,0.9,0.2,1.2v0.1H63.7z M62.2,29.5c0.3,0,0.6-0.1,0.8-0.2
		s0.4-0.3,0.6-0.6v-1.1h-0.7c-1.1,0-1.7,0.3-1.7,1c0,0.3,0.1,0.5,0.3,0.7C61.7,29.4,61.9,29.5,62.2,29.5z"/>
</g>
<g>
	<path class="st0" d="M177,26.2h0.7c0.4,0,0.8-0.1,1-0.3s0.4-0.5,0.4-0.9c0-0.8-0.4-1.2-1.2-1.2c-0.4,0-0.7,0.1-0.9,0.3
		c-0.2,0.2-0.3,0.5-0.3,0.9h-0.9c0-0.6,0.2-1,0.6-1.4c0.4-0.4,0.9-0.6,1.6-0.6c0.7,0,1.2,0.2,1.6,0.5s0.6,0.8,0.6,1.5
		c0,0.3-0.1,0.6-0.3,0.9s-0.5,0.5-0.8,0.6c0.4,0.1,0.7,0.3,0.9,0.6c0.2,0.3,0.3,0.6,0.3,1c0,0.6-0.2,1.1-0.6,1.5
		c-0.4,0.4-1,0.6-1.6,0.6c-0.7,0-1.2-0.2-1.6-0.5c-0.4-0.4-0.6-0.8-0.6-1.4h0.9c0,0.4,0.1,0.7,0.4,0.9s0.6,0.3,1,0.3
		c0.4,0,0.8-0.1,1-0.3c0.2-0.2,0.3-0.6,0.3-1c0-0.4-0.1-0.7-0.4-1s-0.6-0.3-1.1-0.3H177V26.2z"/>
	<path class="st0" d="M181.4,31.6l-0.5-0.4c0.3-0.4,0.5-0.9,0.5-1.3v-0.8h0.9v0.7c0,0.3-0.1,0.7-0.2,1S181.6,31.4,181.4,31.6z"/>
	<path class="st0" d="M187.7,27.2c0,1.1-0.2,1.8-0.5,2.4s-0.9,0.8-1.7,0.8c-0.8,0-1.3-0.3-1.7-0.8c-0.4-0.5-0.6-1.3-0.6-2.3v-1.2
		c0-1,0.2-1.8,0.5-2.3s0.9-0.8,1.7-0.8c0.8,0,1.3,0.2,1.7,0.7c0.4,0.5,0.5,1.2,0.6,2.3V27.2z M186.8,25.9c0-0.8-0.1-1.3-0.3-1.7
		c-0.2-0.4-0.6-0.5-1-0.5c-0.5,0-0.8,0.2-1,0.5c-0.2,0.3-0.3,0.9-0.3,1.6v1.4c0,0.8,0.1,1.3,0.3,1.7c0.2,0.4,0.6,0.5,1,0.5
		c0.4,0,0.8-0.2,1-0.5c0.2-0.3,0.3-0.9,0.3-1.6V25.9z"/>
	<path class="st0" d="M192.4,27.1c-0.2,0.2-0.4,0.4-0.7,0.5c-0.3,0.1-0.5,0.2-0.9,0.2c-0.4,0-0.8-0.1-1.1-0.3
		c-0.3-0.2-0.5-0.5-0.7-0.9c-0.2-0.4-0.2-0.8-0.2-1.2c0-0.5,0.1-0.9,0.3-1.3s0.4-0.7,0.8-0.9s0.7-0.3,1.2-0.3c0.7,0,1.3,0.3,1.7,0.8
		c0.4,0.5,0.6,1.2,0.6,2.2v0.3c0,1.4-0.3,2.4-0.8,3c-0.5,0.6-1.4,1-2.5,1h-0.2v-0.8h0.2c0.7,0,1.3-0.2,1.7-0.6
		S192.3,27.9,192.4,27.1z M191,27.1c0.3,0,0.6-0.1,0.8-0.3c0.3-0.2,0.4-0.4,0.6-0.7v-0.4c0-0.6-0.1-1.1-0.4-1.4
		c-0.3-0.4-0.6-0.6-1-0.6c-0.4,0-0.7,0.2-1,0.5c-0.2,0.3-0.4,0.7-0.4,1.2c0,0.5,0.1,0.9,0.3,1.2C190.3,26.9,190.6,27.1,191,27.1z"/>
</g>
<line class="st2" x1="0" y1="38.3" x2="195.9" y2="38.3"/>
<g>
	<path class="st0" d="M6.1,52.2c-0.1,0.8-0.4,1.3-0.8,1.7c-0.5,0.4-1.1,0.6-1.9,0.6c-0.8,0-1.5-0.3-2-0.9c-0.5-0.6-0.8-1.4-0.8-2.4
		v-0.7c0-0.7,0.1-1.2,0.4-1.7c0.2-0.5,0.6-0.9,1-1.2c0.4-0.3,0.9-0.4,1.5-0.4c0.8,0,1.4,0.2,1.8,0.6c0.5,0.4,0.7,1,0.8,1.8H5.1
		c-0.1-0.6-0.3-1-0.5-1.2C4.3,48.1,3.9,48,3.4,48c-0.6,0-1.1,0.2-1.4,0.7c-0.3,0.4-0.5,1.1-0.5,1.9v0.7c0,0.8,0.2,1.4,0.5,1.8
		s0.8,0.7,1.4,0.7c0.5,0,0.9-0.1,1.2-0.4c0.3-0.2,0.5-0.6,0.6-1.2H6.1z"/>
	<path class="st0" d="M10.5,53.9c-0.4,0.4-0.9,0.6-1.5,0.6c-0.6,0-1-0.2-1.3-0.5c-0.3-0.3-0.4-0.8-0.4-1.5v-3.4h0.9v3.4
		c0,0.8,0.3,1.2,1,1.2c0.7,0,1.1-0.3,1.4-0.8v-3.8h0.9v5.3h-0.9L10.5,53.9z"/>
	<path class="st0" d="M15.8,53c0-0.2-0.1-0.4-0.3-0.6c-0.2-0.1-0.5-0.3-1-0.3c-0.5-0.1-0.8-0.2-1.1-0.4s-0.5-0.3-0.6-0.5
		c-0.1-0.2-0.2-0.4-0.2-0.7c0-0.4,0.2-0.8,0.5-1.1S14,49,14.6,49c0.6,0,1.1,0.2,1.5,0.5c0.4,0.3,0.6,0.7,0.6,1.2h-0.9
		c0-0.2-0.1-0.5-0.3-0.6s-0.5-0.3-0.8-0.3c-0.3,0-0.6,0.1-0.8,0.2s-0.3,0.3-0.3,0.6c0,0.2,0.1,0.4,0.3,0.5c0.2,0.1,0.5,0.2,0.9,0.3
		c0.5,0.1,0.8,0.2,1.1,0.4c0.3,0.1,0.5,0.3,0.6,0.5c0.1,0.2,0.2,0.4,0.2,0.7c0,0.5-0.2,0.9-0.6,1.1c-0.4,0.3-0.9,0.4-1.5,0.4
		c-0.4,0-0.8-0.1-1.1-0.2c-0.3-0.1-0.6-0.4-0.8-0.6c-0.2-0.3-0.3-0.6-0.3-0.9h0.9c0,0.3,0.1,0.5,0.4,0.7c0.2,0.2,0.5,0.3,0.9,0.3
		c0.3,0,0.6-0.1,0.8-0.2C15.7,53.4,15.8,53.3,15.8,53z"/>
	<path class="st0" d="M19.1,47.9v1.3h1v0.7h-1v3.3c0,0.2,0,0.4,0.1,0.5c0.1,0.1,0.2,0.2,0.4,0.2c0.1,0,0.2,0,0.4-0.1v0.7
		c-0.2,0.1-0.5,0.1-0.7,0.1c-0.4,0-0.7-0.1-0.9-0.4s-0.3-0.6-0.3-1v-3.3h-1v-0.7h1v-1.3H19.1z"/>
	<path class="st0" d="M20.8,51.7c0-0.5,0.1-1,0.3-1.4c0.2-0.4,0.5-0.7,0.8-1c0.4-0.2,0.8-0.3,1.2-0.3c0.7,0,1.3,0.2,1.7,0.7
		s0.7,1.2,0.7,2v0.1c0,0.5-0.1,1-0.3,1.4c-0.2,0.4-0.5,0.7-0.8,1s-0.8,0.3-1.3,0.3c-0.7,0-1.3-0.2-1.7-0.7S20.8,52.6,20.8,51.7
		L20.8,51.7z M21.7,51.8c0,0.6,0.1,1.1,0.4,1.4c0.3,0.4,0.6,0.5,1.1,0.5c0.5,0,0.8-0.2,1.1-0.5c0.3-0.4,0.4-0.9,0.4-1.5
		c0-0.6-0.1-1-0.4-1.4c-0.3-0.4-0.6-0.5-1.1-0.5c-0.4,0-0.8,0.2-1.1,0.5S21.7,51.2,21.7,51.8z"/>
	<path class="st0" d="M29.8,53c0-0.2-0.1-0.4-0.3-0.6c-0.2-0.1-0.5-0.3-1-0.3c-0.5-0.1-0.8-0.2-1.1-0.4s-0.5-0.3-0.6-0.5
		c-0.1-0.2-0.2-0.4-0.2-0.7c0-0.4,0.2-0.8,0.5-1.1s0.8-0.4,1.4-0.4c0.6,0,1.1,0.2,1.5,0.5c0.4,0.3,0.6,0.7,0.6,1.2h-0.9
		c0-0.2-0.1-0.5-0.3-0.6s-0.5-0.3-0.8-0.3c-0.3,0-0.6,0.1-0.8,0.2s-0.3,0.3-0.3,0.6c0,0.2,0.1,0.4,0.3,0.5c0.2,0.1,0.5,0.2,0.9,0.3
		c0.5,0.1,0.8,0.2,1.1,0.4c0.3,0.1,0.5,0.3,0.6,0.5c0.1,0.2,0.2,0.4,0.2,0.7c0,0.5-0.2,0.9-0.6,1.1c-0.4,0.3-0.9,0.4-1.5,0.4
		c-0.4,0-0.8-0.1-1.1-0.2c-0.3-0.1-0.6-0.4-0.8-0.6c-0.2-0.3-0.3-0.6-0.3-0.9h0.9c0,0.3,0.1,0.5,0.4,0.7c0.2,0.2,0.5,0.3,0.9,0.3
		c0.3,0,0.6-0.1,0.8-0.2C29.7,53.4,29.8,53.3,29.8,53z"/>
	<path class="st0" d="M34.2,51.7c0-0.8,0.2-1.5,0.6-2c0.4-0.5,0.9-0.7,1.5-0.7c0.6,0,1.1,0.2,1.5,0.6v-2.8h0.9v7.5h-0.8l0-0.6
		c-0.4,0.4-0.9,0.7-1.5,0.7c-0.6,0-1.1-0.3-1.5-0.8S34.2,52.6,34.2,51.7L34.2,51.7z M35.1,51.8c0,0.6,0.1,1.1,0.4,1.4
		c0.2,0.3,0.6,0.5,1,0.5c0.6,0,1-0.3,1.3-0.8v-2.4c-0.3-0.5-0.7-0.7-1.2-0.7c-0.4,0-0.8,0.2-1,0.5C35.2,50.7,35.1,51.2,35.1,51.8z"
		/>
	<path class="st0" d="M42.2,54.5c-0.7,0-1.3-0.2-1.7-0.7c-0.4-0.5-0.7-1.1-0.7-1.9v-0.2c0-0.5,0.1-1,0.3-1.4c0.2-0.4,0.5-0.7,0.8-1
		c0.4-0.2,0.7-0.3,1.2-0.3c0.7,0,1.2,0.2,1.6,0.7s0.6,1.1,0.6,1.9V52h-3.6c0,0.5,0.2,0.9,0.5,1.3c0.3,0.3,0.7,0.5,1.1,0.5
		c0.3,0,0.6-0.1,0.8-0.2c0.2-0.1,0.4-0.3,0.6-0.5l0.6,0.4C43.8,54.2,43.1,54.5,42.2,54.5z M42.1,49.8c-0.4,0-0.7,0.1-0.9,0.4
		c-0.2,0.3-0.4,0.6-0.5,1.1h2.6v-0.1c0-0.5-0.1-0.8-0.4-1.1C42.8,49.9,42.5,49.8,42.1,49.8z"/>
	<path class="st0" d="M52.2,51.8c0,0.8-0.2,1.5-0.6,1.9c-0.4,0.5-0.9,0.7-1.5,0.7c-0.6,0-1.1-0.2-1.5-0.6v2.5h-0.9v-7.3h0.8l0,0.6
		c0.4-0.5,0.9-0.7,1.5-0.7c0.6,0,1.1,0.2,1.5,0.7C52.1,50.2,52.2,50.9,52.2,51.8L52.2,51.8z M51.3,51.7c0-0.6-0.1-1.1-0.4-1.4
		s-0.6-0.5-1-0.5c-0.5,0-1,0.2-1.2,0.7v2.5c0.3,0.5,0.7,0.7,1.2,0.7c0.4,0,0.8-0.2,1-0.5C51.2,52.9,51.3,52.4,51.3,51.7z"/>
	<path class="st0" d="M55.9,50c-0.1,0-0.3,0-0.4,0c-0.6,0-1,0.3-1.2,0.8v3.8h-0.9v-5.3h0.9l0,0.6c0.3-0.5,0.7-0.7,1.3-0.7
		c0.2,0,0.3,0,0.4,0.1V50z"/>
	<path class="st0" d="M56.4,51.7c0-0.5,0.1-1,0.3-1.4c0.2-0.4,0.5-0.7,0.8-1c0.4-0.2,0.8-0.3,1.2-0.3c0.7,0,1.3,0.2,1.7,0.7
		s0.7,1.2,0.7,2v0.1c0,0.5-0.1,1-0.3,1.4c-0.2,0.4-0.5,0.7-0.8,1s-0.8,0.3-1.3,0.3c-0.7,0-1.3-0.2-1.7-0.7S56.4,52.6,56.4,51.7
		L56.4,51.7z M57.3,51.8c0,0.6,0.1,1.1,0.4,1.4c0.3,0.4,0.6,0.5,1.1,0.5c0.5,0,0.8-0.2,1.1-0.5c0.3-0.4,0.4-0.9,0.4-1.5
		c0-0.6-0.1-1-0.4-1.4c-0.3-0.4-0.6-0.5-1.1-0.5c-0.4,0-0.8,0.2-1.1,0.5S57.3,51.2,57.3,51.8z"/>
	<path class="st0" d="M62.2,51.7c0-0.8,0.2-1.5,0.6-2c0.4-0.5,0.9-0.7,1.5-0.7c0.6,0,1.1,0.2,1.5,0.6v-2.8h0.9v7.5h-0.8l0-0.6
		c-0.4,0.4-0.9,0.7-1.5,0.7c-0.6,0-1.1-0.3-1.5-0.8S62.2,52.6,62.2,51.7L62.2,51.7z M63.1,51.8c0,0.6,0.1,1.1,0.4,1.4
		c0.2,0.3,0.6,0.5,1,0.5c0.6,0,1-0.3,1.3-0.8v-2.4c-0.3-0.5-0.7-0.7-1.2-0.7c-0.4,0-0.8,0.2-1,0.5C63.2,50.7,63.1,51.2,63.1,51.8z"
		/>
	<path class="st0" d="M71.3,53.9c-0.4,0.4-0.9,0.6-1.5,0.6c-0.6,0-1-0.2-1.3-0.5c-0.3-0.3-0.4-0.8-0.4-1.5v-3.4h0.9v3.4
		c0,0.8,0.3,1.2,1,1.2c0.7,0,1.1-0.3,1.4-0.8v-3.8h0.9v5.3h-0.9L71.3,53.9z"/>
	<path class="st0" d="M75.7,53.8c0.3,0,0.6-0.1,0.8-0.3c0.2-0.2,0.4-0.4,0.4-0.7h0.9c0,0.3-0.1,0.6-0.3,0.9
		c-0.2,0.3-0.4,0.5-0.8,0.7c-0.3,0.2-0.7,0.2-1,0.2c-0.7,0-1.3-0.2-1.7-0.7c-0.4-0.5-0.6-1.1-0.6-2v-0.2c0-0.5,0.1-1,0.3-1.4
		c0.2-0.4,0.5-0.7,0.8-0.9c0.4-0.2,0.8-0.3,1.3-0.3c0.6,0,1.1,0.2,1.5,0.5c0.4,0.4,0.6,0.8,0.6,1.4h-0.9c0-0.3-0.2-0.6-0.4-0.8
		c-0.2-0.2-0.5-0.3-0.9-0.3c-0.5,0-0.8,0.2-1.1,0.5c-0.3,0.3-0.4,0.8-0.4,1.4v0.2c0,0.6,0.1,1.1,0.4,1.4
		C74.8,53.6,75.2,53.8,75.7,53.8z M75.8,54.5l-0.1,0.3c0.5,0.1,0.7,0.4,0.7,0.8c0,0.3-0.1,0.6-0.4,0.8c-0.3,0.2-0.6,0.3-1.1,0.3
		l0-0.5c0.3,0,0.5,0,0.6-0.1s0.2-0.2,0.2-0.4c0-0.1-0.1-0.2-0.2-0.3c-0.1-0.1-0.3-0.1-0.6-0.1l0.2-0.7H75.8z"/>
	<path class="st0" d="M82,54.4c-0.1-0.1-0.1-0.3-0.1-0.6c-0.4,0.4-0.9,0.7-1.5,0.7c-0.5,0-0.9-0.1-1.3-0.4c-0.3-0.3-0.5-0.7-0.5-1.1
		c0-0.5,0.2-1,0.6-1.3c0.4-0.3,1-0.5,1.8-0.5h0.9v-0.4c0-0.3-0.1-0.6-0.3-0.8c-0.2-0.2-0.5-0.3-0.8-0.3c-0.3,0-0.6,0.1-0.8,0.2
		c-0.2,0.2-0.3,0.4-0.3,0.6h-0.9c0-0.3,0.1-0.5,0.3-0.8c0.2-0.2,0.4-0.4,0.8-0.6c0.3-0.1,0.7-0.2,1.1-0.2c0.6,0,1.1,0.2,1.4,0.5
		c0.3,0.3,0.5,0.7,0.5,1.3v2.4c0,0.5,0.1,0.9,0.2,1.2v0.1H82z M82.7,47.1c0,0.4-0.1,0.6-0.3,0.9s-0.5,0.3-0.7,0.3
		c-0.1,0-0.2,0-0.3,0S81,48.1,80.9,48c-0.2-0.1-0.3-0.2-0.3-0.2c-0.1,0-0.2,0-0.2,0c-0.1,0-0.2,0.1-0.3,0.2
		c-0.1,0.1-0.1,0.2-0.1,0.4l-0.6,0c0-0.3,0.1-0.6,0.3-0.9c0.2-0.2,0.4-0.3,0.8-0.3c0.1,0,0.2,0,0.3,0c0.1,0,0.2,0.1,0.4,0.2
		s0.3,0.2,0.4,0.2s0.2,0,0.3,0c0.1,0,0.3-0.1,0.3-0.2s0.1-0.2,0.1-0.4L82.7,47.1z M80.5,53.7c0.3,0,0.6-0.1,0.8-0.2s0.4-0.3,0.6-0.6
		v-1.1h-0.7c-1.1,0-1.7,0.3-1.7,1c0,0.3,0.1,0.5,0.3,0.7C80,53.7,80.2,53.7,80.5,53.7z"/>
	<path class="st0" d="M84,51.7c0-0.5,0.1-1,0.3-1.4c0.2-0.4,0.5-0.7,0.8-1c0.4-0.2,0.8-0.3,1.2-0.3c0.7,0,1.3,0.2,1.7,0.7
		s0.7,1.2,0.7,2v0.1c0,0.5-0.1,1-0.3,1.4c-0.2,0.4-0.5,0.7-0.8,1s-0.8,0.3-1.3,0.3c-0.7,0-1.3-0.2-1.7-0.7S84,52.6,84,51.7L84,51.7z
		 M84.9,51.8c0,0.6,0.1,1.1,0.4,1.4c0.3,0.4,0.6,0.5,1.1,0.5c0.5,0,0.8-0.2,1.1-0.5c0.3-0.4,0.4-0.9,0.4-1.5c0-0.6-0.1-1-0.4-1.4
		c-0.3-0.4-0.6-0.5-1.1-0.5c-0.4,0-0.8,0.2-1.1,0.5S84.9,51.2,84.9,51.8z"/>
</g>
<g>
	<path class="st0" d="M172.4,51.8h-2.4V51h2.4V51.8z"/>
	<path class="st0" d="M178.7,54.4h-0.9v-6l-1.8,0.7v-0.8l2.6-1h0.1V54.4z"/>
	<path class="st0" d="M181.4,55.8l-0.5-0.4c0.3-0.4,0.5-0.9,0.5-1.3v-0.8h0.9v0.7c0,0.3-0.1,0.7-0.2,1S181.6,55.6,181.4,55.8z"/>
	<path class="st0" d="M187.6,49.2c0,0.4-0.1,0.7-0.3,0.9c-0.2,0.3-0.4,0.5-0.8,0.6c0.4,0.2,0.7,0.4,0.9,0.7c0.2,0.3,0.3,0.7,0.3,1
		c0,0.6-0.2,1.1-0.6,1.5s-1,0.5-1.6,0.5c-0.7,0-1.2-0.2-1.6-0.5c-0.4-0.4-0.6-0.9-0.6-1.5c0-0.4,0.1-0.7,0.3-1s0.5-0.5,0.9-0.7
		c-0.3-0.2-0.6-0.4-0.7-0.6c-0.2-0.3-0.3-0.6-0.3-0.9c0-0.6,0.2-1.1,0.6-1.4c0.4-0.4,0.9-0.5,1.5-0.5c0.6,0,1.1,0.2,1.5,0.5
		S187.6,48.6,187.6,49.2z M186.8,52.5c0-0.4-0.1-0.7-0.4-1c-0.3-0.3-0.6-0.4-1-0.4c-0.4,0-0.7,0.1-1,0.4c-0.2,0.2-0.4,0.6-0.4,1
		s0.1,0.7,0.4,1s0.6,0.3,1,0.3c0.4,0,0.8-0.1,1-0.3C186.7,53.2,186.8,52.9,186.8,52.5z M185.5,48c-0.4,0-0.6,0.1-0.9,0.3
		c-0.2,0.2-0.3,0.5-0.3,0.9c0,0.4,0.1,0.7,0.3,0.9c0.2,0.2,0.5,0.3,0.9,0.3s0.7-0.1,0.9-0.3c0.2-0.2,0.3-0.5,0.3-0.9
		s-0.1-0.7-0.3-0.9S185.8,48,185.5,48z"/>
	<path class="st0" d="M191.9,54.4h-0.9v-6l-1.8,0.7v-0.8l2.6-1h0.1V54.4z"/>
</g>
<line class="st2" x1="0" y1="62.5" x2="195.9" y2="62.5"/>
<g>
	<path class="st0" d="M1.8,77.9h3.4v0.8H0.8v-7.1h0.9V77.9z"/>
	<path class="st0" d="M9.1,78.1c-0.4,0.4-0.9,0.6-1.5,0.6c-0.6,0-1-0.2-1.3-0.5c-0.3-0.3-0.4-0.8-0.4-1.5v-3.4h0.9v3.4
		c0,0.8,0.3,1.2,1,1.2c0.7,0,1.1-0.3,1.4-0.8v-3.8H10v5.3H9.1L9.1,78.1z"/>
	<path class="st0" d="M13.5,78c0.3,0,0.6-0.1,0.8-0.3c0.2-0.2,0.4-0.4,0.4-0.7h0.9c0,0.3-0.1,0.6-0.3,0.9c-0.2,0.3-0.4,0.5-0.8,0.7
		c-0.3,0.2-0.7,0.2-1,0.2c-0.7,0-1.3-0.2-1.7-0.7c-0.4-0.5-0.6-1.1-0.6-2v-0.2c0-0.5,0.1-1,0.3-1.4c0.2-0.4,0.5-0.7,0.8-0.9
		c0.4-0.2,0.8-0.3,1.3-0.3c0.6,0,1.1,0.2,1.5,0.5c0.4,0.4,0.6,0.8,0.6,1.4h-0.9c0-0.3-0.2-0.6-0.4-0.8c-0.2-0.2-0.5-0.3-0.9-0.3
		c-0.5,0-0.8,0.2-1.1,0.5c-0.3,0.3-0.4,0.8-0.4,1.4v0.2c0,0.6,0.1,1.1,0.4,1.4C12.7,77.8,13,78,13.5,78z"/>
	<path class="st0" d="M19.2,74.2c-0.1,0-0.3,0-0.4,0c-0.6,0-1,0.3-1.2,0.8v3.8h-0.9v-5.3h0.9l0,0.6c0.3-0.5,0.7-0.7,1.3-0.7
		c0.2,0,0.3,0,0.4,0.1V74.2z"/>
	<path class="st0" d="M19.7,76c0-0.5,0.1-1,0.3-1.4c0.2-0.4,0.5-0.7,0.8-1c0.4-0.2,0.8-0.3,1.2-0.3c0.7,0,1.3,0.2,1.7,0.7
		s0.7,1.2,0.7,2v0.1c0,0.5-0.1,1-0.3,1.4c-0.2,0.4-0.5,0.7-0.8,1s-0.8,0.3-1.3,0.3c-0.7,0-1.3-0.2-1.7-0.7S19.7,76.8,19.7,76
		L19.7,76z M20.6,76.1c0,0.6,0.1,1.1,0.4,1.4c0.3,0.4,0.6,0.5,1.1,0.5c0.5,0,0.8-0.2,1.1-0.5c0.3-0.4,0.4-0.9,0.4-1.5
		c0-0.6-0.1-1-0.4-1.4c-0.3-0.4-0.6-0.5-1.1-0.5c-0.4,0-0.8,0.2-1.1,0.5S20.6,75.4,20.6,76.1z"/>
	<path class="st0" d="M28.2,78.6v-7.1h2.3c0.8,0,1.4,0.2,1.7,0.5c0.4,0.3,0.6,0.8,0.6,1.4c0,0.3-0.1,0.6-0.3,0.9
		c-0.2,0.3-0.4,0.5-0.8,0.6c0.4,0.1,0.7,0.3,0.9,0.6c0.2,0.3,0.3,0.7,0.3,1.1c0,0.6-0.2,1.1-0.6,1.5c-0.4,0.4-1,0.5-1.8,0.5H28.2z
		 M29.2,74.6h1.4c0.4,0,0.7-0.1,1-0.3c0.2-0.2,0.4-0.5,0.4-0.8c0-0.4-0.1-0.7-0.3-0.9c-0.2-0.2-0.6-0.3-1-0.3h-1.4V74.6z M29.2,75.3
		v2.6h1.5c0.4,0,0.8-0.1,1-0.3c0.3-0.2,0.4-0.5,0.4-0.9c0-0.9-0.5-1.3-1.4-1.3H29.2z"/>
	<path class="st0" d="M36.9,74.2c-0.1,0-0.3,0-0.4,0c-0.6,0-1,0.3-1.2,0.8v3.8h-0.9v-5.3h0.9l0,0.6c0.3-0.5,0.7-0.7,1.3-0.7
		c0.2,0,0.3,0,0.4,0.1V74.2z"/>
	<path class="st0" d="M40.9,78.1c-0.4,0.4-0.9,0.6-1.5,0.6c-0.6,0-1-0.2-1.3-0.5c-0.3-0.3-0.4-0.8-0.4-1.5v-3.4h0.9v3.4
		c0,0.8,0.3,1.2,1,1.2c0.7,0,1.1-0.3,1.4-0.8v-3.8h0.9v5.3H41L40.9,78.1z"/>
	<path class="st0" d="M44.4,72.1v1.3h1v0.7h-1v3.3c0,0.2,0,0.4,0.1,0.5c0.1,0.1,0.2,0.2,0.4,0.2c0.1,0,0.2,0,0.4-0.1v0.7
		c-0.2,0.1-0.5,0.1-0.7,0.1c-0.4,0-0.7-0.1-0.9-0.4s-0.3-0.6-0.3-1v-3.3h-1v-0.7h1v-1.3H44.4z"/>
	<path class="st0" d="M46.1,76c0-0.5,0.1-1,0.3-1.4c0.2-0.4,0.5-0.7,0.8-1c0.4-0.2,0.8-0.3,1.2-0.3c0.7,0,1.3,0.2,1.7,0.7
		s0.7,1.2,0.7,2v0.1c0,0.5-0.1,1-0.3,1.4c-0.2,0.4-0.5,0.7-0.8,1s-0.8,0.3-1.3,0.3c-0.7,0-1.3-0.2-1.7-0.7S46.1,76.8,46.1,76
		L46.1,76z M47,76.1c0,0.6,0.1,1.1,0.4,1.4c0.3,0.4,0.6,0.5,1.1,0.5c0.5,0,0.8-0.2,1.1-0.5c0.3-0.4,0.4-0.9,0.4-1.5
		c0-0.6-0.1-1-0.4-1.4C49.4,74.2,49,74,48.5,74c-0.4,0-0.8,0.2-1.1,0.5S47,75.4,47,76.1z"/>
</g>
<g>
	<path class="st0" d="M178.7,78.6h-0.9v-6l-1.8,0.7v-0.8l2.6-1h0.1V78.6z"/>
	<path class="st0" d="M181.4,80.1l-0.5-0.4c0.3-0.4,0.5-0.9,0.5-1.3v-0.8h0.9v0.7c0,0.3-0.1,0.7-0.2,1S181.6,79.9,181.4,80.1z"/>
	<path class="st0" d="M187.9,78.6h-4.7V78l2.5-2.7c0.4-0.4,0.6-0.7,0.8-1c0.1-0.3,0.2-0.5,0.2-0.8c0-0.4-0.1-0.7-0.3-0.9
		s-0.5-0.4-0.9-0.4c-0.4,0-0.8,0.1-1,0.4c-0.2,0.3-0.4,0.6-0.4,1.1h-0.9c0-0.7,0.2-1.2,0.6-1.6c0.4-0.4,1-0.6,1.7-0.6
		c0.7,0,1.2,0.2,1.6,0.5c0.4,0.3,0.6,0.8,0.6,1.4c0,0.7-0.4,1.5-1.3,2.5l-1.9,2.1h3.6V78.6z"/>
	<path class="st0" d="M192.4,75.5c-0.2,0.2-0.4,0.4-0.7,0.5c-0.3,0.1-0.5,0.2-0.9,0.2c-0.4,0-0.8-0.1-1.1-0.3
		c-0.3-0.2-0.5-0.5-0.7-0.9c-0.2-0.4-0.2-0.8-0.2-1.2c0-0.5,0.1-0.9,0.3-1.3s0.4-0.7,0.8-0.9s0.7-0.3,1.2-0.3c0.7,0,1.3,0.3,1.7,0.8
		c0.4,0.5,0.6,1.2,0.6,2.2v0.3c0,1.4-0.3,2.4-0.8,3c-0.5,0.6-1.4,1-2.5,1h-0.2v-0.8h0.2c0.7,0,1.3-0.2,1.7-0.6
		S192.3,76.3,192.4,75.5z M191,75.5c0.3,0,0.6-0.1,0.8-0.3c0.3-0.2,0.4-0.4,0.6-0.7v-0.4c0-0.6-0.1-1.1-0.4-1.4
		c-0.3-0.4-0.6-0.6-1-0.6c-0.4,0-0.7,0.2-1,0.5c-0.2,0.3-0.4,0.7-0.4,1.2c0,0.5,0.1,0.9,0.3,1.2C190.3,75.4,190.6,75.5,191,75.5z"/>
</g>
<line class="st2" x1="0" y1="86.8" x2="195.9" y2="86.8"/>
<g>
	<path class="st0" d="M6.1,100.6c-0.1,0.8-0.4,1.3-0.8,1.7c-0.5,0.4-1.1,0.6-1.9,0.6c-0.8,0-1.5-0.3-2-0.9c-0.5-0.6-0.8-1.4-0.8-2.4
		V99c0-0.7,0.1-1.2,0.4-1.7c0.2-0.5,0.6-0.9,1-1.2c0.4-0.3,0.9-0.4,1.5-0.4c0.8,0,1.4,0.2,1.8,0.6c0.5,0.4,0.7,1,0.8,1.8H5.1
		c-0.1-0.6-0.3-1-0.5-1.2c-0.3-0.3-0.7-0.4-1.1-0.4c-0.6,0-1.1,0.2-1.4,0.7c-0.3,0.4-0.5,1.1-0.5,1.9v0.7c0,0.8,0.2,1.4,0.5,1.8
		c0.3,0.5,0.8,0.7,1.4,0.7c0.5,0,0.9-0.1,1.2-0.4c0.3-0.2,0.5-0.6,0.6-1.2H6.1z"/>
	<path class="st0" d="M7,100.2c0-0.5,0.1-1,0.3-1.4c0.2-0.4,0.5-0.7,0.8-1c0.4-0.2,0.8-0.3,1.2-0.3c0.7,0,1.3,0.2,1.7,0.7
		s0.7,1.2,0.7,2v0.1c0,0.5-0.1,1-0.3,1.4c-0.2,0.4-0.5,0.7-0.8,1c-0.4,0.2-0.8,0.3-1.3,0.3c-0.7,0-1.3-0.2-1.7-0.7S7,101.1,7,100.2
		L7,100.2z M7.9,100.3c0,0.6,0.1,1.1,0.4,1.4c0.3,0.4,0.6,0.5,1.1,0.5c0.5,0,0.8-0.2,1.1-0.5c0.3-0.4,0.4-0.9,0.4-1.5
		c0-0.6-0.1-1-0.4-1.4c-0.3-0.4-0.6-0.5-1.1-0.5c-0.4,0-0.8,0.2-1.1,0.5C8,99.1,7.9,99.6,7.9,100.3z"/>
	<path class="st0" d="M13.7,97.6l0,0.6c0.4-0.5,0.9-0.7,1.6-0.7c0.7,0,1.2,0.3,1.5,0.8c0.2-0.3,0.4-0.5,0.7-0.6
		c0.3-0.2,0.6-0.2,1-0.2c1.2,0,1.7,0.6,1.8,1.8v3.5h-0.9v-3.5c0-0.4-0.1-0.7-0.3-0.8c-0.2-0.2-0.5-0.3-0.9-0.3
		c-0.3,0-0.6,0.1-0.8,0.3c-0.2,0.2-0.3,0.5-0.4,0.8v3.5h-0.9v-3.5c0-0.8-0.4-1.2-1.1-1.2c-0.6,0-1,0.3-1.2,0.8v3.9h-0.9v-5.3H13.7z"
		/>
	<path class="st0" d="M23.9,103c-0.7,0-1.3-0.2-1.7-0.7s-0.7-1.1-0.7-1.9v-0.2c0-0.5,0.1-1,0.3-1.4s0.5-0.7,0.8-1
		c0.4-0.2,0.7-0.3,1.2-0.3c0.7,0,1.2,0.2,1.6,0.7c0.4,0.5,0.6,1.1,0.6,1.9v0.4h-3.6c0,0.5,0.2,0.9,0.5,1.3c0.3,0.3,0.7,0.5,1.1,0.5
		c0.3,0,0.6-0.1,0.8-0.2c0.2-0.1,0.4-0.3,0.6-0.5l0.6,0.4C25.4,102.6,24.7,103,23.9,103z M23.7,98.2c-0.4,0-0.7,0.1-0.9,0.4
		c-0.2,0.3-0.4,0.6-0.5,1.1H25v-0.1c0-0.5-0.1-0.8-0.4-1.1C24.4,98.3,24.1,98.2,23.7,98.2z"/>
	<path class="st0" d="M29.5,98.4c-0.1,0-0.3,0-0.4,0c-0.6,0-1,0.3-1.2,0.8v3.8H27v-5.3h0.9l0,0.6c0.3-0.5,0.7-0.7,1.3-0.7
		c0.2,0,0.3,0,0.4,0.1V98.4z"/>
	<path class="st0" d="M32.4,102.2c0.3,0,0.6-0.1,0.8-0.3c0.2-0.2,0.4-0.4,0.4-0.7h0.9c0,0.3-0.1,0.6-0.3,0.9
		c-0.2,0.3-0.4,0.5-0.8,0.7c-0.3,0.2-0.7,0.2-1,0.2c-0.7,0-1.3-0.2-1.7-0.7c-0.4-0.5-0.6-1.1-0.6-2v-0.2c0-0.5,0.1-1,0.3-1.4
		c0.2-0.4,0.5-0.7,0.8-0.9c0.4-0.2,0.8-0.3,1.3-0.3c0.6,0,1.1,0.2,1.5,0.5c0.4,0.4,0.6,0.8,0.6,1.4h-0.9c0-0.3-0.2-0.6-0.4-0.8
		c-0.2-0.2-0.5-0.3-0.9-0.3c-0.5,0-0.8,0.2-1.1,0.5c-0.3,0.3-0.4,0.8-0.4,1.4v0.2c0,0.6,0.1,1.1,0.4,1.4
		C31.6,102.1,31.9,102.2,32.4,102.2z"/>
	<path class="st0" d="M35.5,96.2c0-0.1,0-0.3,0.1-0.4c0.1-0.1,0.2-0.2,0.4-0.2s0.3,0.1,0.4,0.2c0.1,0.1,0.1,0.2,0.1,0.4
		s0,0.3-0.1,0.4c-0.1,0.1-0.2,0.1-0.4,0.1s-0.3,0-0.4-0.1C35.5,96.4,35.5,96.3,35.5,96.2z M36.5,102.9h-0.9v-5.3h0.9V102.9z"/>
	<path class="st0" d="M41.2,102.9c-0.1-0.1-0.1-0.3-0.1-0.6c-0.4,0.4-0.9,0.7-1.5,0.7c-0.5,0-0.9-0.1-1.3-0.4
		c-0.3-0.3-0.5-0.7-0.5-1.1c0-0.5,0.2-1,0.6-1.3c0.4-0.3,1-0.5,1.8-0.5H41v-0.4c0-0.3-0.1-0.6-0.3-0.8c-0.2-0.2-0.5-0.3-0.8-0.3
		c-0.3,0-0.6,0.1-0.8,0.2c-0.2,0.2-0.3,0.4-0.3,0.6h-0.9c0-0.3,0.1-0.5,0.3-0.8c0.2-0.2,0.4-0.4,0.8-0.6c0.3-0.1,0.7-0.2,1.1-0.2
		c0.6,0,1.1,0.2,1.4,0.5c0.3,0.3,0.5,0.7,0.5,1.3v2.4c0,0.5,0.1,0.9,0.2,1.2v0.1H41.2z M39.7,102.2c0.3,0,0.6-0.1,0.8-0.2
		s0.4-0.3,0.6-0.6v-1.1h-0.7c-1.1,0-1.7,0.3-1.7,1c0,0.3,0.1,0.5,0.3,0.7C39.1,102.1,39.4,102.2,39.7,102.2z"/>
	<path class="st0" d="M44.3,102.9h-0.9v-7.5h0.9V102.9z"/>
	<path class="st0" d="M50.5,103c-0.7,0-1.3-0.2-1.7-0.7s-0.7-1.1-0.7-1.9v-0.2c0-0.5,0.1-1,0.3-1.4s0.5-0.7,0.8-1
		c0.4-0.2,0.7-0.3,1.2-0.3c0.7,0,1.2,0.2,1.6,0.7c0.4,0.5,0.6,1.1,0.6,1.9v0.4h-3.6c0,0.5,0.2,0.9,0.5,1.3c0.3,0.3,0.7,0.5,1.1,0.5
		c0.3,0,0.6-0.1,0.8-0.2c0.2-0.1,0.4-0.3,0.6-0.5l0.6,0.4C52,102.6,51.3,103,50.5,103z M50.3,98.2c-0.4,0-0.7,0.1-0.9,0.4
		c-0.2,0.3-0.4,0.6-0.5,1.1h2.6v-0.1c0-0.5-0.1-0.8-0.4-1.1C51,98.3,50.7,98.2,50.3,98.2z"/>
	<path class="st0" d="M61.4,101.9c-0.2,0.3-0.6,0.6-1,0.8c-0.4,0.2-0.9,0.3-1.5,0.3c-0.6,0-1.1-0.1-1.5-0.4c-0.4-0.3-0.8-0.7-1-1.2
		c-0.2-0.5-0.4-1.1-0.4-1.7V99c0-1.1,0.2-1.9,0.8-2.5c0.5-0.6,1.2-0.9,2.1-0.9c0.7,0,1.3,0.2,1.8,0.6c0.5,0.4,0.7,0.9,0.8,1.6h-0.9
		c-0.2-0.9-0.7-1.4-1.7-1.4c-0.6,0-1.1,0.2-1.4,0.7c-0.3,0.4-0.5,1.1-0.5,1.9v0.6c0,0.8,0.2,1.4,0.5,1.9c0.4,0.5,0.9,0.7,1.5,0.7
		c0.4,0,0.7,0,0.9-0.1s0.5-0.2,0.7-0.4v-1.6h-1.6v-0.8h2.6V101.9z"/>
	<path class="st0" d="M65,103c-0.7,0-1.3-0.2-1.7-0.7s-0.7-1.1-0.7-1.9v-0.2c0-0.5,0.1-1,0.3-1.4s0.5-0.7,0.8-1
		c0.4-0.2,0.7-0.3,1.2-0.3c0.7,0,1.2,0.2,1.6,0.7c0.4,0.5,0.6,1.1,0.6,1.9v0.4h-3.6c0,0.5,0.2,0.9,0.5,1.3c0.3,0.3,0.7,0.5,1.1,0.5
		c0.3,0,0.6-0.1,0.8-0.2c0.2-0.1,0.4-0.3,0.6-0.5l0.6,0.4C66.6,102.6,65.9,103,65,103z M64.9,98.2c-0.4,0-0.7,0.1-0.9,0.4
		c-0.2,0.3-0.4,0.6-0.5,1.1h2.6v-0.1c0-0.5-0.1-0.8-0.4-1.1C65.6,98.3,65.3,98.2,64.9,98.2z"/>
	<path class="st0" d="M71.2,101.5c0-0.2-0.1-0.4-0.3-0.6c-0.2-0.1-0.5-0.2-1-0.3c-0.5-0.1-0.8-0.2-1.1-0.4s-0.5-0.3-0.6-0.5
		c-0.1-0.2-0.2-0.4-0.2-0.7c0-0.4,0.2-0.8,0.5-1.1c0.4-0.3,0.8-0.4,1.4-0.4c0.6,0,1.1,0.2,1.5,0.5c0.4,0.3,0.6,0.7,0.6,1.2h-0.9
		c0-0.2-0.1-0.5-0.3-0.6c-0.2-0.2-0.5-0.3-0.8-0.3c-0.3,0-0.6,0.1-0.8,0.2C69.1,98.6,69,98.8,69,99c0,0.2,0.1,0.4,0.3,0.5
		c0.2,0.1,0.5,0.2,0.9,0.3c0.5,0.1,0.8,0.2,1.1,0.4c0.3,0.1,0.5,0.3,0.6,0.5c0.1,0.2,0.2,0.4,0.2,0.7c0,0.5-0.2,0.9-0.6,1.1
		c-0.4,0.3-0.9,0.4-1.5,0.4c-0.4,0-0.8-0.1-1.1-0.2c-0.3-0.1-0.6-0.4-0.8-0.6c-0.2-0.3-0.3-0.6-0.3-0.9h0.9c0,0.3,0.1,0.5,0.4,0.7
		c0.2,0.2,0.5,0.3,0.9,0.3c0.3,0,0.6-0.1,0.8-0.2C71.1,101.9,71.2,101.7,71.2,101.5z"/>
	<path class="st0" d="M74.5,96.3v1.3h1v0.7h-1v3.3c0,0.2,0,0.4,0.1,0.5c0.1,0.1,0.2,0.2,0.4,0.2c0.1,0,0.2,0,0.4-0.1v0.7
		c-0.2,0.1-0.5,0.1-0.7,0.1c-0.4,0-0.7-0.1-0.9-0.4s-0.3-0.6-0.3-1v-3.3h-1v-0.7h1v-1.3H74.5z"/>
	<path class="st0" d="M79.8,102.9c-0.1-0.1-0.1-0.3-0.1-0.6c-0.4,0.4-0.9,0.7-1.5,0.7c-0.5,0-0.9-0.1-1.3-0.4
		c-0.3-0.3-0.5-0.7-0.5-1.1c0-0.5,0.2-1,0.6-1.3c0.4-0.3,1-0.5,1.8-0.5h0.9v-0.4c0-0.3-0.1-0.6-0.3-0.8c-0.2-0.2-0.5-0.3-0.8-0.3
		c-0.3,0-0.6,0.1-0.8,0.2c-0.2,0.2-0.3,0.4-0.3,0.6h-0.9c0-0.3,0.1-0.5,0.3-0.8c0.2-0.2,0.4-0.4,0.8-0.6c0.3-0.1,0.7-0.2,1.1-0.2
		c0.6,0,1.1,0.2,1.4,0.5c0.3,0.3,0.5,0.7,0.5,1.3v2.4c0,0.5,0.1,0.9,0.2,1.2v0.1H79.8z M80.5,95.5c0,0.4-0.1,0.6-0.3,0.9
		c-0.2,0.2-0.5,0.3-0.8,0.3c-0.1,0-0.2,0-0.3,0c-0.1,0-0.2-0.1-0.4-0.2c-0.2-0.1-0.3-0.2-0.3-0.2c-0.1,0-0.2,0-0.2,0
		c-0.1,0-0.2,0.1-0.3,0.2c-0.1,0.1-0.1,0.2-0.1,0.4l-0.6,0c0-0.3,0.1-0.6,0.3-0.9c0.2-0.2,0.4-0.3,0.7-0.3c0.1,0,0.2,0,0.3,0
		c0.1,0,0.2,0.1,0.4,0.2c0.2,0.1,0.3,0.2,0.4,0.2s0.2,0,0.3,0c0.1,0,0.3-0.1,0.3-0.2c0.1-0.1,0.1-0.2,0.1-0.4L80.5,95.5z
		 M78.3,102.2c0.3,0,0.6-0.1,0.8-0.2s0.4-0.3,0.6-0.6v-1.1H79c-1.1,0-1.7,0.3-1.7,1c0,0.3,0.1,0.5,0.3,0.7
		C77.8,102.1,78,102.2,78.3,102.2z"/>
	<path class="st0" d="M81.8,100.2c0-0.5,0.1-1,0.3-1.4c0.2-0.4,0.5-0.7,0.8-1c0.4-0.2,0.8-0.3,1.2-0.3c0.7,0,1.3,0.2,1.7,0.7
		s0.7,1.2,0.7,2v0.1c0,0.5-0.1,1-0.3,1.4c-0.2,0.4-0.5,0.7-0.8,1c-0.4,0.2-0.8,0.3-1.3,0.3c-0.7,0-1.3-0.2-1.7-0.7
		S81.8,101.1,81.8,100.2L81.8,100.2z M82.7,100.3c0,0.6,0.1,1.1,0.4,1.4c0.3,0.4,0.6,0.5,1.1,0.5c0.5,0,0.8-0.2,1.1-0.5
		c0.3-0.4,0.4-0.9,0.4-1.5c0-0.6-0.1-1-0.4-1.4c-0.3-0.4-0.6-0.5-1.1-0.5c-0.4,0-0.8,0.2-1.1,0.5C82.8,99.1,82.7,99.6,82.7,100.3z"
		/>
</g>
<g>
	<path class="st0" d="M172.4,100.2h-2.4v-0.7h2.4V100.2z"/>
	<path class="st0" d="M178.7,102.9h-0.9v-6l-1.8,0.7v-0.8l2.6-1h0.1V102.9z"/>
	<path class="st0" d="M181.4,104.3l-0.5-0.4c0.3-0.4,0.5-0.9,0.5-1.3v-0.8h0.9v0.7c0,0.3-0.1,0.7-0.2,1
		C181.8,103.8,181.6,104.1,181.4,104.3z"/>
	<path class="st0" d="M186.2,102.9h-0.9v-6l-1.8,0.7v-0.8l2.6-1h0.1V102.9z"/>
	<path class="st0" d="M190.2,98.9h0.7c0.4,0,0.8-0.1,1-0.3c0.2-0.2,0.4-0.5,0.4-0.9c0-0.8-0.4-1.2-1.2-1.2c-0.4,0-0.7,0.1-0.9,0.3
		c-0.2,0.2-0.3,0.5-0.3,0.9h-0.9c0-0.6,0.2-1,0.6-1.4c0.4-0.4,0.9-0.6,1.6-0.6c0.7,0,1.2,0.2,1.6,0.5c0.4,0.4,0.6,0.8,0.6,1.5
		c0,0.3-0.1,0.6-0.3,0.9c-0.2,0.3-0.5,0.5-0.8,0.7c0.4,0.1,0.7,0.3,0.9,0.6c0.2,0.3,0.3,0.6,0.3,1c0,0.6-0.2,1.1-0.6,1.5
		c-0.4,0.4-1,0.6-1.6,0.6c-0.7,0-1.2-0.2-1.6-0.5c-0.4-0.4-0.6-0.8-0.6-1.4h0.9c0,0.4,0.1,0.7,0.4,0.9s0.6,0.3,1,0.3
		c0.4,0,0.8-0.1,1-0.3c0.2-0.2,0.3-0.6,0.3-1c0-0.4-0.1-0.7-0.4-1c-0.3-0.2-0.6-0.3-1.1-0.3h-0.7V98.9z"/>
</g>
<line class="st2" x1="0" y1="111" x2="195.9" y2="111"/>
<g>
	<path class="st0" d="M4.8,123.8H1.8v2.5h3.6v0.8H0.8V120h4.5v0.8H1.8v2.3h3.1V123.8z"/>
	<path class="st0" d="M6.5,127.1V120h2.3c0.8,0,1.4,0.2,1.7,0.5c0.4,0.3,0.6,0.8,0.6,1.4c0,0.3-0.1,0.6-0.3,0.9
		c-0.2,0.3-0.4,0.5-0.8,0.6c0.4,0.1,0.7,0.3,0.9,0.6c0.2,0.3,0.3,0.7,0.3,1.1c0,0.6-0.2,1.1-0.6,1.5c-0.4,0.4-1,0.5-1.8,0.5H6.5z
		 M7.4,123h1.4c0.4,0,0.7-0.1,1-0.3c0.2-0.2,0.4-0.5,0.4-0.8c0-0.4-0.1-0.7-0.3-0.9c-0.2-0.2-0.6-0.3-1-0.3H7.4V123z M7.4,123.8v2.6
		H9c0.4,0,0.8-0.1,1-0.3c0.3-0.2,0.4-0.5,0.4-0.9c0-0.9-0.5-1.3-1.4-1.3H7.4z"/>
	<path class="st0" d="M13.7,127.1h-0.9V120h0.9V127.1z"/>
	<path class="st0" d="M20.2,120.7h-2.3v6.3H17v-6.3h-2.3V120h5.5V120.7z"/>
	<path class="st0" d="M22.3,127.1h-0.9V120h0.9V127.1z"/>
	<path class="st0" d="M24,127.1V120h2c0.6,0,1.2,0.1,1.6,0.4c0.5,0.3,0.8,0.7,1.1,1.2c0.3,0.5,0.4,1.1,0.4,1.7v0.5
		c0,0.7-0.1,1.3-0.4,1.8c-0.3,0.5-0.6,0.9-1.1,1.2c-0.5,0.3-1,0.4-1.7,0.4H24z M24.9,120.7v5.6h1c0.7,0,1.3-0.2,1.7-0.7
		c0.4-0.4,0.6-1.1,0.6-1.9v-0.4c0-0.8-0.2-1.4-0.6-1.9c-0.4-0.4-0.9-0.7-1.6-0.7H24.9z"/>
	<path class="st0" d="M34.4,125.2h-3l-0.7,1.9h-1l2.7-7.1h0.8l2.7,7.1h-1L34.4,125.2z M31.7,124.4h2.4l-1.2-3.3L31.7,124.4z"/>
</g>
<g>
	<path class="st0" d="M180.2,124c0,1.1-0.2,1.8-0.5,2.4c-0.4,0.5-0.9,0.8-1.7,0.8c-0.8,0-1.3-0.3-1.7-0.8c-0.4-0.5-0.6-1.3-0.6-2.3
		V123c0-1,0.2-1.8,0.5-2.3s0.9-0.8,1.7-0.8c0.8,0,1.3,0.2,1.7,0.7c0.4,0.5,0.5,1.2,0.6,2.3V124z M179.3,122.8c0-0.8-0.1-1.3-0.3-1.7
		s-0.6-0.5-1-0.5c-0.5,0-0.8,0.2-1,0.5c-0.2,0.3-0.3,0.9-0.3,1.6v1.4c0,0.8,0.1,1.3,0.3,1.7c0.2,0.4,0.6,0.6,1,0.6
		c0.4,0,0.8-0.2,1-0.5c0.2-0.3,0.3-0.9,0.3-1.6V122.8z"/>
	<path class="st0" d="M181.4,128.5l-0.5-0.4c0.3-0.4,0.5-0.9,0.5-1.3V126h0.9v0.7c0,0.3-0.1,0.7-0.2,1
		C181.8,128,181.6,128.3,181.4,128.5z"/>
	<path class="st0" d="M186.2,127.1h-0.9v-6l-1.8,0.7v-0.8l2.6-1h0.1V127.1z"/>
	<path class="st0" d="M192.4,120v0.8h-0.2c-0.7,0-1.3,0.2-1.7,0.6c-0.4,0.4-0.7,1-0.7,1.7c0.4-0.4,0.9-0.6,1.5-0.6
		c0.6,0,1.1,0.2,1.5,0.7c0.4,0.4,0.6,1,0.6,1.7c0,0.7-0.2,1.3-0.6,1.8c-0.4,0.4-0.9,0.7-1.6,0.7c-0.7,0-1.2-0.3-1.7-0.8
		c-0.4-0.5-0.6-1.2-0.6-2V124c0-1.3,0.3-2.3,0.8-3c0.6-0.7,1.4-1,2.5-1.1H192.4z M191.2,123.2c-0.3,0-0.6,0.1-0.9,0.3
		c-0.3,0.2-0.4,0.4-0.5,0.7v0.3c0,0.6,0.1,1.1,0.4,1.4c0.3,0.4,0.6,0.5,1,0.5c0.4,0,0.7-0.2,1-0.4c0.2-0.3,0.3-0.7,0.3-1.2
		c0-0.5-0.1-0.9-0.4-1.2C192,123.3,191.6,123.2,191.2,123.2z"/>
</g>
<line class="st2" x1="0" y1="135.2" x2="195.9" y2="135.2"/>
<g>
	<path class="st0" d="M0.8,151.3v-7.1h2c0.6,0,1.2,0.1,1.6,0.4c0.5,0.3,0.8,0.7,1.1,1.2c0.3,0.5,0.4,1.1,0.4,1.7v0.5
		c0,0.7-0.1,1.3-0.4,1.8c-0.3,0.5-0.6,0.9-1.1,1.2c-0.5,0.3-1,0.4-1.7,0.4H0.8z M1.8,145v5.6h1c0.7,0,1.3-0.2,1.7-0.7
		c0.4-0.4,0.6-1.1,0.6-1.9v-0.4c0-0.8-0.2-1.4-0.6-1.9c-0.4-0.4-0.9-0.7-1.6-0.7H1.8z"/>
	<path class="st0" d="M9.4,151.4c-0.7,0-1.3-0.2-1.7-0.7c-0.4-0.5-0.7-1.1-0.7-1.9v-0.2c0-0.5,0.1-1,0.3-1.4c0.2-0.4,0.5-0.7,0.8-1
		c0.4-0.2,0.7-0.3,1.2-0.3c0.7,0,1.2,0.2,1.6,0.7c0.4,0.5,0.6,1.1,0.6,1.9v0.4H7.9c0,0.5,0.2,0.9,0.5,1.3c0.3,0.3,0.7,0.5,1.1,0.5
		c0.3,0,0.6-0.1,0.8-0.2c0.2-0.1,0.4-0.3,0.6-0.5l0.6,0.4C11,151.1,10.3,151.4,9.4,151.4z M9.3,146.7c-0.4,0-0.7,0.1-0.9,0.4
		c-0.2,0.3-0.4,0.6-0.5,1.1h2.6v-0.1c0-0.5-0.1-0.8-0.4-1.1C10,146.8,9.7,146.7,9.3,146.7z"/>
	<path class="st0" d="M17,148.7c0,0.8-0.2,1.5-0.6,1.9c-0.4,0.5-0.9,0.7-1.5,0.7c-0.6,0-1.1-0.2-1.5-0.6v2.5h-0.9V146h0.8l0,0.6
		c0.4-0.5,0.9-0.7,1.5-0.7c0.6,0,1.1,0.2,1.5,0.7C16.8,147.1,17,147.8,17,148.7L17,148.7z M16.1,148.6c0-0.6-0.1-1.1-0.4-1.4
		c-0.3-0.3-0.6-0.5-1-0.5c-0.5,0-1,0.2-1.2,0.7v2.5c0.3,0.5,0.7,0.7,1.2,0.7c0.4,0,0.8-0.2,1-0.5C16,149.8,16.1,149.3,16.1,148.6z"
		/>
	<path class="st0" d="M20.7,146.8c-0.1,0-0.3,0-0.4,0c-0.6,0-1,0.3-1.2,0.8v3.8h-0.9V146H19l0,0.6c0.3-0.5,0.7-0.7,1.3-0.7
		c0.2,0,0.3,0,0.4,0.1V146.8z"/>
	<path class="st0" d="M23.6,151.4c-0.7,0-1.3-0.2-1.7-0.7c-0.4-0.5-0.7-1.1-0.7-1.9v-0.2c0-0.5,0.1-1,0.3-1.4c0.2-0.4,0.5-0.7,0.8-1
		c0.4-0.2,0.7-0.3,1.2-0.3c0.7,0,1.2,0.2,1.6,0.7c0.4,0.5,0.6,1.1,0.6,1.9v0.4h-3.6c0,0.5,0.2,0.9,0.5,1.3c0.3,0.3,0.7,0.5,1.1,0.5
		c0.3,0,0.6-0.1,0.8-0.2c0.2-0.1,0.4-0.3,0.6-0.5l0.6,0.4C25.2,151.1,24.5,151.4,23.6,151.4z M23.5,146.7c-0.4,0-0.7,0.1-0.9,0.4
		c-0.2,0.3-0.4,0.6-0.5,1.1h2.6v-0.1c0-0.5-0.1-0.8-0.4-1.1C24.2,146.8,23.9,146.7,23.5,146.7z"/>
	<path class="st0" d="M28.9,150.7c0.3,0,0.6-0.1,0.8-0.3c0.2-0.2,0.4-0.4,0.4-0.7H31c0,0.3-0.1,0.6-0.3,0.9
		c-0.2,0.3-0.4,0.5-0.8,0.7c-0.3,0.2-0.7,0.2-1,0.2c-0.7,0-1.3-0.2-1.7-0.7s-0.6-1.1-0.6-2v-0.2c0-0.5,0.1-1,0.3-1.4
		c0.2-0.4,0.5-0.7,0.8-0.9c0.4-0.2,0.8-0.3,1.3-0.3c0.6,0,1.1,0.2,1.5,0.5c0.4,0.4,0.6,0.8,0.6,1.4h-0.9c0-0.3-0.2-0.6-0.4-0.8
		c-0.2-0.2-0.5-0.3-0.9-0.3c-0.5,0-0.8,0.2-1.1,0.5c-0.3,0.3-0.4,0.8-0.4,1.4v0.2c0,0.6,0.1,1.1,0.4,1.4
		C28,150.5,28.4,150.7,28.9,150.7z"/>
	<path class="st0" d="M32,144.6c0-0.1,0-0.3,0.1-0.4c0.1-0.1,0.2-0.2,0.4-0.2s0.3,0.1,0.4,0.2c0.1,0.1,0.1,0.2,0.1,0.4
		s0,0.3-0.1,0.4c-0.1,0.1-0.2,0.1-0.4,0.1s-0.3,0-0.4-0.1C32,144.9,32,144.8,32,144.6z M33,151.3h-0.9V146H33V151.3z"/>
	<path class="st0" d="M37.7,151.3c-0.1-0.1-0.1-0.3-0.1-0.6c-0.4,0.4-0.9,0.7-1.5,0.7c-0.5,0-0.9-0.1-1.3-0.4
		c-0.3-0.3-0.5-0.7-0.5-1.1c0-0.6,0.2-1,0.6-1.3c0.4-0.3,1-0.5,1.8-0.5h0.9v-0.4c0-0.3-0.1-0.6-0.3-0.8c-0.2-0.2-0.5-0.3-0.8-0.3
		c-0.3,0-0.6,0.1-0.8,0.2c-0.2,0.2-0.3,0.4-0.3,0.6h-0.9c0-0.3,0.1-0.5,0.3-0.8c0.2-0.2,0.4-0.4,0.8-0.6c0.3-0.1,0.7-0.2,1.1-0.2
		c0.6,0,1.1,0.2,1.4,0.5c0.3,0.3,0.5,0.7,0.5,1.3v2.4c0,0.5,0.1,0.9,0.2,1.2v0.1H37.7z M36.2,150.6c0.3,0,0.6-0.1,0.8-0.2
		s0.4-0.3,0.6-0.6v-1.1h-0.7c-1.1,0-1.7,0.3-1.7,1c0,0.3,0.1,0.5,0.3,0.7C35.6,150.5,35.9,150.6,36.2,150.6z"/>
	<path class="st0" d="M42,150.7c0.3,0,0.6-0.1,0.8-0.3c0.2-0.2,0.4-0.4,0.4-0.7h0.9c0,0.3-0.1,0.6-0.3,0.9c-0.2,0.3-0.4,0.5-0.8,0.7
		c-0.3,0.2-0.7,0.2-1,0.2c-0.7,0-1.3-0.2-1.7-0.7s-0.6-1.1-0.6-2v-0.2c0-0.5,0.1-1,0.3-1.4c0.2-0.4,0.5-0.7,0.8-0.9
		c0.4-0.2,0.8-0.3,1.3-0.3c0.6,0,1.1,0.2,1.5,0.5c0.4,0.4,0.6,0.8,0.6,1.4h-0.9c0-0.3-0.2-0.6-0.4-0.8c-0.2-0.2-0.5-0.3-0.9-0.3
		c-0.5,0-0.8,0.2-1.1,0.5c-0.3,0.3-0.4,0.8-0.4,1.4v0.2c0,0.6,0.1,1.1,0.4,1.4C41.1,150.5,41.5,150.7,42,150.7z M42.1,151.3
		l-0.1,0.3c0.5,0.1,0.7,0.4,0.7,0.8c0,0.3-0.1,0.6-0.4,0.8c-0.3,0.2-0.6,0.3-1.1,0.3l0-0.5c0.3,0,0.5,0,0.6-0.1
		c0.1-0.1,0.2-0.2,0.2-0.4c0-0.1-0.1-0.2-0.2-0.3c-0.1-0.1-0.3-0.1-0.6-0.1l0.2-0.7H42.1z"/>
	<path class="st0" d="M48.3,151.3c-0.1-0.1-0.1-0.3-0.1-0.6c-0.4,0.4-0.9,0.7-1.5,0.7c-0.5,0-0.9-0.1-1.3-0.4
		c-0.3-0.3-0.5-0.7-0.5-1.1c0-0.6,0.2-1,0.6-1.3c0.4-0.3,1-0.5,1.8-0.5h0.9v-0.4c0-0.3-0.1-0.6-0.3-0.8c-0.2-0.2-0.5-0.3-0.8-0.3
		c-0.3,0-0.6,0.1-0.8,0.2c-0.2,0.2-0.3,0.4-0.3,0.6H45c0-0.3,0.1-0.5,0.3-0.8c0.2-0.2,0.4-0.4,0.8-0.6c0.3-0.1,0.7-0.2,1.1-0.2
		c0.6,0,1.1,0.2,1.4,0.5c0.3,0.3,0.5,0.7,0.5,1.3v2.4c0,0.5,0.1,0.9,0.2,1.2v0.1H48.3z M49,144c0,0.4-0.1,0.6-0.3,0.9
		c-0.2,0.2-0.5,0.3-0.8,0.3c-0.1,0-0.2,0-0.3,0c-0.1,0-0.2-0.1-0.4-0.2c-0.2-0.1-0.3-0.2-0.3-0.2c-0.1,0-0.2,0-0.2,0
		c-0.1,0-0.2,0.1-0.3,0.2c-0.1,0.1-0.1,0.2-0.1,0.4l-0.6,0c0-0.3,0.1-0.6,0.3-0.9c0.2-0.2,0.4-0.3,0.7-0.3c0.1,0,0.2,0,0.3,0
		c0.1,0,0.2,0.1,0.4,0.2c0.2,0.1,0.3,0.2,0.4,0.2s0.2,0,0.3,0c0.1,0,0.3-0.1,0.3-0.2c0.1-0.1,0.1-0.2,0.1-0.4L49,144z M46.8,150.6
		c0.3,0,0.6-0.1,0.8-0.2s0.4-0.3,0.6-0.6v-1.1h-0.7c-1.1,0-1.7,0.3-1.7,1c0,0.3,0.1,0.5,0.3,0.7C46.3,150.5,46.5,150.6,46.8,150.6z"
		/>
	<path class="st0" d="M50.3,148.6c0-0.5,0.1-1,0.3-1.4c0.2-0.4,0.5-0.7,0.8-1c0.4-0.2,0.8-0.3,1.2-0.3c0.7,0,1.3,0.2,1.7,0.7
		s0.7,1.2,0.7,2v0.1c0,0.5-0.1,1-0.3,1.4c-0.2,0.4-0.5,0.7-0.8,1c-0.4,0.2-0.8,0.3-1.3,0.3c-0.7,0-1.3-0.2-1.7-0.7
		S50.3,149.5,50.3,148.6L50.3,148.6z M51.2,148.7c0,0.6,0.1,1.1,0.4,1.4c0.3,0.4,0.6,0.5,1.1,0.5c0.5,0,0.8-0.2,1.1-0.5
		c0.3-0.4,0.4-0.9,0.4-1.5c0-0.6-0.1-1-0.4-1.4c-0.3-0.4-0.6-0.5-1.1-0.5c-0.4,0-0.8,0.2-1.1,0.5C51.3,147.5,51.2,148.1,51.2,148.7z
		"/>
</g>
<g>
	<path class="st0" d="M172.4,148.6h-2.4v-0.7h2.4V148.6z"/>
	<path class="st0" d="M180.2,148.3c0,1.1-0.2,1.8-0.5,2.4c-0.4,0.5-0.9,0.8-1.7,0.8c-0.8,0-1.3-0.3-1.7-0.8
		c-0.4-0.5-0.6-1.3-0.6-2.3v-1.2c0-1,0.2-1.8,0.5-2.3s0.9-0.8,1.7-0.8c0.8,0,1.3,0.2,1.7,0.7s0.5,1.2,0.6,2.3V148.3z M179.3,147
		c0-0.8-0.1-1.3-0.3-1.7c-0.2-0.4-0.6-0.5-1-0.5c-0.5,0-0.8,0.2-1,0.5c-0.2,0.3-0.3,0.9-0.3,1.6v1.4c0,0.8,0.1,1.3,0.3,1.7
		c0.2,0.4,0.6,0.5,1,0.5c0.4,0,0.8-0.2,1-0.5c0.2-0.3,0.3-0.9,0.3-1.6V147z"/>
	<path class="st0" d="M181.4,152.7l-0.5-0.4c0.3-0.4,0.5-0.9,0.5-1.3v-0.8h0.9v0.7c0,0.3-0.1,0.7-0.2,1
		C181.8,152.2,181.6,152.5,181.4,152.7z"/>
	<path class="st0" d="M187.7,148.3c0,1.1-0.2,1.8-0.5,2.4c-0.4,0.5-0.9,0.8-1.7,0.8c-0.8,0-1.3-0.3-1.7-0.8
		c-0.4-0.5-0.6-1.3-0.6-2.3v-1.2c0-1,0.2-1.8,0.5-2.3s0.9-0.8,1.7-0.8c0.8,0,1.3,0.2,1.7,0.7s0.5,1.2,0.6,2.3V148.3z M186.8,147
		c0-0.8-0.1-1.3-0.3-1.7c-0.2-0.4-0.6-0.5-1-0.5c-0.5,0-0.8,0.2-1,0.5c-0.2,0.3-0.3,0.9-0.3,1.6v1.4c0,0.8,0.1,1.3,0.3,1.7
		c0.2,0.4,0.6,0.5,1,0.5c0.4,0,0.8-0.2,1-0.5c0.2-0.3,0.3-0.9,0.3-1.6V147z"/>
	<path class="st0" d="M192.7,148.9h1v0.7h-1v1.7h-0.9v-1.7h-3.2v-0.5l3.2-4.9h1V148.9z M189.6,148.9h2.2v-3.5l-0.1,0.2L189.6,148.9z
		"/>
</g>
<line class="st2" x1="0" y1="159.4" x2="195.9" y2="159.4"/>
<g>
	<path class="st0" d="M1.8,174.7h3.4v0.8H0.8v-7.1h0.9V174.7z"/>
	<path class="st0" d="M9.1,175c-0.4,0.4-0.9,0.6-1.5,0.6c-0.6,0-1-0.2-1.3-0.5c-0.3-0.3-0.4-0.8-0.4-1.5v-3.4h0.9v3.4
		c0,0.8,0.3,1.2,1,1.2c0.7,0,1.1-0.3,1.4-0.8v-3.8H10v5.3H9.1L9.1,175z"/>
	<path class="st0" d="M13.5,174.9c0.3,0,0.6-0.1,0.8-0.3c0.2-0.2,0.4-0.4,0.4-0.7h0.9c0,0.3-0.1,0.6-0.3,0.9
		c-0.2,0.3-0.4,0.5-0.8,0.7c-0.3,0.2-0.7,0.2-1,0.2c-0.7,0-1.3-0.2-1.7-0.7c-0.4-0.5-0.6-1.1-0.6-2v-0.2c0-0.5,0.1-1,0.3-1.4
		c0.2-0.4,0.5-0.7,0.8-0.9c0.4-0.2,0.8-0.3,1.3-0.3c0.6,0,1.1,0.2,1.5,0.5c0.4,0.4,0.6,0.8,0.6,1.4h-0.9c0-0.3-0.2-0.6-0.4-0.8
		c-0.2-0.2-0.5-0.3-0.9-0.3c-0.5,0-0.8,0.2-1.1,0.5c-0.3,0.3-0.4,0.8-0.4,1.4v0.2c0,0.6,0.1,1.1,0.4,1.4
		C12.7,174.7,13,174.9,13.5,174.9z"/>
	<path class="st0" d="M19.2,171c-0.1,0-0.3,0-0.4,0c-0.6,0-1,0.3-1.2,0.8v3.8h-0.9v-5.3h0.9l0,0.6c0.3-0.5,0.7-0.7,1.3-0.7
		c0.2,0,0.3,0,0.4,0.1V171z"/>
	<path class="st0" d="M19.7,172.8c0-0.5,0.1-1,0.3-1.4c0.2-0.4,0.5-0.7,0.8-1c0.4-0.2,0.8-0.3,1.2-0.3c0.7,0,1.3,0.2,1.7,0.7
		s0.7,1.2,0.7,2v0.1c0,0.5-0.1,1-0.3,1.4c-0.2,0.4-0.5,0.7-0.8,1c-0.4,0.2-0.8,0.3-1.3,0.3c-0.7,0-1.3-0.2-1.7-0.7
		S19.7,173.7,19.7,172.8L19.7,172.8z M20.6,172.9c0,0.6,0.1,1.1,0.4,1.4c0.3,0.4,0.6,0.5,1.1,0.5c0.5,0,0.8-0.2,1.1-0.5
		c0.3-0.4,0.4-0.9,0.4-1.5c0-0.6-0.1-1-0.4-1.4c-0.3-0.4-0.6-0.5-1.1-0.5c-0.4,0-0.8,0.2-1.1,0.5C20.7,171.8,20.6,172.3,20.6,172.9z
		"/>
	<path class="st0" d="M27.8,172.8c0-0.5,0.1-1,0.3-1.4c0.2-0.4,0.5-0.7,0.8-1c0.4-0.2,0.8-0.3,1.2-0.3c0.7,0,1.3,0.2,1.7,0.7
		s0.7,1.2,0.7,2v0.1c0,0.5-0.1,1-0.3,1.4c-0.2,0.4-0.5,0.7-0.8,1c-0.4,0.2-0.8,0.3-1.3,0.3c-0.7,0-1.3-0.2-1.7-0.7
		S27.8,173.7,27.8,172.8L27.8,172.8z M28.7,172.9c0,0.6,0.1,1.1,0.4,1.4c0.3,0.4,0.6,0.5,1.1,0.5c0.5,0,0.8-0.2,1.1-0.5
		c0.3-0.4,0.4-0.9,0.4-1.5c0-0.6-0.1-1-0.4-1.4c-0.3-0.4-0.6-0.5-1.1-0.5c-0.4,0-0.8,0.2-1.1,0.5C28.9,171.8,28.7,172.3,28.7,172.9z
		"/>
	<path class="st0" d="M38.2,172.9c0,0.8-0.2,1.5-0.6,1.9c-0.4,0.5-0.9,0.7-1.5,0.7c-0.6,0-1.1-0.2-1.5-0.6v2.5h-0.9v-7.3h0.8l0,0.6
		c0.4-0.5,0.9-0.7,1.5-0.7c0.6,0,1.1,0.2,1.5,0.7C38.1,171.3,38.2,172,38.2,172.9L38.2,172.9z M37.3,172.8c0-0.6-0.1-1.1-0.4-1.4
		c-0.3-0.3-0.6-0.5-1-0.5c-0.5,0-1,0.2-1.2,0.7v2.5c0.3,0.5,0.7,0.7,1.2,0.7c0.4,0,0.8-0.2,1-0.5C37.2,174,37.3,173.5,37.3,172.8z"
		/>
	<path class="st0" d="M41.6,175.6c-0.7,0-1.3-0.2-1.7-0.7s-0.7-1.1-0.7-1.9v-0.2c0-0.5,0.1-1,0.3-1.4s0.5-0.7,0.8-1
		c0.4-0.2,0.7-0.3,1.2-0.3c0.7,0,1.2,0.2,1.6,0.7c0.4,0.5,0.6,1.1,0.6,1.9v0.4h-3.6c0,0.5,0.2,0.9,0.5,1.3c0.3,0.3,0.7,0.5,1.1,0.5
		c0.3,0,0.6-0.1,0.8-0.2c0.2-0.1,0.4-0.3,0.6-0.5l0.6,0.4C43.1,175.3,42.5,175.6,41.6,175.6z M41.5,170.9c-0.4,0-0.7,0.1-0.9,0.4
		c-0.2,0.3-0.4,0.6-0.5,1.1h2.6v-0.1c0-0.5-0.1-0.8-0.4-1.1C42.1,171,41.8,170.9,41.5,170.9z"/>
	<path class="st0" d="M47.2,171c-0.1,0-0.3,0-0.4,0c-0.6,0-1,0.3-1.2,0.8v3.8h-0.9v-5.3h0.9l0,0.6c0.3-0.5,0.7-0.7,1.3-0.7
		c0.2,0,0.3,0,0.4,0.1V171z"/>
	<path class="st0" d="M51.1,175.5c-0.1-0.1-0.1-0.3-0.1-0.6c-0.4,0.4-0.9,0.7-1.5,0.7c-0.5,0-0.9-0.1-1.3-0.4
		c-0.3-0.3-0.5-0.7-0.5-1.1c0-0.5,0.2-1,0.6-1.3c0.4-0.3,1-0.5,1.8-0.5H51v-0.4c0-0.3-0.1-0.6-0.3-0.8c-0.2-0.2-0.5-0.3-0.8-0.3
		c-0.3,0-0.6,0.1-0.8,0.2c-0.2,0.2-0.3,0.4-0.3,0.6h-0.9c0-0.3,0.1-0.5,0.3-0.8c0.2-0.2,0.4-0.4,0.8-0.6c0.3-0.1,0.7-0.2,1.1-0.2
		c0.6,0,1.1,0.2,1.4,0.5c0.3,0.3,0.5,0.7,0.5,1.3v2.4c0,0.5,0.1,0.9,0.2,1.2v0.1H51.1z M49.6,174.8c0.3,0,0.6-0.1,0.8-0.2
		s0.4-0.3,0.6-0.6v-1.1h-0.7c-1.1,0-1.7,0.3-1.7,1c0,0.3,0.1,0.5,0.3,0.7C49.1,174.7,49.3,174.8,49.6,174.8z"/>
	<path class="st0" d="M55.4,174.9c0.3,0,0.6-0.1,0.8-0.3c0.2-0.2,0.4-0.4,0.4-0.7h0.9c0,0.3-0.1,0.6-0.3,0.9
		c-0.2,0.3-0.4,0.5-0.8,0.7c-0.3,0.2-0.7,0.2-1,0.2c-0.7,0-1.3-0.2-1.7-0.7c-0.4-0.5-0.6-1.1-0.6-2v-0.2c0-0.5,0.1-1,0.3-1.4
		c0.2-0.4,0.5-0.7,0.8-0.9c0.4-0.2,0.8-0.3,1.3-0.3c0.6,0,1.1,0.2,1.5,0.5c0.4,0.4,0.6,0.8,0.6,1.4h-0.9c0-0.3-0.2-0.6-0.4-0.8
		c-0.2-0.2-0.5-0.3-0.9-0.3c-0.5,0-0.8,0.2-1.1,0.5c-0.3,0.3-0.4,0.8-0.4,1.4v0.2c0,0.6,0.1,1.1,0.4,1.4
		C54.6,174.7,55,174.9,55.4,174.9z"/>
	<path class="st0" d="M58.6,168.8c0-0.1,0-0.3,0.1-0.4c0.1-0.1,0.2-0.2,0.4-0.2s0.3,0.1,0.4,0.2c0.1,0.1,0.1,0.2,0.1,0.4
		s0,0.3-0.1,0.4c-0.1,0.1-0.2,0.1-0.4,0.1s-0.3,0-0.4-0.1C58.6,169.1,58.6,169,58.6,168.8z M59.5,175.5h-0.9v-5.3h0.9V175.5z"/>
	<path class="st0" d="M60.7,172.8c0-0.5,0.1-1,0.3-1.4c0.2-0.4,0.5-0.7,0.8-1c0.4-0.2,0.8-0.3,1.2-0.3c0.7,0,1.3,0.2,1.7,0.7
		s0.7,1.2,0.7,2v0.1c0,0.5-0.1,1-0.3,1.4c-0.2,0.4-0.5,0.7-0.8,1c-0.4,0.2-0.8,0.3-1.3,0.3c-0.7,0-1.3-0.2-1.7-0.7
		S60.7,173.7,60.7,172.8L60.7,172.8z M61.6,172.9c0,0.6,0.1,1.1,0.4,1.4c0.3,0.4,0.6,0.5,1.1,0.5c0.5,0,0.8-0.2,1.1-0.5
		c0.3-0.4,0.4-0.9,0.4-1.5c0-0.6-0.1-1-0.4-1.4c-0.3-0.4-0.6-0.5-1.1-0.5c-0.4,0-0.8,0.2-1.1,0.5C61.8,171.8,61.6,172.3,61.6,172.9z
		"/>
	<path class="st0" d="M67.5,170.2l0,0.7c0.4-0.5,0.9-0.8,1.6-0.8c1.1,0,1.7,0.6,1.7,1.9v3.5h-0.9V172c0-0.4-0.1-0.7-0.3-0.8
		c-0.2-0.2-0.4-0.3-0.8-0.3c-0.3,0-0.5,0.1-0.8,0.2c-0.2,0.2-0.4,0.4-0.5,0.6v3.8h-0.9v-5.3H67.5z"/>
	<path class="st0" d="M75.5,175.5c-0.1-0.1-0.1-0.3-0.1-0.6c-0.4,0.4-0.9,0.7-1.5,0.7c-0.5,0-0.9-0.1-1.3-0.4
		c-0.3-0.3-0.5-0.7-0.5-1.1c0-0.5,0.2-1,0.6-1.3c0.4-0.3,1-0.5,1.8-0.5h0.9v-0.4c0-0.3-0.1-0.6-0.3-0.8c-0.2-0.2-0.5-0.3-0.8-0.3
		c-0.3,0-0.6,0.1-0.8,0.2c-0.2,0.2-0.3,0.4-0.3,0.6h-0.9c0-0.3,0.1-0.5,0.3-0.8c0.2-0.2,0.4-0.4,0.8-0.6c0.3-0.1,0.7-0.2,1.1-0.2
		c0.6,0,1.1,0.2,1.4,0.5c0.3,0.3,0.5,0.7,0.5,1.3v2.4c0,0.5,0.1,0.9,0.2,1.2v0.1H75.5z M74,174.8c0.3,0,0.6-0.1,0.8-0.2
		s0.4-0.3,0.6-0.6v-1.1h-0.7c-1.1,0-1.7,0.3-1.7,1c0,0.3,0.1,0.5,0.3,0.7C73.4,174.7,73.7,174.8,74,174.8z"/>
	<path class="st0" d="M78.6,175.5h-0.9V168h0.9V175.5z"/>
</g>
<g>
	<path class="st0" d="M180.2,172.5c0,1.1-0.2,1.8-0.5,2.4c-0.4,0.5-0.9,0.8-1.7,0.8c-0.8,0-1.3-0.3-1.7-0.8
		c-0.4-0.5-0.6-1.3-0.6-2.3v-1.2c0-1,0.2-1.8,0.5-2.3s0.9-0.8,1.7-0.8c0.8,0,1.3,0.2,1.7,0.7c0.4,0.5,0.5,1.2,0.6,2.3V172.5z
		 M179.3,171.2c0-0.8-0.1-1.3-0.3-1.7s-0.6-0.5-1-0.5c-0.5,0-0.8,0.2-1,0.5c-0.2,0.3-0.3,0.9-0.3,1.6v1.4c0,0.8,0.1,1.3,0.3,1.7
		c0.2,0.4,0.6,0.6,1,0.6c0.4,0,0.8-0.2,1-0.5c0.2-0.3,0.3-0.9,0.3-1.6V171.2z"/>
	<path class="st0" d="M181.4,176.9l-0.5-0.4c0.3-0.4,0.5-0.9,0.5-1.3v-0.8h0.9v0.7c0,0.3-0.1,0.7-0.2,1
		C181.8,176.5,181.6,176.7,181.4,176.9z"/>
	<path class="st0" d="M186.2,175.5h-0.9v-6l-1.8,0.7v-0.8l2.6-1h0.1V175.5z"/>
	<path class="st0" d="M193.5,175.5h-4.7v-0.6l2.5-2.7c0.4-0.4,0.6-0.8,0.8-1c0.1-0.3,0.2-0.5,0.2-0.8c0-0.4-0.1-0.7-0.3-0.9
		c-0.2-0.2-0.5-0.4-0.9-0.4c-0.4,0-0.8,0.1-1,0.4c-0.2,0.3-0.4,0.6-0.4,1.1h-0.9c0-0.7,0.2-1.2,0.6-1.6c0.4-0.4,1-0.6,1.7-0.6
		c0.7,0,1.2,0.2,1.6,0.5c0.4,0.3,0.6,0.8,0.6,1.4c0,0.7-0.4,1.5-1.3,2.5l-1.9,2.1h3.6V175.5z"/>
</g>
<line class="st2" x1="0" y1="183.6" x2="195.9" y2="183.6"/>
</svg>
