<?xml version="1.0" encoding="utf-8"?>
<!-- Generator: Adobe Illustrator 24.3.0, SVG Export Plug-In . SVG Version: 6.00 Build 0)  -->
<svg version="1.1" id="Layer_1" xmlns="http://www.w3.org/2000/svg" xmlns:xlink="http://www.w3.org/1999/xlink" x="0px" y="0px"
	 viewBox="0 0 350 480.5" style="enable-background:new 0 0 350 480.5;" xml:space="preserve">
<style type="text/css">
	.st0{fill:none;stroke:#000000;stroke-width:3;stroke-miterlimit:10;}
	.st1{enable-background:new    ;}
	.st2{fill:#E00B17;}
	.st3{fill:#FF8A8A;}
	.st4{fill:none;stroke:#000000;stroke-width:2;stroke-miterlimit:10;}
	.st5{fill:none;stroke:#000000;stroke-miterlimit:10;}
</style>
<line class="st0" x1="159.2" y1="187.7" x2="159.2" y2="433.1"/>
<polygon points="153.1,428.1 154.2,427.1 159.2,432.5 164.3,427.1 165.4,428.1 159.2,434.7 "/>
<path d="M306.4,264.1h-21.8v-16.4h-30v16.4h-56.7v6.6h6v49.6h26.7v-16.6h20v16.6h2v-16.6h20v16.6h26.7v-49.6h7.1h0.2v-6.6H306.4z
	 M213.5,295.3h-6.6v-6.6h6.6V295.3z M213.5,285.7h-6.6v-6.6h6.6V285.7z M225.3,295.3h-6.6v-6.6h6.6V295.3z M225.3,285.7h-6.6v-6.6
	h6.6V285.7z M237.2,295.3h-6.6v-6.6h6.6V295.3z M237.2,285.7h-6.6v-6.6h6.6V285.7z M249,295.3h-6.6v-6.6h6.6V295.3z M249,285.7h-6.6
	v-6.6h6.6V285.7z M260.9,295.3h-6.6v-6.6h6.6V295.3z M260.9,285.7h-6.6v-6.6h6.6V285.7z M272.7,295.3h-6.6v-6.6h6.6V295.3z
	 M272.7,285.7h-6.6v-6.6h6.6V285.7z M284.5,295.3h-6.6v-6.6h6.6V295.3z M284.5,285.7h-6.6v-6.6h6.6V285.7z M296.4,295.3h-6.6v-6.6
	h6.6V295.3z M296.4,285.7h-6.6v-6.6h6.6V285.7z"/>
<g>
	<g class="st1">
		<path class="st2" d="M203.5,340.9h-2v-10h2V340.9z"/>
	</g>
</g>
<g>
	<g>
		<g class="st1">
			<path class="st2" d="M213.4,340.9h-2l-4-6.5v6.5h-2v-10h2l4,6.6v-6.6h2V340.9z"/>
		</g>
	</g>
</g>
<g>
	<g class="st1">
		<path class="st2" d="M222.4,332.6h-3v8.3h-2v-8.3h-3v-1.7h8V332.6z"/>
		<path class="st2" d="M229.5,336.6h-3.9v2.7h4.6v1.6h-6.6v-10h6.6v1.7h-4.6v2.4h3.9V336.6z"/>
		<path class="st2" d="M235,337.3h-1.6v3.6h-2v-10h3.7c1.2,0,2.1,0.3,2.7,0.8c0.6,0.5,0.9,1.3,0.9,2.2c0,0.7-0.1,1.2-0.4,1.7
			c-0.3,0.5-0.7,0.8-1.3,1.1l2.1,4.1v0.1h-2.2L235,337.3z M233.4,335.6h1.6c0.5,0,0.9-0.1,1.2-0.4c0.3-0.3,0.4-0.6,0.4-1.1
			c0-0.5-0.1-0.8-0.4-1.1s-0.7-0.4-1.2-0.4h-1.6V335.6z"/>
		<path class="st2" d="M242.9,330.9l2.5,7.2l2.5-7.2h2.7v10h-2v-2.7l0.2-4.7l-2.7,7.4h-1.4l-2.7-7.4l0.2,4.7v2.7h-2v-10H242.9z"/>
		<path class="st2" d="M258.3,336.6h-3.9v2.7h4.6v1.6h-6.6v-10h6.6v1.7h-4.6v2.4h3.9V336.6z"/>
		<path class="st2" d="M260.1,340.9v-10h3c0.9,0,1.6,0.2,2.3,0.6c0.7,0.4,1.2,1,1.6,1.7c0.4,0.7,0.6,1.6,0.6,2.5v0.5
			c0,0.9-0.2,1.7-0.6,2.5c-0.4,0.7-0.9,1.3-1.6,1.7c-0.7,0.4-1.5,0.6-2.3,0.6H260.1z M262.2,332.6v6.6h1c0.8,0,1.4-0.3,1.8-0.8
			c0.4-0.5,0.6-1.3,0.6-2.2v-0.5c0-1-0.2-1.8-0.6-2.3c-0.4-0.5-1-0.8-1.8-0.8H262.2z"/>
	</g>
</g>
<g>
	<g>
		<g class="st1">
			<path class="st2" d="M271.3,340.9h-2v-10h2V340.9z"/>
		</g>
	</g>
</g>
<g>
	<g class="st1">
		<path class="st2" d="M278.9,338.8h-3.6l-0.7,2.1h-2.2l3.7-10h1.9l3.7,10h-2.2L278.9,338.8z M275.9,337.2h2.5l-1.2-3.7L275.9,337.2
			z M277.5,328.3h2.1l-1.9,2.1h-1.6L277.5,328.3z"/>
		<path class="st2" d="M286.3,337.3h-1.6v3.6h-2v-10h3.7c1.2,0,2.1,0.3,2.7,0.8s0.9,1.3,0.9,2.2c0,0.7-0.1,1.2-0.4,1.7
			c-0.3,0.5-0.7,0.8-1.3,1.1l2.1,4.1v0.1h-2.2L286.3,337.3z M284.7,335.6h1.6c0.5,0,0.9-0.1,1.2-0.4c0.3-0.3,0.4-0.6,0.4-1.1
			c0-0.5-0.1-0.8-0.4-1.1c-0.3-0.3-0.7-0.4-1.2-0.4h-1.6V335.6z"/>
		<path class="st2" d="M293.6,340.9h-2v-10h2V340.9z"/>
		<path class="st2" d="M303.6,336.1c0,1-0.2,1.8-0.5,2.6s-0.8,1.3-1.5,1.7c-0.6,0.4-1.4,0.6-2.2,0.6c-0.8,0-1.5-0.2-2.2-0.6
			s-1.1-1-1.5-1.7c-0.4-0.7-0.5-1.6-0.5-2.5v-0.5c0-1,0.2-1.8,0.5-2.6c0.3-0.7,0.8-1.3,1.5-1.7c0.6-0.4,1.4-0.6,2.2-0.6
			s1.6,0.2,2.2,0.6c0.6,0.4,1.1,1,1.5,1.7c0.3,0.7,0.5,1.6,0.5,2.6V336.1z M301.6,335.7c0-1-0.2-1.8-0.6-2.4
			c-0.4-0.5-0.9-0.8-1.6-0.8c-0.7,0-1.2,0.3-1.6,0.8c-0.4,0.5-0.6,1.3-0.6,2.4v0.5c0,1,0.2,1.8,0.6,2.4c0.4,0.6,0.9,0.8,1.6,0.8
			c0.7,0,1.2-0.3,1.6-0.8c0.4-0.5,0.6-1.3,0.6-2.4V335.7z"/>
	</g>
</g>
<g class="st1">
	<path d="M220.2,351.4h-3.7v3h4.3v0.9h-5.4v-8.5h5.3v0.9h-4.2v2.7h3.7V351.4z"/>
</g>
<g class="st1">
	<path d="M221.6,352.1c0-1,0.2-1.8,0.7-2.4c0.5-0.6,1.1-0.9,1.8-0.9c0.7,0,1.3,0.3,1.8,0.8l0-0.6h1v8.8h-1.1v-3
		c-0.4,0.5-1,0.7-1.7,0.7c-0.8,0-1.4-0.3-1.8-0.9C221.8,353.9,221.6,353.1,221.6,352.1L221.6,352.1z M222.7,352.2
		c0,0.7,0.2,1.3,0.5,1.7c0.3,0.4,0.7,0.6,1.2,0.6c0.6,0,1.1-0.3,1.5-0.9v-3.1c-0.3-0.6-0.8-0.8-1.5-0.8c-0.5,0-0.9,0.2-1.2,0.6
		C222.8,350.8,222.7,351.4,222.7,352.2z"/>
	<path d="M232.5,354.7c-0.4,0.5-1,0.7-1.8,0.7c-0.7,0-1.2-0.2-1.5-0.6s-0.5-1-0.5-1.7V349h1.1v4.1c0,1,0.4,1.4,1.2,1.4
		c0.8,0,1.4-0.3,1.6-0.9V349h1.1v6.3h-1L232.5,354.7z"/>
	<path d="M235.2,347.3c0-0.2,0.1-0.3,0.2-0.4c0.1-0.1,0.3-0.2,0.5-0.2s0.4,0.1,0.5,0.2c0.1,0.1,0.2,0.3,0.2,0.4s-0.1,0.3-0.2,0.4
		c-0.1,0.1-0.3,0.2-0.5,0.2s-0.4-0.1-0.5-0.2C235.2,347.6,235.2,347.5,235.2,347.3z M236.3,355.3h-1.1V349h1.1V355.3z"/>
	<path d="M243.3,352.2c0,1-0.2,1.7-0.7,2.3s-1,0.9-1.8,0.9c-0.8,0-1.4-0.2-1.8-0.7v3.1H238V349h1l0.1,0.7c0.4-0.5,1-0.8,1.8-0.8
		c0.8,0,1.3,0.3,1.8,0.9S243.3,351.1,243.3,352.2L243.3,352.2z M242.3,352.1c0-0.7-0.2-1.3-0.5-1.7s-0.7-0.6-1.2-0.6
		c-0.6,0-1.1,0.3-1.5,0.9v3c0.3,0.6,0.8,0.9,1.5,0.9c0.5,0,0.9-0.2,1.2-0.6S242.3,352.9,242.3,352.1z"/>
	<path d="M248.6,355.3c-0.1-0.1-0.1-0.3-0.2-0.7c-0.5,0.5-1.1,0.8-1.8,0.8c-0.6,0-1.1-0.2-1.5-0.5c-0.4-0.4-0.6-0.8-0.6-1.3
		c0-0.7,0.2-1.2,0.7-1.5c0.5-0.4,1.2-0.5,2.1-0.5h1V351c0-0.4-0.1-0.7-0.3-0.9c-0.2-0.2-0.6-0.3-1-0.3c-0.4,0-0.7,0.1-1,0.3
		c-0.3,0.2-0.4,0.4-0.4,0.7h-1.1c0-0.3,0.1-0.6,0.3-0.9s0.5-0.5,0.9-0.7c0.4-0.2,0.8-0.3,1.3-0.3c0.7,0,1.3,0.2,1.7,0.5
		c0.4,0.4,0.6,0.9,0.6,1.5v2.9c0,0.6,0.1,1,0.2,1.4v0.1H248.6z M246.8,354.5c0.3,0,0.7-0.1,1-0.3c0.3-0.2,0.5-0.4,0.7-0.7v-1.3h-0.8
		c-1.3,0-2,0.4-2,1.2c0,0.3,0.1,0.6,0.3,0.8C246.2,354.4,246.4,354.5,246.8,354.5z"/>
	<path d="M252.2,349l0,0.7c0.5-0.5,1.1-0.8,1.9-0.8c0.9,0,1.5,0.3,1.8,1c0.2-0.3,0.5-0.6,0.8-0.7c0.3-0.2,0.7-0.3,1.2-0.3
		c1.4,0,2.1,0.7,2.1,2.2v4.2h-1.1v-4.2c0-0.5-0.1-0.8-0.3-1s-0.5-0.3-1-0.3c-0.4,0-0.7,0.1-1,0.4c-0.3,0.2-0.4,0.6-0.5,1v4.2H255
		v-4.2c0-0.9-0.4-1.4-1.3-1.4c-0.7,0-1.2,0.3-1.4,0.9v4.6h-1.1V349H252.2z"/>
	<path d="M264.2,355.4c-0.8,0-1.5-0.3-2.1-0.8s-0.8-1.3-0.8-2.3v-0.2c0-0.6,0.1-1.2,0.4-1.7s0.6-0.9,1-1.2c0.4-0.3,0.9-0.4,1.4-0.4
		c0.8,0,1.5,0.3,1.9,0.8c0.5,0.5,0.7,1.3,0.7,2.3v0.5h-4.3c0,0.6,0.2,1.1,0.5,1.5c0.3,0.4,0.8,0.6,1.3,0.6c0.4,0,0.7-0.1,1-0.2
		c0.3-0.2,0.5-0.4,0.7-0.6l0.7,0.5C266,355,265.2,355.4,264.2,355.4z M264,349.7c-0.4,0-0.8,0.2-1.1,0.5c-0.3,0.3-0.5,0.8-0.5,1.3
		h3.1v-0.1c0-0.6-0.2-1-0.4-1.3S264.5,349.7,264,349.7z"/>
	<path d="M268.9,349l0,0.8c0.5-0.6,1.1-0.9,1.9-0.9c1.3,0,2,0.8,2,2.3v4.2h-1.1v-4.2c0-0.5-0.1-0.8-0.3-1s-0.5-0.3-0.9-0.3
		c-0.3,0-0.7,0.1-0.9,0.3s-0.5,0.4-0.6,0.7v4.5h-1.1V349H268.9z"/>
</g>
<g class="st1">
	<path d="M275.9,347.4v1.5h1.2v0.8h-1.2v3.9c0,0.3,0.1,0.4,0.2,0.6s0.3,0.2,0.5,0.2c0.1,0,0.3,0,0.5-0.1v0.9
		c-0.3,0.1-0.6,0.1-0.8,0.1c-0.5,0-0.8-0.1-1.1-0.4s-0.4-0.7-0.4-1.2v-3.9h-1.1V349h1.1v-1.5H275.9z"/>
</g>
<g class="st1">
	<path d="M277.9,352.1c0-0.6,0.1-1.2,0.4-1.7c0.2-0.5,0.6-0.9,1-1.1c0.4-0.3,0.9-0.4,1.5-0.4c0.9,0,1.5,0.3,2.1,0.9
		c0.5,0.6,0.8,1.4,0.8,2.4v0.1c0,0.6-0.1,1.2-0.4,1.7s-0.6,0.9-1,1.1c-0.4,0.3-0.9,0.4-1.5,0.4c-0.9,0-1.5-0.3-2.1-0.9
		C278.2,353.9,277.9,353.1,277.9,352.1L277.9,352.1z M279,352.2c0,0.7,0.2,1.3,0.5,1.7c0.3,0.4,0.8,0.6,1.3,0.6c0.5,0,1-0.2,1.3-0.6
		c0.3-0.4,0.5-1,0.5-1.8c0-0.7-0.2-1.3-0.5-1.7c-0.3-0.4-0.8-0.6-1.3-0.6c-0.5,0-1,0.2-1.3,0.6C279.2,350.8,279,351.4,279,352.2z"/>
	<path d="M288.6,353.6c0-0.3-0.1-0.5-0.3-0.7s-0.6-0.3-1.1-0.4s-1-0.3-1.3-0.4c-0.3-0.2-0.6-0.4-0.7-0.6c-0.2-0.2-0.2-0.5-0.2-0.8
		c0-0.5,0.2-1,0.7-1.3c0.4-0.4,1-0.5,1.7-0.5c0.7,0,1.3,0.2,1.7,0.6s0.7,0.8,0.7,1.4h-1.1c0-0.3-0.1-0.6-0.4-0.8
		c-0.2-0.2-0.6-0.3-0.9-0.3c-0.4,0-0.7,0.1-0.9,0.3s-0.3,0.4-0.3,0.7c0,0.3,0.1,0.5,0.3,0.6s0.6,0.3,1.1,0.4c0.5,0.1,1,0.3,1.3,0.4
		s0.6,0.4,0.7,0.6s0.2,0.5,0.2,0.9c0,0.6-0.2,1-0.7,1.4c-0.4,0.3-1,0.5-1.7,0.5c-0.5,0-0.9-0.1-1.3-0.3s-0.7-0.4-0.9-0.8
		s-0.3-0.7-0.3-1h1.1c0,0.4,0.2,0.7,0.4,0.9c0.3,0.2,0.6,0.3,1.1,0.3c0.4,0,0.7-0.1,1-0.2C288.5,354.1,288.6,353.9,288.6,353.6z"/>
</g>
<g class="st1">
	<path d="M200.3,366.6c0,1-0.2,1.7-0.7,2.3s-1,0.9-1.8,0.9c-0.8,0-1.4-0.2-1.8-0.7v3.1H195v-8.8h1l0.1,0.7c0.4-0.5,1-0.8,1.8-0.8
		c0.8,0,1.3,0.3,1.8,0.9S200.3,365.5,200.3,366.6L200.3,366.6z M199.2,366.5c0-0.7-0.2-1.3-0.5-1.7s-0.7-0.6-1.2-0.6
		c-0.6,0-1.1,0.3-1.5,0.9v3c0.3,0.6,0.8,0.9,1.5,0.9c0.5,0,0.9-0.2,1.2-0.6S199.2,367.3,199.2,366.5z"/>
	<path d="M205.5,369.1c-0.4,0.5-1,0.7-1.8,0.7c-0.7,0-1.2-0.2-1.5-0.6s-0.5-1-0.5-1.7v-4.1h1.1v4.1c0,1,0.4,1.4,1.2,1.4
		c0.8,0,1.4-0.3,1.6-0.9v-4.6h1.1v6.3h-1L205.5,369.1z M204.6,360.7h1.3l-1.6,1.7l-0.9,0L204.6,360.7z"/>
	<path d="M213.5,366.6c0,1-0.2,1.7-0.7,2.3c-0.4,0.6-1,0.9-1.8,0.9c-0.8,0-1.4-0.3-1.8-0.8l-0.1,0.7h-1v-9h1.1v3.4
		c0.4-0.5,1-0.8,1.8-0.8s1.4,0.3,1.8,0.9C213.3,364.7,213.5,365.5,213.5,366.6L213.5,366.6z M212.4,366.5c0-0.7-0.1-1.3-0.4-1.7
		s-0.7-0.6-1.2-0.6c-0.7,0-1.2,0.3-1.5,1v2.7c0.3,0.7,0.8,1,1.5,1c0.5,0,0.9-0.2,1.2-0.6S212.4,367.3,212.4,366.5z"/>
	<path d="M216,369.7h-1.1v-9h1.1V369.7z"/>
	<path d="M217.7,361.7c0-0.2,0.1-0.3,0.2-0.4s0.3-0.2,0.5-0.2s0.4,0.1,0.5,0.2s0.2,0.3,0.2,0.4s-0.1,0.3-0.2,0.4s-0.3,0.2-0.5,0.2
		s-0.4-0.1-0.5-0.2S217.7,361.9,217.7,361.7z M218.9,369.7h-1.1v-6.3h1.1V369.7z"/>
	<path d="M223.1,368.9c0.4,0,0.7-0.1,1-0.4s0.4-0.5,0.5-0.9h1c0,0.4-0.1,0.7-0.4,1c-0.2,0.3-0.5,0.6-0.9,0.8s-0.8,0.3-1.2,0.3
		c-0.9,0-1.5-0.3-2-0.9c-0.5-0.6-0.8-1.4-0.8-2.4v-0.2c0-0.6,0.1-1.2,0.3-1.6s0.5-0.9,1-1.1s0.9-0.4,1.5-0.4c0.7,0,1.3,0.2,1.8,0.6
		c0.5,0.4,0.7,1,0.7,1.7h-1c0-0.4-0.2-0.7-0.5-1s-0.6-0.4-1-0.4c-0.5,0-1,0.2-1.3,0.6c-0.3,0.4-0.4,1-0.4,1.7v0.2
		c0,0.7,0.1,1.3,0.4,1.7S222.6,368.9,223.1,368.9z"/>
	<path d="M226.5,366.5c0-0.6,0.1-1.2,0.4-1.7c0.2-0.5,0.6-0.9,1-1.1c0.4-0.3,0.9-0.4,1.5-0.4c0.9,0,1.5,0.3,2.1,0.9
		c0.5,0.6,0.8,1.4,0.8,2.4v0.1c0,0.6-0.1,1.2-0.4,1.7s-0.6,0.9-1,1.1c-0.4,0.3-0.9,0.4-1.5,0.4c-0.9,0-1.5-0.3-2.1-0.9
		C226.8,368.3,226.5,367.5,226.5,366.5L226.5,366.5z M227.6,366.6c0,0.7,0.2,1.3,0.5,1.7c0.3,0.4,0.8,0.6,1.3,0.6
		c0.5,0,1-0.2,1.3-0.6c0.3-0.4,0.5-1,0.5-1.8c0-0.7-0.2-1.3-0.5-1.7c-0.3-0.4-0.8-0.6-1.3-0.6c-0.5,0-1,0.2-1.3,0.6
		C227.8,365.2,227.6,365.8,227.6,366.6z"/>
	<path d="M237.3,368c0-0.3-0.1-0.5-0.3-0.7s-0.6-0.3-1.1-0.4s-1-0.3-1.3-0.4c-0.3-0.2-0.6-0.4-0.7-0.6c-0.2-0.2-0.2-0.5-0.2-0.8
		c0-0.5,0.2-1,0.7-1.3c0.4-0.4,1-0.5,1.7-0.5c0.7,0,1.3,0.2,1.7,0.6s0.7,0.8,0.7,1.4h-1.1c0-0.3-0.1-0.6-0.4-0.8
		c-0.2-0.2-0.6-0.3-0.9-0.3c-0.4,0-0.7,0.1-0.9,0.3s-0.3,0.4-0.3,0.7c0,0.3,0.1,0.5,0.3,0.6s0.6,0.3,1.1,0.4c0.5,0.1,1,0.3,1.3,0.4
		s0.6,0.4,0.7,0.6s0.2,0.5,0.2,0.9c0,0.6-0.2,1-0.7,1.4c-0.4,0.3-1,0.5-1.7,0.5c-0.5,0-0.9-0.1-1.3-0.3s-0.7-0.4-0.9-0.8
		s-0.3-0.7-0.3-1h1.1c0,0.4,0.2,0.7,0.4,0.9c0.3,0.2,0.6,0.3,1.1,0.3c0.4,0,0.7-0.1,1-0.2C237.1,368.5,237.3,368.3,237.3,368z"/>
	<path d="M239.7,371.4l-0.6-0.4c0.4-0.5,0.6-1,0.6-1.6v-1h1v0.8c0,0.4-0.1,0.8-0.3,1.2S240,371.2,239.7,371.4z"/>
</g>
<g class="st1">
	<path d="M248,364.3c-0.2,0-0.3,0-0.5,0c-0.7,0-1.2,0.3-1.4,0.9v4.5H245v-6.3h1l0,0.7c0.4-0.6,0.9-0.8,1.5-0.8c0.2,0,0.4,0,0.5,0.1
		V364.3z"/>
</g>
<g class="st1">
	<path d="M251.5,369.8c-0.9,0-1.5-0.3-2.1-0.8s-0.8-1.3-0.8-2.3v-0.2c0-0.6,0.1-1.2,0.4-1.7c0.2-0.5,0.6-0.9,1-1.2
		c0.4-0.3,0.9-0.4,1.4-0.4c0.8,0,1.5,0.3,1.9,0.8c0.5,0.5,0.7,1.3,0.7,2.3v0.5h-4.3c0,0.6,0.2,1.1,0.5,1.5s0.8,0.6,1.3,0.6
		c0.4,0,0.7-0.1,1-0.2s0.5-0.4,0.7-0.6l0.7,0.5C253.4,369.4,252.6,369.8,251.5,369.8z M251.4,364.1c-0.4,0-0.8,0.2-1.1,0.5
		c-0.3,0.3-0.5,0.8-0.5,1.3h3.1v-0.1c0-0.6-0.2-1-0.4-1.3C252.2,364.3,251.8,364.1,251.4,364.1z"/>
	<path d="M258.9,368c0-0.3-0.1-0.5-0.3-0.7s-0.6-0.3-1.1-0.4s-1-0.3-1.3-0.4c-0.3-0.2-0.6-0.4-0.7-0.6c-0.2-0.2-0.2-0.5-0.2-0.8
		c0-0.5,0.2-1,0.7-1.3c0.4-0.4,1-0.5,1.7-0.5c0.7,0,1.3,0.2,1.7,0.6s0.7,0.8,0.7,1.4h-1.1c0-0.3-0.1-0.6-0.4-0.8
		c-0.2-0.2-0.6-0.3-0.9-0.3c-0.4,0-0.7,0.1-0.9,0.3s-0.3,0.4-0.3,0.7c0,0.3,0.1,0.5,0.3,0.6s0.6,0.3,1.1,0.4c0.5,0.1,1,0.3,1.3,0.4
		s0.6,0.4,0.7,0.6s0.2,0.5,0.2,0.9c0,0.6-0.2,1-0.7,1.4c-0.4,0.3-1,0.5-1.7,0.5c-0.5,0-0.9-0.1-1.3-0.3s-0.7-0.4-0.9-0.8
		s-0.3-0.7-0.3-1h1.1c0,0.4,0.2,0.7,0.4,0.9c0.3,0.2,0.6,0.3,1.1,0.3c0.4,0,0.7-0.1,1-0.2C258.7,368.5,258.9,368.3,258.9,368z"/>
	<path d="M262.8,361.8v1.5h1.2v0.8h-1.2v3.9c0,0.3,0.1,0.4,0.2,0.6c0.1,0.1,0.3,0.2,0.5,0.2c0.1,0,0.3,0,0.5-0.1v0.9
		c-0.3,0.1-0.6,0.1-0.8,0.1c-0.5,0-0.8-0.1-1.1-0.4c-0.2-0.3-0.4-0.7-0.4-1.2v-3.9h-1.1v-0.8h1.1v-1.5H262.8z"/>
	<path d="M269.1,369.7c-0.1-0.1-0.1-0.3-0.2-0.7c-0.5,0.5-1.1,0.8-1.8,0.8c-0.6,0-1.1-0.2-1.5-0.5c-0.4-0.4-0.6-0.8-0.6-1.3
		c0-0.7,0.2-1.2,0.7-1.5c0.5-0.4,1.2-0.5,2.1-0.5h1v-0.5c0-0.4-0.1-0.7-0.3-0.9c-0.2-0.2-0.6-0.3-1-0.3c-0.4,0-0.7,0.1-1,0.3
		c-0.3,0.2-0.4,0.4-0.4,0.7h-1.1c0-0.3,0.1-0.6,0.3-0.9s0.5-0.5,0.9-0.7c0.4-0.2,0.8-0.3,1.3-0.3c0.7,0,1.3,0.2,1.7,0.5
		c0.4,0.4,0.6,0.9,0.6,1.5v2.9c0,0.6,0.1,1,0.2,1.4v0.1H269.1z M267.3,368.9c0.3,0,0.7-0.1,1-0.3c0.3-0.2,0.5-0.4,0.7-0.7v-1.3h-0.8
		c-1.3,0-2,0.4-2,1.2c0,0.3,0.1,0.6,0.3,0.8C266.7,368.8,267,368.9,267.3,368.9z"/>
	<path d="M275.5,369.1c-0.4,0.5-1,0.7-1.8,0.7c-0.7,0-1.2-0.2-1.5-0.6c-0.4-0.4-0.5-1-0.5-1.7v-4.1h1.1v4.1c0,1,0.4,1.4,1.2,1.4
		c0.8,0,1.4-0.3,1.6-0.9v-4.6h1.1v6.3h-1L275.5,369.1z"/>
</g>
<g class="st1">
	<path d="M281.3,364.3c-0.2,0-0.3,0-0.5,0c-0.7,0-1.2,0.3-1.4,0.9v4.5h-1.1v-6.3h1l0,0.7c0.4-0.6,0.9-0.8,1.5-0.8
		c0.2,0,0.4,0,0.5,0.1V364.3z"/>
</g>
<g class="st1">
	<path d="M285.9,369.7c-0.1-0.1-0.1-0.3-0.2-0.7c-0.5,0.5-1.1,0.8-1.8,0.8c-0.6,0-1.1-0.2-1.5-0.5s-0.6-0.8-0.6-1.3
		c0-0.7,0.2-1.2,0.7-1.5c0.5-0.4,1.2-0.5,2.1-0.5h1v-0.5c0-0.4-0.1-0.7-0.3-0.9s-0.6-0.3-1-0.3c-0.4,0-0.7,0.1-1,0.3
		c-0.3,0.2-0.4,0.4-0.4,0.7H282c0-0.3,0.1-0.6,0.3-0.9c0.2-0.3,0.5-0.5,0.9-0.7s0.8-0.3,1.3-0.3c0.7,0,1.3,0.2,1.7,0.5
		s0.6,0.9,0.6,1.5v2.9c0,0.6,0.1,1,0.2,1.4v0.1H285.9z M284.1,368.9c0.3,0,0.7-0.1,1-0.3c0.3-0.2,0.5-0.4,0.7-0.7v-1.3h-0.8
		c-1.3,0-2,0.4-2,1.2c0,0.3,0.1,0.6,0.3,0.8S283.8,368.9,284.1,368.9z"/>
	<path d="M289.5,363.4l0,0.8c0.5-0.6,1.1-0.9,1.9-0.9c1.3,0,2,0.8,2,2.3v4.2h-1.1v-4.2c0-0.5-0.1-0.8-0.3-1s-0.5-0.3-0.9-0.3
		c-0.3,0-0.7,0.1-0.9,0.3c-0.3,0.2-0.5,0.4-0.6,0.7v4.5h-1.1v-6.3H289.5z"/>
	<path d="M296.5,361.8v1.5h1.2v0.8h-1.2v3.9c0,0.3,0.1,0.4,0.2,0.6c0.1,0.1,0.3,0.2,0.5,0.2c0.1,0,0.3,0,0.5-0.1v0.9
		c-0.3,0.1-0.6,0.1-0.8,0.1c-0.5,0-0.8-0.1-1.1-0.4s-0.4-0.7-0.4-1.2v-3.9h-1.1v-0.8h1.1v-1.5H296.5z"/>
	<path d="M301.5,369.8c-0.9,0-1.5-0.3-2.1-0.8c-0.5-0.6-0.8-1.3-0.8-2.3v-0.2c0-0.6,0.1-1.2,0.4-1.7s0.6-0.9,1-1.2s0.9-0.4,1.4-0.4
		c0.8,0,1.5,0.3,1.9,0.8s0.7,1.3,0.7,2.3v0.5h-4.3c0,0.6,0.2,1.1,0.5,1.5c0.3,0.4,0.8,0.6,1.3,0.6c0.4,0,0.7-0.1,1-0.2
		c0.3-0.2,0.5-0.4,0.7-0.6l0.7,0.5C303.4,369.4,302.6,369.8,301.5,369.8z M301.4,364.1c-0.4,0-0.8,0.2-1.1,0.5
		c-0.3,0.3-0.5,0.8-0.5,1.3h3.1v-0.1c0-0.6-0.2-1-0.4-1.3C302.2,364.3,301.8,364.1,301.4,364.1z"/>
	<path d="M308.9,368c0-0.3-0.1-0.5-0.3-0.7s-0.6-0.3-1.1-0.4c-0.5-0.1-1-0.3-1.3-0.4s-0.6-0.4-0.7-0.6s-0.2-0.5-0.2-0.8
		c0-0.5,0.2-1,0.7-1.3s1-0.5,1.7-0.5c0.7,0,1.3,0.2,1.7,0.6c0.4,0.4,0.7,0.8,0.7,1.4h-1.1c0-0.3-0.1-0.6-0.4-0.8s-0.6-0.3-0.9-0.3
		c-0.4,0-0.7,0.1-0.9,0.3c-0.2,0.2-0.3,0.4-0.3,0.7c0,0.3,0.1,0.5,0.3,0.6c0.2,0.1,0.6,0.3,1.1,0.4c0.5,0.1,1,0.3,1.3,0.4
		c0.3,0.2,0.6,0.4,0.7,0.6s0.2,0.5,0.2,0.9c0,0.6-0.2,1-0.7,1.4s-1,0.5-1.7,0.5c-0.5,0-0.9-0.1-1.3-0.3s-0.7-0.4-0.9-0.8
		c-0.2-0.3-0.3-0.7-0.3-1h1.1c0,0.4,0.2,0.7,0.4,0.9s0.6,0.3,1.1,0.3c0.4,0,0.7-0.1,1-0.2S308.9,368.3,308.9,368z"/>
</g>
<g>
	<g class="st1">
		<path class="st2" d="M52.3,338.4l2.2-7.5h2.3l-3.4,10h-2.1l-3.4-10H50L52.3,338.4z"/>
		<path class="st2" d="M63.6,336.6h-3.9v2.7h4.6v1.6h-6.6v-10h6.6v1.7h-4.6v2.4h3.9V336.6z"/>
		<path class="st2" d="M73.5,340.9h-2l-4-6.5v6.5h-2v-10h2l4,6.6v-6.6h2V340.9z"/>
	</g>
</g>
<g>
	<g class="st1">
		<path class="st2" d="M75.3,340.9v-10h3c0.9,0,1.6,0.2,2.3,0.6c0.7,0.4,1.2,1,1.6,1.7c0.4,0.7,0.6,1.6,0.6,2.5v0.5
			c0,0.9-0.2,1.7-0.6,2.5c-0.4,0.7-0.9,1.3-1.6,1.7c-0.7,0.4-1.5,0.6-2.3,0.6H75.3z M77.3,332.6v6.6h1c0.8,0,1.4-0.3,1.8-0.8
			s0.6-1.3,0.6-2.2v-0.5c0-1-0.2-1.8-0.6-2.3c-0.4-0.5-1-0.8-1.8-0.8H77.3z"/>
	</g>
</g>
<g>
	<g class="st1">
		<path class="st2" d="M89.7,338.8h-3.6l-0.7,2.1h-2.2l3.7-10h1.9l3.7,10h-2.2L89.7,338.8z M86.7,337.2h2.5l-1.2-3.7L86.7,337.2z"/>
		<path class="st2" d="M96.9,340.9v-10h3c0.9,0,1.6,0.2,2.3,0.6c0.7,0.4,1.2,1,1.6,1.7c0.4,0.7,0.6,1.6,0.6,2.5v0.5
			c0,0.9-0.2,1.7-0.6,2.5c-0.4,0.7-0.9,1.3-1.6,1.7c-0.7,0.4-1.5,0.6-2.3,0.6H96.9z M98.9,332.6v6.6h1c0.8,0,1.4-0.3,1.8-0.8
			s0.6-1.3,0.6-2.2v-0.5c0-1-0.2-1.8-0.6-2.3c-0.4-0.5-1-0.8-1.8-0.8H98.9z"/>
		<path class="st2" d="M108.1,340.9h-2v-10h2V340.9z"/>
		<path class="st2" d="M113.6,337.3H112v3.6h-2v-10h3.7c1.2,0,2.1,0.3,2.7,0.8c0.6,0.5,0.9,1.3,0.9,2.2c0,0.7-0.1,1.2-0.4,1.7
			c-0.3,0.5-0.7,0.8-1.3,1.1l2.1,4.1v0.1h-2.2L113.6,337.3z M112,335.6h1.6c0.5,0,0.9-0.1,1.2-0.4c0.3-0.3,0.4-0.6,0.4-1.1
			c0-0.5-0.1-0.8-0.4-1.1c-0.3-0.3-0.7-0.4-1.2-0.4H112V335.6z"/>
	</g>
</g>
<g>
	<g class="st1">
		<path class="st2" d="M124.7,336.6h-3.9v2.7h4.6v1.6h-6.6v-10h6.6v1.7h-4.6v2.4h3.9V336.6z"/>
	</g>
</g>
<g>
	<g class="st1">
		<path class="st2" d="M134.1,332.6h-3v8.3h-2v-8.3h-3v-1.7h8V332.6z"/>
	</g>
</g>
<g>
	<g class="st1">
		<path class="st2" d="M140,338.8h-3.6l-0.7,2.1h-2.2l3.7-10h1.9l3.7,10h-2.2L140,338.8z M137,337.2h2.5l-1.2-3.7L137,337.2z"/>
	</g>
</g>
<g>
	<g class="st1">
		<path class="st2" d="M134.6,456.6c-0.1,1.1-0.5,1.9-1.2,2.5s-1.6,0.9-2.8,0.9c-1.3,0-2.3-0.4-3-1.3c-0.7-0.9-1.1-2-1.1-3.5v-0.6
			c0-1,0.2-1.8,0.5-2.5c0.3-0.7,0.8-1.3,1.4-1.7c0.6-0.4,1.3-0.6,2.2-0.6c1.1,0,2.1,0.3,2.7,0.9s1.1,1.5,1.2,2.6h-2
			c0-0.6-0.2-1.1-0.5-1.4c-0.3-0.3-0.8-0.4-1.4-0.4c-0.7,0-1.2,0.2-1.5,0.7c-0.3,0.5-0.5,1.2-0.5,2.3v0.8c0,1.1,0.2,1.9,0.5,2.4
			c0.3,0.5,0.8,0.7,1.5,0.7c0.6,0,1.1-0.1,1.4-0.4c0.3-0.3,0.5-0.7,0.5-1.3H134.6z"/>
		<path class="st2" d="M144,455.1c0,1-0.2,1.8-0.5,2.6s-0.8,1.3-1.5,1.7c-0.6,0.4-1.4,0.6-2.2,0.6c-0.8,0-1.5-0.2-2.2-0.6
			s-1.1-1-1.5-1.7c-0.4-0.7-0.5-1.6-0.5-2.5v-0.5c0-1,0.2-1.8,0.5-2.6c0.3-0.7,0.8-1.3,1.5-1.7c0.6-0.4,1.4-0.6,2.2-0.6
			s1.6,0.2,2.2,0.6c0.6,0.4,1.1,1,1.5,1.7c0.3,0.7,0.5,1.6,0.5,2.6V455.1z M142,454.7c0-1-0.2-1.8-0.6-2.4c-0.4-0.5-0.9-0.8-1.6-0.8
			c-0.7,0-1.2,0.3-1.6,0.8c-0.4,0.5-0.6,1.3-0.6,2.4v0.5c0,1,0.2,1.8,0.6,2.4c0.4,0.6,0.9,0.8,1.6,0.8c0.7,0,1.2-0.3,1.6-0.8
			c0.4-0.5,0.6-1.3,0.6-2.4V454.7z"/>
		<path class="st2" d="M153.5,459.9h-2l-4-6.5v6.5h-2v-10h2l4,6.6v-6.6h2V459.9z"/>
		<path class="st2" d="M160.4,457.3c0-0.4-0.1-0.7-0.4-0.9c-0.3-0.2-0.8-0.4-1.5-0.7c-0.7-0.2-1.3-0.5-1.7-0.7
			c-1.1-0.6-1.7-1.4-1.7-2.5c0-0.5,0.1-1,0.5-1.4c0.3-0.4,0.7-0.8,1.3-1s1.2-0.4,1.9-0.4c0.7,0,1.3,0.1,1.9,0.4
			c0.6,0.3,1,0.6,1.3,1.1c0.3,0.5,0.5,1,0.5,1.6h-2c0-0.5-0.1-0.8-0.4-1.1c-0.3-0.3-0.7-0.4-1.2-0.4c-0.5,0-0.9,0.1-1.2,0.3
			c-0.3,0.2-0.4,0.5-0.4,0.8c0,0.3,0.2,0.6,0.5,0.8s0.8,0.4,1.4,0.6c1.2,0.4,2,0.8,2.5,1.3s0.8,1.2,0.8,1.9c0,0.9-0.3,1.5-1,2
			c-0.6,0.5-1.5,0.7-2.6,0.7c-0.8,0-1.4-0.1-2.1-0.4c-0.6-0.3-1.1-0.7-1.4-1.2s-0.5-1.1-0.5-1.7h2c0,1.1,0.6,1.6,1.9,1.6
			c0.5,0,0.9-0.1,1.1-0.3C160.3,457.9,160.4,457.6,160.4,457.3z"/>
		<path class="st2" d="M171.3,449.9v6.6c0,1.1-0.3,2-1,2.6c-0.7,0.6-1.6,1-2.8,1c-1.2,0-2.1-0.3-2.7-0.9s-1-1.5-1-2.5v-6.6h2v6.6
			c0,0.7,0.2,1.1,0.5,1.4c0.3,0.3,0.7,0.4,1.3,0.4c1.1,0,1.7-0.6,1.7-1.8v-6.6H171.3z"/>
		<path class="st2" d="M175.6,449.9l2.5,7.2l2.5-7.2h2.7v10h-2v-2.7l0.2-4.7l-2.7,7.4h-1.4l-2.7-7.4l0.2,4.7v2.7h-2v-10H175.6z"/>
		<path class="st2" d="M187.2,459.9h-2v-10h2V459.9z"/>
		<path class="st2" d="M189.1,459.9v-10h3c0.9,0,1.6,0.2,2.3,0.6c0.7,0.4,1.2,1,1.6,1.7c0.4,0.7,0.6,1.6,0.6,2.5v0.5
			c0,0.9-0.2,1.7-0.6,2.5c-0.4,0.7-0.9,1.3-1.6,1.7c-0.7,0.4-1.5,0.6-2.3,0.6H189.1z M191.1,451.6v6.6h1c0.8,0,1.4-0.3,1.8-0.8
			c0.4-0.5,0.6-1.3,0.6-2.2v-0.5c0-1-0.2-1.8-0.6-2.3c-0.4-0.5-1-0.8-1.8-0.8H191.1z"/>
		<path class="st2" d="M206.2,455.1c0,1-0.2,1.8-0.5,2.6s-0.8,1.3-1.5,1.7c-0.6,0.4-1.4,0.6-2.2,0.6c-0.8,0-1.5-0.2-2.2-0.6
			s-1.1-1-1.5-1.7c-0.4-0.7-0.5-1.6-0.5-2.5v-0.5c0-1,0.2-1.8,0.5-2.6c0.3-0.7,0.8-1.3,1.5-1.7c0.6-0.4,1.4-0.6,2.2-0.6
			s1.6,0.2,2.2,0.6c0.6,0.4,1.1,1,1.5,1.7c0.3,0.7,0.5,1.6,0.5,2.6V455.1z M204.2,454.7c0-1-0.2-1.8-0.6-2.4
			c-0.4-0.5-0.9-0.8-1.6-0.8c-0.7,0-1.2,0.3-1.6,0.8c-0.4,0.5-0.6,1.3-0.6,2.4v0.5c0,1,0.2,1.8,0.6,2.4c0.4,0.6,0.9,0.8,1.6,0.8
			c0.7,0,1.2-0.3,1.6-0.8c0.4-0.5,0.6-1.3,0.6-2.4V454.7z"/>
		<path class="st2" d="M211.3,456.3h-1.6v3.6h-2v-10h3.7c1.2,0,2.1,0.3,2.7,0.8c0.6,0.5,0.9,1.3,0.9,2.2c0,0.7-0.1,1.2-0.4,1.7
			c-0.3,0.5-0.7,0.8-1.3,1.1l2.1,4.1v0.1h-2.2L211.3,456.3z M209.7,454.6h1.6c0.5,0,0.9-0.1,1.2-0.4c0.3-0.3,0.4-0.6,0.4-1.1
			c0-0.5-0.1-0.8-0.4-1.1s-0.7-0.4-1.2-0.4h-1.6V454.6z"/>
	</g>
</g>
<g>
	<g class="st1">
		<path class="st2" d="M158.4,472.6h-3.9v4.1h-2v-10h6.4v1.7h-4.4v2.6h3.9V472.6z"/>
		<path class="st2" d="M162.3,476.7h-2v-10h2V476.7z"/>
	</g>
</g>
<g>
	<g class="st1">
		<path class="st2" d="M172.2,476.7h-2l-4-6.5v6.5h-2v-10h2l4,6.6v-6.6h2V476.7z"/>
	</g>
</g>
<g>
	<g class="st1">
		<path class="st2" d="M179.6,474.6h-3.6l-0.7,2.1h-2.2l3.7-10h1.9l3.7,10h-2.2L179.6,474.6z M176.6,473h2.5l-1.2-3.7L176.6,473z"/>
		<path class="st2" d="M185.4,475.1h4.3v1.6h-6.3v-10h2V475.1z"/>
	</g>
</g>
<g class="st1">
	<path class="st2" d="M137.1,176.2v3.5h-2v-10h3.8c0.7,0,1.4,0.1,2,0.4s1,0.7,1.3,1.2s0.5,1.1,0.5,1.7c0,1-0.3,1.7-1,2.3
		s-1.6,0.8-2.7,0.8H137.1z M137.1,174.5h1.8c0.5,0,0.9-0.1,1.2-0.4c0.3-0.3,0.4-0.6,0.4-1.1c0-0.5-0.1-0.9-0.4-1.2s-0.7-0.5-1.2-0.5
		h-1.9V174.5z"/>
	<path class="st2" d="M147.6,176H146v3.6h-2v-10h3.7c1.2,0,2.1,0.3,2.7,0.8c0.6,0.5,0.9,1.3,0.9,2.2c0,0.7-0.1,1.2-0.4,1.7
		s-0.7,0.8-1.3,1.1l2.1,4.1v0.1h-2.2L147.6,176z M146,174.4h1.6c0.5,0,0.9-0.1,1.2-0.4s0.4-0.6,0.4-1.1c0-0.5-0.1-0.8-0.4-1.1
		c-0.3-0.3-0.7-0.4-1.2-0.4H146V174.4z"/>
	<path class="st2" d="M160.9,174.9c0,1-0.2,1.8-0.5,2.6s-0.8,1.3-1.5,1.7c-0.6,0.4-1.4,0.6-2.2,0.6c-0.8,0-1.5-0.2-2.2-0.6
		s-1.1-1-1.5-1.7s-0.5-1.6-0.5-2.5v-0.5c0-1,0.2-1.8,0.5-2.6s0.8-1.3,1.5-1.7c0.6-0.4,1.4-0.6,2.2-0.6s1.6,0.2,2.2,0.6
		c0.6,0.4,1.1,1,1.5,1.7s0.5,1.6,0.5,2.6V174.9z M158.9,174.5c0-1-0.2-1.8-0.6-2.4c-0.4-0.5-0.9-0.8-1.6-0.8c-0.7,0-1.2,0.3-1.6,0.8
		c-0.4,0.5-0.6,1.3-0.6,2.4v0.5c0,1,0.2,1.8,0.6,2.4c0.4,0.6,0.9,0.8,1.6,0.8c0.7,0,1.2-0.3,1.6-0.8c0.4-0.5,0.6-1.3,0.6-2.4V174.5z
		"/>
	<path class="st2" d="M162.4,179.7v-10h3c0.9,0,1.6,0.2,2.3,0.6s1.2,1,1.6,1.7c0.4,0.7,0.6,1.6,0.6,2.5v0.5c0,0.9-0.2,1.7-0.6,2.5
		c-0.4,0.7-0.9,1.3-1.6,1.7c-0.7,0.4-1.5,0.6-2.3,0.6H162.4z M164.4,171.4v6.6h1c0.8,0,1.4-0.3,1.8-0.8s0.6-1.3,0.6-2.2v-0.5
		c0-1-0.2-1.8-0.6-2.3s-1-0.8-1.8-0.8H164.4z"/>
	<path class="st2" d="M178.9,169.7v6.6c0,1.1-0.3,2-1,2.6c-0.7,0.6-1.6,1-2.8,1c-1.2,0-2.1-0.3-2.7-0.9s-1-1.5-1-2.5v-6.6h2v6.6
		c0,0.7,0.2,1.1,0.5,1.4s0.7,0.4,1.3,0.4c1.1,0,1.7-0.6,1.7-1.8v-6.6H178.9z"/>
	<path class="st2" d="M188.3,176.4c-0.1,1.1-0.5,1.9-1.2,2.5s-1.6,0.9-2.8,0.9c-1.3,0-2.3-0.4-3-1.3c-0.7-0.9-1.1-2-1.1-3.5v-0.6
		c0-1,0.2-1.8,0.5-2.5c0.3-0.7,0.8-1.3,1.4-1.7s1.3-0.6,2.2-0.6c1.1,0,2.1,0.3,2.7,0.9c0.7,0.6,1.1,1.5,1.2,2.6h-2
		c-0.1-0.6-0.2-1.1-0.5-1.4c-0.3-0.3-0.8-0.4-1.4-0.4c-0.7,0-1.2,0.2-1.5,0.7c-0.3,0.5-0.5,1.2-0.5,2.3v0.8c0,1.1,0.2,1.9,0.5,2.4
		c0.3,0.5,0.8,0.7,1.5,0.7c0.6,0,1.1-0.1,1.4-0.4c0.3-0.3,0.5-0.7,0.5-1.3H188.3z M185,179.6L185,180c0.7,0.1,1,0.5,1,1.2
		c0,0.5-0.2,0.9-0.6,1.2s-1,0.4-1.7,0.4l0-1.1c0.5,0,0.8-0.2,0.8-0.6c0-0.2-0.1-0.3-0.2-0.4c-0.2-0.1-0.4-0.1-0.7-0.1l0.2-1H185z"/>
</g>
<g class="st1">
	<path class="st2" d="M195.2,177.6h-3.6l-0.7,2.1h-2.2l3.7-10h1.9l3.7,10h-2.2L195.2,177.6z M195.9,167.2c0,0.5-0.1,0.9-0.4,1.3
		s-0.7,0.5-1.1,0.5c-0.2,0-0.3,0-0.5-0.1s-0.3-0.1-0.6-0.2s-0.4-0.2-0.5-0.2s-0.2,0-0.3,0c-0.2,0-0.3,0.1-0.4,0.2s-0.2,0.3-0.2,0.5
		l-1.1-0.1c0-0.5,0.1-0.9,0.4-1.3s0.7-0.5,1.1-0.5c0.1,0,0.3,0,0.4,0.1c0.1,0,0.3,0.1,0.6,0.2c0.3,0.1,0.5,0.2,0.6,0.2
		c0.1,0,0.2,0,0.3,0c0.2,0,0.3-0.1,0.4-0.2c0.1-0.1,0.2-0.3,0.2-0.5L195.9,167.2z M192.1,176h2.5l-1.2-3.7L192.1,176z"/>
</g>
<g class="st1">
	<path class="st2" d="M206.9,174.9c0,1-0.2,1.8-0.5,2.6s-0.8,1.3-1.5,1.7c-0.6,0.4-1.4,0.6-2.2,0.6c-0.8,0-1.5-0.2-2.2-0.6
		s-1.1-1-1.5-1.7s-0.5-1.6-0.5-2.5v-0.5c0-1,0.2-1.8,0.5-2.6s0.8-1.3,1.5-1.7s1.4-0.6,2.2-0.6s1.6,0.2,2.2,0.6s1.1,1,1.5,1.7
		s0.5,1.6,0.5,2.6V174.9z M204.8,174.5c0-1-0.2-1.8-0.6-2.4c-0.4-0.5-0.9-0.8-1.6-0.8c-0.7,0-1.2,0.3-1.6,0.8
		c-0.4,0.5-0.6,1.3-0.6,2.4v0.5c0,1,0.2,1.8,0.6,2.4c0.4,0.6,0.9,0.8,1.6,0.8c0.7,0,1.2-0.3,1.6-0.8s0.6-1.3,0.6-2.4V174.5z"/>
</g>
<path class="st3" d="M95,301.6c-0.9-0.1-1.9-0.1-2.8,0c-0.1,0-0.3,0-0.4,0.1c-0.2,0.2,0.1,0.6,0.3,0.8l0.9,0.7l-1.2,1.5
	c-0.1,0.1-0.2,0.3-0.2,0.4c0,0.4,0.6,0.3,0.9,0.5s0.3,0.4,0.6,0.5s0.6-0.1,0.8-0.4c0.3-0.4,0.6-0.9,0.9-1.3c0,0.4,0,0.8,0.1,1.2
	c0.1,0.4,0.5,0.6,0.9,0.7c0.6,0,0.8-0.7,1-1.2c0.3,0.4,0.8,0.5,1.2,0.2c0.1-0.1,0.1-0.1,0.2-0.2c0.3-0.5,0.4-1,0.2-1.6
	c0.4,0.2,0.8,0.3,1.2,0.2c0.4-0.2,0.6-0.6,0.6-1c-0.1-0.3-0.5-0.5-0.8-0.4c-0.1,0-0.1,0.1-0.2,0.1c0.5-1.1,0.8-2.2,0.9-3.4
	c-1.2-0.2-2.3,0.4-2.8,1.5c-0.1-0.3-0.5-0.4-0.8-0.3h-0.1c-0.3,0.2-0.5,0.5-0.6,0.8c-0.2-0.3-0.8,0-0.7,0.3"/>
<path class="st3" d="M101.9,305.1c0.1,0.5,0.7,0.8,1.2,0.7c0.3-0.1,0.5-0.3,0.6-0.5c0,0.5,0.3,0.9,0.8,0.9h0.1
	c0.5,0,0.9-0.3,1.2-0.6c0.5-0.5,0.9-1.2,1.2-1.9c0.7,0.4,1.6,0.5,2.4,0.4c0.3,0,0.6-0.1,0.7-0.4c0-0.1,0-0.3-0.1-0.4
	c-0.1-0.3-0.2-0.5-0.4-0.8c-0.1-0.3-0.4-0.5-0.7-0.7c-0.3-0.1-0.7,0.1-0.7,0.4c-0.1-0.4-0.3-0.8-0.7-1.2c-0.3-0.3-0.9-0.3-1.2,0.1
	l0,0c-0.1-0.6-0.5-1-0.9-1.4c-0.2-0.1-0.4-0.2-0.6-0.2c-0.2,0.1-0.3,0.1-0.4,0.3c-0.6,0.6-1,1.2-1.5,1.9c0-0.2-0.2-0.4-0.3-0.5
	l-0.5,1.1c-0.3-0.1-0.7-0.2-1-0.2c-0.1,0-0.2,0-0.3,0.1c-0.2,0.1-0.2,0.5,0,0.7s0.4,0.3,0.7,0.5c0.1,0,0.1,0.1,0.1,0.2
	c0,0.2-0.2,0.2-0.3,0.4c-0.1,0.2-0.1,0.4,0,0.6s0.3,0.3,0.5,0.5"/>
<path class="st3" d="M73.1,304.7c0.3,0.4,0.8,0.6,1.3,0.3c0.1-0.1,0.2-0.2,0.3-0.3c-0.2,0.3-0.3,0.7-0.3,1.1c0,0.1,0,0.2,0.1,0.3
	c0.1,0.1,0.3,0.1,0.4,0.1c1.1,0.1,2.4,0,3-0.9c0.1-0.2,0.3-0.5,0.5-0.5c0.1,0,0.3,0,0.4,0c0.8,0,1.4-0.6,1.4-1.4l0,0
	c0-0.3-0.1-0.6-0.3-0.9c-0.2-0.4-0.3-0.7-0.5-1.1c-0.5-0.8-1.2-1.6-2-2.1c-0.3-0.2-0.6-0.3-0.9-0.3s-0.6,0.1-0.8,0.4
	c-0.2-0.3-0.6-0.2-0.9,0c-0.8,0.4-1.4,1-1.8,1.7c-0.4-0.3-1-0.2-1.3,0.3c-0.2,0.3-0.2,0.6-0.1,0.9c-0.2,0-0.6,0.1-0.5,0.4
	s0.4,0.3,0.7,0.4c0.7,0.3,0.9,1.4,1.6,1.3"/>
<path class="st3" d="M111.9,303.1c-0.6,0.3-0.8,1-0.5,1.6c0.2,0.3,0.5,0.6,0.8,0.6c-0.1,0.4,0.2,0.8,0.6,0.8h0.1
	c0.4,0,0.8-0.3,1-0.7c0.2-0.4,0.3-0.8,0.3-1.2c0,0.5,0.5,0.9,1,0.8c0.1,0,0.1,0,0.2,0c0.5-0.2,0.8-0.8,0.7-1.4
	c0.6,0.4,1,1.1,1.6,1.2c0.6,0,1.2-0.4,1.3-1c0.1-0.6,0-1.2-0.4-1.7c0.2-0.5,0.2-1,0.1-1.5c0-0.4-0.2-0.8-0.5-1.1
	c-0.3-0.2-0.8-0.2-1,0.2l0,0c-0.1-0.7-0.4-1.3-0.8-1.9c-0.1-0.2-0.2-0.3-0.4-0.4c-0.4-0.1-0.7,0-1,0.3c-0.5,0.4-0.8,0.8-1.1,1.3
	c-0.1-0.2-0.4-0.4-0.6-0.3s-0.5,0.2-0.6,0.4c-0.4,0.4-0.7,0.8-1,1.2c-0.2-0.2-0.4-0.2-0.6-0.1s-0.3,0.3-0.4,0.5
	c0,0.1-0.1,0.1-0.1,0.2c0,0.3,0.5,0.2,0.8,0.4c0.1,0.1,0.2,0.2,0.2,0.3l0.6,1.4"/>
<path class="st3" d="M81.9,304.5c-0.3-0.4-0.4-0.9-0.4-1.4c0.1-0.5,0.6-0.9,1-0.8c-0.2-0.3-0.4-0.6-0.4-1c-0.1-0.4,0-0.8,0.3-1
	c0.5-0.4,1.2,0,1.7,0.3c-0.2-0.7,0.1-1.4,0.7-1.8c0.2-0.2,0.5-0.2,0.8-0.2c0.3,0.1,0.5,0.3,0.5,0.6c-0.2-0.1-0.2-0.4,0-0.5l0,0
	c0.2-0.1,0.4-0.2,0.6-0.2c0.5,0,1,0.1,1.4,0.4c0.2,0.1,0.3,0.3,0.4,0.5s0,0.5-0.1,0.6c0.5,0,0.9,0.1,1.3,0.4c0.1,0,0.1,0.1,0.1,0.2
	s-0.1,0.2-0.2,0.2l-0.8,0.4c0.4,0,0.6,0.6,0.4,1c-0.3,0.3-0.7,0.6-1.1,0.6c0.2,0.2,0.4,0.5,0.5,0.8c0,0.3-0.3,0.6-0.6,0.5
	c0-0.2,0.3-0.2,0.4,0c0.2,0.3,0.1,0.6-0.2,0.8c-0.3,0.1-0.6,0.2-0.9,0.2c-0.7,0-1.6,0-1.9-0.7c0.2,0.6,0,1.3-0.4,1.7
	c-0.5,0.4-1.4,0.2-1.5-0.5c-0.4,0-0.8-0.3-0.9-0.7c-0.2,0-0.4,0-0.6-0.2"/>
<line class="st4" x1="68.8" y1="287.7" x2="68.8" y2="306.3"/>
<line class="st4" x1="121.8" y1="287.7" x2="121.8" y2="306.3"/>
<path class="st0" d="M180.2,187.2v19c0,5.5,4.5,10,10,10h51c5.5,0,10,4.5,10,10v13.4"/>
<polygon points="245.1,234.6 246.2,233.6 251.2,239 256.3,233.6 257.4,234.6 251.2,241.2 "/>
<path class="st0" d="M251.2,381.2v15c0,5.5-4.5,10-10,10h-51c-5.5,0-10,4.5-10,10v17.4"/>
<polygon points="174.1,428.6 175.2,427.6 180.2,433 185.3,427.6 186.4,428.6 180.2,435.2 "/>
<path class="st3" d="M147,156.6c-0.9-0.1-1.9-0.1-2.9,0c-0.1,0-0.3,0-0.4,0.1c-0.2,0.2,0.1,0.6,0.3,0.8l0.9,0.7l-1.2,1.5
	c-0.1,0.1-0.2,0.3-0.2,0.4c0.1,0.4,0.6,0.3,0.9,0.5s0.3,0.4,0.6,0.5s0.6-0.1,0.8-0.4c0.3-0.4,0.6-0.9,0.9-1.3c0,0.4,0,0.8,0.1,1.2
	s0.5,0.6,0.9,0.7c0.6-0.1,0.8-0.7,1-1.2c0.3,0.4,0.8,0.5,1.2,0.2c0.1,0,0.1-0.1,0.2-0.2c0.3-0.5,0.4-1,0.2-1.6
	c0.4,0.2,0.8,0.3,1.2,0.2c0.4-0.2,0.6-0.6,0.6-1c-0.1-0.3-0.5-0.5-0.8-0.4c-0.1,0-0.1,0.1-0.2,0.1c0.5-1.1,0.8-2.2,0.9-3.4
	c-1.2-0.2-2.3,0.4-2.8,1.5c-0.1-0.3-0.5-0.4-0.8-0.3h-0.1c-0.3,0.2-0.5,0.5-0.6,0.8c-0.2-0.3-0.8,0-0.7,0.3"/>
<path class="st3" d="M153.9,160.1c0.1,0.5,0.7,0.8,1.2,0.7c0.3-0.1,0.5-0.3,0.6-0.5c0,0.5,0.3,0.9,0.8,0.9h0.1
	c0.5,0,0.9-0.3,1.2-0.6c0.5-0.5,0.9-1.2,1.2-1.9c0.7,0.4,1.6,0.5,2.4,0.4c0.3,0,0.6-0.1,0.7-0.4c0-0.1,0-0.3-0.1-0.4
	c-0.1-0.3-0.2-0.5-0.4-0.8c-0.1-0.3-0.4-0.5-0.7-0.7c-0.3-0.1-0.7,0.1-0.7,0.4c-0.1-0.4-0.3-0.8-0.7-1.2c-0.3-0.3-0.9-0.3-1.2,0.1
	l0,0c-0.1-0.6-0.5-1-0.9-1.4c-0.2-0.1-0.4-0.2-0.6-0.2c-0.2,0.1-0.3,0.1-0.4,0.3c-0.6,0.6-1,1.2-1.5,1.9c0-0.2-0.1-0.4-0.3-0.5
	l-0.5,1.1c-0.3-0.1-0.6-0.2-0.9-0.2c-0.1,0-0.2,0-0.3,0.1c-0.2,0.1-0.2,0.5,0,0.7s0.4,0.3,0.7,0.4c0.1,0,0.1,0.1,0.1,0.2
	c0,0.2-0.2,0.2-0.3,0.4s-0.1,0.4,0,0.6c0.1,0.2,0.3,0.3,0.5,0.4"/>
<path class="st3" d="M125.1,159.7c0.3,0.4,0.8,0.6,1.3,0.3c0.1-0.1,0.2-0.2,0.3-0.3c-0.2,0.3-0.3,0.7-0.3,1.1c0,0.1,0,0.2,0.1,0.3
	s0.3,0.1,0.4,0.1c1.1,0.1,2.4,0,3-0.9c0.1-0.2,0.3-0.5,0.5-0.5c0.1,0,0.3,0,0.4,0c0.8,0,1.4-0.6,1.4-1.4l0,0c0-0.3-0.1-0.6-0.3-0.9
	c-0.2-0.4-0.3-0.7-0.5-1.1c-0.5-0.8-1.2-1.6-2-2.1c-0.3-0.2-0.6-0.3-0.9-0.3c-0.3,0-0.6,0.1-0.8,0.4c-0.2-0.3-0.6-0.2-0.9,0
	c-0.8,0.4-1.4,1-1.8,1.7c-0.4-0.3-1-0.2-1.3,0.3c-0.2,0.3-0.2,0.6-0.1,0.9c-0.2,0-0.6,0.1-0.5,0.4s0.4,0.3,0.7,0.4
	c0.7,0.3,0.9,1.4,1.6,1.3"/>
<path class="st3" d="M163.9,158.1c-0.6,0.3-0.8,1-0.5,1.6c0.2,0.3,0.5,0.6,0.8,0.6c-0.1,0.4,0.2,0.8,0.6,0.8h0.1
	c0.4,0,0.8-0.3,1-0.7s0.3-0.8,0.3-1.2c0,0.5,0.5,0.9,1,0.8c0.1,0,0.1,0,0.2,0c0.5-0.2,0.8-0.8,0.7-1.4c0.6,0.4,0.9,1.1,1.6,1.2
	c0.6,0,1.2-0.4,1.3-1s0-1.2-0.4-1.7c0.2-0.5,0.2-1,0.1-1.5c0-0.4-0.2-0.8-0.5-1.1c-0.3-0.2-0.8-0.2-1,0.2l0,0
	c-0.1-0.7-0.4-1.3-0.8-1.9c-0.1-0.2-0.2-0.3-0.4-0.4c-0.4-0.1-0.7,0-1,0.3c-0.5,0.4-0.8,0.8-1.1,1.3c-0.1-0.2-0.4-0.4-0.6-0.3
	c-0.2,0.1-0.5,0.2-0.6,0.4c-0.4,0.4-0.7,0.8-1,1.2c-0.2-0.2-0.4-0.2-0.6-0.1c-0.2,0.1-0.3,0.3-0.4,0.5c0,0.1-0.1,0.1-0.1,0.2
	c0,0.3,0.5,0.2,0.8,0.4c0.1,0.1,0.2,0.2,0.2,0.3l0.6,1.4"/>
<path class="st3" d="M133.9,159.5c-0.3-0.4-0.4-0.9-0.4-1.4c0.1-0.5,0.6-0.9,1-0.8c-0.2-0.3-0.4-0.6-0.4-1c-0.1-0.4,0-0.8,0.3-1
	c0.5-0.4,1.2,0,1.7,0.3c-0.2-0.7,0.1-1.4,0.7-1.8c0.2-0.2,0.5-0.2,0.8-0.2c0.3,0.1,0.5,0.3,0.5,0.6c-0.2-0.1-0.2-0.4,0-0.5l0,0
	c0.2-0.1,0.4-0.2,0.6-0.2c0.5,0,1,0.1,1.4,0.4c0.2,0.1,0.3,0.3,0.4,0.4c0.1,0.2,0,0.5-0.1,0.6c0.5,0,0.9,0.1,1.4,0.4
	c0.1,0,0.1,0.1,0.1,0.2c0,0.1-0.1,0.2-0.2,0.2l-0.8,0.4c0.4,0,0.6,0.6,0.4,1c-0.3,0.3-0.7,0.6-1.1,0.6c0.2,0.2,0.4,0.5,0.5,0.8
	c0,0.3-0.3,0.6-0.6,0.5c0-0.2,0.3-0.2,0.4,0c0.2,0.3,0.1,0.6-0.2,0.8c-0.3,0.1-0.6,0.2-0.9,0.2c-0.7,0-1.6,0-1.9-0.7
	c0.2,0.6,0,1.3-0.4,1.7c-0.5,0.4-1.4,0.2-1.5-0.5c-0.4,0-0.8-0.3-0.9-0.7c-0.2,0-0.4,0-0.6-0.2"/>
<path class="st3" d="M197,156.6c-0.9-0.1-1.9-0.1-2.9,0c-0.1,0-0.3,0-0.4,0.1c-0.2,0.2,0.1,0.6,0.3,0.8l0.9,0.7l-1.2,1.5
	c-0.1,0.1-0.2,0.3-0.2,0.4c0.1,0.4,0.6,0.3,0.9,0.5s0.3,0.4,0.6,0.5s0.6-0.1,0.8-0.4c0.3-0.4,0.6-0.9,0.9-1.3c0,0.4,0,0.8,0.1,1.2
	s0.5,0.6,0.9,0.7c0.6-0.1,0.8-0.7,1-1.2c0.3,0.4,0.8,0.5,1.2,0.2c0.1,0,0.1-0.1,0.2-0.2c0.3-0.5,0.4-1,0.2-1.6
	c0.4,0.2,0.8,0.3,1.2,0.2c0.4-0.2,0.6-0.6,0.6-1c-0.1-0.3-0.5-0.5-0.8-0.4c-0.1,0-0.1,0.1-0.2,0.1c0.5-1.1,0.8-2.2,0.9-3.4
	c-1.2-0.2-2.3,0.4-2.8,1.5c-0.1-0.3-0.5-0.4-0.8-0.3h-0.1c-0.3,0.2-0.5,0.5-0.6,0.8c-0.2-0.3-0.8,0-0.7,0.3"/>
<path class="st3" d="M203.9,160.1c0.1,0.5,0.7,0.8,1.2,0.7c0.3-0.1,0.5-0.3,0.6-0.5c0,0.5,0.3,0.9,0.8,0.9h0.1
	c0.5,0,0.9-0.3,1.2-0.6c0.5-0.5,0.9-1.2,1.2-1.9c0.7,0.4,1.6,0.5,2.4,0.4c0.3,0,0.6-0.1,0.7-0.4c0-0.1,0-0.3-0.1-0.4
	c-0.1-0.3-0.2-0.5-0.4-0.8c-0.1-0.3-0.4-0.5-0.7-0.7c-0.3-0.1-0.7,0.1-0.7,0.4c-0.1-0.4-0.3-0.8-0.7-1.2c-0.3-0.3-0.9-0.3-1.2,0.1
	l0,0c-0.1-0.6-0.5-1-0.9-1.4c-0.2-0.1-0.4-0.2-0.6-0.2c-0.2,0.1-0.3,0.1-0.4,0.3c-0.6,0.6-1,1.2-1.5,1.9c0-0.2-0.1-0.4-0.3-0.5
	l-0.5,1.1c-0.3-0.1-0.6-0.2-0.9-0.2c-0.1,0-0.2,0-0.3,0.1c-0.2,0.1-0.2,0.5,0,0.7s0.4,0.3,0.7,0.4c0.1,0,0.1,0.1,0.1,0.2
	c0,0.2-0.2,0.2-0.3,0.4s-0.1,0.4,0,0.6c0.1,0.2,0.3,0.3,0.5,0.4"/>
<path class="st3" d="M175.1,159.7c0.3,0.4,0.8,0.6,1.3,0.3c0.1-0.1,0.2-0.2,0.3-0.3c-0.2,0.3-0.3,0.7-0.3,1.1c0,0.1,0,0.2,0.1,0.3
	s0.3,0.1,0.4,0.1c1.1,0.1,2.4,0,3-0.9c0.1-0.2,0.3-0.5,0.5-0.5c0.1,0,0.3,0,0.4,0c0.8,0,1.4-0.6,1.4-1.4l0,0c0-0.3-0.1-0.6-0.3-0.9
	c-0.2-0.4-0.3-0.7-0.5-1.1c-0.5-0.8-1.2-1.6-2-2.1c-0.3-0.2-0.6-0.3-0.9-0.3c-0.3,0-0.6,0.1-0.8,0.4c-0.2-0.3-0.6-0.2-0.9,0
	c-0.8,0.4-1.4,1-1.8,1.7c-0.4-0.3-1-0.2-1.3,0.3c-0.2,0.3-0.2,0.6-0.1,0.9c-0.2,0-0.6,0.1-0.5,0.4s0.4,0.3,0.7,0.4
	c0.7,0.3,0.9,1.4,1.6,1.3"/>
<path class="st3" d="M213.9,158.1c-0.6,0.3-0.8,1-0.5,1.6c0.2,0.3,0.5,0.6,0.8,0.6c-0.1,0.4,0.2,0.8,0.6,0.8h0.1
	c0.4,0,0.8-0.3,1-0.7s0.3-0.8,0.3-1.2c0,0.5,0.5,0.9,1,0.8c0.1,0,0.1,0,0.2,0c0.5-0.2,0.8-0.8,0.7-1.4c0.6,0.4,0.9,1.1,1.6,1.2
	c0.6,0,1.2-0.4,1.3-1s0-1.2-0.4-1.7c0.2-0.5,0.2-1,0.1-1.5c0-0.4-0.2-0.8-0.5-1.1c-0.3-0.2-0.8-0.2-1,0.2l0,0
	c-0.1-0.7-0.4-1.3-0.8-1.9c-0.1-0.2-0.2-0.3-0.4-0.4c-0.4-0.1-0.7,0-1,0.3c-0.5,0.4-0.8,0.8-1.1,1.3c-0.1-0.2-0.4-0.4-0.6-0.3
	c-0.2,0.1-0.5,0.2-0.6,0.4c-0.4,0.4-0.7,0.8-1,1.2c-0.2-0.2-0.4-0.2-0.6-0.1c-0.2,0.1-0.3,0.3-0.4,0.5c0,0.1-0.1,0.1-0.1,0.2
	c0,0.3,0.5,0.2,0.8,0.4c0.1,0.1,0.2,0.2,0.2,0.3l0.6,1.4"/>
<path class="st3" d="M183.9,159.5c-0.3-0.4-0.4-0.9-0.4-1.4c0.1-0.5,0.6-0.9,1-0.8c-0.2-0.3-0.4-0.6-0.4-1c-0.1-0.4,0-0.8,0.3-1
	c0.5-0.4,1.2,0,1.7,0.3c-0.2-0.7,0.1-1.4,0.7-1.8c0.2-0.2,0.5-0.2,0.8-0.2c0.3,0.1,0.5,0.3,0.5,0.6c-0.2-0.1-0.2-0.4,0-0.5l0,0
	c0.2-0.1,0.4-0.2,0.6-0.2c0.5,0,1,0.1,1.4,0.4c0.2,0.1,0.3,0.3,0.4,0.4c0.1,0.2,0,0.5-0.1,0.6c0.5,0,0.9,0.1,1.4,0.4
	c0.1,0,0.1,0.1,0.1,0.2c0,0.1-0.1,0.2-0.2,0.2l-0.8,0.4c0.4,0,0.6,0.6,0.4,1c-0.3,0.3-0.7,0.6-1.1,0.6c0.2,0.2,0.4,0.5,0.5,0.8
	c0,0.3-0.3,0.6-0.6,0.5c0-0.2,0.3-0.2,0.4,0c0.2,0.3,0.1,0.6-0.2,0.8c-0.3,0.1-0.6,0.2-0.9,0.2c-0.7,0-1.6,0-1.9-0.7
	c0.2,0.6,0,1.3-0.4,1.7c-0.5,0.4-1.4,0.2-1.5-0.5c-0.4,0-0.8-0.3-0.9-0.7c-0.2,0-0.4,0-0.6-0.2"/>
<path class="st3" d="M195.8,146.6c0.9-0.1,1.8-0.1,2.7,0c0.1,0,0.3,0,0.4,0.1c0.2,0.2-0.1,0.6-0.3,0.8l-0.9,0.6l1.1,1.4
	c0.1,0.1,0.2,0.2,0.2,0.4c0,0.3-0.6,0.3-0.8,0.5s-0.3,0.4-0.5,0.5s-0.5-0.1-0.7-0.4c-0.3-0.4-0.6-0.8-0.9-1.2c0,0.4,0,0.8-0.1,1.1
	c-0.1,0.4-0.5,0.6-0.9,0.6c-0.5,0-0.8-0.6-0.9-1.1c-0.3,0.4-0.8,0.4-1.1,0.2c-0.1,0-0.1-0.1-0.2-0.2c-0.3-0.4-0.3-1-0.1-1.5
	c-0.4,0.2-0.8,0.3-1.2,0.2s-0.6-0.6-0.5-1c0.1-0.3,0.5-0.5,0.8-0.4c0.1,0,0.2,0.1,0.2,0.1c-0.4-1-0.7-2.1-0.9-3.1
	c1.1-0.2,2.2,0.4,2.6,1.4c0.1-0.3,0.5-0.4,0.8-0.2s0.4,0.4,0.5,0.7c0.2-0.3,0.7,0,0.6,0.3"/>
<path class="st3" d="M189.2,150c-0.1,0.4-0.4,0.7-0.8,0.7c-0.4,0-0.8-0.2-0.9-0.6c0,0.4-0.3,0.8-0.7,0.9c0,0,0,0-0.1,0
	c-0.5,0-0.9-0.2-1.2-0.6c-0.5-0.5-0.9-1.1-1.1-1.8c-0.7,0.3-1.5,0.5-2.3,0.4c-0.3,0-0.6-0.1-0.7-0.4c0-0.1,0-0.3,0.1-0.4
	c0.1-0.3,0.2-0.5,0.4-0.8c0.1-0.3,0.4-0.5,0.6-0.6c0.3-0.1,0.7,0.1,0.7,0.4c0.1-0.4,0.3-0.8,0.6-1.1s0.8-0.3,1.1,0.1l0,0
	c0.1-0.5,0.4-1,0.9-1.3c0.2-0.1,0.3-0.2,0.5-0.2s0.3,0.1,0.4,0.3c0.5,0.5,1,1.1,1.4,1.8c0-0.2,0.1-0.3,0.3-0.4l0.5,1
	c0.3-0.1,0.6-0.2,0.9-0.2c0.1,0,0.2,0,0.3,0.1c0.2,0.1,0.1,0.5,0,0.7c-0.2,0.2-0.4,0.3-0.6,0.4c-0.1,0-0.1,0.1-0.1,0.2
	c0,0.1,0.2,0.2,0.3,0.4s0.1,0.4,0,0.6C189.6,149.8,189.4,149.9,189.2,150"/>
<path class="st3" d="M216.5,149.5c-0.3,0.4-0.8,0.5-1.2,0.3c-0.1-0.1-0.2-0.2-0.3-0.3c0.2,0.3,0.3,0.6,0.2,1c0,0.1,0,0.2-0.1,0.3
	s-0.2,0.1-0.4,0.1c-1,0.1-2.2,0-2.8-0.8c-0.1-0.2-0.2-0.4-0.5-0.5c-0.1,0-0.3,0-0.4,0c-0.7,0-1.3-0.6-1.3-1.3l0,0
	c0-0.3,0.1-0.6,0.3-0.9c0.2-0.4,0.3-0.7,0.5-1c0.5-0.8,1.1-1.5,1.9-1.9c0.3-0.2,0.5-0.3,0.9-0.3c0.3,0,0.6,0.1,0.8,0.4
	c0.2-0.3,0.6-0.2,0.8,0c0.7,0.4,1.3,1,1.8,1.6c0.4-0.3,1-0.2,1.2,0.2c0.2,0.3,0.2,0.6,0.1,0.9c0.2,0,0.5,0.1,0.5,0.4
	s-0.4,0.3-0.7,0.4c-0.6,0.3-0.9,1.3-1.5,1.2"/>
<path class="st3" d="M179.7,148.1c0.4,0.2,0.7,0.7,0.6,1.1c-0.1,0.5-0.4,0.8-0.9,0.9c0.1,0.4-0.2,0.7-0.6,0.8h-0.1
	c-0.4,0-0.8-0.3-0.9-0.7c-0.2-0.4-0.2-0.8-0.3-1.2c0,0.5-0.4,0.8-0.9,0.8c-0.1,0-0.1,0-0.2,0c-0.5-0.2-0.8-0.7-0.7-1.3
	c-0.5,0.4-0.9,1.1-1.5,1.2c-0.6,0-1.1-0.4-1.3-0.9c-0.1-0.6,0-1.2,0.4-1.6c-0.2-0.5-0.2-0.9-0.1-1.4c0-0.4,0.2-0.7,0.5-1
	c0.3-0.2,0.7-0.2,0.9,0.1c0,0,0,0.1,0.1,0.1c0.1-0.7,0.4-1.3,0.8-1.8c0.1-0.2,0.2-0.3,0.4-0.4c0.4-0.1,0.7,0,1,0.3
	c0.4,0.4,0.8,0.8,1.1,1.3c0.1-0.2,0.3-0.3,0.6-0.3c0.2,0.1,0.4,0.2,0.6,0.3c0.4,0.3,0.7,0.7,0.9,1.2c0.1-0.1,0.4-0.2,0.5-0.1
	c0.2,0.1,0.3,0.3,0.4,0.4c0,0.1,0.1,0.1,0.1,0.2c0,0.3-0.5,0.2-0.8,0.4c-0.1,0.1-0.1,0.2-0.2,0.3L179.7,148.1"/>
<path class="st3" d="M208.2,149.4c0.3-0.4,0.4-0.8,0.4-1.3s-0.5-0.9-1-0.7c0.2-0.3,0.3-0.6,0.4-1c0.1-0.4,0-0.8-0.3-1
	c-0.5-0.4-1.1,0-1.6,0.3c0.2-0.7-0.1-1.3-0.6-1.7c-0.2-0.1-0.5-0.2-0.7-0.2c-0.3,0.1-0.5,0.3-0.4,0.6c0.1-0.1,0.2-0.3,0-0.5l0,0
	c-0.2-0.1-0.4-0.2-0.6-0.2c-0.5,0-0.9,0.1-1.3,0.4c-0.2,0.1-0.3,0.2-0.4,0.4c-0.1,0.2,0,0.4,0.1,0.6c-0.5,0-0.9,0.1-1.3,0.3
	c-0.1,0.1-0.1,0.1-0.1,0.2s0.1,0.1,0.2,0.2l0.8,0.4c-0.4,0-0.6,0.6-0.4,0.9c0.3,0.3,0.6,0.5,1,0.6c-0.2,0.2-0.4,0.4-0.5,0.7
	c0,0.3,0.3,0.6,0.5,0.5c0-0.2-0.3-0.1-0.4,0c-0.2,0.3-0.1,0.6,0.2,0.7l0,0c0.3,0.1,0.6,0.2,0.9,0.2c0.7,0,1.5,0,1.8-0.7
	c-0.2,0.6-0.1,1.2,0.4,1.7c0.4,0.3,1,0.2,1.3-0.1c0.1-0.1,0.1-0.2,0.2-0.3c0.4,0.1,0.8-0.2,0.8-0.7l0,0
	C207.8,149.7,208,149.7,208.2,149.4"/>
<path class="st3" d="M148.2,146.6c0.9-0.1,1.8-0.1,2.7,0c0.1,0,0.3,0,0.4,0.1c0.2,0.2-0.1,0.6-0.3,0.8l-0.9,0.6l1.1,1.4
	c0.1,0.1,0.2,0.2,0.2,0.4c0,0.3-0.6,0.3-0.8,0.5s-0.3,0.4-0.5,0.5s-0.5-0.1-0.7-0.4c-0.3-0.4-0.6-0.8-0.9-1.2c0,0.4,0,0.8-0.1,1.1
	c-0.1,0.4-0.5,0.6-0.9,0.6c-0.5,0-0.8-0.6-0.9-1.1c-0.3,0.4-0.8,0.4-1.1,0.2c-0.1,0-0.1-0.1-0.2-0.2c-0.3-0.4-0.3-1-0.1-1.5
	c-0.4,0.2-0.8,0.3-1.2,0.2s-0.6-0.6-0.5-1c0.1-0.3,0.5-0.5,0.8-0.4c0.1,0,0.2,0.1,0.2,0.1c-0.4-1-0.7-2.1-0.9-3.1
	c1.1-0.2,2.2,0.4,2.6,1.4c0.1-0.3,0.5-0.4,0.8-0.2s0.4,0.4,0.5,0.7c0.2-0.3,0.7,0,0.6,0.3"/>
<path class="st3" d="M141.7,150c-0.1,0.4-0.4,0.7-0.8,0.7c-0.4,0-0.8-0.2-0.9-0.6c0,0.4-0.3,0.8-0.7,0.9c0,0,0,0-0.1,0
	c-0.5,0-0.9-0.2-1.2-0.6c-0.5-0.5-0.9-1.1-1.1-1.8c-0.7,0.3-1.5,0.5-2.3,0.4c-0.3,0-0.6-0.1-0.7-0.4c0-0.1,0-0.3,0.1-0.4
	c0.1-0.3,0.2-0.5,0.4-0.8c0.1-0.3,0.4-0.5,0.6-0.6c0.3-0.1,0.7,0.1,0.7,0.4c0.1-0.4,0.3-0.8,0.6-1.1s0.8-0.3,1.1,0.1l0,0
	c0.1-0.5,0.4-1,0.9-1.3c0.2-0.1,0.3-0.2,0.5-0.2s0.3,0.1,0.4,0.3c0.5,0.5,1,1.1,1.4,1.8c0-0.2,0.1-0.3,0.3-0.4l0.5,1
	c0.3-0.1,0.6-0.2,0.9-0.2c0.1,0,0.2,0,0.3,0.1c0.2,0.1,0.1,0.5,0,0.7c-0.2,0.2-0.4,0.3-0.6,0.4c-0.1,0-0.1,0.1-0.1,0.2
	c0,0.1,0.2,0.2,0.3,0.4s0.1,0.4,0,0.6C142.1,149.8,141.9,149.9,141.7,150"/>
<path class="st3" d="M169,149.5c-0.3,0.4-0.8,0.5-1.2,0.3c-0.1-0.1-0.2-0.2-0.3-0.3c0.2,0.3,0.3,0.6,0.2,1c0,0.1,0,0.2-0.1,0.3
	s-0.2,0.1-0.4,0.1c-1,0.1-2.2,0-2.8-0.8c-0.1-0.2-0.2-0.4-0.5-0.5c-0.1,0-0.3,0-0.4,0c-0.7,0-1.3-0.6-1.3-1.3l0,0
	c0-0.3,0.1-0.6,0.3-0.9c0.2-0.4,0.3-0.7,0.5-1c0.5-0.8,1.1-1.5,1.9-1.9c0.3-0.2,0.5-0.3,0.9-0.3c0.3,0,0.6,0.1,0.8,0.4
	c0.2-0.3,0.6-0.2,0.8,0c0.7,0.4,1.3,1,1.8,1.6c0.4-0.3,1-0.2,1.2,0.2c0.2,0.3,0.2,0.6,0.1,0.9c0.2,0,0.5,0.1,0.5,0.4
	s-0.4,0.3-0.7,0.4c-0.6,0.3-0.9,1.3-1.5,1.2"/>
<path class="st3" d="M132.2,148.1c0.4,0.2,0.7,0.7,0.6,1.1c-0.1,0.5-0.4,0.8-0.9,0.9c0.1,0.4-0.2,0.7-0.6,0.8h-0.1
	c-0.4,0-0.8-0.3-0.9-0.7c-0.2-0.4-0.2-0.8-0.3-1.2c0,0.5-0.4,0.8-0.9,0.8c-0.1,0-0.1,0-0.2,0c-0.5-0.2-0.8-0.7-0.7-1.3
	c-0.5,0.4-0.9,1.1-1.5,1.2c-0.6,0-1.1-0.4-1.3-0.9c-0.1-0.6,0-1.2,0.4-1.6c-0.2-0.5-0.2-0.9-0.1-1.4c0-0.4,0.2-0.7,0.5-1
	c0.3-0.2,0.7-0.2,0.9,0.1c0,0,0,0.1,0.1,0.1c0.1-0.7,0.4-1.3,0.8-1.8c0.1-0.2,0.2-0.3,0.4-0.4c0.4-0.1,0.7,0,1,0.3
	c0.4,0.4,0.8,0.8,1.1,1.3c0.1-0.2,0.3-0.3,0.6-0.3c0.2,0.1,0.4,0.2,0.6,0.3c0.4,0.3,0.7,0.7,0.9,1.2c0.1-0.1,0.4-0.2,0.5-0.1
	c0.2,0.1,0.3,0.3,0.4,0.4c0,0.1,0.1,0.1,0.1,0.2c0,0.3-0.5,0.2-0.8,0.4c-0.1,0.1-0.1,0.2-0.2,0.3L132.2,148.1"/>
<path class="st3" d="M160.7,149.4c0.3-0.4,0.4-0.8,0.4-1.3s-0.5-0.9-1-0.7c0.2-0.3,0.3-0.6,0.4-1c0.1-0.4,0-0.8-0.3-1
	c-0.5-0.4-1.1,0-1.6,0.3c0.1-0.6-0.1-1.3-0.6-1.6c-0.2-0.1-0.5-0.2-0.7-0.2c-0.3,0.1-0.5,0.3-0.4,0.6c0.1-0.1,0.2-0.3,0-0.5l0,0
	c-0.2-0.1-0.4-0.2-0.6-0.2c-0.5,0-0.9,0.1-1.3,0.4c-0.2,0.1-0.3,0.2-0.4,0.4c-0.1,0.2,0,0.4,0.1,0.6c-0.5,0-0.9,0.1-1.3,0.3
	c-0.1,0.1-0.1,0.1-0.1,0.2s0.1,0.1,0.2,0.2l0.8,0.4c-0.4,0-0.6,0.6-0.4,0.9c0.3,0.3,0.6,0.5,1,0.6c-0.2,0.2-0.4,0.4-0.5,0.7
	c0,0.3,0.3,0.6,0.5,0.5c0-0.2-0.3-0.1-0.4,0c-0.2,0.3-0.1,0.6,0.2,0.7l0,0c0.3,0.1,0.6,0.2,0.9,0.2c0.7,0,1.5,0,1.8-0.7
	c-0.2,0.6-0.1,1.2,0.4,1.7c0.4,0.3,1,0.2,1.3-0.1c0.1-0.1,0.1-0.2,0.2-0.3c0.4,0.1,0.8-0.2,0.8-0.7l0,0c0.2,0,0.4,0,0.6-0.2"/>
<path class="st3" d="M149.5,136.6c-0.9-0.1-1.7-0.1-2.6,0c-0.1,0-0.2,0.1-0.3,0.1c-0.2,0.2,0.1,0.5,0.3,0.7l0.9,0.6l-1.1,1.3
	c-0.1,0.1-0.2,0.2-0.2,0.4c0.1,0.3,0.5,0.3,0.8,0.4s0.3,0.4,0.5,0.5s0.5-0.1,0.7-0.3c0.3-0.4,0.6-0.8,0.8-1.2c0,0.3,0,0.7,0.1,1
	s0.4,0.6,0.8,0.6c0.5,0,0.8-0.6,0.9-1.1c0.3,0.3,0.8,0.4,1.1,0.1c0.1,0,0.1-0.1,0.1-0.1c0.3-0.4,0.3-0.9,0.1-1.4
	c0.3,0.2,0.7,0.3,1.1,0.1c0.4-0.1,0.6-0.5,0.5-0.9c-0.1-0.3-0.4-0.5-0.7-0.3c-0.1,0-0.1,0.1-0.2,0.1c0.4-1,0.7-2,0.8-3
	c-1.1-0.2-2.1,0.4-2.5,1.4c-0.1-0.3-0.5-0.4-0.8-0.2c-0.2,0.2-0.4,0.4-0.5,0.7c-0.2-0.2-0.7,0-0.6,0.3"/>
<path class="st3" d="M155.7,139.8c0.1,0.4,0.4,0.7,0.8,0.7c0.4,0,0.7-0.2,0.9-0.6c-0.1,0.4,0.3,0.8,0.8,0.8c0.4,0,0.8-0.2,1.1-0.6
	c0.5-0.5,0.9-1.1,1.1-1.8c0.7,0.3,1.4,0.5,2.1,0.4c0.3,0,0.6-0.1,0.6-0.4c0-0.1,0-0.3-0.1-0.4c-0.1-0.2-0.2-0.5-0.4-0.7
	c-0.1-0.3-0.3-0.5-0.6-0.6s-0.6,0.1-0.6,0.4c-0.1-0.4-0.3-0.8-0.6-1.1s-0.8-0.2-1.1,0.1l0,0c-0.1-0.5-0.4-0.9-0.8-1.2
	c-0.1-0.1-0.3-0.2-0.5-0.1c-0.1,0-0.3,0.1-0.4,0.2c-0.5,0.5-1,1.1-1.4,1.7c0-0.2-0.1-0.3-0.3-0.4l-0.5,1c-0.3-0.1-0.6-0.2-0.9-0.2
	c-0.1,0-0.2,0-0.2,0.1c-0.2,0.1-0.1,0.5,0,0.6s0.4,0.2,0.6,0.4c0.1,0,0.1,0.1,0.1,0.1c0,0.1-0.2,0.2-0.2,0.3c-0.1,0.2-0.1,0.4,0,0.6
	C155.4,139.5,155.6,139.6,155.7,139.8"/>
<path class="st3" d="M129.7,139.4c0.2,0.4,0.8,0.5,1.1,0.3c0.1-0.1,0.2-0.2,0.3-0.3c-0.2,0.3-0.3,0.6-0.2,1c0,0.1,0,0.2,0.1,0.3
	s0.2,0.1,0.4,0.1c1,0.1,2.1,0,2.7-0.8c0.1-0.2,0.2-0.4,0.4-0.5c0.1,0,0.2,0,0.4,0c0.7,0,1.2-0.5,1.2-1.2c0-0.3-0.1-0.6-0.2-0.8
	c-0.1-0.3-0.3-0.7-0.5-1c-0.4-0.8-1.1-1.4-1.8-1.9c-0.2-0.2-0.5-0.3-0.8-0.3s-0.6,0.1-0.7,0.4c-0.1-0.3-0.5-0.2-0.8,0
	c-0.7,0.4-1.3,0.9-1.7,1.6c-0.4-0.3-0.9-0.2-1.2,0.2c-0.2,0.3-0.2,0.6-0.1,0.9c-0.2,0-0.5,0.1-0.5,0.3s0.4,0.3,0.6,0.4
	c0.6,0.2,0.8,1.2,1.5,1.2"/>
<path class="st3" d="M164.7,138c-0.5,0.2-0.8,0.9-0.5,1.4c0.1,0.3,0.4,0.5,0.8,0.6c-0.1,0.3,0.2,0.7,0.5,0.7h0.1
	c0.4,0,0.7-0.3,0.9-0.6c0.2-0.4,0.2-0.7,0.2-1.1c0,0.4,0.4,0.8,0.9,0.7c0.1,0,0.1,0,0.2,0c0.5-0.2,0.7-0.7,0.6-1.2
	c0.5,0.4,0.9,1,1.5,1.1c0.6,0,1.1-0.3,1.2-0.9c0.1-0.5,0-1.1-0.3-1.6c0.2-0.4,0.2-0.9,0.1-1.3c0-0.4-0.2-0.7-0.5-1
	c-0.3-0.2-0.7-0.2-0.9,0.1c0,0,0,0.1-0.1,0.1c-0.1-0.6-0.4-1.2-0.7-1.7c-0.1-0.2-0.2-0.3-0.4-0.4c-0.3-0.1-0.7,0-0.9,0.3
	c-0.4,0.3-0.7,0.7-1,1.2c-0.1-0.2-0.3-0.3-0.5-0.3c-0.2,0.1-0.4,0.2-0.6,0.3c-0.4,0.3-0.7,0.7-0.9,1.1c-0.1-0.1-0.3-0.2-0.5-0.1
	c-0.2,0.1-0.3,0.2-0.4,0.4c0,0.1-0.1,0.1-0.1,0.2c0,0.3,0.5,0.2,0.7,0.4c0.1,0.1,0.1,0.2,0.2,0.3L164.7,138"/>
<path class="st3" d="M137.6,139.3c-0.3-0.4-0.4-0.8-0.4-1.2s0.5-0.9,0.9-0.7c-0.2-0.3-0.3-0.6-0.4-0.9c-0.1-0.3,0-0.7,0.3-0.9
	c0.4-0.3,1.1,0,1.6,0.2c-0.2-0.6,0.1-1.3,0.6-1.6c0.2-0.1,0.5-0.2,0.7-0.2c0.2,0.1,0.4,0.3,0.4,0.5c-0.1-0.1-0.2-0.3,0-0.5l0,0
	c0.2-0.1,0.4-0.2,0.6-0.2c0.5,0,0.9,0.1,1.3,0.4c0.2,0.1,0.3,0.2,0.4,0.4c0.1,0.2,0,0.4-0.1,0.5c0.4,0,0.9,0.1,1.2,0.3
	c0.1,0,0.1,0.1,0.1,0.2s-0.1,0.1-0.2,0.2l-0.7,0.4c0.4,0,0.5,0.6,0.3,0.9c-0.2,0.3-0.6,0.5-1,0.5c0.2,0.2,0.4,0.4,0.4,0.7
	s-0.3,0.6-0.5,0.5c0-0.1,0.3-0.1,0.4,0c0.2,0.2,0.1,0.6-0.2,0.7c-0.3,0.1-0.5,0.2-0.8,0.2c-0.6,0-1.4,0-1.8-0.6
	c0.2,0.6,0.1,1.2-0.4,1.6c-0.4,0.3-0.9,0.2-1.2-0.1c-0.1-0.1-0.1-0.2-0.2-0.3c-0.4,0-0.8-0.2-0.8-0.6c-0.2,0-0.4,0-0.5-0.2"/>
<path class="st3" d="M194.6,136.6c-0.9-0.1-1.7-0.1-2.6,0c-0.1,0-0.2,0.1-0.3,0.1c-0.2,0.2,0.1,0.5,0.3,0.7l0.8,0.6l-1.1,1.3
	c-0.1,0.1-0.2,0.2-0.2,0.4c0,0.3,0.5,0.3,0.8,0.4s0.3,0.4,0.5,0.5s0.5-0.1,0.7-0.3c0.3-0.4,0.6-0.8,0.8-1.2c0,0.3,0,0.7,0.1,1
	s0.4,0.6,0.8,0.6c0.5,0,0.8-0.6,0.9-1.1c0.3,0.3,0.8,0.4,1.1,0.1c0.1,0,0.1-0.1,0.1-0.1c0.3-0.4,0.3-0.9,0.1-1.4
	c0.3,0.2,0.8,0.3,1.1,0.1c0.4-0.1,0.6-0.5,0.5-0.9c-0.1-0.3-0.4-0.5-0.7-0.3c-0.1,0-0.1,0.1-0.2,0.1c0.4-1,0.7-2,0.8-3
	c-1.1-0.2-2.1,0.4-2.5,1.4c-0.1-0.3-0.4-0.4-0.7-0.2c0,0,0,0-0.1,0c-0.2,0.2-0.4,0.4-0.5,0.7c-0.2-0.2-0.7,0-0.6,0.3"/>
<path class="st3" d="M200.8,139.8c0.1,0.4,0.4,0.7,0.8,0.7c0.4,0,0.7-0.2,0.9-0.6c-0.1,0.4,0.3,0.8,0.8,0.8c0.4,0,0.8-0.2,1.1-0.6
	c0.5-0.5,0.8-1.1,1-1.8c0.7,0.3,1.4,0.5,2.2,0.4c0.3,0,0.6-0.1,0.6-0.4c0-0.1,0-0.3-0.1-0.4c-0.1-0.2-0.2-0.5-0.3-0.7
	c-0.1-0.3-0.3-0.5-0.6-0.6s-0.7,0.1-0.6,0.4c-0.1-0.4-0.3-0.8-0.6-1.1s-0.8-0.2-1.1,0.1l0,0c-0.1-0.5-0.4-0.9-0.8-1.2
	c-0.1-0.1-0.3-0.2-0.5-0.1c-0.1,0-0.3,0.1-0.4,0.2c-0.5,0.5-1,1.1-1.4,1.7c0-0.2-0.1-0.3-0.3-0.4l-0.5,1c-0.3-0.1-0.6-0.2-0.9-0.2
	c-0.1,0-0.2,0-0.3,0.1c-0.2,0.1-0.1,0.5,0,0.6s0.4,0.2,0.6,0.4c0.1,0,0.1,0.1,0.1,0.1c0,0.1-0.2,0.2-0.3,0.3c-0.1,0.2-0.1,0.4,0,0.6
	C200.5,139.5,200.6,139.6,200.8,139.8"/>
<path class="st3" d="M174.8,139.4c0.2,0.4,0.8,0.5,1.1,0.3c0.1-0.1,0.2-0.2,0.3-0.3c-0.2,0.3-0.3,0.6-0.2,1c0,0.1,0,0.2,0.1,0.3
	s0.2,0.1,0.4,0.1c1,0.1,2.1,0,2.7-0.8c0.1-0.2,0.2-0.4,0.5-0.5c0.1,0,0.2,0,0.4,0c0.7,0,1.2-0.5,1.2-1.2l0,0c0-0.3-0.1-0.6-0.2-0.8
	c-0.1-0.3-0.3-0.7-0.5-1c-0.4-0.8-1.1-1.4-1.8-1.9c-0.2-0.2-0.5-0.3-0.8-0.3s-0.6,0.1-0.8,0.4c-0.1-0.3-0.5-0.2-0.8,0
	c-0.7,0.4-1.3,0.9-1.7,1.6c-0.3-0.2-0.7-0.2-1,0.1s-0.4,0.7-0.2,1c-0.2,0-0.5,0.1-0.5,0.3s0.4,0.3,0.6,0.4c0.6,0.2,0.8,1.2,1.4,1.2"
	/>
<path class="st3" d="M209.8,138c-0.5,0.2-0.8,0.9-0.5,1.4c0.1,0.3,0.4,0.5,0.8,0.6c-0.1,0.3,0.2,0.7,0.5,0.7h0.1
	c0.4,0,0.7-0.3,0.9-0.6c0.2-0.4,0.2-0.7,0.2-1.1c0,0.4,0.4,0.8,0.9,0.7c0.1,0,0.1,0,0.2,0c0.5-0.2,0.8-0.7,0.6-1.2
	c0.5,0.4,0.9,1,1.5,1.1c0.6,0,1.1-0.3,1.2-0.9c0.1-0.5,0-1.1-0.3-1.6c0.2-0.4,0.2-0.9,0.1-1.3c0-0.4-0.2-0.7-0.5-1
	c-0.3-0.2-0.7-0.2-0.9,0.1c0,0,0,0.1-0.1,0.1c-0.1-0.6-0.4-1.2-0.7-1.7c-0.1-0.2-0.2-0.3-0.4-0.4c-0.3-0.1-0.7,0-0.9,0.3
	c-0.4,0.3-0.8,0.7-1,1.2c-0.1-0.2-0.3-0.3-0.6-0.3c-0.2,0.1-0.4,0.2-0.6,0.3c-0.4,0.3-0.7,0.7-0.9,1.1c-0.1-0.1-0.4-0.2-0.5-0.1
	c-0.2,0.1-0.3,0.3-0.4,0.4c0,0.1-0.1,0.1-0.1,0.2c0,0.3,0.5,0.2,0.7,0.4c0.1,0.1,0.1,0.2,0.2,0.3L209.8,138"/>
<path class="st3" d="M182.7,139.3c-0.3-0.4-0.4-0.8-0.4-1.2c0.1-0.4,0.5-0.9,0.9-0.7c-0.2-0.3-0.3-0.6-0.4-0.9
	c-0.1-0.3,0.1-0.7,0.3-0.9c0.4-0.3,1.1,0,1.5,0.2c-0.2-0.6,0.1-1.3,0.6-1.6c0.2-0.1,0.5-0.2,0.7-0.1c0.2,0.1,0.4,0.3,0.4,0.5
	c-0.1-0.1-0.2-0.3,0-0.5l0,0c0.2-0.1,0.4-0.2,0.6-0.2c0.4,0,0.9,0.1,1.3,0.4c0.2,0.1,0.3,0.2,0.4,0.4c0.1,0.2,0,0.4-0.1,0.5
	c0.4,0,0.8,0.1,1.2,0.3c0.1,0,0.1,0.1,0.1,0.2s-0.1,0.1-0.2,0.2l-0.7,0.4c0.4,0,0.5,0.6,0.3,0.9c-0.3,0.3-0.6,0.5-1,0.5
	c0.2,0.2,0.4,0.4,0.4,0.7s-0.3,0.6-0.5,0.5c0-0.1,0.3-0.1,0.4,0c0.2,0.2,0.1,0.6-0.1,0.7l0,0c-0.3,0.1-0.5,0.2-0.8,0.2
	c-0.7,0-1.5,0-1.8-0.6c0.2,0.6,0.1,1.2-0.4,1.6c-0.5,0.4-1.3,0.1-1.4-0.4c-0.4,0-0.8-0.2-0.8-0.6c-0.2,0-0.4,0-0.5-0.2"/>
<path class="st3" d="M193.4,126.6c0.8-0.1,1.6-0.1,2.4,0c0.1,0,0.2,0.1,0.3,0.1c0.2,0.2-0.1,0.5-0.3,0.7L195,128l1,1.3
	c0.1,0.1,0.2,0.2,0.1,0.4c0,0.3-0.5,0.2-0.8,0.4s-0.3,0.4-0.5,0.4s-0.5-0.1-0.6-0.3c-0.3-0.4-0.5-0.7-0.8-1.1c0,0.3,0,0.7-0.1,1
	s-0.4,0.6-0.8,0.6c-0.5,0-0.7-0.6-0.9-1c-0.2,0.3-0.7,0.4-1,0.1c-0.1,0-0.1-0.1-0.1-0.1c-0.3-0.4-0.3-0.9-0.1-1.3
	c-0.3,0.2-0.7,0.3-1.1,0.1c-0.4-0.1-0.6-0.5-0.5-0.9c0.1-0.3,0.4-0.4,0.7-0.3c0.1,0,0.1,0.1,0.2,0.1c-0.4-0.9-0.7-1.9-0.8-2.8
	c1-0.2,2,0.4,2.4,1.3c0.1-0.2,0.4-0.3,0.6-0.2c0,0,0,0,0.1,0c0.2,0.2,0.4,0.4,0.5,0.7c0.2-0.2,0.7,0,0.6,0.3"/>
<path class="st3" d="M187.5,129.6c-0.1,0.4-0.4,0.6-0.8,0.7c-0.4,0-0.7-0.2-0.9-0.5c0.1,0.4-0.3,0.8-0.7,0.8s-0.8-0.2-1.1-0.5
	c-0.5-0.5-0.8-1-1-1.7c-0.6,0.3-1.3,0.4-2.1,0.4c-0.2,0-0.5-0.1-0.6-0.4c0-0.1,0-0.2,0.1-0.4s0.2-0.4,0.3-0.7
	c0.1-0.3,0.3-0.5,0.6-0.6s0.6,0.1,0.6,0.4c0.1-0.4,0.3-0.7,0.6-1c0.3-0.2,0.7-0.2,1,0.1c0.1-0.5,0.4-0.9,0.8-1.2
	c0.1-0.1,0.3-0.2,0.5-0.1c0.1,0,0.3,0.1,0.3,0.2c0.5,0.5,0.9,1,1.3,1.6c0-0.2,0.1-0.3,0.3-0.4l0.4,0.9c0.3-0.1,0.5-0.2,0.8-0.2
	c0.1,0,0.2,0,0.2,0c0.2,0.1,0.1,0.4,0,0.6s-0.4,0.2-0.6,0.4s-0.1,0.1-0.1,0.1s0.1,0.2,0.2,0.3c0.1,0.2,0.1,0.4,0,0.5
	c-0.1,0.2-0.3,0.3-0.4,0.4"/>
<path class="st3" d="M212.2,129.3c-0.2,0.4-0.7,0.5-1.1,0.3c-0.1-0.1-0.2-0.1-0.3-0.3c0.2,0.3,0.3,0.6,0.2,0.9c0,0.1,0,0.2-0.1,0.2
	c-0.1,0.1-0.2,0.1-0.3,0.1c-0.9,0-2,0-2.6-0.7c-0.1-0.2-0.2-0.4-0.4-0.5c-0.1,0-0.2,0-0.3,0c-0.6,0-1.2-0.5-1.2-1.2l0,0
	c0-0.3,0.1-0.5,0.2-0.8c0.1-0.3,0.3-0.6,0.4-0.9c0.4-0.7,1-1.3,1.7-1.8c0.2-0.2,0.5-0.2,0.8-0.3c0.3,0,0.6,0.1,0.7,0.3
	c0.1-0.2,0.5-0.2,0.8,0c0.6,0.4,1.2,0.9,1.6,1.5c0.4-0.2,0.9-0.1,1.1,0.3c0.1,0.2,0.2,0.5,0.1,0.7c0.2,0,0.5,0.1,0.4,0.3
	s-0.4,0.3-0.6,0.4c-0.6,0.2-0.8,1.2-1.4,1.1"/>
<path class="st3" d="M179,128c0.5,0.2,0.7,0.8,0.5,1.3c-0.1,0.3-0.4,0.5-0.7,0.6c0.1,0.3-0.2,0.7-0.5,0.7h-0.1
	c-0.4,0-0.7-0.3-0.9-0.6c-0.1-0.3-0.2-0.7-0.2-1.1c0,0.4-0.4,0.7-0.8,0.7c-0.1,0-0.1,0-0.2,0c-0.5-0.2-0.7-0.7-0.6-1.1
	c-0.5,0.3-0.8,1-1.4,1.1c-0.5,0-1-0.3-1.1-0.9c-0.1-0.5,0-1.1,0.3-1.5c-0.2-0.4-0.2-0.9-0.1-1.3c0-0.4,0.2-0.7,0.5-0.9
	c0.3-0.2,0.7-0.2,0.9,0.1c0,0,0,0,0,0.1c0.1-0.6,0.3-1.2,0.7-1.7c0.1-0.1,0.2-0.3,0.4-0.3c0.3-0.1,0.6,0,0.9,0.2
	c0.4,0.3,0.7,0.7,0.9,1.1c0.1-0.2,0.3-0.3,0.5-0.3s0.4,0.1,0.5,0.3c0.3,0.3,0.6,0.7,0.9,1.1c0.1-0.1,0.3-0.2,0.5-0.1
	s0.3,0.2,0.4,0.4c0,0.1,0.1,0.1,0.1,0.2c0,0.3-0.5,0.2-0.7,0.3c-0.1,0.1-0.1,0.2-0.2,0.3L179,128"/>
<path class="st3" d="M204.7,129.1c0.2-0.3,0.4-0.8,0.4-1.2c0-0.4-0.5-0.8-0.9-0.6c0.2-0.3,0.3-0.6,0.4-0.9c0.1-0.3,0-0.7-0.3-0.9
	c-0.4-0.3-1,0-1.5,0.2c0.2-0.6-0.1-1.2-0.6-1.6c-0.2-0.1-0.4-0.2-0.7-0.2c-0.2,0-0.4,0.3-0.4,0.5c0.1-0.1,0.1-0.3,0-0.5l0,0
	c-0.2-0.1-0.3-0.2-0.5-0.2c-0.4,0-0.8,0.1-1.2,0.3c-0.2,0.1-0.3,0.2-0.4,0.4c-0.1,0.2,0,0.4,0.1,0.5c-0.4,0-0.8,0.1-1.1,0.3
	c-0.1,0-0.1,0.1-0.1,0.2s0.1,0.1,0.1,0.2l0.7,0.4c-0.4,0-0.5,0.5-0.3,0.8s0.6,0.5,0.9,0.5c-0.2,0.2-0.4,0.4-0.4,0.6
	c0,0.3,0.2,0.6,0.5,0.4c0-0.1-0.3-0.1-0.4,0c-0.2,0.2-0.1,0.5,0.1,0.7l0,0c0.2,0.1,0.5,0.2,0.8,0.2c0.6,0,1.4,0,1.7-0.6
	c-0.2,0.5-0.1,1.1,0.3,1.5c0.4,0.3,1.2,0.1,1.3-0.4c0.4,0,0.7-0.2,0.8-0.6l0,0c0.2,0,0.4,0,0.5-0.2"/>
<path class="st3" d="M150.6,126.6c0.8-0.1,1.6-0.1,2.4,0c0.1,0,0.2,0.1,0.3,0.1c0.2,0.2-0.1,0.5-0.3,0.7l-0.8,0.6l1,1.3
	c0.1,0.1,0.2,0.2,0.1,0.4c0,0.3-0.5,0.2-0.8,0.4s-0.3,0.4-0.5,0.4s-0.5-0.1-0.6-0.3c-0.3-0.4-0.5-0.7-0.8-1.1c0,0.3,0,0.7-0.1,1
	s-0.4,0.6-0.8,0.6c-0.5,0-0.7-0.6-0.9-1c-0.2,0.3-0.7,0.4-1,0.1c-0.1,0-0.1-0.1-0.1-0.1c-0.3-0.4-0.3-0.9-0.1-1.3
	c-0.3,0.2-0.7,0.3-1.1,0.1c-0.4-0.1-0.6-0.5-0.5-0.9c0.1-0.3,0.4-0.4,0.7-0.3c0.1,0,0.1,0.1,0.2,0.1c-0.4-0.9-0.7-1.9-0.8-2.8
	c1-0.2,2,0.4,2.4,1.3c0.1-0.2,0.4-0.3,0.6-0.2c0,0,0,0,0.1,0c0.2,0.2,0.4,0.4,0.5,0.7c0.2-0.2,0.6,0,0.6,0.3"/>
<path class="st3" d="M144.6,129.6c-0.1,0.5-0.5,0.7-1,0.6c-0.3-0.1-0.5-0.3-0.6-0.5c0.1,0.4-0.3,0.8-0.7,0.8s-0.8-0.2-1.1-0.5
	c-0.5-0.5-0.8-1-1-1.7c-0.6,0.3-1.3,0.4-2.1,0.4c-0.2,0-0.5-0.1-0.6-0.4c0-0.1,0-0.2,0.1-0.4c0.1-0.2,0.2-0.4,0.3-0.7
	c0.1-0.3,0.3-0.5,0.6-0.6s0.6,0.1,0.6,0.4c0.1-0.4,0.3-0.7,0.6-1c0.3-0.2,0.7-0.2,1,0.1c0.1-0.5,0.4-0.9,0.8-1.2
	c0.1-0.1,0.3-0.2,0.5-0.1c0.1,0,0.3,0.1,0.3,0.2c0.5,0.5,0.9,1,1.3,1.6c0-0.2,0.1-0.3,0.3-0.4l0.4,0.9c0.3-0.1,0.5-0.2,0.8-0.2
	c0.1,0,0.2,0,0.2,0c0.2,0.1,0.1,0.4,0,0.6s-0.4,0.2-0.6,0.4c-0.1,0-0.1,0.1-0.1,0.1c0,0.1,0.1,0.2,0.2,0.3c0.1,0.2,0.1,0.4,0,0.5
	c-0.1,0.2-0.3,0.3-0.4,0.4"/>
<path class="st3" d="M169.3,129.3c-0.2,0.4-0.7,0.5-1.1,0.3c-0.1-0.1-0.2-0.1-0.3-0.3c0.2,0.3,0.3,0.6,0.2,0.9c0,0.1,0,0.2-0.1,0.2
	c-0.1,0.1-0.2,0.1-0.3,0.1c-0.9,0-2,0-2.6-0.7c-0.1-0.2-0.2-0.4-0.4-0.5c-0.1,0-0.2,0-0.3,0c-0.6,0-1.2-0.5-1.2-1.2l0,0
	c0-0.3,0.1-0.5,0.2-0.8c0.1-0.3,0.3-0.6,0.4-0.9c0.4-0.7,1-1.3,1.7-1.8c0.2-0.2,0.5-0.2,0.8-0.3c0.3,0,0.6,0.1,0.7,0.3
	c0.1-0.2,0.5-0.2,0.8,0c0.6,0.4,1.2,0.9,1.6,1.5c0.4-0.2,0.9-0.1,1.1,0.3c0.1,0.2,0.2,0.5,0.1,0.7c0.2,0,0.5,0.1,0.4,0.3
	s-0.4,0.3-0.6,0.4c-0.6,0.2-0.8,1.2-1.4,1.1"/>
<path class="st3" d="M136.1,128c0.4,0.2,0.6,0.6,0.6,1c-0.1,0.4-0.4,0.8-0.8,0.9c0.1,0.3-0.1,0.7-0.5,0.7h-0.1
	c-0.4,0-0.7-0.3-0.9-0.6c-0.1-0.3-0.2-0.7-0.2-1.1c0,0.4-0.4,0.7-0.8,0.7c-0.1,0-0.1,0-0.2,0c-0.5-0.2-0.7-0.7-0.6-1.1
	c-0.5,0.3-0.8,1-1.4,1.1c-0.5,0-1-0.3-1.1-0.9c-0.1-0.5,0-1,0.3-1.5c-0.2-0.4-0.2-0.9-0.1-1.3c0-0.3,0.2-0.7,0.5-0.9
	c0.3-0.2,0.7-0.2,0.9,0.1c0,0,0,0,0,0.1c0.1-0.6,0.3-1.2,0.7-1.7c0.1-0.1,0.2-0.3,0.4-0.3c0.3-0.1,0.6,0,0.9,0.2
	c0.4,0.3,0.7,0.7,0.9,1.1c0.1-0.2,0.3-0.3,0.5-0.3s0.4,0.1,0.5,0.3c0.3,0.3,0.6,0.7,0.9,1.1c0.1-0.1,0.3-0.2,0.5-0.1
	s0.3,0.2,0.4,0.4c0,0.1,0.1,0.1,0.1,0.2c0,0.3-0.5,0.2-0.7,0.3c-0.1,0.1-0.1,0.2-0.2,0.3L136,128"/>
<path class="st3" d="M161.8,129.1c0.2-0.3,0.4-0.8,0.4-1.2c0-0.4-0.5-0.8-0.9-0.6c0.2-0.3,0.3-0.6,0.4-0.9c0.1-0.3,0-0.7-0.3-0.9
	c-0.4-0.3-1,0-1.5,0.2c0.2-0.6-0.1-1.2-0.6-1.6c-0.2-0.1-0.4-0.2-0.6-0.2c-0.2,0-0.4,0.2-0.4,0.5c0.2-0.1,0.1-0.4,0-0.5
	c-0.2-0.1-0.3-0.2-0.5-0.2c-0.4,0-0.8,0.1-1.2,0.3c-0.2,0.1-0.3,0.2-0.4,0.4c-0.1,0.2,0,0.4,0.1,0.5c-0.4,0-0.8,0.1-1.2,0.3
	c-0.1,0-0.1,0.1-0.1,0.2s0.1,0.1,0.1,0.2l0.7,0.4c-0.4,0-0.5,0.5-0.3,0.8s0.6,0.5,0.9,0.5c-0.2,0.2-0.4,0.4-0.4,0.6
	c0,0.3,0.2,0.6,0.5,0.4c0-0.1-0.3-0.1-0.4,0c-0.2,0.2-0.1,0.5,0.1,0.7l0,0c0.2,0.1,0.5,0.2,0.8,0.2c0.6,0,1.4,0,1.7-0.6
	c-0.2,0.5-0.1,1.1,0.4,1.5c0.4,0.3,0.9,0.2,1.2-0.1c0.1-0.1,0.1-0.2,0.1-0.3c0.4,0,0.7-0.2,0.8-0.6l0,0c0.2,0,0.4,0,0.5-0.2"/>
<polygon class="st5" points="156.6,102.2 153.2,94.2 145.2,90.9 137.2,94.2 133.8,102.2 133.8,113.7 156.5,113.7 "/>
<line class="st5" x1="133.9" y1="102.4" x2="156.9" y2="102.4"/>
<line class="st5" x1="133.9" y1="108.5" x2="156.5" y2="108.5"/>
<line class="st5" x1="145.4" y1="113.5" x2="145.4" y2="90.9"/>
<polygon class="st5" points="181.9,106.2 178.6,98.2 170.5,94.9 162.5,98.2 159.1,106.2 159.1,117.7 181.8,117.7 "/>
<line class="st5" x1="159.2" y1="106.4" x2="182.2" y2="106.4"/>
<line class="st5" x1="159.2" y1="112.5" x2="181.8" y2="112.5"/>
<line class="st5" x1="170.7" y1="117.5" x2="170.7" y2="94.9"/>
<polygon class="st5" points="207.2,102.2 203.9,94.2 195.8,90.9 187.8,94.2 184.5,102.2 184.5,113.7 207.1,113.7 "/>
<line class="st5" x1="184.5" y1="102.4" x2="207.6" y2="102.4"/>
<line class="st5" x1="184.5" y1="108.5" x2="207.2" y2="108.5"/>
<line class="st5" x1="196" y1="113.5" x2="196" y2="90.9"/>
<g class="st1">
	<path d="M110.1,9.9c-0.1,1.2-0.5,2.2-1.3,2.9s-1.9,1.1-3.2,1.1c-1.4,0-2.6-0.5-3.4-1.5c-0.8-1-1.2-2.3-1.2-4V7.6
		c0-1.1,0.2-2.1,0.6-2.9c0.4-0.8,0.9-1.5,1.6-1.9c0.7-0.4,1.5-0.7,2.5-0.7c1.3,0,2.3,0.4,3.1,1.1c0.8,0.7,1.3,1.7,1.4,3h-2.3
		c-0.1-0.7-0.3-1.3-0.6-1.6c-0.3-0.3-0.9-0.5-1.6-0.5c-0.8,0-1.4,0.3-1.7,0.8c-0.4,0.6-0.6,1.4-0.6,2.6v0.9c0,1.2,0.2,2.1,0.6,2.7
		c0.4,0.6,1,0.9,1.7,0.9c0.7,0,1.3-0.2,1.6-0.5c0.4-0.3,0.6-0.8,0.6-1.5H110.1z"/>
	<path d="M114.1,13.7h-2.3V2.3h2.3V13.7z"/>
	<path d="M120.4,9.5h-1.8v4.2h-2.3V2.3h4.2c1.3,0,2.4,0.3,3.1,0.9c0.7,0.6,1.1,1.4,1.1,2.5c0,0.8-0.2,1.4-0.5,1.9
		c-0.3,0.5-0.8,0.9-1.5,1.2l2.4,4.6v0.1h-2.5L120.4,9.5z M118.5,7.6h1.9c0.6,0,1-0.1,1.4-0.4c0.3-0.3,0.5-0.7,0.5-1.2
		c0-0.5-0.2-1-0.5-1.3c-0.3-0.3-0.8-0.5-1.4-0.5h-1.9V7.6z"/>
	<path d="M135.2,9.9c-0.1,1.2-0.5,2.2-1.3,2.9s-1.9,1.1-3.2,1.1c-1.4,0-2.6-0.5-3.4-1.5c-0.8-1-1.2-2.3-1.2-4V7.6
		c0-1.1,0.2-2.1,0.6-2.9c0.4-0.8,0.9-1.5,1.6-1.9c0.7-0.4,1.5-0.7,2.5-0.7c1.3,0,2.3,0.4,3.1,1.1c0.8,0.7,1.3,1.7,1.4,3h-2.3
		c-0.1-0.7-0.3-1.3-0.6-1.6c-0.3-0.3-0.9-0.5-1.6-0.5c-0.8,0-1.4,0.3-1.7,0.8c-0.4,0.6-0.6,1.4-0.6,2.6v0.9c0,1.2,0.2,2.1,0.6,2.7
		c0.4,0.6,1,0.9,1.7,0.9c0.7,0,1.3-0.2,1.6-0.5c0.4-0.3,0.6-0.8,0.6-1.5H135.2z"/>
	<path d="M145.2,2.3v7.5c0,1.2-0.4,2.2-1.2,3c-0.8,0.7-1.8,1.1-3.2,1.1c-1.3,0-2.4-0.4-3.1-1.1s-1.2-1.7-1.2-2.9V2.3h2.3v7.5
		c0,0.7,0.2,1.3,0.5,1.6c0.4,0.3,0.8,0.5,1.5,0.5c1.3,0,2-0.7,2-2.1V2.3H145.2z"/>
</g>
<g class="st1">
	<path d="M149.6,13.7h-2.3V2.3h2.3V13.7z"/>
</g>
<g class="st1">
	<path d="M160,4.2h-3.4v9.5h-2.3V4.2h-3.4V2.3h9.2V4.2z"/>
</g>
<g class="st1">
	<path d="M170.4,8.3c0,1.1-0.2,2.1-0.6,2.9c-0.4,0.8-1,1.5-1.7,2c-0.7,0.5-1.6,0.7-2.5,0.7c-0.9,0-1.8-0.2-2.5-0.7
		c-0.7-0.5-1.3-1.1-1.7-1.9c-0.4-0.8-0.6-1.8-0.6-2.9V7.8c0-1.1,0.2-2.1,0.6-3c0.4-0.9,1-1.5,1.7-2c0.7-0.5,1.6-0.7,2.5-0.7
		s1.8,0.2,2.5,0.7c0.7,0.5,1.3,1.1,1.7,2s0.6,1.8,0.6,2.9V8.3z M168,7.7c0-1.2-0.2-2.1-0.6-2.7c-0.4-0.6-1-0.9-1.8-0.9
		c-0.8,0-1.4,0.3-1.8,0.9c-0.4,0.6-0.6,1.5-0.6,2.7v0.6c0,1.2,0.2,2.1,0.6,2.7s1,1,1.8,1c0.8,0,1.4-0.3,1.8-0.9
		c0.4-0.6,0.6-1.5,0.6-2.7V7.7z"/>
	<path d="M177.9,10.7c0-0.4-0.2-0.8-0.5-1c-0.3-0.2-0.9-0.5-1.7-0.8c-0.8-0.3-1.4-0.5-1.9-0.8c-1.3-0.7-1.9-1.6-1.9-2.8
		c0-0.6,0.2-1.2,0.5-1.6c0.3-0.5,0.8-0.9,1.5-1.1c0.6-0.3,1.4-0.4,2.2-0.4c0.8,0,1.5,0.1,2.2,0.4c0.6,0.3,1.1,0.7,1.5,1.2
		c0.3,0.5,0.5,1.1,0.5,1.8h-2.3c0-0.5-0.2-0.9-0.5-1.2C177.1,4.2,176.6,4,176,4c-0.6,0-1,0.1-1.3,0.4s-0.5,0.6-0.5,1
		c0,0.4,0.2,0.7,0.6,0.9s0.9,0.5,1.6,0.7c1.3,0.4,2.3,0.9,2.9,1.5c0.6,0.6,0.9,1.3,0.9,2.2c0,1-0.4,1.8-1.1,2.3
		c-0.7,0.6-1.7,0.8-3,0.8c-0.9,0-1.7-0.2-2.4-0.5c-0.7-0.3-1.3-0.8-1.6-1.3c-0.4-0.6-0.6-1.2-0.6-1.9h2.3c0,1.3,0.7,1.9,2.2,1.9
		c0.6,0,1-0.1,1.3-0.3C177.7,11.4,177.9,11.1,177.9,10.7z"/>
	<path d="M194.6,9.9c-0.1,1.2-0.5,2.2-1.3,2.9s-1.9,1.1-3.2,1.1c-1.4,0-2.6-0.5-3.4-1.5c-0.8-1-1.2-2.3-1.2-4V7.6
		c0-1.1,0.2-2.1,0.6-2.9c0.4-0.8,0.9-1.5,1.6-1.9c0.7-0.4,1.5-0.7,2.5-0.7c1.3,0,2.3,0.4,3.1,1.1s1.3,1.7,1.4,3h-2.3
		c-0.1-0.7-0.3-1.3-0.6-1.6c-0.3-0.3-0.9-0.5-1.6-0.5c-0.8,0-1.4,0.3-1.7,0.8c-0.4,0.6-0.6,1.4-0.6,2.6v0.9c0,1.2,0.2,2.1,0.6,2.7
		c0.4,0.6,1,0.9,1.7,0.9c0.7,0,1.3-0.2,1.6-0.5c0.4-0.3,0.6-0.8,0.6-1.5H194.6z"/>
	<path d="M204.6,2.3v7.5c0,1.2-0.4,2.2-1.2,3c-0.8,0.7-1.8,1.1-3.2,1.1c-1.3,0-2.4-0.4-3.1-1.1s-1.2-1.7-1.2-2.9V2.3h2.3v7.5
		c0,0.7,0.2,1.3,0.5,1.6c0.4,0.3,0.8,0.5,1.5,0.5c1.3,0,2-0.7,2-2.1V2.3H204.6z"/>
</g>
<g class="st1">
	<path d="M210.7,9.5h-1.8v4.2h-2.3V2.3h4.2c1.3,0,2.4,0.3,3.1,0.9c0.7,0.6,1.1,1.4,1.1,2.5c0,0.8-0.2,1.4-0.5,1.9
		c-0.3,0.5-0.8,0.9-1.5,1.2l2.4,4.6v0.1h-2.5L210.7,9.5z M208.8,7.6h1.9c0.6,0,1-0.1,1.4-0.4c0.3-0.3,0.5-0.7,0.5-1.2
		c0-0.5-0.2-1-0.5-1.3c-0.3-0.3-0.8-0.5-1.4-0.5h-1.9V7.6z"/>
</g>
<g class="st1">
	<path d="M224.7,4.2h-3.4v9.5h-2.3V4.2h-3.4V2.3h9.2V4.2z"/>
</g>
<g class="st1">
	<path d="M235.1,8.3c0,1.1-0.2,2.1-0.6,2.9s-1,1.5-1.7,2c-0.7,0.5-1.6,0.7-2.5,0.7c-0.9,0-1.8-0.2-2.5-0.7s-1.3-1.1-1.7-1.9
		c-0.4-0.8-0.6-1.8-0.6-2.9V7.8c0-1.1,0.2-2.1,0.6-3c0.4-0.9,1-1.5,1.7-2c0.7-0.5,1.6-0.7,2.5-0.7c0.9,0,1.8,0.2,2.5,0.7
		c0.7,0.5,1.3,1.1,1.7,2s0.6,1.8,0.6,2.9V8.3z M232.7,7.7c0-1.2-0.2-2.1-0.6-2.7c-0.4-0.6-1-0.9-1.8-0.9c-0.8,0-1.4,0.3-1.8,0.9
		c-0.4,0.6-0.6,1.5-0.6,2.7v0.6c0,1.2,0.2,2.1,0.6,2.7s1,1,1.8,1c0.8,0,1.4-0.3,1.8-0.9s0.6-1.5,0.6-2.7V7.7z"/>
	<path d="M242.6,10.7c0-0.4-0.2-0.8-0.5-1c-0.3-0.2-0.9-0.5-1.7-0.8c-0.8-0.3-1.4-0.5-1.9-0.8c-1.3-0.7-1.9-1.6-1.9-2.8
		c0-0.6,0.2-1.2,0.5-1.6c0.3-0.5,0.8-0.9,1.5-1.1c0.6-0.3,1.4-0.4,2.2-0.4c0.8,0,1.5,0.1,2.2,0.4c0.6,0.3,1.1,0.7,1.5,1.2
		c0.3,0.5,0.5,1.1,0.5,1.8h-2.3c0-0.5-0.2-0.9-0.5-1.2c-0.3-0.3-0.8-0.4-1.4-0.4c-0.6,0-1,0.1-1.3,0.4S239,5,239,5.3
		c0,0.4,0.2,0.7,0.6,0.9s0.9,0.5,1.6,0.7c1.3,0.4,2.3,0.9,2.9,1.5s0.9,1.3,0.9,2.2c0,1-0.4,1.8-1.1,2.3c-0.7,0.6-1.7,0.8-3,0.8
		c-0.9,0-1.7-0.2-2.4-0.5c-0.7-0.3-1.3-0.8-1.6-1.3c-0.4-0.6-0.6-1.2-0.6-1.9h2.3c0,1.3,0.7,1.9,2.2,1.9c0.6,0,1-0.1,1.3-0.3
		S242.6,11.1,242.6,10.7z"/>
</g>
<g class="st1">
	<path d="M116.4,29.3c0,1-0.2,1.8-0.5,2.6c-0.3,0.7-0.8,1.3-1.4,1.7c-0.6,0.4-1.3,0.6-2.1,0.6c-0.8,0-1.5-0.2-2.1-0.6
		s-1.1-0.9-1.4-1.6s-0.5-1.5-0.5-2.5v-0.7c0-1,0.2-1.8,0.5-2.5c0.3-0.7,0.8-1.3,1.4-1.7c0.6-0.4,1.3-0.6,2.1-0.6
		c0.8,0,1.5,0.2,2.1,0.6c0.6,0.4,1.1,0.9,1.4,1.7c0.3,0.7,0.5,1.6,0.5,2.6V29.3z M115.1,28.7c0-1.2-0.2-2.1-0.7-2.7s-1.1-0.9-2-0.9
		c-0.8,0-1.5,0.3-1.9,0.9c-0.5,0.6-0.7,1.5-0.7,2.6v0.7c0,1.1,0.2,2,0.7,2.7s1.1,1,2,1c0.8,0,1.5-0.3,1.9-0.9s0.7-1.5,0.7-2.7V28.7z
		"/>
	<path d="M126.1,34c-0.1-0.1-0.1-0.4-0.2-0.8c-0.6,0.6-1.3,0.9-2.1,0.9c-0.7,0-1.3-0.2-1.8-0.6s-0.7-0.9-0.7-1.6
		c0-0.8,0.3-1.4,0.9-1.8c0.6-0.4,1.4-0.6,2.4-0.6h1.2v-0.6c0-0.4-0.1-0.8-0.4-1.1s-0.6-0.4-1.2-0.4c-0.4,0-0.8,0.1-1.1,0.3
		s-0.5,0.5-0.5,0.8h-1.3c0-0.4,0.1-0.7,0.4-1.1c0.3-0.3,0.6-0.6,1.1-0.8s0.9-0.3,1.5-0.3c0.8,0,1.5,0.2,2,0.6c0.5,0.4,0.7,1,0.7,1.8
		v3.4c0,0.7,0.1,1.2,0.3,1.6V34H126.1z M124,33c0.4,0,0.8-0.1,1.1-0.3c0.4-0.2,0.6-0.5,0.8-0.8v-1.5h-1c-1.5,0-2.3,0.5-2.3,1.4
		c0,0.4,0.1,0.7,0.4,0.9C123.3,32.9,123.6,33,124,33z"/>
	<path d="M130.5,34h-1.3V23.5h1.3V34z"/>
	<path d="M132.5,24.6c0-0.2,0.1-0.4,0.2-0.5s0.3-0.2,0.6-0.2s0.4,0.1,0.6,0.2c0.1,0.1,0.2,0.3,0.2,0.5s-0.1,0.4-0.2,0.5
		c-0.1,0.1-0.3,0.2-0.6,0.2s-0.4-0.1-0.6-0.2S132.5,24.8,132.5,24.6z M133.8,34h-1.3v-7.4h1.3V34z"/>
	<path d="M137,26.6l0,0.8c0.5-0.6,1.3-1,2.2-1c1,0,1.7,0.4,2.1,1.2c0.2-0.4,0.6-0.6,1-0.9c0.4-0.2,0.9-0.3,1.4-0.3
		c1.6,0,2.4,0.9,2.4,2.6v5h-1.3v-4.9c0-0.5-0.1-0.9-0.4-1.2c-0.2-0.3-0.6-0.4-1.2-0.4c-0.5,0-0.9,0.1-1.2,0.4
		c-0.3,0.3-0.5,0.7-0.5,1.1V34h-1.3v-4.8c0-1.1-0.5-1.6-1.6-1.6c-0.8,0-1.4,0.4-1.7,1.1V34h-1.3v-7.4H137z"/>
	<path d="M151,34.1c-1,0-1.8-0.3-2.4-1s-0.9-1.5-0.9-2.6v-0.2c0-0.7,0.1-1.4,0.4-2c0.3-0.6,0.7-1,1.2-1.4s1-0.5,1.6-0.5
		c1,0,1.7,0.3,2.2,1s0.8,1.5,0.8,2.7v0.5h-5c0,0.7,0.2,1.3,0.6,1.8s0.9,0.7,1.5,0.7c0.4,0,0.8-0.1,1.1-0.3c0.3-0.2,0.6-0.4,0.8-0.7
		l0.8,0.6C153.2,33.6,152.3,34.1,151,34.1z M150.9,27.5c-0.5,0-0.9,0.2-1.3,0.6s-0.6,0.9-0.6,1.6h3.7v-0.1c0-0.6-0.2-1.1-0.5-1.5
		S151.4,27.5,150.9,27.5z"/>
	<path d="M156.5,26.6l0,0.9c0.6-0.7,1.3-1.1,2.2-1.1c1.5,0,2.3,0.9,2.3,2.6V34h-1.3v-4.9c0-0.5-0.1-0.9-0.4-1.2s-0.6-0.4-1.1-0.4
		c-0.4,0-0.8,0.1-1.1,0.3c-0.3,0.2-0.5,0.5-0.7,0.9V34h-1.3v-7.4H156.5z"/>
</g>
<g class="st1">
	<path d="M164.7,24.8v1.8h1.4v1h-1.4v4.6c0,0.3,0.1,0.5,0.2,0.7c0.1,0.1,0.3,0.2,0.6,0.2c0.1,0,0.3,0,0.6-0.1v1
		c-0.3,0.1-0.6,0.1-1,0.1c-0.6,0-1-0.2-1.3-0.5s-0.4-0.8-0.4-1.5v-4.6h-1.3v-1h1.3v-1.8H164.7z"/>
</g>
<g class="st1">
	<path d="M167,30.2c0-0.7,0.1-1.4,0.4-2c0.3-0.6,0.7-1,1.2-1.3s1.1-0.5,1.7-0.5c1,0,1.8,0.3,2.4,1c0.6,0.7,0.9,1.6,0.9,2.8v0.1
		c0,0.7-0.1,1.4-0.4,1.9s-0.7,1-1.2,1.3c-0.5,0.3-1.1,0.5-1.7,0.5c-1,0-1.8-0.3-2.4-1S167,31.5,167,30.2L167,30.2z M168.3,30.4
		c0,0.8,0.2,1.5,0.6,2c0.4,0.5,0.9,0.7,1.5,0.7c0.6,0,1.1-0.3,1.5-0.8s0.6-1.2,0.6-2.1c0-0.8-0.2-1.5-0.6-2s-0.9-0.8-1.5-0.8
		c-0.6,0-1.1,0.2-1.5,0.7C168.5,28.7,168.3,29.4,168.3,30.4z"/>
	<path d="M184.9,30.4c0,1.1-0.3,2-0.8,2.7s-1.2,1-2.1,1c-0.9,0-1.6-0.3-2.1-0.9v3.6h-1.3V26.6h1.1l0.1,0.8c0.5-0.6,1.2-1,2.1-1
		c0.9,0,1.6,0.3,2.1,1s0.8,1.6,0.8,2.8V30.4z M183.6,30.2c0-0.8-0.2-1.5-0.5-2s-0.8-0.7-1.4-0.7c-0.8,0-1.3,0.3-1.7,1v3.5
		c0.4,0.7,0.9,1,1.7,1c0.6,0,1.1-0.2,1.4-0.7C183.5,31.9,183.6,31.2,183.6,30.2z"/>
	<path d="M191,34c-0.1-0.1-0.1-0.4-0.2-0.8c-0.6,0.6-1.3,0.9-2.1,0.9c-0.7,0-1.3-0.2-1.8-0.6c-0.5-0.4-0.7-0.9-0.7-1.6
		c0-0.8,0.3-1.4,0.9-1.8c0.6-0.4,1.4-0.6,2.4-0.6h1.2v-0.6c0-0.4-0.1-0.8-0.4-1.1s-0.6-0.4-1.2-0.4c-0.4,0-0.8,0.1-1.1,0.3
		s-0.5,0.5-0.5,0.8h-1.3c0-0.4,0.1-0.7,0.4-1.1c0.3-0.3,0.6-0.6,1.1-0.8c0.4-0.2,0.9-0.3,1.5-0.3c0.8,0,1.5,0.2,2,0.6
		c0.5,0.4,0.7,1,0.7,1.8v3.4c0,0.7,0.1,1.2,0.3,1.6V34H191z M188.9,33c0.4,0,0.8-0.1,1.1-0.3s0.6-0.5,0.8-0.8v-1.5h-1
		c-1.5,0-2.3,0.5-2.3,1.4c0,0.4,0.1,0.7,0.4,0.9S188.5,33,188.9,33z"/>
	<path d="M198.3,32c0-0.3-0.1-0.6-0.4-0.8c-0.3-0.2-0.7-0.4-1.3-0.5c-0.6-0.1-1.1-0.3-1.5-0.5s-0.6-0.4-0.8-0.7
		c-0.2-0.3-0.3-0.6-0.3-0.9c0-0.6,0.3-1.1,0.8-1.5c0.5-0.4,1.2-0.6,1.9-0.6c0.8,0,1.5,0.2,2,0.6c0.5,0.4,0.8,1,0.8,1.7h-1.3
		c0-0.3-0.1-0.6-0.4-0.9s-0.7-0.4-1.1-0.4c-0.5,0-0.8,0.1-1.1,0.3s-0.4,0.5-0.4,0.8c0,0.3,0.1,0.5,0.4,0.7s0.7,0.3,1.3,0.4
		s1.1,0.3,1.5,0.5s0.7,0.4,0.9,0.7c0.2,0.3,0.3,0.6,0.3,1c0,0.7-0.3,1.2-0.8,1.6c-0.5,0.4-1.2,0.6-2,0.6c-0.6,0-1.1-0.1-1.6-0.3
		s-0.8-0.5-1.1-0.9s-0.4-0.8-0.4-1.2h1.3c0,0.4,0.2,0.8,0.5,1c0.3,0.2,0.7,0.4,1.2,0.4c0.5,0,0.9-0.1,1.1-0.3S198.3,32.3,198.3,32z"
		/>
	<path d="M205.4,32c0-0.3-0.1-0.6-0.4-0.8c-0.3-0.2-0.7-0.4-1.3-0.5c-0.6-0.1-1.1-0.3-1.5-0.5s-0.6-0.4-0.8-0.7
		c-0.2-0.3-0.3-0.6-0.3-0.9c0-0.6,0.3-1.1,0.8-1.5c0.5-0.4,1.2-0.6,1.9-0.6c0.8,0,1.5,0.2,2,0.6c0.5,0.4,0.8,1,0.8,1.7h-1.3
		c0-0.3-0.1-0.6-0.4-0.9s-0.7-0.4-1.1-0.4c-0.5,0-0.8,0.1-1.1,0.3s-0.4,0.5-0.4,0.8c0,0.3,0.1,0.5,0.4,0.7s0.7,0.3,1.3,0.4
		s1.1,0.3,1.5,0.5s0.7,0.4,0.9,0.7c0.2,0.3,0.3,0.6,0.3,1c0,0.7-0.3,1.2-0.8,1.6c-0.5,0.4-1.2,0.6-2,0.6c-0.6,0-1.1-0.1-1.6-0.3
		s-0.8-0.5-1.1-0.9s-0.4-0.8-0.4-1.2h1.3c0,0.4,0.2,0.8,0.5,1c0.3,0.2,0.7,0.4,1.2,0.4c0.5,0,0.9-0.1,1.1-0.3S205.4,32.3,205.4,32z"
		/>
	<path d="M212.8,34c-0.1-0.1-0.1-0.4-0.2-0.8c-0.6,0.6-1.3,0.9-2.1,0.9c-0.7,0-1.3-0.2-1.8-0.6c-0.5-0.4-0.7-0.9-0.7-1.6
		c0-0.8,0.3-1.4,0.9-1.8c0.6-0.4,1.4-0.6,2.4-0.6h1.2v-0.6c0-0.4-0.1-0.8-0.4-1.1s-0.6-0.4-1.2-0.4c-0.4,0-0.8,0.1-1.1,0.3
		s-0.5,0.5-0.5,0.8h-1.3c0-0.4,0.1-0.7,0.4-1.1c0.3-0.3,0.6-0.6,1.1-0.8c0.4-0.2,0.9-0.3,1.5-0.3c0.8,0,1.5,0.2,2,0.6
		c0.5,0.4,0.7,1,0.7,1.8v3.4c0,0.7,0.1,1.2,0.3,1.6V34H212.8z M210.8,33c0.4,0,0.8-0.1,1.1-0.3s0.6-0.5,0.8-0.8v-1.5h-1
		c-1.5,0-2.3,0.5-2.3,1.4c0,0.4,0.1,0.7,0.4,0.9S210.3,33,210.8,33z"/>
	<path d="M225.5,30.4c0,1.1-0.3,2-0.8,2.7s-1.2,1-2.1,1c-0.9,0-1.6-0.3-2.1-0.9v3.6h-1.3V26.6h1.1l0.1,0.8c0.5-0.6,1.2-1,2.1-1
		c0.9,0,1.6,0.3,2.1,1s0.8,1.6,0.8,2.8V30.4z M224.2,30.2c0-0.8-0.2-1.5-0.5-2s-0.8-0.7-1.4-0.7c-0.8,0-1.3,0.3-1.7,1v3.5
		c0.4,0.7,0.9,1,1.7,1c0.6,0,1.1-0.2,1.4-0.7C224,31.9,224.2,31.2,224.2,30.2z"/>
	<path d="M226.7,30.2c0-0.7,0.1-1.4,0.4-2s0.7-1,1.2-1.3c0.5-0.3,1.1-0.5,1.7-0.5c1,0,1.8,0.3,2.4,1c0.6,0.7,0.9,1.6,0.9,2.8v0.1
		c0,0.7-0.1,1.4-0.4,1.9c-0.3,0.6-0.7,1-1.2,1.3s-1.1,0.5-1.8,0.5c-1,0-1.8-0.3-2.4-1C227,32.4,226.7,31.5,226.7,30.2L226.7,30.2z
		 M228,30.4c0,0.8,0.2,1.5,0.6,2c0.4,0.5,0.9,0.7,1.5,0.7c0.6,0,1.1-0.3,1.5-0.8c0.4-0.5,0.6-1.2,0.6-2.1c0-0.8-0.2-1.5-0.6-2
		s-0.9-0.8-1.5-0.8c-0.6,0-1.1,0.2-1.5,0.7C228.2,28.7,228,29.4,228,30.4z"/>
	<path d="M238.5,27.7c-0.2,0-0.4,0-0.6,0c-0.8,0-1.4,0.4-1.7,1.1V34H235v-7.4h1.2l0,0.9c0.4-0.7,1-1,1.7-1c0.2,0,0.4,0,0.6,0.1V27.7
		z"/>
</g>
<g class="st1">
	<path d="M113.2,50.8c-0.1-0.2-0.2-0.4-0.2-0.7c-0.5,0.5-1.1,0.8-1.8,0.8c-0.7,0-1.3-0.2-1.8-0.6c-0.5-0.4-0.7-0.9-0.7-1.6
		c0-0.8,0.3-1.4,0.9-1.8s1.4-0.6,2.5-0.6h0.9v-0.4c0-0.3-0.1-0.6-0.3-0.8c-0.2-0.2-0.4-0.3-0.8-0.3c-0.3,0-0.6,0.1-0.8,0.2
		c-0.2,0.2-0.3,0.4-0.3,0.7h-2c0-0.4,0.1-0.8,0.4-1.2s0.6-0.7,1.1-0.9s1-0.3,1.6-0.3c0.9,0,1.6,0.2,2.1,0.7s0.8,1.1,0.8,1.9v3.2
		c0,0.7,0.1,1.2,0.3,1.6v0.1H113.2z M111.6,49.4c0.3,0,0.6-0.1,0.8-0.2s0.4-0.3,0.5-0.5v-1.3h-0.7c-1,0-1.5,0.3-1.6,1l0,0.1
		c0,0.2,0.1,0.4,0.3,0.6C111.1,49.3,111.3,49.4,111.6,49.4z"/>
	<path d="M118.8,41.6v1.8h1.3v1.4h-1.3v3.7c0,0.3,0.1,0.5,0.2,0.6c0.1,0.1,0.3,0.2,0.6,0.2c0.2,0,0.4,0,0.6,0v1.5
		c-0.4,0.1-0.8,0.2-1.2,0.2c-1.4,0-2.1-0.7-2.1-2.1v-4h-1.1v-1.4h1.1v-1.8H118.8z"/>
	<path d="M124.5,50.9c-1.1,0-1.9-0.3-2.6-1s-1-1.6-1-2.7v-0.2c0-0.7,0.1-1.4,0.4-2s0.7-1,1.2-1.4s1.1-0.5,1.8-0.5c1,0,1.8,0.3,2.4,1
		s0.9,1.5,0.9,2.7v0.8h-4.7c0.1,0.5,0.3,0.9,0.6,1.2s0.7,0.4,1.2,0.4c0.8,0,1.3-0.3,1.8-0.8l1,1.1c-0.3,0.4-0.7,0.7-1.2,1
		C125.6,50.8,125.1,50.9,124.5,50.9z M124.2,44.8c-0.4,0-0.7,0.1-0.9,0.4c-0.2,0.3-0.4,0.6-0.5,1.1h2.7v-0.2c0-0.4-0.1-0.8-0.4-1
		S124.7,44.8,124.2,44.8z M124.4,40.3h2.1l-1.9,2.1h-1.6L124.4,40.3z"/>
	<path d="M136.4,50c-0.5,0.6-1.2,0.9-2,0.9c-0.8,0-1.4-0.2-1.8-0.7c-0.4-0.5-0.6-1.1-0.6-2v-4.8h2v4.8c0,0.8,0.3,1.2,1,1.2
		c0.7,0,1.1-0.2,1.4-0.7v-5.2h2v7.4h-1.8L136.4,50z"/>
	<path d="M141.6,43.4l0.1,0.8c0.5-0.6,1.2-1,2.1-1c0.9,0,1.6,0.4,1.9,1.1c0.5-0.8,1.2-1.1,2.2-1.1c0.8,0,1.4,0.2,1.8,0.7
		c0.4,0.5,0.6,1.2,0.6,2.1v4.7h-2v-4.7c0-0.4-0.1-0.7-0.2-0.9s-0.4-0.3-0.9-0.3c-0.6,0-1,0.3-1.2,0.8l0,5.1h-2v-4.7
		c0-0.4-0.1-0.7-0.3-0.9s-0.5-0.3-0.9-0.3c-0.6,0-1,0.2-1.2,0.7v5.2h-2v-7.4H141.6z"/>
	<path d="M155.2,41.5c0-0.3,0.1-0.5,0.3-0.7s0.5-0.3,0.8-0.3c0.3,0,0.6,0.1,0.8,0.3c0.2,0.2,0.3,0.4,0.3,0.7c0,0.3-0.1,0.5-0.3,0.7
		c-0.2,0.2-0.5,0.3-0.8,0.3c-0.3,0-0.6-0.1-0.8-0.3C155.3,42,155.2,41.8,155.2,41.5z M157.3,50.8h-2v-7.4h2V50.8z"/>
	<path d="M160.7,43.4l0.1,0.9c0.5-0.7,1.2-1,2.1-1c0.8,0,1.4,0.2,1.7,0.7c0.4,0.5,0.6,1.1,0.6,2.1v4.8h-2V46c0-0.4-0.1-0.7-0.3-0.9
		c-0.2-0.2-0.5-0.3-0.9-0.3c-0.6,0-1,0.2-1.2,0.7v5.2h-2v-7.4H160.7z"/>
	<path d="M169,41.6v1.8h1.3v1.4H169v3.7c0,0.3,0.1,0.5,0.2,0.6c0.1,0.1,0.3,0.2,0.6,0.2c0.2,0,0.4,0,0.6,0v1.5
		c-0.4,0.1-0.8,0.2-1.2,0.2c-1.4,0-2.1-0.7-2.1-2.1v-4H166v-1.4h1.1v-1.8H169z"/>
	<path d="M174.7,50.9c-1.1,0-1.9-0.3-2.6-1s-1-1.6-1-2.7v-0.2c0-0.7,0.1-1.4,0.4-2s0.7-1,1.2-1.4s1.1-0.5,1.8-0.5c1,0,1.8,0.3,2.4,1
		s0.9,1.5,0.9,2.7v0.8h-4.7c0.1,0.5,0.3,0.9,0.6,1.2s0.7,0.4,1.2,0.4c0.8,0,1.3-0.3,1.8-0.8l1,1.1c-0.3,0.4-0.7,0.7-1.2,1
		C175.9,50.8,175.3,50.9,174.7,50.9z M174.5,44.8c-0.4,0-0.7,0.1-0.9,0.4c-0.2,0.3-0.4,0.6-0.5,1.1h2.7v-0.2c0-0.4-0.1-0.8-0.4-1
		S174.9,44.8,174.5,44.8z"/>
	<path d="M183,45.2c-0.3,0-0.5-0.1-0.7-0.1c-0.7,0-1.2,0.3-1.5,0.8v4.8h-2v-7.4h1.8l0.1,0.9c0.4-0.7,0.9-1,1.6-1
		c0.2,0,0.4,0,0.6,0.1L183,45.2z"/>
	<path d="M185.8,43.4l0.1,0.8c0.5-0.6,1.2-1,2.1-1c0.9,0,1.6,0.4,1.9,1.1c0.5-0.8,1.2-1.1,2.2-1.1c0.8,0,1.4,0.2,1.8,0.7
		c0.4,0.5,0.6,1.2,0.6,2.1v4.7h-2v-4.7c0-0.4-0.1-0.7-0.2-0.9c-0.2-0.2-0.4-0.3-0.9-0.3c-0.6,0-1,0.3-1.2,0.8l0,5.1h-2v-4.7
		c0-0.4-0.1-0.7-0.2-0.9c-0.2-0.2-0.5-0.3-0.9-0.3c-0.6,0-1,0.2-1.2,0.7v5.2h-2v-7.4H185.8z"/>
	<path d="M199.3,50.9c-1.1,0-1.9-0.3-2.6-1s-1-1.6-1-2.7v-0.2c0-0.7,0.1-1.4,0.4-2c0.3-0.6,0.7-1,1.2-1.4c0.5-0.3,1.1-0.5,1.8-0.5
		c1,0,1.8,0.3,2.4,1c0.6,0.6,0.9,1.5,0.9,2.7v0.8h-4.7c0.1,0.5,0.3,0.9,0.6,1.2s0.7,0.4,1.2,0.4c0.8,0,1.3-0.3,1.8-0.8l1,1.1
		c-0.3,0.4-0.7,0.7-1.2,1S199.9,50.9,199.3,50.9z M199.1,44.8c-0.4,0-0.7,0.1-0.9,0.4s-0.4,0.6-0.5,1.1h2.7v-0.2
		c0-0.4-0.1-0.8-0.4-1C199.8,45,199.5,44.8,199.1,44.8z"/>
	<path d="M203.1,47c0-1.2,0.3-2.1,0.8-2.8c0.5-0.7,1.2-1,2.1-1c0.7,0,1.3,0.3,1.8,0.8v-3.8h2v10.5h-1.8l-0.1-0.8
		c-0.5,0.6-1.1,0.9-1.9,0.9c-0.9,0-1.6-0.3-2.1-1C203.4,49.2,203.1,48.2,203.1,47z M205.1,47.2c0,0.7,0.1,1.2,0.4,1.6
		c0.2,0.4,0.6,0.6,1,0.6c0.6,0,1-0.3,1.3-0.8v-2.9c-0.2-0.5-0.7-0.8-1.3-0.8C205.5,44.9,205.1,45.6,205.1,47.2z"/>
	<path d="M211.2,41.5c0-0.3,0.1-0.5,0.3-0.7c0.2-0.2,0.5-0.3,0.8-0.3c0.3,0,0.6,0.1,0.8,0.3c0.2,0.2,0.3,0.4,0.3,0.7
		c0,0.3-0.1,0.5-0.3,0.7c-0.2,0.2-0.5,0.3-0.8,0.3c-0.3,0-0.6-0.1-0.8-0.3S211.2,41.8,211.2,41.5z M213.3,50.8h-2v-7.4h2V50.8z"/>
	<path d="M219.1,50.8c-0.1-0.2-0.2-0.4-0.2-0.7c-0.5,0.5-1.1,0.8-1.8,0.8c-0.7,0-1.3-0.2-1.8-0.6s-0.7-0.9-0.7-1.6
		c0-0.8,0.3-1.4,0.9-1.8c0.6-0.4,1.4-0.6,2.5-0.6h0.9v-0.4c0-0.3-0.1-0.6-0.3-0.8c-0.2-0.2-0.4-0.3-0.8-0.3c-0.3,0-0.6,0.1-0.8,0.2
		c-0.2,0.2-0.3,0.4-0.3,0.7h-2c0-0.4,0.1-0.8,0.4-1.2s0.6-0.7,1.1-0.9c0.5-0.2,1-0.3,1.6-0.3c0.9,0,1.6,0.2,2.1,0.7s0.8,1.1,0.8,1.9
		v3.2c0,0.7,0.1,1.2,0.3,1.6v0.1H219.1z M217.5,49.4c0.3,0,0.6-0.1,0.8-0.2c0.2-0.1,0.4-0.3,0.5-0.5v-1.3h-0.7c-1,0-1.5,0.3-1.6,1
		l0,0.1c0,0.2,0.1,0.4,0.3,0.6C217,49.3,217.2,49.4,217.5,49.4z M218.3,40.3h2.1l-1.9,2.1h-1.6L218.3,40.3z"/>
	<path d="M226.4,45.2c-0.3,0-0.5-0.1-0.7-0.1c-0.7,0-1.2,0.3-1.5,0.8v4.8h-2v-7.4h1.8l0.1,0.9c0.4-0.7,0.9-1,1.6-1
		c0.2,0,0.4,0,0.6,0.1L226.4,45.2z"/>
	<path d="M227.4,41.5c0-0.3,0.1-0.5,0.3-0.7c0.2-0.2,0.5-0.3,0.8-0.3c0.3,0,0.6,0.1,0.8,0.3c0.2,0.2,0.3,0.4,0.3,0.7
		c0,0.3-0.1,0.5-0.3,0.7s-0.5,0.3-0.8,0.3c-0.3,0-0.6-0.1-0.8-0.3C227.5,42,227.4,41.8,227.4,41.5z M229.4,50.8h-2v-7.4h2V50.8z"/>
	<path d="M230.7,47c0-0.7,0.1-1.4,0.4-2c0.3-0.6,0.7-1,1.2-1.3s1.1-0.5,1.8-0.5c1,0,1.8,0.3,2.4,0.9s1,1.4,1,2.5l0,0.5
		c0,1.1-0.3,2-0.9,2.7s-1.5,1-2.5,1s-1.9-0.3-2.5-1C231.1,49.2,230.7,48.3,230.7,47L230.7,47z M232.7,47.2c0,0.7,0.1,1.2,0.4,1.6
		c0.3,0.4,0.6,0.6,1.1,0.6c0.5,0,0.8-0.2,1.1-0.6c0.3-0.4,0.4-1,0.4-1.8c0-0.7-0.1-1.2-0.4-1.6c-0.3-0.4-0.6-0.6-1.1-0.6
		c-0.5,0-0.8,0.2-1.1,0.6S232.7,46.4,232.7,47.2z"/>
</g>
<g class="st1">
	<path d="M42.7,351.5h-3.5v3.8H38v-8.5h5.2v0.9h-4.1v2.9h3.5V351.5z"/>
	<path d="M46.9,355.4c-0.9,0-1.5-0.3-2.1-0.8s-0.8-1.3-0.8-2.3v-0.2c0-0.6,0.1-1.2,0.4-1.7c0.2-0.5,0.6-0.9,1-1.2s0.9-0.4,1.4-0.4
		c0.8,0,1.5,0.3,1.9,0.8c0.5,0.5,0.7,1.3,0.7,2.3v0.5h-4.3c0,0.6,0.2,1.1,0.5,1.5c0.3,0.4,0.8,0.6,1.3,0.6c0.4,0,0.7-0.1,1-0.2
		c0.3-0.2,0.5-0.4,0.7-0.6l0.7,0.5C48.7,355,47.9,355.4,46.9,355.4z M46.7,349.7c-0.4,0-0.8,0.2-1.1,0.5c-0.3,0.3-0.5,0.8-0.5,1.3
		h3.1v-0.1c0-0.6-0.2-1-0.4-1.3C47.6,349.9,47.2,349.7,46.7,349.7z"/>
	<path d="M50.6,347.3c0-0.2,0.1-0.3,0.2-0.4s0.3-0.2,0.5-0.2s0.4,0.1,0.5,0.2s0.2,0.3,0.2,0.4s-0.1,0.3-0.2,0.4s-0.3,0.2-0.5,0.2
		s-0.4-0.1-0.5-0.2S50.6,347.5,50.6,347.3z M51.7,355.3h-1.1V349h1.1V355.3z"/>
	<path d="M56.5,349.9c-0.2,0-0.3,0-0.5,0c-0.7,0-1.2,0.3-1.4,0.9v4.5h-1.1V349h1l0,0.7c0.4-0.6,0.9-0.8,1.5-0.8c0.2,0,0.4,0,0.5,0.1
		V349.9z"/>
	<path d="M61.1,355.3c-0.1-0.1-0.1-0.3-0.2-0.7c-0.5,0.5-1.1,0.8-1.8,0.8c-0.6,0-1.1-0.2-1.5-0.5c-0.4-0.4-0.6-0.8-0.6-1.3
		c0-0.7,0.2-1.2,0.7-1.5c0.5-0.4,1.2-0.5,2.1-0.5h1V351c0-0.4-0.1-0.7-0.3-0.9c-0.2-0.2-0.6-0.3-1-0.3c-0.4,0-0.7,0.1-1,0.3
		c-0.3,0.2-0.4,0.4-0.4,0.7h-1.1c0-0.3,0.1-0.6,0.3-0.9c0.2-0.3,0.5-0.5,0.9-0.7c0.4-0.2,0.8-0.3,1.3-0.3c0.7,0,1.3,0.2,1.7,0.5
		c0.4,0.4,0.6,0.9,0.6,1.5v2.9c0,0.6,0.1,1,0.2,1.4v0.1H61.1z M59.3,354.5c0.3,0,0.7-0.1,1-0.3s0.5-0.4,0.7-0.7v-1.3h-0.8
		c-1.3,0-2,0.4-2,1.2c0,0.3,0.1,0.6,0.3,0.8C58.7,354.4,59,354.5,59.3,354.5z"/>
	<path d="M67.4,353.6c0-0.3-0.1-0.5-0.3-0.7c-0.2-0.2-0.6-0.3-1.1-0.4s-1-0.3-1.3-0.4c-0.3-0.2-0.6-0.4-0.7-0.6s-0.2-0.5-0.2-0.8
		c0-0.5,0.2-1,0.7-1.3s1-0.5,1.7-0.5c0.7,0,1.3,0.2,1.7,0.6s0.7,0.8,0.7,1.4h-1.1c0-0.3-0.1-0.6-0.4-0.8s-0.6-0.3-0.9-0.3
		c-0.4,0-0.7,0.1-0.9,0.3c-0.2,0.2-0.3,0.4-0.3,0.7c0,0.3,0.1,0.5,0.3,0.6c0.2,0.1,0.6,0.3,1.1,0.4c0.5,0.1,1,0.3,1.3,0.4
		c0.3,0.2,0.6,0.4,0.7,0.6c0.2,0.2,0.2,0.5,0.2,0.9c0,0.6-0.2,1-0.7,1.4s-1,0.5-1.7,0.5c-0.5,0-0.9-0.1-1.3-0.3s-0.7-0.4-0.9-0.8
		c-0.2-0.3-0.3-0.7-0.3-1h1.1c0,0.4,0.2,0.7,0.4,0.9c0.3,0.2,0.6,0.3,1.1,0.3c0.4,0,0.7-0.1,1-0.2S67.4,353.9,67.4,353.6z"/>
	<path d="M72.5,352.1c0-1,0.2-1.8,0.7-2.3c0.5-0.6,1.1-0.9,1.8-0.9c0.7,0,1.3,0.3,1.7,0.8v-3.3h1.1v9h-1l-0.1-0.7
		c-0.4,0.5-1,0.8-1.8,0.8c-0.7,0-1.3-0.3-1.8-0.9C72.7,353.9,72.5,353.1,72.5,352.1L72.5,352.1z M73.6,352.2c0,0.7,0.1,1.3,0.4,1.7
		s0.7,0.6,1.2,0.6c0.7,0,1.2-0.3,1.5-0.9v-2.9c-0.3-0.6-0.8-0.9-1.5-0.9c-0.5,0-0.9,0.2-1.2,0.6S73.6,351.4,73.6,352.2z"/>
	<path d="M82.1,355.4c-0.9,0-1.5-0.3-2.1-0.8s-0.8-1.3-0.8-2.3v-0.2c0-0.6,0.1-1.2,0.4-1.7c0.2-0.5,0.6-0.9,1-1.2s0.9-0.4,1.4-0.4
		c0.8,0,1.5,0.3,1.9,0.8c0.5,0.5,0.7,1.3,0.7,2.3v0.5h-4.3c0,0.6,0.2,1.1,0.5,1.5c0.3,0.4,0.8,0.6,1.3,0.6c0.4,0,0.7-0.1,1-0.2
		c0.3-0.2,0.5-0.4,0.7-0.6l0.7,0.5C83.9,355,83.1,355.4,82.1,355.4z M81.9,349.7c-0.4,0-0.8,0.2-1.1,0.5c-0.3,0.3-0.5,0.8-0.5,1.3
		h3.1v-0.1c0-0.6-0.2-1-0.4-1.3C82.7,349.9,82.4,349.7,81.9,349.7z"/>
	<path d="M94,352.2c0,1-0.2,1.7-0.7,2.3s-1,0.9-1.8,0.9c-0.8,0-1.4-0.2-1.8-0.7v3.1h-1.1V349h1l0.1,0.7c0.4-0.5,1-0.8,1.8-0.8
		c0.8,0,1.4,0.3,1.8,0.9S94,351.1,94,352.2L94,352.2z M92.9,352.1c0-0.7-0.2-1.3-0.5-1.7s-0.7-0.6-1.2-0.6c-0.6,0-1.1,0.3-1.5,0.9v3
		c0.3,0.6,0.8,0.9,1.5,0.9c0.5,0,0.9-0.2,1.2-0.6S92.9,352.9,92.9,352.1z"/>
	<path d="M98.4,349.9c-0.2,0-0.3,0-0.5,0c-0.7,0-1.2,0.3-1.4,0.9v4.5h-1.1V349h1l0,0.7c0.4-0.6,0.9-0.8,1.5-0.8c0.2,0,0.4,0,0.5,0.1
		V349.9z"/>
	<path d="M99,352.1c0-0.6,0.1-1.2,0.4-1.7c0.2-0.5,0.6-0.9,1-1.1c0.4-0.3,0.9-0.4,1.5-0.4c0.9,0,1.5,0.3,2.1,0.9s0.8,1.4,0.8,2.4
		v0.1c0,0.6-0.1,1.2-0.4,1.7s-0.6,0.9-1,1.1s-0.9,0.4-1.5,0.4c-0.9,0-1.5-0.3-2.1-0.9S99,353.1,99,352.1L99,352.1z M100.1,352.2
		c0,0.7,0.2,1.3,0.5,1.7c0.3,0.4,0.8,0.6,1.3,0.6c0.5,0,1-0.2,1.3-0.6s0.5-1,0.5-1.8c0-0.7-0.2-1.3-0.5-1.7s-0.8-0.6-1.3-0.6
		c-0.5,0-1,0.2-1.3,0.6C100.2,350.8,100.1,351.4,100.1,352.2z"/>
	<path d="M105.8,352.1c0-1,0.2-1.8,0.7-2.3c0.5-0.6,1.1-0.9,1.8-0.9c0.7,0,1.3,0.3,1.7,0.8v-3.3h1.1v9h-1l-0.1-0.7
		c-0.4,0.5-1,0.8-1.8,0.8c-0.7,0-1.3-0.3-1.8-0.9C106,353.9,105.8,353.1,105.8,352.1L105.8,352.1z M106.9,352.2
		c0,0.7,0.1,1.3,0.4,1.7s0.7,0.6,1.2,0.6c0.7,0,1.2-0.3,1.5-0.9v-2.9c-0.3-0.6-0.8-0.9-1.5-0.9c-0.5,0-0.9,0.2-1.2,0.6
		S106.9,351.4,106.9,352.2z"/>
	<path d="M116.6,354.7c-0.4,0.5-1,0.7-1.8,0.7c-0.7,0-1.2-0.2-1.5-0.6c-0.4-0.4-0.5-1-0.5-1.7V349h1.1v4.1c0,1,0.4,1.4,1.2,1.4
		c0.8,0,1.4-0.3,1.6-0.9V349h1.1v6.3h-1L116.6,354.7z"/>
	<path d="M120.8,347.4v1.5h1.2v0.8h-1.2v3.9c0,0.3,0.1,0.4,0.2,0.6s0.3,0.2,0.5,0.2c0.1,0,0.3,0,0.5-0.1v0.9
		c-0.3,0.1-0.6,0.1-0.8,0.1c-0.5,0-0.8-0.1-1.1-0.4s-0.4-0.7-0.4-1.2v-3.9h-1.1V349h1.1v-1.5H120.8z"/>
	<path d="M122.8,352.1c0-0.6,0.1-1.2,0.4-1.7c0.2-0.5,0.6-0.9,1-1.1c0.4-0.3,0.9-0.4,1.5-0.4c0.9,0,1.5,0.3,2.1,0.9s0.8,1.4,0.8,2.4
		v0.1c0,0.6-0.1,1.2-0.4,1.7s-0.6,0.9-1,1.1s-0.9,0.4-1.5,0.4c-0.9,0-1.5-0.3-2.1-0.9S122.8,353.1,122.8,352.1L122.8,352.1z
		 M123.9,352.2c0,0.7,0.2,1.3,0.5,1.7c0.3,0.4,0.8,0.6,1.3,0.6c0.5,0,1-0.2,1.3-0.6s0.5-1,0.5-1.8c0-0.7-0.2-1.3-0.5-1.7
		s-0.8-0.6-1.3-0.6c-0.5,0-1,0.2-1.3,0.6C124,350.8,123.9,351.4,123.9,352.2z"/>
	<path d="M132.9,349.9c-0.2,0-0.3,0-0.5,0c-0.7,0-1.2,0.3-1.4,0.9v4.5h-1.1V349h1l0,0.7c0.4-0.6,0.9-0.8,1.5-0.8
		c0.2,0,0.4,0,0.5,0.1V349.9z"/>
	<path d="M136.4,355.4c-0.9,0-1.5-0.3-2.1-0.8s-0.8-1.3-0.8-2.3v-0.2c0-0.6,0.1-1.2,0.4-1.7c0.2-0.5,0.6-0.9,1-1.2s0.9-0.4,1.4-0.4
		c0.8,0,1.5,0.3,1.9,0.8c0.5,0.5,0.7,1.3,0.7,2.3v0.5h-4.3c0,0.6,0.2,1.1,0.5,1.5c0.3,0.4,0.8,0.6,1.3,0.6c0.4,0,0.7-0.1,1-0.2
		c0.3-0.2,0.5-0.4,0.7-0.6l0.7,0.5C138.2,355,137.4,355.4,136.4,355.4z M136.2,349.7c-0.4,0-0.8,0.2-1.1,0.5
		c-0.3,0.3-0.5,0.8-0.5,1.3h3.1v-0.1c0-0.6-0.2-1-0.4-1.3C137,349.9,136.7,349.7,136.2,349.7z"/>
	<path d="M143.7,353.6c0-0.3-0.1-0.5-0.3-0.7c-0.2-0.2-0.6-0.3-1.1-0.4s-1-0.3-1.3-0.4c-0.3-0.2-0.6-0.4-0.7-0.6s-0.2-0.5-0.2-0.8
		c0-0.5,0.2-1,0.7-1.3s1-0.5,1.7-0.5c0.7,0,1.3,0.2,1.7,0.6s0.7,0.8,0.7,1.4h-1.1c0-0.3-0.1-0.6-0.4-0.8s-0.6-0.3-0.9-0.3
		c-0.4,0-0.7,0.1-0.9,0.3c-0.2,0.2-0.3,0.4-0.3,0.7c0,0.3,0.1,0.5,0.3,0.6c0.2,0.1,0.6,0.3,1.1,0.4c0.5,0.1,1,0.3,1.3,0.4
		c0.3,0.2,0.6,0.4,0.7,0.6c0.2,0.2,0.2,0.5,0.2,0.9c0,0.6-0.2,1-0.7,1.4s-1,0.5-1.7,0.5c-0.5,0-0.9-0.1-1.3-0.3s-0.7-0.4-0.9-0.8
		c-0.2-0.3-0.3-0.7-0.3-1h1.1c0,0.4,0.2,0.7,0.4,0.9c0.3,0.2,0.6,0.3,1.1,0.3c0.4,0,0.7-0.1,1-0.2S143.7,353.9,143.7,353.6z"/>
</g>
<g class="st1">
	<path d="M67,369.8c-0.9,0-1.5-0.3-2.1-0.8s-0.8-1.3-0.8-2.3v-0.2c0-0.6,0.1-1.2,0.4-1.7c0.2-0.5,0.6-0.9,1-1.2s0.9-0.4,1.4-0.4
		c0.8,0,1.5,0.3,1.9,0.8c0.5,0.5,0.7,1.3,0.7,2.3v0.5h-4.3c0,0.6,0.2,1.1,0.5,1.5c0.3,0.4,0.8,0.6,1.3,0.6c0.4,0,0.7-0.1,1-0.2
		c0.3-0.2,0.5-0.4,0.7-0.6l0.7,0.5C68.9,369.4,68.1,369.8,67,369.8z M66.9,364.1c-0.4,0-0.8,0.2-1.1,0.5c-0.3,0.3-0.5,0.8-0.5,1.3
		h3.1v-0.1c0-0.6-0.2-1-0.4-1.3C67.7,364.3,67.3,364.1,66.9,364.1z"/>
	<path d="M73.4,366.5c0-0.6,0.1-1.2,0.4-1.7c0.2-0.5,0.6-0.9,1-1.1c0.4-0.3,0.9-0.4,1.5-0.4c0.9,0,1.5,0.3,2.1,0.9s0.8,1.4,0.8,2.4
		v0.1c0,0.6-0.1,1.2-0.4,1.7s-0.6,0.9-1,1.1s-0.9,0.4-1.5,0.4c-0.9,0-1.5-0.3-2.1-0.9S73.4,367.5,73.4,366.5L73.4,366.5z
		 M74.4,366.6c0,0.7,0.2,1.3,0.5,1.7c0.3,0.4,0.8,0.6,1.3,0.6c0.5,0,1-0.2,1.3-0.6s0.5-1,0.5-1.8c0-0.7-0.2-1.3-0.5-1.7
		s-0.8-0.6-1.3-0.6c-0.5,0-1,0.2-1.3,0.6C74.6,365.2,74.4,365.8,74.4,366.6z"/>
	<path d="M83.5,364.3c-0.2,0-0.3,0-0.5,0c-0.7,0-1.2,0.3-1.4,0.9v4.5h-1.1v-6.3h1l0,0.7c0.4-0.6,0.9-0.8,1.5-0.8
		c0.2,0,0.4,0,0.5,0.1V364.3z"/>
	<path d="M84.1,366.5c0-1,0.2-1.8,0.7-2.4c0.5-0.6,1.1-0.9,1.8-0.9c0.8,0,1.4,0.3,1.8,0.8l0.1-0.7h1v6.2c0,0.8-0.2,1.5-0.7,1.9
		s-1.1,0.7-1.9,0.7c-0.5,0-0.9-0.1-1.3-0.3s-0.8-0.5-1-0.8l0.6-0.7c0.5,0.6,1,0.9,1.7,0.9c0.5,0,0.9-0.1,1.2-0.4s0.4-0.7,0.4-1.3
		v-0.5c-0.4,0.5-1,0.8-1.8,0.8c-0.7,0-1.3-0.3-1.8-0.9C84.3,368.3,84.1,367.5,84.1,366.5z M85.2,366.6c0,0.7,0.1,1.3,0.4,1.7
		s0.7,0.6,1.2,0.6c0.7,0,1.2-0.3,1.5-0.9v-2.9c-0.3-0.6-0.8-0.9-1.5-0.9c-0.5,0-0.9,0.2-1.2,0.6S85.2,365.8,85.2,366.6z"/>
	<path d="M94.9,369.7c-0.1-0.1-0.1-0.3-0.2-0.7c-0.5,0.5-1.1,0.8-1.8,0.8c-0.6,0-1.1-0.2-1.5-0.5c-0.4-0.4-0.6-0.8-0.6-1.3
		c0-0.7,0.2-1.2,0.7-1.5c0.5-0.4,1.2-0.5,2.1-0.5h1v-0.5c0-0.4-0.1-0.7-0.3-0.9c-0.2-0.2-0.6-0.3-1-0.3c-0.4,0-0.7,0.1-1,0.3
		c-0.3,0.2-0.4,0.4-0.4,0.7H91c0-0.3,0.1-0.6,0.3-0.9c0.2-0.3,0.5-0.5,0.9-0.7c0.4-0.2,0.8-0.3,1.3-0.3c0.7,0,1.3,0.2,1.7,0.5
		c0.4,0.4,0.6,0.9,0.6,1.5v2.9c0,0.6,0.1,1,0.2,1.4v0.1H94.9z M95.3,362.3L95.3,362.3l-0.9,0.1l-0.9-1l-0.9,1l-0.9,0v-0.1l1.4-1.6
		h0.6L95.3,362.3z M93.1,368.9c0.3,0,0.7-0.1,1-0.3s0.5-0.4,0.7-0.7v-1.3h-0.8c-1.3,0-2,0.4-2,1.2c0,0.3,0.1,0.6,0.3,0.8
		C92.5,368.8,92.7,368.9,93.1,368.9z"/>
	<path d="M98.5,363.4l0,0.8c0.5-0.6,1.1-0.9,1.9-0.9c1.3,0,2,0.8,2,2.3v4.2h-1.1v-4.2c0-0.5-0.1-0.8-0.3-1s-0.5-0.3-0.9-0.3
		c-0.3,0-0.7,0.1-0.9,0.3c-0.3,0.2-0.5,0.4-0.6,0.7v4.5h-1.1v-6.3H98.5z"/>
	<path d="M104,361.7c0-0.2,0.1-0.3,0.2-0.4s0.3-0.2,0.5-0.2s0.4,0.1,0.5,0.2s0.2,0.3,0.2,0.4s-0.1,0.3-0.2,0.4s-0.3,0.2-0.5,0.2
		s-0.4-0.1-0.5-0.2S104,361.9,104,361.7z M105.2,369.7h-1.1v-6.3h1.1V369.7z"/>
	<path d="M109.4,368.9c0.4,0,0.7-0.1,1-0.4s0.4-0.5,0.5-0.9h1c0,0.4-0.1,0.7-0.4,1s-0.5,0.6-0.9,0.8s-0.8,0.3-1.2,0.3
		c-0.9,0-1.5-0.3-2-0.9c-0.5-0.6-0.8-1.4-0.8-2.4v-0.2c0-0.6,0.1-1.2,0.3-1.6s0.5-0.9,1-1.1s0.9-0.4,1.5-0.4c0.7,0,1.3,0.2,1.8,0.6
		c0.5,0.4,0.7,1,0.7,1.7h-1c0-0.4-0.2-0.7-0.5-1s-0.6-0.4-1-0.4c-0.5,0-1,0.2-1.3,0.6c-0.3,0.4-0.4,1-0.4,1.7v0.2
		c0,0.7,0.1,1.3,0.4,1.7C108.4,368.7,108.9,368.9,109.4,368.9z"/>
	<path d="M112.8,366.5c0-0.6,0.1-1.2,0.4-1.7c0.2-0.5,0.6-0.9,1-1.1c0.4-0.3,0.9-0.4,1.5-0.4c0.9,0,1.5,0.3,2.1,0.9s0.8,1.4,0.8,2.4
		v0.1c0,0.6-0.1,1.2-0.4,1.7s-0.6,0.9-1,1.1s-0.9,0.4-1.5,0.4c-0.9,0-1.5-0.3-2.1-0.9S112.8,367.5,112.8,366.5L112.8,366.5z
		 M113.9,366.6c0,0.7,0.2,1.3,0.5,1.7c0.3,0.4,0.8,0.6,1.3,0.6c0.5,0,1-0.2,1.3-0.6s0.5-1,0.5-1.8c0-0.7-0.2-1.3-0.5-1.7
		s-0.8-0.6-1.3-0.6c-0.5,0-1,0.2-1.3,0.6C114.1,365.2,113.9,365.8,113.9,366.6z"/>
	<path d="M123.6,368c0-0.3-0.1-0.5-0.3-0.7c-0.2-0.2-0.6-0.3-1.1-0.4s-1-0.3-1.3-0.4c-0.3-0.2-0.6-0.4-0.7-0.6s-0.2-0.5-0.2-0.8
		c0-0.5,0.2-1,0.7-1.3s1-0.5,1.7-0.5c0.7,0,1.3,0.2,1.7,0.6s0.7,0.8,0.7,1.4h-1.1c0-0.3-0.1-0.6-0.4-0.8s-0.6-0.3-0.9-0.3
		c-0.4,0-0.7,0.1-0.9,0.3c-0.2,0.2-0.3,0.4-0.3,0.7c0,0.3,0.1,0.5,0.3,0.6c0.2,0.1,0.6,0.3,1.1,0.4c0.5,0.1,1,0.3,1.3,0.4
		c0.3,0.2,0.6,0.4,0.7,0.6c0.2,0.2,0.2,0.5,0.2,0.9c0,0.6-0.2,1-0.7,1.4s-1,0.5-1.7,0.5c-0.5,0-0.9-0.1-1.3-0.3s-0.7-0.4-0.9-0.8
		c-0.2-0.3-0.3-0.7-0.3-1h1.1c0,0.4,0.2,0.7,0.4,0.9c0.3,0.2,0.6,0.3,1.1,0.3c0.4,0,0.7-0.1,1-0.2S123.6,368.3,123.6,368z"/>
</g>
<polygon points="114.2,270.7 116.6,270.7 124.6,287.7 121.4,287.7 "/>
<polygon points="111.1,270.7 112.1,270.7 119.4,287.7 117.3,287.7 "/>
<polygon points="108,270.7 109,270.7 115.2,287.7 113.2,287.7 "/>
<polygon points="104.9,270.7 105.9,270.7 111.1,287.7 108.8,287.7 "/>
<polygon points="101.9,270.7 102.8,270.7 106.9,287.7 104.6,287.7 "/>
<polygon points="99,270.7 99.9,270.7 102.7,287.7 100.2,287.7 "/>
<polygon points="96.1,270.7 97,270.7 98.4,287.7 96.1,287.7 "/>
<polygon points="92.5,270.7 93.4,270.7 93.4,287.7 91.1,287.7 "/>
<polygon points="89.6,270.7 90.5,270.7 89.1,287.7 86.8,287.7 "/>
<polygon points="86.6,270.7 87.6,270.7 84.8,287.7 82.5,287.7 "/>
<polygon points="83.6,270.7 84.6,270.7 80.5,287.7 78.4,287.7 "/>
<polygon points="80.7,270.7 81.5,270.7 76.3,287.7 74.1,287.7 "/>
<polygon points="77.6,270.7 78.4,270.7 72.2,287.7 70.2,287.7 "/>
<polygon points="72.6,270.7 75.4,270.7 68,287.7 65.6,287.7 "/>
<g>
	<rect x="67.8" y="304.7" width="55" height="4.6"/>
	<rect x="67.8" y="311.1" width="55" height="9.6"/>
</g>
</svg>
