<?xml version="1.0" encoding="utf-8"?>
<!-- Generator: Adobe Illustrator 24.3.0, SVG Export Plug-In . SVG Version: 6.00 Build 0)  -->
<svg version="1.1" id="Layer_1" xmlns="http://www.w3.org/2000/svg" xmlns:xlink="http://www.w3.org/1999/xlink" x="0px" y="0px"
	 viewBox="0 0 600 600" style="enable-background:new 0 0 600 600;" xml:space="preserve">
<style type="text/css">
	.st0{enable-background:new    ;}
	.st1{fill:#FFFFFF;}
	.st2{fill:none;stroke:#FFFFFF;stroke-width:4;}
	.st3{fill:#939598;}
</style>
<g class="st0">
	<path class="st1" d="M250.5,27.7h-3.4v3.6h-1.5v-8.5h5.4V24h-3.9v2.5h3.4V27.7z"/>
	<path class="st1" d="M258.4,22.8v5.7c0,0.9-0.3,1.6-0.9,2.2s-1.4,0.8-2.3,0.8c-1,0-1.8-0.3-2.3-0.8s-0.9-1.2-0.9-2.2v-5.7h1.5v5.7
		c0,0.6,0.1,1,0.4,1.3s0.7,0.5,1.3,0.5c1.1,0,1.7-0.6,1.7-1.8v-5.7H258.4z"/>
	<path class="st1" d="M266.8,31.4h-1.5l-3.8-6.1v6.1H260v-8.5h1.5l3.8,6.1v-6.1h1.5V31.4z"/>
	<path class="st1" d="M275,28.6c-0.1,0.9-0.4,1.6-1,2.1s-1.4,0.8-2.3,0.8c-0.7,0-1.3-0.2-1.8-0.5s-0.9-0.8-1.2-1.4s-0.4-1.3-0.4-2.1
		v-0.8c0-0.8,0.1-1.5,0.4-2.1s0.7-1.1,1.2-1.4s1.1-0.5,1.8-0.5c0.9,0,1.7,0.3,2.3,0.8s0.9,1.2,1,2.2h-1.5c-0.1-0.6-0.2-1.1-0.5-1.3
		s-0.7-0.4-1.3-0.4c-0.6,0-1.1,0.2-1.5,0.7c-0.3,0.5-0.5,1.2-0.5,2.1v0.8c0,0.9,0.2,1.6,0.5,2.1c0.3,0.5,0.8,0.7,1.5,0.7
		c0.6,0,1-0.1,1.3-0.4s0.5-0.7,0.6-1.3H275z M272.2,31.4l-0.1,0.3c0.6,0.1,0.9,0.4,0.9,1c0,0.4-0.2,0.7-0.5,1s-0.8,0.3-1.4,0.3
		l0-0.8c0.3,0,0.5,0,0.6-0.1s0.2-0.2,0.2-0.4c0-0.2-0.1-0.3-0.2-0.4s-0.4-0.1-0.7-0.1l0.2-0.8H272.2z"/>
	<path class="st1" d="M281.1,29.4h-3.3l-0.7,2h-1.5l3.2-8.5h1.3l3.2,8.5h-1.5L281.1,29.4z M281.7,20.7c0,0.4-0.1,0.8-0.4,1.1
		s-0.6,0.4-0.9,0.4c-0.2,0-0.3,0-0.4,0s-0.3-0.1-0.5-0.2s-0.3-0.2-0.4-0.2s-0.2,0-0.3,0c-0.1,0-0.3,0.1-0.4,0.2s-0.2,0.3-0.2,0.4
		l-0.9,0c0-0.4,0.1-0.8,0.4-1.1s0.6-0.4,0.9-0.4c0.2,0,0.5,0.1,0.8,0.3s0.6,0.3,0.8,0.3c0.1,0,0.3-0.1,0.4-0.2s0.2-0.3,0.2-0.4
		L281.7,20.7z M278.2,28.2h2.5l-1.2-3.5L278.2,28.2z"/>
	<path class="st1" d="M291,27.3c0,0.8-0.1,1.6-0.4,2.2s-0.7,1.1-1.2,1.5s-1.2,0.5-1.9,0.5c-0.7,0-1.3-0.2-1.8-0.5s-1-0.8-1.3-1.4
		s-0.4-1.3-0.4-2.2v-0.5c0-0.8,0.1-1.6,0.4-2.2s0.7-1.1,1.2-1.5s1.2-0.5,1.8-0.5s1.3,0.2,1.8,0.5s1,0.8,1.2,1.4s0.4,1.4,0.4,2.2
		V27.3z M289.6,26.9c0-0.9-0.2-1.7-0.5-2.2s-0.9-0.8-1.5-0.8c-0.6,0-1.1,0.3-1.5,0.8s-0.5,1.2-0.6,2.1v0.5c0,0.9,0.2,1.7,0.5,2.2
		s0.9,0.8,1.5,0.8c0.7,0,1.2-0.2,1.5-0.8s0.5-1.2,0.5-2.2V26.9z"/>
	<path class="st1" d="M297,28.2v3.2h-1.5v-8.5h3.3c1,0,1.7,0.2,2.3,0.7c0.6,0.5,0.8,1.2,0.8,2c0,0.8-0.3,1.5-0.8,2
		c-0.5,0.5-1.3,0.7-2.3,0.7H297z M297,27h1.8c0.5,0,0.9-0.1,1.2-0.4s0.4-0.6,0.4-1.1c0-0.5-0.1-0.8-0.4-1.1s-0.7-0.4-1.2-0.4H297V27
		z"/>
	<path class="st1" d="M306.3,28.1h-1.7v3.3h-1.5v-8.5h3c1,0,1.7,0.2,2.3,0.7c0.5,0.4,0.8,1.1,0.8,1.9c0,0.6-0.1,1-0.4,1.4
		c-0.3,0.4-0.7,0.7-1.2,0.9l1.9,3.6v0.1H308L306.3,28.1z M304.7,26.9h1.5c0.5,0,0.9-0.1,1.2-0.4s0.4-0.6,0.4-1
		c0-0.5-0.1-0.8-0.4-1.1s-0.6-0.4-1.2-0.4h-1.6V26.9z"/>
	<path class="st1" d="M312.2,31.4h-1.5v-8.5h1.5V31.4z"/>
	<path class="st1" d="M320.8,31.4h-1.5l-3.8-6.1v6.1H314v-8.5h1.5l3.8,6.1v-6.1h1.5V31.4z"/>
	<path class="st1" d="M329.1,28.6c-0.1,0.9-0.4,1.6-1,2.1s-1.4,0.8-2.3,0.8c-0.7,0-1.3-0.2-1.8-0.5s-0.9-0.8-1.2-1.4
		s-0.4-1.3-0.4-2.1v-0.8c0-0.8,0.1-1.5,0.4-2.1s0.7-1.1,1.2-1.4s1.1-0.5,1.8-0.5c0.9,0,1.7,0.3,2.3,0.8s0.9,1.2,1,2.2h-1.5
		c-0.1-0.6-0.2-1.1-0.5-1.3s-0.7-0.4-1.3-0.4c-0.6,0-1.1,0.2-1.5,0.7c-0.3,0.5-0.5,1.2-0.5,2.1v0.8c0,0.9,0.2,1.6,0.5,2.1
		c0.3,0.5,0.8,0.7,1.5,0.7c0.6,0,1-0.1,1.3-0.4s0.5-0.7,0.6-1.3H329.1z"/>
	<path class="st1" d="M332,31.4h-1.5v-8.5h1.5V31.4z"/>
	<path class="st1" d="M335.3,28.2v3.2h-1.5v-8.5h3.3c1,0,1.7,0.2,2.3,0.7c0.6,0.5,0.8,1.2,0.8,2c0,0.8-0.3,1.5-0.8,2
		c-0.5,0.5-1.3,0.7-2.3,0.7H335.3z M335.3,27h1.8c0.5,0,0.9-0.1,1.2-0.4s0.4-0.6,0.4-1.1c0-0.5-0.1-0.8-0.4-1.1s-0.7-0.4-1.2-0.4
		h-1.8V27z"/>
	<path class="st1" d="M345.2,29.4h-3.3l-0.7,2h-1.5l3.2-8.5h1.3l3.2,8.5h-1.5L345.2,29.4z M342.3,28.2h2.5l-1.2-3.5L342.3,28.2z"/>
	<path class="st1" d="M349.9,30.2h3.9v1.2h-5.4v-8.5h1.5V30.2z"/>
</g>
<line class="st2" x1="265.9" y1="6" x2="334.1" y2="6"/>
<g class="st0">
	<path class="st3" d="M234.2,50.2h-3.3l-0.7,2h-1.5l3.2-8.5h1.3l3.2,8.5h-1.5L234.2,50.2z M231.3,49h2.5l-1.2-3.5L231.3,49z"/>
	<path class="st3" d="M241.1,51.5c-0.4,0.5-1,0.7-1.8,0.7c-0.7,0-1.2-0.2-1.6-0.6s-0.5-1-0.5-1.7v-4.1h1.4v4.1c0,0.8,0.3,1.2,1,1.2
		c0.7,0,1.2-0.2,1.4-0.7v-4.6h1.4v6.3h-1.3L241.1,51.5z"/>
	<path class="st3" d="M245.7,44.3v1.5h1.1v1.1h-1.1v3.5c0,0.2,0,0.4,0.1,0.5s0.3,0.2,0.5,0.2c0.2,0,0.3,0,0.5-0.1v1.1
		c-0.3,0.1-0.6,0.1-0.9,0.1c-1.1,0-1.6-0.6-1.6-1.8v-3.6h-1v-1.1h1v-1.5H245.7z"/>
	<path class="st3" d="M247.4,48.9c0-0.6,0.1-1.2,0.4-1.7s0.6-0.9,1-1.1s1-0.4,1.5-0.4c0.9,0,1.5,0.3,2.1,0.8s0.8,1.3,0.9,2.2l0,0.3
		c0,0.6-0.1,1.2-0.4,1.7s-0.6,0.9-1,1.1s-1,0.4-1.5,0.4c-0.9,0-1.6-0.3-2.1-0.9S247.4,50,247.4,48.9L247.4,48.9z M248.9,49.1
		c0,0.7,0.1,1.2,0.4,1.5s0.6,0.6,1.1,0.6s0.9-0.2,1.1-0.6s0.4-0.9,0.4-1.6c0-0.6-0.1-1.1-0.4-1.5s-0.6-0.6-1.1-0.6
		c-0.5,0-0.8,0.2-1.1,0.6S248.9,48.3,248.9,49.1z"/>
	<path class="st3" d="M257.2,51.1c0.4,0,0.7-0.1,0.9-0.3s0.4-0.5,0.4-0.8h1.3c0,0.4-0.1,0.8-0.4,1.1s-0.5,0.6-0.9,0.8
		s-0.8,0.3-1.3,0.3c-0.9,0-1.6-0.3-2.1-0.9s-0.8-1.4-0.8-2.4v-0.1c0-1,0.3-1.7,0.8-2.3s1.2-0.9,2.1-0.9c0.8,0,1.4,0.2,1.8,0.7
		s0.7,1,0.7,1.7h-1.3c0-0.4-0.1-0.7-0.4-0.9s-0.5-0.4-0.9-0.4c-0.5,0-0.8,0.2-1.1,0.5s-0.4,0.8-0.4,1.5v0.2c0,0.7,0.1,1.2,0.4,1.5
		S256.7,51.1,257.2,51.1z"/>
	<path class="st3" d="M260.6,48.9c0-0.6,0.1-1.2,0.4-1.7s0.6-0.9,1-1.1s1-0.4,1.5-0.4c0.9,0,1.5,0.3,2.1,0.8s0.8,1.3,0.9,2.2l0,0.3
		c0,0.6-0.1,1.2-0.4,1.7s-0.6,0.9-1,1.1s-1,0.4-1.5,0.4c-0.9,0-1.6-0.3-2.1-0.9S260.6,50,260.6,48.9L260.6,48.9z M262,49.1
		c0,0.7,0.1,1.2,0.4,1.5s0.6,0.6,1.1,0.6s0.9-0.2,1.1-0.6s0.4-0.9,0.4-1.6c0-0.6-0.1-1.1-0.4-1.5s-0.6-0.6-1.1-0.6
		c-0.5,0-0.8,0.2-1.1,0.6S262,48.3,262,49.1z"/>
	<path class="st3" d="M269,45.8l0,0.7c0.5-0.6,1.1-0.8,1.8-0.8c1.3,0,2,0.8,2,2.3v4.2h-1.4v-4.1c0-0.4-0.1-0.7-0.3-0.9
		s-0.5-0.3-0.9-0.3c-0.6,0-1,0.3-1.3,0.8v4.5h-1.4v-6.3H269z"/>
	<path class="st3" d="M277.9,50.4c0-0.3-0.1-0.4-0.3-0.6s-0.6-0.2-1-0.4s-0.9-0.2-1.2-0.4c-0.7-0.3-1.1-0.8-1.1-1.5
		c0-0.5,0.2-1,0.7-1.4s1-0.6,1.8-0.6c0.8,0,1.4,0.2,1.8,0.6s0.7,0.9,0.7,1.5h-1.4c0-0.3-0.1-0.5-0.3-0.7s-0.5-0.3-0.8-0.3
		c-0.3,0-0.6,0.1-0.8,0.2s-0.3,0.3-0.3,0.6c0,0.2,0.1,0.4,0.3,0.5s0.6,0.2,1.1,0.4s1,0.3,1.3,0.4s0.6,0.4,0.7,0.6s0.2,0.5,0.2,0.9
		c0,0.6-0.2,1-0.7,1.4s-1.1,0.5-1.9,0.5c-0.5,0-1-0.1-1.4-0.3s-0.7-0.4-0.9-0.8s-0.3-0.7-0.3-1.1h1.4c0,0.3,0.1,0.6,0.4,0.8
		s0.5,0.3,0.9,0.3c0.4,0,0.7-0.1,0.9-0.2S277.9,50.7,277.9,50.4z"/>
	<path class="st3" d="M284.4,51.5c-0.4,0.5-1,0.7-1.8,0.7c-0.7,0-1.2-0.2-1.6-0.6s-0.5-1-0.5-1.7v-4.1h1.4v4.1c0,0.8,0.3,1.2,1,1.2
		c0.7,0,1.2-0.2,1.4-0.7v-4.6h1.4v6.3h-1.3L284.4,51.5z"/>
	<path class="st3" d="M288.5,45.8l0,0.7c0.4-0.5,1.1-0.8,1.8-0.8c0.8,0,1.4,0.3,1.7,1c0.5-0.6,1.1-1,1.9-1c0.7,0,1.2,0.2,1.6,0.6
		s0.5,1,0.5,1.7v4.2h-1.4V48c0-0.4-0.1-0.7-0.3-0.9s-0.5-0.3-0.9-0.3c-0.3,0-0.6,0.1-0.8,0.3s-0.3,0.4-0.4,0.7l0,4.3H291V48
		c0-0.7-0.4-1.1-1.1-1.1c-0.6,0-1,0.2-1.2,0.7v4.6h-1.4v-6.3H288.5z"/>
	<path class="st3" d="M297.4,48.9c0-0.6,0.1-1.2,0.4-1.7s0.6-0.9,1-1.1s1-0.4,1.5-0.4c0.9,0,1.5,0.3,2.1,0.8s0.8,1.3,0.9,2.2l0,0.3
		c0,0.6-0.1,1.2-0.4,1.7s-0.6,0.9-1,1.1s-1,0.4-1.5,0.4c-0.9,0-1.6-0.3-2.1-0.9S297.4,50,297.4,48.9L297.4,48.9z M298.8,49.1
		c0,0.7,0.1,1.2,0.4,1.5s0.6,0.6,1.1,0.6c0.5,0,0.9-0.2,1.1-0.6s0.4-0.9,0.4-1.6c0-0.6-0.1-1.1-0.4-1.5s-0.6-0.6-1.1-0.6
		c-0.5,0-0.8,0.2-1.1,0.6S298.8,48.3,298.8,49.1z"/>
	<path class="st3" d="M310.2,52.3c-0.9,0-1.6-0.3-2.2-0.9s-0.8-1.3-0.8-2.3V49c0-0.6,0.1-1.2,0.4-1.7s0.6-0.9,1-1.2s0.9-0.4,1.5-0.4
		c0.9,0,1.5,0.3,2,0.8s0.7,1.3,0.7,2.3v0.6h-4.1c0,0.5,0.2,0.9,0.5,1.2s0.7,0.5,1.2,0.5c0.7,0,1.2-0.3,1.6-0.8l0.8,0.7
		c-0.3,0.4-0.6,0.7-1,0.9S310.8,52.3,310.2,52.3z M310.1,46.8c-0.4,0-0.7,0.1-0.9,0.4s-0.4,0.7-0.5,1.1h2.7v-0.1
		c0-0.5-0.2-0.8-0.4-1.1S310.5,46.8,310.1,46.8z"/>
	<path class="st3" d="M319.5,51.1c0.4,0,0.7-0.1,0.9-0.3s0.4-0.5,0.4-0.8h1.3c0,0.4-0.1,0.8-0.4,1.1s-0.5,0.6-0.9,0.8
		s-0.8,0.3-1.3,0.3c-0.9,0-1.6-0.3-2.1-0.9s-0.8-1.4-0.8-2.4v-0.1c0-1,0.3-1.7,0.8-2.3s1.2-0.9,2.1-0.9c0.8,0,1.4,0.2,1.8,0.7
		s0.7,1,0.7,1.7h-1.3c0-0.4-0.1-0.7-0.4-0.9s-0.5-0.4-0.9-0.4c-0.5,0-0.8,0.2-1.1,0.5s-0.4,0.8-0.4,1.5v0.2c0,0.7,0.1,1.2,0.4,1.5
		S319,51.1,319.5,51.1z"/>
	<path class="st3" d="M322.9,48.9c0-0.6,0.1-1.2,0.4-1.7s0.6-0.9,1-1.1s1-0.4,1.5-0.4c0.9,0,1.5,0.3,2.1,0.8s0.8,1.3,0.9,2.2l0,0.3
		c0,0.6-0.1,1.2-0.4,1.7s-0.6,0.9-1,1.1s-1,0.4-1.5,0.4c-0.9,0-1.6-0.3-2.1-0.9S322.9,50,322.9,48.9L322.9,48.9z M324.3,49.1
		c0,0.7,0.1,1.2,0.4,1.5s0.6,0.6,1.1,0.6s0.9-0.2,1.1-0.6s0.4-0.9,0.4-1.6c0-0.6-0.1-1.1-0.4-1.5s-0.6-0.6-1.1-0.6
		c-0.5,0-0.8,0.2-1.1,0.6S324.3,48.3,324.3,49.1z"/>
	<path class="st3" d="M331.3,45.8l0,0.7c0.4-0.5,1.1-0.8,1.8-0.8c0.8,0,1.4,0.3,1.7,1c0.5-0.6,1.1-1,1.9-1c0.7,0,1.2,0.2,1.6,0.6
		s0.5,1,0.5,1.7v4.2h-1.4V48c0-0.4-0.1-0.7-0.3-0.9s-0.5-0.3-0.9-0.3c-0.3,0-0.6,0.1-0.8,0.3s-0.3,0.4-0.4,0.7l0,4.3h-1.4V48
		c0-0.7-0.4-1.1-1.1-1.1c-0.6,0-1,0.2-1.2,0.7v4.6H330v-6.3H331.3z"/>
	<path class="st3" d="M343.2,52.3c-0.9,0-1.6-0.3-2.2-0.9s-0.8-1.3-0.8-2.3V49c0-0.6,0.1-1.2,0.4-1.7s0.6-0.9,1-1.2s0.9-0.4,1.5-0.4
		c0.9,0,1.5,0.3,2,0.8s0.7,1.3,0.7,2.3v0.6h-4.1c0,0.5,0.2,0.9,0.5,1.2s0.7,0.5,1.2,0.5c0.7,0,1.2-0.3,1.6-0.8l0.8,0.7
		c-0.3,0.4-0.6,0.7-1,0.9S343.8,52.3,343.2,52.3z M343.1,46.8c-0.4,0-0.7,0.1-0.9,0.4s-0.4,0.7-0.5,1.1h2.7v-0.1
		c0-0.5-0.2-0.8-0.4-1.1S343.5,46.8,343.1,46.8z"/>
	<path class="st3" d="M350.2,47.1c-0.2,0-0.4,0-0.6,0c-0.7,0-1.1,0.2-1.3,0.8v4.3h-1.4v-6.3h1.4l0,0.7c0.3-0.6,0.8-0.8,1.4-0.8
		c0.2,0,0.4,0,0.5,0.1L350.2,47.1z"/>
	<path class="st3" d="M353.6,51.1c0.4,0,0.7-0.1,0.9-0.3s0.4-0.5,0.4-0.8h1.3c0,0.4-0.1,0.8-0.4,1.1s-0.5,0.6-0.9,0.8
		s-0.8,0.3-1.3,0.3c-0.9,0-1.6-0.3-2.1-0.9s-0.8-1.4-0.8-2.4v-0.1c0-1,0.3-1.7,0.8-2.3s1.2-0.9,2.1-0.9c0.8,0,1.4,0.2,1.8,0.7
		s0.7,1,0.7,1.7h-1.3c0-0.4-0.1-0.7-0.4-0.9s-0.5-0.4-0.9-0.4c-0.5,0-0.8,0.2-1.1,0.5s-0.4,0.8-0.4,1.5v0.2c0,0.7,0.1,1.2,0.4,1.5
		S353.1,51.1,353.6,51.1z"/>
	<path class="st3" d="M357.3,44.2c0-0.2,0.1-0.4,0.2-0.5s0.3-0.2,0.6-0.2s0.5,0.1,0.6,0.2s0.2,0.3,0.2,0.5c0,0.2-0.1,0.4-0.2,0.5
		s-0.3,0.2-0.6,0.2s-0.5-0.1-0.6-0.2S357.3,44.4,357.3,44.2z M358.8,52.2h-1.4v-6.3h1.4V52.2z"/>
	<path class="st3" d="M364.1,52.2c-0.1-0.1-0.1-0.3-0.2-0.6c-0.5,0.5-1,0.7-1.7,0.7c-0.6,0-1.2-0.2-1.6-0.5s-0.6-0.8-0.6-1.3
		c0-0.7,0.3-1.2,0.8-1.6s1.2-0.5,2.2-0.5h0.9v-0.4c0-0.3-0.1-0.6-0.3-0.8s-0.5-0.3-0.8-0.3c-0.3,0-0.6,0.1-0.8,0.2s-0.3,0.4-0.3,0.6
		h-1.4c0-0.3,0.1-0.7,0.3-1s0.5-0.5,0.9-0.7s0.8-0.3,1.3-0.3c0.7,0,1.3,0.2,1.8,0.6s0.7,0.9,0.7,1.6v2.9c0,0.6,0.1,1,0.2,1.4v0.1
		H364.1z M362.6,51.1c0.3,0,0.5-0.1,0.8-0.2s0.4-0.3,0.6-0.6v-1.2h-0.8c-0.5,0-0.9,0.1-1.2,0.3s-0.4,0.4-0.4,0.8
		c0,0.3,0.1,0.5,0.3,0.7S362.2,51.1,362.6,51.1z"/>
	<path class="st3" d="M368.3,52.2h-1.4v-9h1.4V52.2z"/>
</g>
<g class="st0">
	<path class="st1" d="M104.4,148.3h3.9v1.2h-5.4V141h1.5V148.3z"/>
	<path class="st1" d="M115.8,145.5c0,0.8-0.1,1.6-0.4,2.2s-0.7,1.1-1.2,1.5s-1.2,0.5-1.9,0.5c-0.7,0-1.3-0.2-1.8-0.5s-1-0.8-1.3-1.4
		s-0.4-1.3-0.4-2.2v-0.5c0-0.8,0.1-1.6,0.4-2.2s0.7-1.1,1.2-1.5s1.2-0.5,1.8-0.5s1.3,0.2,1.8,0.5s1,0.8,1.2,1.4s0.4,1.4,0.4,2.2
		V145.5z M114.3,145c0-0.9-0.2-1.7-0.5-2.2s-0.9-0.8-1.5-0.8c-0.6,0-1.1,0.3-1.5,0.8s-0.5,1.2-0.6,2.1v0.5c0,0.9,0.2,1.7,0.5,2.2
		s0.9,0.8,1.5,0.8c0.7,0,1.2-0.2,1.5-0.8s0.5-1.2,0.5-2.2V145z"/>
	<path class="st1" d="M123.8,146.8c-0.1,0.9-0.4,1.6-1,2.1s-1.4,0.8-2.3,0.8c-0.7,0-1.3-0.2-1.8-0.5s-0.9-0.8-1.2-1.4
		s-0.4-1.3-0.4-2.1v-0.8c0-0.8,0.1-1.5,0.4-2.1s0.7-1.1,1.2-1.4s1.1-0.5,1.8-0.5c0.9,0,1.7,0.3,2.3,0.8s0.9,1.2,1,2.2h-1.5
		c-0.1-0.6-0.2-1.1-0.5-1.3s-0.7-0.4-1.3-0.4c-0.6,0-1.1,0.2-1.5,0.7c-0.3,0.5-0.5,1.2-0.5,2.1v0.8c0,0.9,0.2,1.6,0.5,2.1
		c0.3,0.5,0.8,0.7,1.5,0.7c0.6,0,1-0.1,1.3-0.4s0.5-0.7,0.6-1.3H123.8z"/>
	<path class="st1" d="M129.9,147.5h-3.3l-0.7,2h-1.5l3.2-8.5h1.3l3.2,8.5h-1.5L129.9,147.5z M127,146.3h2.5l-1.2-3.5L127,146.3z"/>
	<path class="st1" d="M134.6,148.3h3.9v1.2h-5.4V141h1.5V148.3z"/>
	<path class="st1" d="M141.2,149.5h-1.5V141h1.5V149.5z"/>
	<path class="st1" d="M144.4,148.3h4.6v1.2h-6.4v-1l4.4-6.4h-4.4V141h6.2v0.9L144.4,148.3z"/>
	<path class="st1" d="M155.1,147.5h-3.3l-0.7,2h-1.5l3.2-8.5h1.3l3.2,8.5h-1.5L155.1,147.5z M152.2,146.3h2.5l-1.2-3.5L152.2,146.3z
		"/>
	<path class="st1" d="M164.7,146.8c-0.1,0.9-0.4,1.6-1,2.1s-1.4,0.8-2.3,0.8c-0.7,0-1.3-0.2-1.8-0.5s-0.9-0.8-1.2-1.4
		s-0.4-1.3-0.4-2.1v-0.8c0-0.8,0.1-1.5,0.4-2.1s0.7-1.1,1.2-1.4s1.1-0.5,1.8-0.5c0.9,0,1.7,0.3,2.3,0.8s0.9,1.2,1,2.2h-1.5
		c-0.1-0.6-0.2-1.1-0.5-1.3s-0.7-0.4-1.3-0.4c-0.6,0-1.1,0.2-1.5,0.7c-0.3,0.5-0.5,1.2-0.5,2.1v0.8c0,0.9,0.2,1.6,0.5,2.1
		c0.3,0.5,0.8,0.7,1.5,0.7c0.6,0,1-0.1,1.3-0.4s0.5-0.7,0.6-1.3H164.7z M161.8,149.5l-0.1,0.3c0.6,0.1,0.9,0.4,0.9,1
		c0,0.4-0.2,0.7-0.5,1s-0.8,0.3-1.4,0.3l0-0.8c0.3,0,0.5,0,0.6-0.1s0.2-0.2,0.2-0.4c0-0.2-0.1-0.3-0.2-0.4s-0.4-0.1-0.7-0.1l0.2-0.8
		H161.8z"/>
	<path class="st1" d="M170.8,147.5h-3.3l-0.7,2h-1.5l3.2-8.5h1.3l3.2,8.5h-1.5L170.8,147.5z M171.3,138.8c0,0.4-0.1,0.8-0.4,1.1
		s-0.6,0.4-0.9,0.4c-0.2,0-0.3,0-0.4,0s-0.3-0.1-0.5-0.2s-0.3-0.2-0.4-0.2s-0.2,0-0.3,0c-0.1,0-0.3,0.1-0.4,0.2s-0.2,0.3-0.2,0.4
		l-0.9,0c0-0.4,0.1-0.8,0.4-1.1s0.6-0.4,0.9-0.4c0.2,0,0.5,0.1,0.8,0.3s0.6,0.3,0.8,0.3c0.1,0,0.3-0.1,0.4-0.2s0.2-0.3,0.2-0.4
		L171.3,138.8z M167.9,146.3h2.5l-1.2-3.5L167.9,146.3z"/>
	<path class="st1" d="M180.7,145.5c0,0.8-0.1,1.6-0.4,2.2s-0.7,1.1-1.2,1.5s-1.2,0.5-1.9,0.5c-0.7,0-1.3-0.2-1.8-0.5s-1-0.8-1.3-1.4
		s-0.4-1.3-0.4-2.2v-0.5c0-0.8,0.1-1.6,0.4-2.2s0.7-1.1,1.2-1.5s1.2-0.5,1.8-0.5s1.3,0.2,1.8,0.5s1,0.8,1.2,1.4s0.4,1.4,0.4,2.2
		V145.5z M179.2,145c0-0.9-0.2-1.7-0.5-2.2s-0.9-0.8-1.5-0.8c-0.6,0-1.1,0.3-1.5,0.8s-0.5,1.2-0.6,2.1v0.5c0,0.9,0.2,1.7,0.5,2.2
		s0.9,0.8,1.5,0.8c0.7,0,1.2-0.2,1.5-0.8s0.5-1.2,0.5-2.2V145z"/>
</g>
<line class="st2" x1="108.5" y1="124.2" x2="176.8" y2="124.2"/>
<g class="st0">
	<path class="st3" d="M78.7,170.3v-8.5h2.5c0.8,0,1.4,0.2,2,0.5s1,0.8,1.4,1.4s0.5,1.3,0.5,2.1v0.4c0,0.8-0.2,1.5-0.5,2.1
		s-0.8,1.1-1.4,1.4s-1.3,0.5-2,0.5H78.7z M80.2,163v6.2h1c0.8,0,1.4-0.2,1.8-0.7s0.6-1.2,0.6-2.1v-0.5c0-0.9-0.2-1.6-0.6-2.1
		s-1-0.7-1.8-0.7H80.2z"/>
	<path class="st3" d="M89.2,170.5c-0.9,0-1.6-0.3-2.2-0.9s-0.8-1.3-0.8-2.3v-0.2c0-0.6,0.1-1.2,0.4-1.7s0.6-0.9,1-1.2
		s0.9-0.4,1.5-0.4c0.9,0,1.5,0.3,2,0.8s0.7,1.3,0.7,2.3v0.6h-4.1c0,0.5,0.2,0.9,0.5,1.2s0.7,0.5,1.2,0.5c0.7,0,1.2-0.3,1.6-0.8
		l0.8,0.7c-0.3,0.4-0.6,0.7-1,0.9S89.8,170.5,89.2,170.5z M89.1,165c-0.4,0-0.7,0.1-0.9,0.4s-0.4,0.7-0.5,1.1h2.7v-0.1
		c0-0.5-0.2-0.8-0.4-1.1S89.4,165,89.1,165z"/>
	<path class="st3" d="M94.2,164l0,0.7c0.5-0.6,1.1-0.8,1.8-0.8c1.3,0,2,0.8,2,2.3v4.2h-1.4v-4.1c0-0.4-0.1-0.7-0.3-0.9
		S96,165,95.6,165c-0.6,0-1,0.3-1.3,0.8v4.5h-1.4V164H94.2z"/>
	<path class="st3" d="M101.3,162.5v1.5h1.1v1.1h-1.1v3.5c0,0.2,0,0.4,0.1,0.5s0.3,0.2,0.5,0.2c0.2,0,0.3,0,0.5-0.1v1.1
		c-0.3,0.1-0.6,0.1-0.9,0.1c-1.1,0-1.6-0.6-1.6-1.8v-3.6h-1V164h1v-1.5H101.3z"/>
	<path class="st3" d="M106.9,165.3c-0.2,0-0.4,0-0.6,0c-0.7,0-1.1,0.2-1.3,0.8v4.3h-1.4V164h1.4l0,0.7c0.3-0.6,0.8-0.8,1.4-0.8
		c0.2,0,0.4,0,0.5,0.1L106.9,165.3z"/>
	<path class="st3" d="M107.3,167.1c0-0.6,0.1-1.2,0.4-1.7s0.6-0.9,1-1.1s1-0.4,1.5-0.4c0.9,0,1.5,0.3,2.1,0.8s0.8,1.3,0.9,2.2l0,0.3
		c0,0.6-0.1,1.2-0.4,1.7s-0.6,0.9-1,1.1s-1,0.4-1.5,0.4c-0.9,0-1.6-0.3-2.1-0.9S107.3,168.2,107.3,167.1L107.3,167.1z M108.7,167.2
		c0,0.7,0.1,1.2,0.4,1.5s0.6,0.6,1.1,0.6s0.9-0.2,1.1-0.6s0.4-0.9,0.4-1.6c0-0.6-0.1-1.1-0.4-1.5s-0.6-0.6-1.1-0.6
		c-0.5,0-0.8,0.2-1.1,0.6S108.7,166.5,108.7,167.2z"/>
	<path class="st3" d="M117.1,167.1c0-1,0.2-1.8,0.7-2.4s1.1-0.9,1.8-0.9c0.7,0,1.2,0.2,1.6,0.7v-3.2h1.4v9h-1.3l-0.1-0.7
		c-0.4,0.5-1,0.8-1.7,0.8c-0.7,0-1.3-0.3-1.8-0.9S117.1,168.1,117.1,167.1z M118.5,167.2c0,0.6,0.1,1.1,0.4,1.5s0.6,0.5,1.1,0.5
		c0.6,0,1-0.3,1.3-0.8v-2.7c-0.3-0.5-0.7-0.8-1.3-0.8c-0.5,0-0.8,0.2-1.1,0.5S118.5,166.5,118.5,167.2z"/>
	<path class="st3" d="M123.9,167.1c0-0.6,0.1-1.2,0.4-1.7s0.6-0.9,1-1.1s1-0.4,1.5-0.4c0.9,0,1.5,0.3,2.1,0.8s0.8,1.3,0.9,2.2l0,0.3
		c0,0.6-0.1,1.2-0.4,1.7s-0.6,0.9-1,1.1s-1,0.4-1.5,0.4c-0.9,0-1.6-0.3-2.1-0.9S123.9,168.2,123.9,167.1L123.9,167.1z M125.3,167.2
		c0,0.7,0.1,1.2,0.4,1.5s0.6,0.6,1.1,0.6s0.9-0.2,1.1-0.6s0.4-0.9,0.4-1.6c0-0.6-0.1-1.1-0.4-1.5s-0.6-0.6-1.1-0.6
		c-0.5,0-0.8,0.2-1.1,0.6S125.3,166.5,125.3,167.2z"/>
	<path class="st3" d="M135.7,162.5v1.5h1.1v1.1h-1.1v3.5c0,0.2,0,0.4,0.1,0.5s0.3,0.2,0.5,0.2c0.2,0,0.3,0,0.5-0.1v1.1
		c-0.3,0.1-0.6,0.1-0.9,0.1c-1.1,0-1.6-0.6-1.6-1.8v-3.6h-1V164h1v-1.5H135.7z"/>
	<path class="st3" d="M140.7,170.5c-0.9,0-1.6-0.3-2.2-0.9s-0.8-1.3-0.8-2.3v-0.2c0-0.6,0.1-1.2,0.4-1.7s0.6-0.9,1-1.2
		s0.9-0.4,1.5-0.4c0.9,0,1.5,0.3,2,0.8s0.7,1.3,0.7,2.3v0.6h-4.1c0,0.5,0.2,0.9,0.5,1.2s0.7,0.5,1.2,0.5c0.7,0,1.2-0.3,1.6-0.8
		l0.8,0.7c-0.3,0.4-0.6,0.7-1,0.9S141.3,170.5,140.7,170.5z M140.6,165c-0.4,0-0.7,0.1-0.9,0.4s-0.4,0.7-0.5,1.1h2.7v-0.1
		c0-0.5-0.2-0.8-0.4-1.1S141,165,140.6,165z"/>
	<path class="st3" d="M147,169.3c0.4,0,0.7-0.1,0.9-0.3s0.4-0.5,0.4-0.8h1.3c0,0.4-0.1,0.8-0.4,1.1s-0.5,0.6-0.9,0.8
		s-0.8,0.3-1.3,0.3c-0.9,0-1.6-0.3-2.1-0.9s-0.8-1.4-0.8-2.4v-0.1c0-1,0.3-1.7,0.8-2.3s1.2-0.9,2.1-0.9c0.8,0,1.4,0.2,1.8,0.7
		s0.7,1,0.7,1.7h-1.3c0-0.4-0.1-0.7-0.4-0.9s-0.5-0.4-0.9-0.4c-0.5,0-0.8,0.2-1.1,0.5s-0.4,0.8-0.4,1.5v0.2c0,0.7,0.1,1.2,0.4,1.5
		S146.5,169.3,147,169.3z"/>
	<path class="st3" d="M150.7,162.4c0-0.2,0.1-0.4,0.2-0.5s0.3-0.2,0.6-0.2s0.5,0.1,0.6,0.2s0.2,0.3,0.2,0.5c0,0.2-0.1,0.4-0.2,0.5
		s-0.3,0.2-0.6,0.2s-0.5-0.1-0.6-0.2S150.7,162.6,150.7,162.4z M152.2,170.3h-1.4V164h1.4V170.3z"/>
	<path class="st3" d="M153.5,167.1c0-1,0.2-1.8,0.7-2.4s1.1-0.9,1.8-0.9c0.7,0,1.2,0.2,1.6,0.7v-3.2h1.4v9h-1.3l-0.1-0.7
		c-0.4,0.5-1,0.8-1.7,0.8c-0.7,0-1.3-0.3-1.8-0.9S153.5,168.1,153.5,167.1z M154.9,167.2c0,0.6,0.1,1.1,0.4,1.5s0.6,0.5,1.1,0.5
		c0.6,0,1-0.3,1.3-0.8v-2.7c-0.3-0.5-0.7-0.8-1.3-0.8c-0.5,0-0.8,0.2-1.1,0.5S154.9,166.5,154.9,167.2z"/>
	<path class="st3" d="M160.2,167.1c0-0.6,0.1-1.2,0.4-1.7s0.6-0.9,1-1.1s1-0.4,1.5-0.4c0.9,0,1.5,0.3,2.1,0.8s0.8,1.3,0.9,2.2l0,0.3
		c0,0.6-0.1,1.2-0.4,1.7s-0.6,0.9-1,1.1s-1,0.4-1.5,0.4c-0.9,0-1.6-0.3-2.1-0.9S160.2,168.2,160.2,167.1L160.2,167.1z M161.7,167.2
		c0,0.7,0.1,1.2,0.4,1.5s0.6,0.6,1.1,0.6s0.9-0.2,1.1-0.6s0.4-0.9,0.4-1.6c0-0.6-0.1-1.1-0.4-1.5s-0.6-0.6-1.1-0.6
		c-0.5,0-0.8,0.2-1.1,0.6S161.7,166.5,161.7,167.2z"/>
	<path class="st3" d="M174.2,169.7c-0.4,0.5-1,0.7-1.8,0.7c-0.7,0-1.2-0.2-1.6-0.6s-0.5-1-0.5-1.7V164h1.4v4.1c0,0.8,0.3,1.2,1,1.2
		c0.7,0,1.2-0.2,1.4-0.7V164h1.4v6.3h-1.3L174.2,169.7z"/>
	<path class="st3" d="M180.3,165.3c-0.2,0-0.4,0-0.6,0c-0.7,0-1.1,0.2-1.3,0.8v4.3H177V164h1.4l0,0.7c0.3-0.6,0.8-0.8,1.4-0.8
		c0.2,0,0.4,0,0.5,0.1L180.3,165.3z"/>
	<path class="st3" d="M186.8,167.2c0,1-0.2,1.8-0.7,2.3s-1,0.9-1.8,0.9c-0.7,0-1.3-0.3-1.7-0.8l-0.1,0.7h-1.3v-9h1.4v3.3
		c0.4-0.5,1-0.7,1.7-0.7c0.8,0,1.4,0.3,1.8,0.9S186.8,166.1,186.8,167.2L186.8,167.2z M185.4,167.1c0-0.7-0.1-1.2-0.4-1.5
		s-0.6-0.5-1.1-0.5c-0.6,0-1.1,0.3-1.3,0.8v2.6c0.3,0.6,0.7,0.8,1.3,0.8c0.4,0,0.8-0.2,1-0.5s0.4-0.8,0.4-1.5V167.1z"/>
	<path class="st3" d="M191.8,170.3c-0.1-0.1-0.1-0.3-0.2-0.6c-0.5,0.5-1,0.7-1.7,0.7c-0.6,0-1.2-0.2-1.6-0.5s-0.6-0.8-0.6-1.3
		c0-0.7,0.3-1.2,0.8-1.6s1.2-0.5,2.2-0.5h0.9V166c0-0.3-0.1-0.6-0.3-0.8s-0.5-0.3-0.8-0.3c-0.3,0-0.6,0.1-0.8,0.2s-0.3,0.4-0.3,0.6
		h-1.4c0-0.3,0.1-0.7,0.3-1s0.5-0.5,0.9-0.7s0.8-0.3,1.3-0.3c0.7,0,1.3,0.2,1.8,0.6s0.7,0.9,0.7,1.6v2.9c0,0.6,0.1,1,0.2,1.4v0.1
		H191.8z M190.2,169.3c0.3,0,0.5-0.1,0.8-0.2s0.4-0.3,0.6-0.6v-1.2h-0.8c-0.5,0-0.9,0.1-1.2,0.3s-0.4,0.4-0.4,0.8
		c0,0.3,0.1,0.5,0.3,0.7S189.9,169.3,190.2,169.3z"/>
	<path class="st3" d="M195.8,164l0,0.7c0.5-0.6,1.1-0.8,1.8-0.8c1.3,0,2,0.8,2,2.3v4.2h-1.4v-4.1c0-0.4-0.1-0.7-0.3-0.9
		s-0.5-0.3-0.9-0.3c-0.6,0-1,0.3-1.3,0.8v4.5h-1.4V164H195.8z"/>
	<path class="st3" d="M200.9,167.1c0-0.6,0.1-1.2,0.4-1.7s0.6-0.9,1-1.1s1-0.4,1.5-0.4c0.9,0,1.5,0.3,2.1,0.8s0.8,1.3,0.9,2.2l0,0.3
		c0,0.6-0.1,1.2-0.4,1.7s-0.6,0.9-1,1.1s-1,0.4-1.5,0.4c-0.9,0-1.6-0.3-2.1-0.9S200.9,168.2,200.9,167.1L200.9,167.1z M202.3,167.2
		c0,0.7,0.1,1.2,0.4,1.5s0.6,0.6,1.1,0.6s0.9-0.2,1.1-0.6s0.4-0.9,0.4-1.6c0-0.6-0.1-1.1-0.4-1.5s-0.6-0.6-1.1-0.6
		c-0.5,0-0.8,0.2-1.1,0.6S202.3,166.5,202.3,167.2z"/>
</g>
<g class="st0">
	<path class="st1" d="M86.9,274.5v5.7c0,0.9-0.3,1.6-0.9,2.2s-1.4,0.8-2.3,0.8c-1,0-1.8-0.3-2.3-0.8s-0.9-1.2-0.9-2.2v-5.7H82v5.7
		c0,0.6,0.1,1,0.4,1.3s0.7,0.5,1.3,0.5c1.1,0,1.7-0.6,1.7-1.8v-5.7H86.9z"/>
	<path class="st1" d="M93,280.8c0-0.4-0.1-0.7-0.4-0.9s-0.7-0.4-1.4-0.6s-1.2-0.4-1.6-0.7c-0.8-0.5-1.2-1.1-1.2-1.9
		c0-0.7,0.3-1.3,0.8-1.7s1.3-0.7,2.2-0.7c0.6,0,1.1,0.1,1.6,0.3s0.8,0.5,1.1,0.9s0.4,0.9,0.4,1.3H93c0-0.4-0.1-0.8-0.4-1
		s-0.7-0.4-1.2-0.4c-0.5,0-0.9,0.1-1.1,0.3s-0.4,0.5-0.4,0.9c0,0.3,0.1,0.6,0.4,0.8s0.8,0.4,1.4,0.6s1.2,0.4,1.6,0.7
		s0.7,0.5,0.9,0.9s0.3,0.7,0.3,1.1c0,0.7-0.3,1.3-0.8,1.7s-1.3,0.6-2.2,0.6c-0.6,0-1.2-0.1-1.7-0.3s-0.9-0.5-1.2-0.9
		s-0.4-0.9-0.4-1.4h1.5c0,0.5,0.2,0.9,0.5,1.1s0.8,0.4,1.4,0.4c0.5,0,0.9-0.1,1.2-0.3S93,281.2,93,280.8z"/>
	<path class="st1" d="M102.6,279c0,0.8-0.1,1.6-0.4,2.2s-0.7,1.1-1.2,1.5s-1.2,0.5-1.9,0.5c-0.7,0-1.3-0.2-1.8-0.5s-1-0.8-1.3-1.4
		s-0.4-1.3-0.4-2.2v-0.5c0-0.8,0.1-1.6,0.4-2.2s0.7-1.1,1.2-1.5s1.2-0.5,1.8-0.5s1.3,0.2,1.8,0.5s1,0.8,1.2,1.4s0.4,1.4,0.4,2.2V279
		z M101.1,278.5c0-0.9-0.2-1.7-0.5-2.2s-0.9-0.8-1.5-0.8c-0.6,0-1.1,0.3-1.5,0.8s-0.5,1.2-0.6,2.1v0.5c0,0.9,0.2,1.7,0.5,2.2
		s0.9,0.8,1.5,0.8c0.7,0,1.2-0.2,1.5-0.8s0.5-1.2,0.5-2.2V278.5z"/>
	<path class="st1" d="M107,283v-8.5h2.5c0.8,0,1.4,0.2,2,0.5s1,0.8,1.4,1.4s0.5,1.3,0.5,2.1v0.4c0,0.8-0.2,1.5-0.5,2.1
		s-0.8,1.1-1.4,1.4s-1.3,0.5-2,0.5H107z M108.5,275.7v6.2h1c0.8,0,1.4-0.2,1.8-0.7s0.6-1.2,0.6-2.1v-0.5c0-0.9-0.2-1.6-0.6-2.1
		s-1-0.7-1.8-0.7H108.5z"/>
	<path class="st1" d="M119.8,279.2h-3.5v2.6h4.1v1.2h-5.6v-8.5h5.5v1.2h-4.1v2.4h3.5V279.2z"/>
	<path class="st1" d="M130.4,275.7h-2.7v7.3h-1.5v-7.3h-2.6v-1.2h6.8V275.7z"/>
	<path class="st1" d="M136.6,279.2H133v2.6h4.1v1.2h-5.6v-8.5h5.5v1.2H133v2.4h3.5V279.2z"/>
	<path class="st1" d="M144.9,280.2c-0.1,0.9-0.4,1.6-1,2.1s-1.4,0.8-2.3,0.8c-0.7,0-1.3-0.2-1.8-0.5s-0.9-0.8-1.2-1.4
		s-0.4-1.3-0.4-2.1v-0.8c0-0.8,0.1-1.5,0.4-2.1s0.7-1.1,1.2-1.4s1.1-0.5,1.8-0.5c0.9,0,1.7,0.3,2.3,0.8s0.9,1.2,1,2.2h-1.5
		c-0.1-0.6-0.2-1.1-0.5-1.3s-0.7-0.4-1.3-0.4c-0.6,0-1.1,0.2-1.5,0.7c-0.3,0.5-0.5,1.2-0.5,2.1v0.8c0,0.9,0.2,1.6,0.5,2.1
		c0.3,0.5,0.8,0.7,1.5,0.7c0.6,0,1-0.1,1.3-0.4s0.5-0.7,0.6-1.3H144.9z"/>
	<path class="st1" d="M153,283h-1.5l-3.8-6.1v6.1h-1.5v-8.5h1.5l3.8,6.1v-6.1h1.5V283z"/>
	<path class="st1" d="M161.5,279c0,0.8-0.1,1.6-0.4,2.2s-0.7,1.1-1.2,1.5s-1.2,0.5-1.9,0.5c-0.7,0-1.3-0.2-1.8-0.5s-1-0.8-1.3-1.4
		s-0.4-1.3-0.4-2.2v-0.5c0-0.8,0.1-1.6,0.4-2.2s0.7-1.1,1.2-1.5s1.2-0.5,1.8-0.5s1.3,0.2,1.8,0.5s1,0.8,1.2,1.4s0.4,1.4,0.4,2.2V279
		z M160,278.5c0-0.9-0.2-1.7-0.5-2.2s-0.9-0.8-1.5-0.8c-0.6,0-1.1,0.3-1.5,0.8s-0.5,1.2-0.6,2.1v0.5c0,0.9,0.2,1.7,0.5,2.2
		s0.9,0.8,1.5,0.8c0.7,0,1.2-0.2,1.5-0.8s0.5-1.2,0.5-2.2V278.5z"/>
	<path class="st1" d="M164.5,281.8h3.9v1.2H163v-8.5h1.5V281.8z"/>
	<path class="st1" d="M175.9,279c0,0.8-0.1,1.6-0.4,2.2s-0.7,1.1-1.2,1.5s-1.2,0.5-1.9,0.5c-0.7,0-1.3-0.2-1.8-0.5s-1-0.8-1.3-1.4
		s-0.4-1.3-0.4-2.2v-0.5c0-0.8,0.1-1.6,0.4-2.2s0.7-1.1,1.2-1.5s1.2-0.5,1.8-0.5s1.3,0.2,1.8,0.5s1,0.8,1.2,1.4s0.4,1.4,0.4,2.2V279
		z M174.4,278.5c0-0.9-0.2-1.7-0.5-2.2s-0.9-0.8-1.5-0.8c-0.6,0-1.1,0.3-1.5,0.8s-0.5,1.2-0.6,2.1v0.5c0,0.9,0.2,1.7,0.5,2.2
		s0.9,0.8,1.5,0.8c0.7,0,1.2-0.2,1.5-0.8s0.5-1.2,0.5-2.2V278.5z"/>
	<path class="st1" d="M183.9,281.9c-0.3,0.4-0.7,0.7-1.3,0.9s-1.2,0.3-1.9,0.3c-0.7,0-1.3-0.2-1.9-0.5s-1-0.8-1.3-1.4
		s-0.5-1.3-0.5-2.1v-0.7c0-1.3,0.3-2.3,0.9-3s1.5-1.1,2.6-1.1c0.9,0,1.7,0.2,2.3,0.7s0.9,1.1,1,2h-1.5c-0.2-1-0.8-1.5-1.8-1.5
		c-0.7,0-1.2,0.2-1.5,0.7c-0.3,0.5-0.5,1.2-0.5,2.1v0.7c0,0.9,0.2,1.6,0.6,2.1c0.4,0.5,0.9,0.8,1.6,0.8c0.8,0,1.3-0.2,1.6-0.5v-1.7
		h-1.8v-1.1h3.2V281.9z"/>
	<path class="st1" d="M187.1,283h-1.5v-8.5h1.5V283z"/>
	<path class="st1" d="M193.8,281h-3.3l-0.7,2h-1.5l3.2-8.5h1.3l3.2,8.5h-1.5L193.8,281z M190.9,279.8h2.5l-1.2-3.5L190.9,279.8z"/>
	<path class="st1" d="M201.5,280.8c0-0.4-0.1-0.7-0.4-0.9s-0.7-0.4-1.4-0.6s-1.2-0.4-1.6-0.7c-0.8-0.5-1.2-1.1-1.2-1.9
		c0-0.7,0.3-1.3,0.8-1.7s1.3-0.7,2.2-0.7c0.6,0,1.1,0.1,1.6,0.3s0.8,0.5,1.1,0.9s0.4,0.9,0.4,1.3h-1.5c0-0.4-0.1-0.8-0.4-1
		s-0.7-0.4-1.2-0.4c-0.5,0-0.9,0.1-1.1,0.3s-0.4,0.5-0.4,0.9c0,0.3,0.1,0.6,0.4,0.8s0.8,0.4,1.4,0.6s1.2,0.4,1.6,0.7
		s0.7,0.5,0.9,0.9s0.3,0.7,0.3,1.1c0,0.7-0.3,1.3-0.8,1.7s-1.3,0.6-2.2,0.6c-0.6,0-1.2-0.1-1.7-0.3s-0.9-0.5-1.2-0.9
		s-0.4-0.9-0.4-1.4h1.5c0,0.5,0.2,0.9,0.5,1.1s0.8,0.4,1.4,0.4c0.5,0,0.9-0.1,1.2-0.3S201.5,281.2,201.5,280.8z"/>
</g>
<line class="st2" x1="108.5" y1="257.7" x2="176.8" y2="257.7"/>
<g class="st0">
	<path class="st3" d="M128.5,303.8v-8.5h2.9c1,0,1.7,0.2,2.2,0.6s0.8,1,0.8,1.7c0,0.4-0.1,0.7-0.3,1.1s-0.5,0.6-0.9,0.7
		c0.5,0.1,0.8,0.4,1.1,0.7s0.4,0.8,0.4,1.2c0,0.8-0.3,1.4-0.8,1.8s-1.2,0.6-2.2,0.6H128.5z M130,298.9h1.5c0.5,0,0.8-0.1,1.1-0.3
		s0.4-0.5,0.4-0.9c0-0.4-0.1-0.7-0.4-0.9s-0.6-0.3-1.1-0.3H130V298.9z M130,300v2.7h1.6c0.5,0,0.8-0.1,1.1-0.3s0.4-0.6,0.4-1
		c0-0.9-0.5-1.3-1.4-1.4H130z"/>
	<path class="st3" d="M139.7,303.8c-0.1-0.1-0.1-0.3-0.2-0.6c-0.5,0.5-1,0.7-1.7,0.7c-0.6,0-1.2-0.2-1.6-0.5s-0.6-0.8-0.6-1.3
		c0-0.7,0.3-1.2,0.8-1.6s1.2-0.5,2.2-0.5h0.9v-0.4c0-0.3-0.1-0.6-0.3-0.8s-0.5-0.3-0.8-0.3c-0.3,0-0.6,0.1-0.8,0.2s-0.3,0.4-0.3,0.6
		h-1.4c0-0.3,0.1-0.7,0.3-1s0.5-0.5,0.9-0.7s0.8-0.3,1.3-0.3c0.7,0,1.3,0.2,1.8,0.6s0.7,0.9,0.7,1.6v2.9c0,0.6,0.1,1,0.2,1.4v0.1
		H139.7z M138.2,302.8c0.3,0,0.5-0.1,0.8-0.2s0.4-0.3,0.6-0.6v-1.2h-0.8c-0.5,0-0.9,0.1-1.2,0.3s-0.4,0.4-0.4,0.8
		c0,0.3,0.1,0.5,0.3,0.7S137.9,302.8,138.2,302.8z"/>
	<path class="st3" d="M142.5,295.8c0-0.2,0.1-0.4,0.2-0.5s0.3-0.2,0.6-0.2s0.5,0.1,0.6,0.2s0.2,0.3,0.2,0.5c0,0.2-0.1,0.4-0.2,0.5
		s-0.3,0.2-0.6,0.2s-0.5-0.1-0.6-0.2S142.5,296,142.5,295.8z M144,303.8h-1.4v-6.3h1.4V303.8z"/>
	<path class="st3" d="M147.8,299.6l1.2-2.1h1.6l-1.9,3.1l2,3.2h-1.6l-1.3-2.2l-1.3,2.2H145l2-3.2l-1.9-3.1h1.6L147.8,299.6z"/>
	<path class="st3" d="M151,300.6c0-0.6,0.1-1.2,0.4-1.7s0.6-0.9,1-1.1s1-0.4,1.5-0.4c0.9,0,1.5,0.3,2.1,0.8s0.8,1.3,0.9,2.2l0,0.3
		c0,0.6-0.1,1.2-0.4,1.7s-0.6,0.9-1,1.1s-1,0.4-1.5,0.4c-0.9,0-1.6-0.3-2.1-0.9S151,301.6,151,300.6L151,300.6z M152.5,300.7
		c0,0.7,0.1,1.2,0.4,1.5s0.6,0.6,1.1,0.6s0.9-0.2,1.1-0.6s0.4-0.9,0.4-1.6c0-0.6-0.1-1.1-0.4-1.5s-0.6-0.6-1.1-0.6
		c-0.5,0-0.8,0.2-1.1,0.6S152.5,300,152.5,300.7z"/>
</g>
<g class="st0">
	<path class="st1" d="M98.7,414.5h-3.3l-0.7,2h-1.5l3.2-8.5h1.3l3.2,8.5h-1.5L98.7,414.5z M95.8,413.3h2.5l-1.2-3.5L95.8,413.3z"/>
	<path class="st1" d="M106.3,414.3c0-0.4-0.1-0.7-0.4-0.9s-0.7-0.4-1.4-0.6s-1.2-0.4-1.6-0.7c-0.8-0.5-1.2-1.1-1.2-1.9
		c0-0.7,0.3-1.3,0.8-1.7s1.3-0.7,2.2-0.7c0.6,0,1.1,0.1,1.6,0.3s0.8,0.5,1.1,0.9s0.4,0.9,0.4,1.3h-1.5c0-0.4-0.1-0.8-0.4-1
		s-0.7-0.4-1.2-0.4c-0.5,0-0.9,0.1-1.1,0.3s-0.4,0.5-0.4,0.9c0,0.3,0.1,0.6,0.4,0.8s0.8,0.4,1.4,0.6s1.2,0.4,1.6,0.7
		s0.7,0.5,0.9,0.9s0.3,0.7,0.3,1.1c0,0.7-0.3,1.3-0.8,1.7s-1.3,0.6-2.2,0.6c-0.6,0-1.2-0.1-1.7-0.3s-0.9-0.5-1.2-0.9
		s-0.4-0.9-0.4-1.4h1.5c0,0.5,0.2,0.9,0.5,1.1s0.8,0.4,1.4,0.4c0.5,0,0.9-0.1,1.2-0.3S106.3,414.6,106.3,414.3z"/>
	<path class="st1" d="M113.6,414.3c0-0.4-0.1-0.7-0.4-0.9s-0.7-0.4-1.4-0.6s-1.2-0.4-1.6-0.7c-0.8-0.5-1.2-1.1-1.2-1.9
		c0-0.7,0.3-1.3,0.8-1.7s1.3-0.7,2.2-0.7c0.6,0,1.1,0.1,1.6,0.3s0.8,0.5,1.1,0.9s0.4,0.9,0.4,1.3h-1.5c0-0.4-0.1-0.8-0.4-1
		s-0.7-0.4-1.2-0.4c-0.5,0-0.9,0.1-1.1,0.3s-0.4,0.5-0.4,0.9c0,0.3,0.1,0.6,0.4,0.8s0.8,0.4,1.4,0.6s1.2,0.4,1.6,0.7
		s0.7,0.5,0.9,0.9s0.3,0.7,0.3,1.1c0,0.7-0.3,1.3-0.8,1.7s-1.3,0.6-2.2,0.6c-0.6,0-1.2-0.1-1.7-0.3s-0.9-0.5-1.2-0.9
		s-0.4-0.9-0.4-1.4h1.5c0,0.5,0.2,0.9,0.5,1.1s0.8,0.4,1.4,0.4c0.5,0,0.9-0.1,1.2-0.3S113.6,414.6,113.6,414.3z"/>
	<path class="st1" d="M123.2,412.4c0,0.8-0.1,1.6-0.4,2.2s-0.7,1.1-1.2,1.5s-1.2,0.5-1.9,0.5c-0.7,0-1.3-0.2-1.8-0.5s-1-0.8-1.3-1.4
		s-0.4-1.3-0.4-2.2V412c0-0.8,0.1-1.6,0.4-2.2s0.7-1.1,1.2-1.5s1.2-0.5,1.8-0.5s1.3,0.2,1.8,0.5s1,0.8,1.2,1.4s0.4,1.4,0.4,2.2
		V412.4z M121.7,412c0-0.9-0.2-1.7-0.5-2.2s-0.9-0.8-1.5-0.8c-0.6,0-1.1,0.3-1.5,0.8s-0.5,1.2-0.6,2.1v0.5c0,0.9,0.2,1.7,0.5,2.2
		s0.9,0.8,1.5,0.8c0.7,0,1.2-0.2,1.5-0.8s0.5-1.2,0.5-2.2V412z"/>
	<path class="st1" d="M131.1,413.7c-0.1,0.9-0.4,1.6-1,2.1s-1.4,0.8-2.3,0.8c-0.7,0-1.3-0.2-1.8-0.5s-0.9-0.8-1.2-1.4
		s-0.4-1.3-0.4-2.1v-0.8c0-0.8,0.1-1.5,0.4-2.1s0.7-1.1,1.2-1.4s1.1-0.5,1.8-0.5c0.9,0,1.7,0.3,2.3,0.8s0.9,1.2,1,2.2h-1.5
		c-0.1-0.6-0.2-1.1-0.5-1.3s-0.7-0.4-1.3-0.4c-0.6,0-1.1,0.2-1.5,0.7c-0.3,0.5-0.5,1.2-0.5,2.1v0.8c0,0.9,0.2,1.6,0.5,2.1
		c0.3,0.5,0.8,0.7,1.5,0.7c0.6,0,1-0.1,1.3-0.4s0.5-0.7,0.6-1.3H131.1z"/>
	<path class="st1" d="M134,416.5h-1.5v-8.5h1.5V416.5z"/>
	<path class="st1" d="M140.7,414.5h-3.3l-0.7,2h-1.5l3.2-8.5h1.3l3.2,8.5h-1.5L140.7,414.5z M137.9,413.3h2.5l-1.2-3.5L137.9,413.3z
		"/>
	<path class="st1" d="M149.4,409.1h-2.7v7.3h-1.5v-7.3h-2.6v-1.2h6.8V409.1z"/>
	<path class="st1" d="M152.1,416.5h-1.5v-8.5h1.5V416.5z"/>
	<path class="st1" d="M156.9,414.6l2.2-6.7h1.6l-3.1,8.5h-1.4l-3.1-8.5h1.6L156.9,414.6z"/>
	<path class="st1" d="M163.2,416.5h-1.5v-8.5h1.5V416.5z"/>
	<path class="st1" d="M169.5,414.3c0-0.4-0.1-0.7-0.4-0.9s-0.7-0.4-1.4-0.6s-1.2-0.4-1.6-0.7c-0.8-0.5-1.2-1.1-1.2-1.9
		c0-0.7,0.3-1.3,0.8-1.7s1.3-0.7,2.2-0.7c0.6,0,1.1,0.1,1.6,0.3s0.8,0.5,1.1,0.9s0.4,0.9,0.4,1.3h-1.5c0-0.4-0.1-0.8-0.4-1
		s-0.7-0.4-1.2-0.4c-0.5,0-0.9,0.1-1.1,0.3s-0.4,0.5-0.4,0.9c0,0.3,0.1,0.6,0.4,0.8s0.8,0.4,1.4,0.6s1.2,0.4,1.6,0.7
		s0.7,0.5,0.9,0.9s0.3,0.7,0.3,1.1c0,0.7-0.3,1.3-0.8,1.7s-1.3,0.6-2.2,0.6c-0.6,0-1.2-0.1-1.7-0.3s-0.9-0.5-1.2-0.9
		s-0.4-0.9-0.4-1.4h1.5c0,0.5,0.2,0.9,0.5,1.1s0.8,0.4,1.4,0.4c0.5,0,0.9-0.1,1.2-0.3S169.5,414.6,169.5,414.3z"/>
	<path class="st1" d="M174.2,407.9l2.5,6.5l2.5-6.5h1.9v8.5h-1.5v-2.8l0.1-3.8l-2.5,6.6h-1.1l-2.5-6.6l0.1,3.8v2.8h-1.5v-8.5H174.2z
		"/>
	<path class="st1" d="M189.6,412.4c0,0.8-0.1,1.6-0.4,2.2s-0.7,1.1-1.2,1.5s-1.2,0.5-1.9,0.5c-0.7,0-1.3-0.2-1.8-0.5s-1-0.8-1.3-1.4
		s-0.4-1.3-0.4-2.2V412c0-0.8,0.1-1.6,0.4-2.2s0.7-1.1,1.2-1.5s1.2-0.5,1.8-0.5s1.3,0.2,1.8,0.5s1,0.8,1.2,1.4s0.4,1.4,0.4,2.2
		V412.4z M188.1,412c0-0.9-0.2-1.7-0.5-2.2s-0.9-0.8-1.5-0.8c-0.6,0-1.1,0.3-1.5,0.8s-0.5,1.2-0.6,2.1v0.5c0,0.9,0.2,1.7,0.5,2.2
		s0.9,0.8,1.5,0.8c0.7,0,1.2-0.2,1.5-0.8s0.5-1.2,0.5-2.2V412z"/>
</g>
<line class="st2" x1="108.5" y1="391.2" x2="176.8" y2="391.2"/>
<g class="st0">
	<path class="st3" d="M75.6,428.8l2.5,6.5l2.5-6.5h1.9v8.5H81v-2.8l0.1-3.8l-2.5,6.6h-1.1l-2.5-6.6l0.1,3.8v2.8h-1.5v-8.5H75.6z"/>
	<path class="st3" d="M87.9,437.3c-0.1-0.1-0.1-0.3-0.2-0.6c-0.5,0.5-1,0.7-1.7,0.7c-0.6,0-1.2-0.2-1.6-0.5s-0.6-0.8-0.6-1.3
		c0-0.7,0.3-1.2,0.8-1.6s1.2-0.5,2.2-0.5h0.9V433c0-0.3-0.1-0.6-0.3-0.8s-0.5-0.3-0.8-0.3c-0.3,0-0.6,0.1-0.8,0.2s-0.3,0.4-0.3,0.6
		H84c0-0.3,0.1-0.7,0.3-1s0.5-0.5,0.9-0.7s0.8-0.3,1.3-0.3c0.7,0,1.3,0.2,1.8,0.6s0.7,0.9,0.7,1.6v2.9c0,0.6,0.1,1,0.2,1.4v0.1H87.9
		z M86.3,436.3c0.3,0,0.5-0.1,0.8-0.2s0.4-0.3,0.6-0.6v-1.2h-0.8c-0.5,0-0.9,0.1-1.2,0.3s-0.4,0.4-0.4,0.8c0,0.3,0.1,0.5,0.3,0.7
		S86,436.3,86.3,436.3z"/>
	<path class="st3" d="M90.6,429.3c0-0.2,0.1-0.4,0.2-0.5s0.3-0.2,0.6-0.2s0.5,0.1,0.6,0.2s0.2,0.3,0.2,0.5c0,0.2-0.1,0.4-0.2,0.5
		s-0.3,0.2-0.6,0.2s-0.5-0.1-0.6-0.2S90.6,429.5,90.6,429.3z M92.1,437.3h-1.4V431h1.4V437.3z"/>
	<path class="st3" d="M93.4,434.1c0-0.6,0.1-1.2,0.4-1.7s0.6-0.9,1-1.1s1-0.4,1.5-0.4c0.9,0,1.5,0.3,2.1,0.8s0.8,1.3,0.9,2.2l0,0.3
		c0,0.6-0.1,1.2-0.4,1.7s-0.6,0.9-1,1.1s-1,0.4-1.5,0.4c-0.9,0-1.6-0.3-2.1-0.9S93.4,435.1,93.4,434.1L93.4,434.1z M94.8,434.2
		c0,0.7,0.1,1.2,0.4,1.5s0.6,0.6,1.1,0.6s0.9-0.2,1.1-0.6s0.4-0.9,0.4-1.6c0-0.6-0.1-1.1-0.4-1.5s-0.6-0.6-1.1-0.6
		c-0.5,0-0.8,0.2-1.1,0.6S94.8,433.5,94.8,434.2z"/>
	<path class="st3" d="M103.8,432.3c-0.2,0-0.4,0-0.6,0c-0.7,0-1.1,0.2-1.3,0.8v4.3h-1.4V431h1.4l0,0.7c0.3-0.6,0.8-0.8,1.4-0.8
		c0.2,0,0.4,0,0.5,0.1L103.8,432.3z"/>
	<path class="st3" d="M107.4,434.1c0-1,0.2-1.8,0.7-2.4s1.1-0.9,1.8-0.9c0.7,0,1.3,0.3,1.7,0.8l0.1-0.6h1.3v6.1c0,0.8-0.3,1.5-0.8,2
		s-1.2,0.7-2.1,0.7c-0.5,0-0.9-0.1-1.4-0.3s-0.8-0.4-1-0.8l0.7-0.9c0.4,0.5,1,0.8,1.6,0.8c0.5,0,0.8-0.1,1.1-0.4s0.4-0.6,0.4-1.1
		v-0.4c-0.4,0.5-1,0.7-1.6,0.7c-0.7,0-1.3-0.3-1.8-0.9S107.4,435.1,107.4,434.1z M108.8,434.2c0,0.6,0.1,1.1,0.4,1.5
		s0.6,0.5,1.1,0.5c0.6,0,1-0.2,1.3-0.7v-2.8c-0.3-0.5-0.7-0.7-1.3-0.7c-0.5,0-0.8,0.2-1.1,0.6S108.8,433.5,108.8,434.2z"/>
	<path class="st3" d="M117.8,432.3c-0.2,0-0.4,0-0.6,0c-0.7,0-1.1,0.2-1.3,0.8v4.3h-1.4V431h1.4l0,0.7c0.3-0.6,0.8-0.8,1.4-0.8
		c0.2,0,0.4,0,0.5,0.1L117.8,432.3z"/>
	<path class="st3" d="M122.3,437.3c-0.1-0.1-0.1-0.3-0.2-0.6c-0.5,0.5-1,0.7-1.7,0.7c-0.6,0-1.2-0.2-1.6-0.5s-0.6-0.8-0.6-1.3
		c0-0.7,0.3-1.2,0.8-1.6s1.2-0.5,2.2-0.5h0.9V433c0-0.3-0.1-0.6-0.3-0.8s-0.5-0.3-0.8-0.3c-0.3,0-0.6,0.1-0.8,0.2s-0.3,0.4-0.3,0.6
		h-1.4c0-0.3,0.1-0.7,0.3-1s0.5-0.5,0.9-0.7s0.8-0.3,1.3-0.3c0.7,0,1.3,0.2,1.8,0.6s0.7,0.9,0.7,1.6v2.9c0,0.6,0.1,1,0.2,1.4v0.1
		H122.3z M120.7,436.3c0.3,0,0.5-0.1,0.8-0.2s0.4-0.3,0.6-0.6v-1.2h-0.8c-0.5,0-0.9,0.1-1.2,0.3s-0.4,0.4-0.4,0.8
		c0,0.3,0.1,0.5,0.3,0.7S120.4,436.3,120.7,436.3z"/>
	<path class="st3" d="M128.9,436.7c-0.4,0.5-1,0.7-1.8,0.7c-0.7,0-1.2-0.2-1.6-0.6s-0.5-1-0.5-1.7V431h1.4v4.1c0,0.8,0.3,1.2,1,1.2
		c0.7,0,1.2-0.2,1.4-0.7V431h1.4v6.3h-1.3L128.9,436.7z"/>
	<path class="st3" d="M137.4,434.2h-3.1v-1.1h3.1V434.2z"/>
	<path class="st3" d="M146.5,435.3h-3.3l-0.7,2H141l3.2-8.5h1.3l3.2,8.5h-1.5L146.5,435.3z M143.6,434.1h2.5l-1.2-3.5L143.6,434.1z"
		/>
	<path class="st3" d="M153.1,435.6c0-0.3-0.1-0.4-0.3-0.6s-0.6-0.2-1-0.4s-0.9-0.2-1.2-0.4c-0.7-0.3-1.1-0.8-1.1-1.5
		c0-0.5,0.2-1,0.7-1.4s1-0.6,1.8-0.6c0.8,0,1.4,0.2,1.8,0.6s0.7,0.9,0.7,1.5h-1.4c0-0.3-0.1-0.5-0.3-0.7s-0.5-0.3-0.8-0.3
		c-0.3,0-0.6,0.1-0.8,0.2s-0.3,0.3-0.3,0.6c0,0.2,0.1,0.4,0.3,0.5s0.6,0.2,1.1,0.4s1,0.3,1.3,0.4s0.6,0.4,0.7,0.6s0.2,0.5,0.2,0.9
		c0,0.6-0.2,1-0.7,1.4s-1.1,0.5-1.9,0.5c-0.5,0-1-0.1-1.4-0.3s-0.7-0.4-0.9-0.8s-0.3-0.7-0.3-1.1h1.4c0,0.3,0.1,0.6,0.4,0.8
		s0.5,0.3,0.9,0.3c0.4,0,0.7-0.1,0.9-0.2S153.1,435.8,153.1,435.6z"/>
	<path class="st3" d="M159.3,435.6c0-0.3-0.1-0.4-0.3-0.6s-0.6-0.2-1-0.4s-0.9-0.2-1.2-0.4c-0.7-0.3-1.1-0.8-1.1-1.5
		c0-0.5,0.2-1,0.7-1.4s1-0.6,1.8-0.6c0.8,0,1.4,0.2,1.8,0.6s0.7,0.9,0.7,1.5h-1.4c0-0.3-0.1-0.5-0.3-0.7s-0.5-0.3-0.8-0.3
		c-0.3,0-0.6,0.1-0.8,0.2s-0.3,0.3-0.3,0.6c0,0.2,0.1,0.4,0.3,0.5s0.6,0.2,1.1,0.4s1,0.3,1.3,0.4s0.6,0.4,0.7,0.6s0.2,0.5,0.2,0.9
		c0,0.6-0.2,1-0.7,1.4s-1.1,0.5-1.9,0.5c-0.5,0-1-0.1-1.4-0.3s-0.7-0.4-0.9-0.8s-0.3-0.7-0.3-1.1h1.4c0,0.3,0.1,0.6,0.4,0.8
		s0.5,0.3,0.9,0.3c0.4,0,0.7-0.1,0.9-0.2S159.3,435.8,159.3,435.6z"/>
	<path class="st3" d="M161.7,434.1c0-0.6,0.1-1.2,0.4-1.7s0.6-0.9,1-1.1s1-0.4,1.5-0.4c0.9,0,1.5,0.3,2.1,0.8s0.8,1.3,0.9,2.2l0,0.3
		c0,0.6-0.1,1.2-0.4,1.7s-0.6,0.9-1,1.1s-1,0.4-1.5,0.4c-0.9,0-1.6-0.3-2.1-0.9S161.7,435.1,161.7,434.1L161.7,434.1z M163.1,434.2
		c0,0.7,0.1,1.2,0.4,1.5s0.6,0.6,1.1,0.6s0.9-0.2,1.1-0.6s0.4-0.9,0.4-1.6c0-0.6-0.1-1.1-0.4-1.5s-0.6-0.6-1.1-0.6
		c-0.5,0-0.8,0.2-1.1,0.6S163.1,433.5,163.1,434.2z"/>
	<path class="st3" d="M171.4,436.3c0.4,0,0.7-0.1,0.9-0.3s0.4-0.5,0.4-0.8h1.3c0,0.4-0.1,0.8-0.4,1.1s-0.5,0.6-0.9,0.8
		s-0.8,0.3-1.3,0.3c-0.9,0-1.6-0.3-2.1-0.9s-0.8-1.4-0.8-2.4V434c0-1,0.3-1.7,0.8-2.3s1.2-0.9,2.1-0.9c0.8,0,1.4,0.2,1.8,0.7
		s0.7,1,0.7,1.7h-1.3c0-0.4-0.1-0.7-0.4-0.9s-0.5-0.4-0.9-0.4c-0.5,0-0.8,0.2-1.1,0.5s-0.4,0.8-0.4,1.5v0.2c0,0.7,0.1,1.2,0.4,1.5
		S170.9,436.3,171.4,436.3z"/>
	<path class="st3" d="M175.1,429.3c0-0.2,0.1-0.4,0.2-0.5s0.3-0.2,0.6-0.2s0.5,0.1,0.6,0.2s0.2,0.3,0.2,0.5c0,0.2-0.1,0.4-0.2,0.5
		s-0.3,0.2-0.6,0.2s-0.5-0.1-0.6-0.2S175.1,429.5,175.1,429.3z M176.6,437.3h-1.4V431h1.4V437.3z"/>
	<path class="st3" d="M181.9,437.3c-0.1-0.1-0.1-0.3-0.2-0.6c-0.5,0.5-1,0.7-1.7,0.7c-0.6,0-1.2-0.2-1.6-0.5s-0.6-0.8-0.6-1.3
		c0-0.7,0.3-1.2,0.8-1.6s1.2-0.5,2.2-0.5h0.9V433c0-0.3-0.1-0.6-0.3-0.8s-0.5-0.3-0.8-0.3c-0.3,0-0.6,0.1-0.8,0.2s-0.3,0.4-0.3,0.6
		h-1.4c0-0.3,0.1-0.7,0.3-1s0.5-0.5,0.9-0.7s0.8-0.3,1.3-0.3c0.7,0,1.3,0.2,1.8,0.6s0.7,0.9,0.7,1.6v2.9c0,0.6,0.1,1,0.2,1.4v0.1
		H181.9z M180.4,436.3c0.3,0,0.5-0.1,0.8-0.2s0.4-0.3,0.6-0.6v-1.2H181c-0.5,0-0.9,0.1-1.2,0.3s-0.4,0.4-0.4,0.8
		c0,0.3,0.1,0.5,0.3,0.7S180.1,436.3,180.4,436.3z"/>
	<path class="st3" d="M187.2,436.3c0.4,0,0.7-0.1,0.9-0.3s0.4-0.5,0.4-0.8h1.3c0,0.4-0.1,0.8-0.4,1.1s-0.5,0.6-0.9,0.8
		s-0.8,0.3-1.3,0.3c-0.9,0-1.6-0.3-2.1-0.9s-0.8-1.4-0.8-2.4V434c0-1,0.3-1.7,0.8-2.3s1.2-0.9,2.1-0.9c0.8,0,1.4,0.2,1.8,0.7
		s0.7,1,0.7,1.7h-1.3c0-0.4-0.1-0.7-0.4-0.9s-0.5-0.4-0.9-0.4c-0.5,0-0.8,0.2-1.1,0.5s-0.4,0.8-0.4,1.5v0.2c0,0.7,0.1,1.2,0.4,1.5
		S186.8,436.3,187.2,436.3z M187.6,437.3l-0.1,0.3c0.6,0.1,0.9,0.4,0.9,1c0,0.4-0.2,0.7-0.5,1s-0.8,0.3-1.4,0.3l0-0.8
		c0.3,0,0.5,0,0.6-0.1s0.2-0.2,0.2-0.4c0-0.2-0.1-0.3-0.2-0.4s-0.4-0.1-0.7-0.1l0.2-0.8H187.6z"/>
	<path class="st3" d="M190.7,434.1c0-0.6,0.1-1.2,0.4-1.7s0.6-0.9,1-1.1s1-0.4,1.5-0.4c0.9,0,1.5,0.3,2.1,0.8s0.8,1.3,0.9,2.2l0,0.3
		c0,0.6-0.1,1.2-0.4,1.7s-0.6,0.9-1,1.1s-1,0.4-1.5,0.4c-0.9,0-1.6-0.3-2.1-0.9S190.7,435.1,190.7,434.1L190.7,434.1z M195.7,428.4
		c0,0.4-0.1,0.8-0.4,1.1s-0.6,0.4-0.9,0.4c-0.2,0-0.3,0-0.4,0s-0.3-0.1-0.5-0.2s-0.3-0.2-0.4-0.2s-0.2,0-0.3,0
		c-0.1,0-0.3,0.1-0.4,0.2s-0.2,0.3-0.2,0.4l-0.9,0c0-0.4,0.1-0.8,0.4-1.1s0.6-0.4,0.9-0.4c0.2,0,0.5,0.1,0.8,0.3s0.6,0.3,0.8,0.3
		c0.1,0,0.3-0.1,0.4-0.2s0.2-0.3,0.2-0.4L195.7,428.4z M192.1,434.2c0,0.7,0.1,1.2,0.4,1.5s0.6,0.6,1.1,0.6s0.9-0.2,1.1-0.6
		s0.4-0.9,0.4-1.6c0-0.6-0.1-1.1-0.4-1.5s-0.6-0.6-1.1-0.6c-0.5,0-0.8,0.2-1.1,0.6S192.1,433.5,192.1,434.2z"/>
	<path class="st3" d="M200.5,437.4c-0.9,0-1.6-0.3-2.2-0.9s-0.8-1.3-0.8-2.3v-0.2c0-0.6,0.1-1.2,0.4-1.7s0.6-0.9,1-1.2
		s0.9-0.4,1.5-0.4c0.9,0,1.5,0.3,2,0.8s0.7,1.3,0.7,2.3v0.6h-4.1c0,0.5,0.2,0.9,0.5,1.2s0.7,0.5,1.2,0.5c0.7,0,1.2-0.3,1.6-0.8
		l0.8,0.7c-0.3,0.4-0.6,0.7-1,0.9S201.1,437.4,200.5,437.4z M200.4,432c-0.4,0-0.7,0.1-0.9,0.4s-0.4,0.7-0.5,1.1h2.7v-0.1
		c0-0.5-0.2-0.8-0.4-1.1S200.8,432,200.4,432z"/>
	<path class="st3" d="M207.7,435.6c0-0.3-0.1-0.4-0.3-0.6s-0.6-0.2-1-0.4s-0.9-0.2-1.2-0.4c-0.7-0.3-1.1-0.8-1.1-1.5
		c0-0.5,0.2-1,0.7-1.4s1-0.6,1.8-0.6c0.8,0,1.4,0.2,1.8,0.6s0.7,0.9,0.7,1.5h-1.4c0-0.3-0.1-0.5-0.3-0.7s-0.5-0.3-0.8-0.3
		c-0.3,0-0.6,0.1-0.8,0.2s-0.3,0.3-0.3,0.6c0,0.2,0.1,0.4,0.3,0.5s0.6,0.2,1.1,0.4s1,0.3,1.3,0.4s0.6,0.4,0.7,0.6s0.2,0.5,0.2,0.9
		c0,0.6-0.2,1-0.7,1.4s-1.1,0.5-1.9,0.5c-0.5,0-1-0.1-1.4-0.3s-0.7-0.4-0.9-0.8s-0.3-0.7-0.3-1.1h1.4c0,0.3,0.1,0.6,0.4,0.8
		s0.5,0.3,0.9,0.3c0.4,0,0.7-0.1,0.9-0.2S207.7,435.8,207.7,435.6z"/>
	<path class="st3" d="M210.6,439.2l-0.8-0.5c0.2-0.4,0.4-0.7,0.5-0.9s0.1-0.5,0.1-0.8v-1.1h1.3l0,1c0,0.4-0.1,0.8-0.3,1.2
		S210.9,438.9,210.6,439.2z"/>
</g>
<g class="st0">
	<path class="st3" d="M134.7,451.1c0,0.8-0.1,1.6-0.4,2.2s-0.7,1.1-1.2,1.5s-1.2,0.5-1.9,0.5c-0.7,0-1.3-0.2-1.8-0.5s-1-0.8-1.3-1.4
		s-0.4-1.3-0.4-2.2v-0.5c0-0.8,0.1-1.6,0.4-2.2s0.7-1.1,1.2-1.5s1.2-0.5,1.8-0.5s1.3,0.2,1.8,0.5s1,0.8,1.2,1.4s0.4,1.4,0.4,2.2
		V451.1z M133.3,450.6c0-0.9-0.2-1.7-0.5-2.2s-0.9-0.8-1.5-0.8c-0.6,0-1.1,0.3-1.5,0.8s-0.5,1.2-0.6,2.1v0.5c0,0.9,0.2,1.7,0.5,2.2
		s0.9,0.8,1.5,0.8c0.7,0,1.2-0.2,1.5-0.8s0.5-1.2,0.5-2.2V450.6z"/>
	<path class="st3" d="M143,455.1h-1.5l-3.8-6.1v6.1h-1.5v-8.5h1.5l3.8,6.1v-6.1h1.5V455.1z"/>
	<path class="st3" d="M151.3,454c-0.3,0.4-0.7,0.7-1.3,0.9s-1.2,0.3-1.9,0.3c-0.7,0-1.3-0.2-1.9-0.5s-1-0.8-1.3-1.4
		s-0.5-1.3-0.5-2.1v-0.7c0-1.3,0.3-2.3,0.9-3s1.5-1.1,2.6-1.1c0.9,0,1.7,0.2,2.3,0.7s0.9,1.1,1,2h-1.5c-0.2-1-0.8-1.5-1.8-1.5
		c-0.7,0-1.2,0.2-1.5,0.7c-0.3,0.5-0.5,1.2-0.5,2.1v0.7c0,0.9,0.2,1.6,0.6,2.1c0.4,0.5,0.9,0.8,1.6,0.8c0.8,0,1.3-0.2,1.6-0.5v-1.7
		H148v-1.1h3.2V454z"/>
	<path class="st3" d="M156.3,453.4c0-0.3-0.1-0.4-0.3-0.6s-0.6-0.2-1-0.4s-0.9-0.2-1.2-0.4c-0.7-0.3-1.1-0.8-1.1-1.5
		c0-0.5,0.2-1,0.7-1.4s1-0.6,1.8-0.6c0.8,0,1.4,0.2,1.8,0.6s0.7,0.9,0.7,1.5h-1.4c0-0.3-0.1-0.5-0.3-0.7s-0.5-0.3-0.8-0.3
		c-0.3,0-0.6,0.1-0.8,0.2s-0.3,0.3-0.3,0.6c0,0.2,0.1,0.4,0.3,0.5s0.6,0.2,1.1,0.4s1,0.3,1.3,0.4s0.6,0.4,0.7,0.6s0.2,0.5,0.2,0.9
		c0,0.6-0.2,1-0.7,1.4s-1.1,0.5-1.9,0.5c-0.5,0-1-0.1-1.4-0.3s-0.7-0.4-0.9-0.8s-0.3-0.7-0.3-1.1h1.4c0,0.3,0.1,0.6,0.4,0.8
		s0.5,0.3,0.9,0.3c0.4,0,0.7-0.1,0.9-0.2S156.3,453.6,156.3,453.4z"/>
</g>
<g class="st0">
	<path class="st1" d="M81,546.8v3.2h-1.5v-8.5h3.3c1,0,1.7,0.2,2.3,0.7c0.6,0.5,0.8,1.2,0.8,2c0,0.8-0.3,1.5-0.8,2
		c-0.5,0.5-1.3,0.7-2.3,0.7H81z M81,545.6h1.8c0.5,0,0.9-0.1,1.2-0.4s0.4-0.6,0.4-1.1c0-0.5-0.1-0.8-0.4-1.1s-0.7-0.4-1.2-0.4H81
		V545.6z"/>
	<path class="st1" d="M90.3,546.7h-1.7v3.3h-1.5v-8.5h3c1,0,1.7,0.2,2.3,0.7c0.5,0.4,0.8,1.1,0.8,1.9c0,0.6-0.1,1-0.4,1.4
		c-0.3,0.4-0.7,0.7-1.2,0.9l1.9,3.6v0.1H92L90.3,546.7z M88.6,545.5h1.5c0.5,0,0.9-0.1,1.2-0.4s0.4-0.6,0.4-1c0-0.5-0.1-0.8-0.4-1.1
		s-0.6-0.4-1.2-0.4h-1.6V545.5z"/>
	<path class="st1" d="M101.4,545.9c0,0.8-0.1,1.6-0.4,2.2s-0.7,1.1-1.2,1.5s-1.2,0.5-1.9,0.5c-0.7,0-1.3-0.2-1.8-0.5s-1-0.8-1.3-1.4
		s-0.4-1.3-0.4-2.2v-0.5c0-0.8,0.1-1.6,0.4-2.2s0.7-1.1,1.2-1.5s1.2-0.5,1.8-0.5s1.3,0.2,1.8,0.5s1,0.8,1.2,1.4s0.4,1.4,0.4,2.2
		V545.9z M100,545.5c0-0.9-0.2-1.7-0.5-2.2s-0.9-0.8-1.5-0.8c-0.6,0-1.1,0.3-1.5,0.8s-0.5,1.2-0.6,2.1v0.5c0,0.9,0.2,1.7,0.5,2.2
		s0.9,0.8,1.5,0.8c0.7,0,1.2-0.2,1.5-0.8s0.5-1.2,0.5-2.2V545.5z"/>
	<path class="st1" d="M102.9,550v-8.5h2.5c0.8,0,1.4,0.2,2,0.5s1,0.8,1.4,1.4s0.5,1.3,0.5,2.1v0.4c0,0.8-0.2,1.5-0.5,2.1
		s-0.8,1.1-1.4,1.4s-1.3,0.5-2,0.5H102.9z M104.4,542.6v6.2h1c0.8,0,1.4-0.2,1.8-0.7s0.6-1.2,0.6-2.1v-0.5c0-0.9-0.2-1.6-0.6-2.1
		s-1-0.7-1.8-0.7H104.4z"/>
	<path class="st1" d="M117,541.4v5.7c0,0.9-0.3,1.6-0.9,2.2s-1.4,0.8-2.3,0.8c-1,0-1.8-0.3-2.3-0.8s-0.9-1.2-0.9-2.2v-5.7h1.5v5.7
		c0,0.6,0.1,1,0.4,1.3s0.7,0.5,1.3,0.5c1.1,0,1.7-0.6,1.7-1.8v-5.7H117z"/>
	<path class="st1" d="M125.1,547.2c-0.1,0.9-0.4,1.6-1,2.1s-1.4,0.8-2.3,0.8c-0.7,0-1.3-0.2-1.8-0.5s-0.9-0.8-1.2-1.4
		s-0.4-1.3-0.4-2.1v-0.8c0-0.8,0.1-1.5,0.4-2.1s0.7-1.1,1.2-1.4s1.1-0.5,1.8-0.5c0.9,0,1.7,0.3,2.3,0.8s0.9,1.2,1,2.2h-1.5
		c-0.1-0.6-0.2-1.1-0.5-1.3s-0.7-0.4-1.3-0.4c-0.6,0-1.1,0.2-1.5,0.7c-0.3,0.5-0.5,1.2-0.5,2.1v0.8c0,0.9,0.2,1.6,0.5,2.1
		c0.3,0.5,0.8,0.7,1.5,0.7c0.6,0,1-0.1,1.3-0.4s0.5-0.7,0.6-1.3H125.1z M122.3,550l-0.1,0.3c0.6,0.1,0.9,0.4,0.9,1
		c0,0.4-0.2,0.7-0.5,1s-0.8,0.3-1.4,0.3l0-0.8c0.3,0,0.5,0,0.6-0.1s0.2-0.2,0.2-0.4c0-0.2-0.1-0.3-0.2-0.4s-0.4-0.1-0.7-0.1l0.2-0.8
		H122.3z"/>
	<path class="st1" d="M131.2,548h-3.3l-0.7,2h-1.5l3.2-8.5h1.3l3.2,8.5h-1.5L131.2,548z M131.7,539.3c0,0.4-0.1,0.8-0.4,1.1
		s-0.6,0.4-0.9,0.4c-0.2,0-0.3,0-0.4,0s-0.3-0.1-0.5-0.2s-0.3-0.2-0.4-0.2s-0.2,0-0.3,0c-0.1,0-0.3,0.1-0.4,0.2s-0.2,0.3-0.2,0.4
		l-0.9,0c0-0.4,0.1-0.8,0.4-1.1s0.6-0.4,0.9-0.4c0.2,0,0.5,0.1,0.8,0.3s0.6,0.3,0.8,0.3c0.1,0,0.3-0.1,0.4-0.2s0.2-0.3,0.2-0.4
		L131.7,539.3z M128.3,546.8h2.5l-1.2-3.5L128.3,546.8z"/>
	<path class="st1" d="M141.1,545.9c0,0.8-0.1,1.6-0.4,2.2s-0.7,1.1-1.2,1.5s-1.2,0.5-1.9,0.5c-0.7,0-1.3-0.2-1.8-0.5s-1-0.8-1.3-1.4
		s-0.4-1.3-0.4-2.2v-0.5c0-0.8,0.1-1.6,0.4-2.2s0.7-1.1,1.2-1.5s1.2-0.5,1.8-0.5s1.3,0.2,1.8,0.5s1,0.8,1.2,1.4s0.4,1.4,0.4,2.2
		V545.9z M139.6,545.5c0-0.9-0.2-1.7-0.5-2.2s-0.9-0.8-1.5-0.8c-0.6,0-1.1,0.3-1.5,0.8s-0.5,1.2-0.6,2.1v0.5c0,0.9,0.2,1.7,0.5,2.2
		s0.9,0.8,1.5,0.8c0.7,0,1.2-0.2,1.5-0.8s0.5-1.2,0.5-2.2V545.5z"/>
	<path class="st1" d="M147,546.8v3.2h-1.5v-8.5h3.3c1,0,1.7,0.2,2.3,0.7c0.6,0.5,0.8,1.2,0.8,2c0,0.8-0.3,1.5-0.8,2
		c-0.5,0.5-1.3,0.7-2.3,0.7H147z M147,545.6h1.8c0.5,0,0.9-0.1,1.2-0.4s0.4-0.6,0.4-1.1c0-0.5-0.1-0.8-0.4-1.1s-0.7-0.4-1.2-0.4H147
		V545.6z"/>
	<path class="st1" d="M156.4,546.7h-1.7v3.3h-1.5v-8.5h3c1,0,1.7,0.2,2.3,0.7c0.5,0.4,0.8,1.1,0.8,1.9c0,0.6-0.1,1-0.4,1.4
		c-0.3,0.4-0.7,0.7-1.2,0.9l1.9,3.6v0.1h-1.6L156.4,546.7z M154.7,545.5h1.5c0.5,0,0.9-0.1,1.2-0.4s0.4-0.6,0.4-1
		c0-0.5-0.1-0.8-0.4-1.1s-0.6-0.4-1.2-0.4h-1.6V545.5z"/>
	<path class="st1" d="M162.3,550h-1.5v-8.5h1.5V550z"/>
	<path class="st1" d="M170.9,550h-1.5l-3.8-6.1v6.1h-1.5v-8.5h1.5l3.8,6.1v-6.1h1.5V550z"/>
	<path class="st1" d="M179.1,547.2c-0.1,0.9-0.4,1.6-1,2.1s-1.4,0.8-2.3,0.8c-0.7,0-1.3-0.2-1.8-0.5s-0.9-0.8-1.2-1.4
		s-0.4-1.3-0.4-2.1v-0.8c0-0.8,0.1-1.5,0.4-2.1s0.7-1.1,1.2-1.4s1.1-0.5,1.8-0.5c0.9,0,1.7,0.3,2.3,0.8s0.9,1.2,1,2.2h-1.5
		c-0.1-0.6-0.2-1.1-0.5-1.3s-0.7-0.4-1.3-0.4c-0.6,0-1.1,0.2-1.5,0.7c-0.3,0.5-0.5,1.2-0.5,2.1v0.8c0,0.9,0.2,1.6,0.5,2.1
		c0.3,0.5,0.8,0.7,1.5,0.7c0.6,0,1-0.1,1.3-0.4s0.5-0.7,0.6-1.3H179.1z"/>
	<path class="st1" d="M182,550h-1.5v-8.5h1.5V550z"/>
	<path class="st1" d="M185.3,546.8v3.2h-1.5v-8.5h3.3c1,0,1.7,0.2,2.3,0.7c0.6,0.5,0.8,1.2,0.8,2c0,0.8-0.3,1.5-0.8,2
		c-0.5,0.5-1.3,0.7-2.3,0.7H185.3z M185.3,545.6h1.8c0.5,0,0.9-0.1,1.2-0.4s0.4-0.6,0.4-1.1c0-0.5-0.1-0.8-0.4-1.1s-0.7-0.4-1.2-0.4
		h-1.8V545.6z"/>
	<path class="st1" d="M195.2,548h-3.3l-0.7,2h-1.5l3.2-8.5h1.3l3.2,8.5h-1.5L195.2,548z M192.3,546.8h2.5l-1.2-3.5L192.3,546.8z"/>
	<path class="st1" d="M199.9,548.8h3.9v1.2h-5.4v-8.5h1.5V548.8z"/>
</g>
<line class="st2" x1="108.5" y1="524.6" x2="176.8" y2="524.6"/>
<g class="st0">
	<path class="st3" d="M88.4,570.8h-1.5V567h-3.8v3.8h-1.5v-8.5h1.5v3.6h3.8v-3.6h1.5V570.8z"/>
	<path class="st3" d="M89.8,567.5c0-0.6,0.1-1.2,0.4-1.7s0.6-0.9,1-1.1s1-0.4,1.5-0.4c0.9,0,1.5,0.3,2.1,0.8s0.8,1.3,0.9,2.2l0,0.3
		c0,0.6-0.1,1.2-0.4,1.7s-0.6,0.9-1,1.1s-1,0.4-1.5,0.4c-0.9,0-1.6-0.3-2.1-0.9S89.8,568.6,89.8,567.5L89.8,567.5z M91.2,567.7
		c0,0.7,0.1,1.2,0.4,1.5s0.6,0.6,1.1,0.6s0.9-0.2,1.1-0.6s0.4-0.9,0.4-1.6c0-0.6-0.1-1.1-0.4-1.5s-0.6-0.6-1.1-0.6
		c-0.5,0-0.8,0.2-1.1,0.6S91.2,566.9,91.2,567.7z"/>
	<path class="st3" d="M100.2,565.7c-0.2,0-0.4,0-0.6,0c-0.7,0-1.1,0.2-1.3,0.8v4.3h-1.4v-6.3h1.4l0,0.7c0.3-0.6,0.8-0.8,1.4-0.8
		c0.2,0,0.4,0,0.5,0.1L100.2,565.7z"/>
	<path class="st3" d="M103.2,562.9v1.5h1.1v1.1h-1.1v3.5c0,0.2,0,0.4,0.1,0.5s0.3,0.2,0.5,0.2c0.2,0,0.3,0,0.5-0.1v1.1
		c-0.3,0.1-0.6,0.1-0.9,0.1c-1.1,0-1.6-0.6-1.6-1.8v-3.6h-1v-1.1h1v-1.5H103.2z"/>
	<path class="st3" d="M105.4,562.8c0-0.2,0.1-0.4,0.2-0.5s0.3-0.2,0.6-0.2s0.5,0.1,0.6,0.2s0.2,0.3,0.2,0.5c0,0.2-0.1,0.4-0.2,0.5
		s-0.3,0.2-0.6,0.2s-0.5-0.1-0.6-0.2S105.4,563,105.4,562.8z M106.9,570.8h-1.4v-6.3h1.4V570.8z"/>
	<path class="st3" d="M111,569.7c0.4,0,0.7-0.1,0.9-0.3s0.4-0.5,0.4-0.8h1.3c0,0.4-0.1,0.8-0.4,1.1s-0.5,0.6-0.9,0.8
		s-0.8,0.3-1.3,0.3c-0.9,0-1.6-0.3-2.1-0.9s-0.8-1.4-0.8-2.4v-0.1c0-1,0.3-1.7,0.8-2.3s1.2-0.9,2.1-0.9c0.8,0,1.4,0.2,1.8,0.7
		s0.7,1,0.7,1.7h-1.3c0-0.4-0.1-0.7-0.4-0.9s-0.5-0.4-0.9-0.4c-0.5,0-0.8,0.2-1.1,0.5s-0.4,0.8-0.4,1.5v0.2c0,0.7,0.1,1.2,0.4,1.5
		S110.6,569.7,111,569.7z"/>
	<path class="st3" d="M118.6,570.1c-0.4,0.5-1,0.7-1.8,0.7c-0.7,0-1.2-0.2-1.6-0.6s-0.5-1-0.5-1.7v-4.1h1.4v4.1c0,0.8,0.3,1.2,1,1.2
		c0.7,0,1.2-0.2,1.4-0.7v-4.6h1.4v6.3h-1.3L118.6,570.1z"/>
	<path class="st3" d="M122.9,570.8h-1.4v-9h1.4V570.8z"/>
	<path class="st3" d="M126.2,562.9v1.5h1.1v1.1h-1.1v3.5c0,0.2,0,0.4,0.1,0.5s0.3,0.2,0.5,0.2c0.2,0,0.3,0,0.5-0.1v1.1
		c-0.3,0.1-0.6,0.1-0.9,0.1c-1.1,0-1.6-0.6-1.6-1.8v-3.6h-1v-1.1h1v-1.5H126.2z"/>
	<path class="st3" d="M132.3,570.1c-0.4,0.5-1,0.7-1.8,0.7c-0.7,0-1.2-0.2-1.6-0.6s-0.5-1-0.5-1.7v-4.1h1.4v4.1c0,0.8,0.3,1.2,1,1.2
		c0.7,0,1.2-0.2,1.4-0.7v-4.6h1.4v6.3h-1.3L132.3,570.1z"/>
	<path class="st3" d="M138.4,565.7c-0.2,0-0.4,0-0.6,0c-0.7,0-1.1,0.2-1.3,0.8v4.3h-1.4v-6.3h1.4l0,0.7c0.3-0.6,0.8-0.8,1.4-0.8
		c0.2,0,0.4,0,0.5,0.1L138.4,565.7z"/>
	<path class="st3" d="M142.9,570.8c-0.1-0.1-0.1-0.3-0.2-0.6c-0.5,0.5-1,0.7-1.7,0.7c-0.6,0-1.2-0.2-1.6-0.5s-0.6-0.8-0.6-1.3
		c0-0.7,0.3-1.2,0.8-1.6s1.2-0.5,2.2-0.5h0.9v-0.4c0-0.3-0.1-0.6-0.3-0.8s-0.5-0.3-0.8-0.3c-0.3,0-0.6,0.1-0.8,0.2s-0.3,0.4-0.3,0.6
		h-1.4c0-0.3,0.1-0.7,0.3-1s0.5-0.5,0.9-0.7s0.8-0.3,1.3-0.3c0.7,0,1.3,0.2,1.8,0.6s0.7,0.9,0.7,1.6v2.9c0,0.6,0.1,1,0.2,1.4v0.1
		H142.9z M141.4,569.7c0.3,0,0.5-0.1,0.8-0.2s0.4-0.3,0.6-0.6v-1.2H142c-0.5,0-0.9,0.1-1.2,0.3s-0.4,0.4-0.4,0.8
		c0,0.3,0.1,0.5,0.3,0.7S141.1,569.7,141.4,569.7z"/>
	<path class="st3" d="M151.4,570.9c-0.9,0-1.6-0.3-2.2-0.9s-0.8-1.3-0.8-2.3v-0.2c0-0.6,0.1-1.2,0.4-1.7s0.6-0.9,1-1.2
		s0.9-0.4,1.5-0.4c0.9,0,1.5,0.3,2,0.8s0.7,1.3,0.7,2.3v0.6h-4.1c0,0.5,0.2,0.9,0.5,1.2s0.7,0.5,1.2,0.5c0.7,0,1.2-0.3,1.6-0.8
		l0.8,0.7c-0.3,0.4-0.6,0.7-1,0.9S151.9,570.9,151.4,570.9z M151.2,565.5c-0.4,0-0.7,0.1-0.9,0.4s-0.4,0.7-0.5,1.1h2.7v-0.1
		c0-0.5-0.2-0.8-0.4-1.1S151.6,565.5,151.2,565.5z"/>
	<path class="st3" d="M159.7,567.6v3.2h-1.5v-8.5h3.3c1,0,1.7,0.2,2.3,0.7c0.6,0.5,0.8,1.2,0.8,2c0,0.8-0.3,1.5-0.8,2
		c-0.5,0.5-1.3,0.7-2.3,0.7H159.7z M159.7,566.4h1.8c0.5,0,0.9-0.1,1.2-0.4s0.4-0.6,0.4-1.1c0-0.5-0.1-0.8-0.4-1.1s-0.7-0.4-1.2-0.4
		h-1.8V566.4z"/>
	<path class="st3" d="M168.4,570.9c-0.9,0-1.6-0.3-2.2-0.9s-0.8-1.3-0.8-2.3v-0.2c0-0.6,0.1-1.2,0.4-1.7s0.6-0.9,1-1.2
		s0.9-0.4,1.5-0.4c0.9,0,1.5,0.3,2,0.8s0.7,1.3,0.7,2.3v0.6h-4.1c0,0.5,0.2,0.9,0.5,1.2s0.7,0.5,1.2,0.5c0.7,0,1.2-0.3,1.6-0.8
		l0.8,0.7c-0.3,0.4-0.6,0.7-1,0.9S169,570.9,168.4,570.9z M168.3,565.5c-0.4,0-0.7,0.1-0.9,0.4s-0.4,0.7-0.5,1.1h2.7v-0.1
		c0-0.5-0.2-0.8-0.4-1.1S168.7,565.5,168.3,565.5z"/>
	<path class="st3" d="M174.7,569.7c0.4,0,0.7-0.1,0.9-0.3s0.4-0.5,0.4-0.8h1.3c0,0.4-0.1,0.8-0.4,1.1s-0.5,0.6-0.9,0.8
		s-0.8,0.3-1.3,0.3c-0.9,0-1.6-0.3-2.1-0.9s-0.8-1.4-0.8-2.4v-0.1c0-1,0.3-1.7,0.8-2.3s1.2-0.9,2.1-0.9c0.8,0,1.4,0.2,1.8,0.7
		s0.7,1,0.7,1.7H176c0-0.4-0.1-0.7-0.4-0.9s-0.5-0.4-0.9-0.4c-0.5,0-0.8,0.2-1.1,0.5s-0.4,0.8-0.4,1.5v0.2c0,0.7,0.1,1.2,0.4,1.5
		S174.2,569.7,174.7,569.7z"/>
	<path class="st3" d="M182.2,570.1c-0.4,0.5-1,0.7-1.8,0.7c-0.7,0-1.2-0.2-1.6-0.6s-0.5-1-0.5-1.7v-4.1h1.4v4.1c0,0.8,0.3,1.2,1,1.2
		c0.7,0,1.2-0.2,1.4-0.7v-4.6h1.4v6.3h-1.3L182.2,570.1z"/>
	<path class="st3" d="M188.8,570.8c-0.1-0.1-0.1-0.3-0.2-0.6c-0.5,0.5-1,0.7-1.7,0.7c-0.6,0-1.2-0.2-1.6-0.5s-0.6-0.8-0.6-1.3
		c0-0.7,0.3-1.2,0.8-1.6s1.2-0.5,2.2-0.5h0.9v-0.4c0-0.3-0.1-0.6-0.3-0.8s-0.5-0.3-0.8-0.3c-0.3,0-0.6,0.1-0.8,0.2s-0.3,0.4-0.3,0.6
		H185c0-0.3,0.1-0.7,0.3-1s0.5-0.5,0.9-0.7s0.8-0.3,1.3-0.3c0.7,0,1.3,0.2,1.8,0.6s0.7,0.9,0.7,1.6v2.9c0,0.6,0.1,1,0.2,1.4v0.1
		H188.8z M187.3,569.7c0.3,0,0.5-0.1,0.8-0.2s0.4-0.3,0.6-0.6v-1.2h-0.8c-0.5,0-0.9,0.1-1.2,0.3s-0.4,0.4-0.4,0.8
		c0,0.3,0.1,0.5,0.3,0.7S187,569.7,187.3,569.7z M188.1,561.8h1.6l-1.6,1.8l-1.1,0L188.1,561.8z"/>
	<path class="st3" d="M194.8,565.7c-0.2,0-0.4,0-0.6,0c-0.7,0-1.1,0.2-1.3,0.8v4.3h-1.4v-6.3h1.4l0,0.7c0.3-0.6,0.8-0.8,1.4-0.8
		c0.2,0,0.4,0,0.5,0.1L194.8,565.7z"/>
	<path class="st3" d="M195.8,562.8c0-0.2,0.1-0.4,0.2-0.5s0.3-0.2,0.6-0.2s0.5,0.1,0.6,0.2s0.2,0.3,0.2,0.5c0,0.2-0.1,0.4-0.2,0.5
		s-0.3,0.2-0.6,0.2s-0.5-0.1-0.6-0.2S195.8,563,195.8,562.8z M197.3,570.8h-1.4v-6.3h1.4V570.8z"/>
	<path class="st3" d="M202.6,570.8c-0.1-0.1-0.1-0.3-0.2-0.6c-0.5,0.5-1,0.7-1.7,0.7c-0.6,0-1.2-0.2-1.6-0.5s-0.6-0.8-0.6-1.3
		c0-0.7,0.3-1.2,0.8-1.6s1.2-0.5,2.2-0.5h0.9v-0.4c0-0.3-0.1-0.6-0.3-0.8s-0.5-0.3-0.8-0.3c-0.3,0-0.6,0.1-0.8,0.2s-0.3,0.4-0.3,0.6
		h-1.4c0-0.3,0.1-0.7,0.3-1s0.5-0.5,0.9-0.7s0.8-0.3,1.3-0.3c0.7,0,1.3,0.2,1.8,0.6s0.7,0.9,0.7,1.6v2.9c0,0.6,0.1,1,0.2,1.4v0.1
		H202.6z M201,569.7c0.3,0,0.5-0.1,0.8-0.2s0.4-0.3,0.6-0.6v-1.2h-0.8c-0.5,0-0.9,0.1-1.2,0.3s-0.4,0.4-0.4,0.8
		c0,0.3,0.1,0.5,0.3,0.7S200.7,569.7,201,569.7z"/>
</g>
<g class="st0">
	<path class="st1" d="M391.8,149.5h-1.5V141h1.5V149.5z"/>
	<path class="st1" d="M400.4,149.5h-1.5l-3.8-6.1v6.1h-1.5V141h1.5l3.8,6.1V141h1.5V149.5z"/>
	<path class="st1" d="M406.6,147.3c0-0.4-0.1-0.7-0.4-0.9s-0.7-0.4-1.4-0.6s-1.2-0.4-1.6-0.7c-0.8-0.5-1.2-1.1-1.2-1.9
		c0-0.7,0.3-1.3,0.8-1.7s1.3-0.7,2.2-0.7c0.6,0,1.1,0.1,1.6,0.3s0.8,0.5,1.1,0.9s0.4,0.9,0.4,1.3h-1.5c0-0.4-0.1-0.8-0.4-1
		s-0.7-0.4-1.2-0.4c-0.5,0-0.9,0.1-1.1,0.3s-0.4,0.5-0.4,0.9c0,0.3,0.1,0.6,0.4,0.8s0.8,0.4,1.4,0.6s1.2,0.4,1.6,0.7
		s0.7,0.5,0.9,0.9s0.3,0.7,0.3,1.1c0,0.7-0.3,1.3-0.8,1.7s-1.3,0.6-2.2,0.6c-0.6,0-1.2-0.1-1.7-0.3s-0.9-0.5-1.2-0.9
		s-0.4-0.9-0.4-1.4h1.5c0,0.5,0.2,0.9,0.5,1.1s0.8,0.4,1.4,0.4c0.5,0,0.9-0.1,1.2-0.3S406.6,147.7,406.6,147.3z"/>
	<path class="st1" d="M414.4,145.7h-3.5v2.6h4.1v1.2h-5.6V141h5.5v1.2h-4.1v2.4h3.5V145.7z"/>
	<path class="st1" d="M419.3,146.2h-1.7v3.3h-1.5V141h3c1,0,1.7,0.2,2.3,0.7c0.5,0.4,0.8,1.1,0.8,1.9c0,0.6-0.1,1-0.4,1.4
		c-0.3,0.4-0.7,0.7-1.2,0.9l1.9,3.6v0.1H421L419.3,146.2z M417.6,145.1h1.5c0.5,0,0.9-0.1,1.2-0.4s0.4-0.6,0.4-1
		c0-0.5-0.1-0.8-0.4-1.1s-0.6-0.4-1.2-0.4h-1.6V145.1z"/>
	<path class="st1" d="M430.2,146.8c-0.1,0.9-0.4,1.6-1,2.1s-1.4,0.8-2.3,0.8c-0.7,0-1.3-0.2-1.8-0.5s-0.9-0.8-1.2-1.4
		s-0.4-1.3-0.4-2.1v-0.8c0-0.8,0.1-1.5,0.4-2.1s0.7-1.1,1.2-1.4s1.1-0.5,1.8-0.5c0.9,0,1.7,0.3,2.3,0.8s0.9,1.2,1,2.2h-1.5
		c-0.1-0.6-0.2-1.1-0.5-1.3s-0.7-0.4-1.3-0.4c-0.6,0-1.1,0.2-1.5,0.7c-0.3,0.5-0.5,1.2-0.5,2.1v0.8c0,0.9,0.2,1.6,0.5,2.1
		c0.3,0.5,0.8,0.7,1.5,0.7c0.6,0,1-0.1,1.3-0.4s0.5-0.7,0.6-1.3H430.2z M427.3,149.5l-0.1,0.3c0.6,0.1,0.9,0.4,0.9,1
		c0,0.4-0.2,0.7-0.5,1s-0.8,0.3-1.4,0.3l0-0.8c0.3,0,0.5,0,0.6-0.1s0.2-0.2,0.2-0.4c0-0.2-0.1-0.3-0.2-0.4s-0.4-0.1-0.7-0.1l0.2-0.8
		H427.3z"/>
	<path class="st1" d="M436.3,147.5h-3.3l-0.7,2h-1.5l3.2-8.5h1.3l3.2,8.5H437L436.3,147.5z M436.8,138.8c0,0.4-0.1,0.8-0.4,1.1
		s-0.6,0.4-0.9,0.4c-0.2,0-0.3,0-0.4,0s-0.3-0.1-0.5-0.2s-0.3-0.2-0.4-0.2s-0.2,0-0.3,0c-0.1,0-0.3,0.1-0.4,0.2s-0.2,0.3-0.2,0.4
		l-0.9,0c0-0.4,0.1-0.8,0.4-1.1s0.6-0.4,0.9-0.4c0.2,0,0.5,0.1,0.8,0.3s0.6,0.3,0.8,0.3c0.1,0,0.3-0.1,0.4-0.2s0.2-0.3,0.2-0.4
		L436.8,138.8z M433.4,146.3h2.5l-1.2-3.5L433.4,146.3z"/>
	<path class="st1" d="M446.1,145.5c0,0.8-0.1,1.6-0.4,2.2s-0.7,1.1-1.2,1.5s-1.2,0.5-1.9,0.5c-0.7,0-1.3-0.2-1.8-0.5s-1-0.8-1.3-1.4
		s-0.4-1.3-0.4-2.2v-0.5c0-0.8,0.1-1.6,0.4-2.2s0.7-1.1,1.2-1.5s1.2-0.5,1.8-0.5s1.3,0.2,1.8,0.5s1,0.8,1.2,1.4s0.4,1.4,0.4,2.2
		V145.5z M444.7,145c0-0.9-0.2-1.7-0.5-2.2s-0.9-0.8-1.5-0.8c-0.6,0-1.1,0.3-1.5,0.8s-0.5,1.2-0.6,2.1v0.5c0,0.9,0.2,1.7,0.5,2.2
		s0.9,0.8,1.5,0.8c0.7,0,1.2-0.2,1.5-0.8s0.5-1.2,0.5-2.2V145z"/>
	<path class="st1" d="M457.4,149.5h-1.5l-3.8-6.1v6.1h-1.5V141h1.5l3.8,6.1V141h1.5V149.5z"/>
	<path class="st1" d="M465.9,145.5c0,0.8-0.1,1.6-0.4,2.2s-0.7,1.1-1.2,1.5s-1.2,0.5-1.9,0.5c-0.7,0-1.3-0.2-1.8-0.5s-1-0.8-1.3-1.4
		s-0.4-1.3-0.4-2.2v-0.5c0-0.8,0.1-1.6,0.4-2.2s0.7-1.1,1.2-1.5s1.2-0.5,1.8-0.5s1.3,0.2,1.8,0.5s1,0.8,1.2,1.4s0.4,1.4,0.4,2.2
		V145.5z M464.5,145c0-0.9-0.2-1.7-0.5-2.2s-0.9-0.8-1.5-0.8c-0.6,0-1.1,0.3-1.5,0.8s-0.5,1.2-0.6,2.1v0.5c0,0.9,0.2,1.7,0.5,2.2
		s0.9,0.8,1.5,0.8c0.7,0,1.2-0.2,1.5-0.8s0.5-1.2,0.5-2.2V145z"/>
	<path class="st1" d="M472.3,141l2.5,6.5l2.5-6.5h1.9v8.5h-1.5v-2.8l0.1-3.8l-2.5,6.6h-1.1l-2.5-6.6l0.1,3.8v2.8h-1.5V141H472.3z"/>
	<path class="st1" d="M485.9,145.7h-3.5v2.6h4.1v1.2h-5.6V141h5.5v1.2h-4.1v2.4h3.5V145.7z"/>
	<path class="st1" d="M490.8,146.2h-1.7v3.3h-1.5V141h3c1,0,1.7,0.2,2.3,0.7c0.5,0.4,0.8,1.1,0.8,1.9c0,0.6-0.1,1-0.4,1.4
		c-0.3,0.4-0.7,0.7-1.2,0.9l1.9,3.6v0.1h-1.6L490.8,146.2z M489.2,145.1h1.5c0.5,0,0.9-0.1,1.2-0.4s0.4-0.6,0.4-1
		c0-0.5-0.1-0.8-0.4-1.1s-0.6-0.4-1.2-0.4h-1.6V145.1z"/>
	<path class="st1" d="M501.7,146.8c-0.1,0.9-0.4,1.6-1,2.1s-1.4,0.8-2.3,0.8c-0.7,0-1.3-0.2-1.8-0.5s-0.9-0.8-1.2-1.4
		s-0.4-1.3-0.4-2.1v-0.8c0-0.8,0.1-1.5,0.4-2.1s0.7-1.1,1.2-1.4s1.1-0.5,1.8-0.5c0.9,0,1.7,0.3,2.3,0.8s0.9,1.2,1,2.2h-1.5
		c-0.1-0.6-0.2-1.1-0.5-1.3s-0.7-0.4-1.3-0.4c-0.6,0-1.1,0.2-1.5,0.7c-0.3,0.5-0.5,1.2-0.5,2.1v0.8c0,0.9,0.2,1.6,0.5,2.1
		c0.3,0.5,0.8,0.7,1.5,0.7c0.6,0,1-0.1,1.3-0.4s0.5-0.7,0.6-1.3H501.7z"/>
	<path class="st1" d="M507.8,147.5h-3.3l-0.7,2h-1.5l3.2-8.5h1.3l3.2,8.5h-1.5L507.8,147.5z M504.9,146.3h2.5l-1.2-3.5L504.9,146.3z
		"/>
	<path class="st1" d="M511,149.5V141h2.5c0.8,0,1.4,0.2,2,0.5s1,0.8,1.4,1.4s0.5,1.3,0.5,2.1v0.4c0,0.8-0.2,1.5-0.5,2.1
		s-0.8,1.1-1.4,1.4s-1.3,0.5-2,0.5H511z M512.5,142.2v6.2h1c0.8,0,1.4-0.2,1.8-0.7s0.6-1.2,0.6-2.1V145c0-0.9-0.2-1.6-0.6-2.1
		s-1-0.7-1.8-0.7H512.5z"/>
	<path class="st1" d="M525.7,145.5c0,0.8-0.1,1.6-0.4,2.2s-0.7,1.1-1.2,1.5s-1.2,0.5-1.9,0.5c-0.7,0-1.3-0.2-1.8-0.5s-1-0.8-1.3-1.4
		s-0.4-1.3-0.4-2.2v-0.5c0-0.8,0.1-1.6,0.4-2.2s0.7-1.1,1.2-1.5s1.2-0.5,1.8-0.5s1.3,0.2,1.8,0.5s1,0.8,1.2,1.4s0.4,1.4,0.4,2.2
		V145.5z M524.2,145c0-0.9-0.2-1.7-0.5-2.2s-0.9-0.8-1.5-0.8c-0.6,0-1.1,0.3-1.5,0.8s-0.5,1.2-0.6,2.1v0.5c0,0.9,0.2,1.7,0.5,2.2
		s0.9,0.8,1.5,0.8c0.7,0,1.2-0.2,1.5-0.8s0.5-1.2,0.5-2.2V145z"/>
</g>
<line class="st2" x1="424.5" y1="124.2" x2="492.7" y2="124.2"/>
<g class="st0">
	<path class="st3" d="M444.8,161.8l2.5,6.5l2.5-6.5h1.9v8.5h-1.5v-2.8l0.1-3.8l-2.5,6.6h-1.1l-2.5-6.6l0.1,3.8v2.8h-1.5v-8.5H444.8z
		"/>
	<path class="st3" d="M456,170.5c-0.9,0-1.6-0.3-2.2-0.9s-0.8-1.3-0.8-2.3v-0.2c0-0.6,0.1-1.2,0.4-1.7s0.6-0.9,1-1.2
		s0.9-0.4,1.5-0.4c0.9,0,1.5,0.3,2,0.8s0.7,1.3,0.7,2.3v0.6h-4.1c0,0.5,0.2,0.9,0.5,1.2s0.7,0.5,1.2,0.5c0.7,0,1.2-0.3,1.6-0.8
		l0.8,0.7c-0.3,0.4-0.6,0.7-1,0.9S456.5,170.5,456,170.5z M455.8,165c-0.4,0-0.7,0.1-0.9,0.4s-0.4,0.7-0.5,1.1h2.7v-0.1
		c0-0.5-0.2-0.8-0.4-1.1S456.2,165,455.8,165z M456.1,161.3h1.6l-1.6,1.8l-1.1,0L456.1,161.3z"/>
	<path class="st3" d="M459.4,167.1c0-1,0.2-1.8,0.7-2.4s1.1-0.9,1.8-0.9c0.7,0,1.2,0.2,1.6,0.7v-3.2h1.4v9h-1.3l-0.1-0.7
		c-0.4,0.5-1,0.8-1.7,0.8c-0.7,0-1.3-0.3-1.8-0.9S459.4,168.1,459.4,167.1z M460.8,167.2c0,0.6,0.1,1.1,0.4,1.5s0.6,0.5,1.1,0.5
		c0.6,0,1-0.3,1.3-0.8v-2.7c-0.3-0.5-0.7-0.8-1.3-0.8c-0.5,0-0.8,0.2-1.1,0.5S460.8,166.5,460.8,167.2z"/>
	<path class="st3" d="M466.4,162.4c0-0.2,0.1-0.4,0.2-0.5s0.3-0.2,0.6-0.2s0.5,0.1,0.6,0.2s0.2,0.3,0.2,0.5c0,0.2-0.1,0.4-0.2,0.5
		s-0.3,0.2-0.6,0.2s-0.5-0.1-0.6-0.2S466.4,162.6,466.4,162.4z M467.9,170.3h-1.4V164h1.4V170.3z"/>
	<path class="st3" d="M473.3,170.3c-0.1-0.1-0.1-0.3-0.2-0.6c-0.5,0.5-1,0.7-1.7,0.7c-0.6,0-1.2-0.2-1.6-0.5s-0.6-0.8-0.6-1.3
		c0-0.7,0.3-1.2,0.8-1.6s1.2-0.5,2.2-0.5h0.9V166c0-0.3-0.1-0.6-0.3-0.8s-0.5-0.3-0.8-0.3c-0.3,0-0.6,0.1-0.8,0.2s-0.3,0.4-0.3,0.6
		h-1.4c0-0.3,0.1-0.7,0.3-1s0.5-0.5,0.9-0.7s0.8-0.3,1.3-0.3c0.7,0,1.3,0.2,1.8,0.6s0.7,0.9,0.7,1.6v2.9c0,0.6,0.1,1,0.2,1.4v0.1
		H473.3z M471.7,169.3c0.3,0,0.5-0.1,0.8-0.2s0.4-0.3,0.6-0.6v-1.2h-0.8c-0.5,0-0.9,0.1-1.2,0.3s-0.4,0.4-0.4,0.8
		c0,0.3,0.1,0.5,0.3,0.7S471.4,169.3,471.7,169.3z"/>
</g>
<g class="st0">
	<path class="st1" d="M410.6,280.2c-0.1,0.9-0.4,1.6-1,2.1s-1.4,0.8-2.3,0.8c-0.7,0-1.3-0.2-1.8-0.5s-0.9-0.8-1.2-1.4
		s-0.4-1.3-0.4-2.1v-0.8c0-0.8,0.1-1.5,0.4-2.1s0.7-1.1,1.2-1.4s1.1-0.5,1.8-0.5c0.9,0,1.7,0.3,2.3,0.8s0.9,1.2,1,2.2h-1.5
		c-0.1-0.6-0.2-1.1-0.5-1.3s-0.7-0.4-1.3-0.4c-0.6,0-1.1,0.2-1.5,0.7c-0.3,0.5-0.5,1.2-0.5,2.1v0.8c0,0.9,0.2,1.6,0.5,2.1
		c0.3,0.5,0.8,0.7,1.5,0.7c0.6,0,1-0.1,1.3-0.4s0.5-0.7,0.6-1.3H410.6z"/>
	<path class="st1" d="M418.7,279c0,0.8-0.1,1.6-0.4,2.2s-0.7,1.1-1.2,1.5s-1.2,0.5-1.9,0.5c-0.7,0-1.3-0.2-1.8-0.5s-1-0.8-1.3-1.4
		s-0.4-1.3-0.4-2.2v-0.5c0-0.8,0.1-1.6,0.4-2.2s0.7-1.1,1.2-1.5s1.2-0.5,1.8-0.5s1.3,0.2,1.8,0.5s1,0.8,1.2,1.4s0.4,1.4,0.4,2.2V279
		z M417.2,278.5c0-0.9-0.2-1.7-0.5-2.2s-0.9-0.8-1.5-0.8c-0.6,0-1.1,0.3-1.5,0.8s-0.5,1.2-0.6,2.1v0.5c0,0.9,0.2,1.7,0.5,2.2
		s0.9,0.8,1.5,0.8c0.7,0,1.2-0.2,1.5-0.8s0.5-1.2,0.5-2.2V278.5z"/>
	<path class="st1" d="M422.1,274.5l2.5,6.5l2.5-6.5h1.9v8.5h-1.5v-2.8l0.1-3.8l-2.5,6.6h-1.1l-2.5-6.6l0.1,3.8v2.8h-1.5v-8.5H422.1z
		"/>
	<path class="st1" d="M435.7,279.2h-3.5v2.6h4.1v1.2h-5.6v-8.5h5.5v1.2h-4.1v2.4h3.5V279.2z"/>
	<path class="st1" d="M440.6,279.7H439v3.3h-1.5v-8.5h3c1,0,1.7,0.2,2.3,0.7c0.5,0.4,0.8,1.1,0.8,1.9c0,0.6-0.1,1-0.4,1.4
		c-0.3,0.4-0.7,0.7-1.2,0.9l1.9,3.6v0.1h-1.6L440.6,279.7z M439,278.5h1.5c0.5,0,0.9-0.1,1.2-0.4s0.4-0.6,0.4-1
		c0-0.5-0.1-0.8-0.4-1.1s-0.6-0.4-1.2-0.4H439V278.5z"/>
	<path class="st1" d="M451.5,280.2c-0.1,0.9-0.4,1.6-1,2.1s-1.4,0.8-2.3,0.8c-0.7,0-1.3-0.2-1.8-0.5s-0.9-0.8-1.2-1.4
		s-0.4-1.3-0.4-2.1v-0.8c0-0.8,0.1-1.5,0.4-2.1s0.7-1.1,1.2-1.4s1.1-0.5,1.8-0.5c0.9,0,1.7,0.3,2.3,0.8s0.9,1.2,1,2.2H450
		c-0.1-0.6-0.2-1.1-0.5-1.3s-0.7-0.4-1.3-0.4c-0.6,0-1.1,0.2-1.5,0.7c-0.3,0.5-0.5,1.2-0.5,2.1v0.8c0,0.9,0.2,1.6,0.5,2.1
		c0.3,0.5,0.8,0.7,1.5,0.7c0.6,0,1-0.1,1.3-0.4s0.5-0.7,0.6-1.3H451.5z"/>
	<path class="st1" d="M454.4,283h-1.5v-8.5h1.5V283z"/>
	<path class="st1" d="M461.1,281h-3.3l-0.7,2h-1.5l3.2-8.5h1.3l3.2,8.5h-1.5L461.1,281z M458.2,279.8h2.5l-1.2-3.5L458.2,279.8z"/>
	<path class="st1" d="M465.8,281.8h3.9v1.2h-5.4v-8.5h1.5V281.8z"/>
	<path class="st1" d="M472.4,283h-1.5v-8.5h1.5V283z"/>
	<path class="st1" d="M475.6,281.8h4.6v1.2h-6.4v-1l4.4-6.4h-4.4v-1.2h6.2v0.9L475.6,281.8z"/>
	<path class="st1" d="M486.3,281h-3.3l-0.7,2h-1.5l3.2-8.5h1.3l3.2,8.5H487L486.3,281z M483.4,279.8h2.5l-1.2-3.5L483.4,279.8z"/>
	<path class="st1" d="M495.9,280.2c-0.1,0.9-0.4,1.6-1,2.1s-1.4,0.8-2.3,0.8c-0.7,0-1.3-0.2-1.8-0.5s-0.9-0.8-1.2-1.4
		s-0.4-1.3-0.4-2.1v-0.8c0-0.8,0.1-1.5,0.4-2.1s0.7-1.1,1.2-1.4s1.1-0.5,1.8-0.5c0.9,0,1.7,0.3,2.3,0.8s0.9,1.2,1,2.2h-1.5
		c-0.1-0.6-0.2-1.1-0.5-1.3s-0.7-0.4-1.3-0.4c-0.6,0-1.1,0.2-1.5,0.7c-0.3,0.5-0.5,1.2-0.5,2.1v0.8c0,0.9,0.2,1.6,0.5,2.1
		c0.3,0.5,0.8,0.7,1.5,0.7c0.6,0,1-0.1,1.3-0.4s0.5-0.7,0.6-1.3H495.9z M493,283l-0.1,0.3c0.6,0.1,0.9,0.4,0.9,1
		c0,0.4-0.2,0.7-0.5,1s-0.8,0.3-1.4,0.3l0-0.8c0.3,0,0.5,0,0.6-0.1s0.2-0.2,0.2-0.4c0-0.2-0.1-0.3-0.2-0.4s-0.4-0.1-0.7-0.1l0.2-0.8
		H493z"/>
	<path class="st1" d="M502,281h-3.3l-0.7,2h-1.5l3.2-8.5h1.3l3.2,8.5h-1.5L502,281z M502.5,272.3c0,0.4-0.1,0.8-0.4,1.1
		s-0.6,0.4-0.9,0.4c-0.2,0-0.3,0-0.4,0s-0.3-0.1-0.5-0.2s-0.3-0.2-0.4-0.2s-0.2,0-0.3,0c-0.1,0-0.3,0.1-0.4,0.2s-0.2,0.3-0.2,0.4
		l-0.9,0c0-0.4,0.1-0.8,0.4-1.1s0.6-0.4,0.9-0.4c0.2,0,0.5,0.1,0.8,0.3s0.6,0.3,0.8,0.3c0.1,0,0.3-0.1,0.4-0.2s0.2-0.3,0.2-0.4
		L502.5,272.3z M499.1,279.8h2.5l-1.2-3.5L499.1,279.8z"/>
	<path class="st1" d="M511.8,279c0,0.8-0.1,1.6-0.4,2.2s-0.7,1.1-1.2,1.5s-1.2,0.5-1.9,0.5c-0.7,0-1.3-0.2-1.8-0.5s-1-0.8-1.3-1.4
		s-0.4-1.3-0.4-2.2v-0.5c0-0.8,0.1-1.6,0.4-2.2s0.7-1.1,1.2-1.5s1.2-0.5,1.8-0.5s1.3,0.2,1.8,0.5s1,0.8,1.2,1.4s0.4,1.4,0.4,2.2V279
		z M510.4,278.5c0-0.9-0.2-1.7-0.5-2.2s-0.9-0.8-1.5-0.8c-0.6,0-1.1,0.3-1.5,0.8s-0.5,1.2-0.6,2.1v0.5c0,0.9,0.2,1.7,0.5,2.2
		s0.9,0.8,1.5,0.8c0.7,0,1.2-0.2,1.5-0.8s0.5-1.2,0.5-2.2V278.5z"/>
</g>
<line class="st2" x1="424.5" y1="257.7" x2="492.7" y2="257.7"/>
<g class="st0">
	<path class="st3" d="M423.3,301c-0.1,0.9-0.4,1.6-1,2.1s-1.4,0.8-2.3,0.8c-0.7,0-1.3-0.2-1.8-0.5s-0.9-0.8-1.2-1.4
		s-0.4-1.3-0.4-2.1v-0.8c0-0.8,0.1-1.5,0.4-2.1s0.7-1.1,1.2-1.4s1.1-0.5,1.8-0.5c0.9,0,1.7,0.3,2.3,0.8s0.9,1.2,1,2.2h-1.5
		c-0.1-0.6-0.2-1.1-0.5-1.3s-0.7-0.4-1.3-0.4c-0.6,0-1.1,0.2-1.5,0.7c-0.3,0.5-0.5,1.2-0.5,2.1v0.8c0,0.9,0.2,1.6,0.5,2.1
		c0.3,0.5,0.8,0.7,1.5,0.7c0.6,0,1-0.1,1.3-0.4s0.5-0.7,0.6-1.3H423.3z"/>
	<path class="st3" d="M424.5,295.8c0-0.2,0.1-0.4,0.2-0.5s0.3-0.2,0.6-0.2s0.5,0.1,0.6,0.2s0.2,0.3,0.2,0.5c0,0.2-0.1,0.4-0.2,0.5
		s-0.3,0.2-0.6,0.2s-0.5-0.1-0.6-0.2S424.5,296,424.5,295.8z M426,303.8h-1.4v-6.3h1.4V303.8z"/>
	<path class="st3" d="M430.9,298.8c-0.2,0-0.4,0-0.6,0c-0.7,0-1.1,0.2-1.3,0.8v4.3h-1.4v-6.3h1.4l0,0.7c0.3-0.6,0.8-0.8,1.4-0.8
		c0.2,0,0.4,0,0.5,0.1L430.9,298.8z"/>
	<path class="st3" d="M434.3,302.8c0.4,0,0.7-0.1,0.9-0.3s0.4-0.5,0.4-0.8h1.3c0,0.4-0.1,0.8-0.4,1.1s-0.5,0.6-0.9,0.8
		s-0.8,0.3-1.3,0.3c-0.9,0-1.6-0.3-2.1-0.9s-0.8-1.4-0.8-2.4v-0.1c0-1,0.3-1.7,0.8-2.3s1.2-0.9,2.1-0.9c0.8,0,1.4,0.2,1.8,0.7
		s0.7,1,0.7,1.7h-1.3c0-0.4-0.1-0.7-0.4-0.9s-0.5-0.4-0.9-0.4c-0.5,0-0.8,0.2-1.1,0.5s-0.4,0.8-0.4,1.5v0.2c0,0.7,0.1,1.2,0.4,1.5
		S433.8,302.8,434.3,302.8z"/>
	<path class="st3" d="M441.8,303.2c-0.4,0.5-1,0.7-1.8,0.7c-0.7,0-1.2-0.2-1.6-0.6s-0.5-1-0.5-1.7v-4.1h1.4v4.1c0,0.8,0.3,1.2,1,1.2
		c0.7,0,1.2-0.2,1.4-0.7v-4.6h1.4v6.3h-1.3L441.8,303.2z"/>
	<path class="st3" d="M444.6,295.8c0-0.2,0.1-0.4,0.2-0.5s0.3-0.2,0.6-0.2s0.5,0.1,0.6,0.2s0.2,0.3,0.2,0.5c0,0.2-0.1,0.4-0.2,0.5
		s-0.3,0.2-0.6,0.2s-0.5-0.1-0.6-0.2S444.6,296,444.6,295.8z M446.1,303.8h-1.4v-6.3h1.4V303.8z"/>
	<path class="st3" d="M449.5,295.9v1.5h1.1v1.1h-1.1v3.5c0,0.2,0,0.4,0.1,0.5s0.3,0.2,0.5,0.2c0.2,0,0.3,0,0.5-0.1v1.1
		c-0.3,0.1-0.6,0.1-0.9,0.1c-1.1,0-1.6-0.6-1.6-1.8v-3.6h-1v-1.1h1v-1.5H449.5z"/>
	<path class="st3" d="M451.2,300.6c0-0.6,0.1-1.2,0.4-1.7s0.6-0.9,1-1.1s1-0.4,1.5-0.4c0.9,0,1.5,0.3,2.1,0.8s0.8,1.3,0.9,2.2l0,0.3
		c0,0.6-0.1,1.2-0.4,1.7s-0.6,0.9-1,1.1s-1,0.4-1.5,0.4c-0.9,0-1.6-0.3-2.1-0.9S451.2,301.6,451.2,300.6L451.2,300.6z M452.7,300.7
		c0,0.7,0.1,1.2,0.4,1.5s0.6,0.6,1.1,0.6s0.9-0.2,1.1-0.6s0.4-0.9,0.4-1.6c0-0.6-0.1-1.1-0.4-1.5s-0.6-0.6-1.1-0.6
		c-0.5,0-0.8,0.2-1.1,0.6S452.7,300,452.7,300.7z"/>
	<path class="st3" d="M461.9,302.1c0-0.3-0.1-0.4-0.3-0.6s-0.6-0.2-1-0.4s-0.9-0.2-1.2-0.4c-0.7-0.3-1.1-0.8-1.1-1.5
		c0-0.5,0.2-1,0.7-1.4s1-0.6,1.8-0.6c0.8,0,1.4,0.2,1.8,0.6s0.7,0.9,0.7,1.5h-1.4c0-0.3-0.1-0.5-0.3-0.7s-0.5-0.3-0.8-0.3
		c-0.3,0-0.6,0.1-0.8,0.2s-0.3,0.3-0.3,0.6c0,0.2,0.1,0.4,0.3,0.5s0.6,0.2,1.1,0.4s1,0.3,1.3,0.4s0.6,0.4,0.7,0.6s0.2,0.5,0.2,0.9
		c0,0.6-0.2,1-0.7,1.4s-1.1,0.5-1.9,0.5c-0.5,0-1-0.1-1.4-0.3s-0.7-0.4-0.9-0.8s-0.3-0.7-0.3-1.1h1.4c0,0.3,0.1,0.6,0.4,0.8
		s0.5,0.3,0.9,0.3c0.4,0,0.7-0.1,0.9-0.2S461.9,302.3,461.9,302.1z"/>
	<path class="st3" d="M470.1,302.8c0.4,0,0.7-0.1,0.9-0.3s0.4-0.5,0.4-0.8h1.3c0,0.4-0.1,0.8-0.4,1.1s-0.5,0.6-0.9,0.8
		s-0.8,0.3-1.3,0.3c-0.9,0-1.6-0.3-2.1-0.9s-0.8-1.4-0.8-2.4v-0.1c0-1,0.3-1.7,0.8-2.3s1.2-0.9,2.1-0.9c0.8,0,1.4,0.2,1.8,0.7
		s0.7,1,0.7,1.7h-1.3c0-0.4-0.1-0.7-0.4-0.9s-0.5-0.4-0.9-0.4c-0.5,0-0.8,0.2-1.1,0.5s-0.4,0.8-0.4,1.5v0.2c0,0.7,0.1,1.2,0.4,1.5
		S469.7,302.8,470.1,302.8z"/>
	<path class="st3" d="M477.6,303.2c-0.4,0.5-1,0.7-1.8,0.7c-0.7,0-1.2-0.2-1.6-0.6s-0.5-1-0.5-1.7v-4.1h1.4v4.1c0,0.8,0.3,1.2,1,1.2
		c0.7,0,1.2-0.2,1.4-0.7v-4.6h1.4v6.3h-1.3L477.6,303.2z"/>
	<path class="st3" d="M483.8,298.8c-0.2,0-0.4,0-0.6,0c-0.7,0-1.1,0.2-1.3,0.8v4.3h-1.4v-6.3h1.4l0,0.7c0.3-0.6,0.8-0.8,1.4-0.8
		c0.2,0,0.4,0,0.5,0.1L483.8,298.8z"/>
	<path class="st3" d="M486.8,295.9v1.5h1.1v1.1h-1.1v3.5c0,0.2,0,0.4,0.1,0.5s0.3,0.2,0.5,0.2c0.2,0,0.3,0,0.5-0.1v1.1
		c-0.3,0.1-0.6,0.1-0.9,0.1c-1.1,0-1.6-0.6-1.6-1.8v-3.6h-1v-1.1h1v-1.5H486.8z"/>
	<path class="st3" d="M488.5,300.6c0-0.6,0.1-1.2,0.4-1.7s0.6-0.9,1-1.1s1-0.4,1.5-0.4c0.9,0,1.5,0.3,2.1,0.8s0.8,1.3,0.9,2.2l0,0.3
		c0,0.6-0.1,1.2-0.4,1.7s-0.6,0.9-1,1.1s-1,0.4-1.5,0.4c-0.9,0-1.6-0.3-2.1-0.9S488.5,301.6,488.5,300.6L488.5,300.6z M490,300.7
		c0,0.7,0.1,1.2,0.4,1.5s0.6,0.6,1.1,0.6s0.9-0.2,1.1-0.6s0.4-0.9,0.4-1.6c0-0.6-0.1-1.1-0.4-1.5s-0.6-0.6-1.1-0.6
		c-0.5,0-0.8,0.2-1.1,0.6S490,300,490,300.7z"/>
	<path class="st3" d="M499.2,302.1c0-0.3-0.1-0.4-0.3-0.6s-0.6-0.2-1-0.4s-0.9-0.2-1.2-0.4c-0.7-0.3-1.1-0.8-1.1-1.5
		c0-0.5,0.2-1,0.7-1.4s1-0.6,1.8-0.6c0.8,0,1.4,0.2,1.8,0.6s0.7,0.9,0.7,1.5h-1.4c0-0.3-0.1-0.5-0.3-0.7s-0.5-0.3-0.8-0.3
		c-0.3,0-0.6,0.1-0.8,0.2s-0.3,0.3-0.3,0.6c0,0.2,0.1,0.4,0.3,0.5s0.6,0.2,1.1,0.4s1,0.3,1.3,0.4s0.6,0.4,0.7,0.6s0.2,0.5,0.2,0.9
		c0,0.6-0.2,1-0.7,1.4s-1.1,0.5-1.9,0.5c-0.5,0-1-0.1-1.4-0.3s-0.7-0.4-0.9-0.8s-0.3-0.7-0.3-1.1h1.4c0,0.3,0.1,0.6,0.4,0.8
		s0.5,0.3,0.9,0.3c0.4,0,0.7-0.1,0.9-0.2S499.2,302.3,499.2,302.1z"/>
</g>
<g class="st0">
	<path class="st1" d="M441.6,412.7h-3.5v2.6h4.1v1.2h-5.6v-8.5h5.5v1.2h-4.1v2.4h3.5V412.7z"/>
	<path class="st1" d="M447.8,414.3c0-0.4-0.1-0.7-0.4-0.9s-0.7-0.4-1.4-0.6s-1.2-0.4-1.6-0.7c-0.8-0.5-1.2-1.1-1.2-1.9
		c0-0.7,0.3-1.3,0.8-1.7s1.3-0.7,2.2-0.7c0.6,0,1.1,0.1,1.6,0.3s0.8,0.5,1.1,0.9s0.4,0.9,0.4,1.3h-1.5c0-0.4-0.1-0.8-0.4-1
		s-0.7-0.4-1.2-0.4c-0.5,0-0.9,0.1-1.1,0.3s-0.4,0.5-0.4,0.9c0,0.3,0.1,0.6,0.4,0.8s0.8,0.4,1.4,0.6s1.2,0.4,1.6,0.7
		s0.7,0.5,0.9,0.9s0.3,0.7,0.3,1.1c0,0.7-0.3,1.3-0.8,1.7s-1.3,0.6-2.2,0.6c-0.6,0-1.2-0.1-1.7-0.3s-0.9-0.5-1.2-0.9
		s-0.4-0.9-0.4-1.4h1.5c0,0.5,0.2,0.9,0.5,1.1s0.8,0.4,1.4,0.4c0.5,0,0.9-0.1,1.2-0.3S447.8,414.6,447.8,414.3z"/>
	<path class="st1" d="M457.1,413.7c-0.1,0.9-0.4,1.6-1,2.1s-1.4,0.8-2.3,0.8c-0.7,0-1.3-0.2-1.8-0.5s-0.9-0.8-1.2-1.4
		s-0.4-1.3-0.4-2.1v-0.8c0-0.8,0.1-1.5,0.4-2.1s0.7-1.1,1.2-1.4s1.1-0.5,1.8-0.5c0.9,0,1.7,0.3,2.3,0.8s0.9,1.2,1,2.2h-1.5
		c-0.1-0.6-0.2-1.1-0.5-1.3s-0.7-0.4-1.3-0.4c-0.6,0-1.1,0.2-1.5,0.7c-0.3,0.5-0.5,1.2-0.5,2.1v0.8c0,0.9,0.2,1.6,0.5,2.1
		c0.3,0.5,0.8,0.7,1.5,0.7c0.6,0,1-0.1,1.3-0.4s0.5-0.7,0.6-1.3H457.1z"/>
	<path class="st1" d="M463.2,414.5h-3.3l-0.7,2h-1.5l3.2-8.5h1.3l3.2,8.5h-1.5L463.2,414.5z M460.3,413.3h2.5l-1.2-3.5L460.3,413.3z
		"/>
	<path class="st1" d="M467.9,415.3h3.9v1.2h-5.4v-8.5h1.5V415.3z"/>
	<path class="st1" d="M477.8,414.5h-3.3l-0.7,2h-1.5l3.2-8.5h1.3l3.2,8.5h-1.5L477.8,414.5z M474.9,413.3h2.5l-1.2-3.5L474.9,413.3z
		"/>
</g>
<line class="st2" x1="424.5" y1="391.2" x2="492.7" y2="391.2"/>
<g class="st0">
	<path class="st3" d="M428.8,436.1h3.9v1.2h-5.4v-8.5h1.5V436.1z"/>
	<path class="st3" d="M433.4,434.1c0-0.6,0.1-1.2,0.4-1.7s0.6-0.9,1-1.1s1-0.4,1.5-0.4c0.9,0,1.5,0.3,2.1,0.8s0.8,1.3,0.9,2.2l0,0.3
		c0,0.6-0.1,1.2-0.4,1.7s-0.6,0.9-1,1.1s-1,0.4-1.5,0.4c-0.9,0-1.6-0.3-2.1-0.9S433.4,435.1,433.4,434.1L433.4,434.1z M434.8,434.2
		c0,0.7,0.1,1.2,0.4,1.5s0.6,0.6,1.1,0.6s0.9-0.2,1.1-0.6s0.4-0.9,0.4-1.6c0-0.6-0.1-1.1-0.4-1.5s-0.6-0.6-1.1-0.6
		c-0.5,0-0.8,0.2-1.1,0.6S434.8,433.5,434.8,434.2z"/>
	<path class="st3" d="M442.2,429.4v1.5h1.1v1.1h-1.1v3.5c0,0.2,0,0.4,0.1,0.5s0.3,0.2,0.5,0.2c0.2,0,0.3,0,0.5-0.1v1.1
		c-0.3,0.1-0.6,0.1-0.9,0.1c-1.1,0-1.6-0.6-1.6-1.8V432h-1V431h1v-1.5H442.2z"/>
	<path class="st3" d="M447.2,437.4c-0.9,0-1.6-0.3-2.2-0.9s-0.8-1.3-0.8-2.3v-0.2c0-0.6,0.1-1.2,0.4-1.7s0.6-0.9,1-1.2
		s0.9-0.4,1.5-0.4c0.9,0,1.5,0.3,2,0.8s0.7,1.3,0.7,2.3v0.6h-4.1c0,0.5,0.2,0.9,0.5,1.2s0.7,0.5,1.2,0.5c0.7,0,1.2-0.3,1.6-0.8
		l0.8,0.7c-0.3,0.4-0.6,0.7-1,0.9S447.8,437.4,447.2,437.4z M447.1,432c-0.4,0-0.7,0.1-0.9,0.4s-0.4,0.7-0.5,1.1h2.7v-0.1
		c0-0.5-0.2-0.8-0.4-1.1S447.5,432,447.1,432z"/>
	<path class="st3" d="M457.7,436.7c-0.4,0.5-1,0.7-1.8,0.7c-0.7,0-1.2-0.2-1.6-0.6s-0.5-1-0.5-1.7V431h1.4v4.1c0,0.8,0.3,1.2,1,1.2
		c0.7,0,1.2-0.2,1.4-0.7V431h1.4v6.3h-1.3L457.7,436.7z"/>
	<path class="st3" d="M463.9,432.3c-0.2,0-0.4,0-0.6,0c-0.7,0-1.1,0.2-1.3,0.8v4.3h-1.4V431h1.4l0,0.7c0.3-0.6,0.8-0.8,1.4-0.8
		c0.2,0,0.4,0,0.5,0.1L463.9,432.3z"/>
	<path class="st3" d="M470.3,434.2c0,1-0.2,1.8-0.7,2.3s-1,0.9-1.8,0.9c-0.7,0-1.3-0.3-1.7-0.8l-0.1,0.7h-1.3v-9h1.4v3.3
		c0.4-0.5,1-0.7,1.7-0.7c0.8,0,1.4,0.3,1.8,0.9S470.3,433.1,470.3,434.2L470.3,434.2z M468.9,434.1c0-0.7-0.1-1.2-0.4-1.5
		s-0.6-0.5-1.1-0.5c-0.6,0-1.1,0.3-1.3,0.8v2.6c0.3,0.6,0.7,0.8,1.3,0.8c0.4,0,0.8-0.2,1-0.5s0.4-0.8,0.4-1.5V434.1z"/>
	<path class="st3" d="M475.3,437.3c-0.1-0.1-0.1-0.3-0.2-0.6c-0.5,0.5-1,0.7-1.7,0.7c-0.6,0-1.2-0.2-1.6-0.5s-0.6-0.8-0.6-1.3
		c0-0.7,0.3-1.2,0.8-1.6s1.2-0.5,2.2-0.5h0.9V433c0-0.3-0.1-0.6-0.3-0.8s-0.5-0.3-0.8-0.3c-0.3,0-0.6,0.1-0.8,0.2s-0.3,0.4-0.3,0.6
		h-1.4c0-0.3,0.1-0.7,0.3-1s0.5-0.5,0.9-0.7s0.8-0.3,1.3-0.3c0.7,0,1.3,0.2,1.8,0.6s0.7,0.9,0.7,1.6v2.9c0,0.6,0.1,1,0.2,1.4v0.1
		H475.3z M473.8,436.3c0.3,0,0.5-0.1,0.8-0.2s0.4-0.3,0.6-0.6v-1.2h-0.8c-0.5,0-0.9,0.1-1.2,0.3s-0.4,0.4-0.4,0.8
		c0,0.3,0.1,0.5,0.3,0.7S473.4,436.3,473.8,436.3z"/>
	<path class="st3" d="M479.3,431l0,0.7c0.5-0.6,1.1-0.8,1.8-0.8c1.3,0,2,0.8,2,2.3v4.2h-1.4v-4.1c0-0.4-0.1-0.7-0.3-0.9
		s-0.5-0.3-0.9-0.3c-0.6,0-1,0.3-1.3,0.8v4.5H478V431H479.3z"/>
	<path class="st3" d="M484.4,434.1c0-0.6,0.1-1.2,0.4-1.7s0.6-0.9,1-1.1s1-0.4,1.5-0.4c0.9,0,1.5,0.3,2.1,0.8s0.8,1.3,0.9,2.2l0,0.3
		c0,0.6-0.1,1.2-0.4,1.7s-0.6,0.9-1,1.1s-1,0.4-1.5,0.4c-0.9,0-1.6-0.3-2.1-0.9S484.4,435.1,484.4,434.1L484.4,434.1z M485.8,434.2
		c0,0.7,0.1,1.2,0.4,1.5s0.6,0.6,1.1,0.6s0.9-0.2,1.1-0.6s0.4-0.9,0.4-1.6c0-0.6-0.1-1.1-0.4-1.5s-0.6-0.6-1.1-0.6
		c-0.5,0-0.8,0.2-1.1,0.6S485.8,433.5,485.8,434.2z"/>
</g>
<g class="st0">
	<path class="st1" d="M389.6,541.4l2.5,6.5l2.5-6.5h1.9v8.5H395v-2.8l0.1-3.8l-2.5,6.6h-1.1l-2.5-6.6l0.1,3.8v2.8h-1.5v-8.5H389.6z"
		/>
	<path class="st1" d="M403.1,548h-3.3l-0.7,2h-1.5l3.2-8.5h1.3l3.2,8.5h-1.5L403.1,548z M403.6,539.3c0,0.4-0.1,0.8-0.4,1.1
		s-0.6,0.4-0.9,0.4c-0.2,0-0.3,0-0.4,0s-0.3-0.1-0.5-0.2s-0.3-0.2-0.4-0.2s-0.2,0-0.3,0c-0.1,0-0.3,0.1-0.4,0.2s-0.2,0.3-0.2,0.4
		l-0.9,0c0-0.4,0.1-0.8,0.4-1.1s0.6-0.4,0.9-0.4c0.2,0,0.5,0.1,0.8,0.3s0.6,0.3,0.8,0.3c0.1,0,0.3-0.1,0.4-0.2s0.2-0.3,0.2-0.4
		L403.6,539.3z M400.2,546.8h2.5l-1.2-3.5L400.2,546.8z"/>
	<path class="st1" d="M413,545.9c0,0.8-0.1,1.6-0.4,2.2s-0.7,1.1-1.2,1.5s-1.2,0.5-1.9,0.5c-0.7,0-1.3-0.2-1.8-0.5s-1-0.8-1.3-1.4
		s-0.4-1.3-0.4-2.2v-0.5c0-0.8,0.1-1.6,0.4-2.2s0.7-1.1,1.2-1.5s1.2-0.5,1.8-0.5s1.3,0.2,1.8,0.5s1,0.8,1.2,1.4s0.4,1.4,0.4,2.2
		V545.9z M411.5,545.5c0-0.9-0.2-1.7-0.5-2.2s-0.9-0.8-1.5-0.8c-0.6,0-1.1,0.3-1.5,0.8s-0.5,1.2-0.6,2.1v0.5c0,0.9,0.2,1.7,0.5,2.2
		s0.9,0.8,1.5,0.8c0.7,0,1.2-0.2,1.5-0.8s0.5-1.2,0.5-2.2V545.5z"/>
	<path class="st1" d="M417.4,550v-8.5h2.5c0.8,0,1.4,0.2,2,0.5s1,0.8,1.4,1.4s0.5,1.3,0.5,2.1v0.4c0,0.8-0.2,1.5-0.5,2.1
		s-0.8,1.1-1.4,1.4s-1.3,0.5-2,0.5H417.4z M418.9,542.6v6.2h1c0.8,0,1.4-0.2,1.8-0.7s0.6-1.2,0.6-2.1v-0.5c0-0.9-0.2-1.6-0.6-2.1
		s-1-0.7-1.8-0.7H418.9z"/>
	<path class="st1" d="M430.2,546.1h-3.5v2.6h4.1v1.2h-5.6v-8.5h5.5v1.2h-4.1v2.4h3.5V546.1z"/>
	<path class="st1" d="M441.8,545.9c0,0.8-0.1,1.6-0.4,2.2s-0.7,1.1-1.2,1.5s-1.2,0.5-1.9,0.5c-0.7,0-1.3-0.2-1.8-0.5s-1-0.8-1.3-1.4
		s-0.4-1.3-0.4-2.2v-0.5c0-0.8,0.1-1.6,0.4-2.2s0.7-1.1,1.2-1.5s1.2-0.5,1.8-0.5s1.3,0.2,1.8,0.5s1,0.8,1.2,1.4s0.4,1.4,0.4,2.2
		V545.9z M440.4,545.5c0-0.9-0.2-1.7-0.5-2.2s-0.9-0.8-1.5-0.8c-0.6,0-1.1,0.3-1.5,0.8s-0.5,1.2-0.6,2.1v0.5c0,0.9,0.2,1.7,0.5,2.2
		s0.9,0.8,1.5,0.8c0.7,0,1.2-0.2,1.5-0.8s0.5-1.2,0.5-2.2V545.5z"/>
	<path class="st1" d="M443.3,550v-8.5h2.9c1,0,1.7,0.2,2.2,0.6s0.8,1,0.8,1.7c0,0.4-0.1,0.7-0.3,1.1s-0.5,0.6-0.9,0.7
		c0.5,0.1,0.8,0.4,1.1,0.7s0.4,0.8,0.4,1.2c0,0.8-0.3,1.4-0.8,1.8s-1.2,0.6-2.2,0.6H443.3z M444.8,545h1.5c0.5,0,0.8-0.1,1.1-0.3
		s0.4-0.5,0.4-0.9c0-0.4-0.1-0.7-0.4-0.9s-0.6-0.3-1.1-0.3h-1.4V545z M444.8,546.1v2.7h1.6c0.5,0,0.8-0.1,1.1-0.3s0.4-0.6,0.4-1
		c0-0.9-0.5-1.3-1.4-1.4H444.8z"/>
	<path class="st1" d="M454,546.7h-1.7v3.3h-1.5v-8.5h3c1,0,1.7,0.2,2.3,0.7c0.5,0.4,0.8,1.1,0.8,1.9c0,0.6-0.1,1-0.4,1.4
		c-0.3,0.4-0.7,0.7-1.2,0.9l1.9,3.6v0.1h-1.6L454,546.7z M452.4,545.5h1.5c0.5,0,0.9-0.1,1.2-0.4s0.4-0.6,0.4-1
		c0-0.5-0.1-0.8-0.4-1.1s-0.6-0.4-1.2-0.4h-1.6V545.5z"/>
	<path class="st1" d="M463.2,548h-3.3l-0.7,2h-1.5l3.2-8.5h1.3l3.2,8.5h-1.5L463.2,548z M460.3,546.8h2.5l-1.2-3.5L460.3,546.8z"/>
	<path class="st1" d="M470.8,546.8v3.2h-1.5v-8.5h3.3c1,0,1.7,0.2,2.3,0.7c0.6,0.5,0.8,1.2,0.8,2c0,0.8-0.3,1.5-0.8,2
		c-0.5,0.5-1.3,0.7-2.3,0.7H470.8z M470.8,545.6h1.8c0.5,0,0.9-0.1,1.2-0.4s0.4-0.6,0.4-1.1c0-0.5-0.1-0.8-0.4-1.1s-0.7-0.4-1.2-0.4
		h-1.8V545.6z"/>
	<path class="st1" d="M480.2,546.7h-1.7v3.3H477v-8.5h3c1,0,1.7,0.2,2.3,0.7c0.5,0.4,0.8,1.1,0.8,1.9c0,0.6-0.1,1-0.4,1.4
		c-0.3,0.4-0.7,0.7-1.2,0.9l1.9,3.6v0.1h-1.6L480.2,546.7z M478.5,545.5h1.5c0.5,0,0.9-0.1,1.2-0.4s0.4-0.6,0.4-1
		c0-0.5-0.1-0.8-0.4-1.1s-0.6-0.4-1.2-0.4h-1.6V545.5z"/>
	<path class="st1" d="M486.1,550h-1.5v-8.5h1.5V550z"/>
	<path class="st1" d="M494.7,550h-1.5l-3.8-6.1v6.1h-1.5v-8.5h1.5l3.8,6.1v-6.1h1.5V550z"/>
	<path class="st1" d="M502.9,547.2c-0.1,0.9-0.4,1.6-1,2.1s-1.4,0.8-2.3,0.8c-0.7,0-1.3-0.2-1.8-0.5s-0.9-0.8-1.2-1.4
		s-0.4-1.3-0.4-2.1v-0.8c0-0.8,0.1-1.5,0.4-2.1s0.7-1.1,1.2-1.4s1.1-0.5,1.8-0.5c0.9,0,1.7,0.3,2.3,0.8s0.9,1.2,1,2.2h-1.5
		c-0.1-0.6-0.2-1.1-0.5-1.3s-0.7-0.4-1.3-0.4c-0.6,0-1.1,0.2-1.5,0.7c-0.3,0.5-0.5,1.2-0.5,2.1v0.8c0,0.9,0.2,1.6,0.5,2.1
		c0.3,0.5,0.8,0.7,1.5,0.7c0.6,0,1-0.1,1.3-0.4s0.5-0.7,0.6-1.3H502.9z"/>
	<path class="st1" d="M505.8,550h-1.5v-8.5h1.5V550z"/>
	<path class="st1" d="M509.1,546.8v3.2h-1.5v-8.5h3.3c1,0,1.7,0.2,2.3,0.7c0.6,0.5,0.8,1.2,0.8,2c0,0.8-0.3,1.5-0.8,2
		c-0.5,0.5-1.3,0.7-2.3,0.7H509.1z M509.1,545.6h1.8c0.5,0,0.9-0.1,1.2-0.4s0.4-0.6,0.4-1.1c0-0.5-0.1-0.8-0.4-1.1s-0.7-0.4-1.2-0.4
		h-1.8V545.6z"/>
	<path class="st1" d="M519,548h-3.3l-0.7,2h-1.5l3.2-8.5h1.3l3.2,8.5h-1.5L519,548z M516.2,546.8h2.5l-1.2-3.5L516.2,546.8z"/>
	<path class="st1" d="M523.7,548.8h3.9v1.2h-5.4v-8.5h1.5V548.8z"/>
</g>
<line class="st2" x1="424.5" y1="524.6" x2="492.7" y2="524.6"/>
<g class="st0">
	<path class="st3" d="M406.7,567.2h-3.4v3.6h-1.5v-8.5h5.4v1.2h-3.9v2.5h3.4V567.2z"/>
	<path class="st3" d="M411.8,570.8c-0.1-0.1-0.1-0.3-0.2-0.6c-0.5,0.5-1,0.7-1.7,0.7c-0.6,0-1.2-0.2-1.6-0.5s-0.6-0.8-0.6-1.3
		c0-0.7,0.3-1.2,0.8-1.6s1.2-0.5,2.2-0.5h0.9v-0.4c0-0.3-0.1-0.6-0.3-0.8s-0.5-0.3-0.8-0.3c-0.3,0-0.6,0.1-0.8,0.2s-0.3,0.4-0.3,0.6
		h-1.4c0-0.3,0.1-0.7,0.3-1s0.5-0.5,0.9-0.7s0.8-0.3,1.3-0.3c0.7,0,1.3,0.2,1.8,0.6s0.7,0.9,0.7,1.6v2.9c0,0.6,0.1,1,0.2,1.4v0.1
		H411.8z M410.2,569.7c0.3,0,0.5-0.1,0.8-0.2s0.4-0.3,0.6-0.6v-1.2h-0.8c-0.5,0-0.9,0.1-1.2,0.3s-0.4,0.4-0.4,0.8
		c0,0.3,0.1,0.5,0.3,0.7S409.9,569.7,410.2,569.7z"/>
	<path class="st3" d="M415.8,564.4l0,0.7c0.4-0.5,1.1-0.8,1.8-0.8c0.8,0,1.4,0.3,1.7,1c0.5-0.6,1.1-1,1.9-1c0.7,0,1.2,0.2,1.6,0.6
		s0.5,1,0.5,1.7v4.2h-1.4v-4.1c0-0.4-0.1-0.7-0.3-0.9s-0.5-0.3-0.9-0.3c-0.3,0-0.6,0.1-0.8,0.3s-0.3,0.4-0.4,0.7l0,4.3h-1.4v-4.2
		c0-0.7-0.4-1.1-1.1-1.1c-0.6,0-1,0.2-1.2,0.7v4.6h-1.4v-6.3H415.8z"/>
	<path class="st3" d="M424.9,562.8c0-0.2,0.1-0.4,0.2-0.5s0.3-0.2,0.6-0.2s0.5,0.1,0.6,0.2s0.2,0.3,0.2,0.5c0,0.2-0.1,0.4-0.2,0.5
		s-0.3,0.2-0.6,0.2s-0.5-0.1-0.6-0.2S424.9,563,424.9,562.8z M426.5,570.8H425v-6.3h1.4V570.8z"/>
	<path class="st3" d="M429.5,570.8h-1.4v-9h1.4V570.8z"/>
	<path class="st3" d="M431.1,562.8c0-0.2,0.1-0.4,0.2-0.5s0.3-0.2,0.6-0.2s0.5,0.1,0.6,0.2s0.2,0.3,0.2,0.5c0,0.2-0.1,0.4-0.2,0.5
		s-0.3,0.2-0.6,0.2s-0.5-0.1-0.6-0.2S431.1,563,431.1,562.8z M432.6,570.8h-1.4v-6.3h1.4V570.8z"/>
	<path class="st3" d="M437.9,570.8c-0.1-0.1-0.1-0.3-0.2-0.6c-0.5,0.5-1,0.7-1.7,0.7c-0.6,0-1.2-0.2-1.6-0.5s-0.6-0.8-0.6-1.3
		c0-0.7,0.3-1.2,0.8-1.6s1.2-0.5,2.2-0.5h0.9v-0.4c0-0.3-0.1-0.6-0.3-0.8s-0.5-0.3-0.8-0.3c-0.3,0-0.6,0.1-0.8,0.2s-0.3,0.4-0.3,0.6
		h-1.4c0-0.3,0.1-0.7,0.3-1s0.5-0.5,0.9-0.7s0.8-0.3,1.3-0.3c0.7,0,1.3,0.2,1.8,0.6s0.7,0.9,0.7,1.6v2.9c0,0.6,0.1,1,0.2,1.4v0.1
		H437.9z M436.4,569.7c0.3,0,0.5-0.1,0.8-0.2s0.4-0.3,0.6-0.6v-1.2h-0.8c-0.5,0-0.9,0.1-1.2,0.3s-0.4,0.4-0.4,0.8
		c0,0.3,0.1,0.5,0.3,0.7S436.1,569.7,436.4,569.7z"/>
	<path class="st3" d="M443.9,565.7c-0.2,0-0.4,0-0.6,0c-0.7,0-1.1,0.2-1.3,0.8v4.3h-1.4v-6.3h1.4l0,0.7c0.3-0.6,0.8-0.8,1.4-0.8
		c0.2,0,0.4,0,0.5,0.1L443.9,565.7z"/>
	<path class="st3" d="M451.5,567l-3.6-1.3v-1.4l5.1,2.2v1.1l-5.1,2.2v-1.4L451.5,567z"/>
	<path class="st3" d="M463.7,568c-0.1,0.9-0.4,1.6-1,2.1s-1.4,0.8-2.3,0.8c-0.7,0-1.3-0.2-1.8-0.5s-0.9-0.8-1.2-1.4
		s-0.4-1.3-0.4-2.1v-0.8c0-0.8,0.1-1.5,0.4-2.1s0.7-1.1,1.2-1.4s1.1-0.5,1.8-0.5c0.9,0,1.7,0.3,2.3,0.8s0.9,1.2,1,2.2h-1.5
		c-0.1-0.6-0.2-1.1-0.5-1.3s-0.7-0.4-1.3-0.4c-0.6,0-1.1,0.2-1.5,0.7c-0.3,0.5-0.5,1.2-0.5,2.1v0.8c0,0.9,0.2,1.6,0.5,2.1
		c0.3,0.5,0.8,0.7,1.5,0.7c0.6,0,1-0.1,1.3-0.4s0.5-0.7,0.6-1.3H463.7z"/>
	<path class="st3" d="M464.6,567.5c0-0.6,0.1-1.2,0.4-1.7s0.6-0.9,1-1.1s1-0.4,1.5-0.4c0.9,0,1.5,0.3,2.1,0.8s0.8,1.3,0.9,2.2l0,0.3
		c0,0.6-0.1,1.2-0.4,1.7s-0.6,0.9-1,1.1s-1,0.4-1.5,0.4c-0.9,0-1.6-0.3-2.1-0.9S464.6,568.6,464.6,567.5L464.6,567.5z M466.1,567.7
		c0,0.7,0.1,1.2,0.4,1.5s0.6,0.6,1.1,0.6s0.9-0.2,1.1-0.6s0.4-0.9,0.4-1.6c0-0.6-0.1-1.1-0.4-1.5s-0.6-0.6-1.1-0.6
		c-0.5,0-0.8,0.2-1.1,0.6S466.1,566.9,466.1,567.7z"/>
	<path class="st3" d="M473.1,564.4l0,0.7c0.5-0.6,1.1-0.8,1.8-0.8c1.3,0,2,0.8,2,2.3v4.2h-1.4v-4.1c0-0.4-0.1-0.7-0.3-0.9
		s-0.5-0.3-0.9-0.3c-0.6,0-1,0.3-1.3,0.8v4.5h-1.4v-6.3H473.1z"/>
	<path class="st3" d="M480.2,562.9v1.5h1.1v1.1h-1.1v3.5c0,0.2,0,0.4,0.1,0.5s0.3,0.2,0.5,0.2c0.2,0,0.3,0,0.5-0.1v1.1
		c-0.3,0.1-0.6,0.1-0.9,0.1c-1.1,0-1.6-0.6-1.6-1.8v-3.6h-1v-1.1h1v-1.5H480.2z"/>
	<path class="st3" d="M485.7,565.7c-0.2,0-0.4,0-0.6,0c-0.7,0-1.1,0.2-1.3,0.8v4.3h-1.4v-6.3h1.4l0,0.7c0.3-0.6,0.8-0.8,1.4-0.8
		c0.2,0,0.4,0,0.5,0.1L485.7,565.7z"/>
	<path class="st3" d="M490.2,570.8c-0.1-0.1-0.1-0.3-0.2-0.6c-0.5,0.5-1,0.7-1.7,0.7c-0.6,0-1.2-0.2-1.6-0.5s-0.6-0.8-0.6-1.3
		c0-0.7,0.3-1.2,0.8-1.6s1.2-0.5,2.2-0.5h0.9v-0.4c0-0.3-0.1-0.6-0.3-0.8s-0.5-0.3-0.8-0.3c-0.3,0-0.6,0.1-0.8,0.2s-0.3,0.4-0.3,0.6
		h-1.4c0-0.3,0.1-0.7,0.3-1s0.5-0.5,0.9-0.7s0.8-0.3,1.3-0.3c0.7,0,1.3,0.2,1.8,0.6s0.7,0.9,0.7,1.6v2.9c0,0.6,0.1,1,0.2,1.4v0.1
		H490.2z M488.7,569.7c0.3,0,0.5-0.1,0.8-0.2s0.4-0.3,0.6-0.6v-1.2h-0.8c-0.5,0-0.9,0.1-1.2,0.3s-0.4,0.4-0.4,0.8
		c0,0.3,0.1,0.5,0.3,0.7S488.4,569.7,488.7,569.7z"/>
	<path class="st3" d="M494.7,562.9v1.5h1.1v1.1h-1.1v3.5c0,0.2,0,0.4,0.1,0.5s0.3,0.2,0.5,0.2c0.2,0,0.3,0,0.5-0.1v1.1
		c-0.3,0.1-0.6,0.1-0.9,0.1c-1.1,0-1.6-0.6-1.6-1.8v-3.6h-1v-1.1h1v-1.5H494.7z"/>
	<path class="st3" d="M500.7,570.8c-0.1-0.1-0.1-0.3-0.2-0.6c-0.5,0.5-1,0.7-1.7,0.7c-0.6,0-1.2-0.2-1.6-0.5s-0.6-0.8-0.6-1.3
		c0-0.7,0.3-1.2,0.8-1.6s1.2-0.5,2.2-0.5h0.9v-0.4c0-0.3-0.1-0.6-0.3-0.8s-0.5-0.3-0.8-0.3c-0.3,0-0.6,0.1-0.8,0.2s-0.3,0.4-0.3,0.6
		h-1.4c0-0.3,0.1-0.7,0.3-1s0.5-0.5,0.9-0.7s0.8-0.3,1.3-0.3c0.7,0,1.3,0.2,1.8,0.6s0.7,0.9,0.7,1.6v2.9c0,0.6,0.1,1,0.2,1.4v0.1
		H500.7z M499.1,569.7c0.3,0,0.5-0.1,0.8-0.2s0.4-0.3,0.6-0.6v-1.2h-0.8c-0.5,0-0.9,0.1-1.2,0.3s-0.4,0.4-0.4,0.8
		c0,0.3,0.1,0.5,0.3,0.7S498.8,569.7,499.1,569.7z"/>
	<path class="st3" d="M503.1,567.5c0-1,0.2-1.8,0.7-2.4s1.1-0.9,1.8-0.9c0.7,0,1.2,0.2,1.6,0.7v-3.2h1.4v9h-1.3l-0.1-0.7
		c-0.4,0.5-1,0.8-1.7,0.8c-0.7,0-1.3-0.3-1.8-0.9S503.1,568.6,503.1,567.5z M504.6,567.7c0,0.6,0.1,1.1,0.4,1.5s0.6,0.5,1.1,0.5
		c0.6,0,1-0.3,1.3-0.8v-2.7c-0.3-0.5-0.7-0.8-1.3-0.8c-0.5,0-0.8,0.2-1.1,0.5S504.6,566.9,504.6,567.7z"/>
	<path class="st3" d="M514,570.8c-0.1-0.1-0.1-0.3-0.2-0.6c-0.5,0.5-1,0.7-1.7,0.7c-0.6,0-1.2-0.2-1.6-0.5s-0.6-0.8-0.6-1.3
		c0-0.7,0.3-1.2,0.8-1.6s1.2-0.5,2.2-0.5h0.9v-0.4c0-0.3-0.1-0.6-0.3-0.8s-0.5-0.3-0.8-0.3c-0.3,0-0.6,0.1-0.8,0.2s-0.3,0.4-0.3,0.6
		h-1.4c0-0.3,0.1-0.7,0.3-1s0.5-0.5,0.9-0.7s0.8-0.3,1.3-0.3c0.7,0,1.3,0.2,1.8,0.6s0.7,0.9,0.7,1.6v2.9c0,0.6,0.1,1,0.2,1.4v0.1
		H514z M512.4,569.7c0.3,0,0.5-0.1,0.8-0.2s0.4-0.3,0.6-0.6v-1.2H513c-0.5,0-0.9,0.1-1.2,0.3s-0.4,0.4-0.4,0.8
		c0,0.3,0.1,0.5,0.3,0.7S512.1,569.7,512.4,569.7z"/>
</g>
<g class="st0">
	<path class="st3" d="M96.1,586.8c0-1,0.2-1.8,0.7-2.4s1.1-0.9,1.8-0.9c0.7,0,1.2,0.2,1.6,0.7V581h1.4v9h-1.3l-0.1-0.7
		c-0.4,0.5-1,0.8-1.7,0.8c-0.7,0-1.3-0.3-1.8-0.9S96.1,587.8,96.1,586.8z M97.5,586.9c0,0.6,0.1,1.1,0.4,1.5s0.6,0.5,1.1,0.5
		c0.6,0,1-0.3,1.3-0.8v-2.7c-0.3-0.5-0.7-0.8-1.3-0.8c-0.5,0-0.8,0.2-1.1,0.5S97.5,586.2,97.5,586.9z"/>
	<path class="st3" d="M105.9,590.1c-0.9,0-1.6-0.3-2.2-0.9s-0.8-1.3-0.8-2.3v-0.2c0-0.6,0.1-1.2,0.4-1.7s0.6-0.9,1-1.2
		s0.9-0.4,1.5-0.4c0.9,0,1.5,0.3,2,0.8s0.7,1.3,0.7,2.3v0.6h-4.1c0,0.5,0.2,0.9,0.5,1.2s0.7,0.5,1.2,0.5c0.7,0,1.2-0.3,1.6-0.8
		l0.8,0.7c-0.3,0.4-0.6,0.7-1,0.9S106.5,590.1,105.9,590.1z M105.8,584.7c-0.4,0-0.7,0.1-0.9,0.4s-0.4,0.7-0.5,1.1h2.7v-0.1
		c0-0.5-0.2-0.8-0.4-1.1S106.2,584.7,105.8,584.7z"/>
	<path class="st3" d="M118.1,586.9c0,1-0.2,1.8-0.7,2.3s-1,0.9-1.8,0.9c-0.7,0-1.3-0.2-1.7-0.7v3h-1.4v-8.8h1.3l0.1,0.6
		c0.4-0.5,1-0.8,1.7-0.8c0.8,0,1.4,0.3,1.8,0.9S118.1,585.8,118.1,586.9L118.1,586.9z M116.7,586.8c0-0.6-0.1-1.1-0.4-1.5
		s-0.6-0.6-1.1-0.6c-0.6,0-1,0.2-1.3,0.7v2.8c0.3,0.5,0.7,0.7,1.3,0.7c0.5,0,0.8-0.2,1.1-0.5S116.7,587.5,116.7,586.8z"/>
	<path class="st3" d="M122.1,590.1c-0.9,0-1.6-0.3-2.2-0.9s-0.8-1.3-0.8-2.3v-0.2c0-0.6,0.1-1.2,0.4-1.7s0.6-0.9,1-1.2
		s0.9-0.4,1.5-0.4c0.9,0,1.5,0.3,2,0.8s0.7,1.3,0.7,2.3v0.6h-4.1c0,0.5,0.2,0.9,0.5,1.2s0.7,0.5,1.2,0.5c0.7,0,1.2-0.3,1.6-0.8
		l0.8,0.7c-0.3,0.4-0.6,0.7-1,0.9S122.6,590.1,122.1,590.1z M121.9,584.7c-0.4,0-0.7,0.1-0.9,0.4s-0.4,0.7-0.5,1.1h2.7v-0.1
		c0-0.5-0.2-0.8-0.4-1.1S122.3,584.7,121.9,584.7z"/>
	<path class="st3" d="M125.5,586.8c0-1,0.2-1.8,0.7-2.4s1.1-0.9,1.8-0.9c0.7,0,1.3,0.2,1.7,0.7l0.1-0.6h1.3v8.8h-1.4v-3
		c-0.4,0.4-1,0.7-1.6,0.7c-0.8,0-1.4-0.3-1.8-0.9S125.5,587.8,125.5,586.8z M126.9,586.9c0,0.6,0.1,1.2,0.4,1.5s0.6,0.6,1.1,0.6
		c0.6,0,1-0.2,1.3-0.7v-2.9c-0.3-0.5-0.7-0.7-1.2-0.7c-0.5,0-0.8,0.2-1.1,0.5S126.9,586.2,126.9,586.9z"/>
	<path class="st3" d="M136.4,589.4c-0.4,0.5-1,0.7-1.8,0.7c-0.7,0-1.2-0.2-1.6-0.6s-0.5-1-0.5-1.7v-4.1h1.4v4.1c0,0.8,0.3,1.2,1,1.2
		c0.7,0,1.2-0.2,1.4-0.7v-4.6h1.4v6.3h-1.3L136.4,589.4z"/>
	<path class="st3" d="M142,590.1c-0.9,0-1.6-0.3-2.2-0.9s-0.8-1.3-0.8-2.3v-0.2c0-0.6,0.1-1.2,0.4-1.7s0.6-0.9,1-1.2
		s0.9-0.4,1.5-0.4c0.9,0,1.5,0.3,2,0.8s0.7,1.3,0.7,2.3v0.6h-4.1c0,0.5,0.2,0.9,0.5,1.2s0.7,0.5,1.2,0.5c0.7,0,1.2-0.3,1.6-0.8
		l0.8,0.7c-0.3,0.4-0.6,0.7-1,0.9S142.6,590.1,142,590.1z M141.9,584.7c-0.4,0-0.7,0.1-0.9,0.4s-0.4,0.7-0.5,1.1h2.7v-0.1
		c0-0.5-0.2-0.8-0.4-1.1S142.3,584.7,141.9,584.7z"/>
	<path class="st3" d="M147,583.7l0,0.7c0.5-0.6,1.1-0.8,1.8-0.8c1.3,0,2,0.8,2,2.3v4.2h-1.4v-4.1c0-0.4-0.1-0.7-0.3-0.9
		s-0.5-0.3-0.9-0.3c-0.6,0-1,0.3-1.3,0.8v4.5h-1.4v-6.3H147z"/>
	<path class="st3" d="M152.1,586.8c0-0.6,0.1-1.2,0.4-1.7s0.6-0.9,1-1.1s1-0.4,1.5-0.4c0.9,0,1.5,0.3,2.1,0.8s0.8,1.3,0.9,2.2l0,0.3
		c0,0.6-0.1,1.2-0.4,1.7s-0.6,0.9-1,1.1s-1,0.4-1.5,0.4c-0.9,0-1.6-0.3-2.1-0.9S152.1,587.8,152.1,586.8L152.1,586.8z M153.5,586.9
		c0,0.7,0.1,1.2,0.4,1.5s0.6,0.6,1.1,0.6s0.9-0.2,1.1-0.6s0.4-0.9,0.4-1.6c0-0.6-0.1-1.1-0.4-1.5s-0.6-0.6-1.1-0.6
		c-0.5,0-0.8,0.2-1.1,0.6S153.5,586.2,153.5,586.9z"/>
	<path class="st3" d="M167.7,586.9c0,1-0.2,1.8-0.7,2.3s-1,0.9-1.8,0.9c-0.7,0-1.3-0.2-1.7-0.7v3h-1.4v-8.8h1.3l0.1,0.6
		c0.4-0.5,1-0.8,1.7-0.8c0.8,0,1.4,0.3,1.8,0.9S167.7,585.8,167.7,586.9L167.7,586.9z M166.3,586.8c0-0.6-0.1-1.1-0.4-1.5
		s-0.6-0.6-1.1-0.6c-0.6,0-1,0.2-1.3,0.7v2.8c0.3,0.5,0.7,0.7,1.3,0.7c0.5,0,0.8-0.2,1.1-0.5S166.3,587.5,166.3,586.8z"/>
	<path class="st3" d="M168.7,586.8c0-0.6,0.1-1.2,0.4-1.7s0.6-0.9,1-1.1s1-0.4,1.5-0.4c0.9,0,1.5,0.3,2.1,0.8s0.8,1.3,0.9,2.2l0,0.3
		c0,0.6-0.1,1.2-0.4,1.7s-0.6,0.9-1,1.1s-1,0.4-1.5,0.4c-0.9,0-1.6-0.3-2.1-0.9S168.7,587.8,168.7,586.8L168.7,586.8z M170.1,586.9
		c0,0.7,0.1,1.2,0.4,1.5s0.6,0.6,1.1,0.6s0.9-0.2,1.1-0.6s0.4-0.9,0.4-1.6c0-0.6-0.1-1.1-0.4-1.5s-0.6-0.6-1.1-0.6
		c-0.5,0-0.8,0.2-1.1,0.6S170.1,586.2,170.1,586.9z"/>
	<path class="st3" d="M179.1,585c-0.2,0-0.4,0-0.6,0c-0.7,0-1.1,0.2-1.3,0.8v4.3h-1.4v-6.3h1.4l0,0.7c0.3-0.6,0.8-0.8,1.4-0.8
		c0.2,0,0.4,0,0.5,0.1L179.1,585z"/>
	<path class="st3" d="M182.1,582.1v1.5h1.1v1.1h-1.1v3.5c0,0.2,0,0.4,0.1,0.5s0.3,0.2,0.5,0.2c0.2,0,0.3,0,0.5-0.1v1.1
		c-0.3,0.1-0.6,0.1-0.9,0.1c-1.1,0-1.6-0.6-1.6-1.8v-3.6h-1v-1.1h1v-1.5H182.1z"/>
	<path class="st3" d="M187.1,590.1c-0.9,0-1.6-0.3-2.2-0.9s-0.8-1.3-0.8-2.3v-0.2c0-0.6,0.1-1.2,0.4-1.7s0.6-0.9,1-1.2
		s0.9-0.4,1.5-0.4c0.9,0,1.5,0.3,2,0.8s0.7,1.3,0.7,2.3v0.6h-4.1c0,0.5,0.2,0.9,0.5,1.2s0.7,0.5,1.2,0.5c0.7,0,1.2-0.3,1.6-0.8
		l0.8,0.7c-0.3,0.4-0.6,0.7-1,0.9S187.6,590.1,187.1,590.1z M186.9,584.7c-0.4,0-0.7,0.1-0.9,0.4s-0.4,0.7-0.5,1.1h2.7v-0.1
		c0-0.5-0.2-0.8-0.4-1.1S187.3,584.7,186.9,584.7z"/>
</g>
</svg>
