<?xml version="1.0" encoding="utf-8"?>
<!-- Generator: Adobe Illustrator 24.3.0, SVG Export Plug-In . SVG Version: 6.00 Build 0)  -->
<svg version="1.1" id="Layer_1" xmlns="http://www.w3.org/2000/svg" xmlns:xlink="http://www.w3.org/1999/xlink" x="0px" y="0px"
	 viewBox="0 0 195.9 184.1" style="enable-background:new 0 0 195.9 184.1;" xml:space="preserve">
<style type="text/css">
	.st0{fill:#231F20;}
	.st1{fill:none;stroke:#231F20;}
	.st2{fill:none;stroke:#231F20;stroke-width:0.3;}
</style>
<g>
	<path class="st0" d="M3.3,5.8H2v2.7H0.7V1.4h2.5C4,1.4,4.7,1.6,5.1,2c0.4,0.4,0.7,0.9,0.7,1.6c0,0.5-0.1,0.9-0.3,1.2
		c-0.2,0.3-0.5,0.6-1,0.7l1.6,3v0.1H4.8L3.3,5.8z M2,4.8h1.3c0.4,0,0.7-0.1,1-0.3C4.4,4.3,4.6,4,4.6,3.6c0-0.4-0.1-0.7-0.3-0.9
		s-0.5-0.3-1-0.3H2V4.8z"/>
	<path class="st0" d="M9.2,8.7c-0.8,0-1.4-0.2-1.8-0.7C6.9,7.5,6.6,6.8,6.6,6V5.9c0-0.5,0.1-1,0.3-1.4c0.2-0.4,0.5-0.7,0.9-1
		S8.6,3.2,9,3.2c0.7,0,1.3,0.2,1.7,0.7s0.6,1.1,0.6,1.9v0.5H7.8c0,0.4,0.2,0.8,0.4,1s0.6,0.4,1,0.4c0.5,0,1-0.2,1.3-0.7l0.6,0.6
		C11,8,10.7,8.2,10.4,8.4C10,8.6,9.6,8.7,9.2,8.7z M9,4.1c-0.3,0-0.6,0.1-0.8,0.3S7.9,5,7.9,5.4h2.3V5.3c0-0.4-0.1-0.7-0.3-0.9
		C9.6,4.2,9.4,4.1,9,4.1z"/>
	<path class="st0" d="M15.2,7.1c0-0.2-0.1-0.4-0.3-0.5S14.5,6.4,14,6.3S13.3,6.2,13,6c-0.6-0.3-0.9-0.7-0.9-1.2
		c0-0.5,0.2-0.8,0.6-1.1s0.9-0.5,1.5-0.5c0.6,0,1.1,0.2,1.5,0.5s0.6,0.7,0.6,1.2h-1.2c0-0.2-0.1-0.4-0.3-0.6
		c-0.2-0.2-0.4-0.2-0.7-0.2c-0.3,0-0.5,0.1-0.6,0.2s-0.2,0.3-0.2,0.5c0,0.2,0.1,0.3,0.2,0.4s0.5,0.2,0.9,0.3
		c0.5,0.1,0.8,0.2,1.1,0.4C15.8,6,16,6.1,16.1,6.3s0.2,0.4,0.2,0.7c0,0.5-0.2,0.9-0.6,1.2c-0.4,0.3-0.9,0.4-1.5,0.4
		c-0.4,0-0.8-0.1-1.2-0.2S12.4,8,12.3,7.8S12,7.2,12,6.9h1.2c0,0.3,0.1,0.5,0.3,0.6c0.2,0.2,0.5,0.2,0.8,0.2c0.3,0,0.6-0.1,0.7-0.2
		C15.1,7.5,15.2,7.3,15.2,7.1z"/>
	<path class="st0" d="M20.6,8c-0.3,0.4-0.8,0.6-1.5,0.6c-0.6,0-1-0.2-1.3-0.5s-0.4-0.8-0.4-1.5V3.3h1.2v3.4c0,0.7,0.3,1,0.8,1
		c0.6,0,1-0.2,1.2-0.6V3.3h1.2v5.3h-1.1L20.6,8z"/>
	<path class="st0" d="M24.2,8.6H23V1.1h1.2V8.6z"/>
	<path class="st0" d="M27,2v1.3h0.9v0.9H27v2.9c0,0.2,0,0.3,0.1,0.4c0.1,0.1,0.2,0.1,0.4,0.1c0.1,0,0.3,0,0.4,0v0.9
		c-0.3,0.1-0.5,0.1-0.8,0.1c-0.9,0-1.4-0.5-1.4-1.5v-3h-0.9V3.3h0.9V2H27z"/>
	<path class="st0" d="M32,8.6c-0.1-0.1-0.1-0.3-0.1-0.5c-0.4,0.4-0.8,0.6-1.4,0.6c-0.5,0-1-0.2-1.3-0.5s-0.5-0.7-0.5-1.1
		c0-0.6,0.2-1,0.6-1.3c0.4-0.3,1-0.5,1.8-0.5h0.7V5c0-0.3-0.1-0.5-0.2-0.7c-0.2-0.2-0.4-0.2-0.7-0.2c-0.3,0-0.5,0.1-0.7,0.2
		c-0.2,0.1-0.3,0.3-0.3,0.5h-1.2c0-0.3,0.1-0.6,0.3-0.8c0.2-0.3,0.5-0.5,0.8-0.6s0.7-0.2,1.1-0.2c0.6,0,1.1,0.2,1.5,0.5
		C32.8,4,33,4.4,33,5v2.4c0,0.5,0.1,0.9,0.2,1.1v0.1H32z M30.7,7.7c0.2,0,0.5-0.1,0.7-0.2s0.4-0.3,0.5-0.5v-1h-0.6
		c-0.4,0-0.8,0.1-1,0.2S29.8,6.7,29.8,7c0,0.2,0.1,0.4,0.2,0.5C30.2,7.6,30.4,7.7,30.7,7.7z"/>
	<path class="st0" d="M34,5.9c0-0.8,0.2-1.5,0.6-2c0.4-0.5,0.9-0.7,1.5-0.7c0.6,0,1,0.2,1.4,0.6V1.1h1.2v7.5h-1.1L37.5,8
		c-0.4,0.4-0.8,0.6-1.4,0.6c-0.6,0-1.1-0.2-1.5-0.7S34,6.7,34,5.9z M35.2,6c0,0.5,0.1,1,0.3,1.3c0.2,0.3,0.5,0.5,0.9,0.5
		c0.5,0,0.8-0.2,1.1-0.6V4.8c-0.2-0.4-0.6-0.6-1.1-0.6c-0.4,0-0.7,0.2-0.9,0.5C35.3,4.9,35.2,5.4,35.2,6z"/>
	<path class="st0" d="M39.6,5.9c0-0.5,0.1-1,0.3-1.4c0.2-0.4,0.5-0.7,0.9-1c0.4-0.2,0.8-0.3,1.3-0.3c0.7,0,1.3,0.2,1.7,0.7
		s0.7,1.1,0.7,1.8l0,0.3c0,0.5-0.1,1-0.3,1.4s-0.5,0.7-0.9,1s-0.8,0.3-1.3,0.3c-0.7,0-1.3-0.2-1.8-0.7C39.9,7.4,39.6,6.8,39.6,5.9
		L39.6,5.9z M40.8,6c0,0.5,0.1,1,0.3,1.3c0.2,0.3,0.5,0.5,0.9,0.5s0.7-0.2,0.9-0.5s0.3-0.8,0.3-1.4c0-0.5-0.1-1-0.3-1.3
		s-0.5-0.5-0.9-0.5c-0.4,0-0.7,0.2-0.9,0.5C40.9,4.9,40.8,5.4,40.8,6z"/>
	<path class="st0" d="M47.8,5.9c0-0.5,0.1-1,0.3-1.4c0.2-0.4,0.5-0.7,0.9-1c0.4-0.2,0.8-0.3,1.3-0.3c0.7,0,1.3,0.2,1.7,0.7
		s0.7,1.1,0.7,1.8l0,0.3c0,0.5-0.1,1-0.3,1.4s-0.5,0.7-0.9,1s-0.8,0.3-1.3,0.3c-0.7,0-1.3-0.2-1.8-0.7C48.1,7.4,47.8,6.8,47.8,5.9
		L47.8,5.9z M49,6c0,0.5,0.1,1,0.3,1.3c0.2,0.3,0.5,0.5,0.9,0.5s0.7-0.2,0.9-0.5s0.3-0.8,0.3-1.4c0-0.5-0.1-1-0.3-1.3
		s-0.5-0.5-0.9-0.5c-0.4,0-0.7,0.2-0.9,0.5C49.1,4.9,49,5.4,49,6z"/>
	<path class="st0" d="M58.4,6c0,0.8-0.2,1.5-0.6,2c-0.4,0.5-0.9,0.7-1.5,0.7c-0.6,0-1-0.2-1.4-0.6v2.5h-1.2V3.3h1.1l0,0.5
		c0.3-0.4,0.8-0.6,1.4-0.6c0.6,0,1.1,0.2,1.5,0.7C58.2,4.4,58.4,5,58.4,6L58.4,6z M57.2,5.9c0-0.5-0.1-0.9-0.3-1.3S56.4,4.1,56,4.1
		c-0.5,0-0.8,0.2-1,0.6v2.3c0.2,0.4,0.6,0.6,1.1,0.6c0.4,0,0.7-0.2,0.9-0.5C57.1,6.9,57.2,6.5,57.2,5.9z"/>
	<path class="st0" d="M61.7,8.7c-0.8,0-1.4-0.2-1.8-0.7c-0.5-0.5-0.7-1.1-0.7-1.9V5.9c0-0.5,0.1-1,0.3-1.4c0.2-0.4,0.5-0.7,0.9-1
		s0.8-0.3,1.2-0.3c0.7,0,1.3,0.2,1.7,0.7s0.6,1.1,0.6,1.9v0.5h-3.5c0,0.4,0.2,0.8,0.4,1s0.6,0.4,1,0.4c0.5,0,1-0.2,1.3-0.7l0.6,0.6
		c-0.2,0.3-0.5,0.6-0.8,0.7C62.5,8.6,62.1,8.7,61.7,8.7z M61.6,4.1c-0.3,0-0.6,0.1-0.8,0.3s-0.3,0.5-0.4,1h2.3V5.3
		c0-0.4-0.1-0.7-0.3-0.9C62.1,4.2,61.9,4.1,61.6,4.1z"/>
	<path class="st0" d="M67.5,4.4c-0.2,0-0.3,0-0.5,0c-0.5,0-0.9,0.2-1.1,0.6v3.6h-1.2V3.3h1.1l0,0.6c0.3-0.5,0.7-0.7,1.2-0.7
		c0.2,0,0.3,0,0.4,0.1L67.5,4.4z"/>
	<path class="st0" d="M71.3,8.6c-0.1-0.1-0.1-0.3-0.1-0.5c-0.4,0.4-0.8,0.6-1.4,0.6c-0.5,0-1-0.2-1.3-0.5s-0.5-0.7-0.5-1.1
		c0-0.6,0.2-1,0.6-1.3c0.4-0.3,1-0.5,1.8-0.5h0.7V5c0-0.3-0.1-0.5-0.2-0.7c-0.2-0.2-0.4-0.2-0.7-0.2c-0.3,0-0.5,0.1-0.7,0.2
		c-0.2,0.1-0.3,0.3-0.3,0.5h-1.2c0-0.3,0.1-0.6,0.3-0.8c0.2-0.3,0.5-0.5,0.8-0.6s0.7-0.2,1.1-0.2c0.6,0,1.1,0.2,1.5,0.5
		C72.1,4,72.3,4.4,72.3,5v2.4c0,0.5,0.1,0.9,0.2,1.1v0.1H71.3z M70,7.7c0.2,0,0.5-0.1,0.7-0.2s0.4-0.3,0.5-0.5v-1h-0.6
		c-0.4,0-0.8,0.1-1,0.2S69.1,6.7,69.1,7c0,0.2,0.1,0.4,0.2,0.5C69.5,7.6,69.7,7.7,70,7.7z"/>
	<path class="st0" d="M75.7,7.7c0.3,0,0.5-0.1,0.7-0.3s0.3-0.4,0.3-0.6h1.1c0,0.3-0.1,0.6-0.3,0.9c-0.2,0.3-0.5,0.5-0.8,0.7
		s-0.7,0.2-1.1,0.2c-0.7,0-1.3-0.2-1.8-0.7s-0.6-1.1-0.6-2V5.8c0-0.8,0.2-1.4,0.6-1.9c0.4-0.5,1-0.7,1.8-0.7c0.6,0,1.1,0.2,1.5,0.5
		c0.4,0.4,0.6,0.8,0.6,1.4h-1.1c0-0.3-0.1-0.6-0.3-0.7S76,4.1,75.7,4.1c-0.4,0-0.7,0.1-0.9,0.4c-0.2,0.3-0.3,0.7-0.3,1.3V6
		c0,0.6,0.1,1,0.3,1.3C75,7.6,75.3,7.7,75.7,7.7z"/>
	<path class="st0" d="M78.8,1.9c0-0.2,0.1-0.3,0.2-0.5s0.3-0.2,0.5-0.2s0.4,0.1,0.5,0.2s0.2,0.3,0.2,0.5c0,0.2-0.1,0.3-0.2,0.4
		c-0.1,0.1-0.3,0.2-0.5,0.2s-0.4-0.1-0.5-0.2C78.8,2.2,78.8,2.1,78.8,1.9z M80,8.6h-1.2V3.3H80V8.6z"/>
	<path class="st0" d="M81.1,5.9c0-0.5,0.1-1,0.3-1.4c0.2-0.4,0.5-0.7,0.9-1c0.4-0.2,0.8-0.3,1.3-0.3c0.7,0,1.3,0.2,1.7,0.7
		S86,4.9,86,5.7L86,6c0,0.5-0.1,1-0.3,1.4s-0.5,0.7-0.9,1S84,8.7,83.6,8.7c-0.7,0-1.3-0.2-1.8-0.7C81.3,7.4,81.1,6.8,81.1,5.9
		L81.1,5.9z M82.3,6c0,0.5,0.1,1,0.3,1.3c0.2,0.3,0.5,0.5,0.9,0.5s0.7-0.2,0.9-0.5s0.3-0.8,0.3-1.4c0-0.5-0.1-1-0.3-1.3
		s-0.5-0.5-0.9-0.5c-0.4,0-0.7,0.2-0.9,0.5C82.4,4.9,82.3,5.4,82.3,6z"/>
	<path class="st0" d="M88.1,3.3l0,0.6c0.4-0.5,0.9-0.7,1.5-0.7c1.1,0,1.7,0.6,1.7,1.9v3.5h-1.2V5.1c0-0.3-0.1-0.6-0.2-0.7
		c-0.1-0.2-0.4-0.2-0.7-0.2c-0.5,0-0.8,0.2-1.1,0.6v3.8H87V3.3H88.1z"/>
	<path class="st0" d="M95.7,8.6c-0.1-0.1-0.1-0.3-0.1-0.5c-0.4,0.4-0.8,0.6-1.4,0.6c-0.5,0-1-0.2-1.3-0.5s-0.5-0.7-0.5-1.1
		c0-0.6,0.2-1,0.6-1.3c0.4-0.3,1-0.5,1.8-0.5h0.7V5c0-0.3-0.1-0.5-0.2-0.7c-0.2-0.2-0.4-0.2-0.7-0.2c-0.3,0-0.5,0.1-0.7,0.2
		c-0.2,0.1-0.3,0.3-0.3,0.5h-1.2c0-0.3,0.1-0.6,0.3-0.8c0.2-0.3,0.5-0.5,0.8-0.6s0.7-0.2,1.1-0.2c0.6,0,1.1,0.2,1.5,0.5
		C96.5,4,96.7,4.4,96.7,5v2.4c0,0.5,0.1,0.9,0.2,1.1v0.1H95.7z M94.4,7.7c0.2,0,0.5-0.1,0.7-0.2s0.4-0.3,0.5-0.5v-1h-0.6
		c-0.4,0-0.8,0.1-1,0.2S93.6,6.7,93.6,7c0,0.2,0.1,0.4,0.2,0.5C94,7.6,94.2,7.7,94.4,7.7z"/>
	<path class="st0" d="M99.2,8.6h-1.2V1.1h1.2V8.6z"/>
</g>
<g>
	<path class="st0" d="M170.3,5.8h-1.4v2.7h-1.2V1.4h2.5c0.8,0,1.5,0.2,1.9,0.6c0.4,0.4,0.7,0.9,0.7,1.6c0,0.5-0.1,0.9-0.3,1.2
		c-0.2,0.3-0.5,0.6-1,0.7l1.6,3v0.1h-1.3L170.3,5.8z M168.9,4.8h1.3c0.4,0,0.7-0.1,1-0.3c0.2-0.2,0.4-0.5,0.4-0.9
		c0-0.4-0.1-0.7-0.3-0.9c-0.2-0.2-0.5-0.3-1-0.3h-1.3V4.8z"/>
	<path class="st0" d="M177.2,6.7c0-0.3-0.1-0.5-0.3-0.7c-0.2-0.2-0.5-0.3-0.9-0.5c-0.4-0.1-0.7-0.3-1-0.4c-0.8-0.4-1.1-1-1.1-1.8
		c0-0.5,0.2-1,0.5-1.3c0.3-0.3,0.8-0.6,1.3-0.6V0.3h0.8v1.1c0.6,0.1,1,0.3,1.3,0.7c0.3,0.4,0.5,0.9,0.5,1.6h-1.2
		c0-0.4-0.1-0.7-0.3-1c-0.2-0.2-0.4-0.4-0.7-0.4c-0.3,0-0.6,0.1-0.7,0.3s-0.3,0.4-0.3,0.7c0,0.3,0.1,0.5,0.3,0.7
		c0.2,0.2,0.5,0.3,0.9,0.5c0.4,0.2,0.7,0.3,1,0.4c0.2,0.1,0.4,0.3,0.6,0.4c0.2,0.2,0.3,0.4,0.4,0.6s0.1,0.5,0.1,0.8
		c0,0.5-0.2,1-0.5,1.3s-0.8,0.5-1.4,0.6v1h-0.8V8.6c-0.6-0.1-1.1-0.3-1.5-0.7s-0.5-0.9-0.5-1.6h1.2c0,0.4,0.1,0.7,0.3,1
		c0.2,0.2,0.5,0.3,0.9,0.3c0.4,0,0.7-0.1,0.8-0.3C177.1,7.2,177.2,7,177.2,6.7z"/>
	<path class="st0" d="M179.8,9.2h-0.9l2.8-7.7h0.9L179.8,9.2z"/>
	<path class="st0" d="M186.6,8c-0.3,0.4-0.8,0.6-1.5,0.6c-0.6,0-1-0.2-1.3-0.5c-0.3-0.3-0.4-0.8-0.4-1.5V3.3h1.2v3.4
		c0,0.7,0.3,1,0.8,1c0.6,0,1-0.2,1.2-0.6V3.3h1.2v5.3h-1.1L186.6,8z"/>
	<path class="st0" d="M190.1,3.3l0,0.6c0.4-0.5,0.9-0.7,1.5-0.7c1.1,0,1.7,0.6,1.7,1.9v3.5h-1.2V5.1c0-0.3-0.1-0.6-0.2-0.7
		c-0.1-0.2-0.4-0.2-0.7-0.2c-0.5,0-0.8,0.2-1.1,0.6v3.8h-1.2V3.3H190.1z"/>
</g>
<line class="st1" x1="0" y1="14.1" x2="195.9" y2="14.1"/>
<g>
	<path class="st0" d="M3.4,27.6H1.8v2.9H0.8v-7.1h2.4c0.8,0,1.4,0.2,1.8,0.5s0.6,0.9,0.6,1.6c0,0.4-0.1,0.8-0.4,1.2s-0.6,0.6-1,0.7
		l1.7,3v0.1H5L3.4,27.6z M1.8,26.9h1.4c0.5,0,0.8-0.1,1.1-0.4s0.4-0.6,0.4-1c0-0.4-0.1-0.8-0.4-1c-0.3-0.2-0.6-0.4-1.1-0.4H1.8V26.9
		z"/>
	<path class="st0" d="M9,30.6c-0.7,0-1.3-0.2-1.7-0.7c-0.4-0.5-0.7-1.1-0.7-1.9v-0.2c0-0.5,0.1-1,0.3-1.4c0.2-0.4,0.5-0.7,0.8-1
		c0.4-0.2,0.7-0.3,1.2-0.3c0.7,0,1.2,0.2,1.6,0.7s0.6,1.1,0.6,1.9v0.4H7.5c0,0.5,0.2,0.9,0.5,1.3c0.3,0.3,0.7,0.5,1.1,0.5
		c0.3,0,0.6-0.1,0.8-0.2s0.4-0.3,0.6-0.5l0.6,0.4C10.6,30.3,9.9,30.6,9,30.6z M8.9,25.9c-0.4,0-0.7,0.1-0.9,0.4
		c-0.2,0.3-0.4,0.6-0.5,1.1h2.6v-0.1c0-0.5-0.1-0.8-0.4-1.1C9.6,26,9.3,25.9,8.9,25.9z"/>
	<path class="st0" d="M14.3,29.9c0.3,0,0.6-0.1,0.8-0.3s0.4-0.4,0.4-0.7h0.9c0,0.3-0.1,0.6-0.3,0.9s-0.4,0.5-0.8,0.7s-0.7,0.2-1,0.2
		c-0.7,0-1.3-0.2-1.7-0.7c-0.4-0.5-0.6-1.1-0.6-2v-0.2c0-0.5,0.1-1,0.3-1.4s0.5-0.7,0.8-0.9s0.8-0.3,1.3-0.3c0.6,0,1.1,0.2,1.5,0.5
		s0.6,0.8,0.6,1.4h-0.9c0-0.3-0.2-0.6-0.4-0.8c-0.2-0.2-0.5-0.3-0.9-0.3c-0.5,0-0.8,0.2-1.1,0.5c-0.3,0.3-0.4,0.8-0.4,1.4V28
		c0,0.6,0.1,1.1,0.4,1.4S13.8,29.9,14.3,29.9z"/>
	<path class="st0" d="M19.6,30.6c-0.7,0-1.3-0.2-1.7-0.7c-0.4-0.5-0.7-1.1-0.7-1.9v-0.2c0-0.5,0.1-1,0.3-1.4c0.2-0.4,0.5-0.7,0.8-1
		c0.4-0.2,0.7-0.3,1.2-0.3c0.7,0,1.2,0.2,1.6,0.7s0.6,1.1,0.6,1.9v0.4H18c0,0.5,0.2,0.9,0.5,1.3c0.3,0.3,0.7,0.5,1.1,0.5
		c0.3,0,0.6-0.1,0.8-0.2s0.4-0.3,0.6-0.5l0.6,0.4C21.1,30.3,20.5,30.6,19.6,30.6z M19.5,25.9c-0.4,0-0.7,0.1-0.9,0.4
		c-0.2,0.3-0.4,0.6-0.5,1.1h2.6v-0.1c0-0.5-0.1-0.8-0.4-1.1C20.1,26,19.8,25.9,19.5,25.9z"/>
	<path class="st0" d="M22.7,23.8c0-0.1,0-0.3,0.1-0.4s0.2-0.2,0.4-0.2s0.3,0.1,0.4,0.2s0.1,0.2,0.1,0.4s0,0.3-0.1,0.4
		s-0.2,0.1-0.4,0.1s-0.3,0-0.4-0.1S22.7,24,22.7,23.8z M23.7,30.5h-0.9v-5.3h0.9V30.5z"/>
	<path class="st0" d="M26.3,23.9v1.3h1v0.7h-1v3.3c0,0.2,0,0.4,0.1,0.5c0.1,0.1,0.2,0.2,0.4,0.2c0.1,0,0.2,0,0.4-0.1v0.7
		c-0.2,0.1-0.5,0.1-0.7,0.1c-0.4,0-0.7-0.1-0.9-0.4s-0.3-0.6-0.3-1v-3.3h-1v-0.7h1v-1.3H26.3z"/>
	<path class="st0" d="M31.6,30.5c-0.1-0.1-0.1-0.3-0.1-0.6c-0.4,0.4-0.9,0.7-1.5,0.7c-0.5,0-0.9-0.1-1.3-0.4
		c-0.3-0.3-0.5-0.7-0.5-1.1c0-0.5,0.2-1,0.6-1.3c0.4-0.3,1-0.5,1.8-0.5h0.9v-0.4c0-0.3-0.1-0.6-0.3-0.8c-0.2-0.2-0.5-0.3-0.8-0.3
		c-0.3,0-0.6,0.1-0.8,0.2s-0.3,0.4-0.3,0.6h-0.9c0-0.3,0.1-0.5,0.3-0.8c0.2-0.2,0.4-0.4,0.8-0.6s0.7-0.2,1.1-0.2
		c0.6,0,1.1,0.2,1.4,0.5c0.3,0.3,0.5,0.7,0.5,1.3v2.4c0,0.5,0.1,0.9,0.2,1.2v0.1H31.6z M30.1,29.8c0.3,0,0.6-0.1,0.8-0.2
		s0.4-0.3,0.6-0.6v-1.1h-0.7c-1.1,0-1.7,0.3-1.7,1c0,0.3,0.1,0.5,0.3,0.7S29.8,29.8,30.1,29.8z"/>
	<path class="st0" d="M37.3,30.5h-0.9V23h0.9V30.5z"/>
	<path class="st0" d="M39.7,23h1.1l-1.3,1.4l-0.7,0L39.7,23z M39.7,30.5h-0.9v-5.3h0.9V30.5z"/>
	<path class="st0" d="M41,27.8c0-0.8,0.2-1.5,0.6-2c0.4-0.5,0.9-0.7,1.5-0.7c0.6,0,1.1,0.2,1.5,0.6l0-0.5h0.8v7.3h-0.9V30
		c-0.4,0.4-0.8,0.6-1.5,0.6c-0.6,0-1.1-0.2-1.5-0.7C41.1,29.4,41,28.7,41,27.8L41,27.8z M41.9,27.9c0,0.6,0.1,1.1,0.4,1.4
		s0.6,0.5,1,0.5c0.5,0,0.9-0.2,1.2-0.7v-2.6c-0.3-0.5-0.7-0.7-1.2-0.7c-0.4,0-0.8,0.2-1,0.5C42,26.7,41.9,27.2,41.9,27.9z"/>
	<path class="st0" d="M50.1,30c-0.4,0.4-0.9,0.6-1.5,0.6c-0.6,0-1-0.2-1.3-0.5c-0.3-0.3-0.4-0.8-0.4-1.5v-3.4h0.9v3.4
		c0,0.8,0.3,1.2,1,1.2c0.7,0,1.1-0.3,1.4-0.8v-3.8H51v5.3h-0.9L50.1,30z"/>
	<path class="st0" d="M52.4,23.8c0-0.1,0-0.3,0.1-0.4s0.2-0.2,0.4-0.2s0.3,0.1,0.4,0.2s0.1,0.2,0.1,0.4s0,0.3-0.1,0.4
		s-0.2,0.1-0.4,0.1s-0.3,0-0.4-0.1S52.4,24,52.4,23.8z M53.4,30.5h-0.9v-5.3h0.9V30.5z"/>
	<path class="st0" d="M54.6,27.8c0-0.8,0.2-1.5,0.6-2c0.4-0.5,0.9-0.7,1.5-0.7c0.6,0,1.1,0.2,1.5,0.6V23H59v7.5h-0.8l0-0.6
		c-0.4,0.4-0.9,0.7-1.5,0.7c-0.6,0-1.1-0.3-1.5-0.8S54.6,28.7,54.6,27.8L54.6,27.8z M55.5,27.9c0,0.6,0.1,1.1,0.4,1.4s0.6,0.5,1,0.5
		c0.6,0,1-0.3,1.3-0.8v-2.4c-0.3-0.5-0.7-0.7-1.2-0.7c-0.4,0-0.8,0.2-1,0.5S55.5,27.3,55.5,27.9z"/>
	<path class="st0" d="M63.7,30.5c-0.1-0.1-0.1-0.3-0.1-0.6c-0.4,0.4-0.9,0.7-1.5,0.7c-0.5,0-0.9-0.1-1.3-0.4
		c-0.3-0.3-0.5-0.7-0.5-1.1c0-0.5,0.2-1,0.6-1.3c0.4-0.3,1-0.5,1.8-0.5h0.9v-0.4c0-0.3-0.1-0.6-0.3-0.8c-0.2-0.2-0.5-0.3-0.8-0.3
		c-0.3,0-0.6,0.1-0.8,0.2s-0.3,0.4-0.3,0.6h-0.9c0-0.3,0.1-0.5,0.3-0.8c0.2-0.2,0.4-0.4,0.8-0.6s0.7-0.2,1.1-0.2
		c0.6,0,1.1,0.2,1.4,0.5c0.3,0.3,0.5,0.7,0.5,1.3v2.4c0,0.5,0.1,0.9,0.2,1.2v0.1H63.7z M62.2,29.8c0.3,0,0.6-0.1,0.8-0.2
		s0.4-0.3,0.6-0.6v-1.1h-0.7c-1.1,0-1.7,0.3-1.7,1c0,0.3,0.1,0.5,0.3,0.7S61.9,29.8,62.2,29.8z"/>
</g>
<g>
	<path class="st0" d="M176.1,26.9l0.4-3.5h3.6v0.8h-2.9l-0.2,1.9c0.3-0.2,0.7-0.3,1.2-0.3c0.6,0,1.2,0.2,1.5,0.6
		c0.4,0.4,0.6,1,0.6,1.7c0,0.7-0.2,1.3-0.6,1.7c-0.4,0.4-0.9,0.6-1.7,0.6c-0.6,0-1.1-0.2-1.5-0.5c-0.4-0.3-0.6-0.8-0.7-1.4h0.9
		c0.1,0.4,0.2,0.7,0.4,0.9c0.2,0.2,0.5,0.3,0.9,0.3c0.4,0,0.8-0.1,1-0.4s0.4-0.7,0.4-1.2c0-0.5-0.1-0.9-0.4-1.1
		c-0.3-0.3-0.6-0.4-1-0.4c-0.4,0-0.7,0.1-0.9,0.3l-0.2,0.2L176.1,26.9z"/>
	<path class="st0" d="M181.4,31.9l-0.5-0.4c0.3-0.4,0.5-0.9,0.5-1.3v-0.8h0.9v0.7c0,0.3-0.1,0.7-0.2,1S181.6,31.7,181.4,31.9z"/>
	<path class="st0" d="M187.9,30.5h-4.7v-0.6l2.5-2.7c0.4-0.4,0.6-0.7,0.8-1c0.1-0.3,0.2-0.5,0.2-0.8c0-0.4-0.1-0.7-0.3-0.9
		s-0.5-0.4-0.9-0.4c-0.4,0-0.8,0.1-1,0.4c-0.2,0.3-0.4,0.6-0.4,1.1h-0.9c0-0.7,0.2-1.2,0.6-1.6c0.4-0.4,1-0.6,1.7-0.6
		c0.7,0,1.2,0.2,1.6,0.5c0.4,0.3,0.6,0.8,0.6,1.4c0,0.7-0.4,1.5-1.3,2.5l-1.9,2.1h3.6V30.5z"/>
	<path class="st0" d="M193.5,23.9l-2.9,6.6h-0.9l2.9-6.4h-3.8v-0.7h4.8V23.9z"/>
</g>
<line class="st2" x1="0" y1="38.6" x2="195.9" y2="38.6"/>
<g>
	<path class="st0" d="M6.1,52.5c-0.1,0.8-0.4,1.3-0.8,1.7c-0.5,0.4-1.1,0.6-1.9,0.6c-0.8,0-1.5-0.3-2-0.9s-0.8-1.4-0.8-2.4v-0.7
		c0-0.7,0.1-1.2,0.4-1.7s0.6-0.9,1-1.2c0.4-0.3,0.9-0.4,1.5-0.4c0.8,0,1.4,0.2,1.8,0.6c0.5,0.4,0.7,1,0.8,1.8H5.1
		c-0.1-0.6-0.3-1-0.5-1.2s-0.7-0.4-1.1-0.4c-0.6,0-1.1,0.2-1.4,0.7c-0.3,0.4-0.5,1.1-0.5,1.9v0.7c0,0.8,0.2,1.4,0.5,1.8
		s0.8,0.7,1.4,0.7c0.5,0,0.9-0.1,1.2-0.4c0.3-0.2,0.5-0.6,0.6-1.2H6.1z"/>
	<path class="st0" d="M10.5,54.2c-0.4,0.4-0.9,0.6-1.5,0.6c-0.6,0-1-0.2-1.3-0.5c-0.3-0.3-0.4-0.8-0.4-1.5v-3.4h0.9v3.4
		c0,0.8,0.3,1.2,1,1.2c0.7,0,1.1-0.3,1.4-0.8v-3.8h0.9v5.3h-0.9L10.5,54.2z"/>
	<path class="st0" d="M15.8,53.3c0-0.2-0.1-0.4-0.3-0.6c-0.2-0.1-0.5-0.3-1-0.3s-0.8-0.2-1.1-0.4s-0.5-0.3-0.6-0.5s-0.2-0.4-0.2-0.7
		c0-0.4,0.2-0.8,0.5-1.1s0.8-0.4,1.4-0.4c0.6,0,1.1,0.2,1.5,0.5s0.6,0.7,0.6,1.2h-0.9c0-0.2-0.1-0.5-0.3-0.6s-0.5-0.3-0.8-0.3
		c-0.3,0-0.6,0.1-0.8,0.2s-0.3,0.3-0.3,0.6c0,0.2,0.1,0.4,0.3,0.5s0.5,0.2,0.9,0.3s0.8,0.2,1.1,0.4s0.5,0.3,0.6,0.5
		c0.1,0.2,0.2,0.4,0.2,0.7c0,0.5-0.2,0.9-0.6,1.1c-0.4,0.3-0.9,0.4-1.5,0.4c-0.4,0-0.8-0.1-1.1-0.2s-0.6-0.4-0.8-0.6
		c-0.2-0.3-0.3-0.6-0.3-0.9h0.9c0,0.3,0.1,0.5,0.4,0.7c0.2,0.2,0.5,0.3,0.9,0.3c0.3,0,0.6-0.1,0.8-0.2
		C15.7,53.7,15.8,53.6,15.8,53.3z"/>
	<path class="st0" d="M19.1,48.2v1.3h1v0.7h-1v3.3c0,0.2,0,0.4,0.1,0.5c0.1,0.1,0.2,0.2,0.4,0.2c0.1,0,0.2,0,0.4-0.1v0.7
		c-0.2,0.1-0.5,0.1-0.7,0.1c-0.4,0-0.7-0.1-0.9-0.4s-0.3-0.6-0.3-1v-3.3h-1v-0.7h1v-1.3H19.1z"/>
	<path class="st0" d="M20.8,52c0-0.5,0.1-1,0.3-1.4s0.5-0.7,0.8-1s0.8-0.3,1.2-0.3c0.7,0,1.3,0.2,1.7,0.7s0.7,1.2,0.7,2v0.1
		c0,0.5-0.1,1-0.3,1.4c-0.2,0.4-0.5,0.7-0.8,1s-0.8,0.3-1.3,0.3c-0.7,0-1.3-0.2-1.7-0.7S20.8,52.9,20.8,52L20.8,52z M21.7,52.1
		c0,0.6,0.1,1.1,0.4,1.4s0.6,0.5,1.1,0.5c0.5,0,0.8-0.2,1.1-0.5c0.3-0.4,0.4-0.9,0.4-1.5c0-0.6-0.1-1-0.4-1.4
		c-0.3-0.4-0.6-0.5-1.1-0.5c-0.4,0-0.8,0.2-1.1,0.5S21.7,51.5,21.7,52.1z"/>
	<path class="st0" d="M29.8,53.3c0-0.2-0.1-0.4-0.3-0.6c-0.2-0.1-0.5-0.3-1-0.3s-0.8-0.2-1.1-0.4s-0.5-0.3-0.6-0.5s-0.2-0.4-0.2-0.7
		c0-0.4,0.2-0.8,0.5-1.1s0.8-0.4,1.4-0.4c0.6,0,1.1,0.2,1.5,0.5s0.6,0.7,0.6,1.2h-0.9c0-0.2-0.1-0.5-0.3-0.6s-0.5-0.3-0.8-0.3
		c-0.3,0-0.6,0.1-0.8,0.2s-0.3,0.3-0.3,0.6c0,0.2,0.1,0.4,0.3,0.5s0.5,0.2,0.9,0.3s0.8,0.2,1.1,0.4s0.5,0.3,0.6,0.5
		c0.1,0.2,0.2,0.4,0.2,0.7c0,0.5-0.2,0.9-0.6,1.1c-0.4,0.3-0.9,0.4-1.5,0.4c-0.4,0-0.8-0.1-1.1-0.2S27,54.2,26.8,54
		c-0.2-0.3-0.3-0.6-0.3-0.9h0.9c0,0.3,0.1,0.5,0.4,0.7c0.2,0.2,0.5,0.3,0.9,0.3c0.3,0,0.6-0.1,0.8-0.2
		C29.7,53.7,29.8,53.6,29.8,53.3z"/>
	<path class="st0" d="M34.2,52c0-0.8,0.2-1.5,0.6-2c0.4-0.5,0.9-0.7,1.5-0.7c0.6,0,1.1,0.2,1.5,0.6v-2.8h0.9v7.5h-0.8l0-0.6
		c-0.4,0.4-0.9,0.7-1.5,0.7c-0.6,0-1.1-0.3-1.5-0.8S34.2,52.9,34.2,52L34.2,52z M35.1,52.1c0,0.6,0.1,1.1,0.4,1.4s0.6,0.5,1,0.5
		c0.6,0,1-0.3,1.3-0.8v-2.4c-0.3-0.5-0.7-0.7-1.2-0.7c-0.4,0-0.8,0.2-1,0.5S35.1,51.5,35.1,52.1z"/>
	<path class="st0" d="M42.2,54.8c-0.7,0-1.3-0.2-1.7-0.7c-0.4-0.5-0.7-1.1-0.7-1.9v-0.2c0-0.5,0.1-1,0.3-1.4c0.2-0.4,0.5-0.7,0.8-1
		c0.4-0.2,0.7-0.3,1.2-0.3c0.7,0,1.2,0.2,1.6,0.7s0.6,1.1,0.6,1.9v0.4h-3.6c0,0.5,0.2,0.9,0.5,1.3c0.3,0.3,0.7,0.5,1.1,0.5
		c0.3,0,0.6-0.1,0.8-0.2s0.4-0.3,0.6-0.5l0.6,0.4C43.8,54.5,43.1,54.8,42.2,54.8z M42.1,50.1c-0.4,0-0.7,0.1-0.9,0.4
		c-0.2,0.3-0.4,0.6-0.5,1.1h2.6v-0.1c0-0.5-0.1-0.8-0.4-1.1C42.8,50.2,42.5,50.1,42.1,50.1z"/>
	<path class="st0" d="M52.2,52.1c0,0.8-0.2,1.5-0.6,1.9s-0.9,0.7-1.5,0.7c-0.6,0-1.1-0.2-1.5-0.6v2.5h-0.9v-7.3h0.8l0,0.6
		c0.4-0.5,0.9-0.7,1.5-0.7c0.6,0,1.1,0.2,1.5,0.7S52.2,51.2,52.2,52.1L52.2,52.1z M51.3,52c0-0.6-0.1-1.1-0.4-1.4s-0.6-0.5-1-0.5
		c-0.5,0-1,0.2-1.2,0.7v2.5c0.3,0.5,0.7,0.7,1.2,0.7c0.4,0,0.8-0.2,1-0.5C51.2,53.2,51.3,52.7,51.3,52z"/>
	<path class="st0" d="M56,50.2c-0.1,0-0.3,0-0.4,0c-0.6,0-1,0.3-1.2,0.8v3.8h-0.9v-5.3h0.9l0,0.6c0.3-0.5,0.7-0.7,1.3-0.7
		c0.2,0,0.3,0,0.4,0.1V50.2z"/>
	<path class="st0" d="M56.4,52c0-0.5,0.1-1,0.3-1.4s0.5-0.7,0.8-1s0.8-0.3,1.2-0.3c0.7,0,1.3,0.2,1.7,0.7s0.7,1.2,0.7,2v0.1
		c0,0.5-0.1,1-0.3,1.4c-0.2,0.4-0.5,0.7-0.8,1s-0.8,0.3-1.3,0.3c-0.7,0-1.3-0.2-1.7-0.7S56.4,52.9,56.4,52L56.4,52z M57.3,52.1
		c0,0.6,0.1,1.1,0.4,1.4s0.6,0.5,1.1,0.5c0.5,0,0.8-0.2,1.1-0.5c0.3-0.4,0.4-0.9,0.4-1.5c0-0.6-0.1-1-0.4-1.4
		c-0.3-0.4-0.6-0.5-1.1-0.5c-0.4,0-0.8,0.2-1.1,0.5S57.3,51.5,57.3,52.1z"/>
	<path class="st0" d="M62.2,52c0-0.8,0.2-1.5,0.6-2c0.4-0.5,0.9-0.7,1.5-0.7c0.6,0,1.1,0.2,1.5,0.6v-2.8h0.9v7.5h-0.8l0-0.6
		c-0.4,0.4-0.9,0.7-1.5,0.7c-0.6,0-1.1-0.3-1.5-0.8S62.2,52.9,62.2,52L62.2,52z M63.1,52.1c0,0.6,0.1,1.1,0.4,1.4s0.6,0.5,1,0.5
		c0.6,0,1-0.3,1.3-0.8v-2.4c-0.3-0.5-0.7-0.7-1.2-0.7c-0.4,0-0.8,0.2-1,0.5S63.1,51.5,63.1,52.1z"/>
	<path class="st0" d="M71.3,54.2c-0.4,0.4-0.9,0.6-1.5,0.6c-0.6,0-1-0.2-1.3-0.5C68.2,54,68,53.5,68,52.9v-3.4h0.9v3.4
		c0,0.8,0.3,1.2,1,1.2c0.7,0,1.1-0.3,1.4-0.8v-3.8h0.9v5.3h-0.9L71.3,54.2z"/>
	<path class="st0" d="M75.7,54.1c0.3,0,0.6-0.1,0.8-0.3s0.4-0.4,0.4-0.7h0.9c0,0.3-0.1,0.6-0.3,0.9s-0.4,0.5-0.8,0.7s-0.7,0.2-1,0.2
		c-0.7,0-1.3-0.2-1.7-0.7c-0.4-0.5-0.6-1.1-0.6-2V52c0-0.5,0.1-1,0.3-1.4s0.5-0.7,0.8-0.9s0.8-0.3,1.3-0.3c0.6,0,1.1,0.2,1.5,0.5
		s0.6,0.8,0.6,1.4h-0.9c0-0.3-0.2-0.6-0.4-0.8c-0.2-0.2-0.5-0.3-0.9-0.3c-0.5,0-0.8,0.2-1.1,0.5c-0.3,0.3-0.4,0.8-0.4,1.4v0.2
		c0,0.6,0.1,1.1,0.4,1.4S75.2,54.1,75.7,54.1z M75.8,54.8L75.7,55c0.5,0.1,0.7,0.4,0.7,0.8c0,0.3-0.1,0.6-0.4,0.8
		c-0.3,0.2-0.6,0.3-1.1,0.3l0-0.5c0.3,0,0.5,0,0.6-0.1s0.2-0.2,0.2-0.4c0-0.1-0.1-0.2-0.2-0.3s-0.3-0.1-0.6-0.1l0.2-0.7H75.8z"/>
	<path class="st0" d="M82,54.7c-0.1-0.1-0.1-0.3-0.1-0.6c-0.4,0.4-0.9,0.7-1.5,0.7c-0.5,0-0.9-0.1-1.3-0.4c-0.3-0.3-0.5-0.7-0.5-1.1
		c0-0.5,0.2-1,0.6-1.3c0.4-0.3,1-0.5,1.8-0.5h0.9v-0.4c0-0.3-0.1-0.6-0.3-0.8c-0.2-0.2-0.5-0.3-0.8-0.3c-0.3,0-0.6,0.1-0.8,0.2
		s-0.3,0.4-0.3,0.6h-0.9c0-0.3,0.1-0.5,0.3-0.8c0.2-0.2,0.4-0.4,0.8-0.6s0.7-0.2,1.1-0.2c0.6,0,1.1,0.2,1.4,0.5
		c0.3,0.3,0.5,0.7,0.5,1.3v2.4c0,0.5,0.1,0.9,0.2,1.2v0.1H82z M82.7,47.4c0,0.4-0.1,0.6-0.3,0.9s-0.5,0.3-0.7,0.3
		c-0.1,0-0.2,0-0.3,0s-0.2-0.1-0.4-0.2s-0.3-0.2-0.3-0.2c-0.1,0-0.2,0-0.2,0c-0.1,0-0.2,0.1-0.3,0.2c-0.1,0.1-0.1,0.2-0.1,0.4
		l-0.6,0c0-0.3,0.1-0.6,0.3-0.9s0.4-0.3,0.7-0.3c0.1,0,0.2,0,0.3,0s0.2,0.1,0.4,0.2s0.3,0.2,0.4,0.2s0.2,0,0.3,0
		c0.1,0,0.3-0.1,0.3-0.2s0.1-0.2,0.1-0.4L82.7,47.4z M80.5,54c0.3,0,0.6-0.1,0.8-0.2s0.4-0.3,0.6-0.6v-1.1h-0.7
		c-1.1,0-1.7,0.3-1.7,1c0,0.3,0.1,0.5,0.3,0.7S80.2,54,80.5,54z"/>
	<path class="st0" d="M84,52c0-0.5,0.1-1,0.3-1.4s0.5-0.7,0.8-1s0.8-0.3,1.2-0.3c0.7,0,1.3,0.2,1.7,0.7s0.7,1.2,0.7,2v0.1
		c0,0.5-0.1,1-0.3,1.4c-0.2,0.4-0.5,0.7-0.8,1s-0.8,0.3-1.3,0.3c-0.7,0-1.3-0.2-1.7-0.7S84,52.9,84,52L84,52z M84.9,52.1
		c0,0.6,0.1,1.1,0.4,1.4s0.6,0.5,1.1,0.5c0.5,0,0.8-0.2,1.1-0.5c0.3-0.4,0.4-0.9,0.4-1.5c0-0.6-0.1-1-0.4-1.4
		c-0.3-0.4-0.6-0.5-1.1-0.5c-0.4,0-0.8,0.2-1.1,0.5S84.9,51.5,84.9,52.1z"/>
</g>
<g>
	<path class="st0" d="M172.4,52.1h-2.4v-0.7h2.4V52.1z"/>
	<path class="st0" d="M180.4,54.7h-4.7v-0.6l2.5-2.7c0.4-0.4,0.6-0.7,0.8-1c0.1-0.3,0.2-0.5,0.2-0.8c0-0.4-0.1-0.7-0.3-0.9
		s-0.5-0.4-0.9-0.4c-0.4,0-0.8,0.1-1,0.4c-0.2,0.3-0.4,0.6-0.4,1.1h-0.9c0-0.7,0.2-1.2,0.6-1.6c0.4-0.4,1-0.6,1.7-0.6
		c0.7,0,1.2,0.2,1.6,0.5c0.4,0.3,0.6,0.8,0.6,1.4c0,0.7-0.4,1.5-1.3,2.5l-1.9,2.1h3.6V54.7z"/>
	<path class="st0" d="M181.4,56.1l-0.5-0.4c0.3-0.4,0.5-0.9,0.5-1.3v-0.8h0.9v0.7c0,0.3-0.1,0.7-0.2,1S181.6,55.9,181.4,56.1z"/>
	<path class="st0" d="M186.8,47.6v0.8h-0.2c-0.7,0-1.3,0.2-1.7,0.6c-0.4,0.4-0.7,1-0.7,1.7c0.4-0.4,0.9-0.6,1.5-0.6
		c0.6,0,1.1,0.2,1.5,0.7c0.4,0.4,0.6,1,0.6,1.7c0,0.7-0.2,1.3-0.6,1.8c-0.4,0.4-0.9,0.7-1.6,0.7c-0.7,0-1.2-0.3-1.7-0.8
		c-0.4-0.5-0.6-1.2-0.6-2v-0.3c0-1.3,0.3-2.3,0.8-3c0.6-0.7,1.4-1,2.5-1.1H186.8z M185.6,50.8c-0.3,0-0.6,0.1-0.9,0.3
		c-0.3,0.2-0.4,0.4-0.5,0.7v0.3c0,0.6,0.1,1.1,0.4,1.4s0.6,0.5,1,0.5c0.4,0,0.7-0.1,1-0.4c0.2-0.3,0.3-0.7,0.3-1.2
		c0-0.5-0.1-0.9-0.4-1.2C186.3,51,186,50.8,185.6,50.8z"/>
	<path class="st0" d="M192.4,47.6v0.8h-0.2c-0.7,0-1.3,0.2-1.7,0.6c-0.4,0.4-0.7,1-0.7,1.7c0.4-0.4,0.9-0.6,1.5-0.6
		c0.6,0,1.1,0.2,1.5,0.7c0.4,0.4,0.6,1,0.6,1.7c0,0.7-0.2,1.3-0.6,1.8c-0.4,0.4-0.9,0.7-1.6,0.7c-0.7,0-1.2-0.3-1.7-0.8
		c-0.4-0.5-0.6-1.2-0.6-2v-0.3c0-1.3,0.3-2.3,0.8-3c0.6-0.7,1.4-1,2.5-1.1H192.4z M191.2,50.8c-0.3,0-0.6,0.1-0.9,0.3
		c-0.3,0.2-0.4,0.4-0.5,0.7v0.3c0,0.6,0.1,1.1,0.4,1.4s0.6,0.5,1,0.5c0.4,0,0.7-0.1,1-0.4c0.2-0.3,0.3-0.7,0.3-1.2
		c0-0.5-0.1-0.9-0.4-1.2C192,51,191.6,50.8,191.2,50.8z"/>
</g>
<line class="st2" x1="0" y1="62.8" x2="195.9" y2="62.8"/>
<g>
	<path class="st0" d="M1.8,78.2h3.4v0.8H0.8v-7.1h0.9V78.2z"/>
	<path class="st0" d="M9.1,78.4C8.8,78.8,8.2,79,7.6,79c-0.6,0-1-0.2-1.3-0.5c-0.3-0.3-0.4-0.8-0.4-1.5v-3.4h0.9v3.4
		c0,0.8,0.3,1.2,1,1.2c0.7,0,1.1-0.3,1.4-0.8v-3.8H10v5.3H9.1L9.1,78.4z"/>
	<path class="st0" d="M13.5,78.3c0.3,0,0.6-0.1,0.8-0.3s0.4-0.4,0.4-0.7h0.9c0,0.3-0.1,0.6-0.3,0.9s-0.4,0.5-0.8,0.7s-0.7,0.2-1,0.2
		c-0.7,0-1.3-0.2-1.7-0.7c-0.4-0.5-0.6-1.1-0.6-2v-0.2c0-0.5,0.1-1,0.3-1.4s0.5-0.7,0.8-0.9s0.8-0.3,1.3-0.3c0.6,0,1.1,0.2,1.5,0.5
		s0.6,0.8,0.6,1.4h-0.9c0-0.3-0.2-0.6-0.4-0.8c-0.2-0.2-0.5-0.3-0.9-0.3c-0.5,0-0.8,0.2-1.1,0.5c-0.3,0.3-0.4,0.8-0.4,1.4v0.2
		c0,0.6,0.1,1.1,0.4,1.4S13,78.3,13.5,78.3z"/>
	<path class="st0" d="M19.2,74.5c-0.1,0-0.3,0-0.4,0c-0.6,0-1,0.3-1.2,0.8v3.8h-0.9v-5.3h0.9l0,0.6c0.3-0.5,0.7-0.7,1.3-0.7
		c0.2,0,0.3,0,0.4,0.1V74.5z"/>
	<path class="st0" d="M19.7,76.2c0-0.5,0.1-1,0.3-1.4s0.5-0.7,0.8-1s0.8-0.3,1.2-0.3c0.7,0,1.3,0.2,1.7,0.7s0.7,1.2,0.7,2v0.1
		c0,0.5-0.1,1-0.3,1.4c-0.2,0.4-0.5,0.7-0.8,1S22.5,79,22.1,79c-0.7,0-1.3-0.2-1.7-0.7S19.7,77.1,19.7,76.2L19.7,76.2z M20.6,76.4
		c0,0.6,0.1,1.1,0.4,1.4s0.6,0.5,1.1,0.5c0.5,0,0.8-0.2,1.1-0.5c0.3-0.4,0.4-0.9,0.4-1.5c0-0.6-0.1-1-0.4-1.4
		c-0.3-0.4-0.6-0.5-1.1-0.5c-0.4,0-0.8,0.2-1.1,0.5S20.6,75.7,20.6,76.4z"/>
	<path class="st0" d="M28.2,78.9v-7.1h2.3c0.8,0,1.4,0.2,1.7,0.5s0.6,0.8,0.6,1.4c0,0.3-0.1,0.6-0.3,0.9c-0.2,0.3-0.4,0.5-0.8,0.6
		c0.4,0.1,0.7,0.3,0.9,0.6c0.2,0.3,0.3,0.7,0.3,1.1c0,0.6-0.2,1.1-0.6,1.5s-1,0.5-1.8,0.5H28.2z M29.2,74.9h1.4c0.4,0,0.7-0.1,1-0.3
		c0.2-0.2,0.4-0.5,0.4-0.8c0-0.4-0.1-0.7-0.3-0.9s-0.6-0.3-1-0.3h-1.4V74.9z M29.2,75.6v2.6h1.5c0.4,0,0.8-0.1,1-0.3
		c0.3-0.2,0.4-0.5,0.4-0.9c0-0.9-0.5-1.3-1.4-1.3H29.2z"/>
	<path class="st0" d="M36.9,74.5c-0.1,0-0.3,0-0.4,0c-0.6,0-1,0.3-1.2,0.8v3.8h-0.9v-5.3h0.9l0,0.6c0.3-0.5,0.7-0.7,1.3-0.7
		c0.2,0,0.3,0,0.4,0.1V74.5z"/>
	<path class="st0" d="M40.9,78.4c-0.4,0.4-0.9,0.6-1.5,0.6c-0.6,0-1-0.2-1.3-0.5c-0.3-0.3-0.4-0.8-0.4-1.5v-3.4h0.9v3.4
		c0,0.8,0.3,1.2,1,1.2c0.7,0,1.1-0.3,1.4-0.8v-3.8h0.9v5.3H41L40.9,78.4z"/>
	<path class="st0" d="M44.4,72.4v1.3h1v0.7h-1v3.3c0,0.2,0,0.4,0.1,0.5c0.1,0.1,0.2,0.2,0.4,0.2c0.1,0,0.2,0,0.4-0.1v0.7
		C45.2,79,45,79,44.7,79c-0.4,0-0.7-0.1-0.9-0.4s-0.3-0.6-0.3-1v-3.3h-1v-0.7h1v-1.3H44.4z"/>
	<path class="st0" d="M46.1,76.2c0-0.5,0.1-1,0.3-1.4s0.5-0.7,0.8-1s0.8-0.3,1.2-0.3c0.7,0,1.3,0.2,1.7,0.7s0.7,1.2,0.7,2v0.1
		c0,0.5-0.1,1-0.3,1.4c-0.2,0.4-0.5,0.7-0.8,1S49,79,48.5,79c-0.7,0-1.3-0.2-1.7-0.7S46.1,77.1,46.1,76.2L46.1,76.2z M47,76.4
		c0,0.6,0.1,1.1,0.4,1.4s0.6,0.5,1.1,0.5c0.5,0,0.8-0.2,1.1-0.5c0.3-0.4,0.4-0.9,0.4-1.5c0-0.6-0.1-1-0.4-1.4
		c-0.3-0.4-0.6-0.5-1.1-0.5c-0.4,0-0.8,0.2-1.1,0.5S47,75.7,47,76.4z"/>
</g>
<g>
	<path class="st0" d="M180.4,78.9h-4.7v-0.6l2.5-2.7c0.4-0.4,0.6-0.7,0.8-1c0.1-0.3,0.2-0.5,0.2-0.8c0-0.4-0.1-0.7-0.3-0.9
		s-0.5-0.4-0.9-0.4c-0.4,0-0.8,0.1-1,0.4c-0.2,0.3-0.4,0.6-0.4,1.1h-0.9c0-0.7,0.2-1.2,0.6-1.6c0.4-0.4,1-0.6,1.7-0.6
		c0.7,0,1.2,0.2,1.6,0.5c0.4,0.3,0.6,0.8,0.6,1.4c0,0.7-0.4,1.5-1.3,2.5l-1.9,2.1h3.6V78.9z"/>
	<path class="st0" d="M181.4,80.4l-0.5-0.4c0.3-0.4,0.5-0.9,0.5-1.3v-0.8h0.9v0.7c0,0.3-0.1,0.7-0.2,1S181.6,80.2,181.4,80.4z"/>
	<path class="st0" d="M186.8,71.8v0.8h-0.2c-0.7,0-1.3,0.2-1.7,0.6c-0.4,0.4-0.7,1-0.7,1.7c0.4-0.4,0.9-0.6,1.5-0.6
		c0.6,0,1.1,0.2,1.5,0.7c0.4,0.4,0.6,1,0.6,1.7c0,0.7-0.2,1.3-0.6,1.8c-0.4,0.4-0.9,0.7-1.6,0.7c-0.7,0-1.2-0.3-1.7-0.8
		c-0.4-0.5-0.6-1.2-0.6-2v-0.3c0-1.3,0.3-2.3,0.8-3c0.6-0.7,1.4-1,2.5-1.1H186.8z M185.6,75c-0.3,0-0.6,0.1-0.9,0.3
		c-0.3,0.2-0.4,0.4-0.5,0.7v0.3c0,0.6,0.1,1.1,0.4,1.4s0.6,0.5,1,0.5c0.4,0,0.7-0.1,1-0.4c0.2-0.3,0.3-0.7,0.3-1.2
		c0-0.5-0.1-0.9-0.4-1.2C186.3,75.2,186,75,185.6,75z"/>
	<path class="st0" d="M193.5,78.9h-4.7v-0.6l2.5-2.7c0.4-0.4,0.6-0.7,0.8-1c0.1-0.3,0.2-0.5,0.2-0.8c0-0.4-0.1-0.7-0.3-0.9
		s-0.5-0.4-0.9-0.4c-0.4,0-0.8,0.1-1,0.4c-0.2,0.3-0.4,0.6-0.4,1.1h-0.9c0-0.7,0.2-1.2,0.6-1.6c0.4-0.4,1-0.6,1.7-0.6
		c0.7,0,1.2,0.2,1.6,0.5c0.4,0.3,0.6,0.8,0.6,1.4c0,0.7-0.4,1.5-1.3,2.5l-1.9,2.1h3.6V78.9z"/>
</g>
<line class="st2" x1="0" y1="87.1" x2="195.9" y2="87.1"/>
<g>
	<path class="st0" d="M6.1,100.9c-0.1,0.8-0.4,1.3-0.8,1.7c-0.5,0.4-1.1,0.6-1.9,0.6c-0.8,0-1.5-0.3-2-0.9s-0.8-1.4-0.8-2.4v-0.7
		c0-0.7,0.1-1.2,0.4-1.7s0.6-0.9,1-1.2C2.4,96.1,2.9,96,3.4,96c0.8,0,1.4,0.2,1.8,0.6c0.5,0.4,0.7,1,0.8,1.8H5.1
		c-0.1-0.6-0.3-1-0.5-1.2s-0.7-0.4-1.1-0.4c-0.6,0-1.1,0.2-1.4,0.7c-0.3,0.4-0.5,1.1-0.5,1.9v0.7c0,0.8,0.2,1.4,0.5,1.8
		s0.8,0.7,1.4,0.7c0.5,0,0.9-0.1,1.2-0.4c0.3-0.2,0.5-0.6,0.6-1.2H6.1z"/>
	<path class="st0" d="M7,100.5c0-0.5,0.1-1,0.3-1.4s0.5-0.7,0.8-1s0.8-0.3,1.2-0.3c0.7,0,1.3,0.2,1.7,0.7s0.7,1.2,0.7,2v0.1
		c0,0.5-0.1,1-0.3,1.4c-0.2,0.4-0.5,0.7-0.8,1s-0.8,0.3-1.3,0.3c-0.7,0-1.3-0.2-1.7-0.7S7,101.4,7,100.5L7,100.5z M7.9,100.6
		c0,0.6,0.1,1.1,0.4,1.4s0.6,0.5,1.1,0.5c0.5,0,0.8-0.2,1.1-0.5c0.3-0.4,0.4-0.9,0.4-1.5c0-0.6-0.1-1-0.4-1.4
		c-0.3-0.4-0.6-0.5-1.1-0.5c-0.4,0-0.8,0.2-1.1,0.5S7.9,99.9,7.9,100.6z"/>
	<path class="st0" d="M13.7,97.9l0,0.6c0.4-0.5,0.9-0.7,1.6-0.7c0.7,0,1.2,0.3,1.5,0.8c0.2-0.3,0.4-0.5,0.7-0.6s0.6-0.2,1-0.2
		c1.2,0,1.7,0.6,1.8,1.8v3.5h-0.9v-3.5c0-0.4-0.1-0.7-0.3-0.8c-0.2-0.2-0.5-0.3-0.9-0.3c-0.3,0-0.6,0.1-0.8,0.3
		c-0.2,0.2-0.4,0.5-0.4,0.8v3.5h-0.9v-3.5c0-0.8-0.4-1.2-1.1-1.2c-0.6,0-1,0.3-1.2,0.8v3.9h-0.9v-5.3H13.7z"/>
	<path class="st0" d="M23.9,103.3c-0.7,0-1.3-0.2-1.7-0.7c-0.4-0.5-0.7-1.1-0.7-1.9v-0.2c0-0.5,0.1-1,0.3-1.4c0.2-0.4,0.5-0.7,0.8-1
		c0.4-0.2,0.7-0.3,1.2-0.3c0.7,0,1.2,0.2,1.6,0.7s0.6,1.1,0.6,1.9v0.4h-3.6c0,0.5,0.2,0.9,0.5,1.3c0.3,0.3,0.7,0.5,1.1,0.5
		c0.3,0,0.6-0.1,0.8-0.2s0.4-0.3,0.6-0.5l0.6,0.4C25.4,102.9,24.7,103.3,23.9,103.3z M23.7,98.5c-0.4,0-0.7,0.1-0.9,0.4
		c-0.2,0.3-0.4,0.6-0.5,1.1H25V100c0-0.5-0.1-0.8-0.4-1.1C24.4,98.6,24.1,98.5,23.7,98.5z"/>
	<path class="st0" d="M29.5,98.7c-0.1,0-0.3,0-0.4,0c-0.6,0-1,0.3-1.2,0.8v3.8H27v-5.3h0.9l0,0.6c0.3-0.5,0.7-0.7,1.3-0.7
		c0.2,0,0.3,0,0.4,0.1V98.7z"/>
	<path class="st0" d="M32.4,102.5c0.3,0,0.6-0.1,0.8-0.3s0.4-0.4,0.4-0.7h0.9c0,0.3-0.1,0.6-0.3,0.9s-0.4,0.5-0.8,0.7
		s-0.7,0.2-1,0.2c-0.7,0-1.3-0.2-1.7-0.7c-0.4-0.5-0.6-1.1-0.6-2v-0.2c0-0.5,0.1-1,0.3-1.4s0.5-0.7,0.8-0.9s0.8-0.3,1.3-0.3
		c0.6,0,1.1,0.2,1.5,0.5s0.6,0.8,0.6,1.4h-0.9c0-0.3-0.2-0.6-0.4-0.8c-0.2-0.2-0.5-0.3-0.9-0.3c-0.5,0-0.8,0.2-1.1,0.5
		c-0.3,0.3-0.4,0.8-0.4,1.4v0.2c0,0.6,0.1,1.1,0.4,1.4S31.9,102.5,32.4,102.5z"/>
	<path class="st0" d="M35.5,96.5c0-0.1,0-0.3,0.1-0.4S35.9,96,36,96s0.3,0.1,0.4,0.2s0.1,0.2,0.1,0.4s0,0.3-0.1,0.4S36.2,97,36,97
		s-0.3,0-0.4-0.1S35.5,96.6,35.5,96.5z M36.5,103.2h-0.9v-5.3h0.9V103.2z"/>
	<path class="st0" d="M41.2,103.2c-0.1-0.1-0.1-0.3-0.1-0.6c-0.4,0.4-0.9,0.7-1.5,0.7c-0.5,0-0.9-0.1-1.3-0.4
		c-0.3-0.3-0.5-0.7-0.5-1.1c0-0.5,0.2-1,0.6-1.3c0.4-0.3,1-0.5,1.8-0.5H41v-0.4c0-0.3-0.1-0.6-0.3-0.8c-0.2-0.2-0.5-0.3-0.8-0.3
		c-0.3,0-0.6,0.1-0.8,0.2s-0.3,0.4-0.3,0.6h-0.9c0-0.3,0.1-0.5,0.3-0.8c0.2-0.2,0.4-0.4,0.8-0.6s0.7-0.2,1.1-0.2
		c0.6,0,1.1,0.2,1.4,0.5c0.3,0.3,0.5,0.7,0.5,1.3v2.4c0,0.5,0.1,0.9,0.2,1.2v0.1H41.2z M39.7,102.5c0.3,0,0.6-0.1,0.8-0.2
		s0.4-0.3,0.6-0.6v-1.1h-0.7c-1.1,0-1.7,0.3-1.7,1c0,0.3,0.1,0.5,0.3,0.7S39.4,102.5,39.7,102.5z"/>
	<path class="st0" d="M44.3,103.2h-0.9v-7.5h0.9V103.2z"/>
	<path class="st0" d="M50.5,103.3c-0.7,0-1.3-0.2-1.7-0.7c-0.4-0.5-0.7-1.1-0.7-1.9v-0.2c0-0.5,0.1-1,0.3-1.4c0.2-0.4,0.5-0.7,0.8-1
		c0.4-0.2,0.7-0.3,1.2-0.3c0.7,0,1.2,0.2,1.6,0.7s0.6,1.1,0.6,1.9v0.4h-3.6c0,0.5,0.2,0.9,0.5,1.3c0.3,0.3,0.7,0.5,1.1,0.5
		c0.3,0,0.6-0.1,0.8-0.2s0.4-0.3,0.6-0.5l0.6,0.4C52,102.9,51.3,103.3,50.5,103.3z M50.3,98.5c-0.4,0-0.7,0.1-0.9,0.4
		c-0.2,0.3-0.4,0.6-0.5,1.1h2.6V100c0-0.5-0.1-0.8-0.4-1.1C51,98.6,50.7,98.5,50.3,98.5z"/>
	<path class="st0" d="M61.4,102.2c-0.2,0.3-0.6,0.6-1,0.8c-0.4,0.2-0.9,0.3-1.5,0.3c-0.6,0-1.1-0.1-1.5-0.4c-0.4-0.3-0.8-0.7-1-1.2
		s-0.4-1.1-0.4-1.7v-0.6c0-1.1,0.2-1.9,0.7-2.5s1.2-0.9,2.1-0.9c0.7,0,1.3,0.2,1.8,0.6c0.5,0.4,0.7,0.9,0.8,1.6h-0.9
		c-0.2-0.9-0.7-1.4-1.7-1.4c-0.6,0-1.1,0.2-1.4,0.7s-0.5,1.1-0.5,1.9v0.6c0,0.8,0.2,1.4,0.5,1.9s0.9,0.7,1.5,0.7
		c0.4,0,0.7,0,0.9-0.1s0.5-0.2,0.7-0.4v-1.6h-1.6v-0.8h2.6V102.2z"/>
	<path class="st0" d="M65,103.3c-0.7,0-1.3-0.2-1.7-0.7c-0.4-0.5-0.7-1.1-0.7-1.9v-0.2c0-0.5,0.1-1,0.3-1.4c0.2-0.4,0.5-0.7,0.8-1
		c0.4-0.2,0.7-0.3,1.2-0.3c0.7,0,1.2,0.2,1.6,0.7s0.6,1.1,0.6,1.9v0.4h-3.6c0,0.5,0.2,0.9,0.5,1.3c0.3,0.3,0.7,0.5,1.1,0.5
		c0.3,0,0.6-0.1,0.8-0.2s0.4-0.3,0.6-0.5l0.6,0.4C66.6,102.9,65.9,103.3,65,103.3z M64.9,98.5c-0.4,0-0.7,0.1-0.9,0.4
		c-0.2,0.3-0.4,0.6-0.5,1.1h2.6V100c0-0.5-0.1-0.8-0.4-1.1C65.6,98.6,65.3,98.5,64.9,98.5z"/>
	<path class="st0" d="M71.2,101.8c0-0.2-0.1-0.4-0.3-0.6c-0.2-0.1-0.5-0.3-1-0.3s-0.8-0.2-1.1-0.4s-0.5-0.3-0.6-0.5
		s-0.2-0.4-0.2-0.7c0-0.4,0.2-0.8,0.5-1.1s0.8-0.4,1.4-0.4c0.6,0,1.1,0.2,1.5,0.5s0.6,0.7,0.6,1.2h-0.9c0-0.2-0.1-0.5-0.3-0.6
		s-0.5-0.3-0.8-0.3c-0.3,0-0.6,0.1-0.8,0.2S69,99.1,69,99.3c0,0.2,0.1,0.4,0.3,0.5s0.5,0.2,0.9,0.3s0.8,0.2,1.1,0.4s0.5,0.3,0.6,0.5
		c0.1,0.2,0.2,0.4,0.2,0.7c0,0.5-0.2,0.9-0.6,1.1c-0.4,0.3-0.9,0.4-1.5,0.4c-0.4,0-0.8-0.1-1.1-0.2s-0.6-0.4-0.8-0.6
		c-0.2-0.3-0.3-0.6-0.3-0.9h0.9c0,0.3,0.1,0.5,0.4,0.7c0.2,0.2,0.5,0.3,0.9,0.3c0.3,0,0.6-0.1,0.8-0.2
		C71.1,102.2,71.2,102,71.2,101.8z"/>
	<path class="st0" d="M74.5,96.6v1.3h1v0.7h-1v3.3c0,0.2,0,0.4,0.1,0.5c0.1,0.1,0.2,0.2,0.4,0.2c0.1,0,0.2,0,0.4-0.1v0.7
		c-0.2,0.1-0.5,0.1-0.7,0.1c-0.4,0-0.7-0.1-0.9-0.4s-0.3-0.6-0.3-1v-3.3h-1v-0.7h1v-1.3H74.5z"/>
	<path class="st0" d="M79.8,103.2c-0.1-0.1-0.1-0.3-0.1-0.6c-0.4,0.4-0.9,0.7-1.5,0.7c-0.5,0-0.9-0.1-1.3-0.4
		c-0.3-0.3-0.5-0.7-0.5-1.1c0-0.5,0.2-1,0.6-1.3c0.4-0.3,1-0.5,1.8-0.5h0.9v-0.4c0-0.3-0.1-0.6-0.3-0.8c-0.2-0.2-0.5-0.3-0.8-0.3
		c-0.3,0-0.6,0.1-0.8,0.2s-0.3,0.4-0.3,0.6h-0.9c0-0.3,0.1-0.5,0.3-0.8c0.2-0.2,0.4-0.4,0.8-0.6s0.7-0.2,1.1-0.2
		c0.6,0,1.1,0.2,1.4,0.5c0.3,0.3,0.5,0.7,0.5,1.3v2.4c0,0.5,0.1,0.9,0.2,1.2v0.1H79.8z M80.5,95.8c0,0.4-0.1,0.6-0.3,0.9
		S79.7,97,79.4,97c-0.1,0-0.2,0-0.3,0s-0.2-0.1-0.4-0.2s-0.3-0.2-0.3-0.2c-0.1,0-0.2,0-0.2,0c-0.1,0-0.2,0.1-0.3,0.2
		c-0.1,0.1-0.1,0.2-0.1,0.4L77,97c0-0.3,0.1-0.6,0.3-0.9s0.4-0.3,0.7-0.3c0.1,0,0.2,0,0.3,0s0.2,0.1,0.4,0.2s0.3,0.2,0.4,0.2
		s0.2,0,0.3,0c0.1,0,0.3-0.1,0.3-0.2s0.1-0.2,0.1-0.4L80.5,95.8z M78.3,102.5c0.3,0,0.6-0.1,0.8-0.2s0.4-0.3,0.6-0.6v-1.1H79
		c-1.1,0-1.7,0.3-1.7,1c0,0.3,0.1,0.5,0.3,0.7S78,102.5,78.3,102.5z"/>
	<path class="st0" d="M81.8,100.5c0-0.5,0.1-1,0.3-1.4s0.5-0.7,0.8-1s0.8-0.3,1.2-0.3c0.7,0,1.3,0.2,1.7,0.7s0.7,1.2,0.7,2v0.1
		c0,0.5-0.1,1-0.3,1.4c-0.2,0.4-0.5,0.7-0.8,1s-0.8,0.3-1.3,0.3c-0.7,0-1.3-0.2-1.7-0.7S81.8,101.4,81.8,100.5L81.8,100.5z
		 M82.7,100.6c0,0.6,0.1,1.1,0.4,1.4s0.6,0.5,1.1,0.5c0.5,0,0.8-0.2,1.1-0.5c0.3-0.4,0.4-0.9,0.4-1.5c0-0.6-0.1-1-0.4-1.4
		c-0.3-0.4-0.6-0.5-1.1-0.5c-0.4,0-0.8,0.2-1.1,0.5S82.7,99.9,82.7,100.6z"/>
</g>
<g>
	<path class="st0" d="M172.4,100.5h-2.4v-0.7h2.4V100.5z"/>
	<path class="st0" d="M177,99.2h0.7c0.4,0,0.8-0.1,1-0.3s0.4-0.5,0.4-0.9c0-0.8-0.4-1.2-1.2-1.2c-0.4,0-0.7,0.1-0.9,0.3
		c-0.2,0.2-0.3,0.5-0.3,0.9h-0.9c0-0.6,0.2-1,0.6-1.4c0.4-0.4,0.9-0.6,1.6-0.6c0.7,0,1.2,0.2,1.6,0.5s0.6,0.8,0.6,1.5
		c0,0.3-0.1,0.6-0.3,0.9s-0.5,0.5-0.8,0.6c0.4,0.1,0.7,0.3,0.9,0.6c0.2,0.3,0.3,0.6,0.3,1c0,0.6-0.2,1.1-0.6,1.5
		c-0.4,0.4-1,0.6-1.6,0.6c-0.7,0-1.2-0.2-1.6-0.5c-0.4-0.4-0.6-0.8-0.6-1.4h0.9c0,0.4,0.1,0.7,0.4,0.9s0.6,0.3,1,0.3
		c0.4,0,0.8-0.1,1-0.3c0.2-0.2,0.3-0.6,0.3-1c0-0.4-0.1-0.7-0.4-1s-0.6-0.3-1.1-0.3H177V99.2z"/>
	<path class="st0" d="M181.4,104.6l-0.5-0.4c0.3-0.4,0.5-0.9,0.5-1.3v-0.8h0.9v0.7c0,0.3-0.1,0.7-0.2,1S181.6,104.4,181.4,104.6z"/>
	<path class="st0" d="M187.9,96.6l-2.9,6.6H184l2.9-6.4h-3.8V96h4.8V96.6z"/>
	<path class="st0" d="M193.5,103.2h-4.7v-0.6l2.5-2.7c0.4-0.4,0.6-0.7,0.8-1c0.1-0.3,0.2-0.5,0.2-0.8c0-0.4-0.1-0.7-0.3-0.9
		s-0.5-0.4-0.9-0.4c-0.4,0-0.8,0.1-1,0.4c-0.2,0.3-0.4,0.6-0.4,1.1h-0.9c0-0.7,0.2-1.2,0.6-1.6c0.4-0.4,1-0.6,1.7-0.6
		c0.7,0,1.2,0.2,1.6,0.5c0.4,0.3,0.6,0.8,0.6,1.4c0,0.7-0.4,1.5-1.3,2.5l-1.9,2.1h3.6V103.2z"/>
</g>
<line class="st2" x1="0" y1="111.3" x2="195.9" y2="111.3"/>
<g>
	<path class="st0" d="M4.8,124.1H1.8v2.5h3.6v0.8H0.8v-7.1h4.5v0.8H1.8v2.3h3.1V124.1z"/>
	<path class="st0" d="M6.5,127.4v-7.1h2.3c0.8,0,1.4,0.2,1.7,0.5s0.6,0.8,0.6,1.4c0,0.3-0.1,0.6-0.3,0.9c-0.2,0.3-0.4,0.5-0.8,0.6
		c0.4,0.1,0.7,0.3,0.9,0.6c0.2,0.3,0.3,0.7,0.3,1.1c0,0.6-0.2,1.1-0.6,1.5s-1,0.5-1.8,0.5H6.5z M7.4,123.3h1.4c0.4,0,0.7-0.1,1-0.3
		c0.2-0.2,0.4-0.5,0.4-0.8c0-0.4-0.1-0.7-0.3-0.9s-0.6-0.3-1-0.3H7.4V123.3z M7.4,124v2.6H9c0.4,0,0.8-0.1,1-0.3
		c0.3-0.2,0.4-0.5,0.4-0.9c0-0.9-0.5-1.3-1.4-1.3H7.4z"/>
	<path class="st0" d="M13.7,127.4h-0.9v-7.1h0.9V127.4z"/>
	<path class="st0" d="M20.2,121h-2.3v6.3H17V121h-2.3v-0.8h5.5V121z"/>
	<path class="st0" d="M22.3,127.4h-0.9v-7.1h0.9V127.4z"/>
	<path class="st0" d="M24,127.4v-7.1h2c0.6,0,1.2,0.1,1.6,0.4s0.8,0.7,1.1,1.2s0.4,1.1,0.4,1.7v0.5c0,0.7-0.1,1.3-0.4,1.8
		s-0.6,0.9-1.1,1.2s-1,0.4-1.7,0.4H24z M24.9,121v5.6h1c0.7,0,1.3-0.2,1.7-0.7c0.4-0.4,0.6-1.1,0.6-1.9v-0.4c0-0.8-0.2-1.4-0.6-1.9
		S26.7,121,26,121H24.9z"/>
	<path class="st0" d="M34.4,125.5h-3l-0.7,1.9h-1l2.7-7.1h0.8l2.7,7.1h-1L34.4,125.5z M31.7,124.7h2.4l-1.2-3.3L31.7,124.7z"/>
</g>
<g>
	<path class="st0" d="M172.4,124.7h-2.4V124h2.4V124.7z"/>
	<path class="st0" d="M178.7,127.4h-0.9v-6l-1.8,0.7v-0.8l2.6-1h0.1V127.4z"/>
	<path class="st0" d="M181.4,128.8l-0.5-0.4c0.3-0.4,0.5-0.9,0.5-1.3v-0.8h0.9v0.7c0,0.3-0.1,0.7-0.2,1S181.6,128.6,181.4,128.8z"/>
	<path class="st0" d="M186.2,127.4h-0.9v-6l-1.8,0.7v-0.8l2.6-1h0.1V127.4z"/>
	<path class="st0" d="M191.9,127.4h-0.9v-6l-1.8,0.7v-0.8l2.6-1h0.1V127.4z"/>
</g>
<line class="st2" x1="0" y1="135.5" x2="195.9" y2="135.5"/>
<g>
	<path class="st0" d="M0.8,151.6v-7.1h2c0.6,0,1.2,0.1,1.6,0.4s0.8,0.7,1.1,1.2s0.4,1.1,0.4,1.7v0.5c0,0.7-0.1,1.3-0.4,1.8
		s-0.6,0.9-1.1,1.2s-1,0.4-1.7,0.4H0.8z M1.8,145.2v5.6h1c0.7,0,1.3-0.2,1.7-0.7c0.4-0.4,0.6-1.1,0.6-1.9v-0.4
		c0-0.8-0.2-1.4-0.6-1.9s-0.9-0.7-1.6-0.7H1.8z"/>
	<path class="st0" d="M9.4,151.7c-0.7,0-1.3-0.2-1.7-0.7c-0.4-0.5-0.7-1.1-0.7-1.9v-0.2c0-0.5,0.1-1,0.3-1.4c0.2-0.4,0.5-0.7,0.8-1
		c0.4-0.2,0.7-0.3,1.2-0.3c0.7,0,1.2,0.2,1.6,0.7s0.6,1.1,0.6,1.9v0.4H7.9c0,0.5,0.2,0.9,0.5,1.3c0.3,0.3,0.7,0.5,1.1,0.5
		c0.3,0,0.6-0.1,0.8-0.2s0.4-0.3,0.6-0.5l0.6,0.4C11,151.4,10.3,151.7,9.4,151.7z M9.3,147c-0.4,0-0.7,0.1-0.9,0.4
		c-0.2,0.3-0.4,0.6-0.5,1.1h2.6v-0.1c0-0.5-0.1-0.8-0.4-1.1C10,147.1,9.7,147,9.3,147z"/>
	<path class="st0" d="M17,149c0,0.8-0.2,1.5-0.6,1.9s-0.9,0.7-1.5,0.7c-0.6,0-1.1-0.2-1.5-0.6v2.5h-0.9v-7.3h0.8l0,0.6
		c0.4-0.5,0.9-0.7,1.5-0.7c0.6,0,1.1,0.2,1.5,0.7S17,148.1,17,149L17,149z M16.1,148.9c0-0.6-0.1-1.1-0.4-1.4s-0.6-0.5-1-0.5
		c-0.5,0-1,0.2-1.2,0.7v2.5c0.3,0.5,0.7,0.7,1.2,0.7c0.4,0,0.8-0.2,1-0.5C16,150.1,16.1,149.6,16.1,148.9z"/>
	<path class="st0" d="M20.7,147.1c-0.1,0-0.3,0-0.4,0c-0.6,0-1,0.3-1.2,0.8v3.8h-0.9v-5.3H19l0,0.6c0.3-0.5,0.7-0.7,1.3-0.7
		c0.2,0,0.3,0,0.4,0.1V147.1z"/>
	<path class="st0" d="M23.6,151.7c-0.7,0-1.3-0.2-1.7-0.7c-0.4-0.5-0.7-1.1-0.7-1.9v-0.2c0-0.5,0.1-1,0.3-1.4c0.2-0.4,0.5-0.7,0.8-1
		c0.4-0.2,0.7-0.3,1.2-0.3c0.7,0,1.2,0.2,1.6,0.7s0.6,1.1,0.6,1.9v0.4h-3.6c0,0.5,0.2,0.9,0.5,1.3c0.3,0.3,0.7,0.5,1.1,0.5
		c0.3,0,0.6-0.1,0.8-0.2s0.4-0.3,0.6-0.5l0.6,0.4C25.2,151.4,24.5,151.7,23.6,151.7z M23.5,147c-0.4,0-0.7,0.1-0.9,0.4
		c-0.2,0.3-0.4,0.6-0.5,1.1h2.6v-0.1c0-0.5-0.1-0.8-0.4-1.1C24.2,147.1,23.9,147,23.5,147z"/>
	<path class="st0" d="M28.9,151c0.3,0,0.6-0.1,0.8-0.3s0.4-0.4,0.4-0.7H31c0,0.3-0.1,0.6-0.3,0.9s-0.4,0.5-0.8,0.7s-0.7,0.2-1,0.2
		c-0.7,0-1.3-0.2-1.7-0.7c-0.4-0.5-0.6-1.1-0.6-2v-0.2c0-0.5,0.1-1,0.3-1.4s0.5-0.7,0.8-0.9s0.8-0.3,1.3-0.3c0.6,0,1.1,0.2,1.5,0.5
		s0.6,0.8,0.6,1.4h-0.9c0-0.3-0.2-0.6-0.4-0.8c-0.2-0.2-0.5-0.3-0.9-0.3c-0.5,0-0.8,0.2-1.1,0.5c-0.3,0.3-0.4,0.8-0.4,1.4v0.2
		c0,0.6,0.1,1.1,0.4,1.4S28.4,151,28.9,151z"/>
	<path class="st0" d="M32,144.9c0-0.1,0-0.3,0.1-0.4s0.2-0.2,0.4-0.2s0.3,0.1,0.4,0.2s0.1,0.2,0.1,0.4s0,0.3-0.1,0.4
		s-0.2,0.1-0.4,0.1s-0.3,0-0.4-0.1S32,145.1,32,144.9z M33,151.6h-0.9v-5.3H33V151.6z"/>
	<path class="st0" d="M37.7,151.6c-0.1-0.1-0.1-0.3-0.1-0.6c-0.4,0.4-0.9,0.7-1.5,0.7c-0.5,0-0.9-0.1-1.3-0.4
		c-0.3-0.3-0.5-0.7-0.5-1.1c0-0.5,0.2-1,0.6-1.3c0.4-0.3,1-0.5,1.8-0.5h0.9V148c0-0.3-0.1-0.6-0.3-0.8c-0.2-0.2-0.5-0.3-0.8-0.3
		c-0.3,0-0.6,0.1-0.8,0.2s-0.3,0.4-0.3,0.6h-0.9c0-0.3,0.1-0.5,0.3-0.8c0.2-0.2,0.4-0.4,0.8-0.6s0.7-0.2,1.1-0.2
		c0.6,0,1.1,0.2,1.4,0.5c0.3,0.3,0.5,0.7,0.5,1.3v2.4c0,0.5,0.1,0.9,0.2,1.2v0.1H37.7z M36.2,150.9c0.3,0,0.6-0.1,0.8-0.2
		s0.4-0.3,0.6-0.6V149h-0.7c-1.1,0-1.7,0.3-1.7,1c0,0.3,0.1,0.5,0.3,0.7S35.9,150.9,36.2,150.9z"/>
	<path class="st0" d="M42,151c0.3,0,0.6-0.1,0.8-0.3s0.4-0.4,0.4-0.7h0.9c0,0.3-0.1,0.6-0.3,0.9s-0.4,0.5-0.8,0.7s-0.7,0.2-1,0.2
		c-0.7,0-1.3-0.2-1.7-0.7c-0.4-0.5-0.6-1.1-0.6-2v-0.2c0-0.5,0.1-1,0.3-1.4s0.5-0.7,0.8-0.9s0.8-0.3,1.3-0.3c0.6,0,1.1,0.2,1.5,0.5
		s0.6,0.8,0.6,1.4h-0.9c0-0.3-0.2-0.6-0.4-0.8c-0.2-0.2-0.5-0.3-0.9-0.3c-0.5,0-0.8,0.2-1.1,0.5c-0.3,0.3-0.4,0.8-0.4,1.4v0.2
		c0,0.6,0.1,1.1,0.4,1.4S41.5,151,42,151z M42.1,151.6l-0.1,0.3c0.5,0.1,0.7,0.4,0.7,0.8c0,0.3-0.1,0.6-0.4,0.8
		c-0.3,0.2-0.6,0.3-1.1,0.3l0-0.5c0.3,0,0.5,0,0.6-0.1s0.2-0.2,0.2-0.4c0-0.1-0.1-0.2-0.2-0.3s-0.3-0.1-0.6-0.1l0.2-0.7H42.1z"/>
	<path class="st0" d="M48.3,151.6c-0.1-0.1-0.1-0.3-0.1-0.6c-0.4,0.4-0.9,0.7-1.5,0.7c-0.5,0-0.9-0.1-1.3-0.4
		c-0.3-0.3-0.5-0.7-0.5-1.1c0-0.5,0.2-1,0.6-1.3c0.4-0.3,1-0.5,1.8-0.5h0.9V148c0-0.3-0.1-0.6-0.3-0.8c-0.2-0.2-0.5-0.3-0.8-0.3
		c-0.3,0-0.6,0.1-0.8,0.2s-0.3,0.4-0.3,0.6H45c0-0.3,0.1-0.5,0.3-0.8c0.2-0.2,0.4-0.4,0.8-0.6s0.7-0.2,1.1-0.2
		c0.6,0,1.1,0.2,1.4,0.5c0.3,0.3,0.5,0.7,0.5,1.3v2.4c0,0.5,0.1,0.9,0.2,1.2v0.1H48.3z M49,144.2c0,0.4-0.1,0.6-0.3,0.9
		s-0.5,0.3-0.7,0.3c-0.1,0-0.2,0-0.3,0s-0.2-0.1-0.4-0.2s-0.3-0.2-0.3-0.2c-0.1,0-0.2,0-0.2,0c-0.1,0-0.2,0.1-0.3,0.2
		c-0.1,0.1-0.1,0.2-0.1,0.4l-0.6,0c0-0.3,0.1-0.6,0.3-0.9s0.4-0.3,0.7-0.3c0.1,0,0.2,0,0.3,0s0.2,0.1,0.4,0.2s0.3,0.2,0.4,0.2
		s0.2,0,0.3,0c0.1,0,0.3-0.1,0.3-0.2s0.1-0.2,0.1-0.4L49,144.2z M46.8,150.9c0.3,0,0.6-0.1,0.8-0.2s0.4-0.3,0.6-0.6V149h-0.7
		c-1.1,0-1.7,0.3-1.7,1c0,0.3,0.1,0.5,0.3,0.7S46.5,150.9,46.8,150.9z"/>
	<path class="st0" d="M50.3,148.9c0-0.5,0.1-1,0.3-1.4s0.5-0.7,0.8-1s0.8-0.3,1.2-0.3c0.7,0,1.3,0.2,1.7,0.7s0.7,1.2,0.7,2v0.1
		c0,0.5-0.1,1-0.3,1.4c-0.2,0.4-0.5,0.7-0.8,1s-0.8,0.3-1.3,0.3c-0.7,0-1.3-0.2-1.7-0.7S50.3,149.8,50.3,148.9L50.3,148.9z
		 M51.2,149c0,0.6,0.1,1.1,0.4,1.4s0.6,0.5,1.1,0.5c0.5,0,0.8-0.2,1.1-0.5c0.3-0.4,0.4-0.9,0.4-1.5c0-0.6-0.1-1-0.4-1.4
		c-0.3-0.4-0.6-0.5-1.1-0.5c-0.4,0-0.8,0.2-1.1,0.5S51.2,148.3,51.2,149z"/>
</g>
<g>
	<path class="st0" d="M172.4,148.9h-2.4v-0.7h2.4V148.9z"/>
	<path class="st0" d="M180.2,148.6c0,1.1-0.2,1.8-0.5,2.4s-0.9,0.8-1.7,0.8c-0.8,0-1.3-0.3-1.7-0.8c-0.4-0.5-0.6-1.3-0.6-2.3v-1.2
		c0-1,0.2-1.8,0.5-2.3s0.9-0.8,1.7-0.8c0.8,0,1.3,0.2,1.7,0.7c0.4,0.5,0.5,1.2,0.6,2.3V148.6z M179.3,147.3c0-0.8-0.1-1.3-0.3-1.7
		c-0.2-0.4-0.6-0.5-1-0.5c-0.5,0-0.8,0.2-1,0.5c-0.2,0.3-0.3,0.9-0.3,1.6v1.4c0,0.8,0.1,1.3,0.3,1.7c0.2,0.4,0.6,0.5,1,0.5
		c0.4,0,0.8-0.2,1-0.5c0.2-0.3,0.3-0.9,0.3-1.6V147.3z"/>
	<path class="st0" d="M181.4,153l-0.5-0.4c0.3-0.4,0.5-0.9,0.5-1.3v-0.8h0.9v0.7c0,0.3-0.1,0.7-0.2,1S181.6,152.8,181.4,153z"/>
	<path class="st0" d="M184.6,147.6h0.7c0.4,0,0.8-0.1,1-0.3s0.4-0.5,0.4-0.9c0-0.8-0.4-1.2-1.2-1.2c-0.4,0-0.7,0.1-0.9,0.3
		c-0.2,0.2-0.3,0.5-0.3,0.9h-0.9c0-0.6,0.2-1,0.6-1.4c0.4-0.4,0.9-0.6,1.6-0.6c0.7,0,1.2,0.2,1.6,0.5s0.6,0.8,0.6,1.5
		c0,0.3-0.1,0.6-0.3,0.9s-0.5,0.5-0.8,0.6c0.4,0.1,0.7,0.3,0.9,0.6c0.2,0.3,0.3,0.6,0.3,1c0,0.6-0.2,1.1-0.6,1.5
		c-0.4,0.4-1,0.6-1.6,0.6c-0.7,0-1.2-0.2-1.6-0.5c-0.4-0.4-0.6-0.8-0.6-1.4h0.9c0,0.4,0.1,0.7,0.4,0.9s0.6,0.3,1,0.3
		c0.4,0,0.8-0.1,1-0.3c0.2-0.2,0.3-0.6,0.3-1c0-0.4-0.1-0.7-0.4-1s-0.6-0.3-1.1-0.3h-0.7V147.6z"/>
	<path class="st0" d="M193.5,145l-2.9,6.6h-0.9l2.9-6.4h-3.8v-0.7h4.8V145z"/>
</g>
<line class="st2" x1="0" y1="159.7" x2="195.9" y2="159.7"/>
<g>
	<path class="st0" d="M1.8,175h3.4v0.8H0.8v-7.1h0.9V175z"/>
	<path class="st0" d="M9.1,175.3c-0.4,0.4-0.9,0.6-1.5,0.6c-0.6,0-1-0.2-1.3-0.5c-0.3-0.3-0.4-0.8-0.4-1.5v-3.4h0.9v3.4
		c0,0.8,0.3,1.2,1,1.2c0.7,0,1.1-0.3,1.4-0.8v-3.8H10v5.3H9.1L9.1,175.3z"/>
	<path class="st0" d="M13.5,175.2c0.3,0,0.6-0.1,0.8-0.3s0.4-0.4,0.4-0.7h0.9c0,0.3-0.1,0.6-0.3,0.9s-0.4,0.5-0.8,0.7
		s-0.7,0.2-1,0.2c-0.7,0-1.3-0.2-1.7-0.7c-0.4-0.5-0.6-1.1-0.6-2v-0.2c0-0.5,0.1-1,0.3-1.4s0.5-0.7,0.8-0.9s0.8-0.3,1.3-0.3
		c0.6,0,1.1,0.2,1.5,0.5s0.6,0.8,0.6,1.4h-0.9c0-0.3-0.2-0.6-0.4-0.8c-0.2-0.2-0.5-0.3-0.9-0.3c-0.5,0-0.8,0.2-1.1,0.5
		c-0.3,0.3-0.4,0.8-0.4,1.4v0.2c0,0.6,0.1,1.1,0.4,1.4S13,175.2,13.5,175.2z"/>
	<path class="st0" d="M19.2,171.3c-0.1,0-0.3,0-0.4,0c-0.6,0-1,0.3-1.2,0.8v3.8h-0.9v-5.3h0.9l0,0.6c0.3-0.5,0.7-0.7,1.3-0.7
		c0.2,0,0.3,0,0.4,0.1V171.3z"/>
	<path class="st0" d="M19.7,173.1c0-0.5,0.1-1,0.3-1.4s0.5-0.7,0.8-1s0.8-0.3,1.2-0.3c0.7,0,1.3,0.2,1.7,0.7s0.7,1.2,0.7,2v0.1
		c0,0.5-0.1,1-0.3,1.4c-0.2,0.4-0.5,0.7-0.8,1s-0.8,0.3-1.3,0.3c-0.7,0-1.3-0.2-1.7-0.7S19.7,174,19.7,173.1L19.7,173.1z
		 M20.6,173.2c0,0.6,0.1,1.1,0.4,1.4s0.6,0.5,1.1,0.5c0.5,0,0.8-0.2,1.1-0.5c0.3-0.4,0.4-0.9,0.4-1.5c0-0.6-0.1-1-0.4-1.4
		c-0.3-0.4-0.6-0.5-1.1-0.5c-0.4,0-0.8,0.2-1.1,0.5S20.6,172.6,20.6,173.2z"/>
	<path class="st0" d="M27.8,173.1c0-0.5,0.1-1,0.3-1.4s0.5-0.7,0.8-1s0.8-0.3,1.2-0.3c0.7,0,1.3,0.2,1.7,0.7s0.7,1.2,0.7,2v0.1
		c0,0.5-0.1,1-0.3,1.4c-0.2,0.4-0.5,0.7-0.8,1s-0.8,0.3-1.3,0.3c-0.7,0-1.3-0.2-1.7-0.7S27.8,174,27.8,173.1L27.8,173.1z
		 M28.7,173.2c0,0.6,0.1,1.1,0.4,1.4s0.6,0.5,1.1,0.5c0.5,0,0.8-0.2,1.1-0.5c0.3-0.4,0.4-0.9,0.4-1.5c0-0.6-0.1-1-0.4-1.4
		c-0.3-0.4-0.6-0.5-1.1-0.5c-0.4,0-0.8,0.2-1.1,0.5S28.7,172.6,28.7,173.2z"/>
	<path class="st0" d="M38.2,173.2c0,0.8-0.2,1.5-0.6,1.9s-0.9,0.7-1.5,0.7c-0.6,0-1.1-0.2-1.5-0.6v2.5h-0.9v-7.3h0.8l0,0.6
		c0.4-0.5,0.9-0.7,1.5-0.7c0.6,0,1.1,0.2,1.5,0.7S38.2,172.3,38.2,173.2L38.2,173.2z M37.3,173.1c0-0.6-0.1-1.1-0.4-1.4
		s-0.6-0.5-1-0.5c-0.5,0-1,0.2-1.2,0.7v2.5c0.3,0.5,0.7,0.7,1.2,0.7c0.4,0,0.8-0.2,1-0.5C37.2,174.3,37.3,173.8,37.3,173.1z"/>
	<path class="st0" d="M41.6,175.9c-0.7,0-1.3-0.2-1.7-0.7c-0.4-0.5-0.7-1.1-0.7-1.9v-0.2c0-0.5,0.1-1,0.3-1.4c0.2-0.4,0.5-0.7,0.8-1
		c0.4-0.2,0.7-0.3,1.2-0.3c0.7,0,1.2,0.2,1.6,0.7s0.6,1.1,0.6,1.9v0.4h-3.6c0,0.5,0.2,0.9,0.5,1.3c0.3,0.3,0.7,0.5,1.1,0.5
		c0.3,0,0.6-0.1,0.8-0.2s0.4-0.3,0.6-0.5l0.6,0.4C43.1,175.6,42.5,175.9,41.6,175.9z M41.5,171.2c-0.4,0-0.7,0.1-0.9,0.4
		c-0.2,0.3-0.4,0.6-0.5,1.1h2.6v-0.1c0-0.5-0.1-0.8-0.4-1.1C42.1,171.3,41.8,171.2,41.5,171.2z"/>
	<path class="st0" d="M47.2,171.3c-0.1,0-0.3,0-0.4,0c-0.6,0-1,0.3-1.2,0.8v3.8h-0.9v-5.3h0.9l0,0.6c0.3-0.5,0.7-0.7,1.3-0.7
		c0.2,0,0.3,0,0.4,0.1V171.3z"/>
	<path class="st0" d="M51.1,175.8c-0.1-0.1-0.1-0.3-0.1-0.6c-0.4,0.4-0.9,0.7-1.5,0.7c-0.5,0-0.9-0.1-1.3-0.4
		c-0.3-0.3-0.5-0.7-0.5-1.1c0-0.5,0.2-1,0.6-1.3c0.4-0.3,1-0.5,1.8-0.5H51v-0.4c0-0.3-0.1-0.6-0.3-0.8c-0.2-0.2-0.5-0.3-0.8-0.3
		c-0.3,0-0.6,0.1-0.8,0.2s-0.3,0.4-0.3,0.6h-0.9c0-0.3,0.1-0.5,0.3-0.8c0.2-0.2,0.4-0.4,0.8-0.6s0.7-0.2,1.1-0.2
		c0.6,0,1.1,0.2,1.4,0.5c0.3,0.3,0.5,0.7,0.5,1.3v2.4c0,0.5,0.1,0.9,0.2,1.2v0.1H51.1z M49.6,175.1c0.3,0,0.6-0.1,0.8-0.2
		s0.4-0.3,0.6-0.6v-1.1h-0.7c-1.1,0-1.7,0.3-1.7,1c0,0.3,0.1,0.5,0.3,0.7S49.3,175.1,49.6,175.1z"/>
	<path class="st0" d="M55.4,175.2c0.3,0,0.6-0.1,0.8-0.3s0.4-0.4,0.4-0.7h0.9c0,0.3-0.1,0.6-0.3,0.9s-0.4,0.5-0.8,0.7
		s-0.7,0.2-1,0.2c-0.7,0-1.3-0.2-1.7-0.7c-0.4-0.5-0.6-1.1-0.6-2v-0.2c0-0.5,0.1-1,0.3-1.4s0.5-0.7,0.8-0.9s0.8-0.3,1.3-0.3
		c0.6,0,1.1,0.2,1.5,0.5s0.6,0.8,0.6,1.4h-0.9c0-0.3-0.2-0.6-0.4-0.8c-0.2-0.2-0.5-0.3-0.9-0.3c-0.5,0-0.8,0.2-1.1,0.5
		c-0.3,0.3-0.4,0.8-0.4,1.4v0.2c0,0.6,0.1,1.1,0.4,1.4S55,175.2,55.4,175.2z"/>
	<path class="st0" d="M58.6,169.1c0-0.1,0-0.3,0.1-0.4s0.2-0.2,0.4-0.2s0.3,0.1,0.4,0.2s0.1,0.2,0.1,0.4s0,0.3-0.1,0.4
		s-0.2,0.1-0.4,0.1s-0.3,0-0.4-0.1S58.6,169.3,58.6,169.1z M59.5,175.8h-0.9v-5.3h0.9V175.8z"/>
	<path class="st0" d="M60.7,173.1c0-0.5,0.1-1,0.3-1.4s0.5-0.7,0.8-1s0.8-0.3,1.2-0.3c0.7,0,1.3,0.2,1.7,0.7s0.7,1.2,0.7,2v0.1
		c0,0.5-0.1,1-0.3,1.4c-0.2,0.4-0.5,0.7-0.8,1s-0.8,0.3-1.3,0.3c-0.7,0-1.3-0.2-1.7-0.7S60.7,174,60.7,173.1L60.7,173.1z
		 M61.6,173.2c0,0.6,0.1,1.1,0.4,1.4s0.6,0.5,1.1,0.5c0.5,0,0.8-0.2,1.1-0.5c0.3-0.4,0.4-0.9,0.4-1.5c0-0.6-0.1-1-0.4-1.4
		c-0.3-0.4-0.6-0.5-1.1-0.5c-0.4,0-0.8,0.2-1.1,0.5S61.6,172.6,61.6,173.2z"/>
	<path class="st0" d="M67.5,170.5l0,0.7c0.4-0.5,0.9-0.8,1.6-0.8c1.1,0,1.7,0.6,1.7,1.9v3.5h-0.9v-3.5c0-0.4-0.1-0.7-0.3-0.8
		s-0.4-0.3-0.8-0.3c-0.3,0-0.6,0.1-0.8,0.2s-0.4,0.4-0.5,0.6v3.8h-0.9v-5.3H67.5z"/>
	<path class="st0" d="M75.5,175.8c-0.1-0.1-0.1-0.3-0.1-0.6c-0.4,0.4-0.9,0.7-1.5,0.7c-0.5,0-0.9-0.1-1.3-0.4
		c-0.3-0.3-0.5-0.7-0.5-1.1c0-0.5,0.2-1,0.6-1.3c0.4-0.3,1-0.5,1.8-0.5h0.9v-0.4c0-0.3-0.1-0.6-0.3-0.8c-0.2-0.2-0.5-0.3-0.8-0.3
		c-0.3,0-0.6,0.1-0.8,0.2s-0.3,0.4-0.3,0.6h-0.9c0-0.3,0.1-0.5,0.3-0.8c0.2-0.2,0.4-0.4,0.8-0.6s0.7-0.2,1.1-0.2
		c0.6,0,1.1,0.2,1.4,0.5c0.3,0.3,0.5,0.7,0.5,1.3v2.4c0,0.5,0.1,0.9,0.2,1.2v0.1H75.5z M74,175.1c0.3,0,0.6-0.1,0.8-0.2
		s0.4-0.3,0.6-0.6v-1.1h-0.7c-1.1,0-1.7,0.3-1.7,1c0,0.3,0.1,0.5,0.3,0.7S73.7,175.1,74,175.1z"/>
	<path class="st0" d="M78.6,175.8h-0.9v-7.5h0.9V175.8z"/>
</g>
<g>
	<path class="st0" d="M172.4,173.2h-2.4v-0.7h2.4V173.2z"/>
	<path class="st0" d="M178.7,175.8h-0.9v-6l-1.8,0.7v-0.8l2.6-1h0.1V175.8z"/>
	<path class="st0" d="M181.4,177.2l-0.5-0.4c0.3-0.4,0.5-0.9,0.5-1.3v-0.8h0.9v0.7c0,0.3-0.1,0.7-0.2,1S181.6,177,181.4,177.2z"/>
	<path class="st0" d="M187.1,173.4h1v0.7h-1v1.7h-0.9v-1.7h-3.2v-0.5l3.2-4.9h1V173.4z M184,173.4h2.2v-3.5l-0.1,0.2L184,173.4z"/>
	<path class="st0" d="M193.2,170.6c0,0.4-0.1,0.7-0.3,0.9c-0.2,0.3-0.4,0.5-0.8,0.6c0.4,0.2,0.7,0.4,0.9,0.7c0.2,0.3,0.3,0.7,0.3,1
		c0,0.6-0.2,1.1-0.6,1.5s-1,0.5-1.6,0.5c-0.7,0-1.2-0.2-1.6-0.5c-0.4-0.4-0.6-0.9-0.6-1.5c0-0.4,0.1-0.7,0.3-1s0.5-0.5,0.9-0.7
		c-0.3-0.2-0.6-0.4-0.7-0.6c-0.2-0.3-0.3-0.6-0.3-0.9c0-0.6,0.2-1.1,0.6-1.4c0.4-0.4,0.9-0.5,1.5-0.5c0.6,0,1.1,0.2,1.5,0.5
		S193.2,170,193.2,170.6z M192.5,173.9c0-0.4-0.1-0.7-0.4-1c-0.3-0.3-0.6-0.4-1-0.4c-0.4,0-0.7,0.1-1,0.4c-0.2,0.2-0.4,0.6-0.4,1
		s0.1,0.7,0.4,1s0.6,0.3,1,0.3c0.4,0,0.8-0.1,1-0.3C192.3,174.6,192.5,174.3,192.5,173.9z M191.1,169.3c-0.4,0-0.6,0.1-0.9,0.3
		c-0.2,0.2-0.3,0.5-0.3,0.9c0,0.4,0.1,0.7,0.3,0.9c0.2,0.2,0.5,0.3,0.9,0.3s0.7-0.1,0.9-0.3c0.2-0.2,0.3-0.5,0.3-0.9
		s-0.1-0.7-0.3-0.9S191.5,169.3,191.1,169.3z"/>
</g>
<line class="st2" x1="0" y1="183.9" x2="195.9" y2="183.9"/>
</svg>
