<?xml version="1.0" encoding="utf-8"?>
<!-- Generator: Adobe Illustrator 24.3.0, SVG Export Plug-In . SVG Version: 6.00 Build 0)  -->
<svg version="1.1" id="Layer_1" xmlns="http://www.w3.org/2000/svg" xmlns:xlink="http://www.w3.org/1999/xlink" x="0px" y="0px"
	 viewBox="0 0 600 600" style="enable-background:new 0 0 600 600;" xml:space="preserve">
<style type="text/css">
	.st0{enable-background:new    ;}
	.st1{fill:#FFFFFF;}
	.st2{fill:none;stroke:#FFFFFF;stroke-width:4;}
	.st3{fill:#939598;}
</style>
<g class="st0">
	<path class="st1" d="M250.5,27.7h-3.4v3.6h-1.5v-8.5h5.4V24h-3.9v2.5h3.4V27.7z"/>
	<path class="st1" d="M258.4,22.8v5.7c0,0.9-0.3,1.6-0.9,2.2s-1.4,0.8-2.3,0.8c-1,0-1.8-0.3-2.3-0.8s-0.9-1.2-0.9-2.2v-5.7h1.5v5.7
		c0,0.6,0.1,1,0.4,1.3s0.7,0.5,1.3,0.5c1.1,0,1.7-0.6,1.7-1.8v-5.7H258.4z"/>
	<path class="st1" d="M266.8,31.4h-1.5l-3.8-6.1v6.1H260v-8.5h1.5l3.8,6.1v-6.1h1.5V31.4z"/>
	<path class="st1" d="M275,28.6c-0.1,0.9-0.4,1.6-1,2.1s-1.4,0.8-2.3,0.8c-0.7,0-1.3-0.2-1.8-0.5s-0.9-0.8-1.2-1.4s-0.4-1.3-0.4-2.1
		v-0.8c0-0.8,0.1-1.5,0.4-2.1s0.7-1.1,1.2-1.4s1.1-0.5,1.8-0.5c0.9,0,1.7,0.3,2.3,0.8s0.9,1.2,1,2.2h-1.5c-0.1-0.6-0.2-1.1-0.5-1.3
		s-0.7-0.4-1.3-0.4c-0.6,0-1.1,0.2-1.5,0.7c-0.3,0.5-0.5,1.2-0.5,2.1v0.8c0,0.9,0.2,1.6,0.5,2.1c0.3,0.5,0.8,0.7,1.5,0.7
		c0.6,0,1-0.1,1.3-0.4s0.5-0.7,0.6-1.3H275z M272.2,31.4l-0.1,0.3c0.6,0.1,0.9,0.4,0.9,1c0,0.4-0.2,0.7-0.5,1s-0.8,0.3-1.4,0.3
		l0-0.8c0.3,0,0.5,0,0.6-0.1s0.2-0.2,0.2-0.4c0-0.2-0.1-0.3-0.2-0.4s-0.4-0.1-0.7-0.1l0.2-0.8H272.2z"/>
	<path class="st1" d="M281.1,29.4h-3.3l-0.7,2h-1.5l3.2-8.5h1.3l3.2,8.5h-1.5L281.1,29.4z M281.7,20.7c0,0.4-0.1,0.8-0.4,1.1
		s-0.6,0.4-0.9,0.4c-0.2,0-0.3,0-0.4,0s-0.3-0.1-0.5-0.2s-0.3-0.2-0.4-0.2s-0.2,0-0.3,0c-0.1,0-0.3,0.1-0.4,0.2s-0.2,0.3-0.2,0.4
		l-0.9,0c0-0.4,0.1-0.8,0.4-1.1s0.6-0.4,0.9-0.4c0.2,0,0.5,0.1,0.8,0.3s0.6,0.3,0.8,0.3c0.1,0,0.3-0.1,0.4-0.2s0.2-0.3,0.2-0.4
		L281.7,20.7z M278.2,28.2h2.5l-1.2-3.5L278.2,28.2z"/>
	<path class="st1" d="M291,27.3c0,0.8-0.1,1.6-0.4,2.2s-0.7,1.1-1.2,1.5s-1.2,0.5-1.9,0.5c-0.7,0-1.3-0.2-1.8-0.5s-1-0.8-1.3-1.4
		s-0.4-1.3-0.4-2.2v-0.5c0-0.8,0.1-1.6,0.4-2.2s0.7-1.1,1.2-1.5s1.2-0.5,1.8-0.5s1.3,0.2,1.8,0.5s1,0.8,1.2,1.4s0.4,1.4,0.4,2.2
		V27.3z M289.6,26.9c0-0.9-0.2-1.7-0.5-2.2s-0.9-0.8-1.5-0.8c-0.6,0-1.1,0.3-1.5,0.8s-0.5,1.2-0.6,2.1v0.5c0,0.9,0.2,1.7,0.5,2.2
		s0.9,0.8,1.5,0.8c0.7,0,1.2-0.2,1.5-0.8s0.5-1.2,0.5-2.2V26.9z"/>
	<path class="st1" d="M297,28.2v3.2h-1.5v-8.5h3.3c1,0,1.7,0.2,2.3,0.7c0.6,0.5,0.8,1.2,0.8,2c0,0.8-0.3,1.5-0.8,2
		c-0.5,0.5-1.3,0.7-2.3,0.7H297z M297,27h1.8c0.5,0,0.9-0.1,1.2-0.4s0.4-0.6,0.4-1.1c0-0.5-0.1-0.8-0.4-1.1s-0.7-0.4-1.2-0.4H297V27
		z"/>
	<path class="st1" d="M306.3,28.1h-1.7v3.3h-1.5v-8.5h3c1,0,1.7,0.2,2.3,0.7c0.5,0.4,0.8,1.1,0.8,1.9c0,0.6-0.1,1-0.4,1.4
		c-0.3,0.4-0.7,0.7-1.2,0.9l1.9,3.6v0.1H308L306.3,28.1z M304.7,26.9h1.5c0.5,0,0.9-0.1,1.2-0.4s0.4-0.6,0.4-1
		c0-0.5-0.1-0.8-0.4-1.1s-0.6-0.4-1.2-0.4h-1.6V26.9z"/>
	<path class="st1" d="M312.2,31.4h-1.5v-8.5h1.5V31.4z"/>
	<path class="st1" d="M320.8,31.4h-1.5l-3.8-6.1v6.1H314v-8.5h1.5l3.8,6.1v-6.1h1.5V31.4z"/>
	<path class="st1" d="M329.1,28.6c-0.1,0.9-0.4,1.6-1,2.1s-1.4,0.8-2.3,0.8c-0.7,0-1.3-0.2-1.8-0.5s-0.9-0.8-1.2-1.4
		s-0.4-1.3-0.4-2.1v-0.8c0-0.8,0.1-1.5,0.4-2.1s0.7-1.1,1.2-1.4s1.1-0.5,1.8-0.5c0.9,0,1.7,0.3,2.3,0.8s0.9,1.2,1,2.2h-1.5
		c-0.1-0.6-0.2-1.1-0.5-1.3s-0.7-0.4-1.3-0.4c-0.6,0-1.1,0.2-1.5,0.7c-0.3,0.5-0.5,1.2-0.5,2.1v0.8c0,0.9,0.2,1.6,0.5,2.1
		c0.3,0.5,0.8,0.7,1.5,0.7c0.6,0,1-0.1,1.3-0.4s0.5-0.7,0.6-1.3H329.1z"/>
	<path class="st1" d="M332,31.4h-1.5v-8.5h1.5V31.4z"/>
	<path class="st1" d="M335.3,28.2v3.2h-1.5v-8.5h3.3c1,0,1.7,0.2,2.3,0.7c0.6,0.5,0.8,1.2,0.8,2c0,0.8-0.3,1.5-0.8,2
		c-0.5,0.5-1.3,0.7-2.3,0.7H335.3z M335.3,27h1.8c0.5,0,0.9-0.1,1.2-0.4s0.4-0.6,0.4-1.1c0-0.5-0.1-0.8-0.4-1.1s-0.7-0.4-1.2-0.4
		h-1.8V27z"/>
	<path class="st1" d="M345.2,29.4h-3.3l-0.7,2h-1.5l3.2-8.5h1.3l3.2,8.5h-1.5L345.2,29.4z M342.3,28.2h2.5l-1.2-3.5L342.3,28.2z"/>
	<path class="st1" d="M349.9,30.2h3.9v1.2h-5.4v-8.5h1.5V30.2z"/>
</g>
<line class="st2" x1="265.9" y1="6" x2="334.1" y2="6"/>
<g class="st0">
	<path class="st3" d="M217.7,49v3.2h-1.5v-8.5h3.3c1,0,1.7,0.2,2.3,0.7c0.6,0.5,0.8,1.2,0.8,2c0,0.8-0.3,1.5-0.8,2
		c-0.5,0.5-1.3,0.7-2.3,0.7H217.7z M217.7,47.8h1.8c0.5,0,0.9-0.1,1.2-0.4s0.4-0.6,0.4-1.1c0-0.5-0.1-0.8-0.4-1.1s-0.7-0.4-1.2-0.4
		h-1.8V47.8z"/>
	<path class="st3" d="M227.1,47.1c-0.2,0-0.4,0-0.6,0c-0.7,0-1.1,0.2-1.3,0.8v4.3h-1.4v-6.3h1.4l0,0.7c0.3-0.6,0.8-0.8,1.4-0.8
		c0.2,0,0.4,0,0.5,0.1L227.1,47.1z"/>
	<path class="st3" d="M230.7,52.3c-0.9,0-1.6-0.3-2.2-0.9s-0.8-1.3-0.8-2.3V49c0-0.6,0.1-1.2,0.4-1.7s0.6-0.9,1-1.2s0.9-0.4,1.5-0.4
		c0.9,0,1.5,0.3,2,0.8s0.7,1.3,0.7,2.3v0.6h-4.1c0,0.5,0.2,0.9,0.5,1.2s0.7,0.5,1.2,0.5c0.7,0,1.2-0.3,1.6-0.8l0.8,0.7
		c-0.3,0.4-0.6,0.7-1,0.9S231.2,52.3,230.7,52.3z M230.5,46.8c-0.4,0-0.7,0.1-0.9,0.4s-0.4,0.7-0.5,1.1h2.7v-0.1
		c0-0.5-0.2-0.8-0.4-1.1S230.9,46.8,230.5,46.8z"/>
	<path class="st3" d="M234.1,48.9c0-1,0.2-1.8,0.7-2.4s1.1-0.9,1.8-0.9c0.7,0,1.2,0.2,1.6,0.7v-3.2h1.4v9h-1.3l-0.1-0.7
		c-0.4,0.5-1,0.8-1.7,0.8c-0.7,0-1.3-0.3-1.8-0.9S234.1,50,234.1,48.9z M235.5,49.1c0,0.6,0.1,1.1,0.4,1.5s0.6,0.5,1.1,0.5
		c0.6,0,1-0.3,1.3-0.8v-2.7c-0.3-0.5-0.7-0.8-1.3-0.8c-0.5,0-0.8,0.2-1.1,0.5S235.5,48.3,235.5,49.1z"/>
	<path class="st3" d="M240.8,48.9c0-0.6,0.1-1.2,0.4-1.7s0.6-0.9,1-1.1s1-0.4,1.5-0.4c0.9,0,1.5,0.3,2.1,0.8s0.8,1.3,0.9,2.2l0,0.3
		c0,0.6-0.1,1.2-0.4,1.7s-0.6,0.9-1,1.1s-1,0.4-1.5,0.4c-0.9,0-1.6-0.3-2.1-0.9S240.8,50,240.8,48.9L240.8,48.9z M242.2,49.1
		c0,0.7,0.1,1.2,0.4,1.5s0.6,0.6,1.1,0.6s0.9-0.2,1.1-0.6s0.4-0.9,0.4-1.6c0-0.6-0.1-1.1-0.4-1.5s-0.6-0.6-1.1-0.6
		c-0.5,0-0.8,0.2-1.1,0.6S242.2,48.3,242.2,49.1z"/>
	<path class="st3" d="M249.3,45.8l0,0.7c0.4-0.5,1.1-0.8,1.8-0.8c0.8,0,1.4,0.3,1.7,1c0.5-0.6,1.1-1,1.9-1c0.7,0,1.2,0.2,1.6,0.6
		s0.5,1,0.5,1.7v4.2h-1.4V48c0-0.4-0.1-0.7-0.3-0.9s-0.5-0.3-0.9-0.3c-0.3,0-0.6,0.1-0.8,0.3s-0.3,0.4-0.4,0.7l0,4.3h-1.4V48
		c0-0.7-0.4-1.1-1.1-1.1c-0.6,0-1,0.2-1.2,0.7v4.6h-1.4v-6.3H249.3z"/>
	<path class="st3" d="M258.4,44.2c0-0.2,0.1-0.4,0.2-0.5s0.3-0.2,0.6-0.2s0.5,0.1,0.6,0.2s0.2,0.3,0.2,0.5c0,0.2-0.1,0.4-0.2,0.5
		s-0.3,0.2-0.6,0.2s-0.5-0.1-0.6-0.2S258.4,44.4,258.4,44.2z M259.9,52.2h-1.4v-6.3h1.4V52.2z"/>
	<path class="st3" d="M262.7,45.8l0,0.7c0.5-0.6,1.1-0.8,1.8-0.8c1.3,0,2,0.8,2,2.3v4.2h-1.4v-4.1c0-0.4-0.1-0.7-0.3-0.9
		s-0.5-0.3-0.9-0.3c-0.6,0-1,0.3-1.3,0.8v4.5h-1.4v-6.3H262.7z"/>
	<path class="st3" d="M271.9,52.2c-0.1-0.1-0.1-0.3-0.2-0.6c-0.5,0.5-1,0.7-1.7,0.7c-0.6,0-1.2-0.2-1.6-0.5s-0.6-0.8-0.6-1.3
		c0-0.7,0.3-1.2,0.8-1.6s1.2-0.5,2.2-0.5h0.9v-0.4c0-0.3-0.1-0.6-0.3-0.8s-0.5-0.3-0.8-0.3c-0.3,0-0.6,0.1-0.8,0.2s-0.3,0.4-0.3,0.6
		H268c0-0.3,0.1-0.7,0.3-1s0.5-0.5,0.9-0.7s0.8-0.3,1.3-0.3c0.7,0,1.3,0.2,1.8,0.6s0.7,0.9,0.7,1.6v2.9c0,0.6,0.1,1,0.2,1.4v0.1
		H271.9z M270.3,51.1c0.3,0,0.5-0.1,0.8-0.2s0.4-0.3,0.6-0.6v-1.2h-0.8c-0.5,0-0.9,0.1-1.2,0.3s-0.4,0.4-0.4,0.8
		c0,0.3,0.1,0.5,0.3,0.7S270,51.1,270.3,51.1z"/>
	<path class="st3" d="M275.9,45.8l0,0.7c0.5-0.6,1.1-0.8,1.8-0.8c1.3,0,2,0.8,2,2.3v4.2h-1.4v-4.1c0-0.4-0.1-0.7-0.3-0.9
		s-0.5-0.3-0.9-0.3c-0.6,0-1,0.3-1.3,0.8v4.5h-1.4v-6.3H275.9z"/>
	<path class="st3" d="M283.1,44.3v1.5h1.1v1.1h-1.1v3.5c0,0.2,0,0.4,0.1,0.5s0.3,0.2,0.5,0.2c0.2,0,0.3,0,0.5-0.1v1.1
		c-0.3,0.1-0.6,0.1-0.9,0.1c-1.1,0-1.6-0.6-1.6-1.8v-3.6h-1v-1.1h1v-1.5H283.1z"/>
	<path class="st3" d="M288.1,52.3c-0.9,0-1.6-0.3-2.2-0.9s-0.8-1.3-0.8-2.3V49c0-0.6,0.1-1.2,0.4-1.7s0.6-0.9,1-1.2s0.9-0.4,1.5-0.4
		c0.9,0,1.5,0.3,2,0.8s0.7,1.3,0.7,2.3v0.6h-4.1c0,0.5,0.2,0.9,0.5,1.2s0.7,0.5,1.2,0.5c0.7,0,1.2-0.3,1.6-0.8l0.8,0.7
		c-0.3,0.4-0.6,0.7-1,0.9S288.6,52.3,288.1,52.3z M287.9,46.8c-0.4,0-0.7,0.1-0.9,0.4s-0.4,0.7-0.5,1.1h2.7v-0.1
		c0-0.5-0.2-0.8-0.4-1.1S288.3,46.8,287.9,46.8z"/>
	<path class="st3" d="M293,45.8l0,0.7c0.4-0.5,1.1-0.8,1.8-0.8c0.8,0,1.4,0.3,1.7,1c0.5-0.6,1.1-1,1.9-1c0.7,0,1.2,0.2,1.6,0.6
		c0.3,0.4,0.5,1,0.5,1.7v4.2h-1.4V48c0-0.4-0.1-0.7-0.3-0.9s-0.5-0.3-0.9-0.3c-0.3,0-0.6,0.1-0.8,0.3s-0.3,0.4-0.4,0.7l0,4.3h-1.4
		V48c0-0.7-0.4-1.1-1.1-1.1c-0.6,0-1,0.2-1.2,0.7v4.6h-1.4v-6.3H293z"/>
	<path class="st3" d="M304.9,52.3c-0.9,0-1.6-0.3-2.2-0.9s-0.8-1.3-0.8-2.3V49c0-0.6,0.1-1.2,0.4-1.7s0.6-0.9,1-1.2s0.9-0.4,1.5-0.4
		c0.9,0,1.5,0.3,2,0.8s0.7,1.3,0.7,2.3v0.6h-4.1c0,0.5,0.2,0.9,0.5,1.2s0.7,0.5,1.2,0.5c0.7,0,1.2-0.3,1.6-0.8l0.8,0.7
		c-0.3,0.4-0.6,0.7-1,0.9S305.5,52.3,304.9,52.3z M304.8,46.8c-0.4,0-0.7,0.1-0.9,0.4s-0.4,0.7-0.5,1.1h2.7v-0.1
		c0-0.5-0.2-0.8-0.4-1.1S305.2,46.8,304.8,46.8z"/>
	<path class="st3" d="M309.9,45.8l0,0.7c0.5-0.6,1.1-0.8,1.8-0.8c1.3,0,2,0.8,2,2.3v4.2h-1.4v-4.1c0-0.4-0.1-0.7-0.3-0.9
		s-0.5-0.3-0.9-0.3c-0.6,0-1,0.3-1.3,0.8v4.5h-1.4v-6.3H309.9z"/>
	<path class="st3" d="M317,44.3v1.5h1.1v1.1H317v3.5c0,0.2,0,0.4,0.1,0.5s0.3,0.2,0.5,0.2c0.2,0,0.3,0,0.5-0.1v1.1
		c-0.3,0.1-0.6,0.1-0.9,0.1c-1.1,0-1.6-0.6-1.6-1.8v-3.6h-1v-1.1h1v-1.5H317z"/>
	<path class="st3" d="M322,52.3c-0.9,0-1.6-0.3-2.2-0.9s-0.8-1.3-0.8-2.3V49c0-0.6,0.1-1.2,0.4-1.7s0.6-0.9,1-1.2s0.9-0.4,1.5-0.4
		c0.9,0,1.5,0.3,2,0.8s0.7,1.3,0.7,2.3v0.6h-4.1c0,0.5,0.2,0.9,0.5,1.2s0.7,0.5,1.2,0.5c0.7,0,1.2-0.3,1.6-0.8l0.8,0.7
		c-0.3,0.4-0.6,0.7-1,0.9S322.6,52.3,322,52.3z M321.9,46.8c-0.4,0-0.7,0.1-0.9,0.4s-0.4,0.7-0.5,1.1h2.7v-0.1
		c0-0.5-0.2-0.8-0.4-1.1S322.3,46.8,321.9,46.8z"/>
	<path class="st3" d="M335.3,49.4c-0.1,0.9-0.4,1.6-1,2.1s-1.4,0.8-2.3,0.8c-0.7,0-1.3-0.2-1.8-0.5s-0.9-0.8-1.2-1.4
		s-0.4-1.3-0.4-2.1v-0.8c0-0.8,0.1-1.5,0.4-2.1s0.7-1.1,1.2-1.4s1.1-0.5,1.8-0.5c0.9,0,1.7,0.3,2.3,0.8s0.9,1.2,1,2.2h-1.5
		c-0.1-0.6-0.2-1.1-0.5-1.3s-0.7-0.4-1.3-0.4c-0.6,0-1.1,0.2-1.5,0.7c-0.3,0.5-0.5,1.2-0.5,2.1v0.8c0,0.9,0.2,1.6,0.5,2.1
		c0.3,0.5,0.8,0.7,1.5,0.7c0.6,0,1-0.1,1.3-0.4s0.5-0.7,0.6-1.3H335.3z"/>
	<path class="st3" d="M336.2,48.9c0-0.6,0.1-1.2,0.4-1.7s0.6-0.9,1-1.1s1-0.4,1.5-0.4c0.9,0,1.5,0.3,2.1,0.8s0.8,1.3,0.9,2.2l0,0.3
		c0,0.6-0.1,1.2-0.4,1.7s-0.6,0.9-1,1.1s-1,0.4-1.5,0.4c-0.9,0-1.6-0.3-2.1-0.9S336.2,50,336.2,48.9L336.2,48.9z M337.7,49.1
		c0,0.7,0.1,1.2,0.4,1.5s0.6,0.6,1.1,0.6s0.9-0.2,1.1-0.6s0.4-0.9,0.4-1.6c0-0.6-0.1-1.1-0.4-1.5s-0.6-0.6-1.1-0.6
		c-0.5,0-0.8,0.2-1.1,0.6S337.7,48.3,337.7,49.1z"/>
	<path class="st3" d="M344.7,45.8l0,0.7c0.4-0.5,1.1-0.8,1.8-0.8c0.8,0,1.4,0.3,1.7,1c0.5-0.6,1.1-1,1.9-1c0.7,0,1.2,0.2,1.6,0.6
		s0.5,1,0.5,1.7v4.2h-1.4V48c0-0.4-0.1-0.7-0.3-0.9s-0.5-0.3-0.9-0.3c-0.3,0-0.6,0.1-0.8,0.3s-0.3,0.4-0.4,0.7l0,4.3h-1.4V48
		c0-0.7-0.4-1.1-1.1-1.1c-0.6,0-1,0.2-1.2,0.7v4.6h-1.4v-6.3H344.7z"/>
	<path class="st3" d="M356.6,52.3c-0.9,0-1.6-0.3-2.2-0.9s-0.8-1.3-0.8-2.3V49c0-0.6,0.1-1.2,0.4-1.7s0.6-0.9,1-1.2s0.9-0.4,1.5-0.4
		c0.9,0,1.5,0.3,2,0.8s0.7,1.3,0.7,2.3v0.6H355c0,0.5,0.2,0.9,0.5,1.2s0.7,0.5,1.2,0.5c0.7,0,1.2-0.3,1.6-0.8l0.8,0.7
		c-0.3,0.4-0.6,0.7-1,0.9S357.1,52.3,356.6,52.3z M356.4,46.8c-0.4,0-0.7,0.1-0.9,0.4s-0.4,0.7-0.5,1.1h2.7v-0.1
		c0-0.5-0.2-0.8-0.4-1.1S356.8,46.8,356.4,46.8z"/>
	<path class="st3" d="M363.5,47.1c-0.2,0-0.4,0-0.6,0c-0.7,0-1.1,0.2-1.3,0.8v4.3h-1.4v-6.3h1.4l0,0.7c0.3-0.6,0.8-0.8,1.4-0.8
		c0.2,0,0.4,0,0.5,0.1L363.5,47.1z"/>
	<path class="st3" d="M366.9,51.1c0.4,0,0.7-0.1,0.9-0.3s0.4-0.5,0.4-0.8h1.3c0,0.4-0.1,0.8-0.4,1.1s-0.5,0.6-0.9,0.8
		s-0.8,0.3-1.3,0.3c-0.9,0-1.6-0.3-2.1-0.9s-0.8-1.4-0.8-2.4v-0.1c0-1,0.3-1.7,0.8-2.3s1.2-0.9,2.1-0.9c0.8,0,1.4,0.2,1.8,0.7
		s0.7,1,0.7,1.7h-1.3c0-0.4-0.1-0.7-0.4-0.9s-0.5-0.4-0.9-0.4c-0.5,0-0.8,0.2-1.1,0.5s-0.4,0.8-0.4,1.5v0.2c0,0.7,0.1,1.2,0.4,1.5
		S366.5,51.1,366.9,51.1z"/>
	<path class="st3" d="M370.6,44.2c0-0.2,0.1-0.4,0.2-0.5s0.3-0.2,0.6-0.2s0.5,0.1,0.6,0.2s0.2,0.3,0.2,0.5c0,0.2-0.1,0.4-0.2,0.5
		s-0.3,0.2-0.6,0.2s-0.5-0.1-0.6-0.2S370.6,44.4,370.6,44.2z M372.1,52.2h-1.4v-6.3h1.4V52.2z"/>
	<path class="st3" d="M377.5,52.2c-0.1-0.1-0.1-0.3-0.2-0.6c-0.5,0.5-1,0.7-1.7,0.7c-0.6,0-1.2-0.2-1.6-0.5s-0.6-0.8-0.6-1.3
		c0-0.7,0.3-1.2,0.8-1.6s1.2-0.5,2.2-0.5h0.9v-0.4c0-0.3-0.1-0.6-0.3-0.8s-0.5-0.3-0.8-0.3c-0.3,0-0.6,0.1-0.8,0.2s-0.3,0.4-0.3,0.6
		h-1.4c0-0.3,0.1-0.7,0.3-1s0.5-0.5,0.9-0.7s0.8-0.3,1.3-0.3c0.7,0,1.3,0.2,1.8,0.6s0.7,0.9,0.7,1.6v2.9c0,0.6,0.1,1,0.2,1.4v0.1
		H377.5z M375.9,51.1c0.3,0,0.5-0.1,0.8-0.2s0.4-0.3,0.6-0.6v-1.2h-0.8c-0.5,0-0.9,0.1-1.2,0.3s-0.4,0.4-0.4,0.8
		c0,0.3,0.1,0.5,0.3,0.7S375.6,51.1,375.9,51.1z"/>
	<path class="st3" d="M381.7,52.2h-1.4v-9h1.4V52.2z"/>
</g>
<g class="st0">
	<path class="st1" d="M104.4,148.3h3.9v1.2h-5.4V141h1.5V148.3z"/>
	<path class="st1" d="M115.8,145.5c0,0.8-0.1,1.6-0.4,2.2s-0.7,1.1-1.2,1.5s-1.2,0.5-1.9,0.5c-0.7,0-1.3-0.2-1.8-0.5s-1-0.8-1.3-1.4
		s-0.4-1.3-0.4-2.2v-0.5c0-0.8,0.1-1.6,0.4-2.2s0.7-1.1,1.2-1.5s1.2-0.5,1.8-0.5s1.3,0.2,1.8,0.5s1,0.8,1.2,1.4s0.4,1.4,0.4,2.2
		V145.5z M114.3,145c0-0.9-0.2-1.7-0.5-2.2s-0.9-0.8-1.5-0.8c-0.6,0-1.1,0.3-1.5,0.8s-0.5,1.2-0.6,2.1v0.5c0,0.9,0.2,1.7,0.5,2.2
		s0.9,0.8,1.5,0.8c0.7,0,1.2-0.2,1.5-0.8s0.5-1.2,0.5-2.2V145z"/>
	<path class="st1" d="M123.8,146.8c-0.1,0.9-0.4,1.6-1,2.1s-1.4,0.8-2.3,0.8c-0.7,0-1.3-0.2-1.8-0.5s-0.9-0.8-1.2-1.4
		s-0.4-1.3-0.4-2.1v-0.8c0-0.8,0.1-1.5,0.4-2.1s0.7-1.1,1.2-1.4s1.1-0.5,1.8-0.5c0.9,0,1.7,0.3,2.3,0.8s0.9,1.2,1,2.2h-1.5
		c-0.1-0.6-0.2-1.1-0.5-1.3s-0.7-0.4-1.3-0.4c-0.6,0-1.1,0.2-1.5,0.7c-0.3,0.5-0.5,1.2-0.5,2.1v0.8c0,0.9,0.2,1.6,0.5,2.1
		c0.3,0.5,0.8,0.7,1.5,0.7c0.6,0,1-0.1,1.3-0.4s0.5-0.7,0.6-1.3H123.8z"/>
	<path class="st1" d="M129.9,147.5h-3.3l-0.7,2h-1.5l3.2-8.5h1.3l3.2,8.5h-1.5L129.9,147.5z M127,146.3h2.5l-1.2-3.5L127,146.3z"/>
	<path class="st1" d="M134.6,148.3h3.9v1.2h-5.4V141h1.5V148.3z"/>
	<path class="st1" d="M141.2,149.5h-1.5V141h1.5V149.5z"/>
	<path class="st1" d="M144.4,148.3h4.6v1.2h-6.4v-1l4.4-6.4h-4.4V141h6.2v0.9L144.4,148.3z"/>
	<path class="st1" d="M155.1,147.5h-3.3l-0.7,2h-1.5l3.2-8.5h1.3l3.2,8.5h-1.5L155.1,147.5z M152.2,146.3h2.5l-1.2-3.5L152.2,146.3z
		"/>
	<path class="st1" d="M164.7,146.8c-0.1,0.9-0.4,1.6-1,2.1s-1.4,0.8-2.3,0.8c-0.7,0-1.3-0.2-1.8-0.5s-0.9-0.8-1.2-1.4
		s-0.4-1.3-0.4-2.1v-0.8c0-0.8,0.1-1.5,0.4-2.1s0.7-1.1,1.2-1.4s1.1-0.5,1.8-0.5c0.9,0,1.7,0.3,2.3,0.8s0.9,1.2,1,2.2h-1.5
		c-0.1-0.6-0.2-1.1-0.5-1.3s-0.7-0.4-1.3-0.4c-0.6,0-1.1,0.2-1.5,0.7c-0.3,0.5-0.5,1.2-0.5,2.1v0.8c0,0.9,0.2,1.6,0.5,2.1
		c0.3,0.5,0.8,0.7,1.5,0.7c0.6,0,1-0.1,1.3-0.4s0.5-0.7,0.6-1.3H164.7z M161.8,149.5l-0.1,0.3c0.6,0.1,0.9,0.4,0.9,1
		c0,0.4-0.2,0.7-0.5,1s-0.8,0.3-1.4,0.3l0-0.8c0.3,0,0.5,0,0.6-0.1s0.2-0.2,0.2-0.4c0-0.2-0.1-0.3-0.2-0.4s-0.4-0.1-0.7-0.1l0.2-0.8
		H161.8z"/>
	<path class="st1" d="M170.8,147.5h-3.3l-0.7,2h-1.5l3.2-8.5h1.3l3.2,8.5h-1.5L170.8,147.5z M171.3,138.8c0,0.4-0.1,0.8-0.4,1.1
		s-0.6,0.4-0.9,0.4c-0.2,0-0.3,0-0.4,0s-0.3-0.1-0.5-0.2s-0.3-0.2-0.4-0.2s-0.2,0-0.3,0c-0.1,0-0.3,0.1-0.4,0.2s-0.2,0.3-0.2,0.4
		l-0.9,0c0-0.4,0.1-0.8,0.4-1.1s0.6-0.4,0.9-0.4c0.2,0,0.5,0.1,0.8,0.3s0.6,0.3,0.8,0.3c0.1,0,0.3-0.1,0.4-0.2s0.2-0.3,0.2-0.4
		L171.3,138.8z M167.9,146.3h2.5l-1.2-3.5L167.9,146.3z"/>
	<path class="st1" d="M180.7,145.5c0,0.8-0.1,1.6-0.4,2.2s-0.7,1.1-1.2,1.5s-1.2,0.5-1.9,0.5c-0.7,0-1.3-0.2-1.8-0.5s-1-0.8-1.3-1.4
		s-0.4-1.3-0.4-2.2v-0.5c0-0.8,0.1-1.6,0.4-2.2s0.7-1.1,1.2-1.5s1.2-0.5,1.8-0.5s1.3,0.2,1.8,0.5s1,0.8,1.2,1.4s0.4,1.4,0.4,2.2
		V145.5z M179.2,145c0-0.9-0.2-1.7-0.5-2.2s-0.9-0.8-1.5-0.8c-0.6,0-1.1,0.3-1.5,0.8s-0.5,1.2-0.6,2.1v0.5c0,0.9,0.2,1.7,0.5,2.2
		s0.9,0.8,1.5,0.8c0.7,0,1.2-0.2,1.5-0.8s0.5-1.2,0.5-2.2V145z"/>
</g>
<line class="st2" x1="108.5" y1="124.2" x2="176.8" y2="124.2"/>
<g class="st0">
	<path class="st3" d="M52.1,170.3h-1.5l-3.8-6.1v6.1h-1.5v-8.5h1.5l3.8,6.1v-6.1h1.5V170.3z"/>
	<path class="st3" d="M57.5,170.3c-0.1-0.1-0.1-0.3-0.2-0.6c-0.5,0.5-1,0.7-1.7,0.7c-0.6,0-1.2-0.2-1.6-0.5s-0.6-0.8-0.6-1.3
		c0-0.7,0.3-1.2,0.8-1.6s1.2-0.5,2.2-0.5h0.9V166c0-0.3-0.1-0.6-0.3-0.8s-0.5-0.3-0.8-0.3c-0.3,0-0.6,0.1-0.8,0.2s-0.3,0.4-0.3,0.6
		h-1.4c0-0.3,0.1-0.7,0.3-1s0.5-0.5,0.9-0.7s0.8-0.3,1.3-0.3c0.7,0,1.3,0.2,1.8,0.6s0.7,0.9,0.7,1.6v2.9c0,0.6,0.1,1,0.2,1.4v0.1
		H57.5z M55.9,169.3c0.3,0,0.5-0.1,0.8-0.2s0.4-0.3,0.6-0.6v-1.2h-0.8c-0.5,0-0.9,0.1-1.2,0.3s-0.4,0.4-0.4,0.8
		c0,0.3,0.1,0.5,0.3,0.7S55.6,169.3,55.9,169.3z"/>
	<path class="st3" d="M63.8,168.6c0-0.3-0.1-0.4-0.3-0.6s-0.6-0.2-1-0.4s-0.9-0.2-1.2-0.4c-0.7-0.3-1.1-0.8-1.1-1.5
		c0-0.5,0.2-1,0.7-1.4s1-0.6,1.8-0.6c0.8,0,1.4,0.2,1.8,0.6s0.7,0.9,0.7,1.5h-1.4c0-0.3-0.1-0.5-0.3-0.7s-0.5-0.3-0.8-0.3
		c-0.3,0-0.6,0.1-0.8,0.2s-0.3,0.3-0.3,0.6c0,0.2,0.1,0.4,0.3,0.5s0.6,0.2,1.1,0.4s1,0.3,1.3,0.4s0.6,0.4,0.7,0.6s0.2,0.5,0.2,0.9
		c0,0.6-0.2,1-0.7,1.4s-1.1,0.5-1.9,0.5c-0.5,0-1-0.1-1.4-0.3s-0.7-0.4-0.9-0.8s-0.3-0.7-0.3-1.1h1.4c0,0.3,0.1,0.6,0.4,0.8
		s0.5,0.3,0.9,0.3c0.4,0,0.7-0.1,0.9-0.2S63.8,168.8,63.8,168.6z"/>
	<path class="st3" d="M69.9,170.3v-5.3h-1V164h1v-0.6c0-0.7,0.2-1.2,0.6-1.6s0.9-0.6,1.6-0.6c0.2,0,0.5,0,0.8,0.1l0,1.1
		c-0.2,0-0.3,0-0.5,0c-0.7,0-1,0.3-1,1v0.6h1.3v1.1h-1.3v5.3H69.9z"/>
	<path class="st3" d="M77,165.3c-0.2,0-0.4,0-0.6,0c-0.7,0-1.1,0.2-1.3,0.8v4.3h-1.4V164H75l0,0.7c0.3-0.6,0.8-0.8,1.4-0.8
		c0.2,0,0.4,0,0.5,0.1L77,165.3z"/>
	<path class="st3" d="M81.5,170.3c-0.1-0.1-0.1-0.3-0.2-0.6c-0.5,0.5-1,0.7-1.7,0.7c-0.6,0-1.2-0.2-1.6-0.5s-0.6-0.8-0.6-1.3
		c0-0.7,0.3-1.2,0.8-1.6s1.2-0.5,2.2-0.5h0.9V166c0-0.3-0.1-0.6-0.3-0.8s-0.5-0.3-0.8-0.3c-0.3,0-0.6,0.1-0.8,0.2s-0.3,0.4-0.3,0.6
		h-1.4c0-0.3,0.1-0.7,0.3-1s0.5-0.5,0.9-0.7s0.8-0.3,1.3-0.3c0.7,0,1.3,0.2,1.8,0.6s0.7,0.9,0.7,1.6v2.9c0,0.6,0.1,1,0.2,1.4v0.1
		H81.5z M79.9,169.3c0.3,0,0.5-0.1,0.8-0.2s0.4-0.3,0.6-0.6v-1.2h-0.8c-0.5,0-0.9,0.1-1.2,0.3s-0.4,0.4-0.4,0.8
		c0,0.3,0.1,0.5,0.3,0.7S79.6,169.3,79.9,169.3z"/>
	<path class="st3" d="M85.5,164l0,0.7c0.5-0.6,1.1-0.8,1.8-0.8c1.3,0,2,0.8,2,2.3v4.2H88v-4.1c0-0.4-0.1-0.7-0.3-0.9
		s-0.5-0.3-0.9-0.3c-0.6,0-1,0.3-1.3,0.8v4.5h-1.4V164H85.5z"/>
	<path class="st3" d="M92.3,164v6.9c0,0.6-0.2,1.1-0.5,1.5s-0.8,0.5-1.4,0.5c-0.3,0-0.5,0-0.8-0.1v-1.1c0.1,0,0.3,0.1,0.5,0.1
		c0.5,0,0.7-0.3,0.7-0.8v-7H92.3z M90.8,162.4c0-0.2,0.1-0.4,0.2-0.5s0.3-0.2,0.6-0.2s0.5,0.1,0.6,0.2s0.2,0.3,0.2,0.5
		c0,0.2-0.1,0.4-0.2,0.5s-0.3,0.2-0.6,0.2s-0.5-0.1-0.6-0.2S90.8,162.6,90.8,162.4z"/>
	<path class="st3" d="M97.6,170.3c-0.1-0.1-0.1-0.3-0.2-0.6c-0.5,0.5-1,0.7-1.7,0.7c-0.6,0-1.2-0.2-1.6-0.5s-0.6-0.8-0.6-1.3
		c0-0.7,0.3-1.2,0.8-1.6s1.2-0.5,2.2-0.5h0.9V166c0-0.3-0.1-0.6-0.3-0.8s-0.5-0.3-0.8-0.3c-0.3,0-0.6,0.1-0.8,0.2s-0.3,0.4-0.3,0.6
		h-1.4c0-0.3,0.1-0.7,0.3-1s0.5-0.5,0.9-0.7s0.8-0.3,1.3-0.3c0.7,0,1.3,0.2,1.8,0.6s0.7,0.9,0.7,1.6v2.9c0,0.6,0.1,1,0.2,1.4v0.1
		H97.6z M96.1,169.3c0.3,0,0.5-0.1,0.8-0.2s0.4-0.3,0.6-0.6v-1.2h-0.8c-0.5,0-0.9,0.1-1.2,0.3s-0.4,0.4-0.4,0.8
		c0,0.3,0.1,0.5,0.3,0.7S95.8,169.3,96.1,169.3z"/>
	<path class="st3" d="M103.9,168.6c0-0.3-0.1-0.4-0.3-0.6s-0.6-0.2-1-0.4s-0.9-0.2-1.2-0.4c-0.7-0.3-1.1-0.8-1.1-1.5
		c0-0.5,0.2-1,0.7-1.4s1-0.6,1.8-0.6c0.8,0,1.4,0.2,1.8,0.6s0.7,0.9,0.7,1.5h-1.4c0-0.3-0.1-0.5-0.3-0.7s-0.5-0.3-0.8-0.3
		c-0.3,0-0.6,0.1-0.8,0.2s-0.3,0.3-0.3,0.6c0,0.2,0.1,0.4,0.3,0.5s0.6,0.2,1.1,0.4s1,0.3,1.3,0.4s0.6,0.4,0.7,0.6s0.2,0.5,0.2,0.9
		c0,0.6-0.2,1-0.7,1.4s-1.1,0.5-1.9,0.5c-0.5,0-1-0.1-1.4-0.3s-0.7-0.4-0.9-0.8s-0.3-0.7-0.3-1.1h1.4c0,0.3,0.1,0.6,0.4,0.8
		s0.5,0.3,0.9,0.3c0.4,0,0.7-0.1,0.9-0.2S103.9,168.8,103.9,168.6z"/>
	<path class="st3" d="M109.3,167.1c0-0.6,0.1-1.2,0.4-1.7s0.6-0.9,1-1.1s1-0.4,1.5-0.4c0.9,0,1.5,0.3,2.1,0.8s0.8,1.3,0.9,2.2l0,0.3
		c0,0.6-0.1,1.2-0.4,1.7s-0.6,0.9-1,1.1s-1,0.4-1.5,0.4c-0.9,0-1.6-0.3-2.1-0.9S109.3,168.2,109.3,167.1L109.3,167.1z M110.7,167.2
		c0,0.7,0.1,1.2,0.4,1.5s0.6,0.6,1.1,0.6s0.9-0.2,1.1-0.6s0.4-0.9,0.4-1.6c0-0.6-0.1-1.1-0.4-1.5s-0.6-0.6-1.1-0.6
		c-0.5,0-0.8,0.2-1.1,0.6S110.7,166.5,110.7,167.2z"/>
	<path class="st3" d="M120.2,169.7c-0.4,0.5-1,0.7-1.8,0.7c-0.7,0-1.2-0.2-1.6-0.6s-0.5-1-0.5-1.7V164h1.4v4.1c0,0.8,0.3,1.2,1,1.2
		c0.7,0,1.2-0.2,1.4-0.7V164h1.4v6.3h-1.3L120.2,169.7z"/>
	<path class="st3" d="M126.5,170.3v-5.3h-1V164h1v-0.6c0-0.7,0.2-1.2,0.6-1.6s0.9-0.6,1.6-0.6c0.2,0,0.5,0,0.8,0.1l0,1.1
		c-0.2,0-0.3,0-0.5,0c-0.7,0-1,0.3-1,1v0.6h1.3v1.1h-1.3v5.3H126.5z"/>
	<path class="st3" d="M130,167.1c0-0.6,0.1-1.2,0.4-1.7s0.6-0.9,1-1.1s1-0.4,1.5-0.4c0.9,0,1.5,0.3,2.1,0.8s0.8,1.3,0.9,2.2l0,0.3
		c0,0.6-0.1,1.2-0.4,1.7s-0.6,0.9-1,1.1s-1,0.4-1.5,0.4c-0.9,0-1.6-0.3-2.1-0.9S130,168.2,130,167.1L130,167.1z M131.4,167.2
		c0,0.7,0.1,1.2,0.4,1.5s0.6,0.6,1.1,0.6s0.9-0.2,1.1-0.6s0.4-0.9,0.4-1.6c0-0.6-0.1-1.1-0.4-1.5s-0.6-0.6-1.1-0.6
		c-0.5,0-0.8,0.2-1.1,0.6S131.4,166.5,131.4,167.2z"/>
	<path class="st3" d="M140.4,165.3c-0.2,0-0.4,0-0.6,0c-0.7,0-1.1,0.2-1.3,0.8v4.3h-1.4V164h1.4l0,0.7c0.3-0.6,0.8-0.8,1.4-0.8
		c0.2,0,0.4,0,0.5,0.1L140.4,165.3z"/>
	<path class="st3" d="M144.9,170.3c-0.1-0.1-0.1-0.3-0.2-0.6c-0.5,0.5-1,0.7-1.7,0.7c-0.6,0-1.2-0.2-1.6-0.5s-0.6-0.8-0.6-1.3
		c0-0.7,0.3-1.2,0.8-1.6s1.2-0.5,2.2-0.5h0.9V166c0-0.3-0.1-0.6-0.3-0.8s-0.5-0.3-0.8-0.3c-0.3,0-0.6,0.1-0.8,0.2s-0.3,0.4-0.3,0.6
		h-1.4c0-0.3,0.1-0.7,0.3-1s0.5-0.5,0.9-0.7s0.8-0.3,1.3-0.3c0.7,0,1.3,0.2,1.8,0.6s0.7,0.9,0.7,1.6v2.9c0,0.6,0.1,1,0.2,1.4v0.1
		H144.9z M143.4,169.3c0.3,0,0.5-0.1,0.8-0.2s0.4-0.3,0.6-0.6v-1.2H144c-0.5,0-0.9,0.1-1.2,0.3s-0.4,0.4-0.4,0.8
		c0,0.3,0.1,0.5,0.3,0.7S143.1,169.3,143.4,169.3z"/>
	<path class="st3" d="M150.4,167.1c0-1,0.2-1.8,0.7-2.4s1.1-0.9,1.8-0.9c0.7,0,1.2,0.2,1.6,0.7v-3.2h1.4v9h-1.3l-0.1-0.7
		c-0.4,0.5-1,0.8-1.7,0.8c-0.7,0-1.3-0.3-1.8-0.9S150.4,168.1,150.4,167.1z M151.8,167.2c0,0.6,0.1,1.1,0.4,1.5s0.6,0.5,1.1,0.5
		c0.6,0,1-0.3,1.3-0.8v-2.7c-0.3-0.5-0.7-0.8-1.3-0.8c-0.5,0-0.8,0.2-1.1,0.5S151.8,166.5,151.8,167.2z"/>
	<path class="st3" d="M157.1,167.1c0-0.6,0.1-1.2,0.4-1.7s0.6-0.9,1-1.1s1-0.4,1.5-0.4c0.9,0,1.5,0.3,2.1,0.8s0.8,1.3,0.9,2.2l0,0.3
		c0,0.6-0.1,1.2-0.4,1.7s-0.6,0.9-1,1.1s-1,0.4-1.5,0.4c-0.9,0-1.6-0.3-2.1-0.9S157.1,168.2,157.1,167.1L157.1,167.1z M158.6,167.2
		c0,0.7,0.1,1.2,0.4,1.5s0.6,0.6,1.1,0.6s0.9-0.2,1.1-0.6s0.4-0.9,0.4-1.6c0-0.6-0.1-1.1-0.4-1.5s-0.6-0.6-1.1-0.6
		c-0.5,0-0.8,0.2-1.1,0.6S158.6,166.5,158.6,167.2z"/>
	<path class="st3" d="M169,162.5v1.5h1.1v1.1H169v3.5c0,0.2,0,0.4,0.1,0.5s0.3,0.2,0.5,0.2c0.2,0,0.3,0,0.5-0.1v1.1
		c-0.3,0.1-0.6,0.1-0.9,0.1c-1.1,0-1.6-0.6-1.6-1.8v-3.6h-1V164h1v-1.5H169z"/>
	<path class="st3" d="M174,170.5c-0.9,0-1.6-0.3-2.2-0.9s-0.8-1.3-0.8-2.3v-0.2c0-0.6,0.1-1.2,0.4-1.7s0.6-0.9,1-1.2
		s0.9-0.4,1.5-0.4c0.9,0,1.5,0.3,2,0.8s0.7,1.3,0.7,2.3v0.6h-4.1c0,0.5,0.2,0.9,0.5,1.2s0.7,0.5,1.2,0.5c0.7,0,1.2-0.3,1.6-0.8
		l0.8,0.7c-0.3,0.4-0.6,0.7-1,0.9S174.5,170.5,174,170.5z M173.8,165c-0.4,0-0.7,0.1-0.9,0.4s-0.4,0.7-0.5,1.1h2.7v-0.1
		c0-0.5-0.2-0.8-0.4-1.1S174.2,165,173.8,165z"/>
	<path class="st3" d="M180.3,169.3c0.4,0,0.7-0.1,0.9-0.3s0.4-0.5,0.4-0.8h1.3c0,0.4-0.1,0.8-0.4,1.1s-0.5,0.6-0.9,0.8
		s-0.8,0.3-1.3,0.3c-0.9,0-1.6-0.3-2.1-0.9s-0.8-1.4-0.8-2.4v-0.1c0-1,0.3-1.7,0.8-2.3s1.2-0.9,2.1-0.9c0.8,0,1.4,0.2,1.8,0.7
		s0.7,1,0.7,1.7h-1.3c0-0.4-0.1-0.7-0.4-0.9s-0.5-0.4-0.9-0.4c-0.5,0-0.8,0.2-1.1,0.5s-0.4,0.8-0.4,1.5v0.2c0,0.7,0.1,1.2,0.4,1.5
		S179.8,169.3,180.3,169.3z"/>
	<path class="st3" d="M183.9,162.4c0-0.2,0.1-0.4,0.2-0.5s0.3-0.2,0.6-0.2s0.5,0.1,0.6,0.2s0.2,0.3,0.2,0.5c0,0.2-0.1,0.4-0.2,0.5
		s-0.3,0.2-0.6,0.2s-0.5-0.1-0.6-0.2S183.9,162.6,183.9,162.4z M185.4,170.3H184V164h1.4V170.3z"/>
	<path class="st3" d="M186.7,167.1c0-1,0.2-1.8,0.7-2.4s1.1-0.9,1.8-0.9c0.7,0,1.2,0.2,1.6,0.7v-3.2h1.4v9H191l-0.1-0.7
		c-0.4,0.5-1,0.8-1.7,0.8c-0.7,0-1.3-0.3-1.8-0.9S186.7,168.1,186.7,167.1z M188.2,167.2c0,0.6,0.1,1.1,0.4,1.5s0.6,0.5,1.1,0.5
		c0.6,0,1-0.3,1.3-0.8v-2.7c-0.3-0.5-0.7-0.8-1.3-0.8c-0.5,0-0.8,0.2-1.1,0.5S188.2,166.5,188.2,167.2z"/>
	<path class="st3" d="M193.5,167.1c0-0.6,0.1-1.2,0.4-1.7s0.6-0.9,1-1.1s1-0.4,1.5-0.4c0.9,0,1.5,0.3,2.1,0.8s0.8,1.3,0.9,2.2l0,0.3
		c0,0.6-0.1,1.2-0.4,1.7s-0.6,0.9-1,1.1s-1,0.4-1.5,0.4c-0.9,0-1.6-0.3-2.1-0.9S193.5,168.2,193.5,167.1L193.5,167.1z M194.9,167.2
		c0,0.7,0.1,1.2,0.4,1.5s0.6,0.6,1.1,0.6s0.9-0.2,1.1-0.6s0.4-0.9,0.4-1.6c0-0.6-0.1-1.1-0.4-1.5s-0.6-0.6-1.1-0.6
		c-0.5,0-0.8,0.2-1.1,0.6S194.9,166.5,194.9,167.2z"/>
	<path class="st3" d="M207.4,169.7c-0.4,0.5-1,0.7-1.8,0.7c-0.7,0-1.2-0.2-1.6-0.6s-0.5-1-0.5-1.7V164h1.4v4.1c0,0.8,0.3,1.2,1,1.2
		c0.7,0,1.2-0.2,1.4-0.7V164h1.4v6.3h-1.3L207.4,169.7z"/>
	<path class="st3" d="M213.6,165.3c-0.2,0-0.4,0-0.6,0c-0.7,0-1.1,0.2-1.3,0.8v4.3h-1.4V164h1.4l0,0.7c0.3-0.6,0.8-0.8,1.4-0.8
		c0.2,0,0.4,0,0.5,0.1L213.6,165.3z"/>
	<path class="st3" d="M220,167.2c0,1-0.2,1.8-0.7,2.3s-1,0.9-1.8,0.9c-0.7,0-1.3-0.3-1.7-0.8l-0.1,0.7h-1.3v-9h1.4v3.3
		c0.4-0.5,1-0.7,1.7-0.7c0.8,0,1.4,0.3,1.8,0.9S220,166.1,220,167.2L220,167.2z M218.6,167.1c0-0.7-0.1-1.2-0.4-1.5
		s-0.6-0.5-1.1-0.5c-0.6,0-1.1,0.3-1.3,0.8v2.6c0.3,0.6,0.7,0.8,1.3,0.8c0.4,0,0.8-0.2,1-0.5s0.4-0.8,0.4-1.5V167.1z"/>
	<path class="st3" d="M225,170.3c-0.1-0.1-0.1-0.3-0.2-0.6c-0.5,0.5-1,0.7-1.7,0.7c-0.6,0-1.2-0.2-1.6-0.5s-0.6-0.8-0.6-1.3
		c0-0.7,0.3-1.2,0.8-1.6s1.2-0.5,2.2-0.5h0.9V166c0-0.3-0.1-0.6-0.3-0.8s-0.5-0.3-0.8-0.3c-0.3,0-0.6,0.1-0.8,0.2s-0.3,0.4-0.3,0.6
		h-1.4c0-0.3,0.1-0.7,0.3-1s0.5-0.5,0.9-0.7s0.8-0.3,1.3-0.3c0.7,0,1.3,0.2,1.8,0.6s0.7,0.9,0.7,1.6v2.9c0,0.6,0.1,1,0.2,1.4v0.1
		H225z M223.5,169.3c0.3,0,0.5-0.1,0.8-0.2s0.4-0.3,0.6-0.6v-1.2H224c-0.5,0-0.9,0.1-1.2,0.3s-0.4,0.4-0.4,0.8
		c0,0.3,0.1,0.5,0.3,0.7S223.1,169.3,223.5,169.3z"/>
	<path class="st3" d="M229,164l0,0.7c0.5-0.6,1.1-0.8,1.8-0.8c1.3,0,2,0.8,2,2.3v4.2h-1.4v-4.1c0-0.4-0.1-0.7-0.3-0.9
		s-0.5-0.3-0.9-0.3c-0.6,0-1,0.3-1.3,0.8v4.5h-1.4V164H229z"/>
	<path class="st3" d="M234.1,167.1c0-0.6,0.1-1.2,0.4-1.7s0.6-0.9,1-1.1s1-0.4,1.5-0.4c0.9,0,1.5,0.3,2.1,0.8s0.8,1.3,0.9,2.2l0,0.3
		c0,0.6-0.1,1.2-0.4,1.7s-0.6,0.9-1,1.1s-1,0.4-1.5,0.4c-0.9,0-1.6-0.3-2.1-0.9S234.1,168.2,234.1,167.1L234.1,167.1z M235.6,167.2
		c0,0.7,0.1,1.2,0.4,1.5s0.6,0.6,1.1,0.6s0.9-0.2,1.1-0.6s0.4-0.9,0.4-1.6c0-0.6-0.1-1.1-0.4-1.5s-0.6-0.6-1.1-0.6
		c-0.5,0-0.8,0.2-1.1,0.6S235.6,166.5,235.6,167.2z"/>
</g>
<g class="st0">
	<path class="st1" d="M86.9,274.5v5.7c0,0.9-0.3,1.6-0.9,2.2s-1.4,0.8-2.3,0.8c-1,0-1.8-0.3-2.3-0.8s-0.9-1.2-0.9-2.2v-5.7H82v5.7
		c0,0.6,0.1,1,0.4,1.3s0.7,0.5,1.3,0.5c1.1,0,1.7-0.6,1.7-1.8v-5.7H86.9z"/>
	<path class="st1" d="M93,280.8c0-0.4-0.1-0.7-0.4-0.9s-0.7-0.4-1.4-0.6s-1.2-0.4-1.6-0.7c-0.8-0.5-1.2-1.1-1.2-1.9
		c0-0.7,0.3-1.3,0.8-1.7s1.3-0.7,2.2-0.7c0.6,0,1.1,0.1,1.6,0.3s0.8,0.5,1.1,0.9s0.4,0.9,0.4,1.3H93c0-0.4-0.1-0.8-0.4-1
		s-0.7-0.4-1.2-0.4c-0.5,0-0.9,0.1-1.1,0.3s-0.4,0.5-0.4,0.9c0,0.3,0.1,0.6,0.4,0.8s0.8,0.4,1.4,0.6s1.2,0.4,1.6,0.7
		s0.7,0.5,0.9,0.9s0.3,0.7,0.3,1.1c0,0.7-0.3,1.3-0.8,1.7s-1.3,0.6-2.2,0.6c-0.6,0-1.2-0.1-1.7-0.3s-0.9-0.5-1.2-0.9
		s-0.4-0.9-0.4-1.4h1.5c0,0.5,0.2,0.9,0.5,1.1s0.8,0.4,1.4,0.4c0.5,0,0.9-0.1,1.2-0.3S93,281.2,93,280.8z"/>
	<path class="st1" d="M102.6,279c0,0.8-0.1,1.6-0.4,2.2s-0.7,1.1-1.2,1.5s-1.2,0.5-1.9,0.5c-0.7,0-1.3-0.2-1.8-0.5s-1-0.8-1.3-1.4
		s-0.4-1.3-0.4-2.2v-0.5c0-0.8,0.1-1.6,0.4-2.2s0.7-1.1,1.2-1.5s1.2-0.5,1.8-0.5s1.3,0.2,1.8,0.5s1,0.8,1.2,1.4s0.4,1.4,0.4,2.2V279
		z M101.1,278.5c0-0.9-0.2-1.7-0.5-2.2s-0.9-0.8-1.5-0.8c-0.6,0-1.1,0.3-1.5,0.8s-0.5,1.2-0.6,2.1v0.5c0,0.9,0.2,1.7,0.5,2.2
		s0.9,0.8,1.5,0.8c0.7,0,1.2-0.2,1.5-0.8s0.5-1.2,0.5-2.2V278.5z"/>
	<path class="st1" d="M107,283v-8.5h2.5c0.8,0,1.4,0.2,2,0.5s1,0.8,1.4,1.4s0.5,1.3,0.5,2.1v0.4c0,0.8-0.2,1.5-0.5,2.1
		s-0.8,1.1-1.4,1.4s-1.3,0.5-2,0.5H107z M108.5,275.7v6.2h1c0.8,0,1.4-0.2,1.8-0.7s0.6-1.2,0.6-2.1v-0.5c0-0.9-0.2-1.6-0.6-2.1
		s-1-0.7-1.8-0.7H108.5z"/>
	<path class="st1" d="M119.8,279.2h-3.5v2.6h4.1v1.2h-5.6v-8.5h5.5v1.2h-4.1v2.4h3.5V279.2z"/>
	<path class="st1" d="M130.4,275.7h-2.7v7.3h-1.5v-7.3h-2.6v-1.2h6.8V275.7z"/>
	<path class="st1" d="M136.6,279.2H133v2.6h4.1v1.2h-5.6v-8.5h5.5v1.2H133v2.4h3.5V279.2z"/>
	<path class="st1" d="M144.9,280.2c-0.1,0.9-0.4,1.6-1,2.1s-1.4,0.8-2.3,0.8c-0.7,0-1.3-0.2-1.8-0.5s-0.9-0.8-1.2-1.4
		s-0.4-1.3-0.4-2.1v-0.8c0-0.8,0.1-1.5,0.4-2.1s0.7-1.1,1.2-1.4s1.1-0.5,1.8-0.5c0.9,0,1.7,0.3,2.3,0.8s0.9,1.2,1,2.2h-1.5
		c-0.1-0.6-0.2-1.1-0.5-1.3s-0.7-0.4-1.3-0.4c-0.6,0-1.1,0.2-1.5,0.7c-0.3,0.5-0.5,1.2-0.5,2.1v0.8c0,0.9,0.2,1.6,0.5,2.1
		c0.3,0.5,0.8,0.7,1.5,0.7c0.6,0,1-0.1,1.3-0.4s0.5-0.7,0.6-1.3H144.9z"/>
	<path class="st1" d="M153,283h-1.5l-3.8-6.1v6.1h-1.5v-8.5h1.5l3.8,6.1v-6.1h1.5V283z"/>
	<path class="st1" d="M161.5,279c0,0.8-0.1,1.6-0.4,2.2s-0.7,1.1-1.2,1.5s-1.2,0.5-1.9,0.5c-0.7,0-1.3-0.2-1.8-0.5s-1-0.8-1.3-1.4
		s-0.4-1.3-0.4-2.2v-0.5c0-0.8,0.1-1.6,0.4-2.2s0.7-1.1,1.2-1.5s1.2-0.5,1.8-0.5s1.3,0.2,1.8,0.5s1,0.8,1.2,1.4s0.4,1.4,0.4,2.2V279
		z M160,278.5c0-0.9-0.2-1.7-0.5-2.2s-0.9-0.8-1.5-0.8c-0.6,0-1.1,0.3-1.5,0.8s-0.5,1.2-0.6,2.1v0.5c0,0.9,0.2,1.7,0.5,2.2
		s0.9,0.8,1.5,0.8c0.7,0,1.2-0.2,1.5-0.8s0.5-1.2,0.5-2.2V278.5z"/>
	<path class="st1" d="M164.5,281.8h3.9v1.2H163v-8.5h1.5V281.8z"/>
	<path class="st1" d="M175.9,279c0,0.8-0.1,1.6-0.4,2.2s-0.7,1.1-1.2,1.5s-1.2,0.5-1.9,0.5c-0.7,0-1.3-0.2-1.8-0.5s-1-0.8-1.3-1.4
		s-0.4-1.3-0.4-2.2v-0.5c0-0.8,0.1-1.6,0.4-2.2s0.7-1.1,1.2-1.5s1.2-0.5,1.8-0.5s1.3,0.2,1.8,0.5s1,0.8,1.2,1.4s0.4,1.4,0.4,2.2V279
		z M174.4,278.5c0-0.9-0.2-1.7-0.5-2.2s-0.9-0.8-1.5-0.8c-0.6,0-1.1,0.3-1.5,0.8s-0.5,1.2-0.6,2.1v0.5c0,0.9,0.2,1.7,0.5,2.2
		s0.9,0.8,1.5,0.8c0.7,0,1.2-0.2,1.5-0.8s0.5-1.2,0.5-2.2V278.5z"/>
	<path class="st1" d="M183.9,281.9c-0.3,0.4-0.7,0.7-1.3,0.9s-1.2,0.3-1.9,0.3c-0.7,0-1.3-0.2-1.9-0.5s-1-0.8-1.3-1.4
		s-0.5-1.3-0.5-2.1v-0.7c0-1.3,0.3-2.3,0.9-3s1.5-1.1,2.6-1.1c0.9,0,1.7,0.2,2.3,0.7s0.9,1.1,1,2h-1.5c-0.2-1-0.8-1.5-1.8-1.5
		c-0.7,0-1.2,0.2-1.5,0.7c-0.3,0.5-0.5,1.2-0.5,2.1v0.7c0,0.9,0.2,1.6,0.6,2.1c0.4,0.5,0.9,0.8,1.6,0.8c0.8,0,1.3-0.2,1.6-0.5v-1.7
		h-1.8v-1.1h3.2V281.9z"/>
	<path class="st1" d="M187.1,283h-1.5v-8.5h1.5V283z"/>
	<path class="st1" d="M193.8,281h-3.3l-0.7,2h-1.5l3.2-8.5h1.3l3.2,8.5h-1.5L193.8,281z M190.9,279.8h2.5l-1.2-3.5L190.9,279.8z"/>
	<path class="st1" d="M201.5,280.8c0-0.4-0.1-0.7-0.4-0.9s-0.7-0.4-1.4-0.6s-1.2-0.4-1.6-0.7c-0.8-0.5-1.2-1.1-1.2-1.9
		c0-0.7,0.3-1.3,0.8-1.7s1.3-0.7,2.2-0.7c0.6,0,1.1,0.1,1.6,0.3s0.8,0.5,1.1,0.9s0.4,0.9,0.4,1.3h-1.5c0-0.4-0.1-0.8-0.4-1
		s-0.7-0.4-1.2-0.4c-0.5,0-0.9,0.1-1.1,0.3s-0.4,0.5-0.4,0.9c0,0.3,0.1,0.6,0.4,0.8s0.8,0.4,1.4,0.6s1.2,0.4,1.6,0.7
		s0.7,0.5,0.9,0.9s0.3,0.7,0.3,1.1c0,0.7-0.3,1.3-0.8,1.7s-1.3,0.6-2.2,0.6c-0.6,0-1.2-0.1-1.7-0.3s-0.9-0.5-1.2-0.9
		s-0.4-0.9-0.4-1.4h1.5c0,0.5,0.2,0.9,0.5,1.1s0.8,0.4,1.4,0.4c0.5,0,0.9-0.1,1.2-0.3S201.5,281.2,201.5,280.8z"/>
</g>
<line class="st2" x1="108.5" y1="257.7" x2="176.8" y2="257.7"/>
<g class="st0">
	<path class="st3" d="M137.4,301.8h-3.3l-0.7,2h-1.5l3.2-8.5h1.3l3.2,8.5h-1.5L137.4,301.8z M134.5,300.6h2.5l-1.2-3.5L134.5,300.6z
		"/>
	<path class="st3" d="M142,303.8h-1.4v-9h1.4V303.8z"/>
	<path class="st3" d="M145.3,295.9v1.5h1.1v1.1h-1.1v3.5c0,0.2,0,0.4,0.1,0.5s0.3,0.2,0.5,0.2c0.2,0,0.3,0,0.5-0.1v1.1
		c-0.3,0.1-0.6,0.1-0.9,0.1c-1.1,0-1.6-0.6-1.6-1.8v-3.6h-1v-1.1h1v-1.5H145.3z"/>
	<path class="st3" d="M147,300.6c0-0.6,0.1-1.2,0.4-1.7s0.6-0.9,1-1.1s1-0.4,1.5-0.4c0.9,0,1.5,0.3,2.1,0.8s0.8,1.3,0.9,2.2l0,0.3
		c0,0.6-0.1,1.2-0.4,1.7s-0.6,0.9-1,1.1s-1,0.4-1.5,0.4c-0.9,0-1.6-0.3-2.1-0.9S147,301.6,147,300.6L147,300.6z M148.5,300.7
		c0,0.7,0.1,1.2,0.4,1.5s0.6,0.6,1.1,0.6s0.9-0.2,1.1-0.6s0.4-0.9,0.4-1.6c0-0.6-0.1-1.1-0.4-1.5s-0.6-0.6-1.1-0.6
		c-0.5,0-0.8,0.2-1.1,0.6S148.5,300,148.5,300.7z"/>
</g>
<g class="st0">
	<path class="st1" d="M98.7,414.5h-3.3l-0.7,2h-1.5l3.2-8.5h1.3l3.2,8.5h-1.5L98.7,414.5z M95.8,413.3h2.5l-1.2-3.5L95.8,413.3z"/>
	<path class="st1" d="M106.3,414.3c0-0.4-0.1-0.7-0.4-0.9s-0.7-0.4-1.4-0.6s-1.2-0.4-1.6-0.7c-0.8-0.5-1.2-1.1-1.2-1.9
		c0-0.7,0.3-1.3,0.8-1.7s1.3-0.7,2.2-0.7c0.6,0,1.1,0.1,1.6,0.3s0.8,0.5,1.1,0.9s0.4,0.9,0.4,1.3h-1.5c0-0.4-0.1-0.8-0.4-1
		s-0.7-0.4-1.2-0.4c-0.5,0-0.9,0.1-1.1,0.3s-0.4,0.5-0.4,0.9c0,0.3,0.1,0.6,0.4,0.8s0.8,0.4,1.4,0.6s1.2,0.4,1.6,0.7
		s0.7,0.5,0.9,0.9s0.3,0.7,0.3,1.1c0,0.7-0.3,1.3-0.8,1.7s-1.3,0.6-2.2,0.6c-0.6,0-1.2-0.1-1.7-0.3s-0.9-0.5-1.2-0.9
		s-0.4-0.9-0.4-1.4h1.5c0,0.5,0.2,0.9,0.5,1.1s0.8,0.4,1.4,0.4c0.5,0,0.9-0.1,1.2-0.3S106.3,414.6,106.3,414.3z"/>
	<path class="st1" d="M113.6,414.3c0-0.4-0.1-0.7-0.4-0.9s-0.7-0.4-1.4-0.6s-1.2-0.4-1.6-0.7c-0.8-0.5-1.2-1.1-1.2-1.9
		c0-0.7,0.3-1.3,0.8-1.7s1.3-0.7,2.2-0.7c0.6,0,1.1,0.1,1.6,0.3s0.8,0.5,1.1,0.9s0.4,0.9,0.4,1.3h-1.5c0-0.4-0.1-0.8-0.4-1
		s-0.7-0.4-1.2-0.4c-0.5,0-0.9,0.1-1.1,0.3s-0.4,0.5-0.4,0.9c0,0.3,0.1,0.6,0.4,0.8s0.8,0.4,1.4,0.6s1.2,0.4,1.6,0.7
		s0.7,0.5,0.9,0.9s0.3,0.7,0.3,1.1c0,0.7-0.3,1.3-0.8,1.7s-1.3,0.6-2.2,0.6c-0.6,0-1.2-0.1-1.7-0.3s-0.9-0.5-1.2-0.9
		s-0.4-0.9-0.4-1.4h1.5c0,0.5,0.2,0.9,0.5,1.1s0.8,0.4,1.4,0.4c0.5,0,0.9-0.1,1.2-0.3S113.6,414.6,113.6,414.3z"/>
	<path class="st1" d="M123.2,412.4c0,0.8-0.1,1.6-0.4,2.2s-0.7,1.1-1.2,1.5s-1.2,0.5-1.9,0.5c-0.7,0-1.3-0.2-1.8-0.5s-1-0.8-1.3-1.4
		s-0.4-1.3-0.4-2.2V412c0-0.8,0.1-1.6,0.4-2.2s0.7-1.1,1.2-1.5s1.2-0.5,1.8-0.5s1.3,0.2,1.8,0.5s1,0.8,1.2,1.4s0.4,1.4,0.4,2.2
		V412.4z M121.7,412c0-0.9-0.2-1.7-0.5-2.2s-0.9-0.8-1.5-0.8c-0.6,0-1.1,0.3-1.5,0.8s-0.5,1.2-0.6,2.1v0.5c0,0.9,0.2,1.7,0.5,2.2
		s0.9,0.8,1.5,0.8c0.7,0,1.2-0.2,1.5-0.8s0.5-1.2,0.5-2.2V412z"/>
	<path class="st1" d="M131.1,413.7c-0.1,0.9-0.4,1.6-1,2.1s-1.4,0.8-2.3,0.8c-0.7,0-1.3-0.2-1.8-0.5s-0.9-0.8-1.2-1.4
		s-0.4-1.3-0.4-2.1v-0.8c0-0.8,0.1-1.5,0.4-2.1s0.7-1.1,1.2-1.4s1.1-0.5,1.8-0.5c0.9,0,1.7,0.3,2.3,0.8s0.9,1.2,1,2.2h-1.5
		c-0.1-0.6-0.2-1.1-0.5-1.3s-0.7-0.4-1.3-0.4c-0.6,0-1.1,0.2-1.5,0.7c-0.3,0.5-0.5,1.2-0.5,2.1v0.8c0,0.9,0.2,1.6,0.5,2.1
		c0.3,0.5,0.8,0.7,1.5,0.7c0.6,0,1-0.1,1.3-0.4s0.5-0.7,0.6-1.3H131.1z"/>
	<path class="st1" d="M134,416.5h-1.5v-8.5h1.5V416.5z"/>
	<path class="st1" d="M140.7,414.5h-3.3l-0.7,2h-1.5l3.2-8.5h1.3l3.2,8.5h-1.5L140.7,414.5z M137.9,413.3h2.5l-1.2-3.5L137.9,413.3z
		"/>
	<path class="st1" d="M149.4,409.1h-2.7v7.3h-1.5v-7.3h-2.6v-1.2h6.8V409.1z"/>
	<path class="st1" d="M152.1,416.5h-1.5v-8.5h1.5V416.5z"/>
	<path class="st1" d="M156.9,414.6l2.2-6.7h1.6l-3.1,8.5h-1.4l-3.1-8.5h1.6L156.9,414.6z"/>
	<path class="st1" d="M163.2,416.5h-1.5v-8.5h1.5V416.5z"/>
	<path class="st1" d="M169.5,414.3c0-0.4-0.1-0.7-0.4-0.9s-0.7-0.4-1.4-0.6s-1.2-0.4-1.6-0.7c-0.8-0.5-1.2-1.1-1.2-1.9
		c0-0.7,0.3-1.3,0.8-1.7s1.3-0.7,2.2-0.7c0.6,0,1.1,0.1,1.6,0.3s0.8,0.5,1.1,0.9s0.4,0.9,0.4,1.3h-1.5c0-0.4-0.1-0.8-0.4-1
		s-0.7-0.4-1.2-0.4c-0.5,0-0.9,0.1-1.1,0.3s-0.4,0.5-0.4,0.9c0,0.3,0.1,0.6,0.4,0.8s0.8,0.4,1.4,0.6s1.2,0.4,1.6,0.7
		s0.7,0.5,0.9,0.9s0.3,0.7,0.3,1.1c0,0.7-0.3,1.3-0.8,1.7s-1.3,0.6-2.2,0.6c-0.6,0-1.2-0.1-1.7-0.3s-0.9-0.5-1.2-0.9
		s-0.4-0.9-0.4-1.4h1.5c0,0.5,0.2,0.9,0.5,1.1s0.8,0.4,1.4,0.4c0.5,0,0.9-0.1,1.2-0.3S169.5,414.6,169.5,414.3z"/>
	<path class="st1" d="M174.2,407.9l2.5,6.5l2.5-6.5h1.9v8.5h-1.5v-2.8l0.1-3.8l-2.5,6.6h-1.1l-2.5-6.6l0.1,3.8v2.8h-1.5v-8.5H174.2z
		"/>
	<path class="st1" d="M189.6,412.4c0,0.8-0.1,1.6-0.4,2.2s-0.7,1.1-1.2,1.5s-1.2,0.5-1.9,0.5c-0.7,0-1.3-0.2-1.8-0.5s-1-0.8-1.3-1.4
		s-0.4-1.3-0.4-2.2V412c0-0.8,0.1-1.6,0.4-2.2s0.7-1.1,1.2-1.5s1.2-0.5,1.8-0.5s1.3,0.2,1.8,0.5s1,0.8,1.2,1.4s0.4,1.4,0.4,2.2
		V412.4z M188.1,412c0-0.9-0.2-1.7-0.5-2.2s-0.9-0.8-1.5-0.8c-0.6,0-1.1,0.3-1.5,0.8s-0.5,1.2-0.6,2.1v0.5c0,0.9,0.2,1.7,0.5,2.2
		s0.9,0.8,1.5,0.8c0.7,0,1.2-0.2,1.5-0.8s0.5-1.2,0.5-2.2V412z"/>
</g>
<line class="st2" x1="108.5" y1="391.2" x2="176.8" y2="391.2"/>
<g class="st0">
	<path class="st3" d="M75.6,428.8l2.5,6.5l2.5-6.5h1.9v8.5H81v-2.8l0.1-3.8l-2.5,6.6h-1.1l-2.5-6.6l0.1,3.8v2.8h-1.5v-8.5H75.6z"/>
	<path class="st3" d="M87.9,437.3c-0.1-0.1-0.1-0.3-0.2-0.6c-0.5,0.5-1,0.7-1.7,0.7c-0.6,0-1.2-0.2-1.6-0.5s-0.6-0.8-0.6-1.3
		c0-0.7,0.3-1.2,0.8-1.6s1.2-0.5,2.2-0.5h0.9V433c0-0.3-0.1-0.6-0.3-0.8s-0.5-0.3-0.8-0.3c-0.3,0-0.6,0.1-0.8,0.2s-0.3,0.4-0.3,0.6
		H84c0-0.3,0.1-0.7,0.3-1s0.5-0.5,0.9-0.7s0.8-0.3,1.3-0.3c0.7,0,1.3,0.2,1.8,0.6s0.7,0.9,0.7,1.6v2.9c0,0.6,0.1,1,0.2,1.4v0.1H87.9
		z M86.3,436.3c0.3,0,0.5-0.1,0.8-0.2s0.4-0.3,0.6-0.6v-1.2h-0.8c-0.5,0-0.9,0.1-1.2,0.3s-0.4,0.4-0.4,0.8c0,0.3,0.1,0.5,0.3,0.7
		S86,436.3,86.3,436.3z"/>
	<path class="st3" d="M90.6,429.3c0-0.2,0.1-0.4,0.2-0.5s0.3-0.2,0.6-0.2s0.5,0.1,0.6,0.2s0.2,0.3,0.2,0.5c0,0.2-0.1,0.4-0.2,0.5
		s-0.3,0.2-0.6,0.2s-0.5-0.1-0.6-0.2S90.6,429.5,90.6,429.3z M92.1,437.3h-1.4V431h1.4V437.3z"/>
	<path class="st3" d="M93.4,434.1c0-0.6,0.1-1.2,0.4-1.7s0.6-0.9,1-1.1s1-0.4,1.5-0.4c0.9,0,1.5,0.3,2.1,0.8s0.8,1.3,0.9,2.2l0,0.3
		c0,0.6-0.1,1.2-0.4,1.7s-0.6,0.9-1,1.1s-1,0.4-1.5,0.4c-0.9,0-1.6-0.3-2.1-0.9S93.4,435.1,93.4,434.1L93.4,434.1z M94.8,434.2
		c0,0.7,0.1,1.2,0.4,1.5s0.6,0.6,1.1,0.6s0.9-0.2,1.1-0.6s0.4-0.9,0.4-1.6c0-0.6-0.1-1.1-0.4-1.5s-0.6-0.6-1.1-0.6
		c-0.5,0-0.8,0.2-1.1,0.6S94.8,433.5,94.8,434.2z"/>
	<path class="st3" d="M103.8,432.3c-0.2,0-0.4,0-0.6,0c-0.7,0-1.1,0.2-1.3,0.8v4.3h-1.4V431h1.4l0,0.7c0.3-0.6,0.8-0.8,1.4-0.8
		c0.2,0,0.4,0,0.5,0.1L103.8,432.3z"/>
	<path class="st3" d="M107.4,434.1c0-1,0.2-1.8,0.7-2.4s1.1-0.9,1.8-0.9c0.7,0,1.3,0.3,1.7,0.8l0.1-0.6h1.3v6.1c0,0.8-0.3,1.5-0.8,2
		s-1.2,0.7-2.1,0.7c-0.5,0-0.9-0.1-1.4-0.3s-0.8-0.4-1-0.8l0.7-0.9c0.4,0.5,1,0.8,1.6,0.8c0.5,0,0.8-0.1,1.1-0.4s0.4-0.6,0.4-1.1
		v-0.4c-0.4,0.5-1,0.7-1.6,0.7c-0.7,0-1.3-0.3-1.8-0.9S107.4,435.1,107.4,434.1z M108.8,434.2c0,0.6,0.1,1.1,0.4,1.5
		s0.6,0.5,1.1,0.5c0.6,0,1-0.2,1.3-0.7v-2.8c-0.3-0.5-0.7-0.7-1.3-0.7c-0.5,0-0.8,0.2-1.1,0.6S108.8,433.5,108.8,434.2z"/>
	<path class="st3" d="M117.8,432.3c-0.2,0-0.4,0-0.6,0c-0.7,0-1.1,0.2-1.3,0.8v4.3h-1.4V431h1.4l0,0.7c0.3-0.6,0.8-0.8,1.4-0.8
		c0.2,0,0.4,0,0.5,0.1L117.8,432.3z"/>
	<path class="st3" d="M122.3,437.3c-0.1-0.1-0.1-0.3-0.2-0.6c-0.5,0.5-1,0.7-1.7,0.7c-0.6,0-1.2-0.2-1.6-0.5s-0.6-0.8-0.6-1.3
		c0-0.7,0.3-1.2,0.8-1.6s1.2-0.5,2.2-0.5h0.9V433c0-0.3-0.1-0.6-0.3-0.8s-0.5-0.3-0.8-0.3c-0.3,0-0.6,0.1-0.8,0.2s-0.3,0.4-0.3,0.6
		h-1.4c0-0.3,0.1-0.7,0.3-1s0.5-0.5,0.9-0.7s0.8-0.3,1.3-0.3c0.7,0,1.3,0.2,1.8,0.6s0.7,0.9,0.7,1.6v2.9c0,0.6,0.1,1,0.2,1.4v0.1
		H122.3z M120.7,436.3c0.3,0,0.5-0.1,0.8-0.2s0.4-0.3,0.6-0.6v-1.2h-0.8c-0.5,0-0.9,0.1-1.2,0.3s-0.4,0.4-0.4,0.8
		c0,0.3,0.1,0.5,0.3,0.7S120.4,436.3,120.7,436.3z"/>
	<path class="st3" d="M128.9,436.7c-0.4,0.5-1,0.7-1.8,0.7c-0.7,0-1.2-0.2-1.6-0.6s-0.5-1-0.5-1.7V431h1.4v4.1c0,0.8,0.3,1.2,1,1.2
		c0.7,0,1.2-0.2,1.4-0.7V431h1.4v6.3h-1.3L128.9,436.7z"/>
	<path class="st3" d="M137.4,434.2h-3.1v-1.1h3.1V434.2z"/>
	<path class="st3" d="M146.5,435.3h-3.3l-0.7,2H141l3.2-8.5h1.3l3.2,8.5h-1.5L146.5,435.3z M143.6,434.1h2.5l-1.2-3.5L143.6,434.1z"
		/>
	<path class="st3" d="M153.1,435.6c0-0.3-0.1-0.4-0.3-0.6s-0.6-0.2-1-0.4s-0.9-0.2-1.2-0.4c-0.7-0.3-1.1-0.8-1.1-1.5
		c0-0.5,0.2-1,0.7-1.4s1-0.6,1.8-0.6c0.8,0,1.4,0.2,1.8,0.6s0.7,0.9,0.7,1.5h-1.4c0-0.3-0.1-0.5-0.3-0.7s-0.5-0.3-0.8-0.3
		c-0.3,0-0.6,0.1-0.8,0.2s-0.3,0.3-0.3,0.6c0,0.2,0.1,0.4,0.3,0.5s0.6,0.2,1.1,0.4s1,0.3,1.3,0.4s0.6,0.4,0.7,0.6s0.2,0.5,0.2,0.9
		c0,0.6-0.2,1-0.7,1.4s-1.1,0.5-1.9,0.5c-0.5,0-1-0.1-1.4-0.3s-0.7-0.4-0.9-0.8s-0.3-0.7-0.3-1.1h1.4c0,0.3,0.1,0.6,0.4,0.8
		s0.5,0.3,0.9,0.3c0.4,0,0.7-0.1,0.9-0.2S153.1,435.8,153.1,435.6z"/>
	<path class="st3" d="M159.3,435.6c0-0.3-0.1-0.4-0.3-0.6s-0.6-0.2-1-0.4s-0.9-0.2-1.2-0.4c-0.7-0.3-1.1-0.8-1.1-1.5
		c0-0.5,0.2-1,0.7-1.4s1-0.6,1.8-0.6c0.8,0,1.4,0.2,1.8,0.6s0.7,0.9,0.7,1.5h-1.4c0-0.3-0.1-0.5-0.3-0.7s-0.5-0.3-0.8-0.3
		c-0.3,0-0.6,0.1-0.8,0.2s-0.3,0.3-0.3,0.6c0,0.2,0.1,0.4,0.3,0.5s0.6,0.2,1.1,0.4s1,0.3,1.3,0.4s0.6,0.4,0.7,0.6s0.2,0.5,0.2,0.9
		c0,0.6-0.2,1-0.7,1.4s-1.1,0.5-1.9,0.5c-0.5,0-1-0.1-1.4-0.3s-0.7-0.4-0.9-0.8s-0.3-0.7-0.3-1.1h1.4c0,0.3,0.1,0.6,0.4,0.8
		s0.5,0.3,0.9,0.3c0.4,0,0.7-0.1,0.9-0.2S159.3,435.8,159.3,435.6z"/>
	<path class="st3" d="M161.7,434.1c0-0.6,0.1-1.2,0.4-1.7s0.6-0.9,1-1.1s1-0.4,1.5-0.4c0.9,0,1.5,0.3,2.1,0.8s0.8,1.3,0.9,2.2l0,0.3
		c0,0.6-0.1,1.2-0.4,1.7s-0.6,0.9-1,1.1s-1,0.4-1.5,0.4c-0.9,0-1.6-0.3-2.1-0.9S161.7,435.1,161.7,434.1L161.7,434.1z M163.1,434.2
		c0,0.7,0.1,1.2,0.4,1.5s0.6,0.6,1.1,0.6s0.9-0.2,1.1-0.6s0.4-0.9,0.4-1.6c0-0.6-0.1-1.1-0.4-1.5s-0.6-0.6-1.1-0.6
		c-0.5,0-0.8,0.2-1.1,0.6S163.1,433.5,163.1,434.2z"/>
	<path class="st3" d="M171.4,436.3c0.4,0,0.7-0.1,0.9-0.3s0.4-0.5,0.4-0.8h1.3c0,0.4-0.1,0.8-0.4,1.1s-0.5,0.6-0.9,0.8
		s-0.8,0.3-1.3,0.3c-0.9,0-1.6-0.3-2.1-0.9s-0.8-1.4-0.8-2.4V434c0-1,0.3-1.7,0.8-2.3s1.2-0.9,2.1-0.9c0.8,0,1.4,0.2,1.8,0.7
		s0.7,1,0.7,1.7h-1.3c0-0.4-0.1-0.7-0.4-0.9s-0.5-0.4-0.9-0.4c-0.5,0-0.8,0.2-1.1,0.5s-0.4,0.8-0.4,1.5v0.2c0,0.7,0.1,1.2,0.4,1.5
		S170.9,436.3,171.4,436.3z"/>
	<path class="st3" d="M175.1,429.3c0-0.2,0.1-0.4,0.2-0.5s0.3-0.2,0.6-0.2s0.5,0.1,0.6,0.2s0.2,0.3,0.2,0.5c0,0.2-0.1,0.4-0.2,0.5
		s-0.3,0.2-0.6,0.2s-0.5-0.1-0.6-0.2S175.1,429.5,175.1,429.3z M176.6,437.3h-1.4V431h1.4V437.3z"/>
	<path class="st3" d="M181.9,437.3c-0.1-0.1-0.1-0.3-0.2-0.6c-0.5,0.5-1,0.7-1.7,0.7c-0.6,0-1.2-0.2-1.6-0.5s-0.6-0.8-0.6-1.3
		c0-0.7,0.3-1.2,0.8-1.6s1.2-0.5,2.2-0.5h0.9V433c0-0.3-0.1-0.6-0.3-0.8s-0.5-0.3-0.8-0.3c-0.3,0-0.6,0.1-0.8,0.2s-0.3,0.4-0.3,0.6
		h-1.4c0-0.3,0.1-0.7,0.3-1s0.5-0.5,0.9-0.7s0.8-0.3,1.3-0.3c0.7,0,1.3,0.2,1.8,0.6s0.7,0.9,0.7,1.6v2.9c0,0.6,0.1,1,0.2,1.4v0.1
		H181.9z M180.4,436.3c0.3,0,0.5-0.1,0.8-0.2s0.4-0.3,0.6-0.6v-1.2H181c-0.5,0-0.9,0.1-1.2,0.3s-0.4,0.4-0.4,0.8
		c0,0.3,0.1,0.5,0.3,0.7S180.1,436.3,180.4,436.3z"/>
	<path class="st3" d="M187.2,436.3c0.4,0,0.7-0.1,0.9-0.3s0.4-0.5,0.4-0.8h1.3c0,0.4-0.1,0.8-0.4,1.1s-0.5,0.6-0.9,0.8
		s-0.8,0.3-1.3,0.3c-0.9,0-1.6-0.3-2.1-0.9s-0.8-1.4-0.8-2.4V434c0-1,0.3-1.7,0.8-2.3s1.2-0.9,2.1-0.9c0.8,0,1.4,0.2,1.8,0.7
		s0.7,1,0.7,1.7h-1.3c0-0.4-0.1-0.7-0.4-0.9s-0.5-0.4-0.9-0.4c-0.5,0-0.8,0.2-1.1,0.5s-0.4,0.8-0.4,1.5v0.2c0,0.7,0.1,1.2,0.4,1.5
		S186.8,436.3,187.2,436.3z M187.6,437.3l-0.1,0.3c0.6,0.1,0.9,0.4,0.9,1c0,0.4-0.2,0.7-0.5,1s-0.8,0.3-1.4,0.3l0-0.8
		c0.3,0,0.5,0,0.6-0.1s0.2-0.2,0.2-0.4c0-0.2-0.1-0.3-0.2-0.4s-0.4-0.1-0.7-0.1l0.2-0.8H187.6z"/>
	<path class="st3" d="M190.7,434.1c0-0.6,0.1-1.2,0.4-1.7s0.6-0.9,1-1.1s1-0.4,1.5-0.4c0.9,0,1.5,0.3,2.1,0.8s0.8,1.3,0.9,2.2l0,0.3
		c0,0.6-0.1,1.2-0.4,1.7s-0.6,0.9-1,1.1s-1,0.4-1.5,0.4c-0.9,0-1.6-0.3-2.1-0.9S190.7,435.1,190.7,434.1L190.7,434.1z M195.7,428.4
		c0,0.4-0.1,0.8-0.4,1.1s-0.6,0.4-0.9,0.4c-0.2,0-0.3,0-0.4,0s-0.3-0.1-0.5-0.2s-0.3-0.2-0.4-0.2s-0.2,0-0.3,0
		c-0.1,0-0.3,0.1-0.4,0.2s-0.2,0.3-0.2,0.4l-0.9,0c0-0.4,0.1-0.8,0.4-1.1s0.6-0.4,0.9-0.4c0.2,0,0.5,0.1,0.8,0.3s0.6,0.3,0.8,0.3
		c0.1,0,0.3-0.1,0.4-0.2s0.2-0.3,0.2-0.4L195.7,428.4z M192.1,434.2c0,0.7,0.1,1.2,0.4,1.5s0.6,0.6,1.1,0.6s0.9-0.2,1.1-0.6
		s0.4-0.9,0.4-1.6c0-0.6-0.1-1.1-0.4-1.5s-0.6-0.6-1.1-0.6c-0.5,0-0.8,0.2-1.1,0.6S192.1,433.5,192.1,434.2z"/>
	<path class="st3" d="M200.5,437.4c-0.9,0-1.6-0.3-2.2-0.9s-0.8-1.3-0.8-2.3v-0.2c0-0.6,0.1-1.2,0.4-1.7s0.6-0.9,1-1.2
		s0.9-0.4,1.5-0.4c0.9,0,1.5,0.3,2,0.8s0.7,1.3,0.7,2.3v0.6h-4.1c0,0.5,0.2,0.9,0.5,1.2s0.7,0.5,1.2,0.5c0.7,0,1.2-0.3,1.6-0.8
		l0.8,0.7c-0.3,0.4-0.6,0.7-1,0.9S201.1,437.4,200.5,437.4z M200.4,432c-0.4,0-0.7,0.1-0.9,0.4s-0.4,0.7-0.5,1.1h2.7v-0.1
		c0-0.5-0.2-0.8-0.4-1.1S200.8,432,200.4,432z"/>
	<path class="st3" d="M207.7,435.6c0-0.3-0.1-0.4-0.3-0.6s-0.6-0.2-1-0.4s-0.9-0.2-1.2-0.4c-0.7-0.3-1.1-0.8-1.1-1.5
		c0-0.5,0.2-1,0.7-1.4s1-0.6,1.8-0.6c0.8,0,1.4,0.2,1.8,0.6s0.7,0.9,0.7,1.5h-1.4c0-0.3-0.1-0.5-0.3-0.7s-0.5-0.3-0.8-0.3
		c-0.3,0-0.6,0.1-0.8,0.2s-0.3,0.3-0.3,0.6c0,0.2,0.1,0.4,0.3,0.5s0.6,0.2,1.1,0.4s1,0.3,1.3,0.4s0.6,0.4,0.7,0.6s0.2,0.5,0.2,0.9
		c0,0.6-0.2,1-0.7,1.4s-1.1,0.5-1.9,0.5c-0.5,0-1-0.1-1.4-0.3s-0.7-0.4-0.9-0.8s-0.3-0.7-0.3-1.1h1.4c0,0.3,0.1,0.6,0.4,0.8
		s0.5,0.3,0.9,0.3c0.4,0,0.7-0.1,0.9-0.2S207.7,435.8,207.7,435.6z"/>
	<path class="st3" d="M210.6,439.2l-0.8-0.5c0.2-0.4,0.4-0.7,0.5-0.9s0.1-0.5,0.1-0.8v-1.1h1.3l0,1c0,0.4-0.1,0.8-0.3,1.2
		S210.9,438.9,210.6,439.2z"/>
</g>
<g class="st0">
	<path class="st3" d="M77.9,452.9c0-0.4-0.1-0.7-0.4-0.9s-0.7-0.4-1.4-0.6s-1.2-0.4-1.6-0.7c-0.8-0.5-1.2-1.1-1.2-1.9
		c0-0.7,0.3-1.3,0.8-1.7s1.3-0.7,2.2-0.7c0.6,0,1.1,0.1,1.6,0.3s0.8,0.5,1.1,0.9s0.4,0.9,0.4,1.3h-1.5c0-0.4-0.1-0.8-0.4-1
		s-0.7-0.4-1.2-0.4c-0.5,0-0.9,0.1-1.1,0.3s-0.4,0.5-0.4,0.9c0,0.3,0.1,0.6,0.4,0.8s0.8,0.4,1.4,0.6s1.2,0.4,1.6,0.7
		s0.7,0.5,0.9,0.9s0.3,0.7,0.3,1.1c0,0.7-0.3,1.3-0.8,1.7s-1.3,0.6-2.2,0.6c-0.6,0-1.2-0.1-1.7-0.3s-0.9-0.5-1.2-0.9
		s-0.4-0.9-0.4-1.4h1.5c0,0.5,0.2,0.9,0.5,1.1s0.8,0.4,1.4,0.4c0.5,0,0.9-0.1,1.2-0.3S77.9,453.2,77.9,452.9z"/>
	<path class="st3" d="M80.6,447.1c0-0.2,0.1-0.4,0.2-0.5s0.3-0.2,0.6-0.2s0.5,0.1,0.6,0.2s0.2,0.3,0.2,0.5c0,0.2-0.1,0.4-0.2,0.5
		s-0.3,0.2-0.6,0.2s-0.5-0.1-0.6-0.2S80.6,447.3,80.6,447.1z M82.1,455.1h-1.4v-6.3h1.4V455.1z"/>
	<path class="st3" d="M85,448.8l0,0.7c0.5-0.6,1.1-0.8,1.8-0.8c1.3,0,2,0.8,2,2.3v4.2h-1.4V451c0-0.4-0.1-0.7-0.3-0.9
		s-0.5-0.3-0.9-0.3c-0.6,0-1,0.3-1.3,0.8v4.5h-1.4v-6.3H85z"/>
	<path class="st3" d="M90,451.9c0-1,0.2-1.8,0.7-2.4s1.1-0.9,1.8-0.9c0.7,0,1.2,0.2,1.6,0.7v-3.2h1.4v9h-1.3l-0.1-0.7
		c-0.4,0.5-1,0.8-1.7,0.8c-0.7,0-1.3-0.3-1.8-0.9S90,452.9,90,451.9z M91.5,452c0,0.6,0.1,1.1,0.4,1.5s0.6,0.5,1.1,0.5
		c0.6,0,1-0.3,1.3-0.8v-2.7c-0.3-0.5-0.7-0.8-1.3-0.8c-0.5,0-0.8,0.2-1.1,0.5S91.5,451.3,91.5,452z"/>
	<path class="st3" d="M97.1,447.1c0-0.2,0.1-0.4,0.2-0.5s0.3-0.2,0.6-0.2s0.5,0.1,0.6,0.2s0.2,0.3,0.2,0.5c0,0.2-0.1,0.4-0.2,0.5
		s-0.3,0.2-0.6,0.2s-0.5-0.1-0.6-0.2S97.1,447.3,97.1,447.1z M98.6,455.1h-1.4v-6.3h1.4V455.1z"/>
	<path class="st3" d="M102.8,454.1c0.4,0,0.7-0.1,0.9-0.3s0.4-0.5,0.4-0.8h1.3c0,0.4-0.1,0.8-0.4,1.1s-0.5,0.6-0.9,0.8
		s-0.8,0.3-1.3,0.3c-0.9,0-1.6-0.3-2.1-0.9s-0.8-1.4-0.8-2.4v-0.1c0-1,0.3-1.7,0.8-2.3s1.2-0.9,2.1-0.9c0.8,0,1.4,0.2,1.8,0.7
		s0.7,1,0.7,1.7H104c0-0.4-0.1-0.7-0.4-0.9s-0.5-0.4-0.9-0.4c-0.5,0-0.8,0.2-1.1,0.5s-0.4,0.8-0.4,1.5v0.2c0,0.7,0.1,1.2,0.4,1.5
		S102.3,454.1,102.8,454.1z"/>
	<path class="st3" d="M110.2,455.1c-0.1-0.1-0.1-0.3-0.2-0.6c-0.5,0.5-1,0.7-1.7,0.7c-0.6,0-1.2-0.2-1.6-0.5s-0.6-0.8-0.6-1.3
		c0-0.7,0.3-1.2,0.8-1.6s1.2-0.5,2.2-0.5h0.9v-0.4c0-0.3-0.1-0.6-0.3-0.8s-0.5-0.3-0.8-0.3c-0.3,0-0.6,0.1-0.8,0.2s-0.3,0.4-0.3,0.6
		h-1.4c0-0.3,0.1-0.7,0.3-1s0.5-0.5,0.9-0.7s0.8-0.3,1.3-0.3c0.7,0,1.3,0.2,1.8,0.6s0.7,0.9,0.7,1.6v2.9c0,0.6,0.1,1,0.2,1.4v0.1
		H110.2z M108.7,454.1c0.3,0,0.5-0.1,0.8-0.2s0.4-0.3,0.6-0.6v-1.2h-0.8c-0.5,0-0.9,0.1-1.2,0.3s-0.4,0.4-0.4,0.8
		c0,0.3,0.1,0.5,0.3,0.7S108.4,454.1,108.7,454.1z"/>
	<path class="st3" d="M114.7,447.2v1.5h1.1v1.1h-1.1v3.5c0,0.2,0,0.4,0.1,0.5s0.3,0.2,0.5,0.2c0.2,0,0.3,0,0.5-0.1v1.1
		c-0.3,0.1-0.6,0.1-0.9,0.1c-1.1,0-1.6-0.6-1.6-1.8v-3.6h-1v-1.1h1v-1.5H114.7z"/>
	<path class="st3" d="M116.5,451.9c0-0.6,0.1-1.2,0.4-1.7s0.6-0.9,1-1.1s1-0.4,1.5-0.4c0.9,0,1.5,0.3,2.1,0.8s0.8,1.3,0.9,2.2l0,0.3
		c0,0.6-0.1,1.2-0.4,1.7s-0.6,0.9-1,1.1s-1,0.4-1.5,0.4c-0.9,0-1.6-0.3-2.1-0.9S116.5,452.9,116.5,451.9L116.5,451.9z M117.9,452
		c0,0.7,0.1,1.2,0.4,1.5s0.6,0.6,1.1,0.6s0.9-0.2,1.1-0.6s0.4-0.9,0.4-1.6c0-0.6-0.1-1.1-0.4-1.5s-0.6-0.6-1.1-0.6
		c-0.5,0-0.8,0.2-1.1,0.6S117.9,451.3,117.9,452z"/>
	<path class="st3" d="M127.1,453.4c0-0.3-0.1-0.4-0.3-0.6s-0.6-0.2-1-0.4s-0.9-0.2-1.2-0.4c-0.7-0.3-1.1-0.8-1.1-1.5
		c0-0.5,0.2-1,0.7-1.4s1-0.6,1.8-0.6c0.8,0,1.4,0.2,1.8,0.6s0.7,0.9,0.7,1.5h-1.4c0-0.3-0.1-0.5-0.3-0.7s-0.5-0.3-0.8-0.3
		c-0.3,0-0.6,0.1-0.8,0.2s-0.3,0.3-0.3,0.6c0,0.2,0.1,0.4,0.3,0.5s0.6,0.2,1.1,0.4s1,0.3,1.3,0.4s0.6,0.4,0.7,0.6s0.2,0.5,0.2,0.9
		c0,0.6-0.2,1-0.7,1.4s-1.1,0.5-1.9,0.5c-0.5,0-1-0.1-1.4-0.3s-0.7-0.4-0.9-0.8s-0.3-0.7-0.3-1.1h1.4c0,0.3,0.1,0.6,0.4,0.8
		s0.5,0.3,0.9,0.3c0.4,0,0.7-0.1,0.9-0.2S127.1,453.6,127.1,453.4z"/>
	<path class="st3" d="M135.5,455.2c-0.9,0-1.6-0.3-2.2-0.9s-0.8-1.3-0.8-2.3v-0.2c0-0.6,0.1-1.2,0.4-1.7s0.6-0.9,1-1.2
		s0.9-0.4,1.5-0.4c0.9,0,1.5,0.3,2,0.8s0.7,1.3,0.7,2.3v0.6h-4.1c0,0.5,0.2,0.9,0.5,1.2s0.7,0.5,1.2,0.5c0.7,0,1.2-0.3,1.6-0.8
		l0.8,0.7c-0.3,0.4-0.6,0.7-1,0.9S136.1,455.2,135.5,455.2z M135.4,449.8c-0.4,0-0.7,0.1-0.9,0.4s-0.4,0.7-0.5,1.1h2.7v-0.1
		c0-0.5-0.2-0.8-0.4-1.1S135.8,449.8,135.4,449.8z"/>
	<path class="st3" d="M148.8,452.3c-0.1,0.9-0.4,1.6-1,2.1s-1.4,0.8-2.3,0.8c-0.7,0-1.3-0.2-1.8-0.5s-0.9-0.8-1.2-1.4
		s-0.4-1.3-0.4-2.1v-0.8c0-0.8,0.1-1.5,0.4-2.1s0.7-1.1,1.2-1.4s1.1-0.5,1.8-0.5c0.9,0,1.7,0.3,2.3,0.8s0.9,1.2,1,2.2h-1.5
		c-0.1-0.6-0.2-1.1-0.5-1.3s-0.7-0.4-1.3-0.4c-0.6,0-1.1,0.2-1.5,0.7c-0.3,0.5-0.5,1.2-0.5,2.1v0.8c0,0.9,0.2,1.6,0.5,2.1
		c0.3,0.5,0.8,0.7,1.5,0.7c0.6,0,1-0.1,1.3-0.4s0.5-0.7,0.6-1.3H148.8z"/>
	<path class="st3" d="M149.7,451.9c0-0.6,0.1-1.2,0.4-1.7s0.6-0.9,1-1.1s1-0.4,1.5-0.4c0.9,0,1.5,0.3,2.1,0.8s0.8,1.3,0.9,2.2l0,0.3
		c0,0.6-0.1,1.2-0.4,1.7s-0.6,0.9-1,1.1s-1,0.4-1.5,0.4c-0.9,0-1.6-0.3-2.1-0.9S149.7,452.9,149.7,451.9L149.7,451.9z M151.2,452
		c0,0.7,0.1,1.2,0.4,1.5s0.6,0.6,1.1,0.6s0.9-0.2,1.1-0.6s0.4-0.9,0.4-1.6c0-0.6-0.1-1.1-0.4-1.5s-0.6-0.6-1.1-0.6
		c-0.5,0-0.8,0.2-1.1,0.6S151.2,451.3,151.2,452z"/>
	<path class="st3" d="M156.6,451.9c0-0.6,0.1-1.2,0.4-1.7s0.6-0.9,1-1.1s1-0.4,1.5-0.4c0.9,0,1.5,0.3,2.1,0.8s0.8,1.3,0.9,2.2l0,0.3
		c0,0.6-0.1,1.2-0.4,1.7s-0.6,0.9-1,1.1s-1,0.4-1.5,0.4c-0.9,0-1.6-0.3-2.1-0.9S156.6,452.9,156.6,451.9L156.6,451.9z M158,452
		c0,0.7,0.1,1.2,0.4,1.5s0.6,0.6,1.1,0.6s0.9-0.2,1.1-0.6s0.4-0.9,0.4-1.6c0-0.6-0.1-1.1-0.4-1.5s-0.6-0.6-1.1-0.6
		c-0.5,0-0.8,0.2-1.1,0.6S158,451.3,158,452z"/>
	<path class="st3" d="M169.2,452c0,1-0.2,1.8-0.7,2.3s-1,0.9-1.8,0.9c-0.7,0-1.3-0.2-1.7-0.7v3h-1.4v-8.8h1.3l0.1,0.6
		c0.4-0.5,1-0.8,1.7-0.8c0.8,0,1.4,0.3,1.8,0.9S169.2,450.9,169.2,452L169.2,452z M167.8,451.9c0-0.6-0.1-1.1-0.4-1.5
		s-0.6-0.6-1.1-0.6c-0.6,0-1,0.2-1.3,0.7v2.8c0.3,0.5,0.7,0.7,1.3,0.7c0.5,0,0.8-0.2,1.1-0.5S167.8,452.6,167.8,451.9z"/>
	<path class="st3" d="M173.2,455.2c-0.9,0-1.6-0.3-2.2-0.9s-0.8-1.3-0.8-2.3v-0.2c0-0.6,0.1-1.2,0.4-1.7s0.6-0.9,1-1.2
		s0.9-0.4,1.5-0.4c0.9,0,1.5,0.3,2,0.8s0.7,1.3,0.7,2.3v0.6h-4.1c0,0.5,0.2,0.9,0.5,1.2s0.7,0.5,1.2,0.5c0.7,0,1.2-0.3,1.6-0.8
		l0.8,0.7c-0.3,0.4-0.6,0.7-1,0.9S173.8,455.2,173.2,455.2z M173.1,449.8c-0.4,0-0.7,0.1-0.9,0.4s-0.4,0.7-0.5,1.1h2.7v-0.1
		c0-0.5-0.2-0.8-0.4-1.1S173.5,449.8,173.1,449.8z"/>
	<path class="st3" d="M180.2,450.1c-0.2,0-0.4,0-0.6,0c-0.7,0-1.1,0.2-1.3,0.8v4.3h-1.4v-6.3h1.4l0,0.7c0.3-0.6,0.8-0.8,1.4-0.8
		c0.2,0,0.4,0,0.5,0.1L180.2,450.1z"/>
	<path class="st3" d="M184.7,455.1c-0.1-0.1-0.1-0.3-0.2-0.6c-0.5,0.5-1,0.7-1.7,0.7c-0.6,0-1.2-0.2-1.6-0.5s-0.6-0.8-0.6-1.3
		c0-0.7,0.3-1.2,0.8-1.6s1.2-0.5,2.2-0.5h0.9v-0.4c0-0.3-0.1-0.6-0.3-0.8s-0.5-0.3-0.8-0.3c-0.3,0-0.6,0.1-0.8,0.2s-0.3,0.4-0.3,0.6
		h-1.4c0-0.3,0.1-0.7,0.3-1s0.5-0.5,0.9-0.7s0.8-0.3,1.3-0.3c0.7,0,1.3,0.2,1.8,0.6s0.7,0.9,0.7,1.6v2.9c0,0.6,0.1,1,0.2,1.4v0.1
		H184.7z M183.1,454.1c0.3,0,0.5-0.1,0.8-0.2s0.4-0.3,0.6-0.6v-1.2h-0.8c-0.5,0-0.9,0.1-1.2,0.3s-0.4,0.4-0.4,0.8
		c0,0.3,0.1,0.5,0.3,0.7S182.8,454.1,183.1,454.1z"/>
	<path class="st3" d="M189.2,447.2v1.5h1.1v1.1h-1.1v3.5c0,0.2,0,0.4,0.1,0.5s0.3,0.2,0.5,0.2c0.2,0,0.3,0,0.5-0.1v1.1
		c-0.3,0.1-0.6,0.1-0.9,0.1c-1.1,0-1.6-0.6-1.6-1.8v-3.6h-1v-1.1h1v-1.5H189.2z"/>
	<path class="st3" d="M191.4,447.1c0-0.2,0.1-0.4,0.2-0.5s0.3-0.2,0.6-0.2s0.5,0.1,0.6,0.2s0.2,0.3,0.2,0.5c0,0.2-0.1,0.4-0.2,0.5
		s-0.3,0.2-0.6,0.2s-0.5-0.1-0.6-0.2S191.4,447.3,191.4,447.1z M192.9,455.1h-1.4v-6.3h1.4V455.1z"/>
	<path class="st3" d="M196.7,453.3l1.3-4.5h1.5l-2.2,6.3h-1.2l-2.2-6.3h1.5L196.7,453.3z"/>
	<path class="st3" d="M204.1,455.1c-0.1-0.1-0.1-0.3-0.2-0.6c-0.5,0.5-1,0.7-1.7,0.7c-0.6,0-1.2-0.2-1.6-0.5s-0.6-0.8-0.6-1.3
		c0-0.7,0.3-1.2,0.8-1.6s1.2-0.5,2.2-0.5h0.9v-0.4c0-0.3-0.1-0.6-0.3-0.8s-0.5-0.3-0.8-0.3c-0.3,0-0.6,0.1-0.8,0.2s-0.3,0.4-0.3,0.6
		h-1.4c0-0.3,0.1-0.7,0.3-1s0.5-0.5,0.9-0.7s0.8-0.3,1.3-0.3c0.7,0,1.3,0.2,1.8,0.6s0.7,0.9,0.7,1.6v2.9c0,0.6,0.1,1,0.2,1.4v0.1
		H204.1z M202.5,454.1c0.3,0,0.5-0.1,0.8-0.2s0.4-0.3,0.6-0.6v-1.2h-0.8c-0.5,0-0.9,0.1-1.2,0.3s-0.4,0.4-0.4,0.8
		c0,0.3,0.1,0.5,0.3,0.7S202.2,454.1,202.5,454.1z"/>
	<path class="st3" d="M210.4,453.4c0-0.3-0.1-0.4-0.3-0.6s-0.6-0.2-1-0.4s-0.9-0.2-1.2-0.4c-0.7-0.3-1.1-0.8-1.1-1.5
		c0-0.5,0.2-1,0.7-1.4s1-0.6,1.8-0.6c0.8,0,1.4,0.2,1.8,0.6s0.7,0.9,0.7,1.5h-1.4c0-0.3-0.1-0.5-0.3-0.7s-0.5-0.3-0.8-0.3
		c-0.3,0-0.6,0.1-0.8,0.2s-0.3,0.3-0.3,0.6c0,0.2,0.1,0.4,0.3,0.5s0.6,0.2,1.1,0.4s1,0.3,1.3,0.4s0.6,0.4,0.7,0.6s0.2,0.5,0.2,0.9
		c0,0.6-0.2,1-0.7,1.4s-1.1,0.5-1.9,0.5c-0.5,0-1-0.1-1.4-0.3s-0.7-0.4-0.9-0.8s-0.3-0.7-0.3-1.1h1.4c0,0.3,0.1,0.6,0.4,0.8
		s0.5,0.3,0.9,0.3c0.4,0,0.7-0.1,0.9-0.2S210.4,453.6,210.4,453.4z"/>
</g>
<g class="st0">
	<path class="st1" d="M81,546.8v3.2h-1.5v-8.5h3.3c1,0,1.7,0.2,2.3,0.7c0.6,0.5,0.8,1.2,0.8,2c0,0.8-0.3,1.5-0.8,2
		c-0.5,0.5-1.3,0.7-2.3,0.7H81z M81,545.6h1.8c0.5,0,0.9-0.1,1.2-0.4s0.4-0.6,0.4-1.1c0-0.5-0.1-0.8-0.4-1.1s-0.7-0.4-1.2-0.4H81
		V545.6z"/>
	<path class="st1" d="M90.3,546.7h-1.7v3.3h-1.5v-8.5h3c1,0,1.7,0.2,2.3,0.7c0.5,0.4,0.8,1.1,0.8,1.9c0,0.6-0.1,1-0.4,1.4
		c-0.3,0.4-0.7,0.7-1.2,0.9l1.9,3.6v0.1H92L90.3,546.7z M88.6,545.5h1.5c0.5,0,0.9-0.1,1.2-0.4s0.4-0.6,0.4-1c0-0.5-0.1-0.8-0.4-1.1
		s-0.6-0.4-1.2-0.4h-1.6V545.5z"/>
	<path class="st1" d="M101.4,545.9c0,0.8-0.1,1.6-0.4,2.2s-0.7,1.1-1.2,1.5s-1.2,0.5-1.9,0.5c-0.7,0-1.3-0.2-1.8-0.5s-1-0.8-1.3-1.4
		s-0.4-1.3-0.4-2.2v-0.5c0-0.8,0.1-1.6,0.4-2.2s0.7-1.1,1.2-1.5s1.2-0.5,1.8-0.5s1.3,0.2,1.8,0.5s1,0.8,1.2,1.4s0.4,1.4,0.4,2.2
		V545.9z M100,545.5c0-0.9-0.2-1.7-0.5-2.2s-0.9-0.8-1.5-0.8c-0.6,0-1.1,0.3-1.5,0.8s-0.5,1.2-0.6,2.1v0.5c0,0.9,0.2,1.7,0.5,2.2
		s0.9,0.8,1.5,0.8c0.7,0,1.2-0.2,1.5-0.8s0.5-1.2,0.5-2.2V545.5z"/>
	<path class="st1" d="M102.9,550v-8.5h2.5c0.8,0,1.4,0.2,2,0.5s1,0.8,1.4,1.4s0.5,1.3,0.5,2.1v0.4c0,0.8-0.2,1.5-0.5,2.1
		s-0.8,1.1-1.4,1.4s-1.3,0.5-2,0.5H102.9z M104.4,542.6v6.2h1c0.8,0,1.4-0.2,1.8-0.7s0.6-1.2,0.6-2.1v-0.5c0-0.9-0.2-1.6-0.6-2.1
		s-1-0.7-1.8-0.7H104.4z"/>
	<path class="st1" d="M117,541.4v5.7c0,0.9-0.3,1.6-0.9,2.2s-1.4,0.8-2.3,0.8c-1,0-1.8-0.3-2.3-0.8s-0.9-1.2-0.9-2.2v-5.7h1.5v5.7
		c0,0.6,0.1,1,0.4,1.3s0.7,0.5,1.3,0.5c1.1,0,1.7-0.6,1.7-1.8v-5.7H117z"/>
	<path class="st1" d="M125.1,547.2c-0.1,0.9-0.4,1.6-1,2.1s-1.4,0.8-2.3,0.8c-0.7,0-1.3-0.2-1.8-0.5s-0.9-0.8-1.2-1.4
		s-0.4-1.3-0.4-2.1v-0.8c0-0.8,0.1-1.5,0.4-2.1s0.7-1.1,1.2-1.4s1.1-0.5,1.8-0.5c0.9,0,1.7,0.3,2.3,0.8s0.9,1.2,1,2.2h-1.5
		c-0.1-0.6-0.2-1.1-0.5-1.3s-0.7-0.4-1.3-0.4c-0.6,0-1.1,0.2-1.5,0.7c-0.3,0.5-0.5,1.2-0.5,2.1v0.8c0,0.9,0.2,1.6,0.5,2.1
		c0.3,0.5,0.8,0.7,1.5,0.7c0.6,0,1-0.1,1.3-0.4s0.5-0.7,0.6-1.3H125.1z M122.3,550l-0.1,0.3c0.6,0.1,0.9,0.4,0.9,1
		c0,0.4-0.2,0.7-0.5,1s-0.8,0.3-1.4,0.3l0-0.8c0.3,0,0.5,0,0.6-0.1s0.2-0.2,0.2-0.4c0-0.2-0.1-0.3-0.2-0.4s-0.4-0.1-0.7-0.1l0.2-0.8
		H122.3z"/>
	<path class="st1" d="M131.2,548h-3.3l-0.7,2h-1.5l3.2-8.5h1.3l3.2,8.5h-1.5L131.2,548z M131.7,539.3c0,0.4-0.1,0.8-0.4,1.1
		s-0.6,0.4-0.9,0.4c-0.2,0-0.3,0-0.4,0s-0.3-0.1-0.5-0.2s-0.3-0.2-0.4-0.2s-0.2,0-0.3,0c-0.1,0-0.3,0.1-0.4,0.2s-0.2,0.3-0.2,0.4
		l-0.9,0c0-0.4,0.1-0.8,0.4-1.1s0.6-0.4,0.9-0.4c0.2,0,0.5,0.1,0.8,0.3s0.6,0.3,0.8,0.3c0.1,0,0.3-0.1,0.4-0.2s0.2-0.3,0.2-0.4
		L131.7,539.3z M128.3,546.8h2.5l-1.2-3.5L128.3,546.8z"/>
	<path class="st1" d="M141.1,545.9c0,0.8-0.1,1.6-0.4,2.2s-0.7,1.1-1.2,1.5s-1.2,0.5-1.9,0.5c-0.7,0-1.3-0.2-1.8-0.5s-1-0.8-1.3-1.4
		s-0.4-1.3-0.4-2.2v-0.5c0-0.8,0.1-1.6,0.4-2.2s0.7-1.1,1.2-1.5s1.2-0.5,1.8-0.5s1.3,0.2,1.8,0.5s1,0.8,1.2,1.4s0.4,1.4,0.4,2.2
		V545.9z M139.6,545.5c0-0.9-0.2-1.7-0.5-2.2s-0.9-0.8-1.5-0.8c-0.6,0-1.1,0.3-1.5,0.8s-0.5,1.2-0.6,2.1v0.5c0,0.9,0.2,1.7,0.5,2.2
		s0.9,0.8,1.5,0.8c0.7,0,1.2-0.2,1.5-0.8s0.5-1.2,0.5-2.2V545.5z"/>
	<path class="st1" d="M147,546.8v3.2h-1.5v-8.5h3.3c1,0,1.7,0.2,2.3,0.7c0.6,0.5,0.8,1.2,0.8,2c0,0.8-0.3,1.5-0.8,2
		c-0.5,0.5-1.3,0.7-2.3,0.7H147z M147,545.6h1.8c0.5,0,0.9-0.1,1.2-0.4s0.4-0.6,0.4-1.1c0-0.5-0.1-0.8-0.4-1.1s-0.7-0.4-1.2-0.4H147
		V545.6z"/>
	<path class="st1" d="M156.4,546.7h-1.7v3.3h-1.5v-8.5h3c1,0,1.7,0.2,2.3,0.7c0.5,0.4,0.8,1.1,0.8,1.9c0,0.6-0.1,1-0.4,1.4
		c-0.3,0.4-0.7,0.7-1.2,0.9l1.9,3.6v0.1h-1.6L156.4,546.7z M154.7,545.5h1.5c0.5,0,0.9-0.1,1.2-0.4s0.4-0.6,0.4-1
		c0-0.5-0.1-0.8-0.4-1.1s-0.6-0.4-1.2-0.4h-1.6V545.5z"/>
	<path class="st1" d="M162.3,550h-1.5v-8.5h1.5V550z"/>
	<path class="st1" d="M170.9,550h-1.5l-3.8-6.1v6.1h-1.5v-8.5h1.5l3.8,6.1v-6.1h1.5V550z"/>
	<path class="st1" d="M179.1,547.2c-0.1,0.9-0.4,1.6-1,2.1s-1.4,0.8-2.3,0.8c-0.7,0-1.3-0.2-1.8-0.5s-0.9-0.8-1.2-1.4
		s-0.4-1.3-0.4-2.1v-0.8c0-0.8,0.1-1.5,0.4-2.1s0.7-1.1,1.2-1.4s1.1-0.5,1.8-0.5c0.9,0,1.7,0.3,2.3,0.8s0.9,1.2,1,2.2h-1.5
		c-0.1-0.6-0.2-1.1-0.5-1.3s-0.7-0.4-1.3-0.4c-0.6,0-1.1,0.2-1.5,0.7c-0.3,0.5-0.5,1.2-0.5,2.1v0.8c0,0.9,0.2,1.6,0.5,2.1
		c0.3,0.5,0.8,0.7,1.5,0.7c0.6,0,1-0.1,1.3-0.4s0.5-0.7,0.6-1.3H179.1z"/>
	<path class="st1" d="M182,550h-1.5v-8.5h1.5V550z"/>
	<path class="st1" d="M185.3,546.8v3.2h-1.5v-8.5h3.3c1,0,1.7,0.2,2.3,0.7c0.6,0.5,0.8,1.2,0.8,2c0,0.8-0.3,1.5-0.8,2
		c-0.5,0.5-1.3,0.7-2.3,0.7H185.3z M185.3,545.6h1.8c0.5,0,0.9-0.1,1.2-0.4s0.4-0.6,0.4-1.1c0-0.5-0.1-0.8-0.4-1.1s-0.7-0.4-1.2-0.4
		h-1.8V545.6z"/>
	<path class="st1" d="M195.2,548h-3.3l-0.7,2h-1.5l3.2-8.5h1.3l3.2,8.5h-1.5L195.2,548z M192.3,546.8h2.5l-1.2-3.5L192.3,546.8z"/>
	<path class="st1" d="M199.9,548.8h3.9v1.2h-5.4v-8.5h1.5V548.8z"/>
</g>
<line class="st2" x1="108.5" y1="524.6" x2="176.8" y2="524.6"/>
<g class="st0">
	<path class="st3" d="M118.3,570.8h-1.5V567H113v3.8h-1.5v-8.5h1.5v3.6h3.8v-3.6h1.5V570.8z"/>
	<path class="st3" d="M119.6,567.5c0-0.6,0.1-1.2,0.4-1.7s0.6-0.9,1-1.1s1-0.4,1.5-0.4c0.9,0,1.5,0.3,2.1,0.8s0.8,1.3,0.9,2.2l0,0.3
		c0,0.6-0.1,1.2-0.4,1.7s-0.6,0.9-1,1.1s-1,0.4-1.5,0.4c-0.9,0-1.6-0.3-2.1-0.9S119.6,568.6,119.6,567.5L119.6,567.5z M121.1,567.7
		c0,0.7,0.1,1.2,0.4,1.5s0.6,0.6,1.1,0.6s0.9-0.2,1.1-0.6s0.4-0.9,0.4-1.6c0-0.6-0.1-1.1-0.4-1.5s-0.6-0.6-1.1-0.6
		c-0.5,0-0.8,0.2-1.1,0.6S121.1,566.9,121.1,567.7z"/>
	<path class="st3" d="M130.1,565.7c-0.2,0-0.4,0-0.6,0c-0.7,0-1.1,0.2-1.3,0.8v4.3h-1.4v-6.3h1.4l0,0.7c0.3-0.6,0.8-0.8,1.4-0.8
		c0.2,0,0.4,0,0.5,0.1L130.1,565.7z"/>
	<path class="st3" d="M133,562.9v1.5h1.1v1.1H133v3.5c0,0.2,0,0.4,0.1,0.5s0.3,0.2,0.5,0.2c0.2,0,0.3,0,0.5-0.1v1.1
		c-0.3,0.1-0.6,0.1-0.9,0.1c-1.1,0-1.6-0.6-1.6-1.8v-3.6h-1v-1.1h1v-1.5H133z"/>
	<path class="st3" d="M135.2,562.8c0-0.2,0.1-0.4,0.2-0.5s0.3-0.2,0.6-0.2s0.5,0.1,0.6,0.2s0.2,0.3,0.2,0.5c0,0.2-0.1,0.4-0.2,0.5
		s-0.3,0.2-0.6,0.2s-0.5-0.1-0.6-0.2S135.2,563,135.2,562.8z M136.8,570.8h-1.4v-6.3h1.4V570.8z"/>
	<path class="st3" d="M140.9,569.7c0.4,0,0.7-0.1,0.9-0.3s0.4-0.5,0.4-0.8h1.3c0,0.4-0.1,0.8-0.4,1.1s-0.5,0.6-0.9,0.8
		s-0.8,0.3-1.3,0.3c-0.9,0-1.6-0.3-2.1-0.9s-0.8-1.4-0.8-2.4v-0.1c0-1,0.3-1.7,0.8-2.3s1.2-0.9,2.1-0.9c0.8,0,1.4,0.2,1.8,0.7
		s0.7,1,0.7,1.7h-1.3c0-0.4-0.1-0.7-0.4-0.9s-0.5-0.4-0.9-0.4c-0.5,0-0.8,0.2-1.1,0.5s-0.4,0.8-0.4,1.5v0.2c0,0.7,0.1,1.2,0.4,1.5
		S140.4,569.7,140.9,569.7z"/>
	<path class="st3" d="M148.4,570.1c-0.4,0.5-1,0.7-1.8,0.7c-0.7,0-1.2-0.2-1.6-0.6s-0.5-1-0.5-1.7v-4.1h1.4v4.1c0,0.8,0.3,1.2,1,1.2
		c0.7,0,1.2-0.2,1.4-0.7v-4.6h1.4v6.3h-1.3L148.4,570.1z"/>
	<path class="st3" d="M152.8,570.8h-1.4v-9h1.4V570.8z"/>
	<path class="st3" d="M156.1,562.9v1.5h1.1v1.1h-1.1v3.5c0,0.2,0,0.4,0.1,0.5s0.3,0.2,0.5,0.2c0.2,0,0.3,0,0.5-0.1v1.1
		c-0.3,0.1-0.6,0.1-0.9,0.1c-1.1,0-1.6-0.6-1.6-1.8v-3.6h-1v-1.1h1v-1.5H156.1z"/>
	<path class="st3" d="M162.1,570.1c-0.4,0.5-1,0.7-1.8,0.7c-0.7,0-1.2-0.2-1.6-0.6s-0.5-1-0.5-1.7v-4.1h1.4v4.1c0,0.8,0.3,1.2,1,1.2
		c0.7,0,1.2-0.2,1.4-0.7v-4.6h1.4v6.3h-1.3L162.1,570.1z"/>
	<path class="st3" d="M168.3,565.7c-0.2,0-0.4,0-0.6,0c-0.7,0-1.1,0.2-1.3,0.8v4.3H165v-6.3h1.4l0,0.7c0.3-0.6,0.8-0.8,1.4-0.8
		c0.2,0,0.4,0,0.5,0.1L168.3,565.7z"/>
	<path class="st3" d="M172.8,570.8c-0.1-0.1-0.1-0.3-0.2-0.6c-0.5,0.5-1,0.7-1.7,0.7c-0.6,0-1.2-0.2-1.6-0.5s-0.6-0.8-0.6-1.3
		c0-0.7,0.3-1.2,0.8-1.6s1.2-0.5,2.2-0.5h0.9v-0.4c0-0.3-0.1-0.6-0.3-0.8s-0.5-0.3-0.8-0.3c-0.3,0-0.6,0.1-0.8,0.2s-0.3,0.4-0.3,0.6
		H169c0-0.3,0.1-0.7,0.3-1s0.5-0.5,0.9-0.7s0.8-0.3,1.3-0.3c0.7,0,1.3,0.2,1.8,0.6s0.7,0.9,0.7,1.6v2.9c0,0.6,0.1,1,0.2,1.4v0.1
		H172.8z M171.2,569.7c0.3,0,0.5-0.1,0.8-0.2s0.4-0.3,0.6-0.6v-1.2h-0.8c-0.5,0-0.9,0.1-1.2,0.3s-0.4,0.4-0.4,0.8
		c0,0.3,0.1,0.5,0.3,0.7S170.9,569.7,171.2,569.7z"/>
</g>
<g class="st0">
	<path class="st1" d="M391.8,149.5h-1.5V141h1.5V149.5z"/>
	<path class="st1" d="M400.4,149.5h-1.5l-3.8-6.1v6.1h-1.5V141h1.5l3.8,6.1V141h1.5V149.5z"/>
	<path class="st1" d="M406.6,147.3c0-0.4-0.1-0.7-0.4-0.9s-0.7-0.4-1.4-0.6s-1.2-0.4-1.6-0.7c-0.8-0.5-1.2-1.1-1.2-1.9
		c0-0.7,0.3-1.3,0.8-1.7s1.3-0.7,2.2-0.7c0.6,0,1.1,0.1,1.6,0.3s0.8,0.5,1.1,0.9s0.4,0.9,0.4,1.3h-1.5c0-0.4-0.1-0.8-0.4-1
		s-0.7-0.4-1.2-0.4c-0.5,0-0.9,0.1-1.1,0.3s-0.4,0.5-0.4,0.9c0,0.3,0.1,0.6,0.4,0.8s0.8,0.4,1.4,0.6s1.2,0.4,1.6,0.7
		s0.7,0.5,0.9,0.9s0.3,0.7,0.3,1.1c0,0.7-0.3,1.3-0.8,1.7s-1.3,0.6-2.2,0.6c-0.6,0-1.2-0.1-1.7-0.3s-0.9-0.5-1.2-0.9
		s-0.4-0.9-0.4-1.4h1.5c0,0.5,0.2,0.9,0.5,1.1s0.8,0.4,1.4,0.4c0.5,0,0.9-0.1,1.2-0.3S406.6,147.7,406.6,147.3z"/>
	<path class="st1" d="M414.4,145.7h-3.5v2.6h4.1v1.2h-5.6V141h5.5v1.2h-4.1v2.4h3.5V145.7z"/>
	<path class="st1" d="M419.3,146.2h-1.7v3.3h-1.5V141h3c1,0,1.7,0.2,2.3,0.7c0.5,0.4,0.8,1.1,0.8,1.9c0,0.6-0.1,1-0.4,1.4
		c-0.3,0.4-0.7,0.7-1.2,0.9l1.9,3.6v0.1H421L419.3,146.2z M417.6,145.1h1.5c0.5,0,0.9-0.1,1.2-0.4s0.4-0.6,0.4-1
		c0-0.5-0.1-0.8-0.4-1.1s-0.6-0.4-1.2-0.4h-1.6V145.1z"/>
	<path class="st1" d="M430.2,146.8c-0.1,0.9-0.4,1.6-1,2.1s-1.4,0.8-2.3,0.8c-0.7,0-1.3-0.2-1.8-0.5s-0.9-0.8-1.2-1.4
		s-0.4-1.3-0.4-2.1v-0.8c0-0.8,0.1-1.5,0.4-2.1s0.7-1.1,1.2-1.4s1.1-0.5,1.8-0.5c0.9,0,1.7,0.3,2.3,0.8s0.9,1.2,1,2.2h-1.5
		c-0.1-0.6-0.2-1.1-0.5-1.3s-0.7-0.4-1.3-0.4c-0.6,0-1.1,0.2-1.5,0.7c-0.3,0.5-0.5,1.2-0.5,2.1v0.8c0,0.9,0.2,1.6,0.5,2.1
		c0.3,0.5,0.8,0.7,1.5,0.7c0.6,0,1-0.1,1.3-0.4s0.5-0.7,0.6-1.3H430.2z M427.3,149.5l-0.1,0.3c0.6,0.1,0.9,0.4,0.9,1
		c0,0.4-0.2,0.7-0.5,1s-0.8,0.3-1.4,0.3l0-0.8c0.3,0,0.5,0,0.6-0.1s0.2-0.2,0.2-0.4c0-0.2-0.1-0.3-0.2-0.4s-0.4-0.1-0.7-0.1l0.2-0.8
		H427.3z"/>
	<path class="st1" d="M436.3,147.5h-3.3l-0.7,2h-1.5l3.2-8.5h1.3l3.2,8.5H437L436.3,147.5z M436.8,138.8c0,0.4-0.1,0.8-0.4,1.1
		s-0.6,0.4-0.9,0.4c-0.2,0-0.3,0-0.4,0s-0.3-0.1-0.5-0.2s-0.3-0.2-0.4-0.2s-0.2,0-0.3,0c-0.1,0-0.3,0.1-0.4,0.2s-0.2,0.3-0.2,0.4
		l-0.9,0c0-0.4,0.1-0.8,0.4-1.1s0.6-0.4,0.9-0.4c0.2,0,0.5,0.1,0.8,0.3s0.6,0.3,0.8,0.3c0.1,0,0.3-0.1,0.4-0.2s0.2-0.3,0.2-0.4
		L436.8,138.8z M433.4,146.3h2.5l-1.2-3.5L433.4,146.3z"/>
	<path class="st1" d="M446.1,145.5c0,0.8-0.1,1.6-0.4,2.2s-0.7,1.1-1.2,1.5s-1.2,0.5-1.9,0.5c-0.7,0-1.3-0.2-1.8-0.5s-1-0.8-1.3-1.4
		s-0.4-1.3-0.4-2.2v-0.5c0-0.8,0.1-1.6,0.4-2.2s0.7-1.1,1.2-1.5s1.2-0.5,1.8-0.5s1.3,0.2,1.8,0.5s1,0.8,1.2,1.4s0.4,1.4,0.4,2.2
		V145.5z M444.7,145c0-0.9-0.2-1.7-0.5-2.2s-0.9-0.8-1.5-0.8c-0.6,0-1.1,0.3-1.5,0.8s-0.5,1.2-0.6,2.1v0.5c0,0.9,0.2,1.7,0.5,2.2
		s0.9,0.8,1.5,0.8c0.7,0,1.2-0.2,1.5-0.8s0.5-1.2,0.5-2.2V145z"/>
	<path class="st1" d="M457.4,149.5h-1.5l-3.8-6.1v6.1h-1.5V141h1.5l3.8,6.1V141h1.5V149.5z"/>
	<path class="st1" d="M465.9,145.5c0,0.8-0.1,1.6-0.4,2.2s-0.7,1.1-1.2,1.5s-1.2,0.5-1.9,0.5c-0.7,0-1.3-0.2-1.8-0.5s-1-0.8-1.3-1.4
		s-0.4-1.3-0.4-2.2v-0.5c0-0.8,0.1-1.6,0.4-2.2s0.7-1.1,1.2-1.5s1.2-0.5,1.8-0.5s1.3,0.2,1.8,0.5s1,0.8,1.2,1.4s0.4,1.4,0.4,2.2
		V145.5z M464.5,145c0-0.9-0.2-1.7-0.5-2.2s-0.9-0.8-1.5-0.8c-0.6,0-1.1,0.3-1.5,0.8s-0.5,1.2-0.6,2.1v0.5c0,0.9,0.2,1.7,0.5,2.2
		s0.9,0.8,1.5,0.8c0.7,0,1.2-0.2,1.5-0.8s0.5-1.2,0.5-2.2V145z"/>
	<path class="st1" d="M472.3,141l2.5,6.5l2.5-6.5h1.9v8.5h-1.5v-2.8l0.1-3.8l-2.5,6.6h-1.1l-2.5-6.6l0.1,3.8v2.8h-1.5V141H472.3z"/>
	<path class="st1" d="M485.9,145.7h-3.5v2.6h4.1v1.2h-5.6V141h5.5v1.2h-4.1v2.4h3.5V145.7z"/>
	<path class="st1" d="M490.8,146.2h-1.7v3.3h-1.5V141h3c1,0,1.7,0.2,2.3,0.7c0.5,0.4,0.8,1.1,0.8,1.9c0,0.6-0.1,1-0.4,1.4
		c-0.3,0.4-0.7,0.7-1.2,0.9l1.9,3.6v0.1h-1.6L490.8,146.2z M489.2,145.1h1.5c0.5,0,0.9-0.1,1.2-0.4s0.4-0.6,0.4-1
		c0-0.5-0.1-0.8-0.4-1.1s-0.6-0.4-1.2-0.4h-1.6V145.1z"/>
	<path class="st1" d="M501.7,146.8c-0.1,0.9-0.4,1.6-1,2.1s-1.4,0.8-2.3,0.8c-0.7,0-1.3-0.2-1.8-0.5s-0.9-0.8-1.2-1.4
		s-0.4-1.3-0.4-2.1v-0.8c0-0.8,0.1-1.5,0.4-2.1s0.7-1.1,1.2-1.4s1.1-0.5,1.8-0.5c0.9,0,1.7,0.3,2.3,0.8s0.9,1.2,1,2.2h-1.5
		c-0.1-0.6-0.2-1.1-0.5-1.3s-0.7-0.4-1.3-0.4c-0.6,0-1.1,0.2-1.5,0.7c-0.3,0.5-0.5,1.2-0.5,2.1v0.8c0,0.9,0.2,1.6,0.5,2.1
		c0.3,0.5,0.8,0.7,1.5,0.7c0.6,0,1-0.1,1.3-0.4s0.5-0.7,0.6-1.3H501.7z"/>
	<path class="st1" d="M507.8,147.5h-3.3l-0.7,2h-1.5l3.2-8.5h1.3l3.2,8.5h-1.5L507.8,147.5z M504.9,146.3h2.5l-1.2-3.5L504.9,146.3z
		"/>
	<path class="st1" d="M511,149.5V141h2.5c0.8,0,1.4,0.2,2,0.5s1,0.8,1.4,1.4s0.5,1.3,0.5,2.1v0.4c0,0.8-0.2,1.5-0.5,2.1
		s-0.8,1.1-1.4,1.4s-1.3,0.5-2,0.5H511z M512.5,142.2v6.2h1c0.8,0,1.4-0.2,1.8-0.7s0.6-1.2,0.6-2.1V145c0-0.9-0.2-1.6-0.6-2.1
		s-1-0.7-1.8-0.7H512.5z"/>
	<path class="st1" d="M525.7,145.5c0,0.8-0.1,1.6-0.4,2.2s-0.7,1.1-1.2,1.5s-1.2,0.5-1.9,0.5c-0.7,0-1.3-0.2-1.8-0.5s-1-0.8-1.3-1.4
		s-0.4-1.3-0.4-2.2v-0.5c0-0.8,0.1-1.6,0.4-2.2s0.7-1.1,1.2-1.5s1.2-0.5,1.8-0.5s1.3,0.2,1.8,0.5s1,0.8,1.2,1.4s0.4,1.4,0.4,2.2
		V145.5z M524.2,145c0-0.9-0.2-1.7-0.5-2.2s-0.9-0.8-1.5-0.8c-0.6,0-1.1,0.3-1.5,0.8s-0.5,1.2-0.6,2.1v0.5c0,0.9,0.2,1.7,0.5,2.2
		s0.9,0.8,1.5,0.8c0.7,0,1.2-0.2,1.5-0.8s0.5-1.2,0.5-2.2V145z"/>
</g>
<line class="st2" x1="424.5" y1="124.2" x2="492.7" y2="124.2"/>
<g class="st0">
	<path class="st3" d="M453.5,168.4h-3.3l-0.7,2h-1.5l3.2-8.5h1.3l3.2,8.5h-1.5L453.5,168.4z M450.6,167.2h2.5l-1.2-3.5L450.6,167.2z
		"/>
	<path class="st3" d="M458.1,170.3h-1.4v-9h1.4V170.3z"/>
	<path class="st3" d="M461.4,162.5v1.5h1.1v1.1h-1.1v3.5c0,0.2,0,0.4,0.1,0.5s0.3,0.2,0.5,0.2c0.2,0,0.3,0,0.5-0.1v1.1
		c-0.3,0.1-0.6,0.1-0.9,0.1c-1.1,0-1.6-0.6-1.6-1.8v-3.6h-1V164h1v-1.5H461.4z"/>
	<path class="st3" d="M467.4,170.3c-0.1-0.1-0.1-0.3-0.2-0.6c-0.5,0.5-1,0.7-1.7,0.7c-0.6,0-1.2-0.2-1.6-0.5s-0.6-0.8-0.6-1.3
		c0-0.7,0.3-1.2,0.8-1.6s1.2-0.5,2.2-0.5h0.9V166c0-0.3-0.1-0.6-0.3-0.8s-0.5-0.3-0.8-0.3c-0.3,0-0.6,0.1-0.8,0.2s-0.3,0.4-0.3,0.6
		h-1.4c0-0.3,0.1-0.7,0.3-1s0.5-0.5,0.9-0.7s0.8-0.3,1.3-0.3c0.7,0,1.3,0.2,1.8,0.6s0.7,0.9,0.7,1.6v2.9c0,0.6,0.1,1,0.2,1.4v0.1
		H467.4z M465.8,169.3c0.3,0,0.5-0.1,0.8-0.2s0.4-0.3,0.6-0.6v-1.2h-0.8c-0.5,0-0.9,0.1-1.2,0.3s-0.4,0.4-0.4,0.8
		c0,0.3,0.1,0.5,0.3,0.7S465.5,169.3,465.8,169.3z"/>
</g>
<g class="st0">
	<path class="st1" d="M410.6,280.2c-0.1,0.9-0.4,1.6-1,2.1s-1.4,0.8-2.3,0.8c-0.7,0-1.3-0.2-1.8-0.5s-0.9-0.8-1.2-1.4
		s-0.4-1.3-0.4-2.1v-0.8c0-0.8,0.1-1.5,0.4-2.1s0.7-1.1,1.2-1.4s1.1-0.5,1.8-0.5c0.9,0,1.7,0.3,2.3,0.8s0.9,1.2,1,2.2h-1.5
		c-0.1-0.6-0.2-1.1-0.5-1.3s-0.7-0.4-1.3-0.4c-0.6,0-1.1,0.2-1.5,0.7c-0.3,0.5-0.5,1.2-0.5,2.1v0.8c0,0.9,0.2,1.6,0.5,2.1
		c0.3,0.5,0.8,0.7,1.5,0.7c0.6,0,1-0.1,1.3-0.4s0.5-0.7,0.6-1.3H410.6z"/>
	<path class="st1" d="M418.7,279c0,0.8-0.1,1.6-0.4,2.2s-0.7,1.1-1.2,1.5s-1.2,0.5-1.9,0.5c-0.7,0-1.3-0.2-1.8-0.5s-1-0.8-1.3-1.4
		s-0.4-1.3-0.4-2.2v-0.5c0-0.8,0.1-1.6,0.4-2.2s0.7-1.1,1.2-1.5s1.2-0.5,1.8-0.5s1.3,0.2,1.8,0.5s1,0.8,1.2,1.4s0.4,1.4,0.4,2.2V279
		z M417.2,278.5c0-0.9-0.2-1.7-0.5-2.2s-0.9-0.8-1.5-0.8c-0.6,0-1.1,0.3-1.5,0.8s-0.5,1.2-0.6,2.1v0.5c0,0.9,0.2,1.7,0.5,2.2
		s0.9,0.8,1.5,0.8c0.7,0,1.2-0.2,1.5-0.8s0.5-1.2,0.5-2.2V278.5z"/>
	<path class="st1" d="M422.1,274.5l2.5,6.5l2.5-6.5h1.9v8.5h-1.5v-2.8l0.1-3.8l-2.5,6.6h-1.1l-2.5-6.6l0.1,3.8v2.8h-1.5v-8.5H422.1z
		"/>
	<path class="st1" d="M435.7,279.2h-3.5v2.6h4.1v1.2h-5.6v-8.5h5.5v1.2h-4.1v2.4h3.5V279.2z"/>
	<path class="st1" d="M440.6,279.7H439v3.3h-1.5v-8.5h3c1,0,1.7,0.2,2.3,0.7c0.5,0.4,0.8,1.1,0.8,1.9c0,0.6-0.1,1-0.4,1.4
		c-0.3,0.4-0.7,0.7-1.2,0.9l1.9,3.6v0.1h-1.6L440.6,279.7z M439,278.5h1.5c0.5,0,0.9-0.1,1.2-0.4s0.4-0.6,0.4-1
		c0-0.5-0.1-0.8-0.4-1.1s-0.6-0.4-1.2-0.4H439V278.5z"/>
	<path class="st1" d="M451.5,280.2c-0.1,0.9-0.4,1.6-1,2.1s-1.4,0.8-2.3,0.8c-0.7,0-1.3-0.2-1.8-0.5s-0.9-0.8-1.2-1.4
		s-0.4-1.3-0.4-2.1v-0.8c0-0.8,0.1-1.5,0.4-2.1s0.7-1.1,1.2-1.4s1.1-0.5,1.8-0.5c0.9,0,1.7,0.3,2.3,0.8s0.9,1.2,1,2.2H450
		c-0.1-0.6-0.2-1.1-0.5-1.3s-0.7-0.4-1.3-0.4c-0.6,0-1.1,0.2-1.5,0.7c-0.3,0.5-0.5,1.2-0.5,2.1v0.8c0,0.9,0.2,1.6,0.5,2.1
		c0.3,0.5,0.8,0.7,1.5,0.7c0.6,0,1-0.1,1.3-0.4s0.5-0.7,0.6-1.3H451.5z"/>
	<path class="st1" d="M454.4,283h-1.5v-8.5h1.5V283z"/>
	<path class="st1" d="M461.1,281h-3.3l-0.7,2h-1.5l3.2-8.5h1.3l3.2,8.5h-1.5L461.1,281z M458.2,279.8h2.5l-1.2-3.5L458.2,279.8z"/>
	<path class="st1" d="M465.8,281.8h3.9v1.2h-5.4v-8.5h1.5V281.8z"/>
	<path class="st1" d="M472.4,283h-1.5v-8.5h1.5V283z"/>
	<path class="st1" d="M475.6,281.8h4.6v1.2h-6.4v-1l4.4-6.4h-4.4v-1.2h6.2v0.9L475.6,281.8z"/>
	<path class="st1" d="M486.3,281h-3.3l-0.7,2h-1.5l3.2-8.5h1.3l3.2,8.5H487L486.3,281z M483.4,279.8h2.5l-1.2-3.5L483.4,279.8z"/>
	<path class="st1" d="M495.9,280.2c-0.1,0.9-0.4,1.6-1,2.1s-1.4,0.8-2.3,0.8c-0.7,0-1.3-0.2-1.8-0.5s-0.9-0.8-1.2-1.4
		s-0.4-1.3-0.4-2.1v-0.8c0-0.8,0.1-1.5,0.4-2.1s0.7-1.1,1.2-1.4s1.1-0.5,1.8-0.5c0.9,0,1.7,0.3,2.3,0.8s0.9,1.2,1,2.2h-1.5
		c-0.1-0.6-0.2-1.1-0.5-1.3s-0.7-0.4-1.3-0.4c-0.6,0-1.1,0.2-1.5,0.7c-0.3,0.5-0.5,1.2-0.5,2.1v0.8c0,0.9,0.2,1.6,0.5,2.1
		c0.3,0.5,0.8,0.7,1.5,0.7c0.6,0,1-0.1,1.3-0.4s0.5-0.7,0.6-1.3H495.9z M493,283l-0.1,0.3c0.6,0.1,0.9,0.4,0.9,1
		c0,0.4-0.2,0.7-0.5,1s-0.8,0.3-1.4,0.3l0-0.8c0.3,0,0.5,0,0.6-0.1s0.2-0.2,0.2-0.4c0-0.2-0.1-0.3-0.2-0.4s-0.4-0.1-0.7-0.1l0.2-0.8
		H493z"/>
	<path class="st1" d="M502,281h-3.3l-0.7,2h-1.5l3.2-8.5h1.3l3.2,8.5h-1.5L502,281z M502.5,272.3c0,0.4-0.1,0.8-0.4,1.1
		s-0.6,0.4-0.9,0.4c-0.2,0-0.3,0-0.4,0s-0.3-0.1-0.5-0.2s-0.3-0.2-0.4-0.2s-0.2,0-0.3,0c-0.1,0-0.3,0.1-0.4,0.2s-0.2,0.3-0.2,0.4
		l-0.9,0c0-0.4,0.1-0.8,0.4-1.1s0.6-0.4,0.9-0.4c0.2,0,0.5,0.1,0.8,0.3s0.6,0.3,0.8,0.3c0.1,0,0.3-0.1,0.4-0.2s0.2-0.3,0.2-0.4
		L502.5,272.3z M499.1,279.8h2.5l-1.2-3.5L499.1,279.8z"/>
	<path class="st1" d="M511.8,279c0,0.8-0.1,1.6-0.4,2.2s-0.7,1.1-1.2,1.5s-1.2,0.5-1.9,0.5c-0.7,0-1.3-0.2-1.8-0.5s-1-0.8-1.3-1.4
		s-0.4-1.3-0.4-2.2v-0.5c0-0.8,0.1-1.6,0.4-2.2s0.7-1.1,1.2-1.5s1.2-0.5,1.8-0.5s1.3,0.2,1.8,0.5s1,0.8,1.2,1.4s0.4,1.4,0.4,2.2V279
		z M510.4,278.5c0-0.9-0.2-1.7-0.5-2.2s-0.9-0.8-1.5-0.8c-0.6,0-1.1,0.3-1.5,0.8s-0.5,1.2-0.6,2.1v0.5c0,0.9,0.2,1.7,0.5,2.2
		s0.9,0.8,1.5,0.8c0.7,0,1.2-0.2,1.5-0.8s0.5-1.2,0.5-2.2V278.5z"/>
</g>
<line class="st2" x1="424.5" y1="257.7" x2="492.7" y2="257.7"/>
<g class="st0">
	<path class="st3" d="M370.7,295.3l2.5,6.5l2.5-6.5h1.9v8.5h-1.5V301l0.1-3.8l-2.5,6.6h-1.1l-2.5-6.6l0.1,3.8v2.8h-1.5v-8.5H370.7z"
		/>
	<path class="st3" d="M383,303.8c-0.1-0.1-0.1-0.3-0.2-0.6c-0.5,0.5-1,0.7-1.7,0.7c-0.6,0-1.2-0.2-1.6-0.5s-0.6-0.8-0.6-1.3
		c0-0.7,0.3-1.2,0.8-1.6s1.2-0.5,2.2-0.5h0.9v-0.4c0-0.3-0.1-0.6-0.3-0.8s-0.5-0.3-0.8-0.3c-0.3,0-0.6,0.1-0.8,0.2s-0.3,0.4-0.3,0.6
		h-1.4c0-0.3,0.1-0.7,0.3-1s0.5-0.5,0.9-0.7s0.8-0.3,1.3-0.3c0.7,0,1.3,0.2,1.8,0.6s0.7,0.9,0.7,1.6v2.9c0,0.6,0.1,1,0.2,1.4v0.1
		H383z M381.4,302.8c0.3,0,0.5-0.1,0.8-0.2s0.4-0.3,0.6-0.6v-1.2H382c-0.5,0-0.9,0.1-1.2,0.3s-0.4,0.4-0.4,0.8
		c0,0.3,0.1,0.5,0.3,0.7S381.1,302.8,381.4,302.8z"/>
	<path class="st3" d="M387.2,297.5v6.9c0,0.6-0.2,1.1-0.5,1.5s-0.8,0.5-1.4,0.5c-0.3,0-0.5,0-0.8-0.1v-1.1c0.1,0,0.3,0.1,0.5,0.1
		c0.5,0,0.7-0.3,0.7-0.8v-7H387.2z M385.6,295.8c0-0.2,0.1-0.4,0.2-0.5s0.3-0.2,0.6-0.2s0.5,0.1,0.6,0.2s0.2,0.3,0.2,0.5
		c0,0.2-0.1,0.4-0.2,0.5s-0.3,0.2-0.6,0.2s-0.5-0.1-0.6-0.2S385.6,296,385.6,295.8z"/>
	<path class="st3" d="M388.4,300.6c0-0.6,0.1-1.2,0.4-1.7s0.6-0.9,1-1.1s1-0.4,1.5-0.4c0.9,0,1.5,0.3,2.1,0.8s0.8,1.3,0.9,2.2l0,0.3
		c0,0.6-0.1,1.2-0.4,1.7s-0.6,0.9-1,1.1s-1,0.4-1.5,0.4c-0.9,0-1.6-0.3-2.1-0.9S388.4,301.6,388.4,300.6L388.4,300.6z M389.8,300.7
		c0,0.7,0.1,1.2,0.4,1.5s0.6,0.6,1.1,0.6s0.9-0.2,1.1-0.6s0.4-0.9,0.4-1.6c0-0.6-0.1-1.1-0.4-1.5s-0.6-0.6-1.1-0.6
		c-0.5,0-0.8,0.2-1.1,0.6S389.8,300,389.8,300.7z"/>
	<path class="st3" d="M398.8,298.8c-0.2,0-0.4,0-0.6,0c-0.7,0-1.1,0.2-1.3,0.8v4.3h-1.4v-6.3h1.4l0,0.7c0.3-0.6,0.8-0.8,1.4-0.8
		c0.2,0,0.4,0,0.5,0.1L398.8,298.8z"/>
	<path class="st3" d="M399.7,295.8c0-0.2,0.1-0.4,0.2-0.5s0.3-0.2,0.6-0.2s0.5,0.1,0.6,0.2s0.2,0.3,0.2,0.5c0,0.2-0.1,0.4-0.2,0.5
		s-0.3,0.2-0.6,0.2s-0.5-0.1-0.6-0.2S399.7,296,399.7,295.8z M401.2,303.8h-1.4v-6.3h1.4V303.8z"/>
	<path class="st3" d="M404.6,295.9v1.5h1.1v1.1h-1.1v3.5c0,0.2,0,0.4,0.1,0.5s0.3,0.2,0.5,0.2c0.2,0,0.3,0,0.5-0.1v1.1
		c-0.3,0.1-0.6,0.1-0.9,0.1c-1.1,0-1.6-0.6-1.6-1.8v-3.6h-1v-1.1h1v-1.5H404.6z"/>
	<path class="st3" d="M410.6,303.8c-0.1-0.1-0.1-0.3-0.2-0.6c-0.5,0.5-1,0.7-1.7,0.7c-0.6,0-1.2-0.2-1.6-0.5s-0.6-0.8-0.6-1.3
		c0-0.7,0.3-1.2,0.8-1.6s1.2-0.5,2.2-0.5h0.9v-0.4c0-0.3-0.1-0.6-0.3-0.8s-0.5-0.3-0.8-0.3c-0.3,0-0.6,0.1-0.8,0.2s-0.3,0.4-0.3,0.6
		h-1.4c0-0.3,0.1-0.7,0.3-1s0.5-0.5,0.9-0.7s0.8-0.3,1.3-0.3c0.7,0,1.3,0.2,1.8,0.6s0.7,0.9,0.7,1.6v2.9c0,0.6,0.1,1,0.2,1.4v0.1
		H410.6z M409,302.8c0.3,0,0.5-0.1,0.8-0.2s0.4-0.3,0.6-0.6v-1.2h-0.8c-0.5,0-0.9,0.1-1.2,0.3s-0.4,0.4-0.4,0.8
		c0,0.3,0.1,0.5,0.3,0.7S408.7,302.8,409,302.8z"/>
	<path class="st3" d="M416.6,298.8c-0.2,0-0.4,0-0.6,0c-0.7,0-1.1,0.2-1.3,0.8v4.3h-1.4v-6.3h1.4l0,0.7c0.3-0.6,0.8-0.8,1.4-0.8
		c0.2,0,0.4,0,0.5,0.1L416.6,298.8z"/>
	<path class="st3" d="M417.5,295.8c0-0.2,0.1-0.4,0.2-0.5s0.3-0.2,0.6-0.2s0.5,0.1,0.6,0.2s0.2,0.3,0.2,0.5c0,0.2-0.1,0.4-0.2,0.5
		s-0.3,0.2-0.6,0.2s-0.5-0.1-0.6-0.2S417.5,296,417.5,295.8z M419,303.8h-1.4v-6.3h1.4V303.8z"/>
	<path class="st3" d="M424.3,303.8c-0.1-0.1-0.1-0.3-0.2-0.6c-0.5,0.5-1,0.7-1.7,0.7c-0.6,0-1.2-0.2-1.6-0.5s-0.6-0.8-0.6-1.3
		c0-0.7,0.3-1.2,0.8-1.6s1.2-0.5,2.2-0.5h0.9v-0.4c0-0.3-0.1-0.6-0.3-0.8s-0.5-0.3-0.8-0.3c-0.3,0-0.6,0.1-0.8,0.2s-0.3,0.4-0.3,0.6
		h-1.4c0-0.3,0.1-0.7,0.3-1s0.5-0.5,0.9-0.7s0.8-0.3,1.3-0.3c0.7,0,1.3,0.2,1.8,0.6s0.7,0.9,0.7,1.6v2.9c0,0.6,0.1,1,0.2,1.4v0.1
		H424.3z M422.8,302.8c0.3,0,0.5-0.1,0.8-0.2s0.4-0.3,0.6-0.6v-1.2h-0.8c-0.5,0-0.9,0.1-1.2,0.3s-0.4,0.4-0.4,0.8
		c0,0.3,0.1,0.5,0.3,0.7S422.5,302.8,422.8,302.8z"/>
	<path class="st3" d="M428.4,297.5l0,0.7c0.4-0.5,1.1-0.8,1.8-0.8c0.8,0,1.4,0.3,1.7,1c0.5-0.6,1.1-1,1.9-1c0.7,0,1.2,0.2,1.6,0.6
		s0.5,1,0.5,1.7v4.2h-1.4v-4.1c0-0.4-0.1-0.7-0.3-0.9s-0.5-0.3-0.9-0.3c-0.3,0-0.6,0.1-0.8,0.3s-0.3,0.4-0.4,0.7l0,4.3h-1.4v-4.2
		c0-0.7-0.4-1.1-1.1-1.1c-0.6,0-1,0.2-1.2,0.7v4.6H427v-6.3H428.4z"/>
	<path class="st3" d="M440.3,303.9c-0.9,0-1.6-0.3-2.2-0.9s-0.8-1.3-0.8-2.3v-0.2c0-0.6,0.1-1.2,0.4-1.7s0.6-0.9,1-1.2
		s0.9-0.4,1.5-0.4c0.9,0,1.5,0.3,2,0.8s0.7,1.3,0.7,2.3v0.6h-4.1c0,0.5,0.2,0.9,0.5,1.2s0.7,0.5,1.2,0.5c0.7,0,1.2-0.3,1.6-0.8
		l0.8,0.7c-0.3,0.4-0.6,0.7-1,0.9S440.8,303.9,440.3,303.9z M440.1,298.5c-0.4,0-0.7,0.1-0.9,0.4s-0.4,0.7-0.5,1.1h2.7v-0.1
		c0-0.5-0.2-0.8-0.4-1.1S440.5,298.5,440.1,298.5z"/>
	<path class="st3" d="M445.2,297.5l0,0.7c0.5-0.6,1.1-0.8,1.8-0.8c1.3,0,2,0.8,2,2.3v4.2h-1.4v-4.1c0-0.4-0.1-0.7-0.3-0.9
		s-0.5-0.3-0.9-0.3c-0.6,0-1,0.3-1.3,0.8v4.5h-1.4v-6.3H445.2z"/>
	<path class="st3" d="M452.4,295.9v1.5h1.1v1.1h-1.1v3.5c0,0.2,0,0.4,0.1,0.5s0.3,0.2,0.5,0.2c0.2,0,0.3,0,0.5-0.1v1.1
		c-0.3,0.1-0.6,0.1-0.9,0.1c-1.1,0-1.6-0.6-1.6-1.8v-3.6h-1v-1.1h1v-1.5H452.4z"/>
	<path class="st3" d="M457.4,303.9c-0.9,0-1.6-0.3-2.2-0.9s-0.8-1.3-0.8-2.3v-0.2c0-0.6,0.1-1.2,0.4-1.7s0.6-0.9,1-1.2
		s0.9-0.4,1.5-0.4c0.9,0,1.5,0.3,2,0.8s0.7,1.3,0.7,2.3v0.6h-4.1c0,0.5,0.2,0.9,0.5,1.2s0.7,0.5,1.2,0.5c0.7,0,1.2-0.3,1.6-0.8
		l0.8,0.7c-0.3,0.4-0.6,0.7-1,0.9S457.9,303.9,457.4,303.9z M457.2,298.5c-0.4,0-0.7,0.1-0.9,0.4s-0.4,0.7-0.5,1.1h2.7v-0.1
		c0-0.5-0.2-0.8-0.4-1.1S457.6,298.5,457.2,298.5z"/>
	<path class="st3" d="M466.6,302.8c0.4,0,0.7-0.1,0.9-0.3s0.4-0.5,0.4-0.8h1.3c0,0.4-0.1,0.8-0.4,1.1s-0.5,0.6-0.9,0.8
		s-0.8,0.3-1.3,0.3c-0.9,0-1.6-0.3-2.1-0.9s-0.8-1.4-0.8-2.4v-0.1c0-1,0.3-1.7,0.8-2.3s1.2-0.9,2.1-0.9c0.8,0,1.4,0.2,1.8,0.7
		s0.7,1,0.7,1.7h-1.3c0-0.4-0.1-0.7-0.4-0.9s-0.5-0.4-0.9-0.4c-0.5,0-0.8,0.2-1.1,0.5s-0.4,0.8-0.4,1.5v0.2c0,0.7,0.1,1.2,0.4,1.5
		S466.2,302.8,466.6,302.8z"/>
	<path class="st3" d="M470.3,295.8c0-0.2,0.1-0.4,0.2-0.5s0.3-0.2,0.6-0.2s0.5,0.1,0.6,0.2s0.2,0.3,0.2,0.5c0,0.2-0.1,0.4-0.2,0.5
		s-0.3,0.2-0.6,0.2s-0.5-0.1-0.6-0.2S470.3,296,470.3,295.8z M471.8,303.8h-1.4v-6.3h1.4V303.8z"/>
	<path class="st3" d="M476.7,298.8c-0.2,0-0.4,0-0.6,0c-0.7,0-1.1,0.2-1.3,0.8v4.3h-1.4v-6.3h1.4l0,0.7c0.3-0.6,0.8-0.8,1.4-0.8
		c0.2,0,0.4,0,0.5,0.1L476.7,298.8z"/>
	<path class="st3" d="M480.1,302.8c0.4,0,0.7-0.1,0.9-0.3s0.4-0.5,0.4-0.8h1.3c0,0.4-0.1,0.8-0.4,1.1s-0.5,0.6-0.9,0.8
		s-0.8,0.3-1.3,0.3c-0.9,0-1.6-0.3-2.1-0.9s-0.8-1.4-0.8-2.4v-0.1c0-1,0.3-1.7,0.8-2.3s1.2-0.9,2.1-0.9c0.8,0,1.4,0.2,1.8,0.7
		s0.7,1,0.7,1.7h-1.3c0-0.4-0.1-0.7-0.4-0.9s-0.5-0.4-0.9-0.4c-0.5,0-0.8,0.2-1.1,0.5s-0.4,0.8-0.4,1.5v0.2c0,0.7,0.1,1.2,0.4,1.5
		S479.6,302.8,480.1,302.8z"/>
	<path class="st3" d="M487.6,303.2c-0.4,0.5-1,0.7-1.8,0.7c-0.7,0-1.2-0.2-1.6-0.6s-0.5-1-0.5-1.7v-4.1h1.4v4.1c0,0.8,0.3,1.2,1,1.2
		c0.7,0,1.2-0.2,1.4-0.7v-4.6h1.4v6.3h-1.3L487.6,303.2z"/>
	<path class="st3" d="M490.4,295.8c0-0.2,0.1-0.4,0.2-0.5s0.3-0.2,0.6-0.2s0.5,0.1,0.6,0.2s0.2,0.3,0.2,0.5c0,0.2-0.1,0.4-0.2,0.5
		s-0.3,0.2-0.6,0.2s-0.5-0.1-0.6-0.2S490.4,296,490.4,295.8z M491.9,303.8h-1.4v-6.3h1.4V303.8z"/>
	<path class="st3" d="M495.3,295.9v1.5h1.1v1.1h-1.1v3.5c0,0.2,0,0.4,0.1,0.5s0.3,0.2,0.5,0.2c0.2,0,0.3,0,0.5-0.1v1.1
		c-0.3,0.1-0.6,0.1-0.9,0.1c-1.1,0-1.6-0.6-1.6-1.8v-3.6h-1v-1.1h1v-1.5H495.3z"/>
	<path class="st3" d="M497,300.6c0-0.6,0.1-1.2,0.4-1.7s0.6-0.9,1-1.1s1-0.4,1.5-0.4c0.9,0,1.5,0.3,2.1,0.8s0.8,1.3,0.9,2.2l0,0.3
		c0,0.6-0.1,1.2-0.4,1.7s-0.6,0.9-1,1.1s-1,0.4-1.5,0.4c-0.9,0-1.6-0.3-2.1-0.9S497,301.6,497,300.6L497,300.6z M498.5,300.7
		c0,0.7,0.1,1.2,0.4,1.5s0.6,0.6,1.1,0.6s0.9-0.2,1.1-0.6s0.4-0.9,0.4-1.6c0-0.6-0.1-1.1-0.4-1.5s-0.6-0.6-1.1-0.6
		c-0.5,0-0.8,0.2-1.1,0.6S498.5,300,498.5,300.7z"/>
	<path class="st3" d="M507.7,302.1c0-0.3-0.1-0.4-0.3-0.6s-0.6-0.2-1-0.4s-0.9-0.2-1.2-0.4c-0.7-0.3-1.1-0.8-1.1-1.5
		c0-0.5,0.2-1,0.7-1.4s1-0.6,1.8-0.6c0.8,0,1.4,0.2,1.8,0.6s0.7,0.9,0.7,1.5h-1.4c0-0.3-0.1-0.5-0.3-0.7s-0.5-0.3-0.8-0.3
		c-0.3,0-0.6,0.1-0.8,0.2s-0.3,0.3-0.3,0.6c0,0.2,0.1,0.4,0.3,0.5s0.6,0.2,1.1,0.4s1,0.3,1.3,0.4s0.6,0.4,0.7,0.6s0.2,0.5,0.2,0.9
		c0,0.6-0.2,1-0.7,1.4s-1.1,0.5-1.9,0.5c-0.5,0-1-0.1-1.4-0.3s-0.7-0.4-0.9-0.8s-0.3-0.7-0.3-1.1h1.4c0,0.3,0.1,0.6,0.4,0.8
		s0.5,0.3,0.9,0.3c0.4,0,0.7-0.1,0.9-0.2S507.7,302.3,507.7,302.1z"/>
	<path class="st3" d="M514.8,303.8h-1.4v-9h1.4V303.8z"/>
	<path class="st3" d="M516.1,300.6c0-0.6,0.1-1.2,0.4-1.7s0.6-0.9,1-1.1s1-0.4,1.5-0.4c0.9,0,1.5,0.3,2.1,0.8s0.8,1.3,0.9,2.2l0,0.3
		c0,0.6-0.1,1.2-0.4,1.7s-0.6,0.9-1,1.1s-1,0.4-1.5,0.4c-0.9,0-1.6-0.3-2.1-0.9S516.1,301.6,516.1,300.6L516.1,300.6z M517.5,300.7
		c0,0.7,0.1,1.2,0.4,1.5s0.6,0.6,1.1,0.6s0.9-0.2,1.1-0.6s0.4-0.9,0.4-1.6c0-0.6-0.1-1.1-0.4-1.5s-0.6-0.6-1.1-0.6
		c-0.5,0-0.8,0.2-1.1,0.6S517.5,300,517.5,300.7z"/>
	<path class="st3" d="M524.5,297.5l0,0.7c0.5-0.6,1.1-0.8,1.8-0.8c1.3,0,2,0.8,2,2.3v4.2H527v-4.1c0-0.4-0.1-0.7-0.3-0.9
		s-0.5-0.3-0.9-0.3c-0.6,0-1,0.3-1.3,0.8v4.5h-1.4v-6.3H524.5z"/>
	<path class="st3" d="M529.6,300.6c0-1,0.2-1.8,0.7-2.4s1.1-0.9,1.8-0.9c0.7,0,1.3,0.3,1.7,0.8l0.1-0.6h1.3v6.1c0,0.8-0.3,1.5-0.8,2
		s-1.2,0.7-2.1,0.7c-0.5,0-0.9-0.1-1.4-0.3s-0.8-0.4-1-0.8l0.7-0.9c0.4,0.5,1,0.8,1.6,0.8c0.5,0,0.8-0.1,1.1-0.4s0.4-0.6,0.4-1.1
		v-0.4c-0.4,0.5-1,0.7-1.6,0.7c-0.7,0-1.3-0.3-1.8-0.9S529.6,301.6,529.6,300.6z M531.1,300.7c0,0.6,0.1,1.1,0.4,1.5
		s0.6,0.5,1.1,0.5c0.6,0,1-0.2,1.3-0.7v-2.8c-0.3-0.5-0.7-0.7-1.3-0.7c-0.5,0-0.8,0.2-1.1,0.6S531.1,300,531.1,300.7z"/>
	<path class="st3" d="M536.4,300.6c0-0.6,0.1-1.2,0.4-1.7s0.6-0.9,1-1.1s1-0.4,1.5-0.4c0.9,0,1.5,0.3,2.1,0.8s0.8,1.3,0.9,2.2l0,0.3
		c0,0.6-0.1,1.2-0.4,1.7s-0.6,0.9-1,1.1s-1,0.4-1.5,0.4c-0.9,0-1.6-0.3-2.1-0.9S536.4,301.6,536.4,300.6L536.4,300.6z M537.8,300.7
		c0,0.7,0.1,1.2,0.4,1.5s0.6,0.6,1.1,0.6s0.9-0.2,1.1-0.6s0.4-0.9,0.4-1.6c0-0.6-0.1-1.1-0.4-1.5s-0.6-0.6-1.1-0.6
		c-0.5,0-0.8,0.2-1.1,0.6S537.8,300,537.8,300.7z"/>
	<path class="st3" d="M547.1,302.1c0-0.3-0.1-0.4-0.3-0.6s-0.6-0.2-1-0.4s-0.9-0.2-1.2-0.4c-0.7-0.3-1.1-0.8-1.1-1.5
		c0-0.5,0.2-1,0.7-1.4s1-0.6,1.8-0.6c0.8,0,1.4,0.2,1.8,0.6s0.7,0.9,0.7,1.5H547c0-0.3-0.1-0.5-0.3-0.7s-0.5-0.3-0.8-0.3
		c-0.3,0-0.6,0.1-0.8,0.2s-0.3,0.3-0.3,0.6c0,0.2,0.1,0.4,0.3,0.5s0.6,0.2,1.1,0.4s1,0.3,1.3,0.4s0.6,0.4,0.7,0.6s0.2,0.5,0.2,0.9
		c0,0.6-0.2,1-0.7,1.4s-1.1,0.5-1.9,0.5c-0.5,0-1-0.1-1.4-0.3s-0.7-0.4-0.9-0.8s-0.3-0.7-0.3-1.1h1.4c0,0.3,0.1,0.6,0.4,0.8
		s0.5,0.3,0.9,0.3c0.4,0,0.7-0.1,0.9-0.2S547.1,302.3,547.1,302.1z"/>
</g>
<g class="st0">
	<path class="st1" d="M441.6,412.7h-3.5v2.6h4.1v1.2h-5.6v-8.5h5.5v1.2h-4.1v2.4h3.5V412.7z"/>
	<path class="st1" d="M447.8,414.3c0-0.4-0.1-0.7-0.4-0.9s-0.7-0.4-1.4-0.6s-1.2-0.4-1.6-0.7c-0.8-0.5-1.2-1.1-1.2-1.9
		c0-0.7,0.3-1.3,0.8-1.7s1.3-0.7,2.2-0.7c0.6,0,1.1,0.1,1.6,0.3s0.8,0.5,1.1,0.9s0.4,0.9,0.4,1.3h-1.5c0-0.4-0.1-0.8-0.4-1
		s-0.7-0.4-1.2-0.4c-0.5,0-0.9,0.1-1.1,0.3s-0.4,0.5-0.4,0.9c0,0.3,0.1,0.6,0.4,0.8s0.8,0.4,1.4,0.6s1.2,0.4,1.6,0.7
		s0.7,0.5,0.9,0.9s0.3,0.7,0.3,1.1c0,0.7-0.3,1.3-0.8,1.7s-1.3,0.6-2.2,0.6c-0.6,0-1.2-0.1-1.7-0.3s-0.9-0.5-1.2-0.9
		s-0.4-0.9-0.4-1.4h1.5c0,0.5,0.2,0.9,0.5,1.1s0.8,0.4,1.4,0.4c0.5,0,0.9-0.1,1.2-0.3S447.8,414.6,447.8,414.3z"/>
	<path class="st1" d="M457.1,413.7c-0.1,0.9-0.4,1.6-1,2.1s-1.4,0.8-2.3,0.8c-0.7,0-1.3-0.2-1.8-0.5s-0.9-0.8-1.2-1.4
		s-0.4-1.3-0.4-2.1v-0.8c0-0.8,0.1-1.5,0.4-2.1s0.7-1.1,1.2-1.4s1.1-0.5,1.8-0.5c0.9,0,1.7,0.3,2.3,0.8s0.9,1.2,1,2.2h-1.5
		c-0.1-0.6-0.2-1.1-0.5-1.3s-0.7-0.4-1.3-0.4c-0.6,0-1.1,0.2-1.5,0.7c-0.3,0.5-0.5,1.2-0.5,2.1v0.8c0,0.9,0.2,1.6,0.5,2.1
		c0.3,0.5,0.8,0.7,1.5,0.7c0.6,0,1-0.1,1.3-0.4s0.5-0.7,0.6-1.3H457.1z"/>
	<path class="st1" d="M463.2,414.5h-3.3l-0.7,2h-1.5l3.2-8.5h1.3l3.2,8.5h-1.5L463.2,414.5z M460.3,413.3h2.5l-1.2-3.5L460.3,413.3z
		"/>
	<path class="st1" d="M467.9,415.3h3.9v1.2h-5.4v-8.5h1.5V415.3z"/>
	<path class="st1" d="M477.8,414.5h-3.3l-0.7,2h-1.5l3.2-8.5h1.3l3.2,8.5h-1.5L477.8,414.5z M474.9,413.3h2.5l-1.2-3.5L474.9,413.3z
		"/>
</g>
<line class="st2" x1="424.5" y1="391.2" x2="492.7" y2="391.2"/>
<g class="st0">
	<path class="st3" d="M403.3,428.8l2.5,6.5l2.5-6.5h1.9v8.5h-1.5v-2.8l0.1-3.8l-2.5,6.6h-1.1l-2.5-6.6l0.1,3.8v2.8h-1.5v-8.5H403.3z
		"/>
	<path class="st3" d="M411.7,429.3c0-0.2,0.1-0.4,0.2-0.5s0.3-0.2,0.6-0.2s0.5,0.1,0.6,0.2s0.2,0.3,0.2,0.5c0,0.2-0.1,0.4-0.2,0.5
		s-0.3,0.2-0.6,0.2s-0.5-0.1-0.6-0.2S411.7,429.5,411.7,429.3z M413.2,437.3h-1.4V431h1.4V437.3z"/>
	<path class="st3" d="M416.1,431l0,0.7c0.5-0.6,1.1-0.8,1.8-0.8c1.3,0,2,0.8,2,2.3v4.2h-1.4v-4.1c0-0.4-0.1-0.7-0.3-0.9
		s-0.5-0.3-0.9-0.3c-0.6,0-1,0.3-1.3,0.8v4.5h-1.4V431H416.1z"/>
	<path class="st3" d="M421.4,429.3c0-0.2,0.1-0.4,0.2-0.5s0.3-0.2,0.6-0.2s0.5,0.1,0.6,0.2s0.2,0.3,0.2,0.5c0,0.2-0.1,0.4-0.2,0.5
		s-0.3,0.2-0.6,0.2s-0.5-0.1-0.6-0.2S421.4,429.5,421.4,429.3z M423,437.3h-1.4V431h1.4V437.3z"/>
	<path class="st3" d="M425,437.3V432h-1V431h1v-0.6c0-0.7,0.2-1.2,0.6-1.6s0.9-0.6,1.6-0.6c0.2,0,0.5,0,0.8,0.1l0,1.1
		c-0.2,0-0.3,0-0.5,0c-0.7,0-1,0.3-1,1v0.6h1.3v1.1h-1.3v5.3H425z"/>
	<path class="st3" d="M432.6,436.7c-0.4,0.5-1,0.7-1.8,0.7c-0.7,0-1.2-0.2-1.6-0.6s-0.5-1-0.5-1.7V431h1.4v4.1c0,0.8,0.3,1.2,1,1.2
		c0.7,0,1.2-0.2,1.4-0.7V431h1.4v6.3h-1.3L432.6,436.7z M431.8,428.3h1.6l-1.6,1.8l-1.1,0L431.8,428.3z"/>
	<path class="st3" d="M436.7,431l0,0.7c0.5-0.6,1.1-0.8,1.8-0.8c1.3,0,2,0.8,2,2.3v4.2h-1.4v-4.1c0-0.4-0.1-0.7-0.3-0.9
		s-0.5-0.3-0.9-0.3c-0.6,0-1,0.3-1.3,0.8v4.5h-1.4V431H436.7z"/>
	<path class="st3" d="M441.8,434.1c0-1,0.2-1.8,0.7-2.4s1.1-0.9,1.8-0.9c0.7,0,1.2,0.2,1.6,0.7v-3.2h1.4v9h-1.3l-0.1-0.7
		c-0.4,0.5-1,0.8-1.7,0.8c-0.7,0-1.3-0.3-1.8-0.9S441.8,435.1,441.8,434.1z M443.3,434.2c0,0.6,0.1,1.1,0.4,1.5s0.6,0.5,1.1,0.5
		c0.6,0,1-0.3,1.3-0.8v-2.7c-0.3-0.5-0.7-0.8-1.3-0.8c-0.5,0-0.8,0.2-1.1,0.5S443.3,433.5,443.3,434.2z"/>
	<path class="st3" d="M448.9,429.3c0-0.2,0.1-0.4,0.2-0.5s0.3-0.2,0.6-0.2s0.5,0.1,0.6,0.2s0.2,0.3,0.2,0.5c0,0.2-0.1,0.4-0.2,0.5
		s-0.3,0.2-0.6,0.2s-0.5-0.1-0.6-0.2S448.9,429.5,448.9,429.3z M450.4,437.3H449V431h1.4V437.3z"/>
	<path class="st3" d="M451.7,434.1c0-0.6,0.1-1.2,0.4-1.7s0.6-0.9,1-1.1s1-0.4,1.5-0.4c0.9,0,1.5,0.3,2.1,0.8s0.8,1.3,0.9,2.2l0,0.3
		c0,0.6-0.1,1.2-0.4,1.7s-0.6,0.9-1,1.1s-1,0.4-1.5,0.4c-0.9,0-1.6-0.3-2.1-0.9S451.7,435.1,451.7,434.1L451.7,434.1z M453.1,434.2
		c0,0.7,0.1,1.2,0.4,1.5s0.6,0.6,1.1,0.6s0.9-0.2,1.1-0.6s0.4-0.9,0.4-1.6c0-0.6-0.1-1.1-0.4-1.5s-0.6-0.6-1.1-0.6
		c-0.5,0-0.8,0.2-1.1,0.6S453.1,433.5,453.1,434.2z"/>
	<path class="st3" d="M464.6,437.4c-0.9,0-1.6-0.3-2.2-0.9s-0.8-1.3-0.8-2.3v-0.2c0-0.6,0.1-1.2,0.4-1.7s0.6-0.9,1-1.2
		s0.9-0.4,1.5-0.4c0.9,0,1.5,0.3,2,0.8s0.7,1.3,0.7,2.3v0.6H463c0,0.5,0.2,0.9,0.5,1.2s0.7,0.5,1.2,0.5c0.7,0,1.2-0.3,1.6-0.8
		l0.8,0.7c-0.3,0.4-0.6,0.7-1,0.9S465.1,437.4,464.6,437.4z M464.4,432c-0.4,0-0.7,0.1-0.9,0.4s-0.4,0.7-0.5,1.1h2.7v-0.1
		c0-0.5-0.2-0.8-0.4-1.1S464.8,432,464.4,432z"/>
	<path class="st3" d="M476.7,434.2c0,1-0.2,1.8-0.7,2.3s-1,0.9-1.8,0.9c-0.7,0-1.3-0.2-1.7-0.7v3h-1.4V431h1.3l0.1,0.6
		c0.4-0.5,1-0.8,1.7-0.8c0.8,0,1.4,0.3,1.8,0.9S476.7,433.1,476.7,434.2L476.7,434.2z M475.3,434.1c0-0.6-0.1-1.1-0.4-1.5
		s-0.6-0.6-1.1-0.6c-0.6,0-1,0.2-1.3,0.7v2.8c0.3,0.5,0.7,0.7,1.3,0.7c0.5,0,0.8-0.2,1.1-0.5S475.3,434.8,475.3,434.1z"/>
	<path class="st3" d="M480.7,437.4c-0.9,0-1.6-0.3-2.2-0.9s-0.8-1.3-0.8-2.3v-0.2c0-0.6,0.1-1.2,0.4-1.7s0.6-0.9,1-1.2
		s0.9-0.4,1.5-0.4c0.9,0,1.5,0.3,2,0.8s0.7,1.3,0.7,2.3v0.6h-4.1c0,0.5,0.2,0.9,0.5,1.2s0.7,0.5,1.2,0.5c0.7,0,1.2-0.3,1.6-0.8
		l0.8,0.7c-0.3,0.4-0.6,0.7-1,0.9S481.3,437.4,480.7,437.4z M480.6,432c-0.4,0-0.7,0.1-0.9,0.4s-0.4,0.7-0.5,1.1h2.7v-0.1
		c0-0.5-0.2-0.8-0.4-1.1S481,432,480.6,432z"/>
	<path class="st3" d="M484.1,434.1c0-1,0.2-1.8,0.7-2.4s1.1-0.9,1.8-0.9c0.7,0,1.3,0.2,1.7,0.7l0.1-0.6h1.3v8.8h-1.4v-3
		c-0.4,0.4-1,0.7-1.6,0.7c-0.8,0-1.4-0.3-1.8-0.9S484.1,435.1,484.1,434.1z M485.5,434.2c0,0.6,0.1,1.2,0.4,1.5s0.6,0.6,1.1,0.6
		c0.6,0,1-0.2,1.3-0.7v-2.9c-0.3-0.5-0.7-0.7-1.2-0.7c-0.5,0-0.8,0.2-1.1,0.5S485.5,433.4,485.5,434.2z"/>
	<path class="st3" d="M495,436.7c-0.4,0.5-1,0.7-1.8,0.7c-0.7,0-1.2-0.2-1.6-0.6s-0.5-1-0.5-1.7V431h1.4v4.1c0,0.8,0.3,1.2,1,1.2
		c0.7,0,1.2-0.2,1.4-0.7V431h1.4v6.3h-1.3L495,436.7z"/>
	<path class="st3" d="M500.7,437.4c-0.9,0-1.6-0.3-2.2-0.9s-0.8-1.3-0.8-2.3v-0.2c0-0.6,0.1-1.2,0.4-1.7s0.6-0.9,1-1.2
		s0.9-0.4,1.5-0.4c0.9,0,1.5,0.3,2,0.8s0.7,1.3,0.7,2.3v0.6h-4.1c0,0.5,0.2,0.9,0.5,1.2s0.7,0.5,1.2,0.5c0.7,0,1.2-0.3,1.6-0.8
		l0.8,0.7c-0.3,0.4-0.6,0.7-1,0.9S501.2,437.4,500.7,437.4z M500.5,432c-0.4,0-0.7,0.1-0.9,0.4s-0.4,0.7-0.5,1.1h2.7v-0.1
		c0-0.5-0.2-0.8-0.4-1.1S500.9,432,500.5,432z"/>
	<path class="st3" d="M505.6,431l0,0.7c0.5-0.6,1.1-0.8,1.8-0.8c1.3,0,2,0.8,2,2.3v4.2h-1.4v-4.1c0-0.4-0.1-0.7-0.3-0.9
		s-0.5-0.3-0.9-0.3c-0.6,0-1,0.3-1.3,0.8v4.5h-1.4V431H505.6z"/>
	<path class="st3" d="M514.8,437.3c-0.1-0.1-0.1-0.3-0.2-0.6c-0.5,0.5-1,0.7-1.7,0.7c-0.6,0-1.2-0.2-1.6-0.5s-0.6-0.8-0.6-1.3
		c0-0.7,0.3-1.2,0.8-1.6s1.2-0.5,2.2-0.5h0.9V433c0-0.3-0.1-0.6-0.3-0.8s-0.5-0.3-0.8-0.3c-0.3,0-0.6,0.1-0.8,0.2s-0.3,0.4-0.3,0.6
		h-1.4c0-0.3,0.1-0.7,0.3-1s0.5-0.5,0.9-0.7s0.8-0.3,1.3-0.3c0.7,0,1.3,0.2,1.8,0.6s0.7,0.9,0.7,1.6v2.9c0,0.6,0.1,1,0.2,1.4v0.1
		H514.8z M513.2,436.3c0.3,0,0.5-0.1,0.8-0.2s0.4-0.3,0.6-0.6v-1.2h-0.8c-0.5,0-0.9,0.1-1.2,0.3s-0.4,0.4-0.4,0.8
		c0,0.3,0.1,0.5,0.3,0.7S512.9,436.3,513.2,436.3z"/>
</g>
<g class="st0">
	<path class="st3" d="M432.5,452c0,1-0.2,1.8-0.7,2.3s-1,0.9-1.8,0.9c-0.7,0-1.3-0.2-1.7-0.7v3h-1.4v-8.8h1.3l0.1,0.6
		c0.4-0.5,1-0.8,1.7-0.8c0.8,0,1.4,0.3,1.8,0.9S432.5,450.9,432.5,452L432.5,452z M431.1,451.9c0-0.6-0.1-1.1-0.4-1.5
		s-0.6-0.6-1.1-0.6c-0.6,0-1,0.2-1.3,0.7v2.8c0.3,0.5,0.7,0.7,1.3,0.7c0.5,0,0.8-0.2,1.1-0.5S431.1,452.6,431.1,451.9z"/>
	<path class="st3" d="M437,450.1c-0.2,0-0.4,0-0.6,0c-0.7,0-1.1,0.2-1.3,0.8v4.3h-1.4v-6.3h1.4l0,0.7c0.3-0.6,0.8-0.8,1.4-0.8
		c0.2,0,0.4,0,0.5,0.1L437,450.1z"/>
	<path class="st3" d="M437.4,451.9c0-0.6,0.1-1.2,0.4-1.7s0.6-0.9,1-1.1s1-0.4,1.5-0.4c0.9,0,1.5,0.3,2.1,0.8s0.8,1.3,0.9,2.2l0,0.3
		c0,0.6-0.1,1.2-0.4,1.7s-0.6,0.9-1,1.1s-1,0.4-1.5,0.4c-0.9,0-1.6-0.3-2.1-0.9S437.4,452.9,437.4,451.9L437.4,451.9z M438.9,452
		c0,0.7,0.1,1.2,0.4,1.5s0.6,0.6,1.1,0.6s0.9-0.2,1.1-0.6s0.4-0.9,0.4-1.6c0-0.6-0.1-1.1-0.4-1.5s-0.6-0.6-1.1-0.6
		c-0.5,0-0.8,0.2-1.1,0.6S438.9,451.3,438.9,452z"/>
	<path class="st3" d="M450.1,452c0,1-0.2,1.8-0.7,2.3s-1,0.9-1.8,0.9c-0.7,0-1.3-0.2-1.7-0.7v3h-1.4v-8.8h1.3l0.1,0.6
		c0.4-0.5,1-0.8,1.7-0.8c0.8,0,1.4,0.3,1.8,0.9S450.1,450.9,450.1,452L450.1,452z M448.7,451.9c0-0.6-0.1-1.1-0.4-1.5
		s-0.6-0.6-1.1-0.6c-0.6,0-1,0.2-1.3,0.7v2.8c0.3,0.5,0.7,0.7,1.3,0.7c0.5,0,0.8-0.2,1.1-0.5S448.7,452.6,448.7,451.9z"/>
	<path class="st3" d="M454.6,450.1c-0.2,0-0.4,0-0.6,0c-0.7,0-1.1,0.2-1.3,0.8v4.3h-1.4v-6.3h1.4l0,0.7c0.3-0.6,0.8-0.8,1.4-0.8
		c0.2,0,0.4,0,0.5,0.1L454.6,450.1z"/>
	<path class="st3" d="M455.5,447.1c0-0.2,0.1-0.4,0.2-0.5s0.3-0.2,0.6-0.2s0.5,0.1,0.6,0.2s0.2,0.3,0.2,0.5c0,0.2-0.1,0.4-0.2,0.5
		s-0.3,0.2-0.6,0.2s-0.5-0.1-0.6-0.2S455.5,447.3,455.5,447.1z M457,455.1h-1.4v-6.3h1.4V455.1z"/>
	<path class="st3" d="M461.4,455.2c-0.9,0-1.6-0.3-2.2-0.9s-0.8-1.3-0.8-2.3v-0.2c0-0.6,0.1-1.2,0.4-1.7s0.6-0.9,1-1.2
		s0.9-0.4,1.5-0.4c0.9,0,1.5,0.3,2,0.8s0.7,1.3,0.7,2.3v0.6h-4.1c0,0.5,0.2,0.9,0.5,1.2s0.7,0.5,1.2,0.5c0.7,0,1.2-0.3,1.6-0.8
		l0.8,0.7c-0.3,0.4-0.6,0.7-1,0.9S461.9,455.2,461.4,455.2z M461.2,449.8c-0.4,0-0.7,0.1-0.9,0.4s-0.4,0.7-0.5,1.1h2.7v-0.1
		c0-0.5-0.2-0.8-0.4-1.1S461.6,449.8,461.2,449.8z"/>
	<path class="st3" d="M464.8,451.9c0-1,0.2-1.8,0.7-2.4s1.1-0.9,1.8-0.9c0.7,0,1.2,0.2,1.6,0.7v-3.2h1.4v9H469l-0.1-0.7
		c-0.4,0.5-1,0.8-1.7,0.8c-0.7,0-1.3-0.3-1.8-0.9S464.8,452.9,464.8,451.9z M466.2,452c0,0.6,0.1,1.1,0.4,1.5s0.6,0.5,1.1,0.5
		c0.6,0,1-0.3,1.3-0.8v-2.7c-0.3-0.5-0.7-0.8-1.3-0.8c-0.5,0-0.8,0.2-1.1,0.5S466.2,451.3,466.2,452z"/>
	<path class="st3" d="M475.6,455.1c-0.1-0.1-0.1-0.3-0.2-0.6c-0.5,0.5-1,0.7-1.7,0.7c-0.6,0-1.2-0.2-1.6-0.5s-0.6-0.8-0.6-1.3
		c0-0.7,0.3-1.2,0.8-1.6s1.2-0.5,2.2-0.5h0.9v-0.4c0-0.3-0.1-0.6-0.3-0.8s-0.5-0.3-0.8-0.3c-0.3,0-0.6,0.1-0.8,0.2s-0.3,0.4-0.3,0.6
		h-1.4c0-0.3,0.1-0.7,0.3-1s0.5-0.5,0.9-0.7s0.8-0.3,1.3-0.3c0.7,0,1.3,0.2,1.8,0.6s0.7,0.9,0.7,1.6v2.9c0,0.6,0.1,1,0.2,1.4v0.1
		H475.6z M474,454.1c0.3,0,0.5-0.1,0.8-0.2s0.4-0.3,0.6-0.6v-1.2h-0.8c-0.5,0-0.9,0.1-1.2,0.3s-0.4,0.4-0.4,0.8
		c0,0.3,0.1,0.5,0.3,0.7S473.7,454.1,474,454.1z"/>
	<path class="st3" d="M478,451.9c0-1,0.2-1.8,0.7-2.4s1.1-0.9,1.8-0.9c0.7,0,1.2,0.2,1.6,0.7v-3.2h1.4v9h-1.3l-0.1-0.7
		c-0.4,0.5-1,0.8-1.7,0.8c-0.7,0-1.3-0.3-1.8-0.9S478,452.9,478,451.9z M479.4,452c0,0.6,0.1,1.1,0.4,1.5s0.6,0.5,1.1,0.5
		c0.6,0,1-0.3,1.3-0.8v-2.7c-0.3-0.5-0.7-0.8-1.3-0.8c-0.5,0-0.8,0.2-1.1,0.5S479.4,451.3,479.4,452z"/>
	<path class="st3" d="M487.9,455.2c-0.9,0-1.6-0.3-2.2-0.9s-0.8-1.3-0.8-2.3v-0.2c0-0.6,0.1-1.2,0.4-1.7s0.6-0.9,1-1.2
		s0.9-0.4,1.5-0.4c0.9,0,1.5,0.3,2,0.8s0.7,1.3,0.7,2.3v0.6h-4.1c0,0.5,0.2,0.9,0.5,1.2s0.7,0.5,1.2,0.5c0.7,0,1.2-0.3,1.6-0.8
		l0.8,0.7c-0.3,0.4-0.6,0.7-1,0.9S488.4,455.2,487.9,455.2z M487.7,449.8c-0.4,0-0.7,0.1-0.9,0.4s-0.4,0.7-0.5,1.1h2.7v-0.1
		c0-0.5-0.2-0.8-0.4-1.1S488.1,449.8,487.7,449.8z"/>
</g>
<g class="st0">
	<path class="st1" d="M389.6,541.4l2.5,6.5l2.5-6.5h1.9v8.5H395v-2.8l0.1-3.8l-2.5,6.6h-1.1l-2.5-6.6l0.1,3.8v2.8h-1.5v-8.5H389.6z"
		/>
	<path class="st1" d="M403.1,548h-3.3l-0.7,2h-1.5l3.2-8.5h1.3l3.2,8.5h-1.5L403.1,548z M403.6,539.3c0,0.4-0.1,0.8-0.4,1.1
		s-0.6,0.4-0.9,0.4c-0.2,0-0.3,0-0.4,0s-0.3-0.1-0.5-0.2s-0.3-0.2-0.4-0.2s-0.2,0-0.3,0c-0.1,0-0.3,0.1-0.4,0.2s-0.2,0.3-0.2,0.4
		l-0.9,0c0-0.4,0.1-0.8,0.4-1.1s0.6-0.4,0.9-0.4c0.2,0,0.5,0.1,0.8,0.3s0.6,0.3,0.8,0.3c0.1,0,0.3-0.1,0.4-0.2s0.2-0.3,0.2-0.4
		L403.6,539.3z M400.2,546.8h2.5l-1.2-3.5L400.2,546.8z"/>
	<path class="st1" d="M413,545.9c0,0.8-0.1,1.6-0.4,2.2s-0.7,1.1-1.2,1.5s-1.2,0.5-1.9,0.5c-0.7,0-1.3-0.2-1.8-0.5s-1-0.8-1.3-1.4
		s-0.4-1.3-0.4-2.2v-0.5c0-0.8,0.1-1.6,0.4-2.2s0.7-1.1,1.2-1.5s1.2-0.5,1.8-0.5s1.3,0.2,1.8,0.5s1,0.8,1.2,1.4s0.4,1.4,0.4,2.2
		V545.9z M411.5,545.5c0-0.9-0.2-1.7-0.5-2.2s-0.9-0.8-1.5-0.8c-0.6,0-1.1,0.3-1.5,0.8s-0.5,1.2-0.6,2.1v0.5c0,0.9,0.2,1.7,0.5,2.2
		s0.9,0.8,1.5,0.8c0.7,0,1.2-0.2,1.5-0.8s0.5-1.2,0.5-2.2V545.5z"/>
	<path class="st1" d="M417.4,550v-8.5h2.5c0.8,0,1.4,0.2,2,0.5s1,0.8,1.4,1.4s0.5,1.3,0.5,2.1v0.4c0,0.8-0.2,1.5-0.5,2.1
		s-0.8,1.1-1.4,1.4s-1.3,0.5-2,0.5H417.4z M418.9,542.6v6.2h1c0.8,0,1.4-0.2,1.8-0.7s0.6-1.2,0.6-2.1v-0.5c0-0.9-0.2-1.6-0.6-2.1
		s-1-0.7-1.8-0.7H418.9z"/>
	<path class="st1" d="M430.2,546.1h-3.5v2.6h4.1v1.2h-5.6v-8.5h5.5v1.2h-4.1v2.4h3.5V546.1z"/>
	<path class="st1" d="M441.8,545.9c0,0.8-0.1,1.6-0.4,2.2s-0.7,1.1-1.2,1.5s-1.2,0.5-1.9,0.5c-0.7,0-1.3-0.2-1.8-0.5s-1-0.8-1.3-1.4
		s-0.4-1.3-0.4-2.2v-0.5c0-0.8,0.1-1.6,0.4-2.2s0.7-1.1,1.2-1.5s1.2-0.5,1.8-0.5s1.3,0.2,1.8,0.5s1,0.8,1.2,1.4s0.4,1.4,0.4,2.2
		V545.9z M440.4,545.5c0-0.9-0.2-1.7-0.5-2.2s-0.9-0.8-1.5-0.8c-0.6,0-1.1,0.3-1.5,0.8s-0.5,1.2-0.6,2.1v0.5c0,0.9,0.2,1.7,0.5,2.2
		s0.9,0.8,1.5,0.8c0.7,0,1.2-0.2,1.5-0.8s0.5-1.2,0.5-2.2V545.5z"/>
	<path class="st1" d="M443.3,550v-8.5h2.9c1,0,1.7,0.2,2.2,0.6s0.8,1,0.8,1.7c0,0.4-0.1,0.7-0.3,1.1s-0.5,0.6-0.9,0.7
		c0.5,0.1,0.8,0.4,1.1,0.7s0.4,0.8,0.4,1.2c0,0.8-0.3,1.4-0.8,1.8s-1.2,0.6-2.2,0.6H443.3z M444.8,545h1.5c0.5,0,0.8-0.1,1.1-0.3
		s0.4-0.5,0.4-0.9c0-0.4-0.1-0.7-0.4-0.9s-0.6-0.3-1.1-0.3h-1.4V545z M444.8,546.1v2.7h1.6c0.5,0,0.8-0.1,1.1-0.3s0.4-0.6,0.4-1
		c0-0.9-0.5-1.3-1.4-1.4H444.8z"/>
	<path class="st1" d="M454,546.7h-1.7v3.3h-1.5v-8.5h3c1,0,1.7,0.2,2.3,0.7c0.5,0.4,0.8,1.1,0.8,1.9c0,0.6-0.1,1-0.4,1.4
		c-0.3,0.4-0.7,0.7-1.2,0.9l1.9,3.6v0.1h-1.6L454,546.7z M452.4,545.5h1.5c0.5,0,0.9-0.1,1.2-0.4s0.4-0.6,0.4-1
		c0-0.5-0.1-0.8-0.4-1.1s-0.6-0.4-1.2-0.4h-1.6V545.5z"/>
	<path class="st1" d="M463.2,548h-3.3l-0.7,2h-1.5l3.2-8.5h1.3l3.2,8.5h-1.5L463.2,548z M460.3,546.8h2.5l-1.2-3.5L460.3,546.8z"/>
	<path class="st1" d="M470.8,546.8v3.2h-1.5v-8.5h3.3c1,0,1.7,0.2,2.3,0.7c0.6,0.5,0.8,1.2,0.8,2c0,0.8-0.3,1.5-0.8,2
		c-0.5,0.5-1.3,0.7-2.3,0.7H470.8z M470.8,545.6h1.8c0.5,0,0.9-0.1,1.2-0.4s0.4-0.6,0.4-1.1c0-0.5-0.1-0.8-0.4-1.1s-0.7-0.4-1.2-0.4
		h-1.8V545.6z"/>
	<path class="st1" d="M480.2,546.7h-1.7v3.3H477v-8.5h3c1,0,1.7,0.2,2.3,0.7c0.5,0.4,0.8,1.1,0.8,1.9c0,0.6-0.1,1-0.4,1.4
		c-0.3,0.4-0.7,0.7-1.2,0.9l1.9,3.6v0.1h-1.6L480.2,546.7z M478.5,545.5h1.5c0.5,0,0.9-0.1,1.2-0.4s0.4-0.6,0.4-1
		c0-0.5-0.1-0.8-0.4-1.1s-0.6-0.4-1.2-0.4h-1.6V545.5z"/>
	<path class="st1" d="M486.1,550h-1.5v-8.5h1.5V550z"/>
	<path class="st1" d="M494.7,550h-1.5l-3.8-6.1v6.1h-1.5v-8.5h1.5l3.8,6.1v-6.1h1.5V550z"/>
	<path class="st1" d="M502.9,547.2c-0.1,0.9-0.4,1.6-1,2.1s-1.4,0.8-2.3,0.8c-0.7,0-1.3-0.2-1.8-0.5s-0.9-0.8-1.2-1.4
		s-0.4-1.3-0.4-2.1v-0.8c0-0.8,0.1-1.5,0.4-2.1s0.7-1.1,1.2-1.4s1.1-0.5,1.8-0.5c0.9,0,1.7,0.3,2.3,0.8s0.9,1.2,1,2.2h-1.5
		c-0.1-0.6-0.2-1.1-0.5-1.3s-0.7-0.4-1.3-0.4c-0.6,0-1.1,0.2-1.5,0.7c-0.3,0.5-0.5,1.2-0.5,2.1v0.8c0,0.9,0.2,1.6,0.5,2.1
		c0.3,0.5,0.8,0.7,1.5,0.7c0.6,0,1-0.1,1.3-0.4s0.5-0.7,0.6-1.3H502.9z"/>
	<path class="st1" d="M505.8,550h-1.5v-8.5h1.5V550z"/>
	<path class="st1" d="M509.1,546.8v3.2h-1.5v-8.5h3.3c1,0,1.7,0.2,2.3,0.7c0.6,0.5,0.8,1.2,0.8,2c0,0.8-0.3,1.5-0.8,2
		c-0.5,0.5-1.3,0.7-2.3,0.7H509.1z M509.1,545.6h1.8c0.5,0,0.9-0.1,1.2-0.4s0.4-0.6,0.4-1.1c0-0.5-0.1-0.8-0.4-1.1s-0.7-0.4-1.2-0.4
		h-1.8V545.6z"/>
	<path class="st1" d="M519,548h-3.3l-0.7,2h-1.5l3.2-8.5h1.3l3.2,8.5h-1.5L519,548z M516.2,546.8h2.5l-1.2-3.5L516.2,546.8z"/>
	<path class="st1" d="M523.7,548.8h3.9v1.2h-5.4v-8.5h1.5V548.8z"/>
</g>
<line class="st2" x1="424.5" y1="524.6" x2="492.7" y2="524.6"/>
<g class="st0">
	<path class="st3" d="M408.3,568c-0.1,0.9-0.4,1.6-1,2.1s-1.4,0.8-2.3,0.8c-0.7,0-1.3-0.2-1.8-0.5s-0.9-0.8-1.2-1.4
		s-0.4-1.3-0.4-2.1v-0.8c0-0.8,0.1-1.5,0.4-2.1s0.7-1.1,1.2-1.4s1.1-0.5,1.8-0.5c0.9,0,1.7,0.3,2.3,0.8s0.9,1.2,1,2.2h-1.5
		c-0.1-0.6-0.2-1.1-0.5-1.3s-0.7-0.4-1.3-0.4c-0.6,0-1.1,0.2-1.5,0.7c-0.3,0.5-0.5,1.2-0.5,2.1v0.8c0,0.9,0.2,1.6,0.5,2.1
		c0.3,0.5,0.8,0.7,1.5,0.7c0.6,0,1-0.1,1.3-0.4s0.5-0.7,0.6-1.3H408.3z"/>
	<path class="st3" d="M409.2,567.5c0-0.6,0.1-1.2,0.4-1.7s0.6-0.9,1-1.1s1-0.4,1.5-0.4c0.9,0,1.5,0.3,2.1,0.8s0.8,1.3,0.9,2.2l0,0.3
		c0,0.6-0.1,1.2-0.4,1.7s-0.6,0.9-1,1.1s-1,0.4-1.5,0.4c-0.9,0-1.6-0.3-2.1-0.9S409.2,568.6,409.2,567.5L409.2,567.5z M410.6,567.7
		c0,0.7,0.1,1.2,0.4,1.5s0.6,0.6,1.1,0.6s0.9-0.2,1.1-0.6s0.4-0.9,0.4-1.6c0-0.6-0.1-1.1-0.4-1.5s-0.6-0.6-1.1-0.6
		c-0.5,0-0.8,0.2-1.1,0.6S410.6,566.9,410.6,567.7z"/>
	<path class="st3" d="M417.6,564.4l0,0.7c0.5-0.6,1.1-0.8,1.8-0.8c1.3,0,2,0.8,2,2.3v4.2h-1.4v-4.1c0-0.4-0.1-0.7-0.3-0.9
		s-0.5-0.3-0.9-0.3c-0.6,0-1,0.3-1.3,0.8v4.5h-1.4v-6.3H417.6z"/>
	<path class="st3" d="M424.7,562.9v1.5h1.1v1.1h-1.1v3.5c0,0.2,0,0.4,0.1,0.5s0.3,0.2,0.5,0.2c0.2,0,0.3,0,0.5-0.1v1.1
		c-0.3,0.1-0.6,0.1-0.9,0.1c-1.1,0-1.6-0.6-1.6-1.8v-3.6h-1v-1.1h1v-1.5H424.7z"/>
	<path class="st3" d="M430.3,565.7c-0.2,0-0.4,0-0.6,0c-0.7,0-1.1,0.2-1.3,0.8v4.3h-1.4v-6.3h1.4l0,0.7c0.3-0.6,0.8-0.8,1.4-0.8
		c0.2,0,0.4,0,0.5,0.1L430.3,565.7z"/>
	<path class="st3" d="M434.8,570.8c-0.1-0.1-0.1-0.3-0.2-0.6c-0.5,0.5-1,0.7-1.7,0.7c-0.6,0-1.2-0.2-1.6-0.5s-0.6-0.8-0.6-1.3
		c0-0.7,0.3-1.2,0.8-1.6s1.2-0.5,2.2-0.5h0.9v-0.4c0-0.3-0.1-0.6-0.3-0.8s-0.5-0.3-0.8-0.3c-0.3,0-0.6,0.1-0.8,0.2s-0.3,0.4-0.3,0.6
		h-1.4c0-0.3,0.1-0.7,0.3-1s0.5-0.5,0.9-0.7s0.8-0.3,1.3-0.3c0.7,0,1.3,0.2,1.8,0.6s0.7,0.9,0.7,1.6v2.9c0,0.6,0.1,1,0.2,1.4v0.1
		H434.8z M433.2,569.7c0.3,0,0.5-0.1,0.8-0.2s0.4-0.3,0.6-0.6v-1.2h-0.8c-0.5,0-0.9,0.1-1.2,0.3s-0.4,0.4-0.4,0.8
		c0,0.3,0.1,0.5,0.3,0.7S432.9,569.7,433.2,569.7z"/>
	<path class="st3" d="M439.3,562.9v1.5h1.1v1.1h-1.1v3.5c0,0.2,0,0.4,0.1,0.5s0.3,0.2,0.5,0.2c0.2,0,0.3,0,0.5-0.1v1.1
		c-0.3,0.1-0.6,0.1-0.9,0.1c-1.1,0-1.6-0.6-1.6-1.8v-3.6h-1v-1.1h1v-1.5H439.3z"/>
	<path class="st3" d="M445.3,570.8c-0.1-0.1-0.1-0.3-0.2-0.6c-0.5,0.5-1,0.7-1.7,0.7c-0.6,0-1.2-0.2-1.6-0.5s-0.6-0.8-0.6-1.3
		c0-0.7,0.3-1.2,0.8-1.6s1.2-0.5,2.2-0.5h0.9v-0.4c0-0.3-0.1-0.6-0.3-0.8s-0.5-0.3-0.8-0.3c-0.3,0-0.6,0.1-0.8,0.2s-0.3,0.4-0.3,0.6
		h-1.4c0-0.3,0.1-0.7,0.3-1s0.5-0.5,0.9-0.7s0.8-0.3,1.3-0.3c0.7,0,1.3,0.2,1.8,0.6s0.7,0.9,0.7,1.6v2.9c0,0.6,0.1,1,0.2,1.4v0.1
		H445.3z M443.7,569.7c0.3,0,0.5-0.1,0.8-0.2s0.4-0.3,0.6-0.6v-1.2h-0.8c-0.5,0-0.9,0.1-1.2,0.3s-0.4,0.4-0.4,0.8
		c0,0.3,0.1,0.5,0.3,0.7S443.4,569.7,443.7,569.7z"/>
	<path class="st3" d="M447.7,567.5c0-1,0.2-1.8,0.7-2.4s1.1-0.9,1.8-0.9c0.7,0,1.2,0.2,1.6,0.7v-3.2h1.4v9H452l-0.1-0.7
		c-0.4,0.5-1,0.8-1.7,0.8c-0.7,0-1.3-0.3-1.8-0.9S447.7,568.6,447.7,567.5z M449.1,567.7c0,0.6,0.1,1.1,0.4,1.5s0.6,0.5,1.1,0.5
		c0.6,0,1-0.3,1.3-0.8v-2.7c-0.3-0.5-0.7-0.8-1.3-0.8c-0.5,0-0.8,0.2-1.1,0.5S449.1,566.9,449.1,567.7z"/>
	<path class="st3" d="M458.5,570.8c-0.1-0.1-0.1-0.3-0.2-0.6c-0.5,0.5-1,0.7-1.7,0.7c-0.6,0-1.2-0.2-1.6-0.5s-0.6-0.8-0.6-1.3
		c0-0.7,0.3-1.2,0.8-1.6s1.2-0.5,2.2-0.5h0.9v-0.4c0-0.3-0.1-0.6-0.3-0.8s-0.5-0.3-0.8-0.3c-0.3,0-0.6,0.1-0.8,0.2s-0.3,0.4-0.3,0.6
		h-1.4c0-0.3,0.1-0.7,0.3-1s0.5-0.5,0.9-0.7s0.8-0.3,1.3-0.3c0.7,0,1.3,0.2,1.8,0.6s0.7,0.9,0.7,1.6v2.9c0,0.6,0.1,1,0.2,1.4v0.1
		H458.5z M457,569.7c0.3,0,0.5-0.1,0.8-0.2s0.4-0.3,0.6-0.6v-1.2h-0.8c-0.5,0-0.9,0.1-1.2,0.3s-0.4,0.4-0.4,0.8
		c0,0.3,0.1,0.5,0.3,0.7S456.7,569.7,457,569.7z"/>
	<path class="st3" d="M467.9,567l-3.6-1.3v-1.4l5.1,2.2v1.1l-5.1,2.2v-1.4L467.9,567z"/>
	<path class="st3" d="M478.5,567.2h-3.4v3.6h-1.5v-8.5h5.4v1.2h-3.9v2.5h3.4V567.2z"/>
	<path class="st3" d="M483.6,570.8c-0.1-0.1-0.1-0.3-0.2-0.6c-0.5,0.5-1,0.7-1.7,0.7c-0.6,0-1.2-0.2-1.6-0.5s-0.6-0.8-0.6-1.3
		c0-0.7,0.3-1.2,0.8-1.6s1.2-0.5,2.2-0.5h0.9v-0.4c0-0.3-0.1-0.6-0.3-0.8s-0.5-0.3-0.8-0.3c-0.3,0-0.6,0.1-0.8,0.2s-0.3,0.4-0.3,0.6
		h-1.4c0-0.3,0.1-0.7,0.3-1s0.5-0.5,0.9-0.7s0.8-0.3,1.3-0.3c0.7,0,1.3,0.2,1.8,0.6s0.7,0.9,0.7,1.6v2.9c0,0.6,0.1,1,0.2,1.4v0.1
		H483.6z M482.1,569.7c0.3,0,0.5-0.1,0.8-0.2s0.4-0.3,0.6-0.6v-1.2h-0.8c-0.5,0-0.9,0.1-1.2,0.3s-0.4,0.4-0.4,0.8
		c0,0.3,0.1,0.5,0.3,0.7S481.8,569.7,482.1,569.7z"/>
	<path class="st3" d="M487.7,564.4l0,0.7c0.4-0.5,1.1-0.8,1.8-0.8c0.8,0,1.4,0.3,1.7,1c0.5-0.6,1.1-1,1.9-1c0.7,0,1.2,0.2,1.6,0.6
		s0.5,1,0.5,1.7v4.2h-1.4v-4.1c0-0.4-0.1-0.7-0.3-0.9s-0.5-0.3-0.9-0.3c-0.3,0-0.6,0.1-0.8,0.3s-0.3,0.4-0.4,0.7l0,4.3h-1.4v-4.2
		c0-0.7-0.4-1.1-1.1-1.1c-0.6,0-1,0.2-1.2,0.7v4.6h-1.4v-6.3H487.7z"/>
	<path class="st3" d="M496.8,562.8c0-0.2,0.1-0.4,0.2-0.5s0.3-0.2,0.6-0.2s0.5,0.1,0.6,0.2s0.2,0.3,0.2,0.5c0,0.2-0.1,0.4-0.2,0.5
		s-0.3,0.2-0.6,0.2s-0.5-0.1-0.6-0.2S496.8,563,496.8,562.8z M498.3,570.8h-1.4v-6.3h1.4V570.8z"/>
	<path class="st3" d="M501.4,570.8h-1.4v-9h1.4V570.8z"/>
	<path class="st3" d="M502.9,562.8c0-0.2,0.1-0.4,0.2-0.5s0.3-0.2,0.6-0.2s0.5,0.1,0.6,0.2s0.2,0.3,0.2,0.5c0,0.2-0.1,0.4-0.2,0.5
		s-0.3,0.2-0.6,0.2s-0.5-0.1-0.6-0.2S502.9,563,502.9,562.8z M504.4,570.8H503v-6.3h1.4V570.8z"/>
	<path class="st3" d="M509.8,570.8c-0.1-0.1-0.1-0.3-0.2-0.6c-0.5,0.5-1,0.7-1.7,0.7c-0.6,0-1.2-0.2-1.6-0.5s-0.6-0.8-0.6-1.3
		c0-0.7,0.3-1.2,0.8-1.6s1.2-0.5,2.2-0.5h0.9v-0.4c0-0.3-0.1-0.6-0.3-0.8s-0.5-0.3-0.8-0.3c-0.3,0-0.6,0.1-0.8,0.2s-0.3,0.4-0.3,0.6
		h-1.4c0-0.3,0.1-0.7,0.3-1s0.5-0.5,0.9-0.7s0.8-0.3,1.3-0.3c0.7,0,1.3,0.2,1.8,0.6s0.7,0.9,0.7,1.6v2.9c0,0.6,0.1,1,0.2,1.4v0.1
		H509.8z M508.2,569.7c0.3,0,0.5-0.1,0.8-0.2s0.4-0.3,0.6-0.6v-1.2h-0.8c-0.5,0-0.9,0.1-1.2,0.3s-0.4,0.4-0.4,0.8
		c0,0.3,0.1,0.5,0.3,0.7S507.9,569.7,508.2,569.7z"/>
	<path class="st3" d="M515.8,565.7c-0.2,0-0.4,0-0.6,0c-0.7,0-1.1,0.2-1.3,0.8v4.3h-1.4v-6.3h1.4l0,0.7c0.3-0.6,0.8-0.8,1.4-0.8
		c0.2,0,0.4,0,0.5,0.1L515.8,565.7z"/>
</g>
</svg>
