<?xml version="1.0" encoding="utf-8"?>
<!-- Generator: Adobe Illustrator 24.3.0, SVG Export Plug-In . SVG Version: 6.00 Build 0)  -->
<svg version="1.1" id="Layer_1" xmlns="http://www.w3.org/2000/svg" xmlns:xlink="http://www.w3.org/1999/xlink" x="0px" y="0px"
	 viewBox="0 0 592.3 264.8" style="enable-background:new 0 0 592.3 264.8;" xml:space="preserve">
<style type="text/css">
	.st0{fill:none;stroke:#000000;stroke-miterlimit:10;}
	.st1{fill:#FF8A8A;stroke:#FFFFFF;stroke-miterlimit:10;}
	.st2{fill:#E00B17;stroke:#FFFFFF;stroke-miterlimit:10;}
	.st3{fill:#9C1C1F;stroke:#FFFFFF;stroke-miterlimit:10;}
	.st4{stroke:#FFFFFF;stroke-miterlimit:9.9999;}
	.st5{fill:none;stroke:#000000;stroke-width:0.5;stroke-miterlimit:10;stroke-dasharray:2;}
</style>
<line class="st0" x1="145.7" y1="53.1" x2="583.3" y2="53.1"/>
<line class="st0" x1="145.7" y1="174.9" x2="583.3" y2="174.9"/>
<g>
	<path d="M79.6,52.7c0,0.9-0.2,1.7-0.5,2.4s-0.8,1.2-1.4,1.6c-0.6,0.4-1.3,0.6-2.1,0.6c-0.8,0-1.4-0.2-2.1-0.6s-1.1-0.9-1.4-1.6
		c-0.3-0.7-0.5-1.5-0.5-2.4v-0.5c0-0.9,0.2-1.7,0.5-2.4s0.8-1.2,1.4-1.6c0.6-0.4,1.3-0.6,2.1-0.6s1.5,0.2,2.1,0.6
		c0.6,0.4,1.1,0.9,1.4,1.6c0.3,0.7,0.5,1.5,0.5,2.4V52.7z M77.7,52.2c0-1-0.2-1.7-0.5-2.2s-0.8-0.8-1.5-0.8c-0.6,0-1.1,0.2-1.5,0.7
		c-0.3,0.5-0.5,1.2-0.5,2.2v0.5c0,0.9,0.2,1.7,0.5,2.2s0.8,0.8,1.5,0.8c0.6,0,1.1-0.3,1.5-0.8c0.3-0.5,0.5-1.2,0.5-2.2V52.2z"/>
	<path d="M84.4,53.7h-1.5v3.4H81v-9.2h3.4c1.1,0,1.9,0.2,2.5,0.7s0.9,1.2,0.9,2.1c0,0.6-0.1,1.2-0.4,1.6c-0.3,0.4-0.7,0.8-1.2,1
		l2,3.8v0.1h-2L84.4,53.7z M82.9,52.1h1.5c0.5,0,0.8-0.1,1.1-0.4c0.3-0.2,0.4-0.6,0.4-1s-0.1-0.8-0.4-1c-0.2-0.2-0.6-0.4-1.1-0.4
		h-1.5V52.1z"/>
	<path d="M96.6,55.9c-0.3,0.4-0.8,0.7-1.5,1c-0.6,0.2-1.3,0.3-2.1,0.3c-0.8,0-1.5-0.2-2.1-0.5s-1.1-0.9-1.4-1.5
		c-0.3-0.7-0.5-1.4-0.5-2.3v-0.6c0-0.9,0.2-1.7,0.5-2.4s0.8-1.2,1.3-1.5c0.6-0.4,1.3-0.5,2.1-0.5c1.1,0,2,0.3,2.6,0.8s1,1.3,1.1,2.3
		h-1.9c-0.1-0.5-0.3-0.9-0.6-1.2c-0.3-0.2-0.7-0.4-1.2-0.4c-0.6,0-1.1,0.2-1.5,0.7s-0.4,1.1-0.4,2v0.6c0,1,0.2,1.7,0.6,2.2
		s0.9,0.7,1.6,0.7s1.2-0.2,1.5-0.5v-1.6H93v-1.4h3.6V55.9z"/>
	<path d="M103.4,55.2H100l-0.6,1.9h-2l3.4-9.2h1.8l3.5,9.2h-2L103.4,55.2z M104.1,47.1L104.1,47.1l-1.5,0.1l-1-0.9l-1,0.9h-1.4v-0.1
		l1.9-1.7h1.1L104.1,47.1z M100.5,53.6h2.3l-1.2-3.5L100.5,53.6z"/>
	<path d="M114.4,57.1h-1.9l-3.7-6.1v6.1h-1.9v-9.2h1.9l3.7,6.1v-6.1h1.9V57.1z"/>
	<path d="M118.1,57.1h-1.9v-9.2h1.9V57.1z"/>
	<path d="M127.1,54c-0.1,1-0.4,1.8-1.1,2.3c-0.7,0.6-1.5,0.9-2.6,0.9c-1.2,0-2.1-0.4-2.8-1.2c-0.7-0.8-1-1.9-1-3.3v-0.6
		c0-0.9,0.2-1.7,0.5-2.3s0.8-1.2,1.3-1.6c0.6-0.4,1.3-0.5,2-0.5c1.1,0,1.9,0.3,2.6,0.9s1,1.4,1.1,2.4h-1.9c0-0.6-0.2-1-0.5-1.3
		s-0.7-0.4-1.3-0.4c-0.6,0-1.1,0.2-1.4,0.7s-0.5,1.2-0.5,2.1v0.7c0,1,0.2,1.7,0.5,2.2s0.8,0.7,1.4,0.7s1-0.1,1.3-0.4
		c0.3-0.3,0.5-0.7,0.5-1.2h1.9V54z"/>
	<path d="M136,52.7c0,0.9-0.2,1.7-0.5,2.4s-0.8,1.2-1.4,1.6c-0.6,0.4-1.3,0.6-2.1,0.6s-1.4-0.2-2.1-0.6s-1.1-0.9-1.4-1.6
		c-0.3-0.7-0.5-1.5-0.5-2.4v-0.5c0-0.9,0.2-1.7,0.5-2.4s0.8-1.2,1.4-1.6c0.6-0.4,1.3-0.6,2.1-0.6s1.5,0.2,2.1,0.6
		c0.6,0.4,1.1,0.9,1.4,1.6c0.3,0.7,0.5,1.5,0.5,2.4V52.7z M134,52.2c0-1-0.2-1.7-0.5-2.2s-0.8-0.8-1.5-0.8c-0.6,0-1.1,0.2-1.5,0.7
		c-0.3,0.5-0.5,1.2-0.5,2.2v0.5c0,0.9,0.2,1.7,0.5,2.2s0.8,0.8,1.5,0.8c0.6,0,1.1-0.3,1.5-0.8c0.3-0.5,0.5-1.2,0.5-2.2V52.2z"/>
</g>
<g>
	<path d="M241.5,85.6h-1.8v-7.1l-2.2,0.7v-1.5l3.8-1.4h0.2V85.6z"/>
	<path d="M245.1,87.9l-1-0.5l0.2-0.4c0.3-0.5,0.4-1,0.4-1.5v-1.4h1.5v1.3c0,0.5-0.1,0.9-0.4,1.4C245.7,87.2,245.4,87.6,245.1,87.9z"
		/>
	<path d="M253.9,81.8c0,1.3-0.3,2.3-0.8,2.9c-0.5,0.7-1.3,1-2.3,1s-1.8-0.3-2.3-1s-0.8-1.6-0.8-2.9v-1.7c0-1.3,0.3-2.3,0.8-2.9
		s1.3-1,2.3-1s1.8,0.3,2.3,1s0.8,1.6,0.8,2.9V81.8z M252.1,79.9c0-0.8-0.1-1.3-0.3-1.7c-0.2-0.3-0.5-0.5-1-0.5c-0.4,0-0.8,0.2-1,0.5
		s-0.3,0.9-0.3,1.6V82c0,0.8,0.1,1.3,0.3,1.7c0.2,0.4,0.5,0.5,1,0.5c0.4,0,0.8-0.2,1-0.5c0.2-0.4,0.3-0.9,0.3-1.6V79.9z"/>
</g>
<g>
	<path d="M241.5,206.7h-1.8v-7.1l-2.2,0.7v-1.5l3.8-1.4h0.2V206.7z"/>
	<path d="M245.1,209l-1-0.5l0.2-0.4c0.3-0.5,0.4-1,0.4-1.5v-1.4h1.5v1.3c0,0.5-0.1,0.9-0.4,1.4C245.7,208.3,245.4,208.7,245.1,209z"
		/>
	<path d="M253.9,202.8c0,1.3-0.3,2.3-0.8,2.9c-0.5,0.7-1.3,1-2.3,1s-1.8-0.3-2.3-1s-0.8-1.6-0.8-2.9v-1.7c0-1.3,0.3-2.3,0.8-2.9
		c0.5-0.7,1.3-1,2.3-1s1.8,0.3,2.3,1s0.8,1.6,0.8,2.9V202.8z M252.1,201c0-0.8-0.1-1.3-0.3-1.7c-0.2-0.3-0.5-0.5-1-0.5
		c-0.4,0-0.8,0.2-1,0.5s-0.3,0.9-0.3,1.6v2.2c0,0.8,0.1,1.3,0.3,1.7s0.5,0.5,1,0.5c0.4,0,0.8-0.2,1-0.5c0.2-0.4,0.3-0.9,0.3-1.6V201
		z"/>
</g>
<g>
	<path d="M192.8,202.8c0,1.3-0.3,2.3-0.8,2.9c-0.5,0.7-1.3,1-2.3,1s-1.8-0.3-2.3-1s-0.8-1.6-0.8-2.9v-1.7c0-1.3,0.3-2.3,0.8-2.9
		c0.5-0.7,1.3-1,2.3-1s1.8,0.3,2.3,1s0.8,1.6,0.8,2.9V202.8z M190.9,201c0-0.8-0.1-1.3-0.3-1.7c-0.2-0.3-0.5-0.5-1-0.5
		c-0.4,0-0.8,0.2-1,0.5s-0.3,0.9-0.3,1.6v2.2c0,0.8,0.1,1.3,0.3,1.7s0.5,0.5,1,0.5c0.4,0,0.8-0.2,1-0.5c0.2-0.4,0.3-0.9,0.3-1.6V201
		z"/>
	<path d="M194.6,209l-1-0.5l0.2-0.4c0.3-0.5,0.4-1,0.4-1.5v-1.4h1.5v1.3c0,0.5-0.1,0.9-0.4,1.4C195.2,208.3,194.9,208.7,194.6,209z"
		/>
	<path d="M197.4,202.1l0.5-4.7h5.2v1.5h-3.7l-0.2,2c0.4-0.2,0.9-0.3,1.4-0.3c0.9,0,1.6,0.3,2.1,0.8s0.7,1.3,0.7,2.3
		c0,0.6-0.1,1.1-0.4,1.6c-0.3,0.5-0.6,0.8-1.1,1.1s-1,0.4-1.7,0.4c-0.6,0-1.1-0.1-1.6-0.3s-0.9-0.5-1.1-1c-0.3-0.4-0.4-0.9-0.4-1.4
		h1.8c0,0.4,0.2,0.7,0.4,0.9s0.5,0.3,0.9,0.3s0.7-0.1,1-0.4c0.2-0.3,0.3-0.7,0.3-1.3c0-0.5-0.1-0.9-0.4-1.2
		c-0.3-0.3-0.6-0.4-1.1-0.4c-0.4,0-0.8,0.1-1.1,0.3l-0.2,0.2L197.4,202.1z"/>
</g>
<g>
	<path d="M342.9,85.3h-6.3V84l3-3.2c0.4-0.4,0.7-0.8,0.9-1.2c0.2-0.3,0.3-0.7,0.3-1c0-0.4-0.1-0.7-0.3-1c-0.2-0.2-0.5-0.4-0.9-0.4
		s-0.7,0.1-1,0.4c-0.2,0.3-0.4,0.7-0.4,1.1h-1.8c0-0.6,0.1-1.1,0.4-1.5s0.6-0.8,1.1-1.1c0.5-0.3,1-0.4,1.7-0.4c1,0,1.7,0.2,2.2,0.7
		s0.8,1.1,0.8,1.9c0,0.5-0.1,0.9-0.4,1.4c-0.2,0.5-0.6,1-1.2,1.7l-2.1,2.2h4L342.9,85.3L342.9,85.3z"/>
	<path d="M344.5,87.6l-1-0.5l0.2-0.4c0.3-0.5,0.4-1,0.4-1.5v-1.4h1.5v1.3c0,0.5-0.1,0.9-0.4,1.4C345.2,86.9,344.9,87.3,344.5,87.6z"
		/>
	<path d="M353.4,81.4c0,1.3-0.3,2.3-0.8,2.9c-0.5,0.7-1.3,1-2.3,1s-1.8-0.3-2.3-1s-0.8-1.6-0.8-2.9v-1.7c0-1.3,0.3-2.3,0.8-2.9
		c0.5-0.7,1.3-1,2.3-1s1.8,0.3,2.3,1s0.8,1.6,0.8,2.9V81.4z M351.5,79.6c0-0.8-0.1-1.3-0.3-1.7c-0.2-0.3-0.5-0.5-1-0.5
		c-0.4,0-0.8,0.2-1,0.5s-0.3,0.9-0.3,1.6v2.2c0,0.8,0.1,1.3,0.3,1.7c0.2,0.4,0.5,0.5,1,0.5c0.4,0,0.8-0.2,1-0.5
		c0.2-0.4,0.3-0.9,0.3-1.6V79.6z"/>
</g>
<g>
	<path d="M437.1,79.8h1c0.5,0,0.8-0.1,1-0.3c0.2-0.2,0.3-0.5,0.3-0.9s-0.1-0.7-0.3-0.9c-0.2-0.2-0.5-0.3-0.9-0.3s-0.6,0.1-0.9,0.3
		c-0.2,0.2-0.4,0.4-0.4,0.8h-1.8c0-0.5,0.1-0.9,0.4-1.3s0.6-0.7,1.1-0.9c0.5-0.2,1-0.3,1.5-0.3c1,0,1.7,0.2,2.3,0.7
		c0.6,0.5,0.8,1.1,0.8,1.9c0,0.4-0.1,0.8-0.4,1.2c-0.3,0.4-0.6,0.6-1,0.8c0.5,0.2,0.9,0.5,1.2,0.8s0.4,0.8,0.4,1.3
		c0,0.8-0.3,1.5-0.9,2s-1.4,0.7-2.4,0.7c-0.9,0-1.7-0.2-2.3-0.7s-0.9-1.1-0.9-1.9h1.8c0,0.3,0.1,0.6,0.4,0.9c0.3,0.2,0.6,0.3,1,0.3
		s0.8-0.1,1-0.3c0.2-0.2,0.4-0.5,0.4-0.9c0-0.9-0.5-1.4-1.5-1.4h-1L437.1,79.8L437.1,79.8z"/>
	<path d="M443.3,87.6l-1-0.5l0.2-0.4c0.3-0.5,0.4-1,0.4-1.5v-1.4h1.5v1.3c0,0.5-0.1,0.9-0.4,1.4C443.9,86.9,443.6,87.3,443.3,87.6z"
		/>
	<path d="M452.1,81.4c0,1.3-0.3,2.3-0.8,2.9c-0.5,0.7-1.3,1-2.3,1s-1.8-0.3-2.3-1s-0.8-1.6-0.8-2.9v-1.7c0-1.3,0.3-2.3,0.8-2.9
		s1.3-1,2.3-1s1.8,0.3,2.3,1s0.8,1.6,0.8,2.9V81.4z M450.3,79.6c0-0.8-0.1-1.3-0.3-1.7c-0.2-0.3-0.5-0.5-1-0.5c-0.4,0-0.8,0.2-1,0.5
		s-0.3,0.9-0.3,1.6v2.2c0,0.8,0.1,1.3,0.3,1.7c0.2,0.4,0.5,0.5,1,0.5c0.4,0,0.8-0.2,1-0.5c0.2-0.4,0.3-0.9,0.3-1.6V79.6z"/>
</g>
<g>
	<path d="M540.5,81.8h1v1.5h-1v2h-1.8v-2h-3.8l-0.1-1.2l3.9-6.1h1.9v5.8H540.5z M536.6,81.8h2v-3.3l-0.1,0.2L536.6,81.8z"/>
	<path d="M543.1,87.6l-1-0.5l0.2-0.4c0.3-0.5,0.4-1,0.4-1.5v-1.4h1.5v1.3c0,0.5-0.1,0.9-0.4,1.4C543.7,86.9,543.4,87.3,543.1,87.6z"
		/>
	<path d="M551.9,81.4c0,1.3-0.3,2.3-0.8,2.9c-0.5,0.7-1.3,1-2.3,1s-1.8-0.3-2.3-1s-0.8-1.6-0.8-2.9v-1.7c0-1.3,0.3-2.3,0.8-2.9
		c0.5-0.7,1.3-1,2.3-1s1.8,0.3,2.3,1s0.8,1.6,0.8,2.9V81.4z M550.1,79.6c0-0.8-0.1-1.3-0.3-1.7c-0.2-0.3-0.5-0.5-1-0.5
		c-0.4,0-0.8,0.2-1,0.5s-0.3,0.9-0.3,1.6v2.2c0,0.8,0.1,1.3,0.3,1.7c0.2,0.4,0.5,0.5,1,0.5c0.4,0,0.8-0.2,1-0.5
		c0.2-0.4,0.3-0.9,0.3-1.6V79.6z"/>
</g>
<g>
	<path d="M342.9,206.7h-6.3v-1.3l3-3.2c0.4-0.4,0.7-0.8,0.9-1.2c0.2-0.3,0.3-0.7,0.3-1c0-0.4-0.1-0.7-0.3-1
		c-0.2-0.2-0.5-0.4-0.9-0.4s-0.7,0.1-1,0.4c-0.2,0.3-0.4,0.7-0.4,1.1h-1.8c0-0.6,0.1-1.1,0.4-1.5c0.3-0.5,0.6-0.8,1.1-1.1
		s1-0.4,1.7-0.4c1,0,1.7,0.2,2.2,0.7s0.8,1.1,0.8,1.9c0,0.5-0.1,0.9-0.4,1.4c-0.2,0.5-0.6,1-1.2,1.7l-2.1,2.2h4L342.9,206.7
		L342.9,206.7z"/>
	<path d="M344.5,209l-1-0.5l0.2-0.4c0.3-0.5,0.4-1,0.4-1.5v-1.4h1.5v1.3c0,0.5-0.1,0.9-0.4,1.4C345.2,208.3,344.9,208.7,344.5,209z"
		/>
	<path d="M353.4,202.8c0,1.3-0.3,2.3-0.8,2.9c-0.5,0.7-1.3,1-2.3,1s-1.8-0.3-2.3-1s-0.8-1.6-0.8-2.9v-1.7c0-1.3,0.3-2.3,0.8-2.9
		c0.5-0.7,1.3-1,2.3-1s1.8,0.3,2.3,1s0.8,1.6,0.8,2.9V202.8z M351.5,201c0-0.8-0.1-1.3-0.3-1.7c-0.2-0.3-0.5-0.5-1-0.5
		c-0.4,0-0.8,0.2-1,0.5s-0.3,0.9-0.3,1.6v2.2c0,0.8,0.1,1.3,0.3,1.7c0.2,0.4,0.5,0.5,1,0.5c0.4,0,0.8-0.2,1-0.5
		c0.2-0.4,0.3-0.9,0.3-1.6V201z"/>
</g>
<g>
	<path d="M46.6,175.9c-0.1,1-0.4,1.8-1.1,2.3c-0.7,0.6-1.5,0.9-2.6,0.9c-1.2,0-2.1-0.4-2.8-1.2s-1-1.9-1-3.3V174
		c0-0.9,0.2-1.7,0.5-2.3s0.8-1.2,1.3-1.6c0.6-0.4,1.3-0.5,2-0.5c1.1,0,1.9,0.3,2.6,0.9s1,1.4,1.1,2.4h-1.9c0-0.6-0.2-1-0.5-1.3
		s-0.7-0.4-1.3-0.4s-1.1,0.2-1.4,0.7c-0.3,0.5-0.5,1.2-0.5,2.1v0.7c0,1,0.2,1.7,0.5,2.2s0.8,0.7,1.4,0.7c0.6,0,1-0.1,1.3-0.4
		c0.3-0.3,0.5-0.7,0.5-1.2L46.6,175.9L46.6,175.9z"/>
	<path d="M55.4,174.5c0,0.9-0.2,1.7-0.5,2.4s-0.8,1.2-1.4,1.6c-0.6,0.4-1.3,0.6-2.1,0.6s-1.4-0.2-2.1-0.6s-1.1-0.9-1.4-1.6
		c-0.3-0.7-0.5-1.5-0.5-2.4V174c0-0.9,0.2-1.7,0.5-2.4s0.8-1.2,1.4-1.6c0.6-0.4,1.3-0.6,2.1-0.6s1.5,0.2,2.1,0.6
		c0.6,0.4,1.1,0.9,1.4,1.6c0.3,0.7,0.5,1.5,0.5,2.4V174.5z M53.5,174.1c0-1-0.2-1.7-0.5-2.2s-0.8-0.8-1.5-0.8
		c-0.6,0-1.1,0.2-1.5,0.7c-0.3,0.5-0.5,1.2-0.5,2.2v0.5c0,0.9,0.2,1.7,0.5,2.2s0.8,0.8,1.5,0.8c0.6,0,1.1-0.3,1.5-0.8
		c0.3-0.5,0.5-1.2,0.5-2.2V174.1z"/>
	<path d="M64.3,178.9h-1.9l-3.7-6.1v6.1h-1.9v-9.2h1.9l3.7,6.1v-6.1h1.9V178.9z"/>
	<path d="M69.4,176.6l2.1-7h2.1l-3.2,9.2h-2l-3.2-9.2h2.1L69.4,176.6z"/>
	<path d="M80.1,174.9h-3.7v2.5h4.3v1.5h-6.2v-9.2h6.2v1.5h-4.3v2.2h3.7V174.9z"/>
	<path d="M89.3,178.9h-1.9l-3.7-6.1v6.1h-1.9v-9.2h1.9l3.7,6.1v-6.1h1.9V178.9z"/>
	<path d="M98.2,175.9c-0.1,1-0.4,1.8-1.1,2.3c-0.7,0.6-1.5,0.9-2.6,0.9c-1.2,0-2.1-0.4-2.8-1.2c-0.7-0.8-1-1.9-1-3.3V174
		c0-0.9,0.2-1.7,0.5-2.3s0.8-1.2,1.3-1.6c0.6-0.4,1.3-0.5,2-0.5c1.1,0,1.9,0.3,2.6,0.9s1,1.4,1.1,2.4h-1.9c0-0.6-0.2-1-0.5-1.3
		s-0.7-0.4-1.3-0.4c-0.6,0-1.1,0.2-1.4,0.7s-0.5,1.2-0.5,2.1v0.7c0,1,0.2,1.7,0.5,2.2s0.8,0.7,1.4,0.7s1-0.1,1.3-0.4
		c0.3-0.3,0.5-0.7,0.5-1.2L98.2,175.9L98.2,175.9z"/>
	<path d="M101.5,178.9h-1.9v-9.2h1.9V178.9z"/>
	<path d="M110.9,174.5c0,0.9-0.2,1.7-0.5,2.4s-0.8,1.2-1.4,1.6c-0.6,0.4-1.3,0.6-2.1,0.6c-0.8,0-1.4-0.2-2.1-0.6s-1.1-0.9-1.4-1.6
		c-0.3-0.7-0.5-1.5-0.5-2.4V174c0-0.9,0.2-1.7,0.5-2.4s0.8-1.2,1.4-1.6c0.6-0.4,1.3-0.6,2.1-0.6s1.5,0.2,2.1,0.6
		c0.6,0.4,1.1,0.9,1.4,1.6c0.3,0.7,0.5,1.5,0.5,2.4V174.5z M108.9,174.1c0-1-0.2-1.7-0.5-2.2s-0.8-0.8-1.5-0.8
		c-0.6,0-1.1,0.2-1.5,0.7c-0.3,0.5-0.5,1.2-0.5,2.2v0.5c0,0.9,0.2,1.7,0.5,2.2s0.8,0.8,1.5,0.8c0.6,0,1.1-0.3,1.5-0.8
		c0.3-0.5,0.5-1.2,0.5-2.2V174.1z"/>
	<path d="M119.8,178.9h-1.9l-3.7-6.1v6.1h-1.9v-9.2h1.9l3.7,6.1v-6.1h1.9V178.9z"/>
	<path d="M126.8,177h-3.3l-0.6,1.9h-2l3.4-9.2h1.8l3.5,9.2h-2L126.8,177z M123.9,175.5h2.3L125,172L123.9,175.5z"/>
	<path d="M132.2,177.4h4v1.5h-5.9v-9.2h1.9V177.4z"/>
</g>
<g>
	<path d="M228.5,129c-0.1,0.8-0.4,1.4-0.8,1.8s-1.1,0.6-1.9,0.6c-0.6,0-1.1-0.1-1.5-0.4c-0.4-0.3-0.8-0.7-1-1.1s-0.4-1.1-0.4-1.7
		v-0.7c0-0.7,0.1-1.3,0.4-1.8c0.2-0.5,0.6-0.9,1-1.2s1-0.4,1.5-0.4c0.8,0,1.4,0.2,1.9,0.6s0.8,1,0.8,1.8h-1.2
		c-0.1-0.5-0.2-0.9-0.4-1.1s-0.6-0.3-1.1-0.3s-1,0.2-1.2,0.6s-0.4,1-0.4,1.7v0.6c0,0.8,0.1,1.4,0.4,1.8c0.3,0.4,0.7,0.6,1.2,0.6
		s0.8-0.1,1.1-0.3s0.4-0.6,0.5-1.1L228.5,129L228.5,129z"/>
	<path d="M232.6,131.3h-1.2v-5.7l-1.7,0.6v-1l2.8-1h0.2v7.1H232.6z"/>
</g>
<circle class="st1" cx="245" cy="53.1" r="9.6"/>
<circle class="st1" cx="195.3" cy="174.9" r="9.6"/>
<circle class="st1" cx="153.2" cy="254.2" r="9.6"/>
<circle class="st2" cx="245" cy="174.9" r="9.6"/>
<circle class="st3" cx="344.4" cy="174.9" r="9.6"/>
<circle class="st2" cx="344.4" cy="53.1" r="9.6"/>
<circle class="st3" cx="543.3" cy="53.1" r="9.6"/>
<rect x="430.5" y="47.5" transform="matrix(0.7071 -0.7071 0.7071 0.7071 90.1845 323.8881)" class="st4" width="11.1" height="11.1"/>
<rect x="214.6" y="169.4" transform="matrix(0.7071 -0.7071 0.7071 0.7071 -59.2468 206.9099)" class="st4" width="11.1" height="11.1"/>
<rect x="459.4" y="249.3" transform="matrix(0.7071 -0.7071 0.7071 0.7071 -43.9919 403.4211)" class="st4" width="11.1" height="11.1"/>
<rect x="446.2" y="47.5" transform="matrix(0.7071 -0.7071 0.7071 0.7071 94.7945 334.9896)" class="st4" width="11.1" height="11.1"/>
<rect x="550" y="47.5" transform="matrix(0.7071 -0.7071 0.7071 0.7071 125.2052 408.3865)" class="st4" width="11.1" height="11.1"/>
<line class="st5" x1="220.1" y1="161.8" x2="220.1" y2="123.8"/>
<g>
	<path d="M443.4,6.2C443.3,7,443,7.6,442.6,8c-0.4,0.4-1.1,0.6-1.9,0.6c-0.6,0-1.1-0.1-1.5-0.4c-0.4-0.3-0.8-0.7-1-1.1
		s-0.4-1.1-0.4-1.7V4.7c0-0.7,0.1-1.3,0.4-1.8c0.2-0.5,0.6-0.9,1-1.2s1-0.4,1.5-0.4c0.8,0,1.4,0.2,1.9,0.6s0.8,1,0.8,1.8h-1.2
		c-0.1-0.5-0.2-0.9-0.4-1.1s-0.6-0.3-1.1-0.3s-0.9,0.2-1.2,0.6s-0.4,1-0.4,1.7v0.6c0,0.8,0.1,1.4,0.4,1.8c0.3,0.4,0.7,0.6,1.2,0.6
		s0.8-0.1,1.1-0.3s0.4-0.6,0.5-1.1H443.4z"/>
	<path d="M448.3,6h0.9v1h-0.9v1.6h-1.2V7H444V6.3l3.1-4.8h1.2V6z M445.3,6h1.9V3l-0.1,0.2L445.3,6z"/>
</g>
<g>
	<path d="M96.8,256.5h3.2v1h-4.5v-7.1h1.2v6.1H96.8z"/>
	<path d="M103.2,257.5c-0.8,0-1.4-0.2-1.8-0.7s-0.7-1.1-0.7-1.9v-0.1c0-0.5,0.1-1,0.3-1.4s0.5-0.7,0.9-1c0.4-0.2,0.8-0.3,1.2-0.3
		c0.7,0,1.3,0.2,1.7,0.7s0.6,1.1,0.6,1.9v0.5h-3.5c0,0.4,0.2,0.8,0.4,1c0.2,0.2,0.6,0.4,1,0.4c0.5,0,1-0.2,1.3-0.7l0.6,0.6
		c-0.2,0.3-0.5,0.6-0.8,0.7C104.1,257.5,103.7,257.5,103.2,257.5z M103.1,253c-0.3,0-0.6,0.1-0.8,0.3c-0.2,0.2-0.3,0.5-0.4,1h2.3
		v-0.1c0-0.4-0.1-0.7-0.3-0.9C103.7,253.1,103.4,253,103.1,253z"/>
	<path d="M106.1,254.8c0-0.8,0.2-1.5,0.6-2s0.9-0.7,1.5-0.7s1.1,0.2,1.4,0.6l0.1-0.5h1.1v5.1c0,0.7-0.2,1.2-0.6,1.6s-1,0.6-1.7,0.6
		c-0.4,0-0.8-0.1-1.1-0.2s-0.7-0.4-0.8-0.6l0.6-0.7c0.4,0.4,0.8,0.6,1.3,0.6c0.4,0,0.7-0.1,0.9-0.3c0.2-0.2,0.3-0.5,0.3-0.9V257
		c-0.3,0.4-0.8,0.6-1.4,0.6s-1.1-0.2-1.5-0.7C106.2,256.3,106.1,255.6,106.1,254.8z M107.2,254.9c0,0.5,0.1,0.9,0.3,1.3
		c0.2,0.3,0.5,0.5,0.9,0.5c0.5,0,0.8-0.2,1.1-0.6v-2.3c-0.2-0.4-0.6-0.6-1.1-0.6c-0.4,0-0.7,0.2-0.9,0.5
		C107.3,253.8,107.2,254.3,107.2,254.9z"/>
	<path d="M114.3,257.5c-0.8,0-1.4-0.2-1.8-0.7s-0.7-1.1-0.7-1.9v-0.1c0-0.5,0.1-1,0.3-1.4s0.5-0.7,0.9-1c0.4-0.2,0.8-0.3,1.2-0.3
		c0.7,0,1.3,0.2,1.7,0.7s0.6,1.1,0.6,1.9v0.5H113c0,0.4,0.2,0.8,0.4,1c0.2,0.2,0.6,0.4,1,0.4c0.5,0,1-0.2,1.3-0.7l0.6,0.6
		c-0.2,0.3-0.5,0.6-0.8,0.7C115.1,257.5,114.7,257.5,114.3,257.5z M114.1,253c-0.3,0-0.6,0.1-0.8,0.3c-0.2,0.2-0.3,0.5-0.4,1h2.3
		v-0.1c0-0.4-0.1-0.7-0.3-0.9C114.7,253.1,114.4,253,114.1,253z"/>
	<path d="M118.4,252.2v0.6c0.4-0.5,0.9-0.7,1.5-0.7c1.1,0,1.7,0.6,1.7,1.9v3.5h-1.2V254c0-0.3-0.1-0.6-0.2-0.7s-0.4-0.2-0.7-0.2
		c-0.5,0-0.8,0.2-1.1,0.6v3.8h-1.2v-5.3H118.4z"/>
	<path d="M122.6,254.8c0-0.8,0.2-1.5,0.6-2s0.9-0.7,1.5-0.7s1,0.2,1.4,0.6V250h1.2v7.5h-1.1l-0.1-0.5c-0.4,0.4-0.8,0.6-1.4,0.6
		s-1.1-0.2-1.5-0.7S122.6,255.6,122.6,254.8z M123.8,254.9c0,0.5,0.1,1,0.3,1.3c0.2,0.3,0.5,0.5,0.9,0.5c0.5,0,0.8-0.2,1.1-0.6v-2.3
		c-0.2-0.4-0.6-0.6-1.1-0.6c-0.4,0-0.7,0.2-0.9,0.5C123.9,253.8,123.8,254.3,123.8,254.9z"/>
	<path d="M131.7,257.4c-0.1-0.1-0.1-0.3-0.1-0.5c-0.4,0.4-0.8,0.6-1.4,0.6c-0.5,0-1-0.2-1.3-0.5s-0.5-0.7-0.5-1.1
		c0-0.6,0.2-1,0.6-1.3c0.4-0.3,1-0.5,1.8-0.5h0.7v-0.3c0-0.3-0.1-0.5-0.2-0.7c-0.2-0.2-0.4-0.2-0.7-0.2s-0.5,0.1-0.7,0.2
		c-0.2,0.1-0.3,0.3-0.3,0.5h-1.2c0-0.3,0.1-0.6,0.3-0.8c0.2-0.3,0.5-0.5,0.8-0.6s0.7-0.2,1.1-0.2c0.6,0,1.1,0.2,1.5,0.5
		s0.6,0.7,0.6,1.3v2.4c0,0.5,0.1,0.9,0.2,1.1v0.1H131.7z M130.4,256.6c0.2,0,0.5-0.1,0.7-0.2s0.4-0.3,0.5-0.5v-1H131
		c-0.4,0-0.8,0.1-1,0.2c-0.2,0.2-0.3,0.4-0.3,0.6c0,0.2,0.1,0.4,0.2,0.5C129.9,256.5,130.1,256.6,130.4,256.6z"/>
	<path d="M134.6,252c0.2,0,0.4,0.1,0.5,0.2c0.1,0.1,0.2,0.3,0.2,0.5s-0.1,0.3-0.2,0.5s-0.3,0.2-0.5,0.2s-0.4-0.1-0.5-0.2
		c-0.1-0.1-0.2-0.3-0.2-0.5s0.1-0.3,0.2-0.5C134.2,252.1,134.4,252,134.6,252z M134.6,256.2c0.2,0,0.4,0.1,0.5,0.2s0.2,0.3,0.2,0.5
		s-0.1,0.3-0.2,0.5s-0.3,0.2-0.5,0.2s-0.4-0.1-0.5-0.2s-0.2-0.3-0.2-0.5s0.1-0.3,0.2-0.5C134.2,256.3,134.4,256.2,134.6,256.2z"/>
</g>
<g>
	<path d="M171.5,255.8h-2.8l-0.6,1.7h-1.3l2.7-7.1h1.1l2.7,7.1H172L171.5,255.8z M169.1,254.8h2.1l-1-2.9L169.1,254.8z"/>
	<path d="M175.5,250.9v1.3h0.9v0.9h-0.9v2.9c0,0.2,0,0.3,0.1,0.4s0.2,0.1,0.4,0.1c0.1,0,0.3,0,0.4,0v0.9c-0.3,0.1-0.5,0.1-0.8,0.1
		c-0.9,0-1.4-0.5-1.4-1.5v-3h-0.9v-0.9h0.9v-1.3L175.5,250.9L175.5,250.9z"/>
	<path d="M180.5,257.4c-0.1-0.1-0.1-0.3-0.1-0.5c-0.4,0.4-0.8,0.6-1.4,0.6c-0.5,0-1-0.2-1.3-0.5s-0.5-0.7-0.5-1.1
		c0-0.6,0.2-1,0.6-1.3c0.4-0.3,1-0.5,1.8-0.5h0.7v-0.3c0-0.3-0.1-0.5-0.2-0.7c-0.2-0.2-0.4-0.2-0.7-0.2s-0.5,0.1-0.7,0.2
		c-0.2,0.1-0.3,0.3-0.3,0.5h-1.2c0-0.3,0.1-0.6,0.3-0.8c0.2-0.3,0.5-0.5,0.8-0.6s0.7-0.2,1.1-0.2c0.6,0,1.1,0.2,1.5,0.5
		s0.6,0.7,0.6,1.3v2.4c0,0.5,0.1,0.9,0.2,1.1v0.1H180.5z M179.2,256.6c0.2,0,0.5-0.1,0.7-0.2s0.4-0.3,0.5-0.5v-1h-0.6
		c-0.4,0-0.8,0.1-1,0.2c-0.2,0.2-0.3,0.4-0.3,0.6c0,0.2,0.1,0.4,0.2,0.5C178.7,256.5,178.9,256.6,179.2,256.6z"/>
	<path d="M184.9,256.6c0.3,0,0.5-0.1,0.7-0.3c0.2-0.2,0.3-0.4,0.3-0.6h1.1c0,0.3-0.1,0.6-0.3,0.9s-0.5,0.5-0.8,0.7s-0.7,0.2-1.1,0.2
		c-0.7,0-1.3-0.2-1.8-0.7c-0.4-0.5-0.6-1.1-0.6-2v-0.1c0-0.8,0.2-1.4,0.6-1.9s1-0.7,1.8-0.7c0.6,0,1.1,0.2,1.5,0.5s0.6,0.8,0.6,1.4
		h-1.1c0-0.3-0.1-0.6-0.3-0.7c-0.2-0.2-0.4-0.3-0.7-0.3c-0.4,0-0.7,0.1-0.9,0.4c-0.2,0.3-0.3,0.7-0.3,1.3v0.2c0,0.6,0.1,1,0.3,1.3
		C184.2,256.5,184.5,256.6,184.9,256.6z"/>
	<path d="M191.1,257.4c-0.1-0.1-0.1-0.3-0.1-0.5c-0.4,0.4-0.8,0.6-1.4,0.6c-0.5,0-1-0.2-1.3-0.5s-0.5-0.7-0.5-1.1
		c0-0.6,0.2-1,0.6-1.3c0.4-0.3,1-0.5,1.8-0.5h0.7v-0.3c0-0.3-0.1-0.5-0.2-0.7c-0.2-0.2-0.4-0.2-0.7-0.2s-0.5,0.1-0.7,0.2
		c-0.2,0.1-0.3,0.3-0.3,0.5h-1.2c0-0.3,0.1-0.6,0.3-0.8c0.2-0.3,0.5-0.5,0.8-0.6s0.7-0.2,1.1-0.2c0.6,0,1.1,0.2,1.5,0.5
		s0.6,0.7,0.6,1.3v2.4c0,0.5,0.1,0.9,0.2,1.1v0.1H191.1z M189.8,256.6c0.2,0,0.5-0.1,0.7-0.2s0.4-0.3,0.5-0.5v-1h-0.6
		c-0.4,0-0.8,0.1-1,0.2c-0.2,0.2-0.3,0.4-0.3,0.6c0,0.2,0.1,0.4,0.2,0.5C189.4,256.5,189.6,256.6,189.8,256.6z"/>
	<path d="M193.1,254.8c0-0.8,0.2-1.5,0.6-2c0.4-0.5,0.9-0.7,1.5-0.7s1,0.2,1.4,0.6V250h1.2v7.5h-1.1l-0.1-0.5
		c-0.4,0.4-0.8,0.6-1.4,0.6c-0.6,0-1.1-0.2-1.5-0.7C193.3,256.3,193.1,255.6,193.1,254.8z M194.3,254.9c0,0.5,0.1,1,0.3,1.3
		s0.5,0.5,0.9,0.5c0.5,0,0.8-0.2,1.1-0.6v-2.3c-0.2-0.4-0.6-0.6-1.1-0.6c-0.4,0-0.7,0.2-0.9,0.5
		C194.4,253.8,194.3,254.3,194.3,254.9z"/>
	<path d="M198.8,254.8c0-0.5,0.1-1,0.3-1.4s0.5-0.7,0.9-1c0.4-0.2,0.8-0.3,1.3-0.3c0.7,0,1.3,0.2,1.7,0.7s0.7,1.1,0.7,1.8v0.3
		c0,0.5-0.1,1-0.3,1.4c-0.2,0.4-0.5,0.7-0.9,1c-0.4,0.2-0.8,0.3-1.3,0.3c-0.7,0-1.3-0.2-1.8-0.7C199,256.3,198.8,255.6,198.8,254.8
		L198.8,254.8z M200,254.9c0,0.5,0.1,1,0.3,1.3s0.5,0.5,0.9,0.5s0.7-0.2,0.9-0.5c0.2-0.3,0.3-0.8,0.3-1.4c0-0.5-0.1-1-0.3-1.3
		s-0.5-0.5-0.9-0.5s-0.7,0.2-0.9,0.5C200.1,253.8,200,254.2,200,254.9z"/>
	<path d="M205,258.1h-0.9l2.8-7.7h0.9L205,258.1z"/>
	<path d="M208.8,257.4v-7.1h2.1c0.6,0,1.2,0.1,1.7,0.4c0.5,0.3,0.9,0.7,1.1,1.2c0.3,0.5,0.4,1.1,0.4,1.8v0.4c0,0.7-0.1,1.3-0.4,1.8
		c-0.3,0.5-0.7,0.9-1.1,1.2c-0.5,0.3-1.1,0.4-1.7,0.4L208.8,257.4L208.8,257.4z M210,251.3v5.1h0.8c0.6,0,1.1-0.2,1.5-0.6
		s0.5-1,0.5-1.7v-0.4c0-0.8-0.2-1.4-0.5-1.8c-0.3-0.4-0.8-0.6-1.5-0.6L210,251.3L210,251.3z"/>
	<path d="M215.2,250.8c0-0.2,0.1-0.3,0.2-0.5c0.1-0.1,0.3-0.2,0.5-0.2s0.4,0.1,0.5,0.2c0.1,0.1,0.2,0.3,0.2,0.5s-0.1,0.3-0.2,0.4
		c-0.1,0.1-0.3,0.2-0.5,0.2s-0.4-0.1-0.5-0.2C215.3,251.1,215.2,251,215.2,250.8z M216.5,257.4h-1.2v-5.3h1.2V257.4z"/>
	<path d="M220.7,256c0-0.2-0.1-0.4-0.3-0.5s-0.5-0.2-0.9-0.3s-0.7-0.2-1-0.3c-0.6-0.3-0.9-0.7-0.9-1.2s0.2-0.8,0.6-1.1
		c0.4-0.3,0.9-0.5,1.5-0.5s1.1,0.2,1.5,0.5s0.6,0.7,0.6,1.2h-1.2c0-0.2-0.1-0.4-0.3-0.6c-0.2-0.2-0.4-0.2-0.7-0.2s-0.5,0.1-0.6,0.2
		c-0.2,0.1-0.2,0.3-0.2,0.5s0.1,0.3,0.2,0.4c0.2,0.1,0.5,0.2,0.9,0.3c0.5,0.1,0.8,0.2,1.1,0.4c0.3,0.1,0.5,0.3,0.6,0.5
		s0.2,0.4,0.2,0.7c0,0.5-0.2,0.9-0.6,1.2c-0.4,0.3-0.9,0.4-1.5,0.4c-0.4,0-0.8-0.1-1.2-0.2c-0.3-0.2-0.6-0.4-0.8-0.6
		c-0.2-0.3-0.3-0.6-0.3-0.9h1.2c0,0.3,0.1,0.5,0.3,0.6s0.5,0.2,0.8,0.2s0.5-0.1,0.7-0.2C220.6,256.4,220.7,256.2,220.7,256z"/>
	<path d="M224.4,250.9v1.3h0.9v0.9h-0.9v2.9c0,0.2,0,0.3,0.1,0.4s0.2,0.1,0.4,0.1c0.1,0,0.3,0,0.4,0v0.9c-0.3,0.1-0.5,0.1-0.8,0.1
		c-0.9,0-1.4-0.5-1.4-1.5v-3h-0.9v-0.9h0.9v-1.3L224.4,250.9L224.4,250.9z"/>
	<path d="M229,253.2c-0.2,0-0.3,0-0.5,0c-0.5,0-0.9,0.2-1.1,0.6v3.6h-1.2v-5.3h1.1v0.6c0.3-0.5,0.7-0.7,1.2-0.7c0.2,0,0.3,0,0.4,0.1
		L229,253.2z"/>
	<path d="M229.8,250.8c0-0.2,0.1-0.3,0.2-0.5c0.1-0.1,0.3-0.2,0.5-0.2s0.4,0.1,0.5,0.2c0.1,0.1,0.2,0.3,0.2,0.5s-0.1,0.3-0.2,0.4
		c-0.1,0.1-0.3,0.2-0.5,0.2s-0.4-0.1-0.5-0.2C229.8,251.1,229.8,251,229.8,250.8z M231,257.4h-1.2v-5.3h1.2V257.4z"/>
	<path d="M236.9,254.9c0,0.8-0.2,1.5-0.5,2c-0.4,0.5-0.9,0.7-1.5,0.7s-1.1-0.2-1.4-0.7l-0.1,0.6h-1.1V250h1.2v2.7
		c0.3-0.4,0.8-0.6,1.4-0.6c0.6,0,1.2,0.2,1.5,0.7C236.8,253.3,236.9,253.9,236.9,254.9L236.9,254.9z M235.8,254.8
		c0-0.6-0.1-1-0.3-1.3s-0.5-0.4-0.9-0.4c-0.5,0-0.9,0.2-1.1,0.7v2.2c0.2,0.5,0.6,0.7,1.1,0.7c0.4,0,0.7-0.1,0.9-0.4s0.3-0.7,0.3-1.3
		V254.8z"/>
	<path d="M241.1,256.9c-0.3,0.4-0.8,0.6-1.5,0.6c-0.6,0-1-0.2-1.3-0.5s-0.4-0.8-0.4-1.5v-3.4h1.2v3.4c0,0.7,0.3,1,0.8,1
		c0.6,0,1-0.2,1.2-0.6v-3.8h1.2v5.3h-1.1L241.1,256.9z"/>
	<path d="M243.5,250.8c0-0.2,0.1-0.3,0.2-0.5c0.1-0.1,0.3-0.2,0.5-0.2s0.4,0.1,0.5,0.2c0.1,0.1,0.2,0.3,0.2,0.5s-0.1,0.3-0.2,0.4
		c-0.1,0.1-0.3,0.2-0.5,0.2s-0.4-0.1-0.5-0.2C243.6,251.1,243.5,251,243.5,250.8z M244.8,257.4h-1.2v-5.3h1.2V257.4z"/>
	<path d="M245.8,254.8c0-0.8,0.2-1.5,0.6-2c0.4-0.5,0.9-0.7,1.5-0.7s1,0.2,1.4,0.6V250h1.2v7.5h-1.1l-0.1-0.5
		c-0.4,0.4-0.8,0.6-1.4,0.6c-0.6,0-1.1-0.2-1.5-0.7C246,256.3,245.8,255.6,245.8,254.8z M247,254.9c0,0.5,0.1,1,0.3,1.3
		s0.5,0.5,0.9,0.5c0.5,0,0.8-0.2,1.1-0.6v-2.3c-0.2-0.4-0.6-0.6-1.1-0.6c-0.4,0-0.7,0.2-0.9,0.5C247.1,253.8,247,254.3,247,254.9z"
		/>
	<path d="M251.5,254.8c0-0.5,0.1-1,0.3-1.4s0.5-0.7,0.9-1c0.4-0.2,0.8-0.3,1.3-0.3c0.7,0,1.3,0.2,1.7,0.7c0.4,0.5,0.7,1.1,0.7,1.8
		v0.3c0,0.5-0.1,1-0.3,1.4c-0.2,0.4-0.5,0.7-0.9,1c-0.4,0.2-0.8,0.3-1.3,0.3c-0.7,0-1.3-0.2-1.8-0.7
		C251.7,256.3,251.5,255.6,251.5,254.8L251.5,254.8z M252.7,254.9c0,0.5,0.1,1,0.3,1.3s0.5,0.5,0.9,0.5s0.7-0.2,0.9-0.5
		c0.2-0.3,0.3-0.8,0.3-1.4c0-0.5-0.1-1-0.3-1.3s-0.5-0.5-0.9-0.5s-0.7,0.2-0.9,0.5C252.8,253.8,252.7,254.2,252.7,254.9z"/>
	<path d="M260.2,253.2c-0.2,0-0.3,0-0.5,0c-0.5,0-0.9,0.2-1.1,0.6v3.6h-1.2v-5.3h1.1v0.6c0.3-0.5,0.7-0.7,1.2-0.7
		c0.2,0,0.3,0,0.4,0.1L260.2,253.2z"/>
</g>
<circle class="st2" cx="285.7" cy="254.2" r="9.6"/>
<g>
	<path d="M302.5,255.9l1.8-5.6h1.4l-2.6,7.1h-1.2l-2.5-7.1h1.4L302.5,255.9z"/>
	<path d="M309.3,257.4c-0.1-0.1-0.1-0.3-0.1-0.5c-0.4,0.4-0.8,0.6-1.4,0.6c-0.5,0-1-0.2-1.3-0.5s-0.5-0.7-0.5-1.1
		c0-0.6,0.2-1,0.6-1.3s1-0.5,1.8-0.5h0.7v-0.3c0-0.3-0.1-0.5-0.2-0.7c-0.2-0.2-0.4-0.2-0.7-0.2c-0.3,0-0.5,0.1-0.7,0.2
		c-0.2,0.1-0.3,0.3-0.3,0.5H306c0-0.3,0.1-0.6,0.3-0.8c0.2-0.3,0.5-0.5,0.8-0.6s0.7-0.2,1.1-0.2c0.6,0,1.1,0.2,1.5,0.5
		s0.6,0.7,0.6,1.3v2.4c0,0.5,0.1,0.9,0.2,1.1v0.1H309.3z M308,256.6c0.2,0,0.5-0.1,0.7-0.2s0.4-0.3,0.5-0.5v-1h-0.6
		c-0.4,0-0.8,0.1-1,0.2c-0.2,0.2-0.3,0.4-0.3,0.6c0,0.2,0.1,0.4,0.2,0.5C307.5,256.5,307.7,256.6,308,256.6z"/>
	<path d="M314.3,253.2c-0.2,0-0.3,0-0.5,0c-0.5,0-0.9,0.2-1.1,0.6v3.6h-1.2v-5.3h1.1v0.6c0.3-0.5,0.7-0.7,1.2-0.7
		c0.2,0,0.3,0,0.4,0.1L314.3,253.2z"/>
	<path d="M317.3,257.5c-0.8,0-1.4-0.2-1.8-0.7c-0.5-0.5-0.7-1.1-0.7-1.9v-0.1c0-0.5,0.1-1,0.3-1.4c0.2-0.4,0.5-0.7,0.9-1
		c0.4-0.2,0.8-0.3,1.2-0.3c0.7,0,1.3,0.2,1.7,0.7c0.4,0.5,0.6,1.1,0.6,1.9v0.5H316c0,0.4,0.2,0.8,0.4,1c0.3,0.3,0.6,0.4,1,0.4
		c0.5,0,1-0.2,1.3-0.7l0.6,0.6c-0.2,0.3-0.5,0.6-0.8,0.7C318.1,257.5,317.7,257.5,317.3,257.5z M317.2,253c-0.3,0-0.6,0.1-0.8,0.3
		c-0.2,0.2-0.3,0.5-0.4,1h2.3v-0.1c0-0.4-0.1-0.7-0.3-0.9C317.7,253.1,317.5,253,317.2,253z"/>
	<path d="M321.6,252.2v5.8c0,0.5-0.1,1-0.4,1.2c-0.3,0.3-0.7,0.4-1.2,0.4c-0.2,0-0.4,0-0.6-0.1v-0.9c0.1,0,0.3,0,0.4,0
		c0.4,0,0.6-0.2,0.6-0.6v-5.8H321.6z M320.3,250.8c0-0.2,0.1-0.3,0.2-0.5c0.1-0.1,0.3-0.2,0.5-0.2s0.4,0.1,0.5,0.2
		c0.1,0.1,0.2,0.3,0.2,0.5s-0.1,0.3-0.2,0.4c-0.1,0.1-0.3,0.2-0.5,0.2s-0.4-0.1-0.5-0.2S320.3,251,320.3,250.8z"/>
	<path d="M322.6,254.8c0-0.5,0.1-1,0.3-1.4s0.5-0.7,0.9-1c0.4-0.2,0.8-0.3,1.3-0.3c0.7,0,1.3,0.2,1.7,0.7s0.7,1.1,0.7,1.8v0.3
		c0,0.5-0.1,1-0.3,1.4c-0.2,0.4-0.5,0.7-0.9,1c-0.4,0.2-0.8,0.3-1.3,0.3c-0.7,0-1.3-0.2-1.8-0.7
		C322.9,256.3,322.6,255.6,322.6,254.8L322.6,254.8z M323.8,254.9c0,0.5,0.1,1,0.3,1.3s0.5,0.5,0.9,0.5s0.7-0.2,0.9-0.5
		c0.2-0.3,0.3-0.8,0.3-1.4c0-0.5-0.1-1-0.3-1.3s-0.5-0.5-0.9-0.5s-0.7,0.2-0.9,0.5C323.9,253.8,323.8,254.2,323.8,254.9z"/>
</g>
<circle class="st3" cx="352.7" cy="254.2" r="9.6"/>
<g>
	<path d="M371.4,255.1c-0.1,0.8-0.4,1.4-0.8,1.8s-1.1,0.6-1.9,0.6c-0.6,0-1.1-0.1-1.5-0.4s-0.8-0.7-1-1.1c-0.2-0.5-0.4-1.1-0.4-1.7
		v-0.7c0-0.7,0.1-1.3,0.4-1.8c0.2-0.5,0.6-0.9,1-1.2s1-0.4,1.5-0.4c0.8,0,1.4,0.2,1.9,0.6s0.8,1,0.8,1.8h-1.2
		c-0.1-0.5-0.2-0.9-0.4-1.1c-0.2-0.2-0.6-0.3-1.1-0.3s-0.9,0.2-1.2,0.6s-0.4,1-0.4,1.7v0.6c0,0.8,0.1,1.4,0.4,1.8
		c0.3,0.4,0.7,0.6,1.2,0.6s0.8-0.1,1.1-0.3c0.2-0.2,0.4-0.6,0.5-1.1L371.4,255.1L371.4,255.1z"/>
	<path d="M372.2,254.8c0-0.5,0.1-1,0.3-1.4s0.5-0.7,0.9-1c0.4-0.2,0.8-0.3,1.3-0.3c0.7,0,1.3,0.2,1.7,0.7s0.7,1.1,0.7,1.8v0.3
		c0,0.5-0.1,1-0.3,1.4c-0.2,0.4-0.5,0.7-0.9,1c-0.4,0.2-0.8,0.3-1.3,0.3c-0.7,0-1.3-0.2-1.8-0.7
		C372.4,256.3,372.2,255.6,372.2,254.8L372.2,254.8z M373.4,254.9c0,0.5,0.1,1,0.3,1.3s0.5,0.5,0.9,0.5s0.7-0.2,0.9-0.5
		c0.2-0.3,0.3-0.8,0.3-1.4c0-0.5-0.1-1-0.3-1.3s-0.5-0.5-0.9-0.5s-0.7,0.2-0.9,0.5C373.5,253.8,373.4,254.2,373.4,254.9z"/>
	<path d="M379.2,252.2v0.6c0.4-0.5,0.9-0.7,1.5-0.7c1.1,0,1.7,0.6,1.7,1.9v3.5h-1.2V254c0-0.3-0.1-0.6-0.2-0.7
		c-0.1-0.2-0.4-0.2-0.7-0.2c-0.5,0-0.8,0.2-1.1,0.6v3.8H378v-5.3H379.2z"/>
	<path d="M386.6,256c0-0.2-0.1-0.4-0.3-0.5c-0.2-0.1-0.5-0.2-0.9-0.3s-0.7-0.2-1-0.3c-0.6-0.3-0.9-0.7-0.9-1.2s0.2-0.8,0.6-1.1
		s0.9-0.5,1.5-0.5s1.1,0.2,1.5,0.5s0.6,0.7,0.6,1.2h-1.2c0-0.2-0.1-0.4-0.3-0.6c-0.2-0.2-0.4-0.2-0.7-0.2c-0.3,0-0.5,0.1-0.6,0.2
		c-0.2,0.1-0.2,0.3-0.2,0.5s0.1,0.3,0.2,0.4c0.2,0.1,0.5,0.2,0.9,0.3c0.5,0.1,0.8,0.2,1.1,0.4c0.3,0.1,0.5,0.3,0.6,0.5
		s0.2,0.4,0.2,0.7c0,0.5-0.2,0.9-0.6,1.2c-0.4,0.3-0.9,0.4-1.5,0.4c-0.4,0-0.8-0.1-1.2-0.2c-0.3-0.2-0.6-0.4-0.8-0.6
		c-0.2-0.3-0.3-0.6-0.3-0.9h1.2c0,0.3,0.1,0.5,0.3,0.6s0.5,0.2,0.8,0.2s0.6-0.1,0.7-0.2C386.5,256.4,386.6,256.2,386.6,256z"/>
	<path d="M392,256.9c-0.3,0.4-0.8,0.6-1.5,0.6c-0.6,0-1-0.2-1.3-0.5s-0.4-0.8-0.4-1.5v-3.4h1.2v3.4c0,0.7,0.3,1,0.8,1
		c0.6,0,1-0.2,1.2-0.6v-3.8h1.2v5.3h-1.1L392,256.9z"/>
	<path d="M395.5,252.2v0.6c0.4-0.4,0.9-0.6,1.5-0.6c0.7,0,1.2,0.3,1.5,0.8c0.4-0.5,0.9-0.8,1.6-0.8c0.6,0,1,0.2,1.3,0.5
		s0.4,0.8,0.4,1.4v3.5h-1.2V254c0-0.3-0.1-0.6-0.2-0.7s-0.4-0.2-0.7-0.2c-0.3,0-0.5,0.1-0.7,0.2c-0.2,0.1-0.3,0.3-0.4,0.6v3.6h-1.2
		V254c0-0.6-0.3-0.9-1-0.9c-0.5,0-0.8,0.2-1,0.6v3.8h-1.2v-5.3H395.5z"/>
	<path d="M403.1,250.8c0-0.2,0.1-0.3,0.2-0.5c0.1-0.1,0.3-0.2,0.5-0.2s0.4,0.1,0.5,0.2c0.1,0.1,0.2,0.3,0.2,0.5s-0.1,0.3-0.2,0.4
		c-0.1,0.1-0.3,0.2-0.5,0.2s-0.4-0.1-0.5-0.2C403.1,251.1,403.1,251,403.1,250.8z M404.3,257.4h-1.2v-5.3h1.2V257.4z"/>
	<path d="M405.4,254.8c0-0.8,0.2-1.5,0.6-2s0.9-0.7,1.5-0.7s1,0.2,1.4,0.6V250h1.2v7.5H409l-0.1-0.5c-0.4,0.4-0.8,0.6-1.4,0.6
		s-1.1-0.2-1.5-0.7C405.6,256.3,405.4,255.6,405.4,254.8z M406.6,254.9c0,0.5,0.1,1,0.3,1.3c0.2,0.3,0.5,0.5,0.9,0.5
		c0.5,0,0.8-0.2,1.1-0.6v-2.3c-0.2-0.4-0.6-0.6-1.1-0.6c-0.4,0-0.7,0.2-0.9,0.5C406.7,253.8,406.6,254.3,406.6,254.9z"/>
	<path d="M411.1,254.8c0-0.5,0.1-1,0.3-1.4s0.5-0.7,0.9-1c0.4-0.2,0.8-0.3,1.3-0.3c0.7,0,1.3,0.2,1.7,0.7s0.7,1.1,0.7,1.8v0.3
		c0,0.5-0.1,1-0.3,1.4c-0.2,0.4-0.5,0.7-0.9,1c-0.4,0.2-0.8,0.3-1.3,0.3c-0.7,0-1.3-0.2-1.8-0.7
		C411.3,256.3,411.1,255.6,411.1,254.8L411.1,254.8z M412.2,254.9c0,0.5,0.1,1,0.3,1.3s0.5,0.5,0.9,0.5s0.7-0.2,0.9-0.5
		c0.2-0.3,0.3-0.8,0.3-1.4c0-0.5-0.1-1-0.3-1.3s-0.5-0.5-0.9-0.5s-0.7,0.2-0.9,0.5C412.4,253.8,412.2,254.2,412.2,254.9z"/>
	<path d="M419.7,253.2c-0.2,0-0.3,0-0.5,0c-0.5,0-0.9,0.2-1.1,0.6v3.6H417v-5.3h1.1v0.6c0.3-0.5,0.7-0.7,1.2-0.7
		c0.2,0,0.3,0,0.4,0.1V253.2z"/>
	<path d="M423.4,257.4V253h-0.8v-0.9h0.8v-0.5c0-0.6,0.2-1,0.5-1.4c0.3-0.3,0.8-0.5,1.4-0.5c0.2,0,0.4,0,0.7,0.1v0.9
		c-0.1,0-0.3,0-0.5,0c-0.6,0-0.8,0.3-0.8,0.9v0.5h1.1v0.9h-1.1v4.4H423.4z"/>
	<path d="M426.5,250.8c0-0.2,0.1-0.3,0.2-0.5c0.1-0.1,0.3-0.2,0.5-0.2s0.4,0.1,0.5,0.2c0.1,0.1,0.2,0.3,0.2,0.5s-0.1,0.3-0.2,0.4
		c-0.1,0.1-0.3,0.2-0.5,0.2s-0.4-0.1-0.5-0.2S426.5,251,426.5,250.8z M427.8,257.4h-1.2v-5.3h1.2V257.4z"/>
	<path d="M430.2,252.2v0.6c0.4-0.5,0.9-0.7,1.5-0.7c1.1,0,1.7,0.6,1.7,1.9v3.5h-1.2V254c0-0.3-0.1-0.6-0.2-0.7
		c-0.1-0.2-0.4-0.2-0.7-0.2c-0.5,0-0.8,0.2-1.1,0.6v3.8H429v-5.3H430.2z"/>
	<path d="M437.8,257.4c-0.1-0.1-0.1-0.3-0.1-0.5c-0.4,0.4-0.8,0.6-1.4,0.6c-0.5,0-1-0.2-1.3-0.5s-0.5-0.7-0.5-1.1
		c0-0.6,0.2-1,0.6-1.3s1-0.5,1.8-0.5h0.7v-0.3c0-0.3-0.1-0.5-0.2-0.7c-0.2-0.2-0.4-0.2-0.7-0.2c-0.3,0-0.5,0.1-0.7,0.2
		c-0.2,0.1-0.3,0.3-0.3,0.5h-1.2c0-0.3,0.1-0.6,0.3-0.8c0.2-0.3,0.5-0.5,0.8-0.6s0.7-0.2,1.1-0.2c0.6,0,1.1,0.2,1.5,0.5
		s0.6,0.7,0.6,1.3v2.4c0,0.5,0.1,0.9,0.2,1.1v0.1H437.8z M436.5,256.6c0.2,0,0.5-0.1,0.7-0.2s0.4-0.3,0.5-0.5v-1H437
		c-0.4,0-0.8,0.1-1,0.2c-0.2,0.2-0.3,0.4-0.3,0.6c0,0.2,0.1,0.4,0.2,0.5C436,256.5,436.2,256.6,436.5,256.6z"/>
	<path d="M441.3,257.4h-1.2v-7.5h1.2V257.4z"/>
</g>
<g>
	<path d="M478.5,254.7v2.6h-1.2v-7.1h2.7c0.8,0,1.4,0.2,1.9,0.6c0.5,0.4,0.7,1,0.7,1.6c0,0.7-0.2,1.2-0.7,1.6
		c-0.5,0.4-1.1,0.6-1.9,0.6L478.5,254.7L478.5,254.7z M478.5,253.7h1.5c0.4,0,0.8-0.1,1-0.3s0.3-0.5,0.3-0.9s-0.1-0.7-0.4-0.9
		s-0.6-0.3-1-0.4h-1.5v2.5H478.5z"/>
	<path d="M486.3,253.1c-0.2,0-0.3,0-0.5,0c-0.5,0-0.9,0.2-1.1,0.6v3.6h-1.2V252h1.1v0.6c0.3-0.5,0.7-0.7,1.2-0.7
		c0.2,0,0.3,0,0.4,0.1L486.3,253.1z"/>
	<path d="M489.3,257.4c-0.8,0-1.4-0.2-1.8-0.7c-0.5-0.5-0.7-1.1-0.7-1.9v-0.1c0-0.5,0.1-1,0.3-1.4c0.2-0.4,0.5-0.7,0.9-1
		c0.4-0.2,0.8-0.3,1.2-0.3c0.7,0,1.3,0.2,1.7,0.7c0.4,0.5,0.6,1.1,0.6,1.9v0.5H488c0,0.4,0.2,0.8,0.4,1c0.3,0.3,0.6,0.4,1,0.4
		c0.5,0,1-0.2,1.3-0.7l0.6,0.6c-0.2,0.3-0.5,0.6-0.8,0.7C490.1,257.4,489.7,257.4,489.3,257.4z M489.2,252.9c-0.3,0-0.6,0.1-0.8,0.3
		c-0.2,0.2-0.3,0.5-0.4,1h2.3v-0.1c0-0.4-0.1-0.7-0.3-0.9C489.7,253,489.5,252.9,489.2,252.9z"/>
	<path d="M494.5,256.5c0.3,0,0.5-0.1,0.7-0.3c0.2-0.2,0.3-0.4,0.3-0.6h1.1c0,0.3-0.1,0.6-0.3,0.9c-0.2,0.3-0.5,0.5-0.8,0.7
		s-0.7,0.2-1.1,0.2c-0.7,0-1.3-0.2-1.8-0.7c-0.4-0.5-0.6-1.1-0.6-2v-0.1c0-0.8,0.2-1.4,0.6-1.9s1-0.7,1.8-0.7c0.6,0,1.1,0.2,1.5,0.5
		s0.6,0.8,0.6,1.4h-1.1c0-0.3-0.1-0.6-0.3-0.7c-0.2-0.2-0.4-0.3-0.7-0.3c-0.4,0-0.7,0.1-0.9,0.4c-0.2,0.3-0.3,0.7-0.3,1.3v0.2
		c0,0.6,0.1,1,0.3,1.3C493.8,256.4,494.1,256.5,494.5,256.5z M494.8,257.4l-0.1,0.3c0.5,0.1,0.7,0.4,0.7,0.8c0,0.3-0.1,0.6-0.4,0.8
		c-0.3,0.2-0.7,0.3-1.2,0.3v-0.7c0.2,0,0.4,0,0.5-0.1s0.2-0.2,0.2-0.3c0-0.1-0.1-0.2-0.2-0.3c-0.1-0.1-0.3-0.1-0.6-0.1l0.2-0.7
		L494.8,257.4L494.8,257.4z"/>
	<path d="M497.4,254.7c0-0.5,0.1-1,0.3-1.4s0.5-0.7,0.9-1c0.4-0.2,0.8-0.3,1.3-0.3c0.7,0,1.3,0.2,1.7,0.7s0.7,1.1,0.7,1.8v0.3
		c0,0.5-0.1,1-0.3,1.4c-0.2,0.4-0.5,0.7-0.9,1c-0.4,0.2-0.8,0.3-1.3,0.3c-0.7,0-1.3-0.2-1.8-0.7
		C497.6,256.2,497.4,255.5,497.4,254.7L497.4,254.7z M498.5,254.8c0,0.5,0.1,1,0.3,1.3c0.2,0.3,0.5,0.5,0.9,0.5s0.7-0.2,0.9-0.5
		c0.2-0.3,0.3-0.8,0.3-1.4c0-0.5-0.1-1-0.3-1.3s-0.5-0.5-0.9-0.5s-0.7,0.2-0.9,0.5C498.7,253.7,498.5,254.1,498.5,254.8z"/>
	<path d="M506.2,255.9c0-0.2-0.1-0.4-0.3-0.5c-0.2-0.1-0.5-0.2-0.9-0.3s-0.7-0.2-1-0.3c-0.6-0.3-0.9-0.7-0.9-1.2s0.2-0.8,0.6-1.1
		s0.9-0.5,1.5-0.5s1.1,0.2,1.5,0.5s0.6,0.7,0.6,1.2h-1.2c0-0.2-0.1-0.4-0.3-0.6c-0.2-0.2-0.4-0.2-0.7-0.2c-0.3,0-0.5,0.1-0.6,0.2
		c-0.2,0.1-0.2,0.3-0.2,0.5s0.1,0.3,0.2,0.4c0.2,0.1,0.5,0.2,0.9,0.3c0.5,0.1,0.8,0.2,1.1,0.4c0.3,0.1,0.5,0.3,0.6,0.5
		s0.2,0.4,0.2,0.7c0,0.5-0.2,0.9-0.6,1.2c-0.4,0.3-0.9,0.4-1.5,0.4c-0.4,0-0.8-0.1-1.2-0.2c-0.3-0.2-0.6-0.4-0.8-0.6
		c-0.2-0.3-0.3-0.6-0.3-0.9h1.2c0,0.3,0.1,0.5,0.3,0.6s0.5,0.2,0.8,0.2s0.5-0.1,0.7-0.2C506.1,256.3,506.2,256.1,506.2,255.9z"/>
	<path d="M510.7,254.7c0-0.8,0.2-1.5,0.6-2s0.9-0.7,1.5-0.7c0.6,0,1,0.2,1.4,0.6v-2.7h1.2v7.5h-1.1l-0.1-0.5
		c-0.4,0.4-0.8,0.6-1.4,0.6c-0.6,0-1.1-0.2-1.5-0.7C510.9,256.2,510.7,255.5,510.7,254.7z M511.9,254.8c0,0.5,0.1,1,0.3,1.3
		c0.2,0.3,0.5,0.5,0.9,0.5c0.5,0,0.8-0.2,1.1-0.6v-2.3c-0.2-0.4-0.6-0.6-1.1-0.6c-0.4,0-0.7,0.2-0.9,0.5
		C512,253.7,511.9,254.2,511.9,254.8z"/>
	<path d="M518.9,257.4c-0.8,0-1.4-0.2-1.8-0.7c-0.5-0.5-0.7-1.1-0.7-1.9v-0.1c0-0.5,0.1-1,0.3-1.4s0.5-0.7,0.9-1
		c0.4-0.2,0.8-0.3,1.2-0.3c0.7,0,1.3,0.2,1.7,0.7s0.6,1.1,0.6,1.9v0.5h-3.5c0,0.4,0.2,0.8,0.4,1c0.3,0.3,0.6,0.4,1,0.4
		c0.5,0,1-0.2,1.3-0.7l0.6,0.6c-0.2,0.3-0.5,0.6-0.8,0.7C519.7,257.4,519.3,257.4,518.9,257.4z M518.7,252.9c-0.3,0-0.6,0.1-0.8,0.3
		s-0.3,0.5-0.4,1h2.3v-0.1c0-0.4-0.1-0.7-0.3-0.9S519.1,252.9,518.7,252.9z"/>
	<path d="M526.3,255.8l1.1-3.8h1.2l-1.8,5.3h-1L524,252h1.2L526.3,255.8z"/>
	<path d="M531.6,257.4c-0.8,0-1.4-0.2-1.8-0.7c-0.5-0.5-0.7-1.1-0.7-1.9v-0.1c0-0.5,0.1-1,0.3-1.4s0.5-0.7,0.9-1
		c0.4-0.2,0.8-0.3,1.2-0.3c0.7,0,1.3,0.2,1.7,0.7s0.6,1.1,0.6,1.9v0.5h-3.5c0,0.4,0.2,0.8,0.4,1c0.3,0.3,0.6,0.4,1,0.4
		c0.5,0,1-0.2,1.3-0.7l0.6,0.6c-0.2,0.3-0.5,0.6-0.8,0.7C532.5,257.4,532.1,257.4,531.6,257.4z M531.5,252.9c-0.3,0-0.6,0.1-0.8,0.3
		s-0.3,0.5-0.4,1h2.3v-0.1c0-0.4-0.1-0.7-0.3-0.9S531.8,252.9,531.5,252.9z"/>
	<path d="M535.8,252.1v0.6c0.4-0.5,0.9-0.7,1.5-0.7c1.1,0,1.7,0.6,1.7,1.9v3.5h-1.2V254c0-0.3-0.1-0.6-0.2-0.7
		c-0.1-0.2-0.4-0.2-0.7-0.2c-0.5,0-0.8,0.2-1.1,0.6v3.8h-1.2v-5.3h1.2V252.1z"/>
	<path d="M540,254.7c0-0.8,0.2-1.5,0.6-2c0.4-0.5,0.9-0.7,1.5-0.7s1,0.2,1.4,0.6v-2.7h1.2v7.5h-1.1l-0.1-0.5
		c-0.4,0.4-0.8,0.6-1.4,0.6c-0.6,0-1.1-0.2-1.5-0.7C540.2,256.2,540,255.5,540,254.7z M541.2,254.8c0,0.5,0.1,1,0.3,1.3
		c0.2,0.3,0.5,0.5,0.9,0.5c0.5,0,0.8-0.2,1.1-0.6v-2.3c-0.2-0.4-0.6-0.6-1.1-0.6c-0.4,0-0.7,0.2-0.9,0.5
		C541.3,253.7,541.2,254.2,541.2,254.8z"/>
	<path d="M549,257.3c-0.1-0.1-0.1-0.3-0.1-0.5c-0.4,0.4-0.8,0.6-1.4,0.6c-0.5,0-1-0.2-1.3-0.5s-0.5-0.7-0.5-1.1c0-0.6,0.2-1,0.6-1.3
		c0.4-0.3,1-0.5,1.8-0.5h0.7v-0.3c0-0.3-0.1-0.5-0.2-0.7c-0.2-0.2-0.4-0.2-0.7-0.2s-0.5,0.1-0.7,0.2c-0.2,0.1-0.3,0.3-0.3,0.5h-1.2
		c0-0.3,0.1-0.6,0.3-0.8c0.2-0.3,0.5-0.5,0.8-0.6s0.7-0.2,1.1-0.2c0.6,0,1.1,0.2,1.5,0.5s0.6,0.7,0.6,1.3v2.4c0,0.5,0.1,0.9,0.2,1.1
		v0.1H549z M547.7,256.5c0.2,0,0.5-0.1,0.7-0.2s0.4-0.3,0.5-0.5v-1h-0.6c-0.4,0-0.8,0.1-1,0.2c-0.2,0.2-0.3,0.4-0.3,0.6
		c0,0.2,0.1,0.4,0.2,0.5C547.3,256.4,547.5,256.5,547.7,256.5z"/>
	<path d="M556.1,254.8h-2.6v-1h2.6V254.8z"/>
	<path d="M561.7,256.5c0.3,0,0.5-0.1,0.7-0.3c0.2-0.2,0.3-0.4,0.3-0.6h1.1c0,0.3-0.1,0.6-0.3,0.9s-0.5,0.5-0.8,0.7s-0.7,0.2-1.1,0.2
		c-0.7,0-1.3-0.2-1.8-0.7c-0.4-0.5-0.6-1.1-0.6-2v-0.1c0-0.8,0.2-1.4,0.6-1.9s1-0.7,1.8-0.7c0.6,0,1.1,0.2,1.5,0.5s0.6,0.8,0.6,1.4
		h-1.1c0-0.3-0.1-0.6-0.3-0.7c-0.2-0.2-0.4-0.3-0.7-0.3c-0.4,0-0.7,0.1-0.9,0.4c-0.2,0.3-0.3,0.7-0.3,1.3v0.2c0,0.6,0.1,1,0.3,1.3
		C561,256.4,561.3,256.5,561.7,256.5z"/>
	<path d="M567.9,257.3c-0.1-0.1-0.1-0.3-0.1-0.5c-0.4,0.4-0.8,0.6-1.4,0.6c-0.5,0-1-0.2-1.3-0.5s-0.5-0.7-0.5-1.1
		c0-0.6,0.2-1,0.6-1.3c0.4-0.3,1-0.5,1.8-0.5h0.7v-0.3c0-0.3-0.1-0.5-0.2-0.7c-0.2-0.2-0.4-0.2-0.7-0.2s-0.5,0.1-0.7,0.2
		c-0.2,0.1-0.3,0.3-0.3,0.5h-1.2c0-0.3,0.1-0.6,0.3-0.8c0.2-0.3,0.5-0.5,0.8-0.6s0.7-0.2,1.1-0.2c0.6,0,1.1,0.2,1.5,0.5
		s0.6,0.7,0.6,1.3v2.4c0,0.5,0.1,0.9,0.2,1.1v0.1H567.9z M566.6,256.5c0.2,0,0.5-0.1,0.7-0.2s0.4-0.3,0.5-0.5v-1h-0.6
		c-0.4,0-0.8,0.1-1,0.2c-0.2,0.2-0.3,0.4-0.3,0.6c0,0.2,0.1,0.4,0.2,0.5C566.2,256.4,566.4,256.5,566.6,256.5z"/>
	<path d="M573.2,255.9c0-0.2-0.1-0.4-0.3-0.5s-0.5-0.2-0.9-0.3s-0.7-0.2-1-0.3c-0.6-0.3-0.9-0.7-0.9-1.2s0.2-0.8,0.6-1.1
		c0.4-0.3,0.9-0.5,1.5-0.5s1.1,0.2,1.5,0.5s0.6,0.7,0.6,1.2h-1.2c0-0.2-0.1-0.4-0.3-0.6c-0.2-0.2-0.4-0.2-0.7-0.2s-0.5,0.1-0.6,0.2
		c-0.2,0.1-0.2,0.3-0.2,0.5s0.1,0.3,0.2,0.4c0.2,0.1,0.5,0.2,0.9,0.3c0.5,0.1,0.8,0.2,1.1,0.4c0.3,0.1,0.5,0.3,0.6,0.5
		s0.2,0.4,0.2,0.7c0,0.5-0.2,0.9-0.6,1.2c-0.4,0.3-0.9,0.4-1.5,0.4c-0.4,0-0.8-0.1-1.2-0.2c-0.3-0.2-0.6-0.4-0.8-0.6
		c-0.2-0.3-0.3-0.6-0.3-0.9h1.2c0,0.3,0.1,0.5,0.3,0.6s0.5,0.2,0.8,0.2s0.5-0.1,0.7-0.2C573.1,256.3,573.2,256.1,573.2,255.9z"/>
	<path d="M575.1,254.7c0-0.5,0.1-1,0.3-1.4s0.5-0.7,0.9-1c0.4-0.2,0.8-0.3,1.3-0.3c0.7,0,1.3,0.2,1.7,0.7s0.7,1.1,0.7,1.8v0.3
		c0,0.5-0.1,1-0.3,1.4c-0.2,0.4-0.5,0.7-0.9,1c-0.4,0.2-0.8,0.3-1.3,0.3c-0.7,0-1.3-0.2-1.8-0.7
		C575.4,256.2,575.1,255.5,575.1,254.7L575.1,254.7z M576.3,254.8c0,0.5,0.1,1,0.3,1.3c0.2,0.3,0.5,0.5,0.9,0.5s0.7-0.2,0.9-0.5
		c0.2-0.3,0.3-0.8,0.3-1.4c0-0.5-0.1-1-0.3-1.3s-0.5-0.5-0.9-0.5s-0.7,0.2-0.9,0.5C576.4,253.7,576.3,254.1,576.3,254.8z"/>
	<path d="M584,255.9c0-0.2-0.1-0.4-0.3-0.5s-0.5-0.2-0.9-0.3s-0.7-0.2-1-0.3c-0.6-0.3-0.9-0.7-0.9-1.2s0.2-0.8,0.6-1.1
		c0.4-0.3,0.9-0.5,1.5-0.5s1.1,0.2,1.5,0.5s0.6,0.7,0.6,1.2h-1.2c0-0.2-0.1-0.4-0.3-0.6c-0.2-0.2-0.4-0.2-0.7-0.2s-0.5,0.1-0.6,0.2
		c-0.2,0.1-0.2,0.3-0.2,0.5s0.1,0.3,0.2,0.4c0.2,0.1,0.5,0.2,0.9,0.3c0.5,0.1,0.8,0.2,1.1,0.4c0.3,0.1,0.5,0.3,0.6,0.5
		s0.2,0.4,0.2,0.7c0,0.5-0.2,0.9-0.6,1.2c-0.4,0.3-0.9,0.4-1.5,0.4c-0.4,0-0.8-0.1-1.2-0.2c-0.3-0.2-0.6-0.4-0.8-0.6
		c-0.2-0.3-0.3-0.6-0.3-0.9h1.2c0,0.3,0.1,0.5,0.3,0.6s0.5,0.2,0.8,0.2s0.5-0.1,0.7-0.2C583.9,256.3,584,256.1,584,255.9z"/>
</g>
<line class="st5" x1="435" y1="39" x2="435" y2="1.1"/>
<g>
	<path d="M462.1,6.2C462,7,461.7,7.6,461.3,8c-0.4,0.4-1.1,0.6-1.9,0.6c-0.6,0-1.1-0.1-1.5-0.4c-0.4-0.3-0.8-0.7-1-1.1
		s-0.4-1.1-0.4-1.7V4.7c0-0.7,0.1-1.3,0.4-1.8c0.2-0.5,0.6-0.9,1-1.2s1-0.4,1.5-0.4c0.8,0,1.4,0.2,1.9,0.6s0.8,1,0.8,1.8h-1.2
		c-0.1-0.5-0.2-0.9-0.4-1.1s-0.6-0.3-1.1-0.3s-0.9,0.2-1.2,0.6s-0.4,1-0.4,1.7v0.6c0,0.8,0.1,1.4,0.4,1.8c0.3,0.4,0.7,0.6,1.2,0.6
		s0.8-0.1,1.1-0.3s0.4-0.6,0.5-1.1H462.1z"/>
	<path d="M464.4,4.5h0.7c0.4,0,0.7-0.1,0.9-0.3c0.2-0.2,0.3-0.5,0.3-0.8s-0.1-0.6-0.3-0.8c-0.2-0.2-0.4-0.3-0.8-0.3
		c-0.3,0-0.6,0.1-0.8,0.3s-0.3,0.4-0.3,0.7H463c0-0.4,0.1-0.7,0.3-1c0.2-0.3,0.5-0.5,0.8-0.7s0.7-0.3,1.2-0.3c0.7,0,1.3,0.2,1.7,0.5
		s0.6,0.9,0.6,1.5c0,0.3-0.1,0.6-0.3,0.9c-0.2,0.3-0.5,0.5-0.8,0.6c0.4,0.1,0.7,0.3,0.9,0.6c0.2,0.3,0.3,0.6,0.3,1
		c0,0.6-0.2,1.1-0.7,1.5c-0.4,0.4-1,0.6-1.7,0.6s-1.2-0.2-1.7-0.5c-0.4-0.4-0.7-0.8-0.7-1.5h1.2c0,0.3,0.1,0.6,0.3,0.8
		s0.5,0.3,0.8,0.3c0.4,0,0.7-0.1,0.9-0.3c0.2-0.2,0.3-0.5,0.3-0.8c0-0.4-0.1-0.7-0.3-0.9c-0.2-0.2-0.5-0.3-1-0.3h-0.7L464.4,4.5
		L464.4,4.5z"/>
</g>
<line class="st5" x1="453.7" y1="39" x2="453.7" y2="1.1"/>
<g>
	<path d="M564,6.2c-0.1,0.8-0.4,1.4-0.8,1.8c-0.4,0.4-1.1,0.6-1.9,0.6c-0.6,0-1.1-0.1-1.5-0.4c-0.4-0.3-0.8-0.7-1-1.1
		s-0.4-1.1-0.4-1.7V4.7c0-0.7,0.1-1.3,0.4-1.8c0.2-0.5,0.6-0.9,1-1.2s1-0.4,1.5-0.4c0.8,0,1.4,0.2,1.9,0.6s0.8,1,0.8,1.8h-1.2
		c-0.1-0.5-0.2-0.9-0.4-1.1s-0.6-0.3-1.1-0.3s-1,0.2-1.2,0.6s-0.4,1-0.4,1.7v0.6c0,0.8,0.1,1.4,0.4,1.8c0.3,0.4,0.7,0.6,1.2,0.6
		s0.8-0.1,1.1-0.3s0.4-0.6,0.5-1.1H564z"/>
	<path d="M569.6,8.6h-4.8V7.7l2.4-2.6c0.3-0.4,0.6-0.7,0.7-1c0.1-0.3,0.2-0.5,0.2-0.8s-0.1-0.6-0.3-0.8s-0.4-0.3-0.8-0.3
		c-0.4,0-0.7,0.1-0.9,0.4c-0.2,0.2-0.3,0.6-0.3,1h-1.2c0-0.4,0.1-0.8,0.3-1.2c0.2-0.3,0.5-0.6,0.8-0.8s0.8-0.3,1.3-0.3
		c0.7,0,1.2,0.2,1.6,0.5c0.4,0.3,0.6,0.8,0.6,1.4c0,0.4-0.1,0.7-0.3,1.1s-0.5,0.8-1,1.3l-1.7,1.9h3.3v1.1H569.6z"/>
</g>
<line class="st5" x1="555.5" y1="39" x2="555.5" y2="1.1"/>
</svg>
