<?xml version="1.0" encoding="utf-8"?>
<!-- Generator: Adobe Illustrator 24.3.0, SVG Export Plug-In . SVG Version: 6.00 Build 0)  -->
<svg version="1.1" id="Layer_1" xmlns="http://www.w3.org/2000/svg" xmlns:xlink="http://www.w3.org/1999/xlink" x="0px" y="0px"
	 viewBox="0 0 350 480.5" style="enable-background:new 0 0 350 480.5;" xml:space="preserve">
<style type="text/css">
	.st0{fill:none;stroke:#000000;stroke-width:3;stroke-miterlimit:10;}
	.st1{enable-background:new    ;}
	.st2{fill:#E00B17;}
	.st3{fill:#FF8A8A;}
	.st4{fill:none;stroke:#000000;stroke-miterlimit:10;}
</style>
<path d="M22.9,295.7v18.6h26.7v-16.6h8.1v16.6h1.9v-16.6h8.1v16.6h50.6v-18.6H22.9z M28.8,305.7c-1.7,0-3-1.3-3-3s1.3-3,3-3
	s3,1.3,3,3S30.5,305.7,28.8,305.7z M40.8,305.7c-1.7,0-3-1.3-3-3s1.3-3,3-3s3,1.3,3,3S42.5,305.7,40.8,305.7z M76.8,305.7
	c-1.7,0-3-1.3-3-3s1.3-3,3-3s3,1.3,3,3S78.5,305.7,76.8,305.7z M87.8,305.7c-1.7,0-3-1.3-3-3s1.3-3,3-3s3,1.3,3,3
	S89.5,305.7,87.8,305.7z M99.8,305.7c-1.7,0-3-1.3-3-3s1.3-3,3-3s3,1.3,3,3S101.5,305.7,99.8,305.7z M111.8,305.7c-1.7,0-3-1.3-3-3
	s1.3-3,3-3s3,1.3,3,3S113.5,305.7,111.8,305.7z"/>
<polygon points="58.8,289.7 70.5,293.7 128.7,293.7 84.9,278.7 40.3,293.7 47,293.7 "/>
<path d="M215.9,354.7v37.6h61.9v-16.6h18.9v16.6h14.6v-37.6H215.9z M225.5,382.3h-6.6v-6.6h6.6V382.3z M225.5,367.3h-6.6v-6.6h6.6
	V367.3z M237.3,382.3h-6.6v-6.6h6.6V382.3z M237.3,367.3h-6.6v-6.6h6.6V367.3z M249.2,382.3h-6.6v-6.6h6.6V382.3z M249.2,367.3h-6.6
	v-6.6h6.6V367.3z M261,382.3h-6.6v-6.6h6.6V382.3z M261,367.3h-6.6v-6.6h6.6V367.3z M272.9,382.3h-6.6v-6.6h6.6V382.3z M272.9,367.3
	h-6.6v-6.6h6.6V367.3z M284.7,367.3h-6.6v-6.6h6.6V367.3z M296.5,367.3h-6.6v-6.6h6.6V367.3z M308.4,382.3h-6.6v-6.6h6.6V382.3z
	 M308.4,367.3h-6.6v-6.6h6.6V367.3z"/>
<path class="st0" d="M72.2,342.2v42c0,5.5,4.5,10,10,10h75c5.5,0,10,4.5,10,10v26.4"/>
<polygon points="161.1,425.6 162.2,424.6 167.2,430 172.3,424.6 173.4,425.6 167.2,432.2 "/>
<polygon points="176.5,425.6 177.6,424.6 182.6,430 187.6,424.6 188.7,425.6 182.6,432.2 "/>
<path class="st0" d="M171.2,191.2v21c0,5.5,4.5,10,10,10h55.4"/>
<polygon points="231.7,228.3 230.6,227.2 236.1,222.2 230.6,217.1 231.7,216.1 238.2,222.2 "/>
<line class="st0" x1="295.2" y1="276.2" x2="295.2" y2="324.6"/>
<polygon points="289.1,319.6 290.2,318.6 295.2,324 300.3,318.6 301.4,319.6 295.2,326.2 "/>
<path class="st0" d="M288.2,276.2v12c0,5.5-4.5,10-10,10H138.4"/>
<polygon points="143.4,292 144.4,293.1 138.9,298.2 144.4,303.2 143.4,304.3 136.8,298.2 "/>
<path class="st0" d="M200.5,362.3l-25.4-0.1c-5.5,0-9.9-4.5-9.9-10l0.1-28c0-5.5-4.4-10-9.9-10l0,0H138"/>
<polygon points="143,308 144,309.1 138.6,314.2 144,319.2 143,320.3 136.4,314.2 "/>
<g>
	<g class="st1">
		<path class="st2" d="M135.6,456.6c-0.1,1.1-0.5,1.9-1.2,2.5s-1.6,0.9-2.8,0.9c-1.3,0-2.3-0.4-3-1.3c-0.7-0.9-1.1-2-1.1-3.5v-0.6
			c0-1,0.2-1.8,0.5-2.5c0.3-0.7,0.8-1.3,1.4-1.7c0.6-0.4,1.3-0.6,2.2-0.6c1.1,0,2.1,0.3,2.7,0.9s1.1,1.5,1.2,2.6h-2
			c0-0.6-0.2-1.1-0.5-1.4c-0.3-0.3-0.8-0.4-1.4-0.4c-0.7,0-1.2,0.2-1.5,0.7c-0.3,0.5-0.5,1.2-0.5,2.3v0.8c0,1.1,0.2,1.9,0.5,2.4
			c0.3,0.5,0.8,0.7,1.5,0.7c0.6,0,1.1-0.1,1.4-0.4c0.3-0.3,0.5-0.7,0.5-1.3H135.6z"/>
		<path class="st2" d="M145,455.1c0,1-0.2,1.8-0.5,2.6s-0.8,1.3-1.5,1.7c-0.6,0.4-1.4,0.6-2.2,0.6c-0.8,0-1.5-0.2-2.2-0.6
			s-1.1-1-1.5-1.7c-0.4-0.7-0.5-1.6-0.5-2.5v-0.5c0-1,0.2-1.8,0.5-2.6c0.3-0.7,0.8-1.3,1.5-1.7c0.6-0.4,1.4-0.6,2.2-0.6
			s1.6,0.2,2.2,0.6c0.6,0.4,1.1,1,1.5,1.7c0.3,0.7,0.5,1.6,0.5,2.6V455.1z M143,454.7c0-1-0.2-1.8-0.6-2.4c-0.4-0.5-0.9-0.8-1.6-0.8
			c-0.7,0-1.2,0.3-1.6,0.8c-0.4,0.5-0.6,1.3-0.6,2.4v0.5c0,1,0.2,1.8,0.6,2.4c0.4,0.6,0.9,0.8,1.6,0.8c0.7,0,1.2-0.3,1.6-0.8
			c0.4-0.5,0.6-1.3,0.6-2.4V454.7z"/>
		<path class="st2" d="M154.5,459.9h-2l-4-6.5v6.5h-2v-10h2l4,6.6v-6.6h2V459.9z"/>
		<path class="st2" d="M161.4,457.3c0-0.4-0.1-0.7-0.4-0.9c-0.3-0.2-0.8-0.4-1.5-0.7c-0.7-0.2-1.3-0.5-1.7-0.7
			c-1.1-0.6-1.7-1.4-1.7-2.5c0-0.5,0.1-1,0.5-1.4c0.3-0.4,0.7-0.8,1.3-1s1.2-0.4,1.9-0.4c0.7,0,1.3,0.1,1.9,0.4
			c0.6,0.3,1,0.6,1.3,1.1c0.3,0.5,0.5,1,0.5,1.6h-2c0-0.5-0.1-0.8-0.4-1.1c-0.3-0.3-0.7-0.4-1.2-0.4c-0.5,0-0.9,0.1-1.2,0.3
			c-0.3,0.2-0.4,0.5-0.4,0.8c0,0.3,0.2,0.6,0.5,0.8s0.8,0.4,1.4,0.6c1.2,0.4,2,0.8,2.5,1.3s0.8,1.2,0.8,1.9c0,0.9-0.3,1.5-1,2
			c-0.6,0.5-1.5,0.7-2.6,0.7c-0.8,0-1.4-0.1-2.1-0.4c-0.6-0.3-1.1-0.7-1.4-1.2s-0.5-1.1-0.5-1.7h2c0,1.1,0.6,1.6,1.9,1.6
			c0.5,0,0.9-0.1,1.1-0.3C161.3,457.9,161.4,457.6,161.4,457.3z"/>
		<path class="st2" d="M172.3,449.9v6.6c0,1.1-0.3,2-1,2.6c-0.7,0.6-1.6,1-2.8,1c-1.2,0-2.1-0.3-2.7-0.9s-1-1.5-1-2.5v-6.6h2v6.6
			c0,0.7,0.2,1.1,0.5,1.4c0.3,0.3,0.7,0.4,1.3,0.4c1.1,0,1.7-0.6,1.7-1.8v-6.6H172.3z"/>
		<path class="st2" d="M176.6,449.9l2.5,7.2l2.5-7.2h2.7v10h-2v-2.7l0.2-4.7l-2.7,7.4h-1.4l-2.7-7.4l0.2,4.7v2.7h-2v-10H176.6z"/>
		<path class="st2" d="M188.2,459.9h-2v-10h2V459.9z"/>
		<path class="st2" d="M190.1,459.9v-10h3c0.9,0,1.6,0.2,2.3,0.6c0.7,0.4,1.2,1,1.6,1.7c0.4,0.7,0.6,1.6,0.6,2.5v0.5
			c0,0.9-0.2,1.7-0.6,2.5c-0.4,0.7-0.9,1.3-1.6,1.7c-0.7,0.4-1.5,0.6-2.3,0.6H190.1z M192.1,451.6v6.6h1c0.8,0,1.4-0.3,1.8-0.8
			c0.4-0.5,0.6-1.3,0.6-2.2v-0.5c0-1-0.2-1.8-0.6-2.3c-0.4-0.5-1-0.8-1.8-0.8H192.1z"/>
		<path class="st2" d="M207.2,455.1c0,1-0.2,1.8-0.5,2.6s-0.8,1.3-1.5,1.7c-0.6,0.4-1.4,0.6-2.2,0.6c-0.8,0-1.5-0.2-2.2-0.6
			s-1.1-1-1.5-1.7c-0.4-0.7-0.5-1.6-0.5-2.5v-0.5c0-1,0.2-1.8,0.5-2.6c0.3-0.7,0.8-1.3,1.5-1.7c0.6-0.4,1.4-0.6,2.2-0.6
			s1.6,0.2,2.2,0.6c0.6,0.4,1.1,1,1.5,1.7c0.3,0.7,0.5,1.6,0.5,2.6V455.1z M205.2,454.7c0-1-0.2-1.8-0.6-2.4
			c-0.4-0.5-0.9-0.8-1.6-0.8c-0.7,0-1.2,0.3-1.6,0.8c-0.4,0.5-0.6,1.3-0.6,2.4v0.5c0,1,0.2,1.8,0.6,2.4c0.4,0.6,0.9,0.8,1.6,0.8
			c0.7,0,1.2-0.3,1.6-0.8c0.4-0.5,0.6-1.3,0.6-2.4V454.7z"/>
		<path class="st2" d="M212.3,456.3h-1.6v3.6h-2v-10h3.7c1.2,0,2.1,0.3,2.7,0.8c0.6,0.5,0.9,1.3,0.9,2.2c0,0.7-0.1,1.2-0.4,1.7
			c-0.3,0.5-0.7,0.8-1.3,1.1l2.1,4.1v0.1h-2.2L212.3,456.3z M210.7,454.6h1.6c0.5,0,0.9-0.1,1.2-0.4c0.3-0.3,0.4-0.6,0.4-1.1
			c0-0.5-0.1-0.8-0.4-1.1s-0.7-0.4-1.2-0.4h-1.6V454.6z"/>
	</g>
</g>
<g>
	<g class="st1">
		<path class="st2" d="M159.4,472.6h-3.9v4.1h-2v-10h6.4v1.7h-4.4v2.6h3.9V472.6z"/>
		<path class="st2" d="M163.3,476.7h-2v-10h2V476.7z"/>
	</g>
</g>
<g>
	<g class="st1">
		<path class="st2" d="M173.2,476.7h-2l-4-6.5v6.5h-2v-10h2l4,6.6v-6.6h2V476.7z"/>
	</g>
</g>
<g>
	<g class="st1">
		<path class="st2" d="M180.6,474.6h-3.6l-0.7,2.1h-2.2l3.7-10h1.9l3.7,10h-2.2L180.6,474.6z M177.6,473h2.5l-1.2-3.7L177.6,473z"/>
		<path class="st2" d="M186.4,475.1h4.3v1.6h-6.3v-10h2V475.1z"/>
	</g>
</g>
<g class="st1">
	<path class="st2" d="M138.1,176.2v3.5h-2v-10h3.8c0.7,0,1.4,0.1,2,0.4s1,0.7,1.3,1.2s0.5,1.1,0.5,1.7c0,1-0.3,1.7-1,2.3
		s-1.6,0.8-2.7,0.8H138.1z M138.1,174.5h1.8c0.5,0,0.9-0.1,1.2-0.4c0.3-0.3,0.4-0.6,0.4-1.1c0-0.5-0.1-0.9-0.4-1.2s-0.7-0.5-1.2-0.5
		h-1.9V174.5z"/>
	<path class="st2" d="M148.6,176H147v3.6h-2v-10h3.7c1.2,0,2.1,0.3,2.7,0.8c0.6,0.5,0.9,1.3,0.9,2.2c0,0.7-0.1,1.2-0.4,1.7
		s-0.7,0.8-1.3,1.1l2.1,4.1v0.1h-2.2L148.6,176z M147,174.4h1.6c0.5,0,0.9-0.1,1.2-0.4s0.4-0.6,0.4-1.1c0-0.5-0.1-0.8-0.4-1.1
		c-0.3-0.3-0.7-0.4-1.2-0.4H147V174.4z"/>
	<path class="st2" d="M161.9,174.9c0,1-0.2,1.8-0.5,2.6s-0.8,1.3-1.5,1.7c-0.6,0.4-1.4,0.6-2.2,0.6c-0.8,0-1.5-0.2-2.2-0.6
		s-1.1-1-1.5-1.7s-0.5-1.6-0.5-2.5v-0.5c0-1,0.2-1.8,0.5-2.6s0.8-1.3,1.5-1.7c0.6-0.4,1.4-0.6,2.2-0.6s1.6,0.2,2.2,0.6
		c0.6,0.4,1.1,1,1.5,1.7s0.5,1.6,0.5,2.6V174.9z M159.9,174.5c0-1-0.2-1.8-0.6-2.4c-0.4-0.5-0.9-0.8-1.6-0.8c-0.7,0-1.2,0.3-1.6,0.8
		c-0.4,0.5-0.6,1.3-0.6,2.4v0.5c0,1,0.2,1.8,0.6,2.4c0.4,0.6,0.9,0.8,1.6,0.8c0.7,0,1.2-0.3,1.6-0.8c0.4-0.5,0.6-1.3,0.6-2.4V174.5z
		"/>
	<path class="st2" d="M163.4,179.7v-10h3c0.9,0,1.6,0.2,2.3,0.6s1.2,1,1.6,1.7c0.4,0.7,0.6,1.6,0.6,2.5v0.5c0,0.9-0.2,1.7-0.6,2.5
		c-0.4,0.7-0.9,1.3-1.6,1.7c-0.7,0.4-1.5,0.6-2.3,0.6H163.4z M165.4,171.4v6.6h1c0.8,0,1.4-0.3,1.8-0.8s0.6-1.3,0.6-2.2v-0.5
		c0-1-0.2-1.8-0.6-2.3s-1-0.8-1.8-0.8H165.4z"/>
	<path class="st2" d="M179.9,169.7v6.6c0,1.1-0.3,2-1,2.6c-0.7,0.6-1.6,1-2.8,1c-1.2,0-2.1-0.3-2.7-0.9s-1-1.5-1-2.5v-6.6h2v6.6
		c0,0.7,0.2,1.1,0.5,1.4s0.7,0.4,1.3,0.4c1.1,0,1.7-0.6,1.7-1.8v-6.6H179.9z"/>
	<path class="st2" d="M189.3,176.4c-0.1,1.1-0.5,1.9-1.2,2.5s-1.6,0.9-2.8,0.9c-1.3,0-2.3-0.4-3-1.3c-0.7-0.9-1.1-2-1.1-3.5v-0.6
		c0-1,0.2-1.8,0.5-2.5c0.3-0.7,0.8-1.3,1.4-1.7s1.3-0.6,2.2-0.6c1.1,0,2.1,0.3,2.7,0.9c0.7,0.6,1.1,1.5,1.2,2.6h-2
		c-0.1-0.6-0.2-1.1-0.5-1.4c-0.3-0.3-0.8-0.4-1.4-0.4c-0.7,0-1.2,0.2-1.5,0.7c-0.3,0.5-0.5,1.2-0.5,2.3v0.8c0,1.1,0.2,1.9,0.5,2.4
		c0.3,0.5,0.8,0.7,1.5,0.7c0.6,0,1.1-0.1,1.4-0.4c0.3-0.3,0.5-0.7,0.5-1.3H189.3z M186,179.6L186,180c0.7,0.1,1,0.5,1,1.2
		c0,0.5-0.2,0.9-0.6,1.2s-1,0.4-1.7,0.4l0-1.1c0.5,0,0.8-0.2,0.8-0.6c0-0.2-0.1-0.3-0.2-0.4c-0.2-0.1-0.4-0.1-0.7-0.1l0.2-1H186z"/>
</g>
<g class="st1">
	<path class="st2" d="M196.2,177.6h-3.6l-0.7,2.1h-2.2l3.7-10h1.9l3.7,10h-2.2L196.2,177.6z M196.9,167.2c0,0.5-0.1,0.9-0.4,1.3
		s-0.7,0.5-1.1,0.5c-0.2,0-0.3,0-0.5-0.1s-0.3-0.1-0.6-0.2s-0.4-0.2-0.5-0.2s-0.2,0-0.3,0c-0.2,0-0.3,0.1-0.4,0.2s-0.2,0.3-0.2,0.5
		l-1.1-0.1c0-0.5,0.1-0.9,0.4-1.3s0.7-0.5,1.1-0.5c0.1,0,0.3,0,0.4,0.1c0.1,0,0.3,0.1,0.6,0.2c0.3,0.1,0.5,0.2,0.6,0.2
		c0.1,0,0.2,0,0.3,0c0.2,0,0.3-0.1,0.4-0.2c0.1-0.1,0.2-0.3,0.2-0.5L196.9,167.2z M193.1,176h2.5l-1.2-3.7L193.1,176z"/>
</g>
<g class="st1">
	<path class="st2" d="M207.9,174.9c0,1-0.2,1.8-0.5,2.6s-0.8,1.3-1.5,1.7c-0.6,0.4-1.4,0.6-2.2,0.6c-0.8,0-1.5-0.2-2.2-0.6
		s-1.1-1-1.5-1.7s-0.5-1.6-0.5-2.5v-0.5c0-1,0.2-1.8,0.5-2.6s0.8-1.3,1.5-1.7s1.4-0.6,2.2-0.6s1.6,0.2,2.2,0.6s1.1,1,1.5,1.7
		s0.5,1.6,0.5,2.6V174.9z M205.8,174.5c0-1-0.2-1.8-0.6-2.4c-0.4-0.5-0.9-0.8-1.6-0.8c-0.7,0-1.2,0.3-1.6,0.8
		c-0.4,0.5-0.6,1.3-0.6,2.4v0.5c0,1,0.2,1.8,0.6,2.4c0.4,0.6,0.9,0.8,1.6,0.8c0.7,0,1.2-0.3,1.6-0.8s0.6-1.3,0.6-2.4V174.5z"/>
</g>
<path class="st3" d="M148,156.6c-0.9-0.1-1.9-0.1-2.9,0c-0.1,0-0.3,0-0.4,0.1c-0.2,0.2,0.1,0.6,0.3,0.8l0.9,0.7l-1.2,1.5
	c-0.1,0.1-0.2,0.3-0.2,0.4c0.1,0.4,0.6,0.3,0.9,0.5s0.3,0.4,0.6,0.5s0.6-0.1,0.8-0.4c0.3-0.4,0.6-0.9,0.9-1.3c0,0.4,0,0.8,0.1,1.2
	s0.5,0.6,0.9,0.7c0.6-0.1,0.8-0.7,1-1.2c0.3,0.4,0.8,0.5,1.2,0.2c0.1,0,0.1-0.1,0.2-0.2c0.3-0.5,0.4-1,0.2-1.6
	c0.4,0.2,0.8,0.3,1.2,0.2c0.4-0.2,0.6-0.6,0.6-1c-0.1-0.3-0.5-0.5-0.8-0.4c-0.1,0-0.1,0.1-0.2,0.1c0.5-1.1,0.8-2.2,0.9-3.4
	c-1.2-0.2-2.3,0.4-2.8,1.5c-0.1-0.3-0.5-0.4-0.8-0.3h-0.1c-0.3,0.2-0.5,0.5-0.6,0.8c-0.2-0.3-0.8,0-0.7,0.3"/>
<path class="st3" d="M154.9,160.1c0.1,0.5,0.7,0.8,1.2,0.7c0.3-0.1,0.5-0.3,0.6-0.5c0,0.5,0.3,0.9,0.8,0.9h0.1
	c0.5,0,0.9-0.3,1.2-0.6c0.5-0.5,0.9-1.2,1.2-1.9c0.7,0.4,1.6,0.5,2.4,0.4c0.3,0,0.6-0.1,0.7-0.4c0-0.1,0-0.3-0.1-0.4
	c-0.1-0.3-0.2-0.5-0.4-0.8c-0.1-0.3-0.4-0.5-0.7-0.7c-0.3-0.1-0.7,0.1-0.7,0.4c-0.1-0.4-0.3-0.8-0.7-1.2c-0.3-0.3-0.9-0.3-1.2,0.1
	l0,0c-0.1-0.6-0.5-1-0.9-1.4c-0.2-0.1-0.4-0.2-0.6-0.2c-0.2,0.1-0.3,0.1-0.4,0.3c-0.6,0.6-1,1.2-1.5,1.9c0-0.2-0.1-0.4-0.3-0.5
	l-0.5,1.1c-0.3-0.1-0.6-0.2-0.9-0.2c-0.1,0-0.2,0-0.3,0.1c-0.2,0.1-0.2,0.5,0,0.7s0.4,0.3,0.7,0.4c0.1,0,0.1,0.1,0.1,0.2
	c0,0.2-0.2,0.2-0.3,0.4s-0.1,0.4,0,0.6c0.1,0.2,0.3,0.3,0.5,0.4"/>
<path class="st3" d="M126.1,159.7c0.3,0.4,0.8,0.6,1.3,0.3c0.1-0.1,0.2-0.2,0.3-0.3c-0.2,0.3-0.3,0.7-0.3,1.1c0,0.1,0,0.2,0.1,0.3
	s0.3,0.1,0.4,0.1c1.1,0.1,2.4,0,3-0.9c0.1-0.2,0.3-0.5,0.5-0.5c0.1,0,0.3,0,0.4,0c0.8,0,1.4-0.6,1.4-1.4l0,0c0-0.3-0.1-0.6-0.3-0.9
	c-0.2-0.4-0.3-0.7-0.5-1.1c-0.5-0.8-1.2-1.6-2-2.1c-0.3-0.2-0.6-0.3-0.9-0.3c-0.3,0-0.6,0.1-0.8,0.4c-0.2-0.3-0.6-0.2-0.9,0
	c-0.8,0.4-1.4,1-1.8,1.7c-0.4-0.3-1-0.2-1.3,0.3c-0.2,0.3-0.2,0.6-0.1,0.9c-0.2,0-0.6,0.1-0.5,0.4s0.4,0.3,0.7,0.4
	c0.7,0.3,0.9,1.4,1.6,1.3"/>
<path class="st3" d="M164.9,158.1c-0.6,0.3-0.8,1-0.5,1.6c0.2,0.3,0.5,0.6,0.8,0.6c-0.1,0.4,0.2,0.8,0.6,0.8h0.1
	c0.4,0,0.8-0.3,1-0.7s0.3-0.8,0.3-1.2c0,0.5,0.5,0.9,1,0.8c0.1,0,0.1,0,0.2,0c0.5-0.2,0.8-0.8,0.7-1.4c0.6,0.4,0.9,1.1,1.6,1.2
	c0.6,0,1.2-0.4,1.3-1s0-1.2-0.4-1.7c0.2-0.5,0.2-1,0.1-1.5c0-0.4-0.2-0.8-0.5-1.1c-0.3-0.2-0.8-0.2-1,0.2l0,0
	c-0.1-0.7-0.4-1.3-0.8-1.9c-0.1-0.2-0.2-0.3-0.4-0.4c-0.4-0.1-0.7,0-1,0.3c-0.5,0.4-0.8,0.8-1.1,1.3c-0.1-0.2-0.4-0.4-0.6-0.3
	c-0.2,0.1-0.5,0.2-0.6,0.4c-0.4,0.4-0.7,0.8-1,1.2c-0.2-0.2-0.4-0.2-0.6-0.1c-0.2,0.1-0.3,0.3-0.4,0.5c0,0.1-0.1,0.1-0.1,0.2
	c0,0.3,0.5,0.2,0.8,0.4c0.1,0.1,0.2,0.2,0.2,0.3l0.6,1.4"/>
<path class="st3" d="M134.9,159.5c-0.3-0.4-0.4-0.9-0.4-1.4c0.1-0.5,0.6-0.9,1-0.8c-0.2-0.3-0.4-0.6-0.4-1c-0.1-0.4,0-0.8,0.3-1
	c0.5-0.4,1.2,0,1.7,0.3c-0.2-0.7,0.1-1.4,0.7-1.8c0.2-0.2,0.5-0.2,0.8-0.2c0.3,0.1,0.5,0.3,0.5,0.6c-0.2-0.1-0.2-0.4,0-0.5l0,0
	c0.2-0.1,0.4-0.2,0.6-0.2c0.5,0,1,0.1,1.4,0.4c0.2,0.1,0.3,0.3,0.4,0.4c0.1,0.2,0,0.5-0.1,0.6c0.5,0,0.9,0.1,1.4,0.4
	c0.1,0,0.1,0.1,0.1,0.2c0,0.1-0.1,0.2-0.2,0.2l-0.8,0.4c0.4,0,0.6,0.6,0.4,1c-0.3,0.3-0.7,0.6-1.1,0.6c0.2,0.2,0.4,0.5,0.5,0.8
	c0,0.3-0.3,0.6-0.6,0.5c0-0.2,0.3-0.2,0.4,0c0.2,0.3,0.1,0.6-0.2,0.8c-0.3,0.1-0.6,0.2-0.9,0.2c-0.7,0-1.6,0-1.9-0.7
	c0.2,0.6,0,1.3-0.4,1.7c-0.5,0.4-1.4,0.2-1.5-0.5c-0.4,0-0.8-0.3-0.9-0.7c-0.2,0-0.4,0-0.6-0.2"/>
<path class="st3" d="M198,156.6c-0.9-0.1-1.9-0.1-2.9,0c-0.1,0-0.3,0-0.4,0.1c-0.2,0.2,0.1,0.6,0.3,0.8l0.9,0.7l-1.2,1.5
	c-0.1,0.1-0.2,0.3-0.2,0.4c0.1,0.4,0.6,0.3,0.9,0.5s0.3,0.4,0.6,0.5s0.6-0.1,0.8-0.4c0.3-0.4,0.6-0.9,0.9-1.3c0,0.4,0,0.8,0.1,1.2
	s0.5,0.6,0.9,0.7c0.6-0.1,0.8-0.7,1-1.2c0.3,0.4,0.8,0.5,1.2,0.2c0.1,0,0.1-0.1,0.2-0.2c0.3-0.5,0.4-1,0.2-1.6
	c0.4,0.2,0.8,0.3,1.2,0.2c0.4-0.2,0.6-0.6,0.6-1c-0.1-0.3-0.5-0.5-0.8-0.4c-0.1,0-0.1,0.1-0.2,0.1c0.5-1.1,0.8-2.2,0.9-3.4
	c-1.2-0.2-2.3,0.4-2.8,1.5c-0.1-0.3-0.5-0.4-0.8-0.3h-0.1c-0.3,0.2-0.5,0.5-0.6,0.8c-0.2-0.3-0.8,0-0.7,0.3"/>
<path class="st3" d="M204.9,160.1c0.1,0.5,0.7,0.8,1.2,0.7c0.3-0.1,0.5-0.3,0.6-0.5c0,0.5,0.3,0.9,0.8,0.9h0.1
	c0.5,0,0.9-0.3,1.2-0.6c0.5-0.5,0.9-1.2,1.2-1.9c0.7,0.4,1.6,0.5,2.4,0.4c0.3,0,0.6-0.1,0.7-0.4c0-0.1,0-0.3-0.1-0.4
	c-0.1-0.3-0.2-0.5-0.4-0.8c-0.1-0.3-0.4-0.5-0.7-0.7c-0.3-0.1-0.7,0.1-0.7,0.4c-0.1-0.4-0.3-0.8-0.7-1.2c-0.3-0.3-0.9-0.3-1.2,0.1
	l0,0c-0.1-0.6-0.5-1-0.9-1.4c-0.2-0.1-0.4-0.2-0.6-0.2c-0.2,0.1-0.3,0.1-0.4,0.3c-0.6,0.6-1,1.2-1.5,1.9c0-0.2-0.1-0.4-0.3-0.5
	l-0.5,1.1c-0.3-0.1-0.6-0.2-0.9-0.2c-0.1,0-0.2,0-0.3,0.1c-0.2,0.1-0.2,0.5,0,0.7s0.4,0.3,0.7,0.4c0.1,0,0.1,0.1,0.1,0.2
	c0,0.2-0.2,0.2-0.3,0.4s-0.1,0.4,0,0.6c0.1,0.2,0.3,0.3,0.5,0.4"/>
<path class="st3" d="M176.1,159.7c0.3,0.4,0.8,0.6,1.3,0.3c0.1-0.1,0.2-0.2,0.3-0.3c-0.2,0.3-0.3,0.7-0.3,1.1c0,0.1,0,0.2,0.1,0.3
	s0.3,0.1,0.4,0.1c1.1,0.1,2.4,0,3-0.9c0.1-0.2,0.3-0.5,0.5-0.5c0.1,0,0.3,0,0.4,0c0.8,0,1.4-0.6,1.4-1.4l0,0c0-0.3-0.1-0.6-0.3-0.9
	c-0.2-0.4-0.3-0.7-0.5-1.1c-0.5-0.8-1.2-1.6-2-2.1c-0.3-0.2-0.6-0.3-0.9-0.3c-0.3,0-0.6,0.1-0.8,0.4c-0.2-0.3-0.6-0.2-0.9,0
	c-0.8,0.4-1.4,1-1.8,1.7c-0.4-0.3-1-0.2-1.3,0.3c-0.2,0.3-0.2,0.6-0.1,0.9c-0.2,0-0.6,0.1-0.5,0.4s0.4,0.3,0.7,0.4
	c0.7,0.3,0.9,1.4,1.6,1.3"/>
<path class="st3" d="M214.9,158.1c-0.6,0.3-0.8,1-0.5,1.6c0.2,0.3,0.5,0.6,0.8,0.6c-0.1,0.4,0.2,0.8,0.6,0.8h0.1
	c0.4,0,0.8-0.3,1-0.7s0.3-0.8,0.3-1.2c0,0.5,0.5,0.9,1,0.8c0.1,0,0.1,0,0.2,0c0.5-0.2,0.8-0.8,0.7-1.4c0.6,0.4,0.9,1.1,1.6,1.2
	c0.6,0,1.2-0.4,1.3-1s0-1.2-0.4-1.7c0.2-0.5,0.2-1,0.1-1.5c0-0.4-0.2-0.8-0.5-1.1c-0.3-0.2-0.8-0.2-1,0.2l0,0
	c-0.1-0.7-0.4-1.3-0.8-1.9c-0.1-0.2-0.2-0.3-0.4-0.4c-0.4-0.1-0.7,0-1,0.3c-0.5,0.4-0.8,0.8-1.1,1.3c-0.1-0.2-0.4-0.4-0.6-0.3
	c-0.2,0.1-0.5,0.2-0.6,0.4c-0.4,0.4-0.7,0.8-1,1.2c-0.2-0.2-0.4-0.2-0.6-0.1c-0.2,0.1-0.3,0.3-0.4,0.5c0,0.1-0.1,0.1-0.1,0.2
	c0,0.3,0.5,0.2,0.8,0.4c0.1,0.1,0.2,0.2,0.2,0.3l0.6,1.4"/>
<path class="st3" d="M184.9,159.5c-0.3-0.4-0.4-0.9-0.4-1.4c0.1-0.5,0.6-0.9,1-0.8c-0.2-0.3-0.4-0.6-0.4-1c-0.1-0.4,0-0.8,0.3-1
	c0.5-0.4,1.2,0,1.7,0.3c-0.2-0.7,0.1-1.4,0.7-1.8c0.2-0.2,0.5-0.2,0.8-0.2c0.3,0.1,0.5,0.3,0.5,0.6c-0.2-0.1-0.2-0.4,0-0.5l0,0
	c0.2-0.1,0.4-0.2,0.6-0.2c0.5,0,1,0.1,1.4,0.4c0.2,0.1,0.3,0.3,0.4,0.4c0.1,0.2,0,0.5-0.1,0.6c0.5,0,0.9,0.1,1.4,0.4
	c0.1,0,0.1,0.1,0.1,0.2c0,0.1-0.1,0.2-0.2,0.2l-0.8,0.4c0.4,0,0.6,0.6,0.4,1c-0.3,0.3-0.7,0.6-1.1,0.6c0.2,0.2,0.4,0.5,0.5,0.8
	c0,0.3-0.3,0.6-0.6,0.5c0-0.2,0.3-0.2,0.4,0c0.2,0.3,0.1,0.6-0.2,0.8c-0.3,0.1-0.6,0.2-0.9,0.2c-0.7,0-1.6,0-1.9-0.7
	c0.2,0.6,0,1.3-0.4,1.7c-0.5,0.4-1.4,0.2-1.5-0.5c-0.4,0-0.8-0.3-0.9-0.7c-0.2,0-0.4,0-0.6-0.2"/>
<path class="st3" d="M196.8,146.6c0.9-0.1,1.8-0.1,2.7,0c0.1,0,0.3,0,0.4,0.1c0.2,0.2-0.1,0.6-0.3,0.8l-0.9,0.6l1.1,1.4
	c0.1,0.1,0.2,0.2,0.2,0.4c0,0.3-0.6,0.3-0.8,0.5s-0.3,0.4-0.5,0.5s-0.5-0.1-0.7-0.4c-0.3-0.4-0.6-0.8-0.9-1.2c0,0.4,0,0.8-0.1,1.1
	c-0.1,0.4-0.5,0.6-0.9,0.6c-0.5,0-0.8-0.6-0.9-1.1c-0.3,0.4-0.8,0.4-1.1,0.2c-0.1,0-0.1-0.1-0.2-0.2c-0.3-0.4-0.3-1-0.1-1.5
	c-0.4,0.2-0.8,0.3-1.2,0.2s-0.6-0.6-0.5-1c0.1-0.3,0.5-0.5,0.8-0.4c0.1,0,0.2,0.1,0.2,0.1c-0.4-1-0.7-2.1-0.9-3.1
	c1.1-0.2,2.2,0.4,2.6,1.4c0.1-0.3,0.5-0.4,0.8-0.2s0.4,0.4,0.5,0.7c0.2-0.3,0.7,0,0.6,0.3"/>
<path class="st3" d="M190.2,150c-0.1,0.4-0.4,0.7-0.8,0.7c-0.4,0-0.8-0.2-0.9-0.6c0,0.4-0.3,0.8-0.7,0.9c0,0,0,0-0.1,0
	c-0.5,0-0.9-0.2-1.2-0.6c-0.5-0.5-0.9-1.1-1.1-1.8c-0.7,0.3-1.5,0.5-2.3,0.4c-0.3,0-0.6-0.1-0.7-0.4c0-0.1,0-0.3,0.1-0.4
	c0.1-0.3,0.2-0.5,0.4-0.8c0.1-0.3,0.4-0.5,0.6-0.6c0.3-0.1,0.7,0.1,0.7,0.4c0.1-0.4,0.3-0.8,0.6-1.1s0.8-0.3,1.1,0.1l0,0
	c0.1-0.5,0.4-1,0.9-1.3c0.2-0.1,0.3-0.2,0.5-0.2s0.3,0.1,0.4,0.3c0.5,0.5,1,1.1,1.4,1.8c0-0.2,0.1-0.3,0.3-0.4l0.5,1
	c0.3-0.1,0.6-0.2,0.9-0.2c0.1,0,0.2,0,0.3,0.1c0.2,0.1,0.1,0.5,0,0.7c-0.2,0.2-0.4,0.3-0.6,0.4c-0.1,0-0.1,0.1-0.1,0.2
	c0,0.1,0.2,0.2,0.3,0.4s0.1,0.4,0,0.6C190.6,149.8,190.4,149.9,190.2,150"/>
<path class="st3" d="M217.5,149.5c-0.3,0.4-0.8,0.5-1.2,0.3c-0.1-0.1-0.2-0.2-0.3-0.3c0.2,0.3,0.3,0.6,0.2,1c0,0.1,0,0.2-0.1,0.3
	s-0.2,0.1-0.4,0.1c-1,0.1-2.2,0-2.8-0.8c-0.1-0.2-0.2-0.4-0.5-0.5c-0.1,0-0.3,0-0.4,0c-0.7,0-1.3-0.6-1.3-1.3l0,0
	c0-0.3,0.1-0.6,0.3-0.9c0.2-0.4,0.3-0.7,0.5-1c0.5-0.8,1.1-1.5,1.9-1.9c0.3-0.2,0.5-0.3,0.9-0.3c0.3,0,0.6,0.1,0.8,0.4
	c0.2-0.3,0.6-0.2,0.8,0c0.7,0.4,1.3,1,1.8,1.6c0.4-0.3,1-0.2,1.2,0.2c0.2,0.3,0.2,0.6,0.1,0.9c0.2,0,0.5,0.1,0.5,0.4
	s-0.4,0.3-0.7,0.4c-0.6,0.3-0.9,1.3-1.5,1.2"/>
<path class="st3" d="M180.7,148.1c0.4,0.2,0.7,0.7,0.6,1.1c-0.1,0.5-0.4,0.8-0.9,0.9c0.1,0.4-0.2,0.7-0.6,0.8h-0.1
	c-0.4,0-0.8-0.3-0.9-0.7c-0.2-0.4-0.2-0.8-0.3-1.2c0,0.5-0.4,0.8-0.9,0.8c-0.1,0-0.1,0-0.2,0c-0.5-0.2-0.8-0.7-0.7-1.3
	c-0.5,0.4-0.9,1.1-1.5,1.2c-0.6,0-1.1-0.4-1.3-0.9c-0.1-0.6,0-1.2,0.4-1.6c-0.2-0.5-0.2-0.9-0.1-1.4c0-0.4,0.2-0.7,0.5-1
	c0.3-0.2,0.7-0.2,0.9,0.1c0,0,0,0.1,0.1,0.1c0.1-0.7,0.4-1.3,0.8-1.8c0.1-0.2,0.2-0.3,0.4-0.4c0.4-0.1,0.7,0,1,0.3
	c0.4,0.4,0.8,0.8,1.1,1.3c0.1-0.2,0.3-0.3,0.6-0.3c0.2,0.1,0.4,0.2,0.6,0.3c0.4,0.3,0.7,0.7,0.9,1.2c0.1-0.1,0.4-0.2,0.5-0.1
	c0.2,0.1,0.3,0.3,0.4,0.4c0,0.1,0.1,0.1,0.1,0.2c0,0.3-0.5,0.2-0.8,0.4c-0.1,0.1-0.1,0.2-0.2,0.3L180.7,148.1"/>
<path class="st3" d="M209.2,149.4c0.3-0.4,0.4-0.8,0.4-1.3s-0.5-0.9-1-0.7c0.2-0.3,0.3-0.6,0.4-1c0.1-0.4,0-0.8-0.3-1
	c-0.5-0.4-1.1,0-1.6,0.3c0.2-0.7-0.1-1.3-0.6-1.7c-0.2-0.1-0.5-0.2-0.7-0.2c-0.3,0.1-0.5,0.3-0.4,0.6c0.1-0.1,0.2-0.3,0-0.5l0,0
	c-0.2-0.1-0.4-0.2-0.6-0.2c-0.5,0-0.9,0.1-1.3,0.4c-0.2,0.1-0.3,0.2-0.4,0.4c-0.1,0.2,0,0.4,0.1,0.6c-0.5,0-0.9,0.1-1.3,0.3
	c-0.1,0.1-0.1,0.1-0.1,0.2s0.1,0.1,0.2,0.2l0.8,0.4c-0.4,0-0.6,0.6-0.4,0.9c0.3,0.3,0.6,0.5,1,0.6c-0.2,0.2-0.4,0.4-0.5,0.7
	c0,0.3,0.3,0.6,0.5,0.5c0-0.2-0.3-0.1-0.4,0c-0.2,0.3-0.1,0.6,0.2,0.7l0,0c0.3,0.1,0.6,0.2,0.9,0.2c0.7,0,1.5,0,1.8-0.7
	c-0.2,0.6-0.1,1.2,0.4,1.7c0.4,0.3,1,0.2,1.3-0.1c0.1-0.1,0.1-0.2,0.2-0.3c0.4,0.1,0.8-0.2,0.8-0.7l0,0
	C208.8,149.7,209,149.7,209.2,149.4"/>
<path class="st3" d="M149.2,146.6c0.9-0.1,1.8-0.1,2.7,0c0.1,0,0.3,0,0.4,0.1c0.2,0.2-0.1,0.6-0.3,0.8l-0.9,0.6l1.1,1.4
	c0.1,0.1,0.2,0.2,0.2,0.4c0,0.3-0.6,0.3-0.8,0.5s-0.3,0.4-0.5,0.5s-0.5-0.1-0.7-0.4c-0.3-0.4-0.6-0.8-0.9-1.2c0,0.4,0,0.8-0.1,1.1
	c-0.1,0.4-0.5,0.6-0.9,0.6c-0.5,0-0.8-0.6-0.9-1.1c-0.3,0.4-0.8,0.4-1.1,0.2c-0.1,0-0.1-0.1-0.2-0.2c-0.3-0.4-0.3-1-0.1-1.5
	c-0.4,0.2-0.8,0.3-1.2,0.2s-0.6-0.6-0.5-1c0.1-0.3,0.5-0.5,0.8-0.4c0.1,0,0.2,0.1,0.2,0.1c-0.4-1-0.7-2.1-0.9-3.1
	c1.1-0.2,2.2,0.4,2.6,1.4c0.1-0.3,0.5-0.4,0.8-0.2s0.4,0.4,0.5,0.7c0.2-0.3,0.7,0,0.6,0.3"/>
<path class="st3" d="M142.7,150c-0.1,0.4-0.4,0.7-0.8,0.7c-0.4,0-0.8-0.2-0.9-0.6c0,0.4-0.3,0.8-0.7,0.9c0,0,0,0-0.1,0
	c-0.5,0-0.9-0.2-1.2-0.6c-0.5-0.5-0.9-1.1-1.1-1.8c-0.7,0.3-1.5,0.5-2.3,0.4c-0.3,0-0.6-0.1-0.7-0.4c0-0.1,0-0.3,0.1-0.4
	c0.1-0.3,0.2-0.5,0.4-0.8c0.1-0.3,0.4-0.5,0.6-0.6c0.3-0.1,0.7,0.1,0.7,0.4c0.1-0.4,0.3-0.8,0.6-1.1s0.8-0.3,1.1,0.1l0,0
	c0.1-0.5,0.4-1,0.9-1.3c0.2-0.1,0.3-0.2,0.5-0.2s0.3,0.1,0.4,0.3c0.5,0.5,1,1.1,1.4,1.8c0-0.2,0.1-0.3,0.3-0.4l0.5,1
	c0.3-0.1,0.6-0.2,0.9-0.2c0.1,0,0.2,0,0.3,0.1c0.2,0.1,0.1,0.5,0,0.7c-0.2,0.2-0.4,0.3-0.6,0.4c-0.1,0-0.1,0.1-0.1,0.2
	c0,0.1,0.2,0.2,0.3,0.4s0.1,0.4,0,0.6C143.1,149.8,142.9,149.9,142.7,150"/>
<path class="st3" d="M170,149.5c-0.3,0.4-0.8,0.5-1.2,0.3c-0.1-0.1-0.2-0.2-0.3-0.3c0.2,0.3,0.3,0.6,0.2,1c0,0.1,0,0.2-0.1,0.3
	s-0.2,0.1-0.4,0.1c-1,0.1-2.2,0-2.8-0.8c-0.1-0.2-0.2-0.4-0.5-0.5c-0.1,0-0.3,0-0.4,0c-0.7,0-1.3-0.6-1.3-1.3l0,0
	c0-0.3,0.1-0.6,0.3-0.9c0.2-0.4,0.3-0.7,0.5-1c0.5-0.8,1.1-1.5,1.9-1.9c0.3-0.2,0.5-0.3,0.9-0.3c0.3,0,0.6,0.1,0.8,0.4
	c0.2-0.3,0.6-0.2,0.8,0c0.7,0.4,1.3,1,1.8,1.6c0.4-0.3,1-0.2,1.2,0.2c0.2,0.3,0.2,0.6,0.1,0.9c0.2,0,0.5,0.1,0.5,0.4
	s-0.4,0.3-0.7,0.4c-0.6,0.3-0.9,1.3-1.5,1.2"/>
<path class="st3" d="M133.2,148.1c0.4,0.2,0.7,0.7,0.6,1.1c-0.1,0.5-0.4,0.8-0.9,0.9c0.1,0.4-0.2,0.7-0.6,0.8h-0.1
	c-0.4,0-0.8-0.3-0.9-0.7c-0.2-0.4-0.2-0.8-0.3-1.2c0,0.5-0.4,0.8-0.9,0.8c-0.1,0-0.1,0-0.2,0c-0.5-0.2-0.8-0.7-0.7-1.3
	c-0.5,0.4-0.9,1.1-1.5,1.2c-0.6,0-1.1-0.4-1.3-0.9c-0.1-0.6,0-1.2,0.4-1.6c-0.2-0.5-0.2-0.9-0.1-1.4c0-0.4,0.2-0.7,0.5-1
	c0.3-0.2,0.7-0.2,0.9,0.1c0,0,0,0.1,0.1,0.1c0.1-0.7,0.4-1.3,0.8-1.8c0.1-0.2,0.2-0.3,0.4-0.4c0.4-0.1,0.7,0,1,0.3
	c0.4,0.4,0.8,0.8,1.1,1.3c0.1-0.2,0.3-0.3,0.6-0.3c0.2,0.1,0.4,0.2,0.6,0.3c0.4,0.3,0.7,0.7,0.9,1.2c0.1-0.1,0.4-0.2,0.5-0.1
	c0.2,0.1,0.3,0.3,0.4,0.4c0,0.1,0.1,0.1,0.1,0.2c0,0.3-0.5,0.2-0.8,0.4c-0.1,0.1-0.1,0.2-0.2,0.3L133.2,148.1"/>
<path class="st3" d="M161.7,149.4c0.3-0.4,0.4-0.8,0.4-1.3s-0.5-0.9-1-0.7c0.2-0.3,0.3-0.6,0.4-1c0.1-0.4,0-0.8-0.3-1
	c-0.5-0.4-1.1,0-1.6,0.3c0.1-0.6-0.1-1.3-0.6-1.6c-0.2-0.1-0.5-0.2-0.7-0.2c-0.3,0.1-0.5,0.3-0.4,0.6c0.1-0.1,0.2-0.3,0-0.5l0,0
	c-0.2-0.1-0.4-0.2-0.6-0.2c-0.5,0-0.9,0.1-1.3,0.4c-0.2,0.1-0.3,0.2-0.4,0.4c-0.1,0.2,0,0.4,0.1,0.6c-0.5,0-0.9,0.1-1.3,0.3
	c-0.1,0.1-0.1,0.1-0.1,0.2s0.1,0.1,0.2,0.2l0.8,0.4c-0.4,0-0.6,0.6-0.4,0.9c0.3,0.3,0.6,0.5,1,0.6c-0.2,0.2-0.4,0.4-0.5,0.7
	c0,0.3,0.3,0.6,0.5,0.5c0-0.2-0.3-0.1-0.4,0c-0.2,0.3-0.1,0.6,0.2,0.7l0,0c0.3,0.1,0.6,0.2,0.9,0.2c0.7,0,1.5,0,1.8-0.7
	c-0.2,0.6-0.1,1.2,0.4,1.7c0.4,0.3,1,0.2,1.3-0.1c0.1-0.1,0.1-0.2,0.2-0.3c0.4,0.1,0.8-0.2,0.8-0.7l0,0c0.2,0,0.4,0,0.6-0.2"/>
<path class="st3" d="M150.5,136.6c-0.9-0.1-1.7-0.1-2.6,0c-0.1,0-0.2,0.1-0.3,0.1c-0.2,0.2,0.1,0.5,0.3,0.7l0.9,0.6l-1.1,1.3
	c-0.1,0.1-0.2,0.2-0.2,0.4c0.1,0.3,0.5,0.3,0.8,0.4s0.3,0.4,0.5,0.5s0.5-0.1,0.7-0.3c0.3-0.4,0.6-0.8,0.8-1.2c0,0.3,0,0.7,0.1,1
	s0.4,0.6,0.8,0.6c0.5,0,0.8-0.6,0.9-1.1c0.3,0.3,0.8,0.4,1.1,0.1c0.1,0,0.1-0.1,0.1-0.1c0.3-0.4,0.3-0.9,0.1-1.4
	c0.3,0.2,0.7,0.3,1.1,0.1c0.4-0.1,0.6-0.5,0.5-0.9c-0.1-0.3-0.4-0.5-0.7-0.3c-0.1,0-0.1,0.1-0.2,0.1c0.4-1,0.7-2,0.8-3
	c-1.1-0.2-2.1,0.4-2.5,1.4c-0.1-0.3-0.5-0.4-0.8-0.2c-0.2,0.2-0.4,0.4-0.5,0.7c-0.2-0.2-0.7,0-0.6,0.3"/>
<path class="st3" d="M156.7,139.8c0.1,0.4,0.4,0.7,0.8,0.7c0.4,0,0.7-0.2,0.9-0.6c-0.1,0.4,0.3,0.8,0.8,0.8c0.4,0,0.8-0.2,1.1-0.6
	c0.5-0.5,0.9-1.1,1.1-1.8c0.7,0.3,1.4,0.5,2.1,0.4c0.3,0,0.6-0.1,0.6-0.4c0-0.1,0-0.3-0.1-0.4c-0.1-0.2-0.2-0.5-0.4-0.7
	c-0.1-0.3-0.3-0.5-0.6-0.6s-0.6,0.1-0.6,0.4c-0.1-0.4-0.3-0.8-0.6-1.1s-0.8-0.2-1.1,0.1l0,0c-0.1-0.5-0.4-0.9-0.8-1.2
	c-0.1-0.1-0.3-0.2-0.5-0.1c-0.1,0-0.3,0.1-0.4,0.2c-0.5,0.5-1,1.1-1.4,1.7c0-0.2-0.1-0.3-0.3-0.4l-0.5,1c-0.3-0.1-0.6-0.2-0.9-0.2
	c-0.1,0-0.2,0-0.2,0.1c-0.2,0.1-0.1,0.5,0,0.6s0.4,0.2,0.6,0.4c0.1,0,0.1,0.1,0.1,0.1c0,0.1-0.2,0.2-0.2,0.3c-0.1,0.2-0.1,0.4,0,0.6
	C156.4,139.5,156.6,139.6,156.7,139.8"/>
<path class="st3" d="M130.7,139.4c0.2,0.4,0.8,0.5,1.1,0.3c0.1-0.1,0.2-0.2,0.3-0.3c-0.2,0.3-0.3,0.6-0.2,1c0,0.1,0,0.2,0.1,0.3
	s0.2,0.1,0.4,0.1c1,0.1,2.1,0,2.7-0.8c0.1-0.2,0.2-0.4,0.4-0.5c0.1,0,0.2,0,0.4,0c0.7,0,1.2-0.5,1.2-1.2c0-0.3-0.1-0.6-0.2-0.8
	c-0.1-0.3-0.3-0.7-0.5-1c-0.4-0.8-1.1-1.4-1.8-1.9c-0.2-0.2-0.5-0.3-0.8-0.3s-0.6,0.1-0.7,0.4c-0.1-0.3-0.5-0.2-0.8,0
	c-0.7,0.4-1.3,0.9-1.7,1.6c-0.4-0.3-0.9-0.2-1.2,0.2c-0.2,0.3-0.2,0.6-0.1,0.9c-0.2,0-0.5,0.1-0.5,0.3s0.4,0.3,0.6,0.4
	c0.6,0.2,0.8,1.2,1.5,1.2"/>
<path class="st3" d="M165.7,138c-0.5,0.2-0.8,0.9-0.5,1.4c0.1,0.3,0.4,0.5,0.8,0.6c-0.1,0.3,0.2,0.7,0.5,0.7h0.1
	c0.4,0,0.7-0.3,0.9-0.6c0.2-0.4,0.2-0.7,0.2-1.1c0,0.4,0.4,0.8,0.9,0.7c0.1,0,0.1,0,0.2,0c0.5-0.2,0.7-0.7,0.6-1.2
	c0.5,0.4,0.9,1,1.5,1.1c0.6,0,1.1-0.3,1.2-0.9c0.1-0.5,0-1.1-0.3-1.6c0.2-0.4,0.2-0.9,0.1-1.3c0-0.4-0.2-0.7-0.5-1
	c-0.3-0.2-0.7-0.2-0.9,0.1c0,0,0,0.1-0.1,0.1c-0.1-0.6-0.4-1.2-0.7-1.7c-0.1-0.2-0.2-0.3-0.4-0.4c-0.3-0.1-0.7,0-0.9,0.3
	c-0.4,0.3-0.7,0.7-1,1.2c-0.1-0.2-0.3-0.3-0.5-0.3c-0.2,0.1-0.4,0.2-0.6,0.3c-0.4,0.3-0.7,0.7-0.9,1.1c-0.1-0.1-0.3-0.2-0.5-0.1
	c-0.2,0.1-0.3,0.2-0.4,0.4c0,0.1-0.1,0.1-0.1,0.2c0,0.3,0.5,0.2,0.7,0.4c0.1,0.1,0.1,0.2,0.2,0.3L165.7,138"/>
<path class="st3" d="M138.6,139.3c-0.3-0.4-0.4-0.8-0.4-1.2s0.5-0.9,0.9-0.7c-0.2-0.3-0.3-0.6-0.4-0.9c-0.1-0.3,0-0.7,0.3-0.9
	c0.4-0.3,1.1,0,1.6,0.2c-0.2-0.6,0.1-1.3,0.6-1.6c0.2-0.1,0.5-0.2,0.7-0.2c0.2,0.1,0.4,0.3,0.4,0.5c-0.1-0.1-0.2-0.3,0-0.5l0,0
	c0.2-0.1,0.4-0.2,0.6-0.2c0.5,0,0.9,0.1,1.3,0.4c0.2,0.1,0.3,0.2,0.4,0.4c0.1,0.2,0,0.4-0.1,0.5c0.4,0,0.9,0.1,1.2,0.3
	c0.1,0,0.1,0.1,0.1,0.2s-0.1,0.1-0.2,0.2l-0.7,0.4c0.4,0,0.5,0.6,0.3,0.9c-0.2,0.3-0.6,0.5-1,0.5c0.2,0.2,0.4,0.4,0.4,0.7
	s-0.3,0.6-0.5,0.5c0-0.1,0.3-0.1,0.4,0c0.2,0.2,0.1,0.6-0.2,0.7c-0.3,0.1-0.5,0.2-0.8,0.2c-0.6,0-1.4,0-1.8-0.6
	c0.2,0.6,0.1,1.2-0.4,1.6c-0.4,0.3-0.9,0.2-1.2-0.1c-0.1-0.1-0.1-0.2-0.2-0.3c-0.4,0-0.8-0.2-0.8-0.6c-0.2,0-0.4,0-0.5-0.2"/>
<path class="st3" d="M195.6,136.6c-0.9-0.1-1.7-0.1-2.6,0c-0.1,0-0.2,0.1-0.3,0.1c-0.2,0.2,0.1,0.5,0.3,0.7l0.8,0.6l-1.1,1.3
	c-0.1,0.1-0.2,0.2-0.2,0.4c0,0.3,0.5,0.3,0.8,0.4s0.3,0.4,0.5,0.5s0.5-0.1,0.7-0.3c0.3-0.4,0.6-0.8,0.8-1.2c0,0.3,0,0.7,0.1,1
	s0.4,0.6,0.8,0.6c0.5,0,0.8-0.6,0.9-1.1c0.3,0.3,0.8,0.4,1.1,0.1c0.1,0,0.1-0.1,0.1-0.1c0.3-0.4,0.3-0.9,0.1-1.4
	c0.3,0.2,0.8,0.3,1.1,0.1c0.4-0.1,0.6-0.5,0.5-0.9c-0.1-0.3-0.4-0.5-0.7-0.3c-0.1,0-0.1,0.1-0.2,0.1c0.4-1,0.7-2,0.8-3
	c-1.1-0.2-2.1,0.4-2.5,1.4c-0.1-0.3-0.4-0.4-0.7-0.2c0,0,0,0-0.1,0c-0.2,0.2-0.4,0.4-0.5,0.7c-0.2-0.2-0.7,0-0.6,0.3"/>
<path class="st3" d="M201.8,139.8c0.1,0.4,0.4,0.7,0.8,0.7c0.4,0,0.7-0.2,0.9-0.6c-0.1,0.4,0.3,0.8,0.8,0.8c0.4,0,0.8-0.2,1.1-0.6
	c0.5-0.5,0.8-1.1,1-1.8c0.7,0.3,1.4,0.5,2.2,0.4c0.3,0,0.6-0.1,0.6-0.4c0-0.1,0-0.3-0.1-0.4c-0.1-0.2-0.2-0.5-0.3-0.7
	c-0.1-0.3-0.3-0.5-0.6-0.6s-0.7,0.1-0.6,0.4c-0.1-0.4-0.3-0.8-0.6-1.1s-0.8-0.2-1.1,0.1l0,0c-0.1-0.5-0.4-0.9-0.8-1.2
	c-0.1-0.1-0.3-0.2-0.5-0.1c-0.1,0-0.3,0.1-0.4,0.2c-0.5,0.5-1,1.1-1.4,1.7c0-0.2-0.1-0.3-0.3-0.4l-0.5,1c-0.3-0.1-0.6-0.2-0.9-0.2
	c-0.1,0-0.2,0-0.3,0.1c-0.2,0.1-0.1,0.5,0,0.6s0.4,0.2,0.6,0.4c0.1,0,0.1,0.1,0.1,0.1c0,0.1-0.2,0.2-0.3,0.3c-0.1,0.2-0.1,0.4,0,0.6
	C201.5,139.5,201.6,139.6,201.8,139.8"/>
<path class="st3" d="M175.8,139.4c0.2,0.4,0.8,0.5,1.1,0.3c0.1-0.1,0.2-0.2,0.3-0.3c-0.2,0.3-0.3,0.6-0.2,1c0,0.1,0,0.2,0.1,0.3
	s0.2,0.1,0.4,0.1c1,0.1,2.1,0,2.7-0.8c0.1-0.2,0.2-0.4,0.5-0.5c0.1,0,0.2,0,0.4,0c0.7,0,1.2-0.5,1.2-1.2l0,0c0-0.3-0.1-0.6-0.2-0.8
	c-0.1-0.3-0.3-0.7-0.5-1c-0.4-0.8-1.1-1.4-1.8-1.9c-0.2-0.2-0.5-0.3-0.8-0.3s-0.6,0.1-0.8,0.4c-0.1-0.3-0.5-0.2-0.8,0
	c-0.7,0.4-1.3,0.9-1.7,1.6c-0.3-0.2-0.7-0.2-1,0.1s-0.4,0.7-0.2,1c-0.2,0-0.5,0.1-0.5,0.3s0.4,0.3,0.6,0.4c0.6,0.2,0.8,1.2,1.4,1.2"
	/>
<path class="st3" d="M210.8,138c-0.5,0.2-0.8,0.9-0.5,1.4c0.1,0.3,0.4,0.5,0.8,0.6c-0.1,0.3,0.2,0.7,0.5,0.7h0.1
	c0.4,0,0.7-0.3,0.9-0.6c0.2-0.4,0.2-0.7,0.2-1.1c0,0.4,0.4,0.8,0.9,0.7c0.1,0,0.1,0,0.2,0c0.5-0.2,0.8-0.7,0.6-1.2
	c0.5,0.4,0.9,1,1.5,1.1c0.6,0,1.1-0.3,1.2-0.9c0.1-0.5,0-1.1-0.3-1.6c0.2-0.4,0.2-0.9,0.1-1.3c0-0.4-0.2-0.7-0.5-1
	c-0.3-0.2-0.7-0.2-0.9,0.1c0,0,0,0.1-0.1,0.1c-0.1-0.6-0.4-1.2-0.7-1.7c-0.1-0.2-0.2-0.3-0.4-0.4c-0.3-0.1-0.7,0-0.9,0.3
	c-0.4,0.3-0.8,0.7-1,1.2c-0.1-0.2-0.3-0.3-0.6-0.3c-0.2,0.1-0.4,0.2-0.6,0.3c-0.4,0.3-0.7,0.7-0.9,1.1c-0.1-0.1-0.4-0.2-0.5-0.1
	c-0.2,0.1-0.3,0.3-0.4,0.4c0,0.1-0.1,0.1-0.1,0.2c0,0.3,0.5,0.2,0.7,0.4c0.1,0.1,0.1,0.2,0.2,0.3L210.8,138"/>
<path class="st3" d="M183.7,139.3c-0.3-0.4-0.4-0.8-0.4-1.2c0.1-0.4,0.5-0.9,0.9-0.7c-0.2-0.3-0.3-0.6-0.4-0.9
	c-0.1-0.3,0.1-0.7,0.3-0.9c0.4-0.3,1.1,0,1.5,0.2c-0.2-0.6,0.1-1.3,0.6-1.6c0.2-0.1,0.5-0.2,0.7-0.1c0.2,0.1,0.4,0.3,0.4,0.5
	c-0.1-0.1-0.2-0.3,0-0.5l0,0c0.2-0.1,0.4-0.2,0.6-0.2c0.4,0,0.9,0.1,1.3,0.4c0.2,0.1,0.3,0.2,0.4,0.4c0.1,0.2,0,0.4-0.1,0.5
	c0.4,0,0.8,0.1,1.2,0.3c0.1,0,0.1,0.1,0.1,0.2s-0.1,0.1-0.2,0.2l-0.7,0.4c0.4,0,0.5,0.6,0.3,0.9c-0.3,0.3-0.6,0.5-1,0.5
	c0.2,0.2,0.4,0.4,0.4,0.7s-0.3,0.6-0.5,0.5c0-0.1,0.3-0.1,0.4,0c0.2,0.2,0.1,0.6-0.1,0.7l0,0c-0.3,0.1-0.5,0.2-0.8,0.2
	c-0.7,0-1.5,0-1.8-0.6c0.2,0.6,0.1,1.2-0.4,1.6c-0.5,0.4-1.3,0.1-1.4-0.4c-0.4,0-0.8-0.2-0.8-0.6c-0.2,0-0.4,0-0.5-0.2"/>
<path class="st3" d="M194.4,126.6c0.8-0.1,1.6-0.1,2.4,0c0.1,0,0.2,0.1,0.3,0.1c0.2,0.2-0.1,0.5-0.3,0.7L196,128l1,1.3
	c0.1,0.1,0.2,0.2,0.1,0.4c0,0.3-0.5,0.2-0.8,0.4s-0.3,0.4-0.5,0.4s-0.5-0.1-0.6-0.3c-0.3-0.4-0.5-0.7-0.8-1.1c0,0.3,0,0.7-0.1,1
	s-0.4,0.6-0.8,0.6c-0.5,0-0.7-0.6-0.9-1c-0.2,0.3-0.7,0.4-1,0.1c-0.1,0-0.1-0.1-0.1-0.1c-0.3-0.4-0.3-0.9-0.1-1.3
	c-0.3,0.2-0.7,0.3-1.1,0.1c-0.4-0.1-0.6-0.5-0.5-0.9c0.1-0.3,0.4-0.4,0.7-0.3c0.1,0,0.1,0.1,0.2,0.1c-0.4-0.9-0.7-1.9-0.8-2.8
	c1-0.2,2,0.4,2.4,1.3c0.1-0.2,0.4-0.3,0.6-0.2c0,0,0,0,0.1,0c0.2,0.2,0.4,0.4,0.5,0.7c0.2-0.2,0.7,0,0.6,0.3"/>
<path class="st3" d="M188.5,129.6c-0.1,0.4-0.4,0.6-0.8,0.7c-0.4,0-0.7-0.2-0.9-0.5c0.1,0.4-0.3,0.8-0.7,0.8s-0.8-0.2-1.1-0.5
	c-0.5-0.5-0.8-1-1-1.7c-0.6,0.3-1.3,0.4-2.1,0.4c-0.2,0-0.5-0.1-0.6-0.4c0-0.1,0-0.2,0.1-0.4s0.2-0.4,0.3-0.7
	c0.1-0.3,0.3-0.5,0.6-0.6s0.6,0.1,0.6,0.4c0.1-0.4,0.3-0.7,0.6-1c0.3-0.2,0.7-0.2,1,0.1c0.1-0.5,0.4-0.9,0.8-1.2
	c0.1-0.1,0.3-0.2,0.5-0.1c0.1,0,0.3,0.1,0.3,0.2c0.5,0.5,0.9,1,1.3,1.6c0-0.2,0.1-0.3,0.3-0.4l0.4,0.9c0.3-0.1,0.5-0.2,0.8-0.2
	c0.1,0,0.2,0,0.2,0c0.2,0.1,0.1,0.4,0,0.6s-0.4,0.2-0.6,0.4s-0.1,0.1-0.1,0.1s0.1,0.2,0.2,0.3c0.1,0.2,0.1,0.4,0,0.5
	c-0.1,0.2-0.3,0.3-0.4,0.4"/>
<path class="st3" d="M213.2,129.3c-0.2,0.4-0.7,0.5-1.1,0.3c-0.1-0.1-0.2-0.1-0.3-0.3c0.2,0.3,0.3,0.6,0.2,0.9c0,0.1,0,0.2-0.1,0.2
	c-0.1,0.1-0.2,0.1-0.3,0.1c-0.9,0-2,0-2.6-0.7c-0.1-0.2-0.2-0.4-0.4-0.5c-0.1,0-0.2,0-0.3,0c-0.6,0-1.2-0.5-1.2-1.2l0,0
	c0-0.3,0.1-0.5,0.2-0.8c0.1-0.3,0.3-0.6,0.4-0.9c0.4-0.7,1-1.3,1.7-1.8c0.2-0.2,0.5-0.2,0.8-0.3c0.3,0,0.6,0.1,0.7,0.3
	c0.1-0.2,0.5-0.2,0.8,0c0.6,0.4,1.2,0.9,1.6,1.5c0.4-0.2,0.9-0.1,1.1,0.3c0.1,0.2,0.2,0.5,0.1,0.7c0.2,0,0.5,0.1,0.4,0.3
	s-0.4,0.3-0.6,0.4c-0.6,0.2-0.8,1.2-1.4,1.1"/>
<path class="st3" d="M180,128c0.5,0.2,0.7,0.8,0.5,1.3c-0.1,0.3-0.4,0.5-0.7,0.6c0.1,0.3-0.2,0.7-0.5,0.7h-0.1
	c-0.4,0-0.7-0.3-0.9-0.6c-0.1-0.3-0.2-0.7-0.2-1.1c0,0.4-0.4,0.7-0.8,0.7c-0.1,0-0.1,0-0.2,0c-0.5-0.2-0.7-0.7-0.6-1.1
	c-0.5,0.3-0.8,1-1.4,1.1c-0.5,0-1-0.3-1.1-0.9c-0.1-0.5,0-1.1,0.3-1.5c-0.2-0.4-0.2-0.9-0.1-1.3c0-0.4,0.2-0.7,0.5-0.9
	c0.3-0.2,0.7-0.2,0.9,0.1c0,0,0,0,0,0.1c0.1-0.6,0.3-1.2,0.7-1.7c0.1-0.1,0.2-0.3,0.4-0.3c0.3-0.1,0.6,0,0.9,0.2
	c0.4,0.3,0.7,0.7,0.9,1.1c0.1-0.2,0.3-0.3,0.5-0.3s0.4,0.1,0.5,0.3c0.3,0.3,0.6,0.7,0.9,1.1c0.1-0.1,0.3-0.2,0.5-0.1
	s0.3,0.2,0.4,0.4c0,0.1,0.1,0.1,0.1,0.2c0,0.3-0.5,0.2-0.7,0.3c-0.1,0.1-0.1,0.2-0.2,0.3L180,128"/>
<path class="st3" d="M205.7,129.1c0.2-0.3,0.4-0.8,0.4-1.2c0-0.4-0.5-0.8-0.9-0.6c0.2-0.3,0.3-0.6,0.4-0.9c0.1-0.3,0-0.7-0.3-0.9
	c-0.4-0.3-1,0-1.5,0.2c0.2-0.6-0.1-1.2-0.6-1.6c-0.2-0.1-0.4-0.2-0.7-0.2c-0.2,0-0.4,0.3-0.4,0.5c0.1-0.1,0.1-0.3,0-0.5l0,0
	c-0.2-0.1-0.3-0.2-0.5-0.2c-0.4,0-0.8,0.1-1.2,0.3c-0.2,0.1-0.3,0.2-0.4,0.4c-0.1,0.2,0,0.4,0.1,0.5c-0.4,0-0.8,0.1-1.1,0.3
	c-0.1,0-0.1,0.1-0.1,0.2s0.1,0.1,0.1,0.2l0.7,0.4c-0.4,0-0.5,0.5-0.3,0.8s0.6,0.5,0.9,0.5c-0.2,0.2-0.4,0.4-0.4,0.6
	c0,0.3,0.2,0.6,0.5,0.4c0-0.1-0.3-0.1-0.4,0c-0.2,0.2-0.1,0.5,0.1,0.7l0,0c0.2,0.1,0.5,0.2,0.8,0.2c0.6,0,1.4,0,1.7-0.6
	c-0.2,0.5-0.1,1.1,0.3,1.5c0.4,0.3,1.2,0.1,1.3-0.4c0.4,0,0.7-0.2,0.8-0.6l0,0c0.2,0,0.4,0,0.5-0.2"/>
<path class="st3" d="M151.6,126.6c0.8-0.1,1.6-0.1,2.4,0c0.1,0,0.2,0.1,0.3,0.1c0.2,0.2-0.1,0.5-0.3,0.7l-0.8,0.6l1,1.3
	c0.1,0.1,0.2,0.2,0.1,0.4c0,0.3-0.5,0.2-0.8,0.4s-0.3,0.4-0.5,0.4s-0.5-0.1-0.6-0.3c-0.3-0.4-0.5-0.7-0.8-1.1c0,0.3,0,0.7-0.1,1
	s-0.4,0.6-0.8,0.6c-0.5,0-0.7-0.6-0.9-1c-0.2,0.3-0.7,0.4-1,0.1c-0.1,0-0.1-0.1-0.1-0.1c-0.3-0.4-0.3-0.9-0.1-1.3
	c-0.3,0.2-0.7,0.3-1.1,0.1c-0.4-0.1-0.6-0.5-0.5-0.9c0.1-0.3,0.4-0.4,0.7-0.3c0.1,0,0.1,0.1,0.2,0.1c-0.4-0.9-0.7-1.9-0.8-2.8
	c1-0.2,2,0.4,2.4,1.3c0.1-0.2,0.4-0.3,0.6-0.2c0,0,0,0,0.1,0c0.2,0.2,0.4,0.4,0.5,0.7c0.2-0.2,0.6,0,0.6,0.3"/>
<path class="st3" d="M145.6,129.6c-0.1,0.5-0.5,0.7-1,0.6c-0.3-0.1-0.5-0.3-0.6-0.5c0.1,0.4-0.3,0.8-0.7,0.8s-0.8-0.2-1.1-0.5
	c-0.5-0.5-0.8-1-1-1.7c-0.6,0.3-1.3,0.4-2.1,0.4c-0.2,0-0.5-0.1-0.6-0.4c0-0.1,0-0.2,0.1-0.4c0.1-0.2,0.2-0.4,0.3-0.7
	c0.1-0.3,0.3-0.5,0.6-0.6s0.6,0.1,0.6,0.4c0.1-0.4,0.3-0.7,0.6-1c0.3-0.2,0.7-0.2,1,0.1c0.1-0.5,0.4-0.9,0.8-1.2
	c0.1-0.1,0.3-0.2,0.5-0.1c0.1,0,0.3,0.1,0.3,0.2c0.5,0.5,0.9,1,1.3,1.6c0-0.2,0.1-0.3,0.3-0.4l0.4,0.9c0.3-0.1,0.5-0.2,0.8-0.2
	c0.1,0,0.2,0,0.2,0c0.2,0.1,0.1,0.4,0,0.6s-0.4,0.2-0.6,0.4c-0.1,0-0.1,0.1-0.1,0.1c0,0.1,0.1,0.2,0.2,0.3c0.1,0.2,0.1,0.4,0,0.5
	c-0.1,0.2-0.3,0.3-0.4,0.4"/>
<path class="st3" d="M170.3,129.3c-0.2,0.4-0.7,0.5-1.1,0.3c-0.1-0.1-0.2-0.1-0.3-0.3c0.2,0.3,0.3,0.6,0.2,0.9c0,0.1,0,0.2-0.1,0.2
	c-0.1,0.1-0.2,0.1-0.3,0.1c-0.9,0-2,0-2.6-0.7c-0.1-0.2-0.2-0.4-0.4-0.5c-0.1,0-0.2,0-0.3,0c-0.6,0-1.2-0.5-1.2-1.2l0,0
	c0-0.3,0.1-0.5,0.2-0.8c0.1-0.3,0.3-0.6,0.4-0.9c0.4-0.7,1-1.3,1.7-1.8c0.2-0.2,0.5-0.2,0.8-0.3c0.3,0,0.6,0.1,0.7,0.3
	c0.1-0.2,0.5-0.2,0.8,0c0.6,0.4,1.2,0.9,1.6,1.5c0.4-0.2,0.9-0.1,1.1,0.3c0.1,0.2,0.2,0.5,0.1,0.7c0.2,0,0.5,0.1,0.4,0.3
	s-0.4,0.3-0.6,0.4c-0.6,0.2-0.8,1.2-1.4,1.1"/>
<path class="st3" d="M137.1,128c0.4,0.2,0.6,0.6,0.6,1c-0.1,0.4-0.4,0.8-0.8,0.9c0.1,0.3-0.1,0.7-0.5,0.7h-0.1
	c-0.4,0-0.7-0.3-0.9-0.6c-0.1-0.3-0.2-0.7-0.2-1.1c0,0.4-0.4,0.7-0.8,0.7c-0.1,0-0.1,0-0.2,0c-0.5-0.2-0.7-0.7-0.6-1.1
	c-0.5,0.3-0.8,1-1.4,1.1c-0.5,0-1-0.3-1.1-0.9c-0.1-0.5,0-1,0.3-1.5c-0.2-0.4-0.2-0.9-0.1-1.3c0-0.3,0.2-0.7,0.5-0.9
	c0.3-0.2,0.7-0.2,0.9,0.1c0,0,0,0,0,0.1c0.1-0.6,0.3-1.2,0.7-1.7c0.1-0.1,0.2-0.3,0.4-0.3c0.3-0.1,0.6,0,0.9,0.2
	c0.4,0.3,0.7,0.7,0.9,1.1c0.1-0.2,0.3-0.3,0.5-0.3s0.4,0.1,0.5,0.3c0.3,0.3,0.6,0.7,0.9,1.1c0.1-0.1,0.3-0.2,0.5-0.1
	s0.3,0.2,0.4,0.4c0,0.1,0.1,0.1,0.1,0.2c0,0.3-0.5,0.2-0.7,0.3c-0.1,0.1-0.1,0.2-0.2,0.3L137,128"/>
<path class="st3" d="M162.8,129.1c0.2-0.3,0.4-0.8,0.4-1.2c0-0.4-0.5-0.8-0.9-0.6c0.2-0.3,0.3-0.6,0.4-0.9c0.1-0.3,0-0.7-0.3-0.9
	c-0.4-0.3-1,0-1.5,0.2c0.2-0.6-0.1-1.2-0.6-1.6c-0.2-0.1-0.4-0.2-0.6-0.2c-0.2,0-0.4,0.2-0.4,0.5c0.2-0.1,0.1-0.4,0-0.5
	c-0.2-0.1-0.3-0.2-0.5-0.2c-0.4,0-0.8,0.1-1.2,0.3c-0.2,0.1-0.3,0.2-0.4,0.4c-0.1,0.2,0,0.4,0.1,0.5c-0.4,0-0.8,0.1-1.2,0.3
	c-0.1,0-0.1,0.1-0.1,0.2s0.1,0.1,0.1,0.2l0.7,0.4c-0.4,0-0.5,0.5-0.3,0.8s0.6,0.5,0.9,0.5c-0.2,0.2-0.4,0.4-0.4,0.6
	c0,0.3,0.2,0.6,0.5,0.4c0-0.1-0.3-0.1-0.4,0c-0.2,0.2-0.1,0.5,0.1,0.7l0,0c0.2,0.1,0.5,0.2,0.8,0.2c0.6,0,1.4,0,1.7-0.6
	c-0.2,0.5-0.1,1.1,0.4,1.5c0.4,0.3,0.9,0.2,1.2-0.1c0.1-0.1,0.1-0.2,0.1-0.3c0.4,0,0.7-0.2,0.8-0.6l0,0c0.2,0,0.4,0,0.5-0.2"/>
<polygon class="st4" points="157.6,102.2 154.2,94.2 146.2,90.9 138.2,94.2 134.8,102.2 134.8,113.7 157.5,113.7 "/>
<line class="st4" x1="134.9" y1="102.4" x2="157.9" y2="102.4"/>
<line class="st4" x1="134.9" y1="108.5" x2="157.5" y2="108.5"/>
<line class="st4" x1="146.4" y1="113.5" x2="146.4" y2="90.9"/>
<polygon class="st4" points="182.9,106.2 179.6,98.2 171.5,94.9 163.5,98.2 160.1,106.2 160.1,117.7 182.8,117.7 "/>
<line class="st4" x1="160.2" y1="106.4" x2="183.2" y2="106.4"/>
<line class="st4" x1="160.2" y1="112.5" x2="182.8" y2="112.5"/>
<line class="st4" x1="171.7" y1="117.5" x2="171.7" y2="94.9"/>
<polygon class="st4" points="208.2,102.2 204.9,94.2 196.8,90.9 188.8,94.2 185.5,102.2 185.5,113.7 208.1,113.7 "/>
<line class="st4" x1="185.5" y1="102.4" x2="208.6" y2="102.4"/>
<line class="st4" x1="185.5" y1="108.5" x2="208.2" y2="108.5"/>
<line class="st4" x1="197" y1="113.5" x2="197" y2="90.9"/>
<g class="st1">
	<path d="M110.6,9.9c-0.1,1.2-0.5,2.2-1.3,2.9s-1.9,1.1-3.2,1.1c-1.4,0-2.6-0.5-3.4-1.5c-0.8-1-1.2-2.3-1.2-4V7.6
		c0-1.1,0.2-2.1,0.6-2.9c0.4-0.8,0.9-1.5,1.6-1.9c0.7-0.4,1.5-0.7,2.5-0.7c1.3,0,2.3,0.4,3.1,1.1c0.8,0.7,1.3,1.7,1.4,3h-2.3
		c-0.1-0.7-0.3-1.3-0.6-1.6c-0.3-0.3-0.9-0.5-1.6-0.5c-0.8,0-1.4,0.3-1.7,0.8c-0.4,0.6-0.6,1.4-0.6,2.6v0.9c0,1.2,0.2,2.1,0.6,2.7
		c0.4,0.6,1,0.9,1.7,0.9c0.7,0,1.3-0.2,1.6-0.5c0.4-0.3,0.6-0.8,0.6-1.5H110.6z"/>
	<path d="M114.6,13.7h-2.3V2.3h2.3V13.7z"/>
	<path d="M121,9.5h-1.8v4.2h-2.3V2.3h4.2c1.3,0,2.4,0.3,3.1,0.9c0.7,0.6,1.1,1.4,1.1,2.5c0,0.8-0.2,1.4-0.5,1.9
		c-0.3,0.5-0.8,0.9-1.5,1.2l2.4,4.6v0.1h-2.5L121,9.5z M119.1,7.6h1.9c0.6,0,1-0.1,1.4-0.4c0.3-0.3,0.5-0.7,0.5-1.2
		c0-0.5-0.2-1-0.5-1.3c-0.3-0.3-0.8-0.5-1.4-0.5h-1.9V7.6z"/>
	<path d="M135.7,9.9c-0.1,1.2-0.5,2.2-1.3,2.9s-1.9,1.1-3.2,1.1c-1.4,0-2.6-0.5-3.4-1.5c-0.8-1-1.2-2.3-1.2-4V7.6
		c0-1.1,0.2-2.1,0.6-2.9c0.4-0.8,0.9-1.5,1.6-1.9c0.7-0.4,1.5-0.7,2.5-0.7c1.3,0,2.3,0.4,3.1,1.1c0.8,0.7,1.3,1.7,1.4,3h-2.3
		c-0.1-0.7-0.3-1.3-0.6-1.6c-0.3-0.3-0.9-0.5-1.6-0.5c-0.8,0-1.4,0.3-1.7,0.8c-0.4,0.6-0.6,1.4-0.6,2.6v0.9c0,1.2,0.2,2.1,0.6,2.7
		c0.4,0.6,1,0.9,1.7,0.9c0.7,0,1.3-0.2,1.6-0.5c0.4-0.3,0.6-0.8,0.6-1.5H135.7z"/>
	<path d="M145.8,2.3v7.5c0,1.2-0.4,2.2-1.2,3c-0.8,0.7-1.8,1.1-3.2,1.1c-1.3,0-2.4-0.4-3.1-1.1s-1.2-1.7-1.2-2.9V2.3h2.3v7.5
		c0,0.7,0.2,1.3,0.5,1.6c0.4,0.3,0.8,0.5,1.5,0.5c1.3,0,2-0.7,2-2.1V2.3H145.8z"/>
</g>
<g class="st1">
	<path d="M150.1,13.7h-2.3V2.3h2.3V13.7z"/>
</g>
<g class="st1">
	<path d="M160.6,4.2h-3.4v9.5h-2.3V4.2h-3.4V2.3h9.2V4.2z"/>
</g>
<g class="st1">
	<path d="M170.9,8.3c0,1.1-0.2,2.1-0.6,2.9c-0.4,0.8-1,1.5-1.7,2c-0.7,0.5-1.6,0.7-2.5,0.7c-0.9,0-1.8-0.2-2.5-0.7
		c-0.7-0.5-1.3-1.1-1.7-1.9c-0.4-0.8-0.6-1.8-0.6-2.9V7.8c0-1.1,0.2-2.1,0.6-3c0.4-0.9,1-1.5,1.7-2c0.7-0.5,1.6-0.7,2.5-0.7
		s1.8,0.2,2.5,0.7c0.7,0.5,1.3,1.1,1.7,2s0.6,1.8,0.6,2.9V8.3z M168.6,7.7c0-1.2-0.2-2.1-0.6-2.7c-0.4-0.6-1-0.9-1.8-0.9
		c-0.8,0-1.4,0.3-1.8,0.9c-0.4,0.6-0.6,1.5-0.6,2.7v0.6c0,1.2,0.2,2.1,0.6,2.7s1,1,1.8,1c0.8,0,1.4-0.3,1.8-0.9
		c0.4-0.6,0.6-1.5,0.6-2.7V7.7z"/>
	<path d="M178.4,10.7c0-0.4-0.2-0.8-0.5-1c-0.3-0.2-0.9-0.5-1.7-0.8c-0.8-0.3-1.4-0.5-1.9-0.8c-1.3-0.7-1.9-1.6-1.9-2.8
		c0-0.6,0.2-1.2,0.5-1.6c0.3-0.5,0.8-0.9,1.5-1.1c0.6-0.3,1.4-0.4,2.2-0.4c0.8,0,1.5,0.1,2.2,0.4c0.6,0.3,1.1,0.7,1.5,1.2
		c0.3,0.5,0.5,1.1,0.5,1.8h-2.3c0-0.5-0.2-0.9-0.5-1.2c-0.3-0.3-0.8-0.4-1.4-0.4c-0.6,0-1,0.1-1.3,0.4s-0.5,0.6-0.5,1
		c0,0.4,0.2,0.7,0.6,0.9s0.9,0.5,1.6,0.7c1.3,0.4,2.3,0.9,2.9,1.5s0.9,1.3,0.9,2.2c0,1-0.4,1.8-1.1,2.3c-0.7,0.6-1.7,0.8-3,0.8
		c-0.9,0-1.7-0.2-2.4-0.5c-0.7-0.3-1.3-0.8-1.6-1.3c-0.4-0.6-0.6-1.2-0.6-1.9h2.3c0,1.3,0.7,1.9,2.2,1.9c0.6,0,1-0.1,1.3-0.3
		S178.4,11.1,178.4,10.7z"/>
</g>
<g class="st1">
	<path d="M188.6,11.8h4.9v1.9h-7.2V2.3h2.3V11.8z"/>
</g>
<g class="st1">
	<path d="M203.6,8.3c0,1.1-0.2,2.1-0.6,2.9c-0.4,0.8-1,1.5-1.7,2c-0.7,0.5-1.6,0.7-2.5,0.7c-0.9,0-1.8-0.2-2.5-0.7
		c-0.7-0.5-1.3-1.1-1.7-1.9c-0.4-0.8-0.6-1.8-0.6-2.9V7.8c0-1.1,0.2-2.1,0.6-3c0.4-0.9,1-1.5,1.7-2c0.7-0.5,1.6-0.7,2.5-0.7
		s1.8,0.2,2.5,0.7c0.7,0.5,1.3,1.1,1.7,2c0.4,0.9,0.6,1.8,0.6,2.9V8.3z M201.3,7.7c0-1.2-0.2-2.1-0.6-2.7c-0.4-0.6-1-0.9-1.8-0.9
		c-0.8,0-1.4,0.3-1.8,0.9c-0.4,0.6-0.6,1.5-0.6,2.7v0.6c0,1.2,0.2,2.1,0.6,2.7c0.4,0.6,1,1,1.8,1c0.8,0,1.4-0.3,1.8-0.9
		s0.6-1.5,0.6-2.7V7.7z"/>
	<path d="M214.5,13.7h-2.3l-4.5-7.5v7.5h-2.3V2.3h2.3l4.5,7.5V2.3h2.3V13.7z"/>
	<path d="M225.4,12.3c-0.4,0.5-1,0.9-1.8,1.2c-0.8,0.3-1.6,0.4-2.5,0.4c-1,0-1.8-0.2-2.6-0.6s-1.3-1.1-1.7-1.9
		c-0.4-0.8-0.6-1.8-0.6-2.9V7.7c0-1.1,0.2-2.1,0.6-2.9c0.4-0.8,0.9-1.5,1.6-1.9c0.7-0.4,1.6-0.7,2.5-0.7c1.3,0,2.4,0.3,3.1,1
		c0.8,0.6,1.2,1.6,1.3,2.8h-2.3c-0.1-0.7-0.3-1.1-0.7-1.4C222.1,4.2,221.6,4,221,4c-0.8,0-1.4,0.3-1.8,0.9c-0.4,0.6-0.6,1.5-0.6,2.7
		v0.7c0,1.2,0.2,2.1,0.7,2.7c0.4,0.6,1.1,0.9,2,0.9c0.9,0,1.5-0.2,1.9-0.6v-2H221V7.7h4.4V12.3z"/>
	<path d="M236.5,8.3c0,1.1-0.2,2.1-0.6,2.9s-1,1.5-1.7,2c-0.7,0.5-1.6,0.7-2.5,0.7c-0.9,0-1.8-0.2-2.5-0.7s-1.3-1.1-1.7-1.9
		c-0.4-0.8-0.6-1.8-0.6-2.9V7.8c0-1.1,0.2-2.1,0.6-3c0.4-0.9,1-1.5,1.7-2c0.7-0.5,1.6-0.7,2.5-0.7c0.9,0,1.8,0.2,2.5,0.7
		c0.7,0.5,1.3,1.1,1.7,2s0.6,1.8,0.6,2.9V8.3z M234.2,7.7c0-1.2-0.2-2.1-0.6-2.7c-0.4-0.6-1-0.9-1.8-0.9c-0.8,0-1.4,0.3-1.8,0.9
		c-0.4,0.6-0.6,1.5-0.6,2.7v0.6c0,1.2,0.2,2.1,0.6,2.7s1,1,1.8,1c0.8,0,1.4-0.3,1.8-0.9s0.6-1.5,0.6-2.7V7.7z"/>
	<path d="M244,10.7c0-0.4-0.2-0.8-0.5-1c-0.3-0.2-0.9-0.5-1.7-0.8c-0.8-0.3-1.4-0.5-1.9-0.8c-1.3-0.7-1.9-1.6-1.9-2.8
		c0-0.6,0.2-1.2,0.5-1.6c0.3-0.5,0.8-0.9,1.5-1.1c0.6-0.3,1.4-0.4,2.2-0.4c0.8,0,1.5,0.1,2.2,0.4c0.6,0.3,1.1,0.7,1.5,1.2
		c0.3,0.5,0.5,1.1,0.5,1.8h-2.3c0-0.5-0.2-0.9-0.5-1.2c-0.3-0.3-0.8-0.4-1.4-0.4c-0.6,0-1,0.1-1.3,0.4s-0.5,0.6-0.5,1
		c0,0.4,0.2,0.7,0.6,0.9s0.9,0.5,1.6,0.7c1.3,0.4,2.3,0.9,2.9,1.5s0.9,1.3,0.9,2.2c0,1-0.4,1.8-1.1,2.3c-0.7,0.6-1.7,0.8-3,0.8
		c-0.9,0-1.7-0.2-2.4-0.5c-0.7-0.3-1.3-0.8-1.6-1.3c-0.4-0.6-0.6-1.2-0.6-1.9h2.3c0,1.3,0.7,1.9,2.2,1.9c0.6,0,1-0.1,1.3-0.3
		S244,11.1,244,10.7z"/>
</g>
<g class="st1">
	<path d="M117.4,29.3c0,1-0.2,1.8-0.5,2.6c-0.3,0.7-0.8,1.3-1.4,1.7c-0.6,0.4-1.3,0.6-2.1,0.6c-0.8,0-1.5-0.2-2.1-0.6
		s-1.1-0.9-1.4-1.6s-0.5-1.5-0.5-2.5v-0.7c0-1,0.2-1.8,0.5-2.5c0.3-0.7,0.8-1.3,1.4-1.7c0.6-0.4,1.3-0.6,2.1-0.6
		c0.8,0,1.5,0.2,2.1,0.6c0.6,0.4,1.1,0.9,1.4,1.7c0.3,0.7,0.5,1.6,0.5,2.6V29.3z M116.1,28.7c0-1.2-0.2-2.1-0.7-2.7s-1.1-0.9-2-0.9
		c-0.8,0-1.5,0.3-1.9,0.9c-0.5,0.6-0.7,1.5-0.7,2.6v0.7c0,1.1,0.2,2,0.7,2.7s1.1,1,2,1c0.8,0,1.5-0.3,1.9-0.9s0.7-1.5,0.7-2.7V28.7z
		"/>
	<path d="M127.1,34c-0.1-0.1-0.1-0.4-0.2-0.8c-0.6,0.6-1.3,0.9-2.1,0.9c-0.7,0-1.3-0.2-1.8-0.6s-0.7-0.9-0.7-1.6
		c0-0.8,0.3-1.4,0.9-1.8c0.6-0.4,1.4-0.6,2.4-0.6h1.2v-0.6c0-0.4-0.1-0.8-0.4-1.1s-0.6-0.4-1.2-0.4c-0.4,0-0.8,0.1-1.1,0.3
		s-0.5,0.5-0.5,0.8h-1.3c0-0.4,0.1-0.7,0.4-1.1c0.3-0.3,0.6-0.6,1.1-0.8s0.9-0.3,1.5-0.3c0.8,0,1.5,0.2,2,0.6c0.5,0.4,0.7,1,0.7,1.8
		v3.4c0,0.7,0.1,1.2,0.3,1.6V34H127.1z M125,33c0.4,0,0.8-0.1,1.1-0.3c0.4-0.2,0.6-0.5,0.8-0.8v-1.5h-1c-1.5,0-2.3,0.5-2.3,1.4
		c0,0.4,0.1,0.7,0.4,0.9C124.3,32.9,124.6,33,125,33z"/>
	<path d="M131.5,34h-1.3V23.5h1.3V34z"/>
	<path d="M133.5,24.6c0-0.2,0.1-0.4,0.2-0.5s0.3-0.2,0.6-0.2s0.4,0.1,0.6,0.2c0.1,0.1,0.2,0.3,0.2,0.5s-0.1,0.4-0.2,0.5
		c-0.1,0.1-0.3,0.2-0.6,0.2s-0.4-0.1-0.6-0.2S133.5,24.8,133.5,24.6z M134.8,34h-1.3v-7.4h1.3V34z"/>
	<path d="M138,26.6l0,0.8c0.5-0.6,1.3-1,2.2-1c1,0,1.7,0.4,2.1,1.2c0.2-0.4,0.6-0.6,1-0.9c0.4-0.2,0.9-0.3,1.4-0.3
		c1.6,0,2.4,0.9,2.4,2.6v5h-1.3v-4.9c0-0.5-0.1-0.9-0.4-1.2c-0.2-0.3-0.6-0.4-1.2-0.4c-0.5,0-0.9,0.1-1.2,0.4
		c-0.3,0.3-0.5,0.7-0.5,1.1V34h-1.3v-4.8c0-1.1-0.5-1.6-1.6-1.6c-0.8,0-1.4,0.4-1.7,1.1V34h-1.3v-7.4H138z"/>
	<path d="M152,34.1c-1,0-1.8-0.3-2.4-1s-0.9-1.5-0.9-2.6v-0.2c0-0.7,0.1-1.4,0.4-2c0.3-0.6,0.7-1,1.2-1.4s1-0.5,1.6-0.5
		c1,0,1.7,0.3,2.2,1s0.8,1.5,0.8,2.7v0.5h-5c0,0.7,0.2,1.3,0.6,1.8s0.9,0.7,1.5,0.7c0.4,0,0.8-0.1,1.1-0.3c0.3-0.2,0.6-0.4,0.8-0.7
		l0.8,0.6C154.2,33.6,153.3,34.1,152,34.1z M151.9,27.5c-0.5,0-0.9,0.2-1.3,0.6s-0.6,0.9-0.6,1.6h3.7v-0.1c0-0.6-0.2-1.1-0.5-1.5
		S152.4,27.5,151.9,27.5z"/>
	<path d="M157.5,26.6l0,0.9c0.6-0.7,1.3-1.1,2.2-1.1c1.5,0,2.3,0.9,2.3,2.6V34h-1.3v-4.9c0-0.5-0.1-0.9-0.4-1.2s-0.6-0.4-1.1-0.4
		c-0.4,0-0.8,0.1-1.1,0.3c-0.3,0.2-0.5,0.5-0.7,0.9V34h-1.3v-7.4H157.5z"/>
</g>
<g class="st1">
	<path d="M165.7,24.8v1.8h1.4v1h-1.4v4.6c0,0.3,0.1,0.5,0.2,0.7c0.1,0.1,0.3,0.2,0.6,0.2c0.1,0,0.3,0,0.6-0.1v1
		c-0.3,0.1-0.6,0.1-1,0.1c-0.6,0-1-0.2-1.3-0.5s-0.4-0.8-0.4-1.5v-4.6h-1.3v-1h1.3v-1.8H165.7z"/>
</g>
<g class="st1">
	<path d="M168,30.2c0-0.7,0.1-1.4,0.4-2c0.3-0.6,0.7-1,1.2-1.3s1.1-0.5,1.7-0.5c1,0,1.8,0.3,2.4,1c0.6,0.7,0.9,1.6,0.9,2.8v0.1
		c0,0.7-0.1,1.4-0.4,1.9s-0.7,1-1.2,1.3c-0.5,0.3-1.1,0.5-1.7,0.5c-1,0-1.8-0.3-2.4-1S168,31.5,168,30.2L168,30.2z M169.3,30.4
		c0,0.8,0.2,1.5,0.6,2c0.4,0.5,0.9,0.7,1.5,0.7c0.6,0,1.1-0.3,1.5-0.8s0.6-1.2,0.6-2.1c0-0.8-0.2-1.5-0.6-2s-0.9-0.8-1.5-0.8
		c-0.6,0-1.1,0.2-1.5,0.7C169.5,28.7,169.3,29.4,169.3,30.4z"/>
	<path d="M185.9,30.4c0,1.1-0.3,2-0.8,2.7s-1.2,1-2.1,1c-0.9,0-1.6-0.3-2.1-0.9v3.6h-1.3V26.6h1.1l0.1,0.8c0.5-0.6,1.2-1,2.1-1
		c0.9,0,1.6,0.3,2.1,1s0.8,1.6,0.8,2.8V30.4z M184.6,30.2c0-0.8-0.2-1.5-0.5-2s-0.8-0.7-1.4-0.7c-0.8,0-1.3,0.3-1.7,1v3.5
		c0.4,0.7,0.9,1,1.7,1c0.6,0,1.1-0.2,1.4-0.7C184.5,31.9,184.6,31.2,184.6,30.2z"/>
	<path d="M192,34c-0.1-0.1-0.1-0.4-0.2-0.8c-0.6,0.6-1.3,0.9-2.1,0.9c-0.7,0-1.3-0.2-1.8-0.6c-0.5-0.4-0.7-0.9-0.7-1.6
		c0-0.8,0.3-1.4,0.9-1.8c0.6-0.4,1.4-0.6,2.4-0.6h1.2v-0.6c0-0.4-0.1-0.8-0.4-1.1s-0.6-0.4-1.2-0.4c-0.4,0-0.8,0.1-1.1,0.3
		s-0.5,0.5-0.5,0.8h-1.3c0-0.4,0.1-0.7,0.4-1.1c0.3-0.3,0.6-0.6,1.1-0.8c0.4-0.2,0.9-0.3,1.5-0.3c0.8,0,1.5,0.2,2,0.6
		c0.5,0.4,0.7,1,0.7,1.8v3.4c0,0.7,0.1,1.2,0.3,1.6V34H192z M189.9,33c0.4,0,0.8-0.1,1.1-0.3s0.6-0.5,0.8-0.8v-1.5h-1
		c-1.5,0-2.3,0.5-2.3,1.4c0,0.4,0.1,0.7,0.4,0.9S189.5,33,189.9,33z"/>
	<path d="M199.3,32c0-0.3-0.1-0.6-0.4-0.8c-0.3-0.2-0.7-0.4-1.3-0.5c-0.6-0.1-1.1-0.3-1.5-0.5s-0.6-0.4-0.8-0.7
		c-0.2-0.3-0.3-0.6-0.3-0.9c0-0.6,0.3-1.1,0.8-1.5c0.5-0.4,1.2-0.6,1.9-0.6c0.8,0,1.5,0.2,2,0.6c0.5,0.4,0.8,1,0.8,1.7h-1.3
		c0-0.3-0.1-0.6-0.4-0.9s-0.7-0.4-1.1-0.4c-0.5,0-0.8,0.1-1.1,0.3s-0.4,0.5-0.4,0.8c0,0.3,0.1,0.5,0.4,0.7s0.7,0.3,1.3,0.4
		s1.1,0.3,1.5,0.5s0.7,0.4,0.9,0.7c0.2,0.3,0.3,0.6,0.3,1c0,0.7-0.3,1.2-0.8,1.6c-0.5,0.4-1.2,0.6-2,0.6c-0.6,0-1.1-0.1-1.6-0.3
		s-0.8-0.5-1.1-0.9s-0.4-0.8-0.4-1.2h1.3c0,0.4,0.2,0.8,0.5,1c0.3,0.2,0.7,0.4,1.2,0.4c0.5,0,0.9-0.1,1.1-0.3S199.3,32.3,199.3,32z"
		/>
	<path d="M206.4,32c0-0.3-0.1-0.6-0.4-0.8c-0.3-0.2-0.7-0.4-1.3-0.5c-0.6-0.1-1.1-0.3-1.5-0.5s-0.6-0.4-0.8-0.7
		c-0.2-0.3-0.3-0.6-0.3-0.9c0-0.6,0.3-1.1,0.8-1.5c0.5-0.4,1.2-0.6,1.9-0.6c0.8,0,1.5,0.2,2,0.6c0.5,0.4,0.8,1,0.8,1.7h-1.3
		c0-0.3-0.1-0.6-0.4-0.9s-0.7-0.4-1.1-0.4c-0.5,0-0.8,0.1-1.1,0.3s-0.4,0.5-0.4,0.8c0,0.3,0.1,0.5,0.4,0.7s0.7,0.3,1.3,0.4
		s1.1,0.3,1.5,0.5s0.7,0.4,0.9,0.7c0.2,0.3,0.3,0.6,0.3,1c0,0.7-0.3,1.2-0.8,1.6c-0.5,0.4-1.2,0.6-2,0.6c-0.6,0-1.1-0.1-1.6-0.3
		s-0.8-0.5-1.1-0.9s-0.4-0.8-0.4-1.2h1.3c0,0.4,0.2,0.8,0.5,1c0.3,0.2,0.7,0.4,1.2,0.4c0.5,0,0.9-0.1,1.1-0.3S206.4,32.3,206.4,32z"
		/>
	<path d="M213.8,34c-0.1-0.1-0.1-0.4-0.2-0.8c-0.6,0.6-1.3,0.9-2.1,0.9c-0.7,0-1.3-0.2-1.8-0.6c-0.5-0.4-0.7-0.9-0.7-1.6
		c0-0.8,0.3-1.4,0.9-1.8c0.6-0.4,1.4-0.6,2.4-0.6h1.2v-0.6c0-0.4-0.1-0.8-0.4-1.1s-0.6-0.4-1.2-0.4c-0.4,0-0.8,0.1-1.1,0.3
		s-0.5,0.5-0.5,0.8h-1.3c0-0.4,0.1-0.7,0.4-1.1c0.3-0.3,0.6-0.6,1.1-0.8c0.4-0.2,0.9-0.3,1.5-0.3c0.8,0,1.5,0.2,2,0.6
		c0.5,0.4,0.7,1,0.7,1.8v3.4c0,0.7,0.1,1.2,0.3,1.6V34H213.8z M211.8,33c0.4,0,0.8-0.1,1.1-0.3s0.6-0.5,0.8-0.8v-1.5h-1
		c-1.5,0-2.3,0.5-2.3,1.4c0,0.4,0.1,0.7,0.4,0.9S211.3,33,211.8,33z"/>
	<path d="M226.5,30.4c0,1.1-0.3,2-0.8,2.7s-1.2,1-2.1,1c-0.9,0-1.6-0.3-2.1-0.9v3.6h-1.3V26.6h1.1l0.1,0.8c0.5-0.6,1.2-1,2.1-1
		c0.9,0,1.6,0.3,2.1,1s0.8,1.6,0.8,2.8V30.4z M225.2,30.2c0-0.8-0.2-1.5-0.5-2s-0.8-0.7-1.4-0.7c-0.8,0-1.3,0.3-1.7,1v3.5
		c0.4,0.7,0.9,1,1.7,1c0.6,0,1.1-0.2,1.4-0.7C225,31.9,225.2,31.2,225.2,30.2z"/>
	<path d="M227.7,30.2c0-0.7,0.1-1.4,0.4-2s0.7-1,1.2-1.3c0.5-0.3,1.1-0.5,1.7-0.5c1,0,1.8,0.3,2.4,1c0.6,0.7,0.9,1.6,0.9,2.8v0.1
		c0,0.7-0.1,1.4-0.4,1.9c-0.3,0.6-0.7,1-1.2,1.3s-1.1,0.5-1.8,0.5c-1,0-1.8-0.3-2.4-1C228,32.4,227.7,31.5,227.7,30.2L227.7,30.2z
		 M229,30.4c0,0.8,0.2,1.5,0.6,2c0.4,0.5,0.9,0.7,1.5,0.7c0.6,0,1.1-0.3,1.5-0.8c0.4-0.5,0.6-1.2,0.6-2.1c0-0.8-0.2-1.5-0.6-2
		s-0.9-0.8-1.5-0.8c-0.6,0-1.1,0.2-1.5,0.7C229.2,28.7,229,29.4,229,30.4z"/>
	<path d="M239.5,27.7c-0.2,0-0.4,0-0.6,0c-0.8,0-1.4,0.4-1.7,1.1V34H236v-7.4h1.2l0,0.9c0.4-0.7,1-1,1.7-1c0.2,0,0.4,0,0.6,0.1V27.7
		z"/>
</g>
<g class="st1">
	<path d="M111.6,48.4l1.4-5h2l-2.5,7.4h-1.9l-2.5-7.4h2L111.6,48.4z"/>
</g>
<g class="st1">
	<path d="M120,50.8c-0.1-0.2-0.2-0.4-0.2-0.7c-0.5,0.5-1.1,0.8-1.8,0.8c-0.7,0-1.3-0.2-1.8-0.6c-0.5-0.4-0.7-0.9-0.7-1.6
		c0-0.8,0.3-1.4,0.9-1.8s1.4-0.6,2.5-0.6h0.9v-0.4c0-0.3-0.1-0.6-0.3-0.8c-0.2-0.2-0.4-0.3-0.8-0.3c-0.3,0-0.6,0.1-0.8,0.2
		c-0.2,0.2-0.3,0.4-0.3,0.7h-2c0-0.4,0.1-0.8,0.4-1.2s0.6-0.7,1.1-0.9s1-0.3,1.6-0.3c0.9,0,1.6,0.2,2.1,0.7s0.8,1.1,0.8,1.9v3.2
		c0,0.7,0.1,1.2,0.3,1.6v0.1H120z M118.3,49.4c0.3,0,0.6-0.1,0.8-0.2s0.4-0.3,0.5-0.5v-1.3H119c-1,0-1.5,0.3-1.6,1l0,0.1
		c0,0.2,0.1,0.4,0.3,0.6C117.8,49.3,118,49.4,118.3,49.4z M119.1,40.3h2.1l-1.9,2.1h-1.6L119.1,40.3z"/>
	<path d="M127.3,45.2c-0.3,0-0.5-0.1-0.7-0.1c-0.7,0-1.2,0.3-1.5,0.8v4.8h-2v-7.4h1.8l0.1,0.9c0.4-0.7,0.9-1,1.6-1
		c0.2,0,0.4,0,0.6,0.1L127.3,45.2z"/>
	<path d="M128.2,41.5c0-0.3,0.1-0.5,0.3-0.7s0.5-0.3,0.8-0.3c0.3,0,0.6,0.1,0.8,0.3c0.2,0.2,0.3,0.4,0.3,0.7c0,0.3-0.1,0.5-0.3,0.7
		c-0.2,0.2-0.5,0.3-0.8,0.3c-0.3,0-0.6-0.1-0.8-0.3C128.3,42,128.2,41.8,128.2,41.5z M130.3,50.8h-2v-7.4h2V50.8z"/>
	<path d="M131.6,47c0-0.7,0.1-1.4,0.4-2s0.7-1,1.2-1.3s1.1-0.5,1.8-0.5c1,0,1.8,0.3,2.4,0.9s1,1.4,1,2.5l0,0.5c0,1.1-0.3,2-0.9,2.7
		c-0.6,0.7-1.5,1-2.5,1s-1.9-0.3-2.5-1S131.6,48.3,131.6,47L131.6,47z M133.5,47.2c0,0.7,0.1,1.2,0.4,1.6c0.3,0.4,0.6,0.6,1.1,0.6
		c0.5,0,0.8-0.2,1.1-0.6c0.3-0.4,0.4-1,0.4-1.8c0-0.7-0.1-1.2-0.4-1.6s-0.6-0.6-1.1-0.6c-0.5,0-0.8,0.2-1.1,0.6
		S133.5,46.4,133.5,47.2z"/>
	<path d="M143.7,48.7c0-0.2-0.1-0.4-0.4-0.6s-0.6-0.3-1.1-0.4c-1.7-0.4-2.6-1.1-2.6-2.2c0-0.7,0.3-1.2,0.8-1.6
		c0.5-0.4,1.2-0.7,2.1-0.7c0.9,0,1.7,0.2,2.2,0.7s0.8,1,0.8,1.7h-2c0-0.3-0.1-0.5-0.3-0.7c-0.2-0.2-0.5-0.3-0.8-0.3
		c-0.3,0-0.6,0.1-0.8,0.2c-0.2,0.2-0.3,0.3-0.3,0.6c0,0.2,0.1,0.4,0.3,0.5s0.6,0.3,1,0.3s0.9,0.2,1.2,0.3c1,0.4,1.5,1,1.5,2
		c0,0.7-0.3,1.2-0.9,1.6c-0.6,0.4-1.3,0.6-2.2,0.6c-0.6,0-1.2-0.1-1.6-0.3c-0.5-0.2-0.8-0.5-1.1-0.9c-0.3-0.4-0.4-0.8-0.4-1.2h1.9
		c0,0.4,0.1,0.6,0.4,0.8c0.2,0.2,0.6,0.3,1,0.3c0.4,0,0.7-0.1,0.8-0.2C143.6,49.2,143.7,49,143.7,48.7z"/>
	<path d="M150.3,41.5c0-0.3,0.1-0.5,0.3-0.7s0.5-0.3,0.8-0.3c0.3,0,0.6,0.1,0.8,0.3c0.2,0.2,0.3,0.4,0.3,0.7c0,0.3-0.1,0.5-0.3,0.7
		c-0.2,0.2-0.5,0.3-0.8,0.3c-0.3,0-0.6-0.1-0.8-0.3C150.4,42,150.3,41.8,150.3,41.5z M152.4,50.8h-2v-7.4h2V50.8z"/>
	<path d="M155.8,43.4l0.1,0.9c0.5-0.7,1.2-1,2.1-1c0.8,0,1.4,0.2,1.7,0.7c0.4,0.5,0.6,1.1,0.6,2.1v4.8h-2V46c0-0.4-0.1-0.7-0.3-0.9
		c-0.2-0.2-0.5-0.3-0.9-0.3c-0.6,0-1,0.2-1.2,0.7v5.2h-2v-7.4H155.8z"/>
	<path d="M164.1,41.6v1.8h1.3v1.4h-1.3v3.7c0,0.3,0.1,0.5,0.2,0.6c0.1,0.1,0.3,0.2,0.6,0.2c0.2,0,0.4,0,0.6,0v1.5
		c-0.4,0.1-0.8,0.2-1.2,0.2c-1.4,0-2.1-0.7-2.1-2.1v-4H161v-1.4h1.1v-1.8H164.1z"/>
	<path d="M169.8,50.9c-1.1,0-1.9-0.3-2.6-1s-1-1.6-1-2.7v-0.2c0-0.7,0.1-1.4,0.4-2s0.7-1,1.2-1.4s1.1-0.5,1.8-0.5c1,0,1.8,0.3,2.4,1
		s0.9,1.5,0.9,2.7v0.8h-4.7c0.1,0.5,0.3,0.9,0.6,1.2s0.7,0.4,1.2,0.4c0.8,0,1.3-0.3,1.8-0.8l1,1.1c-0.3,0.4-0.7,0.7-1.2,1
		C170.9,50.8,170.4,50.9,169.8,50.9z M169.6,44.8c-0.4,0-0.7,0.1-0.9,0.4c-0.2,0.3-0.4,0.6-0.5,1.1h2.7v-0.2c0-0.4-0.1-0.8-0.4-1
		S170,44.8,169.6,44.8z"/>
	<path d="M178,45.2c-0.3,0-0.5-0.1-0.7-0.1c-0.7,0-1.2,0.3-1.5,0.8v4.8h-2v-7.4h1.8l0.1,0.9c0.4-0.7,0.9-1,1.6-1
		c0.2,0,0.4,0,0.6,0.1L178,45.2z"/>
	<path d="M180.8,43.4l0.1,0.8c0.5-0.6,1.2-1,2.1-1c0.9,0,1.6,0.4,1.9,1.1c0.5-0.8,1.2-1.1,2.2-1.1c0.8,0,1.4,0.2,1.8,0.7
		c0.4,0.5,0.6,1.2,0.6,2.1v4.7h-2v-4.7c0-0.4-0.1-0.7-0.2-0.9s-0.4-0.3-0.9-0.3c-0.6,0-1,0.3-1.2,0.8l0,5.1h-2v-4.7
		c0-0.4-0.1-0.7-0.3-0.9s-0.5-0.3-0.9-0.3c-0.6,0-1,0.2-1.2,0.7v5.2h-2v-7.4H180.8z"/>
	<path d="M194.3,50.9c-1.1,0-1.9-0.3-2.6-1s-1-1.6-1-2.7v-0.2c0-0.7,0.1-1.4,0.4-2c0.3-0.6,0.7-1,1.2-1.4c0.5-0.3,1.1-0.5,1.8-0.5
		c1,0,1.8,0.3,2.4,1c0.6,0.6,0.9,1.5,0.9,2.7v0.8h-4.7c0.1,0.5,0.3,0.9,0.6,1.2s0.7,0.4,1.2,0.4c0.8,0,1.3-0.3,1.8-0.8l1,1.1
		c-0.3,0.4-0.7,0.7-1.2,1C195.5,50.8,194.9,50.9,194.3,50.9z M194.1,44.8c-0.4,0-0.7,0.1-0.9,0.4c-0.2,0.3-0.4,0.6-0.5,1.1h2.7v-0.2
		c0-0.4-0.1-0.8-0.4-1C194.8,45,194.5,44.8,194.1,44.8z"/>
	<path d="M198.1,47c0-1.2,0.3-2.1,0.8-2.8s1.2-1,2.1-1c0.7,0,1.3,0.3,1.8,0.8v-3.8h2v10.5H203l-0.1-0.8c-0.5,0.6-1.1,0.9-1.9,0.9
		c-0.9,0-1.6-0.3-2.1-1S198.1,48.2,198.1,47z M200.1,47.2c0,0.7,0.1,1.2,0.4,1.6c0.2,0.4,0.6,0.6,1,0.6c0.6,0,1-0.3,1.3-0.8v-2.9
		c-0.2-0.5-0.7-0.8-1.3-0.8C200.6,44.9,200.1,45.6,200.1,47.2z"/>
	<path d="M206.2,41.5c0-0.3,0.1-0.5,0.3-0.7s0.5-0.3,0.8-0.3c0.3,0,0.6,0.1,0.8,0.3c0.2,0.2,0.3,0.4,0.3,0.7c0,0.3-0.1,0.5-0.3,0.7
		s-0.5,0.3-0.8,0.3c-0.3,0-0.6-0.1-0.8-0.3S206.2,41.8,206.2,41.5z M208.3,50.8h-2v-7.4h2V50.8z"/>
	<path d="M214.2,50.8c-0.1-0.2-0.2-0.4-0.2-0.7c-0.5,0.5-1.1,0.8-1.8,0.8c-0.7,0-1.3-0.2-1.8-0.6c-0.5-0.4-0.7-0.9-0.7-1.6
		c0-0.8,0.3-1.4,0.9-1.8s1.4-0.6,2.5-0.6h0.9v-0.4c0-0.3-0.1-0.6-0.3-0.8s-0.4-0.3-0.8-0.3c-0.3,0-0.6,0.1-0.8,0.2
		c-0.2,0.2-0.3,0.4-0.3,0.7h-2c0-0.4,0.1-0.8,0.4-1.2s0.6-0.7,1.1-0.9s1-0.3,1.6-0.3c0.9,0,1.6,0.2,2.1,0.7c0.5,0.5,0.8,1.1,0.8,1.9
		v3.2c0,0.7,0.1,1.2,0.3,1.6v0.1H214.2z M212.6,49.4c0.3,0,0.6-0.1,0.8-0.2s0.4-0.3,0.5-0.5v-1.3h-0.7c-1,0-1.5,0.3-1.6,1l0,0.1
		c0,0.2,0.1,0.4,0.3,0.6S212.3,49.4,212.6,49.4z M213.3,40.3h2.1l-1.9,2.1H212L213.3,40.3z"/>
	<path d="M221.5,45.2c-0.3,0-0.5-0.1-0.7-0.1c-0.7,0-1.2,0.3-1.5,0.8v4.8h-2v-7.4h1.8l0.1,0.9c0.4-0.7,0.9-1,1.6-1
		c0.2,0,0.4,0,0.6,0.1L221.5,45.2z"/>
	<path d="M222.4,41.5c0-0.3,0.1-0.5,0.3-0.7c0.2-0.2,0.5-0.3,0.8-0.3c0.3,0,0.6,0.1,0.8,0.3c0.2,0.2,0.3,0.4,0.3,0.7
		c0,0.3-0.1,0.5-0.3,0.7c-0.2,0.2-0.5,0.3-0.8,0.3c-0.3,0-0.6-0.1-0.8-0.3S222.4,41.8,222.4,41.5z M224.5,50.8h-2v-7.4h2V50.8z"/>
	<path d="M225.8,47c0-0.7,0.1-1.4,0.4-2c0.3-0.6,0.7-1,1.2-1.3s1.1-0.5,1.8-0.5c1,0,1.8,0.3,2.4,0.9s1,1.4,1,2.5l0,0.5
		c0,1.1-0.3,2-0.9,2.7c-0.6,0.7-1.5,1-2.5,1s-1.9-0.3-2.5-1C226.1,49.2,225.8,48.3,225.8,47L225.8,47z M227.7,47.2
		c0,0.7,0.1,1.2,0.4,1.6c0.3,0.4,0.6,0.6,1.1,0.6c0.5,0,0.8-0.2,1.1-0.6c0.3-0.4,0.4-1,0.4-1.8c0-0.7-0.1-1.2-0.4-1.6
		c-0.3-0.4-0.6-0.6-1.1-0.6c-0.5,0-0.8,0.2-1.1,0.6S227.7,46.4,227.7,47.2z"/>
	<path d="M237.9,48.7c0-0.2-0.1-0.4-0.4-0.6s-0.6-0.3-1.1-0.4c-1.7-0.4-2.6-1.1-2.6-2.2c0-0.7,0.3-1.2,0.8-1.6s1.2-0.7,2.1-0.7
		c0.9,0,1.7,0.2,2.2,0.7c0.6,0.4,0.8,1,0.8,1.7h-2c0-0.3-0.1-0.5-0.3-0.7c-0.2-0.2-0.5-0.3-0.8-0.3c-0.3,0-0.6,0.1-0.8,0.2
		c-0.2,0.2-0.3,0.3-0.3,0.6c0,0.2,0.1,0.4,0.3,0.5s0.6,0.3,1,0.3s0.9,0.2,1.2,0.3c1,0.4,1.5,1,1.5,2c0,0.7-0.3,1.2-0.9,1.6
		c-0.6,0.4-1.3,0.6-2.2,0.6c-0.6,0-1.2-0.1-1.6-0.3c-0.5-0.2-0.8-0.5-1.1-0.9c-0.3-0.4-0.4-0.8-0.4-1.2h1.9c0,0.4,0.1,0.6,0.4,0.8
		c0.2,0.2,0.6,0.3,1,0.3c0.4,0,0.7-0.1,0.8-0.2S237.9,49,237.9,48.7z"/>
</g>
<path d="M249.9,181.8v49.5h3.9v-16.6h37v16.6h54.5v-49.5H249.9z M266.7,205.1h-13.1v-3.3h13.1V205.1z M266.7,200.1h-13.1v-3.3h13.1
	V200.1z M266.7,195.1h-13.1v-3.3h13.1V195.1z M290.4,205.1h-13.1v-3.3h13.1V205.1z M290.4,200.1h-13.1v-3.3h13.1V200.1z
	 M290.4,195.1h-13.1v-3.3h13.1V195.1z M314.1,218.1H301v-3.3h13.1V218.1z M314.1,205.1H301v-3.3h13.1V205.1z M314.1,200.1H301v-3.3
	h13.1V200.1z M314.1,195.1H301v-3.3h13.1V195.1z M337.8,218.1h-13.1v-3.3h13.1V218.1z M337.8,205.1h-13.1v-3.3h13.1V205.1z
	 M337.8,200.1h-13.1v-3.3h13.1V200.1z M337.8,195.1h-13.1v-3.3h13.1V195.1z"/>
<polyline points="249.8,182.7 273.8,174.7 273.8,182.7 "/>
<polyline points="273.6,182.7 297.6,174.7 297.6,182.7 "/>
<polyline points="297.5,182.7 321.5,174.7 321.5,182.7 "/>
<polyline points="321.3,182.7 345.3,174.7 345.3,182.7 "/>
<g>
	<g class="st1">
		<path class="st2" d="M269.4,246c-0.1,1.1-0.5,1.9-1.2,2.5c-0.7,0.6-1.6,0.9-2.8,0.9c-1.3,0-2.3-0.4-3-1.3s-1.1-2-1.1-3.5V244
			c0-1,0.2-1.8,0.5-2.5c0.3-0.7,0.8-1.3,1.4-1.7c0.6-0.4,1.3-0.6,2.2-0.6c1.1,0,2.1,0.3,2.7,0.9s1.1,1.5,1.2,2.6h-2
			c0-0.6-0.2-1.1-0.5-1.4c-0.3-0.3-0.8-0.4-1.4-0.4c-0.7,0-1.2,0.2-1.5,0.7c-0.3,0.5-0.5,1.2-0.5,2.3v0.8c0,1.1,0.2,1.9,0.5,2.4
			c0.3,0.5,0.8,0.7,1.5,0.7c0.6,0,1.1-0.1,1.4-0.4s0.5-0.7,0.5-1.3H269.4z"/>
		<path class="st2" d="M276.6,245h-3.9v2.7h4.6v1.6h-6.6v-10h6.6v1.7h-4.6v2.4h3.9V245z"/>
	</g>
</g>
<g>
	<g class="st1">
		<path class="st2" d="M286.5,249.3h-2l-4-6.5v6.5h-2v-10h2l4,6.6v-6.6h2V249.3z"/>
	</g>
</g>
<g>
	<g class="st1">
		<path class="st2" d="M295.5,241h-3v8.3h-2V241h-3v-1.7h8V241z"/>
		<path class="st2" d="M300.3,245.6h-1.6v3.6h-2v-10h3.7c1.2,0,2.1,0.3,2.7,0.8c0.6,0.5,0.9,1.3,0.9,2.2c0,0.7-0.1,1.2-0.4,1.7
			s-0.7,0.8-1.3,1.1l2.1,4.1v0.1h-2.2L300.3,245.6z M298.7,244h1.6c0.5,0,0.9-0.1,1.2-0.4c0.3-0.3,0.4-0.6,0.4-1.1
			c0-0.5-0.1-0.8-0.4-1.1s-0.7-0.4-1.2-0.4h-1.6V244z"/>
		<path class="st2" d="M313.6,244.5c0,1-0.2,1.8-0.5,2.6s-0.8,1.3-1.5,1.7c-0.6,0.4-1.4,0.6-2.2,0.6c-0.8,0-1.5-0.2-2.2-0.6
			s-1.1-1-1.5-1.7s-0.5-1.6-0.5-2.5v-0.5c0-1,0.2-1.8,0.5-2.6s0.8-1.3,1.5-1.7s1.4-0.6,2.2-0.6s1.6,0.2,2.2,0.6s1.1,1,1.5,1.7
			s0.5,1.6,0.5,2.6V244.5z M311.5,244.1c0-1-0.2-1.8-0.6-2.4c-0.4-0.5-0.9-0.8-1.6-0.8c-0.7,0-1.2,0.3-1.6,0.8
			c-0.4,0.5-0.6,1.3-0.6,2.4v0.5c0,1,0.2,1.8,0.6,2.4c0.4,0.6,0.9,0.8,1.6,0.8c0.7,0,1.2-0.3,1.6-0.8s0.6-1.3,0.6-2.4V244.1z"/>
		<path class="st2" d="M318.5,249.3v-10h3c0.9,0,1.6,0.2,2.3,0.6s1.2,1,1.6,1.7c0.4,0.7,0.6,1.6,0.6,2.5v0.5c0,0.9-0.2,1.7-0.6,2.5
			c-0.4,0.7-0.9,1.3-1.6,1.7s-1.5,0.6-2.3,0.6H318.5z M320.6,241v6.6h1c0.8,0,1.4-0.3,1.8-0.8c0.4-0.5,0.6-1.3,0.6-2.2v-0.5
			c0-1-0.2-1.8-0.6-2.3c-0.4-0.5-1-0.8-1.8-0.8H320.6z"/>
		<path class="st2" d="M333.5,245h-3.9v2.7h4.6v1.6h-6.6v-10h6.6v1.7h-4.6v2.4h3.9V245z"/>
	</g>
</g>
<g>
	<g class="st1">
		<path class="st2" d="M252,266.1v-10h3c0.9,0,1.6,0.2,2.3,0.6s1.2,1,1.6,1.7c0.4,0.7,0.6,1.6,0.6,2.5v0.5c0,0.9-0.2,1.7-0.6,2.5
			c-0.4,0.7-0.9,1.3-1.6,1.7s-1.5,0.6-2.3,0.6H252z M254.1,257.8v6.6h1c0.8,0,1.4-0.3,1.8-0.8c0.4-0.5,0.6-1.3,0.6-2.2v-0.5
			c0-1-0.2-1.8-0.6-2.3c-0.4-0.5-1-0.8-1.8-0.8H254.1z"/>
		<path class="st2" d="M263.2,266.1h-2v-10h2V266.1z"/>
		<path class="st2" d="M270.2,263.5c0-0.4-0.1-0.7-0.4-0.9c-0.3-0.2-0.8-0.4-1.5-0.7c-0.7-0.2-1.3-0.5-1.7-0.7
			c-1.1-0.6-1.7-1.4-1.7-2.5c0-0.5,0.2-1,0.5-1.4s0.7-0.8,1.3-1c0.6-0.2,1.2-0.4,1.9-0.4c0.7,0,1.3,0.1,1.9,0.4s1,0.6,1.3,1.1
			c0.3,0.5,0.5,1,0.5,1.6h-2c0-0.5-0.1-0.8-0.4-1.1c-0.3-0.3-0.7-0.4-1.2-0.4c-0.5,0-0.9,0.1-1.2,0.3s-0.4,0.5-0.4,0.8
			c0,0.3,0.2,0.6,0.5,0.8c0.3,0.2,0.8,0.4,1.4,0.6c1.2,0.4,2,0.8,2.5,1.3s0.8,1.2,0.8,1.9c0,0.9-0.3,1.5-1,2s-1.5,0.7-2.6,0.7
			c-0.8,0-1.4-0.1-2.1-0.4c-0.6-0.3-1.1-0.7-1.4-1.2c-0.3-0.5-0.5-1.1-0.5-1.7h2c0,1.1,0.7,1.6,1.9,1.6c0.5,0,0.9-0.1,1.1-0.3
			C270.1,264.1,270.2,263.8,270.2,263.5z"/>
		<path class="st2" d="M281,257.8h-3v8.3h-2v-8.3h-3v-1.7h8V257.8z"/>
		<path class="st2" d="M285.8,262.4h-1.6v3.6h-2v-10h3.7c1.2,0,2.1,0.3,2.7,0.8c0.6,0.5,0.9,1.3,0.9,2.2c0,0.7-0.1,1.2-0.4,1.7
			s-0.7,0.8-1.3,1.1l2.1,4.1v0.1h-2.2L285.8,262.4z M284.2,260.8h1.6c0.5,0,0.9-0.1,1.2-0.4c0.3-0.3,0.4-0.6,0.4-1.1
			c0-0.5-0.1-0.8-0.4-1.1c-0.3-0.3-0.7-0.4-1.2-0.4h-1.6V260.8z"/>
		<path class="st2" d="M293.2,266.1h-2v-10h2V266.1z"/>
		<path class="st2" d="M295.1,266.1v-10h3.5c1.2,0,2.1,0.2,2.7,0.7s0.9,1.1,0.9,2c0,0.5-0.1,0.9-0.4,1.3c-0.2,0.4-0.6,0.6-1,0.8
			c0.5,0.1,0.9,0.4,1.2,0.8c0.3,0.4,0.4,0.9,0.4,1.4c0,1-0.3,1.7-0.9,2.2c-0.6,0.5-1.5,0.7-2.6,0.8H295.1z M297.1,260.3h1.5
			c1,0,1.5-0.4,1.5-1.2c0-0.5-0.1-0.8-0.4-1s-0.7-0.3-1.2-0.3h-1.4V260.3z M297.1,261.7v2.7h1.7c0.5,0,0.9-0.1,1.1-0.3
			c0.3-0.2,0.4-0.5,0.4-1c0-0.9-0.5-1.4-1.4-1.4H297.1z"/>
		<path class="st2" d="M311.4,256.1v6.6c0,1.1-0.3,2-1,2.6c-0.7,0.6-1.6,1-2.8,1c-1.2,0-2.1-0.3-2.7-0.9c-0.7-0.6-1-1.5-1-2.5v-6.6
			h2v6.6c0,0.7,0.2,1.1,0.5,1.4s0.7,0.4,1.3,0.4c1.1,0,1.7-0.6,1.7-1.8v-6.6H311.4z"/>
		<path class="st2" d="M315.2,266.1h-2v-10h2V266.1z"/>
		<path class="st2" d="M324.8,262.8c-0.1,1.1-0.5,1.9-1.2,2.5c-0.7,0.6-1.6,0.9-2.8,0.9c-1.3,0-2.3-0.4-3-1.3s-1.1-2-1.1-3.5v-0.6
			c0-1,0.2-1.8,0.5-2.5c0.3-0.7,0.8-1.3,1.4-1.7c0.6-0.4,1.3-0.6,2.2-0.6c1.1,0,2.1,0.3,2.7,0.9s1.1,1.5,1.2,2.6h-2
			c0-0.6-0.2-1.1-0.5-1.4c-0.3-0.3-0.8-0.4-1.4-0.4c-0.7,0-1.2,0.2-1.5,0.7c-0.3,0.5-0.5,1.2-0.5,2.3v0.8c0,1.1,0.2,1.9,0.5,2.4
			c0.3,0.5,0.8,0.7,1.5,0.7c0.6,0,1.1-0.1,1.4-0.4s0.5-0.7,0.5-1.3H324.8z M321.6,266l-0.1,0.4c0.7,0.1,1,0.5,1,1.2
			c0,0.5-0.2,0.9-0.6,1.2c-0.4,0.3-1,0.4-1.7,0.4l0-1.1c0.5,0,0.8-0.2,0.8-0.6c0-0.2-0.1-0.3-0.2-0.4c-0.2-0.1-0.4-0.1-0.7-0.1
			l0.2-1H321.6z"/>
	</g>
</g>
<g>
	<g class="st1">
		<path class="st2" d="M331.7,264h-3.6l-0.7,2.1h-2.2l3.7-10h1.9l3.7,10h-2.2L331.7,264z M332.5,253.6c0,0.5-0.1,0.9-0.4,1.3
			s-0.7,0.5-1.1,0.5c-0.2,0-0.3,0-0.5-0.1c-0.1,0-0.3-0.1-0.6-0.2c-0.2-0.1-0.4-0.2-0.5-0.2c-0.1,0-0.2,0-0.3,0
			c-0.2,0-0.3,0.1-0.4,0.2c-0.1,0.1-0.2,0.3-0.2,0.5l-1.1-0.1c0-0.5,0.1-0.9,0.4-1.3c0.3-0.4,0.7-0.5,1.1-0.5c0.1,0,0.3,0,0.4,0.1
			c0.1,0,0.3,0.1,0.6,0.2c0.3,0.1,0.5,0.2,0.6,0.2s0.2,0,0.3,0c0.2,0,0.3-0.1,0.4-0.2s0.2-0.3,0.2-0.5L332.5,253.6z M328.7,262.4
			h2.5l-1.2-3.7L328.7,262.4z"/>
	</g>
</g>
<g>
	<g class="st1">
		<path class="st2" d="M343.4,261.3c0,1-0.2,1.8-0.5,2.6s-0.8,1.3-1.5,1.7c-0.6,0.4-1.4,0.6-2.2,0.6c-0.8,0-1.5-0.2-2.2-0.6
			s-1.1-1-1.5-1.7s-0.5-1.6-0.5-2.5v-0.5c0-1,0.2-1.8,0.5-2.6s0.8-1.3,1.5-1.7c0.6-0.4,1.4-0.6,2.2-0.6s1.6,0.2,2.2,0.6
			c0.6,0.4,1.1,1,1.5,1.7s0.5,1.6,0.5,2.6V261.3z M341.4,260.9c0-1-0.2-1.8-0.6-2.4c-0.4-0.5-0.9-0.8-1.6-0.8
			c-0.7,0-1.2,0.3-1.6,0.8c-0.4,0.5-0.6,1.3-0.6,2.4v0.5c0,1,0.2,1.8,0.6,2.4c0.4,0.6,0.9,0.8,1.6,0.8c0.7,0,1.2-0.3,1.6-0.8
			c0.4-0.5,0.6-1.3,0.6-2.4V260.9z"/>
	</g>
</g>
<g>
	<g class="st1">
		<path class="st2" d="M234.3,401.3l2.5,7.2l2.5-7.2h2.7v10h-2v-2.7l0.2-4.7l-2.7,7.4h-1.4l-2.7-7.4l0.2,4.7v2.7h-2v-10H234.3z"/>
		<path class="st2" d="M249.7,407h-3.9v2.7h4.6v1.6h-6.6v-10h6.6v1.7h-4.6v2.4h3.9V407z"/>
		<path class="st2" d="M255.3,407.6h-1.6v3.6h-2v-10h3.7c1.2,0,2.1,0.3,2.7,0.8c0.6,0.5,0.9,1.3,0.9,2.2c0,0.7-0.1,1.2-0.4,1.7
			s-0.7,0.8-1.3,1.1l2.1,4.1v0.1h-2.2L255.3,407.6z M253.6,406h1.6c0.5,0,0.9-0.1,1.2-0.4c0.3-0.3,0.4-0.6,0.4-1.1
			c0-0.5-0.1-0.8-0.4-1.1c-0.3-0.3-0.7-0.4-1.2-0.4h-1.6V406z"/>
		<path class="st2" d="M268.2,408c-0.1,1.1-0.5,1.9-1.2,2.5s-1.6,0.9-2.8,0.9c-1.3,0-2.3-0.4-3-1.3c-0.7-0.9-1.1-2-1.1-3.5V406
			c0-1,0.2-1.8,0.5-2.5c0.3-0.7,0.8-1.3,1.4-1.7s1.3-0.6,2.2-0.6c1.1,0,2.1,0.3,2.7,0.9c0.7,0.6,1.1,1.5,1.2,2.6h-2
			c-0.1-0.6-0.2-1.1-0.5-1.4c-0.3-0.3-0.8-0.4-1.4-0.4c-0.7,0-1.2,0.2-1.5,0.7c-0.3,0.5-0.5,1.2-0.5,2.3v0.8c0,1.1,0.2,1.9,0.5,2.4
			c0.3,0.5,0.8,0.7,1.5,0.7c0.6,0,1.1-0.1,1.4-0.4c0.3-0.3,0.5-0.7,0.5-1.3H268.2z"/>
		<path class="st2" d="M275.1,409.2h-3.6l-0.7,2.1h-2.2l3.7-10h1.9l3.7,10h-2.2L275.1,409.2z M272.1,407.6h2.5l-1.2-3.7L272.1,407.6
			z"/>
		<path class="st2" d="M278.8,411.3v-10h3c0.9,0,1.6,0.2,2.3,0.6s1.2,1,1.6,1.7s0.6,1.6,0.6,2.5v0.5c0,0.9-0.2,1.7-0.6,2.5
			c-0.4,0.7-0.9,1.3-1.6,1.7c-0.7,0.4-1.5,0.6-2.3,0.6H278.8z M280.9,403v6.6h1c0.8,0,1.4-0.3,1.8-0.8c0.4-0.5,0.6-1.3,0.6-2.2v-0.5
			c0-1-0.2-1.8-0.6-2.3c-0.4-0.5-1-0.8-1.8-0.8H280.9z"/>
		<path class="st2" d="M295.9,406.5c0,1-0.2,1.8-0.5,2.6c-0.3,0.7-0.8,1.3-1.5,1.7c-0.6,0.4-1.4,0.6-2.2,0.6c-0.8,0-1.5-0.2-2.2-0.6
			s-1.1-1-1.5-1.7c-0.4-0.7-0.5-1.6-0.5-2.5v-0.5c0-1,0.2-1.8,0.5-2.6s0.8-1.3,1.5-1.7c0.6-0.4,1.4-0.6,2.2-0.6
			c0.8,0,1.6,0.2,2.2,0.6s1.1,1,1.5,1.7s0.5,1.6,0.5,2.6V406.5z M293.9,406.1c0-1-0.2-1.8-0.6-2.4c-0.4-0.5-0.9-0.8-1.6-0.8
			c-0.7,0-1.2,0.3-1.6,0.8c-0.4,0.5-0.6,1.3-0.6,2.4v0.5c0,1,0.2,1.8,0.6,2.4s0.9,0.8,1.6,0.8c0.7,0,1.2-0.3,1.6-0.8
			s0.6-1.3,0.6-2.4V406.1z"/>
	</g>
</g>
<g>
	<g class="st1">
		<path class="st2" d="M28.5,328.6h-1.6v3.6h-2v-10h3.7c1.2,0,2.1,0.3,2.7,0.8c0.6,0.5,0.9,1.3,0.9,2.2c0,0.7-0.1,1.2-0.4,1.7
			s-0.7,0.8-1.3,1.1l2.1,4.1v0.1h-2.2L28.5,328.6z M26.9,327h1.6c0.5,0,0.9-0.1,1.2-0.4s0.4-0.6,0.4-1.1c0-0.5-0.1-0.8-0.4-1.1
			c-0.3-0.3-0.7-0.4-1.2-0.4h-1.6V327z"/>
		<path class="st2" d="M39.7,328h-3.9v2.7h4.6v1.6h-6.6v-10h6.6v1.7h-4.6v2.4h3.9V328z"/>
		<path class="st2" d="M46.6,329.7c0-0.4-0.1-0.7-0.4-0.9c-0.3-0.2-0.8-0.4-1.5-0.7c-0.7-0.2-1.3-0.5-1.7-0.7
			c-1.1-0.6-1.7-1.4-1.7-2.5c0-0.5,0.1-1,0.5-1.4c0.3-0.4,0.7-0.8,1.3-1c0.6-0.2,1.2-0.4,1.9-0.4c0.7,0,1.3,0.1,1.9,0.4
			s1,0.6,1.3,1.1c0.3,0.5,0.5,1,0.5,1.6h-2c0-0.5-0.1-0.8-0.4-1.1s-0.7-0.4-1.2-0.4c-0.5,0-0.9,0.1-1.2,0.3
			c-0.3,0.2-0.4,0.5-0.4,0.8c0,0.3,0.2,0.6,0.5,0.8s0.8,0.4,1.4,0.6c1.2,0.4,2,0.8,2.5,1.3s0.8,1.2,0.8,1.9c0,0.9-0.3,1.5-1,2
			s-1.5,0.7-2.6,0.7c-0.8,0-1.4-0.1-2.1-0.4s-1.1-0.7-1.4-1.2c-0.3-0.5-0.5-1.1-0.5-1.7h2c0,1.1,0.6,1.6,1.9,1.6
			c0.5,0,0.9-0.1,1.1-0.3C46.5,330.3,46.6,330,46.6,329.7z"/>
	</g>
</g>
<g>
	<g class="st1">
		<path class="st2" d="M57.5,324h-3v8.3h-2V324h-3v-1.7h8V324z"/>
	</g>
</g>
<g>
	<g class="st1">
		<path class="st2" d="M63.4,330.2h-3.6l-0.7,2.1H57l3.7-10h1.9l3.7,10h-2.2L63.4,330.2z M60.4,328.6h2.5l-1.2-3.7L60.4,328.6z"/>
	</g>
</g>
<g>
	<g class="st1">
		<path class="st2" d="M74.5,322.3v6.6c0,1.1-0.3,2-1,2.6c-0.7,0.6-1.6,0.9-2.8,0.9c-1.2,0-2.1-0.3-2.7-0.9s-1-1.5-1-2.5v-6.6h2v6.6
			c0,0.7,0.2,1.1,0.5,1.4s0.7,0.4,1.3,0.4c1.1,0,1.7-0.6,1.7-1.8v-6.6H74.5z"/>
		<path class="st2" d="M79.8,328.6h-1.6v3.6h-2v-10h3.7c1.2,0,2.1,0.3,2.7,0.8c0.6,0.5,0.9,1.3,0.9,2.2c0,0.7-0.1,1.2-0.4,1.7
			s-0.7,0.8-1.3,1.1l2.1,4.1v0.1h-2.2L79.8,328.6z M78.2,327h1.6c0.5,0,0.9-0.1,1.2-0.4s0.4-0.6,0.4-1.1c0-0.5-0.1-0.8-0.4-1.1
			c-0.3-0.3-0.7-0.4-1.2-0.4h-1.6V327z"/>
		<path class="st2" d="M90.5,330.2H87l-0.7,2.1h-2.2l3.7-10h1.9l3.7,10h-2.2L90.5,330.2z M87.5,328.6H90l-1.2-3.7L87.5,328.6z"/>
	</g>
</g>
<g>
	<g class="st1">
		<path class="st2" d="M102.3,332.3h-2l-4-6.5v6.5h-2v-10h2l4,6.6v-6.6h2V332.3z"/>
	</g>
</g>
<g>
	<g class="st1">
		<path class="st2" d="M111.3,324h-3v8.3h-2V324h-3v-1.7h8V324z"/>
		<path class="st2" d="M118.4,328h-3.9v2.7h4.6v1.6h-6.6v-10h6.6v1.7h-4.6v2.4h3.9V328z"/>
	</g>
</g>
<polygon points="252.4,337.7 247.2,354.7 253.2,354.7 255.9,337.7 "/>
<polygon points="264.6,337.7 264.6,354.7 270.8,354.7 268,337.7 "/>
<polygon points="257.9,337.7 255.2,354.7 261.4,354.7 261.4,337.7 "/>
<polygon points="275.6,337.7 280.9,354.7 286.7,354.7 279.1,337.7 "/>
<polygon points="270.1,337.7 272.8,354.7 278.8,354.7 273.5,337.7 "/>
<polygon points="246.9,337.7 239.3,354.7 245.1,354.7 250.3,337.7 "/>
<polygon points="229.7,337.7 216,354.7 221.2,354.7 233.1,337.7 "/>
<polygon points="241.2,337.7 231.4,354.7 237.1,354.7 244.7,337.7 "/>
<polygon points="281.3,337.7 288.9,354.7 294.5,354.7 284.8,337.7 "/>
<polygon points="235.5,337.7 223.7,354.7 229.1,354.7 238.9,337.7 "/>
<polygon points="221.2,337.7 208,354.7 213.4,354.7 227.2,337.7 "/>
<polygon points="287.1,337.7 296.9,354.7 302.3,354.7 290.5,337.7 "/>
<polygon points="319.2,354.7 304.1,337.7 298.8,337.7 312.6,354.7 "/>
<polygon points="292.9,337.7 304.7,354.7 310,354.7 296.2,337.7 "/>
<path class="st0" d="M182.6,430.6v-50.4c0-5.5,4.5-10,10-10h7.9"/>
<polygon points="57.7,290.1 40.8,284.2 12.7,293.7 47,293.7 "/>
</svg>
