<?xml version="1.0" encoding="UTF-8" standalone="no"?>
<svg
   xmlns:dc="http://purl.org/dc/elements/1.1/"
   xmlns:cc="http://creativecommons.org/ns#"
   xmlns:rdf="http://www.w3.org/1999/02/22-rdf-syntax-ns#"
   xmlns:svg="http://www.w3.org/2000/svg"
   xmlns="http://www.w3.org/2000/svg"
   xmlns:sodipodi="http://sodipodi.sourceforge.net/DTD/sodipodi-0.dtd"
   xmlns:inkscape="http://www.inkscape.org/namespaces/inkscape"
   version="1.1"
   x="0px"
   y="0px"
   viewBox="0 0 337.2 372.68881"
   enable-background="new 0 0 336.7 346.6"
   id="svg140"
   sodipodi:docname="graph-alimentacao.svg"
   width="337.20001"
   height="372.68881"
   inkscape:version="1.0.1 (c497b03c, 2020-09-10)">
  <metadata
     id="metadata144">
    <rdf:RDF>
      <cc:Work
         rdf:about="">
        <dc:format>image/svg+xml</dc:format>
        <dc:type
           rdf:resource="http://purl.org/dc/dcmitype/StillImage" />
      </cc:Work>
    </rdf:RDF>
  </metadata>
  <sodipodi:namedview
     pagecolor="#ffffff"
     bordercolor="#666666"
     borderopacity="1"
     objecttolerance="10"
     gridtolerance="10"
     guidetolerance="10"
     inkscape:pageopacity="0"
     inkscape:pageshadow="2"
     inkscape:window-width="1680"
     inkscape:window-height="956"
     id="namedview142"
     showgrid="false"
     inkscape:zoom="1.106965"
     inkscape:cx="29.800467"
     inkscape:cy="154.16579"
     inkscape:window-x="19"
     inkscape:window-y="23"
     inkscape:window-maximized="0"
     inkscape:current-layer="svg140" />
  <defs
     id="defs12">
    <style
       id="style10">
    * {
      font-family: 'Roboto', sans-serif;
    }
    .chart__bar {
      cursor: pointer;
    }
    .chart__bar .chart__label {
      fill: #9b060e;
      font-size: 14px;
      font-weight: 700;
      opacity: 0;
      transition: opacity 0.4s ease;
    }

    .chart__bar:hover .chart__label {
      opacity: 1;
    }
  </style>
  </defs>
  <g
     id="g138"
     transform="translate(0,0.5)">
    <path
       d="m 78.6,342.9 c 0,1.3 -0.2,2.2 -0.7,2.8 -0.4,0.6 -1.1,0.9 -2,0.9 -0.9,0 -1.6,-0.3 -2,-0.9 -0.4,-0.6 -0.7,-1.5 -0.7,-2.7 v -1.4 c 0,-1.3 0.2,-2.2 0.7,-2.8 0.4,-0.6 1.1,-0.9 2,-0.9 0.9,0 1.6,0.3 2,0.9 0.4,0.6 0.7,1.5 0.7,2.7 z m -1.1,-1.5 c 0,-0.9 -0.1,-1.6 -0.4,-2 -0.3,-0.4 -0.7,-0.6 -1.2,-0.6 -0.6,0 -1,0.2 -1.2,0.6 -0.2,0.4 -0.4,1.1 -0.4,1.9 v 1.7 c 0,0.9 0.1,1.6 0.4,2 0.3,0.4 0.7,0.7 1.2,0.7 0.5,0 0.9,-0.2 1.2,-0.6 0.3,-0.4 0.4,-1.1 0.4,-2 z"
       id="path14" />
    <path
       d="M 127.6,346.5 H 122 v -0.8 l 3,-3.3 c 0.4,-0.5 0.7,-0.9 0.9,-1.2 0.2,-0.3 0.3,-0.6 0.3,-1 0,-0.4 -0.1,-0.8 -0.4,-1.1 -0.3,-0.3 -0.6,-0.4 -1.1,-0.4 -0.5,0 -1,0.2 -1.3,0.5 -0.3,0.3 -0.4,0.7 -0.4,1.3 h -1.1 c 0,-0.8 0.3,-1.4 0.8,-1.9 0.5,-0.5 1.2,-0.7 2,-0.7 0.8,0 1.4,0.2 1.9,0.6 0.5,0.4 0.7,1 0.7,1.7 0,0.8 -0.5,1.8 -1.6,3 l -2.3,2.5 h 4.3 v 0.8 z m 6.5,-3.6 c 0,1.3 -0.2,2.2 -0.7,2.8 -0.4,0.6 -1.1,0.9 -2,0.9 -0.9,0 -1.6,-0.3 -2,-0.9 -0.4,-0.6 -0.7,-1.5 -0.7,-2.7 v -1.4 c 0,-1.3 0.2,-2.2 0.7,-2.8 0.4,-0.6 1.1,-0.9 2,-0.9 0.9,0 1.6,0.3 2,0.9 0.4,0.6 0.7,1.5 0.7,2.7 z m -1,-1.5 c 0,-0.9 -0.1,-1.6 -0.4,-2 -0.3,-0.4 -0.7,-0.6 -1.2,-0.6 -0.6,0 -1,0.2 -1.2,0.6 -0.2,0.4 -0.4,1.1 -0.4,1.9 v 1.7 c 0,0.9 0.1,1.6 0.4,2 0.3,0.4 0.7,0.7 1.2,0.7 0.5,0 0.9,-0.2 1.2,-0.6 0.3,-0.4 0.4,-1.1 0.4,-2 z"
       id="path16" />
    <path
       d="m 178.8,343.6 h 1.2 v 0.9 h -1.2 v 2 h -1.1 v -2 h -3.9 v -0.6 l 3.8,-5.9 h 1.2 z m -3.8,0 h 2.7 v -4.2 l -0.1,0.2 z m 11.3,-0.7 c 0,1.3 -0.2,2.2 -0.6,2.8 -0.4,0.6 -1.1,0.9 -2,0.9 -0.9,0 -1.6,-0.3 -2,-0.9 -0.4,-0.6 -0.7,-1.5 -0.7,-2.7 v -1.4 c 0,-1.3 0.2,-2.2 0.7,-2.8 0.4,-0.6 1.1,-0.9 2,-0.9 0.9,0 1.6,0.3 2,0.9 0.4,0.6 0.7,1.5 0.7,2.7 v 1.4 z m -1.1,-1.5 c 0,-0.9 -0.1,-1.6 -0.4,-2 -0.3,-0.4 -0.7,-0.6 -1.2,-0.6 -0.6,0 -1,0.2 -1.2,0.6 -0.2,0.4 -0.4,1.1 -0.4,1.9 v 1.7 c 0,0.9 0.1,1.6 0.4,2 0.3,0.4 0.7,0.7 1.2,0.7 0.5,0 0.9,-0.2 1.2,-0.6 0.3,-0.4 0.4,-1.1 0.4,-2 z"
       id="path18" />
    <path
       d="m 230.6,338 v 0.9 h -0.2 c -0.8,0 -1.5,0.3 -2,0.8 -0.5,0.5 -0.8,1.2 -0.9,2 0.4,-0.5 1.1,-0.8 1.8,-0.8 0.7,0 1.3,0.3 1.8,0.8 0.4,0.5 0.7,1.2 0.7,2 0,0.9 -0.2,1.6 -0.7,2.1 -0.5,0.5 -1.1,0.8 -1.9,0.8 -0.8,0 -1.5,-0.3 -2,-0.9 -0.5,-0.6 -0.8,-1.4 -0.8,-2.4 v -0.4 c 0,-1.6 0.3,-2.8 1,-3.6 0.7,-0.8 1.7,-1.3 3,-1.3 z m -1.4,3.8 c -0.4,0 -0.7,0.1 -1,0.3 -0.3,0.2 -0.5,0.5 -0.7,0.8 v 0.4 c 0,0.7 0.2,1.3 0.5,1.7 0.3,0.4 0.7,0.6 1.2,0.6 0.5,0 0.9,-0.2 1.1,-0.5 0.3,-0.4 0.4,-0.8 0.4,-1.4 0,-0.6 -0.1,-1.1 -0.4,-1.4 -0.2,-0.3 -0.6,-0.5 -1.1,-0.5 z m 9.3,1.1 c 0,1.3 -0.2,2.2 -0.7,2.8 -0.4,0.6 -1.1,0.9 -2,0.9 -0.9,0 -1.6,-0.3 -2,-0.9 -0.4,-0.6 -0.7,-1.5 -0.7,-2.7 v -1.4 c 0,-1.3 0.2,-2.2 0.7,-2.8 0.4,-0.6 1.1,-0.9 2,-0.9 0.9,0 1.6,0.3 2,0.9 0.4,0.6 0.7,1.5 0.7,2.7 z m -1.1,-1.5 c 0,-0.9 -0.1,-1.6 -0.4,-2 -0.3,-0.4 -0.7,-0.6 -1.2,-0.6 -0.6,0 -1,0.2 -1.2,0.6 -0.2,0.4 -0.4,1.1 -0.4,1.9 v 1.7 c 0,0.9 0.1,1.6 0.4,2 0.3,0.4 0.7,0.7 1.2,0.7 0.5,0 0.9,-0.2 1.2,-0.6 0.3,-0.4 0.4,-1.1 0.4,-2 z"
       id="path20" />
    <path
       d="m 283.7,340.2 c 0,0.4 -0.1,0.8 -0.3,1.1 -0.2,0.3 -0.5,0.6 -0.9,0.8 0.4,0.2 0.8,0.5 1.1,0.8 0.3,0.4 0.4,0.8 0.4,1.2 0,0.7 -0.2,1.3 -0.8,1.8 -0.5,0.4 -1.1,0.7 -2,0.7 -0.8,0 -1.5,-0.2 -2,-0.7 -0.5,-0.4 -0.7,-1 -0.7,-1.8 0,-0.5 0.1,-0.9 0.4,-1.2 0.3,-0.4 0.6,-0.7 1,-0.8 -0.4,-0.2 -0.7,-0.4 -0.9,-0.8 -0.2,-0.3 -0.3,-0.7 -0.3,-1.1 0,-0.7 0.2,-1.3 0.7,-1.7 0.5,-0.4 1.1,-0.6 1.8,-0.6 0.8,0 1.4,0.2 1.8,0.6 0.5,0.4 0.7,1 0.7,1.7 z m -0.9,4 c 0,-0.5 -0.2,-0.9 -0.5,-1.2 -0.3,-0.3 -0.7,-0.5 -1.2,-0.5 -0.5,0 -0.9,0.1 -1.2,0.4 -0.3,0.3 -0.4,0.7 -0.4,1.2 0,0.5 0.1,0.9 0.4,1.1 0.3,0.3 0.7,0.4 1.2,0.4 0.5,0 0.9,-0.1 1.2,-0.4 0.4,-0.2 0.5,-0.5 0.5,-1 z m -1.6,-5.4 c -0.4,0 -0.8,0.1 -1,0.4 -0.3,0.3 -0.4,0.6 -0.4,1.1 0,0.4 0.1,0.8 0.4,1.1 0.3,0.3 0.6,0.4 1,0.4 0.4,0 0.8,-0.1 1,-0.4 0.3,-0.3 0.4,-0.6 0.4,-1.1 0,-0.4 -0.1,-0.8 -0.4,-1.1 -0.2,-0.3 -0.6,-0.4 -1,-0.4 z m 9.4,4.1 c 0,1.3 -0.2,2.2 -0.7,2.8 -0.4,0.6 -1.1,0.9 -2,0.9 -0.9,0 -1.6,-0.3 -2,-0.9 -0.4,-0.6 -0.7,-1.5 -0.7,-2.7 v -1.4 c 0,-1.3 0.2,-2.2 0.7,-2.8 0.4,-0.6 1.1,-0.9 2,-0.9 0.9,0 1.6,0.3 2,0.9 0.4,0.6 0.7,1.5 0.7,2.7 z m -1.1,-1.5 c 0,-0.9 -0.1,-1.6 -0.4,-2 -0.3,-0.4 -0.7,-0.6 -1.2,-0.6 -0.6,0 -1,0.2 -1.2,0.6 -0.2,0.4 -0.4,1.1 -0.4,1.9 v 1.7 c 0,0.9 0.1,1.6 0.4,2 0.3,0.4 0.7,0.7 1.2,0.7 0.5,0 0.9,-0.2 1.2,-0.6 0.3,-0.4 0.4,-1.1 0.4,-2 z"
       id="path22" />
    <path
       d="m 321.4,346.5 h -1.1 v -7.2 l -2.2,0.8 v -1 l 3.1,-1.2 h 0.2 z m 8.5,-3.6 c 0,1.3 -0.2,2.2 -0.6,2.8 -0.4,0.6 -1.1,0.9 -2,0.9 -0.9,0 -1.6,-0.3 -2,-0.9 -0.4,-0.6 -0.7,-1.5 -0.7,-2.7 v -1.4 c 0,-1.3 0.2,-2.2 0.7,-2.8 0.4,-0.6 1.1,-0.9 2,-0.9 0.9,0 1.6,0.3 2,0.9 0.4,0.6 0.7,1.5 0.7,2.7 v 1.4 z m -1.1,-1.5 c 0,-0.9 -0.1,-1.6 -0.4,-2 -0.3,-0.4 -0.7,-0.6 -1.2,-0.6 -0.6,0 -1,0.2 -1.2,0.6 -0.2,0.4 -0.4,1.1 -0.4,1.9 v 1.7 c 0,0.9 0.1,1.6 0.4,2 0.3,0.4 0.7,0.7 1.2,0.7 0.5,0 0.9,-0.2 1.2,-0.6 0.3,-0.4 0.4,-1.1 0.4,-2 z m 7.8,1.5 c 0,1.3 -0.2,2.2 -0.6,2.8 -0.4,0.6 -1.1,0.9 -2,0.9 -0.9,0 -1.6,-0.3 -2,-0.9 -0.4,-0.6 -0.7,-1.5 -0.7,-2.7 v -1.4 c 0,-1.3 0.2,-2.2 0.6,-2.8 0.4,-0.6 1.1,-0.9 2,-0.9 0.9,0 1.6,0.3 2,0.9 0.4,0.6 0.7,1.5 0.7,2.7 z m -1,-1.5 c 0,-0.9 -0.1,-1.6 -0.4,-2 -0.3,-0.4 -0.7,-0.6 -1.2,-0.6 -0.6,0 -1,0.2 -1.2,0.6 -0.2,0.4 -0.4,1.1 -0.4,1.9 v 1.7 c 0,0.9 0.1,1.6 0.4,2 0.3,0.4 0.7,0.7 1.2,0.7 0.5,0 0.9,-0.2 1.2,-0.6 0.3,-0.4 0.4,-1.1 0.4,-2 z"
       id="path24" />
    <path
       d="M 47.6,17.3 H 46.1 V 7.7 L 43.2,8.8 V 7.4 l 4.1,-1.6 h 0.2 V 17.3 Z M 59,12.5 c 0,1.7 -0.3,3 -0.9,3.8 -0.6,0.8 -1.5,1.2 -2.7,1.2 -1.2,0 -2.1,-0.4 -2.7,-1.2 -0.6,-0.8 -0.9,-2 -0.9,-3.6 v -1.9 c 0,-1.7 0.3,-2.9 0.9,-3.7 0.6,-0.8 1.5,-1.2 2.7,-1.2 1.2,0 2.1,0.4 2.7,1.2 0.6,0.8 0.9,2 0.9,3.6 z m -1.5,-2 C 57.5,9.3 57.3,8.4 57,7.8 56.6,7.3 56.1,7 55.4,7 54.7,7 54.1,7.3 53.8,7.8 53.5,8.4 53.3,9.2 53.3,10.4 v 2.3 c 0,1.2 0.2,2.1 0.5,2.7 0.4,0.6 0.9,0.9 1.6,0.9 0.7,0 1.2,-0.3 1.6,-0.8 0.3,-0.6 0.5,-1.4 0.5,-2.6 z m 3.3,-2 c 0,-0.8 0.2,-1.5 0.7,-2 0.5,-0.5 1.2,-0.7 2,-0.7 0.8,0 1.5,0.3 1.9,0.8 0.5,0.5 0.7,1.2 0.7,2 v 0.6 c 0,0.8 -0.2,1.5 -0.7,2 C 64.9,11.7 64.3,12 63.5,12 62.7,12 62,11.7 61.6,11.2 61.1,10.7 60.9,10 60.9,9.2 V 8.5 Z m 1.3,0.7 c 0,0.5 0.1,0.9 0.4,1.2 0.3,0.3 0.6,0.4 1,0.4 0.4,0 0.8,-0.1 1,-0.4 0.2,-0.3 0.4,-0.7 0.4,-1.2 V 8.5 C 64.9,8 64.8,7.6 64.5,7.3 64.3,7 63.9,6.9 63.5,6.9 63.1,6.9 62.7,7 62.5,7.3 62.3,7.6 62.1,8 62.1,8.5 Z"
       id="path26" />
    <path
       d="m 57.4,46.1 c -0.3,0.4 -0.7,0.6 -1.1,0.9 -0.4,0.2 -0.9,0.3 -1.4,0.3 -0.7,0 -1.2,-0.2 -1.7,-0.5 -0.5,-0.3 -0.9,-0.8 -1.1,-1.4 -0.3,-0.6 -0.4,-1.2 -0.4,-1.9 0,-0.8 0.1,-1.4 0.4,-2.1 0.3,-0.6 0.7,-1.1 1.2,-1.4 0.5,-0.3 1.2,-0.5 1.9,-0.5 1.1,0 2,0.4 2.7,1.3 0.7,0.8 1,2 1,3.4 v 0.4 c 0,2.2 -0.4,3.8 -1.3,4.9 -0.9,1 -2.2,1.5 -4,1.6 h -0.3 v -1.2 h 0.3 c 1.2,0 2.1,-0.3 2.8,-0.9 0.6,-0.6 0.9,-1.6 1,-2.9 z m -2.3,0 c 0.5,0 0.9,-0.1 1.3,-0.4 0.4,-0.3 0.7,-0.7 0.9,-1.1 V 44 c 0,-0.9 -0.2,-1.7 -0.6,-2.3 -0.4,-0.6 -0.9,-0.9 -1.6,-0.9 -0.6,0 -1.1,0.2 -1.5,0.7 -0.4,0.5 -0.6,1.1 -0.6,1.9 0,0.8 0.2,1.4 0.6,1.9 0.4,0.5 0.9,0.8 1.5,0.8 z m 5.7,-3.8 c 0,-0.8 0.2,-1.5 0.7,-2 0.5,-0.5 1.1,-0.8 1.9,-0.8 0.8,0 1.5,0.3 1.9,0.8 0.5,0.5 0.7,1.2 0.7,2 v 0.6 c 0,0.8 -0.2,1.5 -0.7,2 -0.5,0.5 -1.1,0.8 -1.9,0.8 -0.8,0 -1.5,-0.3 -1.9,-0.8 -0.5,-0.5 -0.7,-1.2 -0.7,-2 z m 1.3,0.6 c 0,0.5 0.1,0.9 0.4,1.2 0.3,0.3 0.6,0.4 1,0.4 0.4,0 0.8,-0.1 1,-0.4 0.2,-0.3 0.4,-0.7 0.4,-1.2 v -0.6 c 0,-0.5 -0.1,-0.9 -0.4,-1.2 -0.2,-0.3 -0.6,-0.4 -1,-0.4 -0.4,0 -0.8,0.1 -1,0.4 -0.2,0.3 -0.4,0.7 -0.4,1.2 z"
       id="path28" />
    <path
       d="m 58.7,76.5 c 0,0.6 -0.2,1.1 -0.5,1.5 -0.3,0.4 -0.7,0.8 -1.2,1 0.6,0.3 1.1,0.6 1.4,1.1 0.3,0.5 0.5,1 0.5,1.7 0,1 -0.3,1.8 -1,2.4 -0.7,0.6 -1.5,0.9 -2.6,0.9 -1.1,0 -2,-0.3 -2.6,-0.9 -0.7,-0.6 -1,-1.4 -1,-2.4 0,-0.6 0.2,-1.2 0.5,-1.7 C 52.5,79.6 53,79.2 53.6,79 53.1,78.8 52.7,78.4 52.4,78 52.2,77.5 52,77 52,76.5 c 0,-1 0.3,-1.7 0.9,-2.3 0.6,-0.6 1.4,-0.8 2.4,-0.8 1,0 1.8,0.3 2.4,0.8 0.7,0.5 1,1.3 1,2.3 z m -1.2,5.3 c 0,-0.6 -0.2,-1.2 -0.6,-1.6 -0.4,-0.4 -0.9,-0.6 -1.6,-0.6 -0.7,0 -1.2,0.2 -1.6,0.6 -0.4,0.4 -0.6,0.9 -0.6,1.6 0,0.6 0.2,1.2 0.6,1.5 0.4,0.4 0.9,0.6 1.6,0.6 0.7,0 1.2,-0.2 1.6,-0.6 0.4,-0.4 0.6,-0.9 0.6,-1.5 z m -2.1,-7.3 c -0.6,0 -1,0.2 -1.4,0.5 -0.3,0.3 -0.5,0.8 -0.5,1.4 0,0.6 0.2,1 0.5,1.4 0.3,0.4 0.8,0.5 1.4,0.5 0.6,0 1,-0.2 1.4,-0.5 0.3,-0.4 0.5,-0.8 0.5,-1.4 0,-0.6 -0.2,-1 -0.5,-1.4 -0.4,-0.3 -0.9,-0.5 -1.4,-0.5 z m 5.4,1.6 c 0,-0.8 0.2,-1.5 0.7,-2 0.5,-0.5 1.1,-0.8 1.9,-0.8 0.8,0 1.5,0.3 1.9,0.8 0.5,0.5 0.7,1.2 0.7,2 v 0.6 c 0,0.8 -0.2,1.5 -0.7,2 -0.5,0.5 -1.1,0.8 -1.9,0.8 -0.8,0 -1.5,-0.3 -1.9,-0.8 -0.5,-0.5 -0.7,-1.2 -0.7,-2 z m 1.3,0.6 c 0,0.5 0.1,0.9 0.4,1.2 0.3,0.3 0.6,0.4 1,0.4 0.4,0 0.8,-0.1 1,-0.4 0.2,-0.3 0.4,-0.7 0.4,-1.2 v -0.6 c 0,-0.5 -0.1,-0.9 -0.4,-1.2 -0.2,-0.3 -0.6,-0.4 -1,-0.4 -0.4,0 -0.8,0.1 -1,0.4 -0.2,0.3 -0.4,0.7 -0.4,1.2 z"
       id="path30" />
    <path
       d="m 59.2,108.1 -4.7,10.6 H 53 l 4.7,-10.2 h -6.2 v -1.2 h 7.7 z m 1.6,1.8 c 0,-0.8 0.2,-1.5 0.7,-2 0.5,-0.5 1.1,-0.8 1.9,-0.8 0.8,0 1.5,0.3 1.9,0.8 0.5,0.5 0.7,1.2 0.7,2 v 0.6 c 0,0.8 -0.2,1.5 -0.7,2 -0.5,0.5 -1.1,0.8 -1.9,0.8 -0.8,0 -1.5,-0.3 -1.9,-0.8 -0.5,-0.5 -0.7,-1.2 -0.7,-2 z m 1.3,0.6 c 0,0.5 0.1,0.9 0.4,1.2 0.3,0.3 0.6,0.4 1,0.4 0.4,0 0.8,-0.1 1,-0.4 0.2,-0.3 0.4,-0.7 0.4,-1.2 v -0.6 c 0,-0.5 -0.1,-0.9 -0.4,-1.2 -0.2,-0.3 -0.6,-0.4 -1,-0.4 -0.4,0 -0.8,0.1 -1,0.4 -0.2,0.3 -0.4,0.7 -0.4,1.2 z"
       id="path32" />
    <path
       d="m 57.5,141 v 1.2 h -0.3 c -1.1,0 -2,0.4 -2.7,1 -0.7,0.6 -1.1,1.6 -1.2,2.7 0.6,-0.7 1.4,-1 2.5,-1 1,0 1.8,0.3 2.4,1 0.6,0.7 0.9,1.6 0.9,2.7 0,1.2 -0.3,2.1 -1,2.8 -0.6,0.7 -1.5,1.1 -2.6,1.1 -1.1,0 -2,-0.4 -2.6,-1.2 -0.7,-0.8 -1,-1.9 -1,-3.2 v -0.6 c 0,-2.1 0.4,-3.7 1.3,-4.8 0.9,-1.1 2.2,-1.7 4,-1.7 z m -1.9,5.2 c -0.5,0 -1,0.1 -1.4,0.4 -0.4,0.3 -0.7,0.7 -0.9,1.1 v 0.5 c 0,0.9 0.2,1.7 0.6,2.3 0.4,0.6 0.9,0.9 1.6,0.9 0.7,0 1.2,-0.2 1.5,-0.7 0.4,-0.5 0.6,-1.1 0.6,-1.9 0,-0.8 -0.2,-1.4 -0.6,-1.9 -0.3,-0.5 -0.8,-0.7 -1.4,-0.7 z m 5.2,-2.5 c 0,-0.8 0.2,-1.5 0.7,-2 0.5,-0.5 1.1,-0.8 1.9,-0.8 0.8,0 1.5,0.3 1.9,0.8 0.5,0.5 0.7,1.2 0.7,2 v 0.6 c 0,0.8 -0.2,1.5 -0.7,2 -0.5,0.5 -1.1,0.8 -1.9,0.8 -0.8,0 -1.5,-0.3 -1.9,-0.8 -0.5,-0.5 -0.7,-1.2 -0.7,-2 z m 1.3,0.6 c 0,0.5 0.1,0.9 0.4,1.2 0.3,0.3 0.6,0.4 1,0.4 0.4,0 0.8,-0.1 1,-0.4 0.2,-0.3 0.4,-0.7 0.4,-1.2 v -0.6 c 0,-0.5 -0.1,-0.9 -0.4,-1.2 -0.2,-0.3 -0.6,-0.4 -1,-0.4 -0.4,0 -0.8,0.1 -1,0.4 -0.2,0.3 -0.4,0.7 -0.4,1.2 z"
       id="path34" />
    <path
       d="m 52.5,180.5 0.6,-5.7 h 5.8 v 1.3 h -4.6 l -0.3,3.1 c 0.6,-0.3 1.2,-0.5 1.9,-0.5 1,0 1.9,0.3 2.5,1 0.6,0.7 0.9,1.6 0.9,2.8 0,1.2 -0.3,2.1 -1,2.8 -0.6,0.7 -1.5,1 -2.6,1 -1,0 -1.8,-0.3 -2.5,-0.8 -0.7,-0.5 -1,-1.3 -1.1,-2.3 h 1.4 c 0.1,0.7 0.3,1.1 0.7,1.5 0.4,0.3 0.9,0.5 1.5,0.5 0.7,0 1.2,-0.2 1.6,-0.7 0.4,-0.5 0.6,-1.1 0.6,-1.9 0,-0.8 -0.2,-1.4 -0.6,-1.8 -0.4,-0.5 -1,-0.7 -1.6,-0.7 -0.6,0 -1.1,0.1 -1.5,0.4 l -0.4,0.3 z m 8.3,-3.1 c 0,-0.8 0.2,-1.5 0.7,-2 0.5,-0.5 1.1,-0.8 1.9,-0.8 0.8,0 1.5,0.3 1.9,0.8 0.5,0.5 0.7,1.2 0.7,2 v 0.6 c 0,0.8 -0.2,1.5 -0.7,2 -0.5,0.5 -1.1,0.8 -1.9,0.8 -0.8,0 -1.5,-0.3 -1.9,-0.8 -0.5,-0.5 -0.7,-1.2 -0.7,-2 z m 1.3,0.7 c 0,0.5 0.1,0.9 0.4,1.2 0.3,0.3 0.6,0.4 1,0.4 0.4,0 0.8,-0.1 1,-0.4 0.2,-0.3 0.4,-0.7 0.4,-1.2 v -0.6 c 0,-0.5 -0.1,-0.9 -0.4,-1.2 -0.2,-0.3 -0.6,-0.4 -1,-0.4 -0.4,0 -0.8,0.1 -1,0.4 -0.2,0.3 -0.4,0.7 -0.4,1.2 z"
       id="path36" />
    <path
       d="m 57.9,216.2 h 1.6 v 1.2 h -1.6 v 2.6 h -1.5 v -2.6 h -5.2 v -0.9 l 5.1,-7.9 h 1.5 v 7.6 z m -5,0 h 3.5 v -5.6 l -0.2,0.3 z m 7.9,-5 c 0,-0.8 0.2,-1.5 0.7,-2 0.5,-0.5 1.1,-0.8 1.9,-0.8 0.8,0 1.5,0.3 1.9,0.8 0.5,0.5 0.7,1.2 0.7,2 v 0.6 c 0,0.8 -0.2,1.5 -0.7,2 -0.5,0.5 -1.1,0.8 -1.9,0.8 -0.8,0 -1.5,-0.3 -1.9,-0.8 -0.5,-0.5 -0.7,-1.2 -0.7,-2 z m 1.3,0.6 c 0,0.5 0.1,0.9 0.4,1.2 0.3,0.3 0.6,0.4 1,0.4 0.4,0 0.8,-0.1 1,-0.4 0.2,-0.3 0.4,-0.7 0.4,-1.2 v -0.6 c 0,-0.5 -0.1,-0.9 -0.4,-1.2 -0.2,-0.3 -0.6,-0.4 -1,-0.4 -0.4,0 -0.8,0.1 -1,0.4 -0.2,0.3 -0.4,0.7 -0.4,1.2 z"
       id="path38" />
    <path
       d="M 53.9,247.4 H 55 c 0.7,0 1.2,-0.2 1.6,-0.5 0.4,-0.3 0.6,-0.8 0.6,-1.4 0,-1.3 -0.7,-2 -2,-2 -0.6,0 -1.1,0.2 -1.5,0.5 -0.4,0.4 -0.6,0.8 -0.6,1.4 h -1.4 c 0,-0.9 0.3,-1.6 1,-2.2 0.7,-0.6 1.5,-0.9 2.5,-0.9 1.1,0 1.9,0.3 2.5,0.9 0.6,0.6 0.9,1.4 0.9,2.4 0,0.5 -0.2,1 -0.5,1.4 -0.3,0.5 -0.8,0.8 -1.3,1 0.6,0.2 1.1,0.5 1.4,1 0.3,0.5 0.5,1 0.5,1.7 0,1 -0.3,1.8 -1,2.4 -0.7,0.6 -1.5,0.9 -2.6,0.9 -1.1,0 -1.9,-0.3 -2.6,-0.9 -0.7,-0.6 -1,-1.3 -1,-2.3 H 53 c 0,0.6 0.2,1.1 0.6,1.4 0.4,0.4 0.9,0.5 1.6,0.5 0.7,0 1.2,-0.2 1.6,-0.5 0.4,-0.4 0.6,-0.9 0.6,-1.6 0,-0.7 -0.2,-1.2 -0.6,-1.5 -0.4,-0.4 -1,-0.5 -1.8,-0.5 h -1.1 z m 6.9,-2.4 c 0,-0.8 0.2,-1.5 0.7,-2 0.5,-0.5 1.1,-0.8 1.9,-0.8 0.8,0 1.5,0.3 1.9,0.8 0.5,0.5 0.7,1.2 0.7,2 v 0.6 c 0,0.8 -0.2,1.5 -0.7,2 -0.5,0.5 -1.1,0.8 -1.9,0.8 -0.8,0 -1.5,-0.3 -1.9,-0.8 -0.5,-0.5 -0.7,-1.2 -0.7,-2 z m 1.3,0.6 c 0,0.5 0.1,0.9 0.4,1.2 0.3,0.3 0.6,0.4 1,0.4 0.4,0 0.8,-0.1 1,-0.4 0.2,-0.3 0.4,-0.7 0.4,-1.2 V 245 c 0,-0.5 -0.1,-0.9 -0.4,-1.2 -0.2,-0.3 -0.6,-0.4 -1,-0.4 -0.4,0 -0.8,0.1 -1,0.4 -0.2,0.3 -0.4,0.7 -0.4,1.2 z"
       id="path40" />
    <path
       d="m 59.3,287.5 h -7.5 v -1 l 3.9,-4.4 c 0.6,-0.7 1,-1.2 1.2,-1.6 0.2,-0.4 0.3,-0.8 0.3,-1.3 0,-0.6 -0.2,-1.1 -0.5,-1.5 -0.4,-0.4 -0.8,-0.6 -1.4,-0.6 -0.7,0 -1.3,0.2 -1.7,0.6 -0.4,0.4 -0.6,1 -0.6,1.7 h -1.4 c 0,-1 0.3,-1.9 1,-2.5 0.7,-0.6 1.6,-1 2.7,-1 1.1,0 1.9,0.3 2.5,0.8 0.6,0.6 0.9,1.3 0.9,2.2 0,1.1 -0.7,2.5 -2.1,4 l -3,3.3 h 5.7 z m 1.5,-8.7 c 0,-0.8 0.2,-1.5 0.7,-2 0.5,-0.5 1.1,-0.8 1.9,-0.8 0.8,0 1.5,0.3 1.9,0.8 0.5,0.5 0.7,1.2 0.7,2 v 0.6 c 0,0.8 -0.2,1.5 -0.7,2 -0.5,0.5 -1.1,0.8 -1.9,0.8 -0.8,0 -1.5,-0.3 -1.9,-0.8 -0.5,-0.5 -0.7,-1.2 -0.7,-2 z m 1.3,0.6 c 0,0.5 0.1,0.9 0.4,1.2 0.3,0.3 0.6,0.4 1,0.4 0.4,0 0.8,-0.1 1,-0.4 0.2,-0.3 0.4,-0.7 0.4,-1.2 v -0.6 c 0,-0.5 -0.1,-0.9 -0.4,-1.2 -0.2,-0.3 -0.6,-0.4 -1,-0.4 -0.4,0 -0.8,0.1 -1,0.4 -0.2,0.3 -0.4,0.7 -0.4,1.2 z"
       id="path42" />
    <path
       d="m 56.6,321.3 h -1.5 l -0.1,-9.6 -2.9,1.1 v -1.3 l 4.1,-1.6 h 0.2 z m 4.2,-8.8 c 0,-0.8 0.2,-1.5 0.7,-2 0.5,-0.5 1.1,-0.8 1.9,-0.8 0.8,0 1.5,0.2 2,0.7 0.5,0.5 0.7,1.2 0.8,2 v 0.6 c 0,0.8 -0.2,1.5 -0.7,2 -0.5,0.5 -1.1,0.8 -1.9,0.8 -0.8,0 -1.5,-0.2 -2,-0.7 -0.5,-0.5 -0.8,-1.2 -0.8,-2 z m 1.3,0.6 c 0,0.5 0.1,0.9 0.4,1.2 0.3,0.3 0.6,0.4 1,0.4 0.4,0 0.8,-0.2 1,-0.5 0.2,-0.3 0.4,-0.7 0.4,-1.2 v -0.6 c 0,-0.5 -0.1,-0.9 -0.4,-1.2 -0.3,-0.3 -0.6,-0.4 -1,-0.4 -0.4,0 -0.8,0.1 -1,0.4 -0.2,0.3 -0.4,0.7 -0.4,1.2 z"
       id="path44" />
    <path
       d="m 0.5,61.6 7,-2.8 -7,-2.8 V 54.5 H 9 v 1.1 H 5.7 L 2.1,55.5 9,58.4 v 0.9 L 2.1,62 5.7,61.9 H 9 V 63 H 0.5 Z M 9,48.8 c -0.1,0.1 -0.3,0.1 -0.7,0.2 0.5,0.5 0.8,1.1 0.8,1.8 0,0.6 -0.2,1.1 -0.5,1.5 C 8.2,52.7 7.8,52.9 7.3,52.9 6.6,52.9 6.1,52.7 5.8,52.1 5.4,51.6 5.2,50.9 5.2,50 V 49 H 4.7 c -0.4,0 -0.7,0.1 -0.9,0.3 -0.2,0.2 -0.3,0.6 -0.3,1 0,0.4 0.1,0.7 0.3,1 0.2,0.3 0.4,0.4 0.7,0.4 v 1.1 C 4.2,52.8 3.9,52.7 3.6,52.5 3.3,52.3 3.1,52 2.9,51.6 2.7,51.2 2.6,50.8 2.6,50.3 2.6,49.6 2.8,49 3.2,48.6 3.6,48.2 4.1,48 4.7,48 h 2.9 c 0.6,0 1,-0.1 1.4,-0.2 v 0 z M 8.2,50.6 C 8.2,50.3 8.1,49.9 7.9,49.6 7.7,49.3 7.5,49.1 7.2,48.9 H 5.9 v 0.8 c 0,1.3 0.4,2 1.2,2 0.3,0 0.6,-0.1 0.8,-0.3 C 8.1,51.2 8.2,51 8.2,50.6 Z M 9,45 v 1.1 H 2.7 V 45 Z M 1,46.2 C 0.8,46.2 0.7,46.1 0.6,46 0.5,45.9 0.4,45.7 0.4,45.5 0.4,45.3 0.5,45.1 0.6,45 0.7,45 0.8,44.9 1,44.9 c 0.2,0 0.3,0.1 0.4,0.2 0.1,0.1 0.2,0.3 0.2,0.5 0,0.2 -0.1,0.4 -0.2,0.5 -0.1,0 -0.2,0.1 -0.4,0.1 z M 5.8,43.6 C 5.2,43.6 4.6,43.5 4.1,43.2 3.6,43 3.2,42.6 3,42.2 2.7,41.8 2.6,41.3 2.6,40.7 2.6,39.8 2.9,39.1 3.5,38.6 4.1,38.1 4.9,37.8 5.9,37.8 H 6 c 0.6,0 1.2,0.1 1.7,0.4 0.5,0.2 0.9,0.6 1.1,1 0.3,0.4 0.4,0.9 0.4,1.5 0,0.9 -0.3,1.6 -0.9,2.1 -0.7,0.5 -1.5,0.8 -2.5,0.8 z m 0.1,-1.1 c 0.7,0 1.3,-0.2 1.7,-0.5 0.4,-0.3 0.6,-0.8 0.6,-1.3 0,-0.6 -0.2,-1 -0.6,-1.3 -0.4,-0.3 -1,-0.5 -1.8,-0.5 -0.7,0 -1.3,0.2 -1.7,0.5 -0.4,0.3 -0.7,0.8 -0.7,1.3 0,0.5 0.2,1 0.6,1.3 0.5,0.3 1.1,0.5 1.9,0.5 z M 3.6,33.4 c 0,0.2 0,0.3 0,0.5 0,0.7 0.3,1.2 0.9,1.4 H 9 v 1.1 H 2.7 V 35.3 H 3.4 C 2.8,34.9 2.6,34.4 2.6,33.8 c 0,-0.2 0,-0.4 0.1,-0.5 h 0.9 z m 0,-7.1 c 0,0.2 0,0.3 0,0.5 0,0.7 0.3,1.2 0.9,1.4 H 9 v 1.1 H 2.7 V 28.2 H 3.4 C 2.8,27.8 2.6,27.3 2.6,26.7 c 0,-0.2 0,-0.4 0.1,-0.5 h 0.9 z m 5.5,-3.5 c 0,0.9 -0.3,1.6 -0.8,2.1 C 7.7,25.4 7,25.7 6,25.7 H 5.8 C 5.2,25.7 4.6,25.6 4.1,25.3 3.6,25.1 3.2,24.7 2.9,24.3 2.6,23.9 2.5,23.4 2.5,22.9 2.5,22.1 2.8,21.4 3.3,21 3.8,20.5 4.6,20.3 5.6,20.3 h 0.5 v 4.3 c 0.6,0 1.1,-0.2 1.5,-0.5 C 8,23.7 8.2,23.3 8.2,22.8 8.2,22.4 8.1,22.1 8,21.8 7.8,21.5 7.6,21.3 7.4,21.1 l 0.5,-0.7 c 0.8,0.5 1.2,1.3 1.2,2.4 z m -5.7,0.1 c 0,0.4 0.2,0.8 0.5,1.1 0.3,0.3 0.8,0.5 1.3,0.6 v -3.2 0 c -0.6,0 -1,0.2 -1.3,0.4 -0.3,0.3 -0.5,0.7 -0.5,1.1 z M 2.7,18 H 3.5 C 2.9,17.5 2.6,16.9 2.6,16.1 c 0,-1.3 0.8,-2 2.3,-2 H 9 v 1.1 H 4.8 c -0.5,0 -0.8,0.1 -1,0.3 -0.2,0.2 -0.3,0.5 -0.3,1 0,0.4 0.1,0.7 0.3,0.9 0.2,0.2 0.4,0.5 0.7,0.6 H 9 v 1.1 H 2.7 Z M 5.8,12.7 C 4.8,12.7 4,12.5 3.5,12 2.9,11.5 2.6,10.9 2.6,10.2 2.6,9.5 2.9,8.9 3.4,8.4 H 0 v -1 h 9 v 1 H 8.3 c 0.5,0.4 0.8,1 0.8,1.8 0,0.7 -0.3,1.3 -0.9,1.8 -0.6,0.5 -1.4,0.7 -2.4,0.7 z m 0.1,-1.1 c 0.7,0 1.3,-0.1 1.7,-0.4 C 8,10.9 8.2,10.5 8.2,10 8.2,9.3 7.9,8.8 7.3,8.5 H 4.4 C 3.8,8.8 3.5,9.3 3.5,9.9 c 0,0.5 0.2,0.9 0.6,1.2 0.4,0.4 1,0.5 1.8,0.5 z M 9,1.8 C 8.9,1.8 8.7,1.9 8.3,1.9 8.9,2.4 9.1,3 9.1,3.7 9.1,4.3 8.9,4.8 8.6,5.2 8.2,5.7 7.8,5.9 7.2,5.9 6.5,5.9 6,5.7 5.7,5.1 5.3,4.6 5.2,3.9 5.2,3 V 1.9 H 4.7 C 4.3,1.9 4,2 3.8,2.3 3.6,2.5 3.5,2.9 3.5,3.3 3.5,3.7 3.6,4 3.8,4.3 4,4.6 4.2,4.7 4.5,4.7 V 5.8 C 4.2,5.8 3.9,5.7 3.6,5.5 3.2,5.2 3,4.9 2.8,4.5 2.6,4.1 2.5,3.7 2.5,3.2 2.5,2.5 2.7,1.9 3.1,1.5 3.5,1.1 4,0.9 4.6,0.9 h 2.9 c 0.6,0 1,-0.1 1.4,-0.2 H 9 Z M 8.2,3.6 C 8.2,3.3 8.1,2.9 7.9,2.6 7.7,2.3 7.5,2.1 7.2,1.9 H 5.9 v 0.8 c 0,1.3 0.4,2 1.2,2 C 7.4,4.7 7.7,4.6 7.9,4.4 8.1,4.2 8.2,3.9 8.2,3.6 Z"
       id="path46" />
    <path
       fill="none"
       stroke="#000000"
       stroke-miterlimit="10"
       d="M 17.9,51.8 V 2.9"
       id="path48" />
    <path
       d="M 22,6.2 21.2,6.9 17.9,3.3 14.5,6.9 13.8,6.2 17.9,1.8 Z"
       id="path50" />
    <path
       d="M 1,325.5 8,322.7 1,320 v -1.5 h 8.5 v 1.1 H 6.2 l -3.6,-0.1 6.9,2.8 v 0.9 L 2.6,326 6.2,325.9 H 9.5 V 327 H 1 Z m 8.6,-11.4 c 0,0.9 -0.3,1.6 -0.8,2.1 -0.6,0.5 -1.3,0.8 -2.3,0.8 H 6.3 C 5.7,317 5.1,316.9 4.6,316.6 4.1,316.4 3.7,316 3.4,315.6 3.1,315.2 3,314.7 3,314.2 c 0,-0.8 0.3,-1.5 0.8,-1.9 0.5,-0.4 1.3,-0.7 2.3,-0.7 h 0.5 v 4.3 c 0.6,0 1.1,-0.2 1.5,-0.5 0.4,-0.4 0.6,-0.8 0.6,-1.3 0,-0.4 -0.1,-0.7 -0.2,-1 -0.2,-0.3 -0.4,-0.5 -0.6,-0.7 l 0.5,-0.7 c 0.8,0.5 1.2,1.3 1.2,2.4 z m -5.7,0.1 c 0,0.4 0.2,0.8 0.5,1.1 0.3,0.3 0.8,0.5 1.3,0.6 v -3.2 0 c -0.6,0 -1,0.2 -1.3,0.4 -0.3,0.3 -0.5,0.6 -0.5,1.1 z M 3.2,309.3 H 4 c -0.6,-0.5 -0.9,-1.1 -0.9,-1.9 0,-1.3 0.8,-2 2.3,-2 h 4.2 v 1.1 H 5.3 c -0.5,0 -0.8,0.1 -1,0.3 -0.2,0.2 -0.3,0.5 -0.3,1 0,0.4 0.1,0.7 0.3,0.9 0.2,0.3 0.4,0.5 0.7,0.6 h 4.5 v 1.1 H 3.2 Z M 6.3,304 c -0.6,0 -1.2,-0.1 -1.7,-0.4 -0.5,-0.2 -0.9,-0.6 -1.1,-1 -0.3,-0.4 -0.4,-0.9 -0.4,-1.5 0,-0.9 0.3,-1.6 0.9,-2.1 0.6,-0.5 1.4,-0.8 2.4,-0.8 h 0.1 c 0.6,0 1.2,0.1 1.7,0.4 0.5,0.2 0.9,0.6 1.1,1 0.3,0.4 0.4,0.9 0.4,1.5 0,0.9 -0.3,1.6 -0.9,2.1 -0.7,0.5 -1.5,0.8 -2.5,0.8 z m 0.1,-1.1 c 0.7,0 1.3,-0.2 1.7,-0.5 0.4,-0.3 0.6,-0.8 0.6,-1.3 0,-0.6 -0.2,-1 -0.6,-1.3 -0.4,-0.3 -1,-0.5 -1.8,-0.5 -0.7,0 -1.3,0.2 -1.7,0.5 -0.4,0.3 -0.7,0.8 -0.7,1.3 0,0.5 0.2,1 0.6,1.3 0.5,0.3 1.1,0.5 1.9,0.5 z m -2.3,-9.1 c 0,0.2 0,0.3 0,0.5 0,0.7 0.3,1.2 0.9,1.4 h 4.5 v 1.1 H 3.2 v -1.1 h 0.7 c -0.6,-0.4 -0.8,-0.9 -0.8,-1.5 0,-0.2 0,-0.4 0.1,-0.5 h 0.9 z m 0,-7 c 0,0.2 0,0.3 0,0.5 0,0.7 0.3,1.2 0.9,1.4 h 4.5 v 1.1 H 3.2 v -1.1 h 0.7 c -0.6,-0.4 -0.8,-0.9 -0.8,-1.5 0,-0.2 0,-0.4 0.1,-0.5 h 0.9 z m 5.5,-3.6 c 0,0.9 -0.3,1.6 -0.8,2.1 -0.6,0.5 -1.3,0.8 -2.3,0.8 H 6.3 c -0.6,0 -1.2,-0.1 -1.7,-0.4 -0.5,-0.2 -0.9,-0.6 -1.2,-1 -0.3,-0.4 -0.4,-0.9 -0.4,-1.4 0,-0.8 0.3,-1.5 0.8,-1.9 0.5,-0.5 1.3,-0.7 2.3,-0.7 h 0.5 v 4.3 c 0.6,0 1.1,-0.2 1.5,-0.5 0.4,-0.4 0.6,-0.8 0.6,-1.3 0,-0.4 -0.1,-0.7 -0.2,-1 -0.2,-0.3 -0.4,-0.5 -0.6,-0.7 l 0.5,-0.7 c 0.8,0.6 1.2,1.4 1.2,2.4 z m -5.7,0.2 c 0,0.4 0.2,0.8 0.5,1.1 0.3,0.3 0.8,0.5 1.3,0.6 v -3.2 0 c -0.6,0 -1,0.2 -1.3,0.4 -0.3,0.3 -0.5,0.6 -0.5,1.1 z M 3.2,278.5 H 4 c -0.7,-0.5 -1,-1.2 -1,-1.9 0,-1.3 0.8,-2 2.3,-2 h 4.2 v 1.1 H 5.3 c -0.5,0 -0.8,0.1 -1,0.3 -0.2,0.2 -0.3,0.5 -0.3,1 0,0.4 0.1,0.7 0.3,0.9 0.2,0.3 0.4,0.5 0.7,0.6 h 4.5 v 1.1 H 3.2 Z m 3.1,-5.3 C 5.3,273.2 4.5,273 4,272.5 3.3,272 3,271.4 3,270.7 3,270 3.3,269.4 3.8,268.9 H 0.5 v -1.1 h 9 v 1 l -0.7,0.1 c 0.5,0.4 0.8,1 0.8,1.8 0,0.7 -0.3,1.3 -0.9,1.8 -0.6,0.4 -1.4,0.7 -2.4,0.7 z m 0.1,-1.1 c 0.7,0 1.3,-0.1 1.7,-0.4 0.4,-0.3 0.6,-0.7 0.6,-1.2 0,-0.7 -0.3,-1.2 -0.9,-1.5 H 4.9 c -0.6,0.3 -0.9,0.8 -0.9,1.5 0,0.5 0.2,0.9 0.6,1.2 0.4,0.2 1,0.4 1.8,0.4 z m 3.1,-9.9 c -0.1,0.1 -0.3,0.1 -0.7,0.2 0.5,0.5 0.8,1.1 0.8,1.8 0,0.6 -0.2,1.1 -0.5,1.5 -0.4,0.4 -0.8,0.6 -1.3,0.6 -0.7,0 -1.2,-0.2 -1.5,-0.8 -0.4,-0.5 -0.6,-1.2 -0.6,-2.1 v -1.1 H 5.2 c -0.4,0 -0.7,0.1 -0.9,0.3 -0.2,0.2 -0.3,0.6 -0.3,1 0,0.4 0.1,0.7 0.3,1 0.2,0.3 0.4,0.4 0.7,0.4 v 1.1 c -0.3,0 -0.6,-0.1 -0.9,-0.3 -0.3,-0.2 -0.5,-0.5 -0.7,-0.9 -0.2,-0.4 -0.3,-0.8 -0.3,-1.3 0,-0.7 0.2,-1.3 0.6,-1.7 0.4,-0.4 0.9,-0.6 1.5,-0.6 H 8 c 0.6,0 1,-0.1 1.4,-0.2 H 9.5 Z M 8.7,264 c 0,-0.3 -0.1,-0.7 -0.3,-1 C 8.2,262.7 8,262.5 7.7,262.3 H 6.4 v 0.8 c 0,1.3 0.4,2 1.2,2 0.3,0 0.6,-0.1 0.8,-0.3 0.2,-0.2 0.3,-0.4 0.3,-0.8 z"
       id="path52" />
    <path
       fill="none"
       stroke="#000000"
       stroke-miterlimit="10"
       d="m 18.4,276.2 v 48.9"
       id="path54" />
    <path
       d="m 14.3,321.8 0.7,-0.7 3.4,3.7 3.3,-3.7 0.8,0.7 -4.1,4.4 z"
       id="path56" />
    <g
       class="chart__bar"
       id="g64">
      <path
         fill="none"
         stroke="#d1d3d4"
         d="m 336.7,0 h -120 v 24.3 h 120 z"
         id="path58" />
      <path
         fill="#9b060e"
         d="M 216.7,0 H 75.9 v 24.3 h 140.8 z"
         id="path60" />
      <text
         class="chart__label"
         transform="translate(220,18)"
         id="text62">54%</text>
    </g>
    <g
       class="chart__bar"
       id="g72">
      <path
         fill="none"
         stroke="#d1d3d4"
         d="M 336.7,33.7 H 167.2 V 58 h 169.5 z"
         id="path66" />
      <path
         fill="#9b060e"
         d="M 167.2,33.7 H 75.9 V 58 h 91.3 z"
         id="path68" />
      <text
         class="chart__label"
         transform="translate(170,51.8889)"
         id="text70">35%</text>
    </g>
    <g
       class="chart__bar"
       id="g80">
      <path
         fill="none"
         stroke="#d1d3d4"
         d="M 336.7,67.5 H 180.2 v 24.3 h 156.5 z"
         id="path74" />
      <path
         fill="#9b060e"
         d="M 180.2,67.5 H 75.9 v 24.3 h 104.3 z"
         id="path76" />
      <text
         class="chart__label"
         transform="translate(183,85.7778)"
         id="text78">40%</text>
    </g>
    <g
       class="chart__bar"
       id="g88">
      <path
         fill="none"
         stroke="#d1d3d4"
         d="M 336.7,101.2 H 169.8 v 24.3 h 166.9 z"
         id="path82" />
      <path
         fill="#9b060e"
         d="M 169.8,101.2 H 75.9 v 24.3 h 93.9 z"
         id="path84" />
      <text
         class="chart__label"
         transform="translate(173,119.6667)"
         id="text86">36%</text>
    </g>
    <g
       class="chart__bar"
       id="g96">
      <path
         fill="none"
         stroke="#d1d3d4"
         d="M 336.7,135 H 164.6 v 24.3 h 172.1 z"
         id="path90" />
      <path
         fill="#9b060e"
         d="M 164.6,135 H 75.9 v 24.3 h 88.7 V 135 Z"
         id="path92" />
      <text
         class="chart__label"
         transform="translate(168,153.5556)"
         id="text94">34%</text>
    </g>
    <g
       class="chart__bar"
       id="g104">
      <path
         fill="none"
         stroke="#d1d3d4"
         d="M 336.7,168.7 H 151.5 V 193 h 185.2 z"
         id="path98" />
      <path
         fill="#9b060e"
         d="M 151.5,168.7 H 75.9 V 193 h 75.6 z"
         id="path100" />
      <text
         class="chart__label"
         transform="translate(155,187.4444)"
         id="text102">29%</text>
    </g>
    <g
       class="chart__bar"
       id="g112">
      <path
         fill="none"
         stroke="#d1d3d4"
         d="M 336.7,202.5 H 151.5 v 24.3 h 185.2 z"
         id="path106" />
      <path
         fill="#9b060e"
         d="M 151.5,202.5 H 75.9 v 24.3 h 75.6 z"
         id="path108" />
      <text
         class="chart__label"
         transform="translate(155,221.3333)"
         id="text110">29%</text>
    </g>
    <g
       class="chart__bar"
       id="g120">
      <path
         fill="none"
         stroke="#d1d3d4"
         d="M 336.7,236.2 H 154.1 v 24.3 h 182.6 z"
         id="path114" />
      <path
         fill="#9b060e"
         d="M 154.1,236.2 H 75.9 v 24.3 h 78.2 z"
         id="path116" />
      <text
         class="chart__label"
         transform="translate(157,255.2222)"
         id="text118">30%</text>
    </g>
    <g
       class="chart__bar"
       id="g128">
      <path
         fill="none"
         stroke="#d1d3d4"
         d="M 336.7,270 H 117.6 v 24.3 h 219.1 z"
         id="path122" />
      <path
         fill="#9b060e"
         d="M 117.6,270 H 75.9 v 24.3 h 41.7 V 270 Z"
         id="path124" />
      <text
         class="chart__label"
         transform="translate(121,289.1111)"
         id="text126">16%</text>
    </g>
    <g
       class="chart__bar"
       id="g136">
      <path
         fill="none"
         stroke="#d1d3d4"
         d="M 336.7,303.7 H 112.4 V 328 h 224.3 z"
         id="path130" />
      <path
         fill="#9b060e"
         d="M 112.4,303.7 H 75.9 V 328 h 36.5 z"
         id="path132" />
      <text
         class="chart__label"
         transform="translate(114,323)"
         id="text134">14%</text>
    </g>
  </g>
  <g
     id="g170"
     transform="translate(0.70508751,2.3477849)">
    <path
       d="m 180.6,363.6 v 0.6 c 0.4,-0.5 0.9,-0.7 1.6,-0.7 0.7,0 1.2,0.3 1.5,0.8 0.2,-0.3 0.4,-0.5 0.7,-0.6 0.3,-0.2 0.6,-0.2 1,-0.2 1.2,0 1.7,0.6 1.8,1.8 v 3.5 h -0.9 v -3.5 c 0,-0.4 -0.1,-0.7 -0.3,-0.8 -0.2,-0.2 -0.5,-0.3 -0.9,-0.3 -0.3,0 -0.6,0.1 -0.8,0.3 -0.2,0.2 -0.3,0.5 -0.4,0.8 v 3.5 H 183 v -3.5 c 0,-0.8 -0.4,-1.2 -1.1,-1.2 -0.6,0 -1,0.3 -1.2,0.8 v 3.9 h -0.9 v -5.3 h 0.8 z"
       id="path154" />
    <path
       d="m 190.7,369 c -0.7,0 -1.3,-0.2 -1.7,-0.7 -0.4,-0.5 -0.7,-1.1 -0.7,-1.9 v -0.2 c 0,-0.5 0.1,-1 0.3,-1.4 0.2,-0.4 0.5,-0.7 0.8,-1 0.4,-0.2 0.8,-0.3 1.2,-0.3 0.7,0 1.2,0.2 1.6,0.7 0.4,0.5 0.6,1.1 0.6,1.9 v 0.4 h -3.6 c 0,0.5 0.2,0.9 0.5,1.3 0.3,0.3 0.7,0.5 1.1,0.5 0.3,0 0.6,-0.1 0.8,-0.2 0.2,-0.1 0.4,-0.3 0.6,-0.5 l 0.6,0.4 c -0.5,0.7 -1.2,1 -2.1,1 z m -0.1,-4.7 c -0.4,0 -0.7,0.1 -0.9,0.4 -0.2,0.3 -0.4,0.6 -0.5,1.1 h 2.6 v -0.1 c 0,-0.5 -0.1,-0.8 -0.4,-1.1 -0.1,-0.2 -0.4,-0.3 -0.8,-0.3 z m 0.4,-2.9 h 1.1 l -1.3,1.4 h -0.7 z"
       id="path156" />
    <path
       d="m 193.6,366.2 c 0,-0.8 0.2,-1.5 0.6,-2 0.4,-0.5 0.9,-0.7 1.5,-0.7 0.6,0 1.1,0.2 1.5,0.6 v -2.8 h 0.9 v 7.5 h -0.8 v -0.6 c -0.4,0.4 -0.9,0.7 -1.5,0.7 -0.6,0 -1.1,-0.3 -1.5,-0.8 -0.5,-0.3 -0.7,-1 -0.7,-1.9 z m 0.9,0.1 c 0,0.6 0.1,1.1 0.4,1.4 0.3,0.3 0.6,0.5 1,0.5 0.6,0 1,-0.3 1.3,-0.8 V 365 c -0.3,-0.5 -0.7,-0.7 -1.2,-0.7 -0.4,0 -0.8,0.2 -1,0.5 -0.2,0.3 -0.5,0.9 -0.5,1.5 z"
       id="path158" />
    <path
       d="m 199.5,362.2 c 0,-0.1 0,-0.3 0.1,-0.4 0.1,-0.1 0.2,-0.2 0.4,-0.2 0.2,0 0.3,0.1 0.4,0.2 0.1,0.1 0.1,0.2 0.1,0.4 0,0.2 0,0.3 -0.1,0.4 -0.1,0.1 -0.2,0.1 -0.4,0.1 -0.2,0 -0.3,0 -0.4,-0.1 -0.1,-0.1 -0.1,-0.2 -0.1,-0.4 z m 0.9,6.7 h -0.9 v -5.3 h 0.9 z"
       id="path160" />
    <path
       d="m 205.1,368.9 c -0.1,-0.1 -0.1,-0.3 -0.1,-0.6 -0.4,0.4 -0.9,0.7 -1.5,0.7 -0.5,0 -0.9,-0.1 -1.3,-0.4 -0.3,-0.3 -0.5,-0.7 -0.5,-1.1 0,-0.5 0.2,-1 0.6,-1.3 0.4,-0.3 1,-0.5 1.8,-0.5 h 0.9 v -0.4 c 0,-0.3 -0.1,-0.6 -0.3,-0.8 -0.2,-0.2 -0.5,-0.3 -0.8,-0.3 -0.3,0 -0.6,0.1 -0.8,0.2 -0.2,0.1 -0.3,0.4 -0.3,0.6 h -0.9 c 0,-0.3 0.1,-0.5 0.3,-0.8 0.2,-0.2 0.4,-0.4 0.8,-0.6 0.3,-0.1 0.7,-0.2 1.1,-0.2 0.6,0 1.1,0.2 1.4,0.5 0.3,0.3 0.5,0.7 0.5,1.3 v 2.4 c 0,0.5 0.1,0.9 0.2,1.2 v 0.1 z m -1.5,-0.7 c 0.3,0 0.6,-0.1 0.8,-0.2 0.2,-0.1 0.4,-0.3 0.6,-0.6 v -1.1 h -0.7 c -1.1,0 -1.7,0.3 -1.7,1 0,0.3 0.1,0.5 0.3,0.7 0.2,0.2 0.5,0.2 0.7,0.2 z"
       id="path162" />
    <path
       d="m 211,364.9 h 0.7 c 0.4,0 0.8,-0.1 1,-0.3 0.2,-0.2 0.4,-0.5 0.4,-0.9 0,-0.8 -0.4,-1.2 -1.2,-1.2 -0.4,0 -0.7,0.1 -0.9,0.3 -0.2,0.2 -0.3,0.5 -0.3,0.9 h -0.9 c 0,-0.6 0.2,-1 0.6,-1.4 0.4,-0.4 0.9,-0.6 1.6,-0.6 0.7,0 1.2,0.2 1.6,0.5 0.4,0.3 0.6,0.8 0.6,1.5 0,0.3 -0.1,0.6 -0.3,0.9 -0.2,0.3 -0.5,0.5 -0.8,0.6 0.4,0.1 0.7,0.3 0.9,0.6 0.2,0.3 0.3,0.6 0.3,1 0,0.6 -0.2,1.1 -0.6,1.5 -0.4,0.4 -1,0.6 -1.6,0.6 -0.6,0 -1.2,-0.2 -1.6,-0.5 -0.4,-0.4 -0.6,-0.8 -0.6,-1.4 h 0.9 c 0,0.4 0.1,0.7 0.4,0.9 0.3,0.2 0.6,0.3 1,0.3 0.4,0 0.8,-0.1 1,-0.3 0.2,-0.2 0.3,-0.6 0.3,-1 0,-0.4 -0.1,-0.7 -0.4,-1 -0.3,-0.3 -0.6,-0.3 -1.1,-0.3 h -1 z"
       id="path164" />
    <path
       d="m 218.8,365.8 c -0.2,0.2 -0.4,0.4 -0.7,0.5 -0.3,0.1 -0.5,0.2 -0.9,0.2 -0.4,0 -0.8,-0.1 -1.1,-0.3 -0.3,-0.2 -0.5,-0.5 -0.7,-0.9 -0.2,-0.4 -0.2,-0.8 -0.2,-1.2 0,-0.5 0.1,-0.9 0.3,-1.3 0.2,-0.4 0.4,-0.7 0.8,-0.9 0.4,-0.2 0.7,-0.3 1.2,-0.3 0.7,0 1.3,0.3 1.7,0.8 0.4,0.5 0.6,1.2 0.6,2.2 v 0.3 c 0,1.4 -0.3,2.4 -0.8,3 -0.5,0.6 -1.4,1 -2.5,1 h -0.2 v -0.8 h 0.2 c 0.7,0 1.3,-0.2 1.7,-0.6 0.4,-0.4 0.5,-0.9 0.6,-1.7 z m -1.4,0 c 0.3,0 0.6,-0.1 0.8,-0.3 0.3,-0.2 0.4,-0.4 0.6,-0.7 v -0.4 c 0,-0.6 -0.1,-1.1 -0.4,-1.4 -0.3,-0.3 -0.6,-0.6 -1,-0.6 -0.4,0 -0.7,0.2 -1,0.5 -0.2,0.3 -0.4,0.7 -0.4,1.2 0,0.5 0.1,0.9 0.3,1.2 0.4,0.3 0.7,0.5 1.1,0.5 z"
       id="path166" />
    <path
       d="m 220.9,363.2 c 0,-0.4 0.1,-0.8 0.4,-1.1 0.3,-0.3 0.6,-0.4 1,-0.4 0.4,0 0.8,0.1 1.1,0.4 0.3,0.3 0.4,0.6 0.4,1.1 v 0.3 c 0,0.4 -0.1,0.8 -0.4,1.1 -0.3,0.3 -0.6,0.4 -1,0.4 -0.4,0 -0.8,-0.1 -1,-0.4 -0.3,-0.3 -0.4,-0.6 -0.4,-1.1 v -0.3 z m 0.6,0.3 c 0,0.3 0.1,0.5 0.2,0.6 0.1,0.1 0.3,0.2 0.6,0.2 0.2,0 0.4,-0.1 0.6,-0.2 0.1,-0.2 0.2,-0.4 0.2,-0.7 V 363 c 0,-0.3 -0.1,-0.5 -0.2,-0.6 -0.1,-0.2 -0.3,-0.2 -0.6,-0.2 -0.3,0 -0.4,0.1 -0.6,0.2 -0.1,0.2 -0.2,0.4 -0.2,0.7 z m 1,4.9 -0.5,-0.3 3.5,-5.6 0.5,0.3 z m 1.8,-1.2 c 0,-0.4 0.1,-0.8 0.4,-1.1 0.3,-0.3 0.6,-0.4 1,-0.4 0.4,0 0.8,0.1 1,0.4 0.2,0.3 0.4,0.6 0.4,1.1 v 0.3 c 0,0.4 -0.1,0.8 -0.4,1.1 -0.3,0.3 -0.6,0.4 -1,0.4 -0.4,0 -0.8,-0.1 -1,-0.4 -0.3,-0.3 -0.4,-0.6 -0.4,-1.1 z m 0.7,0.3 c 0,0.3 0.1,0.5 0.2,0.6 0.1,0.1 0.3,0.2 0.6,0.2 0.2,0 0.4,-0.1 0.6,-0.2 0.2,-0.1 0.2,-0.4 0.2,-0.7 V 367 c 0,-0.3 -0.1,-0.5 -0.2,-0.6 -0.1,-0.2 -0.3,-0.2 -0.6,-0.2 -0.2,0 -0.4,0.1 -0.6,0.2 -0.1,0.2 -0.2,0.4 -0.2,0.7 z"
       id="path168" />
  </g>
  <path
     style="fill:none;stroke:#000000;stroke-width:0.492275;stroke-linecap:butt;stroke-linejoin:miter;stroke-miterlimit:4;stroke-dasharray:1.9691, 1.9691;stroke-dashoffset:0;stroke-opacity:1"
     d="M 177.06069,1.4033713 V 372.6888"
     id="path280" />
</svg>
