<?xml version="1.0" encoding="utf-8"?>
<!-- Generator: Adobe Illustrator 24.3.0, SVG Export Plug-In . SVG Version: 6.00 Build 0)  -->
<svg version="1.1" id="Layer_1" xmlns="http://www.w3.org/2000/svg" xmlns:xlink="http://www.w3.org/1999/xlink" x="0px" y="0px"
	 viewBox="0 0 49 46" style="enable-background:new 0 0 49 46;" xml:space="preserve">
<path d="M45.2,22.3c-1.9,0-3.5,1.4-3.7,3.3H30.9c-0.2-3-2-5.5-4.5-6.8l2.3-8.8c0.1,0,0.3,0,0.4,0c2.8,0,5-2.3,5-5s-2.3-5-5-5
	c-2.8,0-5,2.3-5,5c0,2.3,1.5,4.2,3.6,4.8l-2.3,8.6c-0.8-0.3-1.7-0.4-2.6-0.4c-2.5,0-4.7,1.1-6.2,2.9l-6.5-4.4
	c0.3-0.7,0.5-1.4,0.5-2.1c0-2.9-2.4-5.3-5.3-5.3C2.4,9,0,11.4,0,14.3s2.4,5.3,5.3,5.3c1.8,0,3.4-0.9,4.3-2.3l6.4,4.3
	c-0.8,1.3-1.3,2.8-1.3,4.4c0,3.7,2.5,6.9,6,7.8l-1.8,6.2c-0.2,0-0.3,0-0.5,0c-1.6,0-3,1.3-3,3c0,1.6,1.3,3,3,3c1.6,0,3-1.3,3-3
	c0-1.1-0.6-2.1-1.6-2.6l1.9-6.3c0.4,0.1,0.8,0.1,1.2,0.1c4.3,0,7.8-3.4,8.1-7.6h10.6c0.2,1.8,1.8,3.3,3.7,3.3c2.1,0,3.8-1.7,3.8-3.8
	S47.3,22.3,45.2,22.3z"/>
</svg>
