<?xml version="1.0" encoding="utf-8"?>
<!-- Generator: Adobe Illustrator 24.3.0, SVG Export Plug-In . SVG Version: 6.00 Build 0)  -->
<svg version="1.1" id="Layer_1" xmlns="http://www.w3.org/2000/svg" xmlns:xlink="http://www.w3.org/1999/xlink" x="0px" y="0px"
	 viewBox="0 0 96 92.4" style="enable-background:new 0 0 96 92.4;" xml:space="preserve">
<g>
	<path d="M84.2,26.2c-4,0-7.2,3.2-7.2,7.2c0,4,3.2,7.2,7.2,7.2c4,0,7.2-3.2,7.2-7.2C91.4,29.4,88.1,26.2,84.2,26.2z M84.3,36.3
		c-1.6,0.1-2.9-1.2-3-2.8c-0.1-1.6,1.2-2.9,2.8-3c1.6-0.1,2.9,1.2,3,2.8C87.1,34.9,85.9,36.2,84.3,36.3z"/>
	<path d="M95.9,33.4c0-6.5-5.2-11.7-11.7-11.7c-6.5,0-11.7,5.2-11.7,11.7c0,6.4,5.2,11.7,11.6,11.7H71.9l1.7,6.2h20.2v-6.2h-9.6
		C90.7,45,95.9,39.8,95.9,33.4z M84.2,42.1c-4.8,0-8.7-3.9-8.7-8.7c0-4.8,3.9-8.7,8.7-8.7c4.8,0,8.7,3.9,8.7,8.7
		C92.9,38.2,89,42.1,84.2,42.1z"/>
	<polygon points="21.2,53.3 1.6,53.3 1.6,59.5 19.5,59.5 	"/>
	<polygon points="1.6,92.4 10.2,92.4 12,86.2 1.6,86.2 	"/>
	<path d="M1.6,84.2h11c0-0.1,1.9-6.6,1.7-6.2H1.6V84.2z"/>
	<path d="M16.6,69.8h-15V76h13.3C14.9,75.9,16.7,69.3,16.6,69.8z"/>
	<path d="M18.9,61.5H1.6v6.2h15.6C17.2,67.6,19,61.1,18.9,61.5z"/>
	<path d="M78.3,67.7h15.6v-6.2H76.5C76.6,61.6,78.4,68.1,78.3,67.7z"/>
	<path d="M69.8,45.2h-5.6c0,0.1,8.8,47,8.8,47.1h10.1C70.4,47.2,69.8,45.1,69.8,45.2z"/>
	<polygon points="76,59.5 93.9,59.5 93.9,53.3 74.2,53.3 	"/>
	<path d="M82.9,84.2h10.9V78H81.2C81.2,78.1,83,84.6,82.9,84.2z"/>
	<path d="M80.6,76h13.3v-6.2h-15C78.9,69.9,80.7,76.4,80.6,76z"/>
	<polygon points="85.2,92.4 93.9,92.4 93.9,86.2 83.5,86.2 	"/>
	<polygon points="36.6,92.3 46.7,92.3 46.7,45.2 41,45.2 	"/>
	<polygon points="33.3,45.2 24.5,92.3 34.6,92.3 39,45.2 	"/>
	<path d="M54.4,45.2h-3.5c4.2-0.2,7.5-3.7,7.5-7.9c0-4.4-3.6-8-8-8c-4.4,0-8,3.6-8,8c0,4.2,3.3,7.7,7.5,7.9h-1.3v47.1h10.1
		C58.4,88.1,54.9,50.3,54.4,45.2z M47.5,37.3c0-1.7,1.3-3,3-3c1.7,0,3,1.3,3,3c0,1.6-1.3,3-3,3C48.8,40.3,47.5,38.9,47.5,37.3z"/>
	<path d="M31.2,45.2h-5.6c-1,3.6-13.2,47-13.3,47.1h10.1C25.3,76.6,28.3,60.8,31.2,45.2z"/>
	<path d="M62.1,45.2h-5.7c0.6,6.7,3.8,40.3,4.4,47.1H71C70.9,91.8,62.2,45.4,62.1,45.2z"/>
	<path d="M6.8,31c1.8,0.1,3.5-0.4,4.9-1.4c0,0,0,0,0,0v15.5H1.6v6.2h20.2l1.7-6.2h-9.7V29.6c0,0,0,0,0.1,0c1.4,1,3.1,1.5,4.9,1.4
		c3.6-0.3,6.5-3.1,6.8-6.7c0.3-3.3-1.6-6.2-4.4-7.4c-0.7-0.3-1.1-1-1-1.7c0-0.1,0-0.2,0-0.4c0-4.1-3.3-7.4-7.4-7.4
		c-4.1,0-7.4,3.3-7.4,7.4c0,0.1,0,0.2,0,0.4c0,0.7-0.4,1.4-1,1.7C1.6,18.1-0.3,21,0,24.3C0.3,27.9,3.3,30.7,6.8,31z M17.3,20.6
		c0.7,0,1.3,0.6,1.3,1.4c0,0.7-0.6,1.3-1.3,1.3c-0.7,0-1.4-0.6-1.4-1.3C16,21.2,16.6,20.6,17.3,20.6z M13.6,13.6
		c0.8,0,1.5,0.7,1.5,1.5s-0.7,1.5-1.5,1.5c-0.8,0-1.5-0.7-1.5-1.5S12.8,13.6,13.6,13.6z"/>
	<path d="M59.3,32.6h1.1c0.4,1,0.7,2.1,0.8,3.2c0.1,0.9,0,1.9-0.2,2.8c-0.1,0.4,0.2,0.8,0.6,0.9c0.1,0,0.1,0,0.2,0
		c0.3,0,0.7-0.2,0.7-0.6c0.3-1.1,0.4-2.2,0.3-3.3c-0.1-1.1-0.3-2.1-0.7-3.1h8.4c0.4-7.2,6.4-12.9,13.7-12.9c5,0,9.4,2.7,11.8,6.8
		L92.7,16c-0.2-0.4-0.5-0.6-0.9-0.6h-1.5L87.8,2.6c-0.2-1.3-1.4-2.2-2.6-2.2H70.1c-1.3,0-2.4,0.9-2.7,2.2L65,15.4h-3.8V8.2
		c0-0.6-0.5-1-1-1h-1.3V2.1c0-0.2-0.2-1.1-1-1.7c-0.3-0.2-0.9-0.5-1.8-0.3c-0.5,0.1-0.9,0.7-0.8,1.2c0.1,0.5,0.7,0.9,1.2,0.8
		c0.1,0,0.2,0,0.2,0c0,0,0.1,0.1,0.1,0.2v4.9h-1.3c-0.6,0-1,0.5-1,1v7.2h-5.8c-1.5,0-2.7,1.2-2.7,2.7v10.2c1.3-0.7,2.9-1.1,4.5-1.1
		C54.3,27.3,57.6,29.4,59.3,32.6z M84.1,6l1.6,9.7h-7.5L78,6C78,6,84.1,6,84.1,6z M70,12.9l1.2-7h5.4v10.2l-5.8,5.3
		c-0.7,0-1.3-0.6-1.3-1.3C69.4,17.7,69.6,15.3,70,12.9z M57.6,19.6c0-0.4,0.3-0.8,0.8-0.8c0.4,0,0.8,0.3,0.8,0.8v3.2
		c0,0.4-0.3,0.8-0.8,0.8c-0.4,0-0.8-0.3-0.8-0.8V19.6z M54.6,19.6c0-0.4,0.3-0.8,0.8-0.8c0.4,0,0.8,0.3,0.8,0.8v3.2
		c0,0.4-0.3,0.8-0.8,0.8c-0.4,0-0.8-0.3-0.8-0.8V19.6z M51.6,19.6c0-0.4,0.3-0.8,0.8-0.8c0.4,0,0.8,0.3,0.8,0.8v3.2
		c0,0.4-0.3,0.8-0.8,0.8c-0.4,0-0.8-0.3-0.8-0.8V19.6z"/>
</g>
</svg>
