<svg width="80" height="60" viewBox="0 0 80 60" fill="none" xmlns="http://www.w3.org/2000/svg">
<path d="M79.9999 19.368C79.9999 11.4114 77.1999 5.02515 73.6999 5.02515C73.6999 5.02515 73.6999 10.3644 73.6999 17.9023C73.5999 24.2885 73.4999 30.7794 73.6999 30.7794C73.6999 41.6674 73.6999 51.8225 73.6999 52.1366C73.6999 52.8694 73.6999 53.707 75.1999 53.707C76.5999 53.707 76.2999 46.6926 76.2999 30.0466C78.4999 28.5809 79.9999 25.2307 79.9999 19.368Z" fill="black"/>
<path d="M5.2 52.7649V21.6713C5.2 21.6713 8.2 19.3681 8.2 15.4945V6.90976C8.2 6.49099 7.9 6.17692 7.5 6.17692C7 6.07222 6.7 6.49099 6.7 6.90976V14.657H6V6.90976C6 6.49099 5.7 6.17692 5.3 6.17692C4.9 6.17692 4.6 6.49099 4.6 6.90976V14.657H3.7V6.90976C3.7 6.49099 3.4 6.17692 3 6.17692C2.6 6.17692 2.3 6.49099 2.3 6.90976V14.657H1.5V6.90976C1.5 6.49099 1.2 6.17692 0.8 6.17692C0.3 6.07222 0 6.49099 0 6.90976V15.4945C0 19.3681 3 21.6713 3 21.6713V52.7649C3 53.6024 5.2 53.6024 5.2 52.7649Z" fill="black"/>
<path d="M64.3 24.9167C63.7 21.1478 62.2 17.5883 60.2 14.5522L62.8 11.8302L56.6 5.3393L54 8.16598C51.1 6.07214 47.7 4.50176 44.1 3.87361V0H35.4V3.87361C31.8 4.50176 28.4 6.07214 25.5 8.16598L22.9 5.44399L16.7 11.9349L19.3 14.6569C17.3 17.693 15.8 21.2525 15.2 25.0214H11.5V34.1296H15.2C15.8 37.8985 17.3 41.4581 19.3 44.4941L16.8 47.1114L23 53.6023L25.6 50.8803C28.5 52.9742 31.9 54.5446 35.5 55.1727V59.0463H44.2V55.1727C47.8 54.5446 51.2 52.9742 54.1 50.8803L56.7 53.6023L62.9 47.1114L60.3 44.3894C62.3 41.3534 63.8 37.7938 64.4 34.0249H68V24.9167H64.3ZM39.8 48.3677C29.9 48.3677 21.8 39.8877 21.8 29.5232C21.8 19.1587 29.9 10.6786 39.8 10.6786C49.7 10.6786 57.8 19.1587 57.8 29.5232C57.8 39.8877 49.7 48.3677 39.8 48.3677Z" fill="black"/>
</svg>
