<?xml version="1.0" encoding="utf-8"?>
<!-- Generator: Adobe Illustrator 24.3.0, SVG Export Plug-In . SVG Version: 6.00 Build 0)  -->
<svg version="1.1" id="Layer_1" xmlns="http://www.w3.org/2000/svg" xmlns:xlink="http://www.w3.org/1999/xlink" x="0px" y="0px"
	 viewBox="0 0 119.9 117.2" style="enable-background:new 0 0 119.9 117.2;" xml:space="preserve">
<style type="text/css">
	.st0{fill:#FFFFFF;}
</style>
<g>
	<g>
		<path class="st0" d="M63.8,54.8c-0.1-0.1-0.5-0.4-1-0.9c-0.7-0.6-1.7-1.5-2.8-2.5c-1.2-1-2.5-2.3-3.9-3.6
			c-0.7-0.7-1.4-1.4-2.1-2.1c-0.1-0.1-0.3-0.3-0.4-0.4c-0.6-0.6-1.2-1.1-1.7-1.7c-0.7-0.7-1.4-1.5-2.1-2.2c-0.7-0.7-1.4-1.4-2-2.2
			c-0.6-0.7-1.2-1.4-1.8-2.1c-0.1-0.2-0.3-0.3-0.4-0.5H46c0.1,0.1,0.2,0.2,0.3,0.3c0.6,0.6,1.2,1.3,1.9,2s1.4,1.4,2.1,2.1
			c0.7,0.7,1.5,1.4,2.2,2.1c0.4,0.4,0.9,0.8,1.3,1.2c0.3,0.3,0.7,0.6,1,0.9c0.8,0.7,1.5,1.3,2.2,2c1.5,1.2,2.8,2.4,4,3.4
			s2.2,1.8,2.9,2.3c0.6,0.5,1,0.8,1.1,0.8c-0.1-1.4-0.3-3.9-0.4-4.2c-0.1-1-0.3-2-0.5-2.9c-0.8-3.5-2-7-3.7-10
			c-0.1-0.1-0.1-0.3-0.2-0.4C58.9,34,57,31.5,55,30c-0.4-0.3-0.7-0.5-1.1-0.8c-3.4-2.1-7.2-3.1-11.1-3.8c-1.9-0.3-3.8-0.6-5.7-0.9
			c-0.3,0-3.9-0.6-3.9-0.7C32.6,23.9,30.8,53.1,63.8,54.8z"/>
	</g>
	<g>
		<path class="st0" d="M74.9,40.9c0.2-0.9,0.4-2.2,0.7-3.7c0.3-1.5,0.7-3.3,1.1-5.2c0.2-0.9,0.5-1.9,0.7-2.9
			c0.1-0.2,0.1-0.4,0.2-0.6c0.2-0.8,0.4-1.6,0.6-2.4c0.3-1,0.5-2,0.8-3s0.5-1.9,0.8-2.9c0.3-0.9,0.6-1.8,0.9-2.6
			c0.1-0.2,0.1-0.4,0.2-0.6l0.2,0.3c0,0.1-0.1,0.2-0.1,0.4c-0.2,0.8-0.5,1.7-0.8,2.7c-0.3,0.9-0.5,1.9-0.7,2.9s-0.5,2-0.7,3
			c-0.1,0.6-0.2,1.1-0.3,1.7c-0.1,0.4-0.2,0.9-0.3,1.3c-0.2,1-0.4,2-0.6,2.9c-0.3,1.9-0.7,3.7-0.9,5.2c-0.2,1.5-0.4,2.8-0.5,3.7
			c-0.1,0.7-0.2,1.2-0.2,1.4c1.2-0.8,3.2-2.3,3.4-2.4c0.8-0.6,1.5-1.3,2.3-1.9c2.6-2.4,5-5.3,6.7-8.3c0.1-0.1,0.2-0.3,0.2-0.4
			c1.2-2.2,2.4-5.1,2.6-7.6c0-0.5,0.1-0.9,0.1-1.3c0.1-4-1-7.8-2.4-11.5c-0.7-1.8-1.4-3.6-2.1-5.4c-0.1-0.3-1.5-3.6-1.4-3.7
			c0,0-26,13.2-10.8,42.5C74.7,42.1,74.8,41.6,74.9,40.9z"/>
	</g>
	<g>
		<path class="st0" d="M84.8,46.2c-2,2.4-4,5.2-5.8,8.7c-0.1,0.2,4.4,1.8,4.8,1.9c4.4,1.4,9.2,2.1,13.8,1.6c2.5-0.2,5.5-0.8,7.7-2.1
			c5.6-3,8.9-8.6,12.4-13.7c0.2-0.3,2.2-3.2,2.2-3.2s-16.7-9.3-31.3,2.9C87.3,43.5,86,44.8,84.8,46.2z"/>
	</g>
	<g>
		<path class="st0" d="M70.3,63c0.3,2.5,0.9,5,1.8,7.6c-6.3-1.4-13.2-3.9-19.3-0.4c-1.3,0.8-2.6,2.2-3.5,3.8
			c0.3,0.1,0.6,0.2,0.9,0.3c2.8,0.9,5,2,7,3c2.5,1.3,4.5,2.3,7.4,2.8c6,0.9,11.7,1.4,15.8,1.3c2.7,0,5.3,0.9,7.2,2.8
			c1.8,1.8,2.8,4.2,2.7,6.8c2.7-1,5.4-2.1,8-3.2c1.5-0.6,2.9-1.2,4.4-1.8c0.8-1,1.2-2.2,0.9-3.6c-0.4-1.7-1.5-3.4-2.7-4.7
			c-2.8-3.3-9.1-4-13-4.7c-3.7-0.6-7.5-1-11.2-1.6l0,0c-0.8-1.8-1.5-3.7-2.2-5.6c-2.3-6.8-2.1-12.6,0.4-18c0.1-0.3,0.2-0.6,0.3-1
			c0.1-1.2-0.2-1.6-0.6-1.8c-0.1-0.1-0.2-0.1-0.3-0.1c-0.3,0-0.6,0.2-0.9,0.7c-0.2,0.2-0.3,0.5-0.5,0.7c-1.9,3.1-2.8,6.8-2.9,11.6
			c0,0.4,0.1,1,0.1,1.5C70.1,60.7,70.2,61.8,70.3,63z"/>
	</g>
	<g>
		<path class="st0" d="M117,85.8c-1.4-0.2-3,0.1-4.3,0.6c-8.1,3-15.9,6.4-24,9.4c-0.4,0.2-0.9,0.3-1.1,0.6c-2.1,2.5-4.9,3.5-8,3.5
			c-5,0.1-10.1,0.2-15.1,0.3c-3.4,0.1-6.8,0.2-10.2,0.2c-0.9,0-1.9-0.9-2-2c-0.1-1,0.6-1.4,1.5-1.4c0.3,0,0.7-0.1,1-0.1
			c4.2-0.1,8.5-0.2,12.7-0.3c4.5-0.1,8.9-0.1,13.4-0.4c3.1-0.2,5.2-2.5,5.3-5.5c0.1-3.2-2.4-5.6-5.8-5.6c-5,0.1-11.3-0.6-16.5-1.4
			c-6.1-0.9-9.1-4.1-15-6C39.8,74.8,30.4,75.8,21,76c0-0.7,0-1.3,0-2c-0.1-2.1-1.1-3-3.2-2.9c-5.5,0.1-11,0.3-16.5,0.4
			c-0.3,0-0.7,0.1-1.3,0.1c0.3,2.9,0.5,5.8,0.9,8.6c1.5,10.6,5.2,20.3,11,29.3c0.3,0.4,0.9,0.8,1.4,0.8c1.9,0.1,3.8,0,5.6-0.1
			c1.9-0.1,2.9-1.1,2.8-3c0-0.5,0-1.1,0-1.6l0,0c4.2,1.2,8.5,2.5,12.7,3.7c7.9,2.3,15.7,4.7,23.7,6.7c6.6,1.7,13.3,1.9,19.5-1.6
			c13.3-7.3,26.6-14.6,39.9-21.9c0.7-0.4,1.3-1,1.7-1.6C120.7,89.2,119.6,86.2,117,85.8z"/>
	</g>
</g>
</svg>
