<?xml version="1.0" encoding="utf-8"?>
<!-- Generator: Adobe Illustrator 24.3.0, SVG Export Plug-In . SVG Version: 6.00 Build 0)  -->
<svg version="1.1" id="Layer_1" xmlns="http://www.w3.org/2000/svg" xmlns:xlink="http://www.w3.org/1999/xlink" x="0px" y="0px"
	 viewBox="0 0 89.1 65.1" style="enable-background:new 0 0 89.1 65.1;" xml:space="preserve">
<g>
	<path d="M65.3,13.4c0,0-2.2,1.7,0.8,3.2c0,0,4.3,1.2,4.6,4.6c0,0-0.1,3.5,1.1,4c0,0,1.9,0.5-0.4,6c0,0-0.8,5.6-3.8,8.8
		c0,0-1.4,0.9-1.5,3.3c0,0.1,0,0.2,0,0.3c0.1,2.5-0.5,3.1-2.2,4.5c0,0-2.3,0.7-2.1,4.3c0,0,0.7,1.9-3.2,4.5c0,0-0.7,0.8-0.5,1.4
		c0,0,1.2-0.4,2.4-1.8c0,0,4.7-3.9,6-6c0,0,4.2-4.5,5.9-12.1c0,0,1.2-4.6,1.1-6.4c0,0,0.2,5.3-1.2,9.4c0,0,1.3-0.3,2.1-4.2
		c0,0-1.3,7.3-6.2,13.3c0,0-4.5,6.8-13.2,9.5c0,0,3.4,1.2,10.8-4.8c0,0,9.5-8.9,11.1-21.1c0,0,2.4-7.5,9.2-8.6c0,0,6.2-1.3-0.3-7.7
		c0,0-2.4-2.1-0.7-5.2c0,0,2.6-7.5-10.7-2.4c0,0-3-4-6.1,0.2C68.6,10.5,64.1,10,65.3,13.4z"/>
	<path d="M67.8,22.8c0.4-3.1-3.6-4.3-3.6-4.3c-3-0.4-2.6-5.2-2.6-5.2c0.2-3.7-2-3.1-2-3.1c-3.1-2.2-0.8-6.5-0.8-6.5
		c-3.3,0.5-4.7-1.3-4.7-1.3c-5.1-2.7-6.2,2.1-6.2,2.1c-3.3-1.1-2.1,2.6-2.1,2.6c-1.5,4.2-3.4-0.1-3.4-0.1L42,3.4l-3.2-2.7L35.6,0
		l-5.9,2.3C17.9-1.2,20.9,8,20.9,8c-2.6,11.8,5.2,12.4,5.2,12.4c0.6,2.9,4.9,3.4,4.9,3.4c1.6,7.8,6.5,15,6.5,15
		c-0.3,1.3,0.7,3.3,0.7,3.3l-0.5,2.4c-0.4,3,3.9,4.3,3.9,4.3c1.9,0.9,3.1,3.9,3.1,3.9c0.7,1.3,1.1,3.8,1.1,3.8
		c-1.6-0.7-2.9-1.6-2.9-1.6c-1.8-5.1-3.5-5.2-3.5-5.2c-3.8-1.1-4.4-3.4-4.4-3.4c-0.8-1.3,0.4-4,0.4-4c-1.4-1.6-0.7-3.2-0.7-3.2
		c-0.9-0.6-2.2-3.7-2.2-3.7c-3.4-5.1-3-10.1-3-10.1h-1.6c-1.9-2.5-5.2-3.9-5.2-3.9c-4.4-2.4-3.8-7.1-3.8-7.1L15,15.7l-2.7,3.1
		l-3.6,1L6.3,18l-2.4,1.4C2.1,20.3,0,25,0,25l3.4,2l-0.1,3.1l-1.8,1.1c-0.4,2.8,2,11.2,2,11.2c2.5-2.7,8.1-3.7,8.1-3.7
		c4-0.8,9.5,0.9,9.5,0.9c3.1,1.7,8.3,9.7,8.3,9.7c1.3,3.9,6.1,5.9,6.1,5.9c3.1,2,8.4,3.2,8.4,3.2c2.2,1.6,3.3,3.1,3.3,3.1l1.4,3.1
		l2.1,0.4c0.7-2,3-4.2,3-4.2c0.4-1.7,3.7-2.2,3.7-2.2c-1-1.2,0.1-1.8,0.1-1.8c3.4-2.1,3-4,3-4c-0.1-5,2.4-5.9,2.4-5.9
		c3.1-0.9,1.9-6.4,1.9-6.4c0.1-0.8,2.6-4.2,2.6-4.2C72.4,26.7,67.8,22.8,67.8,22.8z M9.1,34.3c8.9-2.7,0-9.4,0-9.4
		c2.9,1,7.5,6.5,7.5,6.5c2.7-0.7,6.3,1.2,6.3,1.2c1.2-1.2-1.9-7.7-1.9-7.7c3.4,2.2,7.2,15.5,7.2,15.5C23.8,30.5,9.1,34.3,9.1,34.3z
		 M50.2,46.7c1.4,4.1,1.2,13.5,1.2,13.5c-1.2,4.6-5.6-13.5-5.6-13.5c-5.2-4.1-7.5-14.1-7.5-14.1c1.2,2.3,6.8,6.9,6.8,6.9l-2.7-8.2
		l-5.8-5.3l4.3,1.7c-0.2-4.6-7.2-13-7.2-13c0.4,0.2,0.7,0.4,1.1,0.6c3.4,2.3,5.4,5.9,5.4,5.9l1.7-4.6c1,2.9,0,7,0,7l4.3,9.1
		c2.2-0.4,4.8-6.4,4.8-6.4c-1.5,5.8-4.8,9.9-4.8,9.9l2.2,6c5.3-0.7,13-10.9,13-10.9C60.4,37.2,50.2,46.7,50.2,46.7z"/>
</g>
</svg>
