<?xml version="1.0" encoding="utf-8"?>
<!-- Generator: Adobe Illustrator 24.3.0, SVG Export Plug-In . SVG Version: 6.00 Build 0)  -->
<svg version="1.1" id="Layer_1" xmlns="http://www.w3.org/2000/svg" xmlns:xlink="http://www.w3.org/1999/xlink" x="0px" y="0px"
	 viewBox="0 0 76 82" style="enable-background:new 0 0 76 82;" xml:space="preserve">
<path d="M70,66h6v3c0,1.6-1.3,3-3,3s-3-1.4-3-3V66z M73,11.8l-3,4.8V62h6V16.6L73,11.8z M56,2v78c0,1.1-0.9,2-2,2H2
	c-1.1,0-2-0.9-2-2V2c0-1.1,0.9-2,2-2h52C55.1,0,56,0.9,56,2z M16,10c0,1.1,0.9,2,2,2h20c1.1,0,2-0.9,2-2s-0.9-2-2-2H18
	C16.9,8,16,8.9,16,10z M48,72c0-1.1-0.9-2-2-2H10c-1.1,0-2,0.9-2,2s0.9,2,2,2h36C47.1,74,48,73.1,48,72z M48,62c0-1.1-0.9-2-2-2H10
	c-1.1,0-2,0.9-2,2s0.9,2,2,2h36C47.1,64,48,63.1,48,62z M48,40c0-1.1-0.9-2-2-2H10c-1.1,0-2,0.9-2,2s0.9,2,2,2h36
	C47.1,42,48,41.1,48,40z M48,30c0-1.1-0.9-2-2-2H10c-1.1,0-2,0.9-2,2s0.9,2,2,2h36C47.1,32,48,31.1,48,30z M48,20c0-1.1-0.9-2-2-2
	H10c-1.1,0-2,0.9-2,2s0.9,2,2,2h36C47.1,22,48,21.1,48,20z"/>
</svg>
