<svg width="50" height="56" viewBox="0 0 50 56" fill="none" xmlns="http://www.w3.org/2000/svg">
<g clip-path="url(#clip0)">
<path d="M38.6749 23.0354H37.9815V21.4946H38.3667C41.3713 21.5716 44.453 20.6471 46.9183 19.1063C47.3806 18.7982 47.7658 18.49 48.151 18.2589C49.3066 16.7951 50 15.1002 50 13.2512C50 8.16641 44.8382 4.08321 38.4438 4.08321C37.6733 4.08321 36.98 4.16025 36.2096 4.23729C36.98 5.46995 37.3652 6.93374 37.3652 8.39753V8.78274H35.8243V8.39753C35.8243 3.77504 30.9707 0 25.0385 0C19.1063 0 14.2527 3.77504 14.2527 8.39753V8.78274H12.7119V8.39753C12.7119 6.93374 13.0971 5.46995 13.8675 4.23729C13.0971 4.0832 12.3267 4.00616 11.5562 4.00616C5.16179 4.00616 0 8.08937 0 13.1741C0 15.0231 0.693375 16.718 1.849 18.1818C2.23421 18.49 2.61941 18.7982 3.08166 19.0293C5.547 20.6472 8.7057 21.4946 11.6333 21.4176H12.0185V22.9584H11.3251C9.47612 22.9584 7.55008 22.6502 5.77812 22.0339L9.6302 55.47H40.4468L44.2219 22.0339C42.3729 22.6502 40.5239 23.0354 38.6749 23.0354ZM38.5208 49.3066H32.2804V49.3837H31.8952L31.51 49.3066H18.49L17.7966 49.4607V49.3066H11.5562V47.7658H17.4884L15.3313 34.8228L16.8721 34.5917L19.0293 47.7658H24.1911V29.661H25.7319V47.7658H30.8937L33.1279 34.5146L34.6687 34.7458L32.5116 47.7658H38.5208V49.3066Z" fill="black"/>
</g>
<defs>
<clipPath id="clip0">
<rect width="50" height="55.47" fill="white"/>
</clipPath>
</defs>
</svg>
