<svg width="52" height="46" viewBox="0 0 52 46" fill="none" xmlns="http://www.w3.org/2000/svg">
<g clip-path="url(#clip0)">
<path d="M47.2999 38.8999H23.2C22.2 38.8999 21.1 38.0999 20.8 37.0999L9.19995 2.6999C8.89995 1.6999 7.79995 0.899902 6.79995 0.899902H1.19995" stroke="black" stroke-width="1.856" stroke-miterlimit="10"/>
<path d="M24.1 45.0999C25.8121 45.0999 27.2 43.712 27.2 41.9999C27.2 40.2878 25.8121 38.8999 24.1 38.8999C22.3879 38.8999 21 40.2878 21 41.9999C21 43.712 22.3879 45.0999 24.1 45.0999Z" stroke="black" stroke-width="1.856" stroke-miterlimit="10"/>
<path d="M47.1 45.0999C48.8121 45.0999 50.2 43.712 50.2 41.9999C50.2 40.2878 48.8121 38.8999 47.1 38.8999C45.3879 38.8999 44 40.2878 44 41.9999C44 43.712 45.3879 45.0999 47.1 45.0999Z" stroke="black" stroke-width="1.856" stroke-miterlimit="10"/>
<path d="M5.99995 1.7001H1.49995C1.09995 1.7001 0.699951 1.4001 0.699951 0.900098C0.699951 0.400098 1.09995 0.100098 1.49995 0.100098H5.99995C6.49995 0.100098 6.79995 0.500098 6.79995 0.900098C6.79995 1.4001 6.49995 1.7001 5.99995 1.7001Z" fill="black"/>
<path d="M33.5 20.5V23.6C34.7 23.4 35.2 22.9 35.2 22.1C35.2 21.7 35.1 21.4 34.8 21.2C34.6 21 34.2 20.8 33.5 20.5Z" fill="black"/>
<path d="M30.8 17.1998C30.8 17.5998 30.9 17.8998 31.2 18.1998C31.4 18.3998 31.9 18.6998 32.5 18.8998V15.7998C32 15.8998 31.6 16.0998 31.3 16.2998C31 16.4998 30.8 16.7998 30.8 17.1998Z" fill="black"/>
<path d="M49 8.5H11.2L18.8 31.3H46.4C47.4 31.3 48.4 30.5 48.5 29.5L50.7 10.4C50.7999 9.3 50.0999 8.5 49 8.5ZM35.7999 23.9C35.2999 24.4 34.5 24.7 33.5 24.8V26.7H32.5V24.9C31.9 24.9 31.3 24.9 30.8 24.8C30.2 24.7 29.8 24.6 29.4 24.4V23.1C29.8 23.3 30.4 23.5 30.9 23.6C31.5 23.7 32 23.8 32.5 23.8V20.3C31.4 20 30.6 19.5 30.2 19.1C29.8 18.6 29.5 18 29.5 17.3C29.5 16.6 29.8 16 30.3 15.6C30.8 15.1 31.6 14.9 32.5 14.8V13.3H33.5V14.7C34.5 14.7 35.4 14.9 36.4 15.3L36 16.4C35.2 16.1 34.4 15.9 33.6 15.8V19.3C34.4 19.6 35.1 19.8 35.5 20.1C35.9 20.4 36.2 20.6 36.4 21C36.6 21.4 36.7 21.7 36.7 22.2C36.6 22.8 36.2999 23.4 35.7999 23.9Z" fill="black"/>
</g>
<defs>
<clipPath id="clip0">
<rect width="50.4" height="46" fill="white" transform="translate(0.699951)"/>
</clipPath>
</defs>
</svg>
