<?xml version="1.0" encoding="utf-8"?>
<!-- Generator: Adobe Illustrator 24.3.0, SVG Export Plug-In . SVG Version: 6.00 Build 0)  -->
<svg version="1.1" id="Layer_1" xmlns="http://www.w3.org/2000/svg" xmlns:xlink="http://www.w3.org/1999/xlink" x="0px" y="0px"
	 viewBox="0 0 35.2 42.7" style="enable-background:new 0 0 35.2 42.7;" xml:space="preserve">
<g>
	<path d="M20,34V16l-7-7H7l-7,7v18c0,1.1,0.9,2,2,2h16C19.1,36,20,35.1,20,34z M10,13c1.1,0,2,0.9,2,2s-0.9,2-2,2s-2-0.9-2-2
		S8.9,13,10,13z M9.5,25.3l1.4,0.4c1.4,0.4,2.3,1.8,2,3.2c-0.2,0.9-1,1.7-1.9,1.9V32c0,0.6-0.4,1-1,1s-1-0.4-1-1v-1H8
		c-0.6,0-1-0.4-1-1s0.4-1,1-1h2.3c0.4,0,0.7-0.3,0.7-0.7c0-0.3-0.2-0.6-0.5-0.7L9,27.3c-1.4-0.4-2.3-1.8-2-3.2
		c0.2-0.9,1-1.7,1.9-1.9V21c0-0.6,0.4-1,1-1s1,0.4,1,1v1h1c0.6,0,1,0.4,1,1s-0.4,1-1,1H9.7C9.3,24,9,24.3,9,24.7
		C9,25,9.2,25.3,9.5,25.3z"/>
	<path d="M35.2,35.2l-6.2-19c-0.1-0.3-0.3-0.5-0.5-0.6l-8-4.1c-0.5-0.2-1.1-0.1-1.3,0.4c-0.2,0.5-0.1,1.1,0.4,1.3l7.7,3.9l5.7,17.7
		l-17.1,5.6l-0.6-1.7c-0.2-0.5-0.8-0.8-1.3-0.6c-0.5,0.2-0.7,0.7-0.6,1.2l0.9,2.7c0.1,0.4,0.5,0.7,1,0.7c0.1,0,0.2,0,0.3,0l19-6.2
		C35,36.3,35.3,35.7,35.2,35.2C35.2,35.2,35.2,35.2,35.2,35.2z"/>
	<path d="M10.6,7.2c0.5,0.2,1.1,0,1.3-0.5c0,0,0,0,0,0C13,4,15.6,2.1,18.5,2c4.1,0,7.5,4,7.5,9c0,0.6,0.4,1,1,1s1-0.4,1-1
		c0-6.1-4.3-11-9.5-11c-3.7,0.1-7,2.4-8.4,5.9C9.9,6.4,10.1,7,10.6,7.2z"/>
</g>
</svg>
