<?xml version="1.0" encoding="utf-8"?>
<!-- Generator: Adobe Illustrator 24.3.0, SVG Export Plug-In . SVG Version: 6.00 Build 0)  -->
<svg version="1.1" id="Layer_1" xmlns="http://www.w3.org/2000/svg" xmlns:xlink="http://www.w3.org/1999/xlink" x="0px" y="0px"
	 viewBox="0 0 74 54" style="enable-background:new 0 0 74 54;" xml:space="preserve">
<style type="text/css">
	.st0{fill:none;stroke:#000000;stroke-width:1.856;stroke-miterlimit:10;}
</style>
<path d="M3.7,33.1h31.3c2,0,3.7-1.7,3.7-3.7V3.7c0-2-1.7-3.7-3.7-3.7H3.7C1.7,0,0,1.7,0,3.7v25.7C0,31.4,1.7,33.1,3.7,33.1z"/>
<path d="M64.4,12.9H42.3v23.9H0V46h12.3c0-0.1,0-0.1,0-0.2c0-3.8,3-6.8,6.8-6.8c3.8,0,6.8,3,6.8,6.8c0,0.1,0,0.1,0,0.2h16.4h9.2h3.1
	c0-0.1,0-0.1,0-0.2c0-3.8,3-6.8,6.8-6.8c3.8,0,6.8,3,6.8,6.8c0,0.1,0,0.1,0,0.2h5.3V22.1L64.4,12.9z M62.5,25.7c0,2-1.7,3.7-3.7,3.7
	h-8.6c-2,0-3.7-1.7-3.7-3.7V21c0-2,1.7-3.7,3.7-3.7h8.6c2,0,3.7,1.7,3.7,3.7V25.7z"/>
<path class="st0" d="M50.2,17.3h8.6c2,0,3.7,1.7,3.7,3.7v4.8c0,2-1.7,3.7-3.7,3.7h-8.6c-2,0-3.7-1.7-3.7-3.7V21
	C46.5,18.9,48.2,17.3,50.2,17.3z"/>
<path class="st0" d="M19.1,52.6c3.8,0,6.8-3,6.8-6.8c0-3.8-3-6.8-6.8-6.8c-3.8,0-6.8,3-6.8,6.8C12.3,49.6,15.4,52.6,19.1,52.6z"/>
<path class="st0" d="M61.4,52.6c3.8,0,6.8-3,6.8-6.8c0-3.8-3-6.8-6.8-6.8c-3.8,0-6.8,3-6.8,6.8C54.6,49.6,57.7,52.6,61.4,52.6z"/>
</svg>
